<?xml version="1.0" encoding="UTF-8" standalone="no"?>
<!-- Created with Inkscape (http://www.inkscape.org/) -->

<svg
   xmlns:dc="http://purl.org/dc/elements/1.1/"
   xmlns:cc="http://creativecommons.org/ns#"
   xmlns:rdf="http://www.w3.org/1999/02/22-rdf-syntax-ns#"
   xmlns:svg="http://www.w3.org/2000/svg"
   xmlns="http://www.w3.org/2000/svg"
   xmlns:sodipodi="http://sodipodi.sourceforge.net/DTD/sodipodi-0.dtd"
   xmlns:inkscape="http://www.inkscape.org/namespaces/inkscape"
   width="225.091"
   height="31.25"
   viewBox="0 0 225.09101 31.250001"
   id="svg5638"
   version="1.1"
   inkscape:version="0.91 r13725"
   sodipodi:docname="cultivo_logo.svg">
  <defs
     id="defs5640" />
  <sodipodi:namedview
     id="base"
     pagecolor="#ffffff"
     bordercolor="#666666"
     borderopacity="1.0"
     inkscape:pageopacity="0.0"
     inkscape:pageshadow="2"
     inkscape:zoom="0.35"
     inkscape:cx="375"
     inkscape:cy="520"
     inkscape:document-units="px"
     inkscape:current-layer="layer1"
     showgrid="false"
     units="px"
     inkscape:window-width="1299"
     inkscape:window-height="744"
     inkscape:window-x="67"
     inkscape:window-y="24"
     inkscape:window-maximized="1" />
  <metadata
     id="metadata5643">
    <rdf:RDF>
      <cc:Work
         rdf:about="">
        <dc:format>image/svg+xml</dc:format>
        <dc:type
           rdf:resource="http://purl.org/dc/dcmitype/StillImage" />
        <dc:title></dc:title>
      </cc:Work>
    </rdf:RDF>
  </metadata>
  <g
     inkscape:label="Capa 1"
     inkscape:groupmode="layer"
     id="layer1"
     transform="translate(0,-1021.1122)">
    <g
       id="g1866"
       transform="matrix(1.25,0,0,-1.25,15.99875,1025.7014)">
      <path
         d="m 0,0 -9.325,0 0,-6.943 9.177,0 0,-3.276 -9.177,0 0,-7.291 9.971,0 0,-3.322 -13.445,0 0,24.104 13.991,0 L 0,0 Z"
         style="fill:#12232e;fill-opacity:1;fill-rule:nonzero;stroke:none"
         id="path1868"
         inkscape:connector-curvature="0" />
    </g>
    <g
       id="g1870"
       transform="matrix(1.25,0,0,-1.25,21.2075,1051.7415)">
      <path
         d="m 0,0 0,24.104 3.47,0 0,-20.782 9.577,0 L 13.047,0 0,0 Z"
         style="fill:#12232e;fill-opacity:1;fill-rule:nonzero;stroke:none"
         id="path1872"
         inkscape:connector-curvature="0" />
    </g>
    <g
       id="g1874"
       transform="matrix(1.25,0,0,-1.25,55.56351,1052.3617)">
      <path
         d="m 0,0 c -7.79,0 -12.602,4.661 -12.602,12.25 0,7.987 5.954,12.75 13.245,12.75 2.876,0 5.355,-0.399 7.091,-1.54 L 7.636,17.956 c -1.987,1.438 -4.117,1.984 -6.199,1.984 -4.765,0 -7.193,-3.521 -7.193,-7.442 0,-4.214 2.58,-7.288 6.991,-7.288 2.284,0 4.366,0.791 5.858,1.832 L 8.872,2.678 C 6.248,0.794 3.021,0 0,0"
         style="fill:#12232e;fill-opacity:1;fill-rule:nonzero;stroke:none"
         id="path1876"
         inkscape:connector-curvature="0" />
    </g>
    <g
       id="g1878"
       transform="matrix(1.25,0,0,-1.25,93.62851,1048.8277)">
      <path
         d="m 0,0 c -1.983,-1.935 -4.805,-2.827 -8.825,-2.827 -3.571,0 -6.597,0.742 -8.484,2.431 -1.686,1.489 -2.676,3.82 -2.676,6.844 l 0,15.325 6.692,0 0,-14.928 c 0,-1.488 0.397,-2.479 1.044,-3.175 0.841,-0.795 2.08,-1.19 3.523,-1.19 1.633,0 2.925,0.351 3.818,1.19 0.694,0.696 0.893,1.687 0.893,2.977 l 0,15.126 6.696,0 0,-14.682 C 2.681,3.966 1.688,1.689 0,0"
         style="fill:#12232e;fill-opacity:1;fill-rule:nonzero;stroke:none"
         id="path1880"
         inkscape:connector-curvature="0" />
    </g>
    <g
       id="g1882"
       transform="matrix(1.25,0,0,-1.25,100.88913,1051.7415)">
      <path
         d="m 0,0 0,24.104 6.696,0 0,-19.096 8.882,0 L 15.578,0 0,0 Z"
         style="fill:#12232e;fill-opacity:1;fill-rule:nonzero;stroke:none"
         id="path1884"
         inkscape:connector-curvature="0" />
    </g>
    <g
       id="g1886"
       transform="matrix(1.25,0,0,-1.25,145.16326,1028.3675)">
      <path
         d="m 0,0 -6.647,0 0,-18.699 -6.696,0 0,18.699 -7.042,0 0,5.405 21.677,0 L 0,0 Z"
         style="fill:#12232e;fill-opacity:1;fill-rule:nonzero;stroke:none"
         id="path1888"
         inkscape:connector-curvature="0" />
    </g>
    <path
       d="m 150.31263,1021.6113 8.37,0 0,30.13 -8.37,0 0,-30.13 z"
       style="fill:#12232e;fill-opacity:1;fill-rule:nonzero;stroke:none"
       id="path1890"
       inkscape:connector-curvature="0" />
    <g
       id="g1892"
       transform="matrix(1.25,0,0,-1.25,180.50738,1051.9307)">
      <path
         d="m 0,0 -5.011,0 -10.417,24.256 7.146,0 4.71,-12.103 c 0.545,-1.487 1.041,-3.07 1.391,-4.214 l 0.047,0 c 0.349,1.144 0.944,2.678 1.636,4.265 l 5.06,12.052 6.697,0 L 0,0 Z"
         style="fill:#12232e;fill-opacity:1;fill-rule:nonzero;stroke:none"
         id="path1894"
         inkscape:connector-curvature="0" />
    </g>
    <g
       id="g1896"
       transform="matrix(1.25,0,0,-1.25,209.08963,1027.4972)">
      <path
         d="m 0,0 c -3.717,0 -5.898,-2.829 -5.898,-7.394 0,-4.563 2.227,-7.34 5.898,-7.34 3.722,0 5.854,2.777 5.854,7.34 C 5.854,-2.829 3.674,0 0,0 M 8.733,-16.968 C 6.5,-18.803 3.576,-19.892 0,-19.892 c -3.47,0 -6.347,0.989 -8.532,2.779 -2.674,2.181 -4.215,5.553 -4.215,9.719 0,3.97 1.488,7.343 4.117,9.575 2.184,1.835 5.16,2.927 8.733,2.927 3.668,0 6.748,-1.139 8.924,-3.129 2.435,-2.229 3.774,-5.452 3.774,-9.373 0,-4.014 -1.488,-7.34 -4.068,-9.574"
         style="fill:#12232e;fill-opacity:1;fill-rule:nonzero;stroke:none"
         id="path1898"
         inkscape:connector-curvature="0" />
    </g>
  </g>
</svg>
