<?xml version="1.0" standalone="no"?>
<!DOCTYPE svg PUBLIC "-//W3C//DTD SVG 1.1//EN" "http://www.w3.org/Graphics/SVG/1.1/DTD/svg11.dtd" >
<svg xmlns="http://www.w3.org/2000/svg" xmlns:xlink="http://www.w3.org/1999/xlink" version="1.1">
<metadata>
Created by FontForge 20170731 at Mon Apr  1 19:56:56 2002
 By Aleksey,,,
Copyright (c) 1989, 1990, 1999, 2001 Adobe Systems Incorporated.  All Rights Reserved.
</metadata>
<defs>
<font id="BodoniStd-BoldCondensed" horiz-adv-x="389" >
  <font-face 
    font-family="Bodoni Std Bold Condensed"
    font-weight="700"
    font-stretch="condensed"
    units-per-em="1000"
    panose-1="2 7 7 6 7 9 6 2 3 3"
    ascent="698"
    descent="-302"
    x-height="375"
    cap-height="648"
    bbox="-106 -273 1000 868"
    underline-thickness="50"
    underline-position="-200"
    unicode-range="U+0020-FB02"
  />
<missing-glyph horiz-adv-x="500" 
d="M0 0v700h500v-700h-500zM250 395l170 255h-340zM280 350l170 -255v510zM80 50h340l-170 255zM50 605v-510l170 255z" />
    <glyph glyph-name="fi" unicode="fi" horiz-adv-x="444" 
d="M201 21v-21h-201v21h56v333h-56v21h56q0 167 64 235q21 22 55 35t66 13q49 0 85.5 -23t36.5 -68q0 -24 -15 -39t-44 -15q-19 0 -31.5 14.5t-12.5 34.5q0 10 5.5 25.5t5.5 21.5q0 14 -11.5 21t-25.5 7q-37 0 -54.5 -38.5t-17.5 -140.5v-83h63q49 0 74 1q29 1 88 6v-361h39
v-21h-181v21h36v333h-119v-333h39z" />
    <glyph glyph-name="fl" unicode="fl" horiz-adv-x="444" 
d="M199 21v-21h-199v21h56v333h-56v21h56q2 123 28 183q44 100 151 100q9 0 39 -5q22 -6 43 -6q36 0 70 10v-636h37v-21h-181v21h38v333h-119v-333h37zM162 375h119v147q-28 7 -28 38q0 12 7 30t7 27q0 8 -10.5 14.5t-25.5 6.5q-69 0 -69 -144v-119z" />
    <glyph glyph-name=".notdef" horiz-adv-x="500" 
d="M0 0v700h500v-700h-500zM250 395l170 255h-340zM280 350l170 -255v510zM80 50h340l-170 255zM50 605v-510l170 255z" />
    <glyph glyph-name=".null" horiz-adv-x="0" 
 />
    <glyph glyph-name="nonmarkingreturn" horiz-adv-x="333" 
 />
    <glyph glyph-name="space" unicode=" " horiz-adv-x="195" 
 />
    <glyph glyph-name="exclam" unicode="!" horiz-adv-x="222" 
d="M122 205h-23q0 100 -5 136q-8 51 -19.5 109t-18 92.5t-6.5 49.5q0 26 17.5 41t43.5 15t43.5 -15t17.5 -41q0 -15 -6.5 -49.5t-18 -92.5t-19.5 -109q-4 -30 -6 -136zM179 58q0 -28 -20 -48t-48 -20q-29 0 -48.5 20t-19.5 48t20 48t48 20t48 -20t20 -48z" />
    <glyph glyph-name="quotedbl" unicode="&#x22;" horiz-adv-x="444" 
d="M158 373h-43q-22 195 -22 223q0 62 43 62q44 0 44 -62q0 -28 -22 -223zM330 373h-43q-22 195 -22 223q0 62 43 62q44 0 44 -62q0 -28 -22 -223z" />
    <glyph glyph-name="numbersign" unicode="#" 
d="M386 251v-69h-84l-25 -182h-74l26 182h-96l-24 -182h-74l25 182h-83v69h93l16 114h-82v69h92l25 183h73l-25 -183h95l25 183h74l-26 -183h75v-69h-84l-16 -114h74zM253 365h-94l-16 -115h95z" />
    <glyph glyph-name="dollar" unicode="$" 
d="M174 21v250q-74 30 -109.5 73.5t-35.5 118.5q0 58 43 103.5t102 52.5v74h37v-74q63 -4 105 -37t42 -81q0 -28 -15.5 -46t-42.5 -18q-20 0 -34.5 14t-14.5 34q0 29 13.5 41.5t27.5 16t14 10.5q0 14 -26.5 28t-68.5 17v-208q80 -38 118 -83.5t38 -125.5q0 -73 -42.5 -124.5
t-113.5 -56.5v-76h-37v76q-42 2 -74 16t-48.5 34.5t-24 39.5t-7.5 35q0 31 14 53t44 22q24 0 39 -14.5t15 -38.5t-16.5 -38t-33.5 -20.5t-17 -12.5q0 -8 11.5 -20.5t38 -23.5t59.5 -11zM174 400v198q-43 -9 -70 -34t-27 -66q0 -33 25 -55.5t72 -42.5zM211 258v-237
q48 4 77 37t29 89q0 65 -106 111z" />
    <glyph glyph-name="percent" unicode="%" horiz-adv-x="667" 
d="M451 627h42l-297 -638h-42l272 581l-2 2q-51 -25 -111 -23q0 -1 0.5 -10t0.5 -16q0 -73 -52.5 -153.5t-117.5 -80.5q-52 0 -79.5 27.5t-27.5 78.5q0 29 14 66t38 72.5t63 59.5t84 24q15 0 33.5 -10.5t28.5 -23.5q11 -11 36 -11q32 0 66 14.5t51 40.5zM158 316
q38 0 74 44.5t52 101t5 91.5q-26 8 -59 36q-39 -25 -73.5 -100.5t-34.5 -124.5q0 -48 36 -48zM335 102q0 77 59 154t134 77q82 0 82 -104q0 -75 -51.5 -152t-117.5 -77q-46 0 -76 28t-30 74zM420 83q0 -55 39 -55q26 0 52.5 26t41.5 54q35 67 35 126q0 27 -10 49t-33 22
q-40 0 -82.5 -87.5t-42.5 -134.5z" />
    <glyph glyph-name="ampersand" unicode="&#x26;" horiz-adv-x="611" 
d="M351 74l-147 272q-41 -30 -54 -47t-13 -52q0 -23 18.5 -71t52 -92t65.5 -44q55 0 78 34zM247 514l52 -91q29 27 29 98q0 65 -12 89t-45 24q-20 0 -33.5 -13.5t-13.5 -34.5q0 -31 23 -72zM389 0l-24 51q-69 -64 -160 -64q-83 0 -127 52.5t-44 118.5q0 68 43.5 117
t115.5 94q-3 5 -16 28t-18.5 33.5t-14 29.5t-12 35.5t-3.5 32.5q0 59 37 94t109 36q74 1 114 -30t40 -78q0 -33 -20.5 -62.5t-43 -46.5t-57.5 -36l132 -234q61 77 59 200h-59v24h141v-24h-53q-4 -134 -73 -228l66 -119h60v-24h-192z" />
    <glyph glyph-name="quotesingle" unicode="'" horiz-adv-x="222" 
d="M133 373h-43q-22 195 -22 223q0 62 43 62q44 0 44 -62q0 -28 -22 -223z" />
    <glyph glyph-name="parenleft" unicode="(" horiz-adv-x="278" 
d="M118 217q0 -115 10.5 -187.5t42.5 -132.5q36 -66 80 -100v-23q-68 49 -112 102q-121 149 -121 341t121 341q44 53 112 102v-23q-44 -34 -80 -100q-32 -60 -42.5 -132.5t-10.5 -187.5z" />
    <glyph glyph-name="parenright" unicode=")" horiz-adv-x="278" 
d="M160 217q0 115 -10.5 187.5t-42.5 132.5q-36 66 -80 100v23q68 -49 112 -102q121 -149 121 -341t-121 -341q-44 -53 -112 -102v23q44 34 80 100q32 60 42.5 132.5t10.5 187.5z" />
    <glyph glyph-name="asterisk" unicode="*" 
d="M196 307q-19 0 -29 11t-10 24q0 6 16 55t16 72q-24 -13 -60 -54.5t-51 -41.5q-19 0 -29.5 12.5t-10.5 32.5t22 28.5t61 16t61 19.5q-23 13 -62 20t-61 15.5t-22 30.5q0 15 11 28t29 13q14 0 30 -15.5t38.5 -40.5t43.5 -39q-1 24 -17 73t-16 55q0 13 10 24t29 11t28.5 -11
t9.5 -24q0 -6 -16 -55t-15 -73q21 14 43.5 39t38.5 40.5t30 15.5q18 0 29 -13t11 -28q0 -22 -22 -30.5t-61 -15.5t-62 -20q22 -12 61 -19.5t61 -16t22 -28.5t-10.5 -32.5t-29.5 -12.5q-15 0 -51 41.5t-60 54.5q0 -23 16 -72t16 -55q0 -13 -9.5 -24t-28.5 -11z" />
    <glyph glyph-name="plus" unicode="+" horiz-adv-x="600" 
d="M252 301v205h96v-205h204v-96h-204v-205h-96v205h-204v96h204z" />
    <glyph glyph-name="comma" unicode="," horiz-adv-x="195" 
d="M68 -140l-15 16q29 30 44 47t28 43t11 48q-19 -22 -55 -22q-25 0 -40 18t-15 40q0 36 20 55.5t49 19.5q35 0 55 -26t20 -63q0 -54 -26.5 -94t-75.5 -82z" />
    <glyph glyph-name="hyphen" unicode="-" horiz-adv-x="333" 
d="M300 146h-266v88h266v-88z" />
    <glyph glyph-name="period" unicode="." horiz-adv-x="195" 
d="M165 57q0 -28 -20 -48t-48 -20q-29 0 -48.5 19.5t-19.5 48.5q0 28 20 48t48 20t48 -20t20 -48z" />
    <glyph glyph-name="slash" unicode="/" horiz-adv-x="278" 
d="M205 658h94l-228 -671h-92z" />
    <glyph glyph-name="zero" unicode="0" 
d="M240 515q0 45 -9.5 66.5t-35.5 21.5t-36 -21.5t-10 -66.5v-419q0 -85 46 -85q45 0 45 85v419zM195 -10q-47 0 -82 36t-52.5 90.5t-26 103t-8.5 88.5q0 48 9.5 100.5t28.5 102t53 81.5t78 32t78 -32t53 -81.5t28.5 -102t9.5 -101.5q0 -39 -8.5 -87.5t-26 -103t-52.5 -90.5
t-82 -36z" />
    <glyph glyph-name="one" unicode="1" 
d="M359 24v-24h-324v24h106v565h-102v24q76 5 223 11v-600h97z" />
    <glyph glyph-name="two" unicode="2" 
d="M346 0h-334v52q132 147 174 234t42 175q0 51 -21.5 88.5t-68.5 37.5q-41 0 -64.5 -27.5t-23.5 -48.5q0 -18 13 -18l10 5q10 5 30 5q14 0 29.5 -14t15.5 -39q0 -29 -16.5 -44t-37.5 -15q-38 0 -55 31t-17 56q0 67 46 106.5t118 39.5q67 0 117.5 -44t50.5 -110
q0 -51 -23 -90t-81 -101l-171 -181h194q37 0 47.5 14t12.5 70h21z" />
    <glyph glyph-name="three" unicode="3" 
d="M356 169q0 -88 -57 -133.5t-147 -45.5q-61 0 -102 30t-41 87q0 36 18.5 51.5t44.5 15.5q16 0 34.5 -13.5t18.5 -41.5q0 -18 -9 -30.5t-20 -18.5t-20 -12t-9 -12q0 -14 24 -23t41 -9q26 0 44.5 10.5t28 24.5t14.5 37.5t5.5 38.5t0.5 39q0 29 -0.5 45.5t-5.5 41t-14.5 37.5
t-27.5 23t-45 10q-6 0 -19 -2.5t-19 -2.5q-18 0 -18 16q0 15 24 15q4 0 12 -1t11 -1q32 0 52 13.5t27.5 38.5t9.5 42.5t2 43.5q0 23 -0.5 35.5t-4.5 30.5t-11.5 27.5t-22 16.5t-35.5 7q-12 0 -29 -7t-17 -17q0 -3 19 -22.5t19 -41.5q0 -25 -17 -38.5t-40 -13.5
q-20 0 -35 18.5t-15 42.5q0 42 39 72.5t104 30.5q60 0 113.5 -35.5t53.5 -103.5q0 -109 -153 -149v-4q73 -10 123.5 -50t50.5 -113z" />
    <glyph glyph-name="four" unicode="4" 
d="M292 24h58v-24h-230v24h61v142h-165v35q79 190 204 423h72v-434h47v66h20v-155h-20v65h-47v-142zM36 190h145v307h-2q-107 -208 -143 -307z" />
    <glyph glyph-name="five" unicode="5" 
d="M197 515h-110l-11 -162q44 15 96 15q79 0 135 -53t56 -131q0 -81 -55 -137.5t-157 -56.5q-55 0 -96 31.5t-41 84.5q0 29 16 47t45 18q26 0 40.5 -16.5t14.5 -36.5q0 -26 -13 -39t-26.5 -19.5t-13.5 -15.5q0 -13 18 -21.5t42 -8.5q30 0 50 13t30 37t13.5 50.5t3.5 61.5
q0 34 -4 60t-15 51t-34.5 39t-58.5 14q-37 0 -70 -15l13 239q2 33 14 42.5t57 9.5q54 0 146 2q16 0 23 5.5t14 24.5h22q-9 -37 -14.5 -56.5t-15.5 -36.5t-16 -23.5t-23.5 -11t-30.5 -5t-44 -0.5z" />
    <glyph glyph-name="six" unicode="6" 
d="M329 624v-21q-85 -23 -131.5 -87t-50.5 -136q12 8 27 13t29 5q70 0 110.5 -59t40.5 -133q0 -88 -45.5 -152t-129.5 -64q-44 0 -77.5 22t-51 58t-26 75t-8.5 80q0 158 80.5 267t232.5 132zM230 109v171q0 22 -1 33.5t-4.5 28.5t-12.5 25t-24 8q-31 0 -41 -24t-10 -66v-173
q0 -57 11 -79t35 -22q23 0 35 19t12 79z" />
    <glyph glyph-name="seven" unicode="7" 
d="M373 617v-32q-32 -51 -82.5 -179t-50.5 -213q0 -26 13.5 -72.5t13.5 -64.5q0 -37 -17.5 -51.5t-51.5 -14.5q-64 0 -64 72q0 51 44 147l137 305h-219q-19 0 -28.5 -17t-20.5 -55h-22l44 175h304z" />
    <glyph glyph-name="eight" unicode="8" 
d="M235 410v131q0 62 -40 62t-40 -62v-131q0 -71 40 -71q24 0 32 19t8 52zM195 624q72 0 115.5 -44.5t43.5 -94.5q0 -117 -135 -159v-2q70 -17 108 -62t38 -113q0 -64 -43.5 -111.5t-126.5 -47.5t-126.5 47.5t-43.5 111.5q0 68 38 113t108 62v2q-135 42 -135 159
q0 50 43.5 94.5t115.5 44.5zM241 245q0 34 -10.5 49t-35.5 15q-24 0 -35 -15t-11 -49v-166q0 -39 10.5 -53.5t35.5 -14.5t35.5 14.5t10.5 53.5v166z" />
    <glyph glyph-name="nine" unicode="9" 
d="M57 -10v21q85 23 131.5 87t50.5 136q-28 -18 -56 -18q-70 0 -110.5 59t-40.5 133q0 88 45.5 152t129.5 64q44 0 77.5 -22t51 -58t26 -75t8.5 -80q0 -158 -80.5 -267t-232.5 -132zM156 505v-171q0 -22 1 -33.5t4.5 -28.5t12.5 -25t24 -8q31 0 41 24t10 66v173q0 57 -11 79
t-35 22q-23 0 -35 -19t-12 -79z" />
    <glyph glyph-name="colon" unicode=":" horiz-adv-x="195" 
d="M165 310q0 -28 -20 -48t-48 -20q-29 0 -48.5 20t-19.5 48t20 48t48 20t48 -20t20 -48zM165 57q0 -28 -20 -48t-48 -20q-29 0 -48.5 19.5t-19.5 48.5q0 28 20 48t48 20t48 -20t20 -48z" />
    <glyph glyph-name="semicolon" unicode=";" horiz-adv-x="195" 
d="M68 -140l-15 16q29 30 44 47t28 43t11 48q-19 -22 -55 -22q-25 0 -40 18t-15 40q0 36 20 55.5t49 19.5q35 0 55 -26t20 -63q0 -54 -26.5 -94t-75.5 -82zM167 310q0 -28 -20 -48t-48 -20q-29 0 -48.5 20t-19.5 48t20 48t48 20t48 -20t20 -48z" />
    <glyph glyph-name="less" unicode="&#x3c;" horiz-adv-x="600" 
d="M554 87v-95l-508 221v80l508 221v-95l-383 -166z" />
    <glyph glyph-name="equal" unicode="=" horiz-adv-x="600" 
d="M552 405v-96h-504v96h504zM552 197v-96h-504v96h504z" />
    <glyph glyph-name="greater" unicode="&#x3e;" horiz-adv-x="600" 
d="M46 87l383 166l-383 166v95l508 -221v-80l-508 -221v95z" />
    <glyph glyph-name="question" unicode="?" horiz-adv-x="333" 
d="M138 197h-20q-8 56 -8 85q0 31 3 51.5t15 39.5t20 28.5t33 34.5t41 42l5.5 5.5t6.5 7t5.5 7t5 8.5t3.5 10t3 13t1 16q0 37 -25 60t-63 23q-35 0 -58.5 -13t-23.5 -28q0 -7 16 -7q54 0 54 -56q0 -16 -17 -31t-39 -15q-27 0 -43.5 18t-16.5 42q0 52 37 81t90 29
q65 0 106 -45.5t41 -108.5q0 -102 -77 -162q-39 -30 -54 -43t-29 -31.5t-14 -35.5q0 -9 2 -25zM206 58q0 -28 -20 -48t-48 -20q-29 0 -49 20t-20 48t20.5 48t48.5 20t48 -20t20 -48z" />
    <glyph glyph-name="at" unicode="@" horiz-adv-x="800" 
d="M499 383q0 63 -38 63q-37 0 -77 -51t-40 -121q0 -38 13.5 -59.5t34.5 -21.5q36 0 67 49t40 141zM520 450l9 34h70l-57 -237q-5 -21 1 -43.5t28 -22.5q40 0 72.5 62.5t32.5 127.5q0 88 -72 159.5t-187 71.5q-101 0 -176.5 -77.5t-75.5 -227.5q0 -104 77.5 -178t183.5 -74
q60 0 102.5 11.5t91.5 35.5l9 -47q-110 -58 -202 -58q-90 0 -163 31.5t-115.5 80.5t-64.5 103t-22 106q0 153 104 251.5t251 98.5q136 0 228 -81.5t92 -204.5q0 -84 -50 -158t-131 -74q-42 0 -65 26t-23 44h-2q-7 -17 -40.5 -42t-70.5 -28q-35 0 -64 27t-29 93q0 31 12 70.5
t34 78t60.5 64.5t84.5 26q8 0 15.5 -1.5t12 -2.5t10 -5.5t8 -6t7 -8t5 -7.5t5.5 -10z" />
    <glyph glyph-name="A" unicode="A" horiz-adv-x="500" 
d="M258 221l-56 208h-2l-57 -208h115zM444 24h37v-24h-217v24h47l-46 170h-130l-45 -170h60v-24h-136v24h47l174 624h39z" />
    <glyph glyph-name="B" unicode="B" horiz-adv-x="500" 
d="M12 24h44v600h-44v24h257q78 0 127 -40t49 -113q0 -32 -11.5 -57t-27.5 -40.5t-43.5 -27t-50 -17.5t-56.5 -12v-2q42 -6 75 -16t66.5 -28t52 -50.5t18.5 -75.5q0 -73 -52 -121t-165 -48h-239v24zM190 324v-300h25q67 0 87 34t20 114t-24.5 116t-98.5 36h-9zM190 624v-277
h15q32 0 53.5 11.5t31 33t13 43.5t3.5 53q0 46 -7.5 75t-23.5 41.5t-31 16t-40 3.5h-14z" />
    <glyph glyph-name="C" unicode="C" horiz-adv-x="444" 
d="M401 -6l-29 30q-55 -37 -115 -37q-30 0 -61 10t-62.5 35t-55.5 62t-39.5 96t-15.5 132q0 141 70 238.5t170 97.5q64 0 112 -53l24 43h18v-182h-20q-7 34 -14.5 58t-22.5 52t-39 43t-56 15q-24 0 -41.5 -12t-26.5 -28.5t-13.5 -42.5t-5.5 -43.5t-1 -42.5v-290
q0 -164 100 -164q47 0 81 50.5t43 120.5h21v-188h-21z" />
    <glyph glyph-name="D" unicode="D" horiz-adv-x="500" 
d="M198 624v-600h11q31 0 52 6t34.5 25.5t21 36.5t11 60t4 73t0.5 97q0 183 -19.5 242.5t-97.5 59.5h-17zM64 624h-44v24h194q56 0 99.5 -14.5t82.5 -50t60.5 -104.5t21.5 -168q0 -145 -67.5 -228t-181.5 -83h-209v24h44v600z" />
    <glyph glyph-name="E" unicode="E" horiz-adv-x="444" 
d="M427 211l-9 -211h-406v24h44v600h-44v24h394l6 -165h-23q-24 84 -57 112.5t-97 28.5h-45v-273q53 0 72 27.5t21 87.5h25v-269h-22q-9 72 -26.5 100t-69.5 28v-301h47q46 0 78 15.5t49 45t24.5 58t12.5 68.5h26z" />
    <glyph glyph-name="F" unicode="F" horiz-adv-x="444" 
d="M23 24h49v599h-49v25h406l6 -185h-23q-7 27 -11 39t-12 33.5t-15 31t-19 23.5t-27 19.5t-35.5 10t-46.5 4.5h-40v-273q53 -1 72 26.5t21 87.5h25v-269h-22q-9 72 -26.5 100t-69.5 29v-301h58v-24h-241v24z" />
    <glyph glyph-name="G" unicode="G" horiz-adv-x="500" 
d="M440 462h-27q-38 170 -135 170q-65 0 -86 -56.5t-21 -199.5v-202q0 -163 75 -163q42 0 57.5 28t15.5 94v124h-46v24h220v-24h-31v-30q0 -42 -9 -80t-30.5 -76t-65 -61t-104.5 -23q-55 0 -98.5 24.5t-67 60t-39 80.5t-20.5 80t-5 65q0 86 17 152.5t42.5 104.5t59 62.5
t61.5 33t55 8.5q40 0 68 -12t64 -41l23 40h27v-183z" />
    <glyph glyph-name="H" unicode="H" horiz-adv-x="556" 
d="M358 326h-160v-302h51v-24h-231v24h46v600h-46v24h231v-24h-51v-271h160v271h-51v24h231v-24h-46v-600h46v-24h-231v24h51v302z" />
    <glyph glyph-name="I" unicode="I" horiz-adv-x="278" 
d="M206 24h52v-24h-238v24h52v600h-52v24h238v-24h-52v-600z" />
    <glyph glyph-name="J" unicode="J" horiz-adv-x="333" 
d="M316 624h-44v-516q0 -84 -38.5 -136t-115.5 -52q-51 0 -77 26.5t-26 60.5q0 23 17 41.5t44 18.5q24 0 40 -18t16 -37q0 -18 -11 -36t-32 -21q13 -9 29 -9q58 0 58 63q0 20 -19 76.5t-19 130.5v408h-52v24h230v-24z" />
    <glyph glyph-name="K" unicode="K" horiz-adv-x="556" 
d="M522 624h-66l-133 -203l205 -397h34v-24h-229v24h56l-154 312l188 288h-56v24h155v-24zM279 0h-236v24h49v600h-49v24h246v-24h-63v-600h53v-24z" />
    <glyph glyph-name="L" unicode="L" horiz-adv-x="444" 
d="M433 218l-6 -218h-401v24h46v600h-46v24h233v-24h-53v-600q66 0 93 5.5t51 25.5q41 33 59 163h24z" />
    <glyph glyph-name="M" unicode="M" horiz-adv-x="611" 
d="M139 24v-24h-125v24h44v600h-44v24h190l96 -401h2l103 401h185v-24h-42v-600h42v-24h-220v24h51v581h-2l-154 -605h-29l-146 618h-2v-594h51z" />
    <glyph glyph-name="N" unicode="N" horiz-adv-x="500" 
d="M153 24v-24h-141v24h53v600h-53v24h182l198 -388h2v364h-54v24h135v-24h-51v-635h-37l-290 567h-2v-532h58z" />
    <glyph glyph-name="O" unicode="O" horiz-adv-x="556" 
d="M371 165v289q0 77 -12 117.5t-30 51.5t-51 11t-51 -11t-30 -51.5t-12 -117.5v-289q0 -154 93 -154t93 154zM278 658q103 0 175 -95.5t72 -240.5q0 -144 -72 -239.5t-175 -95.5t-175 95.5t-72 239.5q0 145 72 240.5t175 95.5z" />
    <glyph glyph-name="P" unicode="P" horiz-adv-x="500" 
d="M206 624v-295h19q55 0 84.5 34.5t29.5 122.5q0 70 -20 104t-86 34h-27zM259 24v-24h-235v24h48v600h-48v24h244q97 0 156 -43t59 -120q0 -91 -62.5 -135t-175.5 -44h-39v-282h53z" />
    <glyph glyph-name="Q" unicode="Q" horiz-adv-x="556" 
d="M371 165v289q0 77 -12 117.5t-30 51.5t-51 11t-51 -11t-30 -51.5t-12 -117.5v-289q0 -154 93 -154t93 154zM472 -169v-23q-26 -2 -40 -2q-121 0 -177.5 38t-56.5 135v26q-74 32 -119 116q-48 88 -48 201q0 145 72 240.5t175 95.5t175 -95.5t72 -240.5q0 -121 -52.5 -210
t-134.5 -115v-73q0 -46 29.5 -68t104.5 -25z" />
    <glyph glyph-name="R" unicode="R" horiz-adv-x="500" 
d="M190 624v-261q80 -1 107 26t27 109q0 68 -23 97t-76 29h-35zM243 0h-227v24h40v600h-40v24h236q100 0 159 -38t59 -102q0 -146 -219 -160v-2q99 -24 142.5 -73.5t43.5 -142.5v-50q0 -34 9 -44.5t26 -10.5q6 0 16 2l5 -22q-35 -11 -64 -11q-68 0 -99.5 38t-31.5 96v62
q0 67 -23 106.5t-85 41.5v-314h53v-24z" />
    <glyph glyph-name="S" unicode="S" 
d="M23 189h24q6 -66 43.5 -122t98.5 -56q44 0 71.5 28t27.5 72q0 42 -27.5 75.5t-66 58t-77.5 51.5t-66.5 72t-27.5 105q0 90 42.5 137.5t113.5 47.5q53 0 114 -41l25 31h20v-170h-22q-35 156 -138 156q-45 0 -70 -23t-25 -67q0 -30 20.5 -55.5t51.5 -43.5t67 -42.5t67 -51
t51.5 -71.5t20.5 -101q0 -41 -15.5 -82.5t-57.5 -75.5t-102 -34t-113 45l-34 -32h-16v189z" />
    <glyph glyph-name="T" unicode="T" horiz-adv-x="500" 
d="M183 24v600h-18q-94 0 -117 -183h-27l7 207h444l7 -207h-27q-23 183 -117 183h-18v-600h68v-24h-270v24h68z" />
    <glyph glyph-name="U" unicode="U" horiz-adv-x="500" 
d="M250 624h-48v-493q0 -112 91 -112q62 0 88.5 38.5t26.5 113.5v453h-49v24h128v-24h-49v-445q0 -29 -2 -49.5t-11.5 -49.5t-27 -47.5t-52.5 -32t-83 -13.5q-103 0 -148.5 47.5t-45.5 115.5v474h-46v24h228v-24z" />
    <glyph glyph-name="V" unicode="V" horiz-adv-x="500" 
d="M50 624h-38v24h217v-24h-47l109 -411h2l107 411h-57v24h132v-24h-44l-173 -644h-37z" />
    <glyph glyph-name="W" unicode="W" horiz-adv-x="722" 
d="M493 -20h-37l-79 279h-2l-96 -279h-38l-190 644h-32v24h544v-24h-36l-67 -221l61 -218h2l126 439h-37v24h95v-24h-27zM275 624h-96l133 -452h2l49 135zM497 624h-104l49 -177h2z" />
    <glyph glyph-name="X" unicode="X" horiz-adv-x="500" 
d="M160 24v-24h-144v24h49l125 272l-146 328h-30v24h206v-24h-38l88 -199l93 199h-55v24h141v-24h-53l-110 -235l161 -365h30v-24h-211v24h44l-106 235l-108 -235h64z" />
    <glyph glyph-name="Y" unicode="Y" horiz-adv-x="500" 
d="M318 24h59v-24h-250v24h57v266l-135 334h-35v24h211v-24h-42l113 -276l113 276h-46v24h116v-24h-38l-123 -303v-297z" />
    <glyph glyph-name="Z" unicode="Z" horiz-adv-x="444" 
d="M66 478h-24l4 170h371v-25l-269 -599h89q139 0 155 187h25l-7 -211h-398v32l268 592h-84q-103 0 -130 -146z" />
    <glyph glyph-name="bracketleft" unicode="[" horiz-adv-x="278" 
d="M250 -185v-25h-213v855h213v-25h-125v-805h125z" />
    <glyph glyph-name="backslash" unicode="\" horiz-adv-x="278" 
d="M-21 658h92l228 -671h-94z" />
    <glyph glyph-name="bracketright" unicode="]" horiz-adv-x="278" 
d="M153 620h-125v25h213v-855h-213v25h125v805z" />
    <glyph glyph-name="asciicircum" unicode="^" horiz-adv-x="600" 
d="M175 252h-95l177 365h86l177 -365h-96l-124 266z" />
    <glyph glyph-name="underscore" unicode="_" horiz-adv-x="500" 
d="M500 -125h-500v50h500v-50z" />
    <glyph glyph-name="grave" unicode="`" horiz-adv-x="222" 
d="M172 439h-46l-131 94q-32 23 -32 46q0 18 11 27t24 9q19 0 52 -38z" />
    <glyph glyph-name="a" unicode="a" 
d="M358 46l10 -13q-25 -42 -81 -42q-48 0 -64 50q-42 -50 -116 -50q-41 0 -66 22t-25 60q0 32 14 56t32 37t49.5 23t52 14t54.5 8v78q0 43 -9.5 58t-39.5 15q-19 0 -32 -5.5t-13 -14.5q0 -2 10.5 -18.5t10.5 -31.5q0 -20 -15 -34t-30 -14q-25 0 -39.5 13t-14.5 38
q0 32 31.5 60.5t106.5 28.5q62 0 98 -23.5t36 -66.5v-236q0 -24 14 -24q7 0 26 12zM119 109q0 -74 44 -74q36 0 46.5 29t8.5 126q-99 -2 -99 -81z" />
    <glyph glyph-name="b" unicode="b" horiz-adv-x="444" 
d="M19 0v21h46v608h-44v21q20 0 78 3t72 4v-331h2q40 58 96 58q64 0 104.5 -58t40.5 -132q0 -79 -35.5 -141t-111.5 -62q-64 0 -98 56h-2v-53q-24 3 -74 5q-25 1 -74 1zM302 162v49q0 66 -6 99t-15.5 41.5t-29.5 8.5q-31 0 -54 -31q-27 -36 -27 -151q0 -31 2.5 -54.5t10 -51
t26 -42.5t46.5 -15q26 0 36.5 34.5t10.5 112.5z" />
    <glyph glyph-name="c" unicode="c" horiz-adv-x="333" 
d="M291 111h26q-13 -59 -44.5 -89.5t-89.5 -30.5q-79 0 -123 61t-44 143q0 70 49.5 129.5t123.5 59.5q54 0 86.5 -28t32.5 -69q0 -25 -14 -42.5t-39 -17.5q-23 0 -37 12.5t-14 35.5q0 17 7 28t15 14.5t15 8.5t7 11q0 12 -19 20t-36 8q-63 0 -63 -89q0 -17 -1 -46t-1 -42
q0 -12 1 -36t1 -35q0 -42 18 -70.5t53 -28.5q37 0 59.5 27t30.5 66z" />
    <glyph glyph-name="d" unicode="d" horiz-adv-x="444" 
d="M377 21h44v-21q-44 0 -149 -6v54h-2q-12 -26 -38 -41.5t-57 -15.5q-74 0 -110.5 57t-36.5 135q0 93 41 147t110 54q58 0 90 -58h2v303h-48v21q22 0 82.5 3.5t71.5 3.5v-636zM271 144v62q0 154 -86 154q-15 0 -25 -10t-13.5 -28.5t-4.5 -32.5t-1 -35v-156q0 -83 46 -83
q34 0 59 32t25 97z" />
    <glyph glyph-name="e" unicode="e" 
d="M354 217h-213v-92q0 -107 72 -107q47 0 79.5 25.5t41.5 74.5h24q-12 -59 -52 -93t-99 -34q-84 0 -133 56.5t-49 141.5q0 78 48.5 136.5t125.5 58.5q68 0 111.5 -49.5t43.5 -117.5zM141 241h104v56q0 22 -4 36.5t-13 20.5t-16 7.5t-19 1.5q-52 0 -52 -69v-53z" />
    <glyph glyph-name="f" unicode="f" horiz-adv-x="278" 
d="M236 21v-21h-220v21h56v333h-56v21h56q-3 148 33 215.5t114 67.5q38 0 66.5 -19.5t28.5 -55.5q0 -21 -13.5 -36t-33.5 -15q-21 0 -34.5 13t-13.5 34q0 13 6.5 27t6.5 17q0 15 -17 15q-11 0 -18.5 -7t-13 -32t-5.5 -69v-155h70v-21h-70v-333h58z" />
    <glyph glyph-name="g" unicode="g" 
d="M255 -45h-135q-19 -33 -19 -58q0 -47 26.5 -71.5t73.5 -24.5q52 0 92 31.5t40 76.5q0 25 -14.5 35.5t-63.5 10.5zM129 242q0 -60 10.5 -80t41.5 -20q29 0 37 22.5t8 107.5q0 58 -9.5 74.5t-34.5 16.5q-35 0 -44 -22.5t-9 -98.5zM169 121h-30q-69 0 -69 -43q0 -33 58 -33
q40 0 116 2q60 1 90.5 -26t30.5 -76q0 -68 -47.5 -120t-138.5 -52q-44 0 -75.5 11t-45.5 27.5t-20 30t-6 24.5q0 33 16 51.5t57 41.5q-74 21 -74 97q0 32 24.5 54t55.5 28v2q-36 13 -57.5 44.5t-21.5 71.5q0 15 7 34.5t22 41.5t47 37t74 15q48 0 95 -32q8 18 24 31.5
t33 13.5q18 0 29.5 -9t11.5 -26q0 -30 -31 -30q-24 0 -34 21q-13 -5 -22 -14q38 -32 38 -89q0 -53 -36.5 -91t-120.5 -38z" />
    <glyph glyph-name="h" unicode="h" horiz-adv-x="444" 
d="M58 629h-40v21q17 0 73 3t73 4v-337h2q37 64 111 64q54 0 80.5 -33t26.5 -79v-251h37v-21h-178v21h35v270q0 27 -10.5 39.5t-35.5 12.5q-27 0 -47.5 -32.5t-20.5 -89.5v-200h37v-21h-182v21h39v608z" />
    <glyph glyph-name="i" unicode="i" horiz-adv-x="222" 
d="M11 21h44v333h-41v21q45 0 70 1q42 2 77 6v-361h39v-21h-189v21zM165 560q0 -25 -17.5 -42t-41.5 -17q-25 0 -42 17t-17 42t17 42t42 17q24 0 41.5 -17t17.5 -42z" />
    <glyph glyph-name="j" unicode="j" horiz-adv-x="222" 
d="M20 354v21q55 0 80 1q42 2 77 6v-363q0 -246 -145 -246q-32 0 -59 20.5t-27 51.5q0 55 52 55q20 0 32 -13t12 -32q0 -9 -6 -24.5t-6 -20.5q0 -12 16 -12q19 0 27 13t8 48q0 23 -5 71t-5 73v351h-51zM181 560q0 -25 -17 -42t-42 -17t-42 17t-17 42t17 42t42 17t42 -17
t17 -42z" />
    <glyph glyph-name="k" unicode="k" horiz-adv-x="444" 
d="M170 21h37v-21h-189v21h46v608h-40v21q17 0 73 3t73 4v-636zM257 255l142 -234h28v-21h-180v21h37l-108 180l134 153h-61v21h141v-21h-49z" />
    <glyph glyph-name="l" unicode="l" horiz-adv-x="222" 
d="M57 629h-42v21q18 0 75 3t73 4v-636h42v-21h-187v21h39v608z" />
    <glyph glyph-name="m" unicode="m" horiz-adv-x="667" 
d="M606 21h39v-21h-180v21h35v270q0 27 -10.5 39.5t-35.5 12.5q-27 0 -47.5 -32.5t-20.5 -89.5v-200h36v-21h-177v21h35v270q0 27 -10.5 39.5t-35.5 12.5q-27 0 -47.5 -32.5t-20.5 -89.5v-200h37v-21h-185v21h42l1 333h-43v21q44 0 69 1q42 2 77 6v-68h2q14 31 45.5 50.5
t67.5 19.5q70 0 107 -70q14 31 45.5 50.5t67.5 19.5q54 0 80.5 -33t26.5 -79v-251z" />
    <glyph glyph-name="n" unicode="n" horiz-adv-x="444" 
d="M164 21h37v-21h-182v21h39l1 333h-41v21q42 0 67 1q42 2 77 6v-69l2 1q14 31 45.5 50.5t67.5 19.5q54 0 80.5 -33t26.5 -79v-251h37v-21h-178v21h35v270q0 27 -10.5 39.5t-35.5 12.5q-27 0 -47.5 -32.5t-20.5 -89.5v-200z" />
    <glyph glyph-name="o" unicode="o" 
d="M194 -9q-83 0 -128 58t-45 138q0 81 45 139t128 58t128 -58t45 -139q0 -80 -45 -138t-128 -58zM136 282v-180q0 -49 13 -70.5t45 -21.5q35 0 46.5 20.5t11.5 70.5v181q0 50 -15.5 66.5t-42.5 16.5t-42.5 -16.5t-15.5 -66.5z" />
    <glyph glyph-name="p" unicode="p" horiz-adv-x="444" 
d="M296 159v90q0 51 -8.5 76.5t-17.5 30t-26 4.5q-26 0 -47.5 -25.5t-27.5 -66.5q-3 -17 -3 -83q0 -82 9 -106q8 -21 28.5 -41t42.5 -20q12 0 21 3.5t14.5 14t8.5 19.5t4 29t1.5 33.5t0.5 41.5zM220 -206v-21h-204v21h44v560h-44v21q45 0 70 1q42 2 77 6v-63h2
q18 31 40.5 48t66.5 17q59 0 98 -55t39 -134q0 -90 -42.5 -147t-108.5 -57q-28 0 -53 17t-37 43h-2v-257h54z" />
    <glyph glyph-name="q" unicode="q" horiz-adv-x="444" 
d="M425 -206v-21h-203v21h53v256h-2q-13 -25 -37.5 -42t-52.5 -17q-52 0 -88.5 37t-49.5 79t-13 78q0 77 36.5 138t101.5 61q70 0 107 -64h2v62q15 -2 146 -7v-21h-44v-560h44zM148 86q3 -67 47 -67q29 0 49 23.5t26 53.5q5 22 5 78q0 91 -10 124q-7 21 -27 41.5t-40 20.5
q-32 0 -42.5 -29.5t-10.5 -120.5q0 -76 3 -124z" />
    <glyph glyph-name="r" unicode="r" horiz-adv-x="333" 
d="M215 0h-199v21h42v333h-40v21q37 0 62 1q42 2 77 6v-57h2q31 59 85 59q29 0 50.5 -17.5t21.5 -43.5q0 -23 -13 -39.5t-36 -16.5q-20 0 -34 10t-14 30q0 12 4.5 24.5t4.5 15.5q0 8 -10 8q-16 0 -35 -30.5t-19 -72.5v-231h51v-21z" />
    <glyph glyph-name="s" unicode="s" horiz-adv-x="278" 
d="M35 -9h-21v141h24q12 -120 94 -120q69 0 69 63q0 20 -19.5 35t-47 26.5t-55 26t-47 41t-19.5 63.5q0 52 27.5 84.5t74.5 32.5q27 0 50 -12t28 -13q3 0 6 1t4.5 2.5t3.5 4.5t3 5t3 6.5t2 5.5h19v-118h-23q-6 43 -31.5 70t-62.5 27q-25 0 -42 -11.5t-17 -35.5q0 -23 20 -39
t48 -27t56 -24.5t48 -39.5t20 -63q0 -57 -28 -94.5t-83 -37.5q-28 0 -57 11t-33 11q-11 0 -14 -22z" />
    <glyph glyph-name="t" unicode="t" horiz-adv-x="278" 
d="M63 354h-49v21h49v104q36 0 106 7v-111h79v-21h-79v-274q0 -27 5.5 -34.5t21.5 -7.5q15 0 25 10.5t19 36.5h23q-8 -44 -36 -69t-73 -25q-52 0 -71.5 21.5t-19.5 71.5v270z" />
    <glyph glyph-name="u" unicode="u" horiz-adv-x="444" 
d="M272 -4l-9 49q-51 -54 -109 -54q-103 0 -103 108v255h-41v21q45 0 70 1q42 2 77 6v-303q0 -27 11.5 -36.5t31.5 -9.5q26 0 48.5 28.5t22.5 99.5v193h-49v21q53 0 78 1q42 2 77 6v-359h42v-21q-57 0 -147 -6z" />
    <glyph glyph-name="v" unicode="v" 
d="M16 354v21h167v-21h-34l84 -216l80 216h-40v21h93v-21h-26l-133 -363h-24l-140 363h-27z" />
    <glyph glyph-name="w" unicode="w" horiz-adv-x="556" 
d="M183 354h-39l67 -212h2l91 233h20l86 -232h2l68 211h-38v21h93v-21h-28l-120 -363h-24l-90 239l-91 -239h-25l-114 363h-27v21h167v-21z" />
    <glyph glyph-name="x" unicode="x" horiz-adv-x="444" 
d="M150 0h-127v21h48l103 140l-122 193h-31v21h197v-21h-46l70 -107l82 107h-51v21h123v-21h-41l-99 -131l135 -202h30v-21h-196v21h45l-81 118l-89 -118h50v-21z" />
    <glyph glyph-name="y" unicode="y" 
d="M183 354h-37l89 -219l76 219h-38v21h95v-21h-29l-154 -429q-31 -87 -57.5 -119.5t-63.5 -32.5q-23 0 -38.5 16.5t-15.5 40.5q0 21 14 34t35 13q17 0 31.5 -15t21.5 -15q26 0 70 148l-139 359h-27v21h167v-21z" />
    <glyph glyph-name="z" unicode="z" horiz-adv-x="333" 
d="M299 141l-2 -141h-281v32l173 322h-44q-41 0 -63 -28t-35 -89h-22l3 138h273v-24l-174 -330h46q45 0 65.5 25t39.5 95h21z" />
    <glyph glyph-name="braceleft" unicode="{" horiz-adv-x="333" 
d="M121 -82v182q0 52 -15.5 77.5t-60.5 39.5q45 14 60.5 39.5t15.5 77.5v182q0 87 38 115.5t129 28.5v-11q-39 -12 -55 -42t-16 -85v-173q0 -59 -16 -88.5t-65 -42.5v-2q49 -13 65 -42.5t16 -88.5v-173q0 -55 16 -85t55 -42v-11q-91 0 -129 28.5t-38 115.5z" />
    <glyph glyph-name="bar" unicode="|" horiz-adv-x="222" 
d="M63 750h96v-1000h-96v1000z" />
    <glyph glyph-name="braceright" unicode="}" horiz-adv-x="333" 
d="M212 516v-182q0 -52 15.5 -78t60.5 -39q-45 -14 -60.5 -40t-15.5 -78v-182q0 -87 -38 -115t-129 -28v11q39 12 55 42t16 84v173q0 59 16 89t65 43v2q-49 12 -65 42t-16 89v173q0 55 -16 84.5t-55 41.5v12q91 0 129 -28.5t38 -115.5z" />
    <glyph glyph-name="asciitilde" unicode="~" horiz-adv-x="600" 
d="M495 336l36 -76q-20 -27 -33 -42t-38 -29.5t-54 -14.5q-42 0 -102 33q-62 35 -115 35q-51 0 -84 -72l-36 76q45 86 125 86q39 0 111 -32q7 -3 21.5 -9.5t23 -10t20 -8t20.5 -6.5t17 -2q19 0 36.5 12t27 24.5t24.5 35.5z" />
    <glyph glyph-name="uni00A0" unicode="&#xa0;" horiz-adv-x="195" 
 />
    <glyph glyph-name="exclamdown" unicode="&#xa1;" horiz-adv-x="222" 
d="M99 216h23q2 -106 6 -136q8 -51 19.5 -109t18 -92.5t6.5 -49.5q0 -26 -17.5 -41t-43.5 -15t-43.5 15t-17.5 41q0 15 6.5 49.5t18 92.5t19.5 109q5 36 5 136zM43 363q0 28 20 48t48 20q29 0 48.5 -19.5t19.5 -48.5q0 -28 -20 -48t-48 -20t-48 20t-20 48z" />
    <glyph glyph-name="cent" unicode="&#xa2;" 
d="M102 -133l52 138q-50 21 -78 74t-28 116q0 70 48.5 129.5t124.5 59.5q41 0 70 -16l41 108h35l-49 -131q22 -25 22 -58q0 -25 -14 -42.5t-39 -17.5q-9 0 -13 2l-76 -201q17 -10 36 -10q71 0 89 94h27q-15 -61 -45.5 -91t-89.5 -30q-17 0 -30 3l-48 -127h-35zM174 59
l71 187q-9 10 -9 29q0 28 23 43q1 1 3 1q15 13 16 23q0 10 -19.5 16.5t-32.5 6.5q-32 0 -51 -28q-3 -4 -5 -8.5t-3.5 -10.5t-2.5 -10.5t-1.5 -13t-1 -13t-0.5 -16v-17v-20.5v-22q0 -22 0.5 -48t0.5 -34q0 -38 12 -65z" />
    <glyph glyph-name="sterling" unicode="&#xa3;" 
d="M94 303h-73v30l59 -4q-30 88 -30 129q0 83 45.5 124.5t102.5 41.5q70 0 106 -33t36 -75q0 -31 -19 -50.5t-51 -19.5q-21 0 -35 16t-14 42q0 19 16 32t31.5 18.5t15.5 6.5q0 14 -17.5 27.5t-51.5 13.5q-33 0 -55 -20t-22 -56q0 -21 8 -44t26 -65.5t32 -83.5h88v-30h-81
q8 -48 8 -72q0 -32 -25 -123q43 -13 72 -13q47 0 60 15.5t24 65.5h20q-3 -186 -110 -186q-56 0 -100 47q-11 -20 -31.5 -33.5t-42.5 -13.5q-73 0 -73 76q0 30 19.5 49.5t53.5 19.5q20 0 58 -10v24q0 44 -50 154zM78 102q-17 0 -28.5 -12.5t-11.5 -29.5q0 -20 12 -32.5
t31 -12.5q23 0 38 18t15 32q0 12 -20 24.5t-36 12.5z" />
    <glyph glyph-name="currency" unicode="&#xa4;" 
d="M194 363q-21 0 -37.5 -17t-16.5 -38q0 -24 16 -40.5t39 -16.5q22 0 37 16.5t16 40.5q0 22 -15.5 38.5t-38.5 16.5zM300 246l72 -72l-44 -43l-72 72q-29 -18 -61 -19q-34 1 -63 19l-71 -72l-44 43l71 72q-18 28 -18 62q0 35 19 62l-72 72l44 44l71 -73q31 17 63 17
q33 0 61 -17l72 73l44 -44l-72 -72q18 -28 18 -62q0 -31 -18 -62z" />
    <glyph glyph-name="yen" unicode="&#xa5;" 
d="M156 278l-19 45h-129v24h119l-108 246h-45v24h201v-24h-42l113 -258l113 258h-46v24h116v-24h-43l-107 -246h118v-24h-128l-7 -17v-80h135v-24h-135v-178h65v-24h-249v24h78v178h-148v24h148v52z" />
    <glyph glyph-name="brokenbar" unicode="&#xa6;" horiz-adv-x="222" 
d="M63 675h96v-350h-96v350zM63 175h96v-350h-96v350z" />
    <glyph glyph-name="section" unicode="&#xa7;" horiz-adv-x="444" 
d="M131 -11q20 0 33.5 -12t13.5 -32q0 -21 -16 -35.5t-16 -18.5q0 -18 25.5 -27t46.5 -9q35 0 59.5 20t24.5 54q0 29 -19 56.5t-48 48.5t-62 46.5t-62 50t-48 59.5t-19 75q0 50 31 86.5t101 36.5l2 2q-30 24 -47 40t-32.5 45t-15.5 62q0 58 41.5 89.5t101.5 31.5
q49 0 87 -27t38 -74q0 -21 -15 -35.5t-36 -14.5q-20 0 -34 12t-14 32q0 18 17 34t17 20q0 15 -22.5 23.5t-40.5 8.5q-36 0 -60.5 -22t-24.5 -58q0 -29 41 -67.5t89.5 -72.5t89.5 -85t41 -103q0 -49 -28 -86t-96 -37l-4 -4q89 -72 89 -147q0 -43 -36 -82t-110 -39
q-51 0 -94 27.5t-43 75.5q0 21 16.5 36.5t37.5 15.5zM160 366q-26 0 -45.5 -21t-19.5 -47q0 -53 86 -120q2 -2 14 -12.5t21.5 -17.5t27 -13.5t36.5 -6.5q28 0 47.5 19.5t19.5 54.5q0 38 -77 106q-62 58 -110 58z" />
    <glyph glyph-name="dieresis" unicode="&#xa8;" horiz-adv-x="222" 
d="M199 559q22 0 37.5 -15.5t15.5 -37.5t-15.5 -37.5t-38.5 -15.5q-22 0 -37 15.5t-15 37.5t15.5 37.5t37.5 15.5zM23 559q22 0 37.5 -15.5t15.5 -37.5t-15.5 -37.5t-38.5 -15.5q-22 0 -37 15.5t-15 37.5t15.5 37.5t37.5 15.5z" />
    <glyph glyph-name="copyright" unicode="&#xa9;" horiz-adv-x="800" 
d="M400 -13q-140 0 -234 96.5t-94 238.5t94 239t234 97t234 -97t94 -239t-94 -238.5t-234 -96.5zM400 39q109 0 183 83t74 200q0 118 -73.5 201t-183.5 83q-109 0 -183 -83.5t-74 -200.5t74 -200t183 -83zM541 248h19l-14 -70q-1 -12 -27 -20q-51 -18 -100 -18
q-96 0 -151 49t-55 144q0 32 11.5 63t34.5 60t66.5 46.5t100.5 17.5q39 0 98 -18q21 -7 21 -20v-68h-20q-21 83 -99 83q-54 0 -81 -43t-28 -117q-2 -175 110 -175q76 0 114 86z" />
    <glyph glyph-name="ordfeminine" unicode="&#xaa;" horiz-adv-x="250" 
d="M221 569v-142q0 -14 9 -14q5 0 17 7l7 -13q-16 -25 -63 -25q-30 0 -42 30q-28 -30 -85 -30q-26 0 -42.5 14t-16.5 40q0 74 131 88v37q0 26 -5.5 35t-21.5 9q-29 0 -29 -12q0 -1 7 -11t7 -19q0 -13 -11.5 -21t-28.5 -8q-35 0 -35 36q0 8 4.5 16t15.5 17.5t35.5 15
t59.5 5.5q40 0 63.5 -14.5t23.5 -40.5zM82 458q0 -44 28 -44q16 0 21.5 17.5t4.5 75.5q-22 -1 -38 -12.5t-16 -36.5z" />
    <glyph glyph-name="guillemotleft" unicode="&#xab;" 
d="M138 239l-36 -49q99 -129 99 -145q0 -11 -10 -11q-4 0 -7 2.5t-7.5 8t-6.5 7.5q-51 45 -128 108q-27 23 -27 28q0 6 11 15q112 93 152 133q7 7 13 7q3 0 6.5 -3t3.5 -6q0 -10 -63 -95zM298 239l-36 -49q99 -129 99 -145q0 -11 -10 -11q-4 0 -7 2.5t-7.5 8t-6.5 7.5
q-51 45 -128 108q-27 23 -27 28q0 6 11 15q112 93 152 133q7 7 13 7q3 0 6.5 -3t3.5 -6q0 -10 -63 -95z" />
    <glyph glyph-name="logicalnot" unicode="&#xac;" horiz-adv-x="600" 
d="M456 108v201h-408v96h504v-297h-96z" />
    <glyph glyph-name="uni00AD" unicode="&#xad;" horiz-adv-x="333" 
d="M300 146h-266v88h266v-88z" />
    <glyph glyph-name="registered" unicode="&#xae;" horiz-adv-x="800" 
d="M242 492v17h186q47 0 77 -23t30 -69q0 -33 -20.5 -60.5t-54.5 -37.5l55 -79q26 -38 62 -78v-11h-80q-13 0 -27.5 22t-36.5 66t-38 69h-31v-100q0 -15 0.5 -20t4.5 -10.5t12.5 -7t25.5 -2.5v-17h-165v17q30 2 36 8.5t6 31.5v243q0 26 -6 32.5t-36 8.5zM364 487v-158h30
q55 0 55 84q0 74 -53 74h-32zM400 -13q-140 0 -234 96.5t-94 238.5t94 239t234 97t234 -97t94 -239t-94 -238.5t-234 -96.5zM400 39q109 0 183 83t74 200q0 118 -73.5 201t-183.5 83q-109 0 -183 -83.5t-74 -200.5t74 -200t183 -83z" />
    <glyph glyph-name="macron" unicode="&#xaf;" horiz-adv-x="222" 
d="M247 528v-50h-270v50h270z" />
    <glyph glyph-name="degree" unicode="&#xb0;" 
d="M195 380q39 0 68 30.5t29 70.5t-29 70.5t-68 30.5t-68 -30.5t-29 -70.5t29 -70.5t68 -30.5zM195 338q-60 0 -101.5 41.5t-41.5 101.5t41.5 101.5t101.5 41.5t101.5 -41.5t41.5 -101.5t-41.5 -101.5t-101.5 -41.5z" />
    <glyph glyph-name="plusminus" unicode="&#xb1;" horiz-adv-x="600" 
d="M252 368v138h96v-138h204v-96h-204v-138h-96v138h-204v96h204zM48 0v96h504v-96h-504z" />
    <glyph glyph-name="twosuperior" unicode="&#xb2;" horiz-adv-x="233" 
d="M221 250h-227v31q85 88 112.5 139.5t27.5 100.5q0 31 -13.5 53.5t-44.5 22.5q-27 0 -42 -16.5t-15 -29.5q0 -11 8 -11l7 3q6 3 19 3q9 0 19 -9t10 -27q0 -36 -45 -36q-25 0 -36 20t-11 42q0 41 32 64.5t85 23.5q51 0 85 -26t34 -66q0 -31 -14.5 -54.5t-52.5 -60.5
l-107 -104h117q24 0 31 8.5t8 42.5h23z" />
    <glyph glyph-name="threesuperior" unicode="&#xb3;" horiz-adv-x="233" 
d="M131 348q0 22 -1 34.5t-6 28.5t-17 23.5t-31 7.5q-4 0 -12.5 -1.5t-12.5 -1.5q-12 0 -12 10q0 9 16 9q3 0 8 -0.5t7 -0.5q54 0 54 77q0 23 -1.5 35t-11.5 24t-30 12q-8 0 -19 -4.5t-11 -10.5q0 -2 12.5 -12.5t12.5 -20.5q0 -36 -42 -36q-14 0 -23.5 12t-9.5 29
q0 26 27.5 44t75.5 18q43 0 78.5 -21t35.5 -62q0 -68 -103 -90v-2q49 -6 82.5 -30t33.5 -68q0 -53 -38.5 -80t-103.5 -27q-43 0 -70.5 18.5t-27.5 56.5q0 40 46 40q10 0 22 -8.5t12 -24.5q0 -18 -19 -29t-19 -15q0 -8 15 -13.5t23 -5.5q21 0 34 8.5t18 24t6.5 26t1.5 26.5z
" />
    <glyph glyph-name="acute" unicode="&#xb4;" horiz-adv-x="222" 
d="M96 439h-46l122 138q33 38 52 38q13 0 24 -9t11 -27q0 -23 -32 -46z" />
    <glyph glyph-name="mu" unicode="&#xb5;" horiz-adv-x="444" 
d="M377 23h42v-21q-97 0 -147 -6l-9 49q-51 -54 -109 -54q-22 0 -36 8v-28q0 -29 20.5 -61t20.5 -61q0 -76 -59 -76q-32 0 -52 23.5t-20 73.5q0 16 11.5 73t11.5 99v312h-41v21q45 0 70 1q42 2 77 6v-303q0 -27 11.5 -36.5t31.5 -9.5q26 0 48.5 28.5t22.5 99.5v193h-49v21
q53 0 78 1q42 2 77 6v-359z" />
    <glyph glyph-name="paragraph" unicode="&#xb6;" horiz-adv-x="620" 
d="M272 648h271v-30h-74v-802h74v-30h-394v30h77v421q-82 0 -127.5 58t-45.5 155q0 105 50 151.5t169 46.5zM226 271v345q-46 -3 -64.5 -42.5t-18.5 -125.5t18 -128.5t65 -48.5zM308 618v-802h79v802h-79z" />
    <glyph glyph-name="periodcentered" unicode="&#xb7;" horiz-adv-x="195" 
d="M166 253q0 -28 -20 -48t-48 -20t-48 19.5t-20 48.5q0 28 20 48t48 20t48 -20t20 -48z" />
    <glyph glyph-name="cedilla" unicode="&#xb8;" horiz-adv-x="222" 
d="M50 -97l42 97h34l-28 -66q19 7 35 7q37 0 60 -19t23 -56q0 -40 -35.5 -61t-81.5 -21q-53 0 -92 18l11 27q23 -13 57 -13q39 0 56.5 13.5t17.5 29.5q0 22 -13.5 35t-39.5 13q-8 0 -38 -9z" />
    <glyph glyph-name="onesuperior" unicode="&#xb9;" horiz-adv-x="233" 
d="M229 271v-21h-221v21h69v325h-66v21q82 5 155 7v-353h63z" />
    <glyph glyph-name="ordmasculine" unicode="&#xba;" horiz-adv-x="250" 
d="M247 505v-6q0 -48 -31 -82.5t-91 -34.5q-61 0 -91.5 35t-30.5 87q0 50 31 85t91 35t91 -35t31 -84zM163 453v103q0 30 -10 40.5t-28 10.5q-38 0 -38 -45v-108q0 -30 8.5 -42.5t29.5 -12.5q22 0 30 12t8 42z" />
    <glyph glyph-name="guillemotright" unicode="&#xbb;" 
d="M251 138l36 49q-99 129 -99 145q0 11 10 11q4 0 7 -2.5t7.5 -8t6.5 -7.5q51 -45 128 -108q27 -23 27 -28q0 -6 -11 -15q-112 -93 -152 -133q-7 -7 -13 -7q-3 0 -6.5 3t-3.5 6q0 10 63 95zM91 138l36 49q-99 129 -99 145q0 11 10 11q4 0 7 -2.5t7.5 -8t6.5 -7.5
q51 -45 128 -108q27 -23 27 -28q0 -6 -11 -15q-112 -93 -152 -133q-7 -7 -13 -7q-3 0 -6.5 3t-3.5 6q0 10 63 95z" />
    <glyph glyph-name="onequarter" unicode="&#xbc;" horiz-adv-x="600" 
d="M522 14h38v-14h-150v14h40v85h-108v21q54 118 133 255h47v-261h30v39h13v-93h-13v39h-30v-85zM355 114h95v184h-2q-69 -125 -93 -184zM241 271v-21h-221v21h69v325h-66v21q82 5 155 7v-353h63zM522 624l-328 -633h-51l328 633h51z" />
    <glyph glyph-name="onehalf" unicode="&#xbd;" horiz-adv-x="600" 
d="M593 0h-227v31q85 88 112.5 139.5t27.5 100.5q0 31 -13.5 53.5t-44.5 22.5q-27 0 -42 -16.5t-15 -29.5q0 -11 8 -11l7 3q6 3 19 3q9 0 19 -9t10 -27q0 -36 -45 -36q-25 0 -36 20t-11 42q0 41 32 64.5t85 23.5q51 0 85 -26t34 -66q0 -31 -14.5 -54.5t-52.5 -60.5
l-107 -104h117q24 0 31 8.5t8 42.5h23zM221 271v-21h-221v21h69v325h-66v21q82 5 155 7v-353h63zM492 624l-328 -633h-51l328 633h51z" />
    <glyph glyph-name="threequarters" unicode="&#xbe;" horiz-adv-x="600" 
d="M519 624l-328 -633h-51l328 633h51zM160 348q0 22 -1 34.5t-6 28.5t-17 23.5t-31 7.5q-4 0 -12.5 -1.5t-12.5 -1.5q-12 0 -12 10q0 9 16 9q2 0 7 -0.5t8 -0.5q54 0 54 77q0 23 -1.5 35t-11.5 24t-30 12q-8 0 -19 -4.5t-11 -10.5q0 -2 12.5 -12.5t12.5 -20.5
q0 -36 -42 -36q-14 0 -23.5 12t-9.5 29q0 26 27 44t76 18q43 0 78.5 -21t35.5 -62q0 -68 -103 -90v-2q49 -6 82.5 -30t33.5 -68q0 -53 -38.5 -80t-103.5 -27q-43 0 -70.5 18.5t-27.5 56.5q0 40 46 40q10 0 22 -8.5t12 -24.5q0 -18 -19 -29t-19 -15q0 -8 15 -13.5t23 -5.5
q21 0 34 8.5t18 24t6.5 26t1.5 26.5zM527 14h38v-14h-150v14h40v85h-108v21q54 118 133 255h47v-261h30v39h13v-93h-13v39h-30v-85zM360 114h95v184h-2q-69 -125 -93 -184z" />
    <glyph glyph-name="questiondown" unicode="&#xbf;" horiz-adv-x="333" 
d="M195 224h20q8 -56 8 -85q0 -31 -3 -51.5t-15 -39.5t-20 -28.5t-33 -34.5t-41 -42l-5.5 -5.5t-6.5 -7t-5.5 -7t-5 -8.5t-3.5 -10t-3 -13t-1 -16q0 -37 25 -60t63 -23q35 0 58.5 13t23.5 28q0 7 -16 7q-54 0 -54 56q0 16 17 31t39 15q27 0 43.5 -18t16.5 -42q0 -52 -37 -81
t-90 -29q-65 0 -106 45.5t-41 108.5q0 102 77 162q39 30 54 43t29 31.5t14 35.5q0 9 -2 25zM127 363q0 28 20 48t48 20q29 0 49 -20t20 -48t-20.5 -48t-48.5 -20t-48 20t-20 48z" />
    <glyph glyph-name="Agrave" unicode="&#xc0;" horiz-adv-x="500" 
d="M258 221l-56 208h-2l-57 -208h115zM444 24h37v-24h-217v24h47l-46 170h-130l-45 -170h60v-24h-136v24h47l174 624h39zM311 692h-46l-131 94q-32 23 -32 46q0 18 11 27t24 9q19 0 52 -38z" />
    <glyph glyph-name="Aacute" unicode="&#xc1;" horiz-adv-x="500" 
d="M258 221l-56 208h-2l-57 -208h115zM444 24h37v-24h-217v24h47l-46 170h-130l-45 -170h60v-24h-136v24h47l174 624h39zM235 692h-46l122 138q33 38 52 38q13 0 24 -9t11 -27q0 -23 -32 -46z" />
    <glyph glyph-name="Acircumflex" unicode="&#xc2;" horiz-adv-x="500" 
d="M258 221l-56 208h-2l-57 -208h115zM444 24h37v-24h-217v24h47l-46 170h-130l-45 -170h60v-24h-136v24h47l174 624h39zM153 692h-42l104 169h70l105 -169h-43l-97 108z" />
    <glyph glyph-name="Atilde" unicode="&#xc3;" horiz-adv-x="500" 
d="M258 221l-56 208h-2l-57 -208h115zM444 24h37v-24h-217v24h47l-46 170h-130l-45 -170h60v-24h-136v24h47l174 624h39zM369 829h29q-5 -24 -11 -40.5t-16.5 -34t-28 -26.5t-40.5 -9q-27 0 -68.5 23.5t-55.5 23.5q-16 0 -28.5 -13.5t-17.5 -36.5h-29q20 108 96 108
q22 0 64 -24t60 -24q13 0 23 10t13.5 17.5t9.5 25.5z" />
    <glyph glyph-name="Adieresis" unicode="&#xc4;" horiz-adv-x="500" 
d="M258 221l-56 208h-2l-57 -208h115zM444 24h37v-24h-217v24h47l-46 170h-130l-45 -170h60v-24h-136v24h47l174 624h39zM338 812q22 0 37.5 -15.5t15.5 -37.5t-15.5 -37.5t-38.5 -15.5q-22 0 -37 15.5t-15 37.5t15.5 37.5t37.5 15.5zM162 812q22 0 37.5 -15.5t15.5 -37.5
t-15.5 -37.5t-38.5 -15.5q-22 0 -37 15.5t-15 37.5t15.5 37.5t37.5 15.5z" />
    <glyph glyph-name="Aring" unicode="&#xc5;" horiz-adv-x="500" 
d="M258 221l-56 208h-2l-57 -208h115zM444 24h37v-24h-217v24h47l-46 170h-130l-45 -170h60v-24h-136v24h47l174 624h39zM251 829q-23 0 -39 -16.5t-16 -39.5t16 -39t39 -16t39.5 16t16.5 39t-16.5 39.5t-39.5 16.5zM251 865q37 0 64.5 -27.5t27.5 -64.5q0 -38 -27 -64.5
t-65 -26.5t-64.5 26.5t-26.5 64.5t26.5 65t64.5 27z" />
    <glyph glyph-name="AE" unicode="&#xc6;" horiz-adv-x="667" 
d="M129 24v-24h-131v24h42l173 510q14 42 14 52q0 14 -9 22.5t-20 11t-30 4.5v24h461l6 -165h-23q-24 84 -57 112.5t-97 28.5h-45v-273q53 0 72 27.5t21 87.5h25v-269h-22q-9 72 -26.5 100t-69.5 28v-301h47q46 0 78 15.5t49 45t24.5 58t12.5 68.5h26l-9 -211h-397v24h44
v245h-134l-86 -245h61zM273 624l-110 -328h125v328h-15z" />
    <glyph glyph-name="Ccedilla" unicode="&#xc7;" horiz-adv-x="444" 
d="M401 -6l-29 30q-55 -37 -115 -37q-8 0 -13 1l-23 -54q19 7 35 7q37 0 60 -19t23 -56q0 -40 -35.5 -61t-81.5 -21q-53 0 -92 18l11 27q23 -13 57 -13q39 0 56.5 13.5t17.5 29.5q0 22 -13.5 35t-39.5 13q-8 0 -38 -9l-8 5l39 91q-77 18 -133 99t-56 229q0 141 70 238.5
t170 97.5q64 0 112 -53l24 43h18v-182h-20q-7 34 -14.5 58t-22.5 52t-39 43t-56 15q-24 0 -41.5 -12t-26.5 -28.5t-13.5 -42.5t-5.5 -43.5t-1 -42.5v-290q0 -164 100 -164q47 0 81 50.5t43 120.5h21v-188h-21z" />
    <glyph glyph-name="Egrave" unicode="&#xc8;" horiz-adv-x="444" 
d="M427 211l-9 -211h-406v24h44v600h-44v24h394l6 -165h-23q-24 84 -57 112.5t-97 28.5h-45v-273q53 0 72 27.5t21 87.5h25v-269h-22q-9 72 -26.5 100t-69.5 28v-301h47q46 0 78 15.5t49 45t24.5 58t12.5 68.5h26zM283 692h-46l-131 94q-32 23 -32 46q0 18 11 27t24 9
q19 0 52 -38z" />
    <glyph glyph-name="Eacute" unicode="&#xc9;" horiz-adv-x="444" 
d="M427 211l-9 -211h-406v24h44v600h-44v24h394l6 -165h-23q-24 84 -57 112.5t-97 28.5h-45v-273q53 0 72 27.5t21 87.5h25v-269h-22q-9 72 -26.5 100t-69.5 28v-301h47q46 0 78 15.5t49 45t24.5 58t12.5 68.5h26zM207 692h-46l122 138q33 38 52 38q13 0 24 -9t11 -27
q0 -23 -32 -46z" />
    <glyph glyph-name="Ecircumflex" unicode="&#xca;" horiz-adv-x="444" 
d="M427 211l-9 -211h-406v24h44v600h-44v24h394l6 -165h-23q-24 84 -57 112.5t-97 28.5h-45v-273q53 0 72 27.5t21 87.5h25v-269h-22q-9 72 -26.5 100t-69.5 28v-301h47q46 0 78 15.5t49 45t24.5 58t12.5 68.5h26zM125 692h-42l104 169h70l105 -169h-43l-97 108z" />
    <glyph glyph-name="Edieresis" unicode="&#xcb;" horiz-adv-x="444" 
d="M427 211l-9 -211h-406v24h44v600h-44v24h394l6 -165h-23q-24 84 -57 112.5t-97 28.5h-45v-273q53 0 72 27.5t21 87.5h25v-269h-22q-9 72 -26.5 100t-69.5 28v-301h47q46 0 78 15.5t49 45t24.5 58t12.5 68.5h26zM310 812q22 0 37.5 -15.5t15.5 -37.5t-15.5 -37.5
t-38.5 -15.5q-22 0 -37 15.5t-15 37.5t15.5 37.5t37.5 15.5zM134 812q22 0 37.5 -15.5t15.5 -37.5t-15.5 -37.5t-38.5 -15.5q-22 0 -37 15.5t-15 37.5t15.5 37.5t37.5 15.5z" />
    <glyph glyph-name="Igrave" unicode="&#xcc;" horiz-adv-x="278" 
d="M206 24h52v-24h-238v24h52v600h-52v24h238v-24h-52v-600zM200 692h-46l-131 94q-32 23 -32 46q0 18 11 27t24 9q19 0 52 -38z" />
    <glyph glyph-name="Iacute" unicode="&#xcd;" horiz-adv-x="278" 
d="M206 24h52v-24h-238v24h52v600h-52v24h238v-24h-52v-600zM124 692h-46l122 138q33 38 52 38q13 0 24 -9t11 -27q0 -23 -32 -46z" />
    <glyph glyph-name="Icircumflex" unicode="&#xce;" horiz-adv-x="278" 
d="M206 24h52v-24h-238v24h52v600h-52v24h238v-24h-52v-600zM42 692h-42l104 169h70l105 -169h-43l-97 108z" />
    <glyph glyph-name="Idieresis" unicode="&#xcf;" horiz-adv-x="278" 
d="M206 24h52v-24h-238v24h52v600h-52v24h238v-24h-52v-600zM227 812q22 0 37.5 -15.5t15.5 -37.5t-15.5 -37.5t-38.5 -15.5q-22 0 -37 15.5t-15 37.5t15.5 37.5t37.5 15.5zM51 812q22 0 37.5 -15.5t15.5 -37.5t-15.5 -37.5t-38.5 -15.5q-22 0 -37 15.5t-15 37.5t15.5 37.5
t37.5 15.5z" />
    <glyph glyph-name="Eth" unicode="&#xd0;" horiz-adv-x="500" 
d="M198 624v-271h75v-27h-75v-302h11q31 0 52 6t34.5 25.5t21 36.5t11 60t4 73t0.5 97q0 183 -19.5 242.5t-97.5 59.5h-17zM64 624h-44v24h194q56 0 99.5 -14.5t82.5 -50t60.5 -104.5t21.5 -168q0 -145 -67.5 -228t-181.5 -83h-209v24h44v302h-75v27h75v271z" />
    <glyph glyph-name="Ntilde" unicode="&#xd1;" horiz-adv-x="500" 
d="M153 24v-24h-141v24h53v600h-53v24h182l198 -388h2v364h-54v24h135v-24h-51v-635h-37l-290 567h-2v-532h58zM369 829h29q-5 -24 -11 -40.5t-16.5 -34t-28 -26.5t-40.5 -9q-27 0 -68.5 23.5t-55.5 23.5q-16 0 -28.5 -13.5t-17.5 -36.5h-29q20 108 96 108q22 0 64 -24
t60 -24q13 0 23 10t13.5 17.5t9.5 25.5z" />
    <glyph glyph-name="Ograve" unicode="&#xd2;" horiz-adv-x="556" 
d="M371 165v289q0 77 -12 117.5t-30 51.5t-51 11t-51 -11t-30 -51.5t-12 -117.5v-289q0 -154 93 -154t93 154zM278 658q103 0 175 -95.5t72 -240.5q0 -144 -72 -239.5t-175 -95.5t-175 95.5t-72 239.5q0 145 72 240.5t175 95.5zM339 692h-46l-131 94q-32 23 -32 46
q0 18 11 27t24 9q19 0 52 -38z" />
    <glyph glyph-name="Oacute" unicode="&#xd3;" horiz-adv-x="556" 
d="M371 165v289q0 77 -12 117.5t-30 51.5t-51 11t-51 -11t-30 -51.5t-12 -117.5v-289q0 -154 93 -154t93 154zM278 658q103 0 175 -95.5t72 -240.5q0 -144 -72 -239.5t-175 -95.5t-175 95.5t-72 239.5q0 145 72 240.5t175 95.5zM263 692h-46l122 138q33 38 52 38q13 0 24 -9
t11 -27q0 -23 -32 -46z" />
    <glyph glyph-name="Ocircumflex" unicode="&#xd4;" horiz-adv-x="556" 
d="M371 165v289q0 77 -12 117.5t-30 51.5t-51 11t-51 -11t-30 -51.5t-12 -117.5v-289q0 -154 93 -154t93 154zM278 658q103 0 175 -95.5t72 -240.5q0 -144 -72 -239.5t-175 -95.5t-175 95.5t-72 239.5q0 145 72 240.5t175 95.5zM181 692h-42l104 169h70l105 -169h-43
l-97 108z" />
    <glyph glyph-name="Otilde" unicode="&#xd5;" horiz-adv-x="556" 
d="M371 165v289q0 77 -12 117.5t-30 51.5t-51 11t-51 -11t-30 -51.5t-12 -117.5v-289q0 -154 93 -154t93 154zM278 658q103 0 175 -95.5t72 -240.5q0 -144 -72 -239.5t-175 -95.5t-175 95.5t-72 239.5q0 145 72 240.5t175 95.5zM397 829h29q-5 -24 -11 -40.5t-16.5 -34
t-28 -26.5t-40.5 -9q-27 0 -68.5 23.5t-55.5 23.5q-16 0 -28.5 -13.5t-17.5 -36.5h-29q20 108 96 108q22 0 64 -24t60 -24q13 0 23 10t13.5 17.5t9.5 25.5z" />
    <glyph glyph-name="Odieresis" unicode="&#xd6;" horiz-adv-x="556" 
d="M371 165v289q0 77 -12 117.5t-30 51.5t-51 11t-51 -11t-30 -51.5t-12 -117.5v-289q0 -154 93 -154t93 154zM278 658q103 0 175 -95.5t72 -240.5q0 -144 -72 -239.5t-175 -95.5t-175 95.5t-72 239.5q0 145 72 240.5t175 95.5zM366 812q22 0 37.5 -15.5t15.5 -37.5
t-15.5 -37.5t-38.5 -15.5q-22 0 -37 15.5t-15 37.5t15.5 37.5t37.5 15.5zM190 812q22 0 37.5 -15.5t15.5 -37.5t-15.5 -37.5t-38.5 -15.5q-22 0 -37 15.5t-15 37.5t15.5 37.5t37.5 15.5z" />
    <glyph glyph-name="multiply" unicode="&#xd7;" horiz-adv-x="600" 
d="M233 253l-166 166l67 67l166 -167l166 167l67 -67l-167 -166l167 -166l-67 -67l-166 167l-166 -167l-67 67z" />
    <glyph glyph-name="Oslash" unicode="&#xd8;" horiz-adv-x="556" 
d="M185 454v-276h2l179 357q-8 60 -28.5 79.5t-59.5 19.5q-33 0 -51 -11t-30 -51.5t-12 -117.5zM371 165v302h-2l-180 -358q14 -98 89 -98q93 0 93 154zM69 -51l55 109q-93 96 -93 264q0 145 72 240.5t175 95.5q70 0 127 -46l44 87h39l-56 -111q93 -100 93 -266
q0 -144 -72 -239.5t-175 -95.5q-71 0 -127 47l-43 -85h-39z" />
    <glyph glyph-name="Ugrave" unicode="&#xd9;" horiz-adv-x="500" 
d="M250 624h-48v-493q0 -112 91 -112q62 0 88.5 38.5t26.5 113.5v453h-49v24h128v-24h-49v-445q0 -29 -2 -49.5t-11.5 -49.5t-27 -47.5t-52.5 -32t-83 -13.5q-103 0 -148.5 47.5t-45.5 115.5v474h-46v24h228v-24zM311 692h-46l-131 94q-32 23 -32 46q0 18 11 27t24 9
q19 0 52 -38z" />
    <glyph glyph-name="Uacute" unicode="&#xda;" horiz-adv-x="500" 
d="M250 624h-48v-493q0 -112 91 -112q62 0 88.5 38.5t26.5 113.5v453h-49v24h128v-24h-49v-445q0 -29 -2 -49.5t-11.5 -49.5t-27 -47.5t-52.5 -32t-83 -13.5q-103 0 -148.5 47.5t-45.5 115.5v474h-46v24h228v-24zM245 692h-46l122 138q33 38 52 38q13 0 24 -9t11 -27
q0 -23 -32 -46z" />
    <glyph glyph-name="Ucircumflex" unicode="&#xdb;" horiz-adv-x="500" 
d="M250 624h-48v-493q0 -112 91 -112q62 0 88.5 38.5t26.5 113.5v453h-49v24h128v-24h-49v-445q0 -29 -2 -49.5t-11.5 -49.5t-27 -47.5t-52.5 -32t-83 -13.5q-103 0 -148.5 47.5t-45.5 115.5v474h-46v24h228v-24zM158 692h-42l104 169h70l105 -169h-43l-97 108z" />
    <glyph glyph-name="Udieresis" unicode="&#xdc;" horiz-adv-x="500" 
d="M250 624h-48v-493q0 -112 91 -112q62 0 88.5 38.5t26.5 113.5v453h-49v24h128v-24h-49v-445q0 -29 -2 -49.5t-11.5 -49.5t-27 -47.5t-52.5 -32t-83 -13.5q-103 0 -148.5 47.5t-45.5 115.5v474h-46v24h228v-24zM348 812q22 0 37.5 -15.5t15.5 -37.5t-15.5 -37.5
t-38.5 -15.5q-22 0 -37 15.5t-15 37.5t15.5 37.5t37.5 15.5zM172 812q22 0 37.5 -15.5t15.5 -37.5t-15.5 -37.5t-38.5 -15.5q-22 0 -37 15.5t-15 37.5t15.5 37.5t37.5 15.5z" />
    <glyph glyph-name="Yacute" unicode="&#xdd;" horiz-adv-x="500" 
d="M318 24h59v-24h-250v24h57v266l-135 334h-35v24h211v-24h-42l113 -276l113 276h-46v24h116v-24h-38l-123 -303v-297zM240 692h-46l122 138q33 38 52 38q13 0 24 -9t11 -27q0 -23 -32 -46z" />
    <glyph glyph-name="Thorn" unicode="&#xde;" horiz-adv-x="500" 
d="M206 499v-295h19q55 0 84.5 34.5t29.5 122.5q0 70 -20 104t-86 34h-27zM259 24v-24h-235v24h48v600h-48v24h235v-24h-53v-101h62q97 0 156 -43t59 -120q0 -91 -62.5 -135t-175.5 -44h-39v-157h53z" />
    <glyph glyph-name="germandbls" unicode="&#xdf;" horiz-adv-x="444" 
d="M150 545v-545h-145v21h46v463q0 85 45.5 129.5t129.5 44.5q68 0 111 -40.5t43 -108.5q0 -117 -111 -145v-2q72 -15 110 -65t38 -123q0 -81 -42.5 -132t-105.5 -51q-41 0 -65.5 22.5t-24.5 51.5q0 25 14 39t33 14q15 0 27 -12.5t12 -34.5q0 -13 -14.5 -27.5t-14.5 -19.5
q0 -13 26 -13q15 0 24.5 8.5t13.5 29t5 38.5t1 51v47q0 88 -9 118.5t-39 37.5q-4 1 -21.5 3.5t-21.5 3.5q-10 2 -10 12q0 6 8.5 8.5t40.5 7.5q26 4 26 84v85q0 59 -14.5 76.5t-49.5 17.5q-28 0 -43.5 -14.5t-19 -32.5t-3.5 -47z" />
    <glyph glyph-name="agrave" unicode="&#xe0;" 
d="M358 46l10 -13q-25 -42 -81 -42q-48 0 -64 50q-42 -50 -116 -50q-41 0 -66 22t-25 60q0 32 14 56t32 37t49.5 23t52 14t54.5 8v78q0 43 -9.5 58t-39.5 15q-19 0 -32 -5.5t-13 -14.5q0 -2 10.5 -18.5t10.5 -31.5q0 -20 -15 -34t-30 -14q-25 0 -39.5 13t-14.5 38
q0 32 31.5 60.5t106.5 28.5q62 0 98 -23.5t36 -66.5v-236q0 -24 14 -24q7 0 26 12zM119 109q0 -74 44 -74q36 0 46.5 29t8.5 126q-99 -2 -99 -81zM256 439h-46l-131 94q-32 23 -32 46q0 18 11 27t24 9q19 0 52 -38z" />
    <glyph glyph-name="aacute" unicode="&#xe1;" 
d="M358 46l10 -13q-25 -42 -81 -42q-48 0 -64 50q-42 -50 -116 -50q-41 0 -66 22t-25 60q0 32 14 56t32 37t49.5 23t52 14t54.5 8v78q0 43 -9.5 58t-39.5 15q-19 0 -32 -5.5t-13 -14.5q0 -2 10.5 -18.5t10.5 -31.5q0 -20 -15 -34t-30 -14q-25 0 -39.5 13t-14.5 38
q0 32 31.5 60.5t106.5 28.5q62 0 98 -23.5t36 -66.5v-236q0 -24 14 -24q7 0 26 12zM119 109q0 -74 44 -74q36 0 46.5 29t8.5 126q-99 -2 -99 -81zM180 439h-46l122 138q33 38 52 38q13 0 24 -9t11 -27q0 -23 -32 -46z" />
    <glyph glyph-name="acircumflex" unicode="&#xe2;" 
d="M358 46l10 -13q-25 -42 -81 -42q-48 0 -64 50q-42 -50 -116 -50q-41 0 -66 22t-25 60q0 32 14 56t32 37t49.5 23t52 14t54.5 8v78q0 43 -9.5 58t-39.5 15q-19 0 -32 -5.5t-13 -14.5q0 -2 10.5 -18.5t10.5 -31.5q0 -20 -15 -34t-30 -14q-25 0 -39.5 13t-14.5 38
q0 32 31.5 60.5t106.5 28.5q62 0 98 -23.5t36 -66.5v-236q0 -24 14 -24q7 0 26 12zM119 109q0 -74 44 -74q36 0 46.5 29t8.5 126q-99 -2 -99 -81zM91 439h-42l104 169h70l105 -169h-43l-97 108z" />
    <glyph glyph-name="atilde" unicode="&#xe3;" 
d="M358 46l10 -13q-25 -42 -81 -42q-48 0 -64 50q-42 -50 -116 -50q-41 0 -66 22t-25 60q0 32 14 56t32 37t49.5 23t52 14t54.5 8v78q0 43 -9.5 58t-39.5 15q-19 0 -32 -5.5t-13 -14.5q0 -2 10.5 -18.5t10.5 -31.5q0 -20 -15 -34t-30 -14q-25 0 -39.5 13t-14.5 38
q0 32 31.5 60.5t106.5 28.5q62 0 98 -23.5t36 -66.5v-236q0 -24 14 -24q7 0 26 12zM119 109q0 -74 44 -74q36 0 46.5 29t8.5 126q-99 -2 -99 -81zM314 576h29q-5 -24 -11 -40.5t-16.5 -34t-28 -26.5t-40.5 -9q-27 0 -68.5 23.5t-55.5 23.5q-16 0 -28.5 -13.5t-17.5 -36.5
h-29q20 108 96 108q22 0 64 -24t60 -24q13 0 23 10t13.5 17.5t9.5 25.5z" />
    <glyph glyph-name="adieresis" unicode="&#xe4;" 
d="M358 46l10 -13q-25 -42 -81 -42q-48 0 -64 50q-42 -50 -116 -50q-41 0 -66 22t-25 60q0 32 14 56t32 37t49.5 23t52 14t54.5 8v78q0 43 -9.5 58t-39.5 15q-19 0 -32 -5.5t-13 -14.5q0 -2 10.5 -18.5t10.5 -31.5q0 -20 -15 -34t-30 -14q-25 0 -39.5 13t-14.5 38
q0 32 31.5 60.5t106.5 28.5q62 0 98 -23.5t36 -66.5v-236q0 -24 14 -24q7 0 26 12zM119 109q0 -74 44 -74q36 0 46.5 29t8.5 126q-99 -2 -99 -81zM283 559q22 0 37.5 -15.5t15.5 -37.5t-15.5 -37.5t-38.5 -15.5q-22 0 -37 15.5t-15 37.5t15.5 37.5t37.5 15.5zM107 559
q22 0 37.5 -15.5t15.5 -37.5t-15.5 -37.5t-38.5 -15.5q-22 0 -37 15.5t-15 37.5t15.5 37.5t37.5 15.5z" />
    <glyph glyph-name="aring" unicode="&#xe5;" 
d="M358 46l10 -13q-25 -42 -81 -42q-48 0 -64 50q-42 -50 -116 -50q-41 0 -66 22t-25 60q0 32 14 56t32 37t49.5 23t52 14t54.5 8v78q0 43 -9.5 58t-39.5 15q-19 0 -32 -5.5t-13 -14.5q0 -2 10.5 -18.5t10.5 -31.5q0 -20 -15 -34t-30 -14q-25 0 -39.5 13t-14.5 38
q0 32 31.5 60.5t106.5 28.5q62 0 98 -23.5t36 -66.5v-236q0 -24 14 -24q7 0 26 12zM119 109q0 -74 44 -74q36 0 46.5 29t8.5 126q-99 -2 -99 -81zM186 586q-23 0 -39 -16.5t-16 -39.5t16 -39t39 -16t39.5 16t16.5 39q0 22 -17 39t-39 17zM186 622q38 0 65 -27t27 -65
t-27 -64.5t-65 -26.5t-64.5 26.5t-26.5 64.5t26.5 65t64.5 27z" />
    <glyph glyph-name="ae" unicode="&#xe6;" horiz-adv-x="556" 
d="M320 217v-92q0 -107 72 -107q47 0 79.5 25.5t41.5 74.5h24q-12 -59 -52 -93t-99 -34t-95 13t-62 46q-46 -58 -126 -59q-40 -1 -65.5 21.5t-25.5 60.5q0 32 14 56t32 37t49.5 23t52 14t54.5 8v78q0 43 -9.5 58t-39.5 15q-19 0 -32 -5.5t-13 -14.5q0 -2 10.5 -18.5
t10.5 -31.5q0 -20 -15 -34t-30 -14q-25 0 -39.5 13t-14.5 38q0 32 31.5 60.5t106.5 28.5q67 0 102 -33q45 33 96 33q68 0 111.5 -49.5t43.5 -117.5h-213zM115 109q0 -74 44 -74q36 0 46.5 29t8.5 126q-99 -2 -99 -81zM320 241h104v56q0 22 -4 36.5t-13 20.5t-16 7.5t-19 1.5
q-52 0 -52 -69v-53z" />
    <glyph glyph-name="ccedilla" unicode="&#xe7;" horiz-adv-x="333" 
d="M291 111h26q-13 -59 -44.5 -89.5t-89.5 -30.5q-3 0 -5 1l-25 -58q19 7 35 7q37 0 60 -19t23 -56q0 -40 -35.5 -61t-81.5 -21q-53 0 -92 18l11 27q23 -13 57 -13q39 0 56.5 13.5t17.5 29.5q0 22 -13.5 35t-39.5 13q-8 0 -38 -9l-8 5l41 94q-61 13 -95.5 70t-34.5 128
q0 70 49.5 129.5t123.5 59.5q54 0 86.5 -28t32.5 -69q0 -25 -14 -42.5t-39 -17.5q-23 0 -37 12.5t-14 35.5q0 17 7 28t15 14.5t15 8.5t7 11q0 12 -19 20t-36 8q-63 0 -63 -89q0 -17 -1 -46t-1 -42q0 -12 1 -36t1 -35q0 -42 18 -70.5t53 -28.5q37 0 59.5 27t30.5 66z" />
    <glyph glyph-name="egrave" unicode="&#xe8;" 
d="M354 217h-213v-92q0 -107 72 -107q47 0 79.5 25.5t41.5 74.5h24q-12 -59 -52 -93t-99 -34q-84 0 -133 56.5t-49 141.5q0 78 48.5 136.5t125.5 58.5q68 0 111.5 -49.5t43.5 -117.5zM141 241h104v56q0 22 -4 36.5t-13 20.5t-16 7.5t-19 1.5q-52 0 -52 -69v-53zM256 439h-46
l-131 94q-32 23 -32 46q0 18 11 27t24 9q19 0 52 -38z" />
    <glyph glyph-name="eacute" unicode="&#xe9;" 
d="M354 217h-213v-92q0 -107 72 -107q47 0 79.5 25.5t41.5 74.5h24q-12 -59 -52 -93t-99 -34q-84 0 -133 56.5t-49 141.5q0 78 48.5 136.5t125.5 58.5q68 0 111.5 -49.5t43.5 -117.5zM141 241h104v56q0 22 -4 36.5t-13 20.5t-16 7.5t-19 1.5q-52 0 -52 -69v-53zM180 439h-46
l122 138q33 38 52 38q13 0 24 -9t11 -27q0 -23 -32 -46z" />
    <glyph glyph-name="ecircumflex" unicode="&#xea;" 
d="M354 217h-213v-92q0 -107 72 -107q47 0 79.5 25.5t41.5 74.5h24q-12 -59 -52 -93t-99 -34q-84 0 -133 56.5t-49 141.5q0 78 48.5 136.5t125.5 58.5q68 0 111.5 -49.5t43.5 -117.5zM141 241h104v56q0 22 -4 36.5t-13 20.5t-16 7.5t-19 1.5q-52 0 -52 -69v-53zM98 439h-42
l104 169h70l105 -169h-43l-97 108z" />
    <glyph glyph-name="edieresis" unicode="&#xeb;" 
d="M354 217h-213v-92q0 -107 72 -107q47 0 79.5 25.5t41.5 74.5h24q-12 -59 -52 -93t-99 -34q-84 0 -133 56.5t-49 141.5q0 78 48.5 136.5t125.5 58.5q68 0 111.5 -49.5t43.5 -117.5zM141 241h104v56q0 22 -4 36.5t-13 20.5t-16 7.5t-19 1.5q-52 0 -52 -69v-53zM283 559
q22 0 37.5 -15.5t15.5 -37.5t-15.5 -37.5t-38.5 -15.5q-22 0 -37 15.5t-15 37.5t15.5 37.5t37.5 15.5zM107 559q22 0 37.5 -15.5t15.5 -37.5t-15.5 -37.5t-38.5 -15.5q-22 0 -37 15.5t-15 37.5t15.5 37.5t37.5 15.5z" />
    <glyph glyph-name="igrave" unicode="&#xec;" horiz-adv-x="222" 
d="M11 21h44v333h-41v21q45 0 70 1q42 2 77 6v-361h39v-21h-189v21zM172 439h-46l-131 94q-32 23 -32 46q0 18 11 27t24 9q19 0 52 -38z" />
    <glyph glyph-name="iacute" unicode="&#xed;" horiz-adv-x="222" 
d="M11 21h44v333h-41v21q45 0 70 1q42 2 77 6v-361h39v-21h-189v21zM89 439h-46l122 138q33 38 52 38q13 0 24 -9t11 -27q0 -23 -32 -46z" />
    <glyph glyph-name="icircumflex" unicode="&#xee;" horiz-adv-x="222" 
d="M11 21h44v333h-41v21q45 0 70 1q42 2 77 6v-361h39v-21h-189v21zM14 439h-42l104 169h70l105 -169h-43l-97 108z" />
    <glyph glyph-name="idieresis" unicode="&#xef;" horiz-adv-x="222" 
d="M11 21h44v333h-41v21q45 0 70 1q42 2 77 6v-361h39v-21h-189v21zM199 559q22 0 37.5 -15.5t15.5 -37.5t-15.5 -37.5t-38.5 -15.5q-22 0 -37 15.5t-15 37.5t15.5 37.5t37.5 15.5zM23 559q22 0 37.5 -15.5t15.5 -37.5t-15.5 -37.5t-38.5 -15.5q-22 0 -37 15.5t-15 37.5
t15.5 37.5t37.5 15.5z" />
    <glyph glyph-name="eth" unicode="&#xf0;" 
d="M203 512l-105 -70l-20 24l109 73q-36 60 -91 93l26 26q67 -38 115 -86l89 60l20 -24l-87 -58q108 -119 108 -290q0 -269 -173 -269q-83 0 -128 58t-45 137q0 81 45 139.5t128 58.5q36 0 53 -12q-12 79 -44 140zM136 282v-180q0 -49 13 -70.5t45 -21.5q35 0 46.5 20.5
t11.5 70.5v181q0 50 -15.5 66.5t-42.5 16.5t-42.5 -16.5t-15.5 -66.5z" />
    <glyph glyph-name="ntilde" unicode="&#xf1;" horiz-adv-x="444" 
d="M164 21h37v-21h-182v21h39l1 333h-41v21q42 0 67 1q42 2 77 6v-69l2 1q14 31 45.5 50.5t67.5 19.5q54 0 80.5 -33t26.5 -79v-251h37v-21h-178v21h35v270q0 27 -10.5 39.5t-35.5 12.5q-27 0 -47.5 -32.5t-20.5 -89.5v-200zM341 576h29q-5 -24 -11 -40.5t-16.5 -34
t-28 -26.5t-40.5 -9q-27 0 -68.5 23.5t-55.5 23.5q-16 0 -28.5 -13.5t-17.5 -36.5h-29q20 108 96 108q22 0 64 -24t60 -24q13 0 23 10t13.5 17.5t9.5 25.5z" />
    <glyph glyph-name="ograve" unicode="&#xf2;" 
d="M194 -9q-83 0 -128 58t-45 138q0 81 45 139t128 58t128 -58t45 -139q0 -80 -45 -138t-128 -58zM136 282v-180q0 -49 13 -70.5t45 -21.5q35 0 46.5 20.5t11.5 70.5v181q0 50 -15.5 66.5t-42.5 16.5t-42.5 -16.5t-15.5 -66.5zM256 439h-46l-131 94q-32 23 -32 46
q0 18 11 27t24 9q19 0 52 -38z" />
    <glyph glyph-name="oacute" unicode="&#xf3;" 
d="M194 -9q-83 0 -128 58t-45 138q0 81 45 139t128 58t128 -58t45 -139q0 -80 -45 -138t-128 -58zM136 282v-180q0 -49 13 -70.5t45 -21.5q35 0 46.5 20.5t11.5 70.5v181q0 50 -15.5 66.5t-42.5 16.5t-42.5 -16.5t-15.5 -66.5zM180 439h-46l122 138q33 38 52 38q13 0 24 -9
t11 -27q0 -23 -32 -46z" />
    <glyph glyph-name="ocircumflex" unicode="&#xf4;" 
d="M194 -9q-83 0 -128 58t-45 138q0 81 45 139t128 58t128 -58t45 -139q0 -80 -45 -138t-128 -58zM136 282v-180q0 -49 13 -70.5t45 -21.5q35 0 46.5 20.5t11.5 70.5v181q0 50 -15.5 66.5t-42.5 16.5t-42.5 -16.5t-15.5 -66.5zM98 439h-42l104 169h70l105 -169h-43l-97 108z
" />
    <glyph glyph-name="otilde" unicode="&#xf5;" 
d="M194 -9q-83 0 -128 58t-45 138q0 81 45 139t128 58t128 -58t45 -139q0 -80 -45 -138t-128 -58zM136 282v-180q0 -49 13 -70.5t45 -21.5q35 0 46.5 20.5t11.5 70.5v181q0 50 -15.5 66.5t-42.5 16.5t-42.5 -16.5t-15.5 -66.5zM314 576h29q-5 -24 -11 -40.5t-16.5 -34
t-28 -26.5t-40.5 -9q-27 0 -68.5 23.5t-55.5 23.5q-16 0 -28.5 -13.5t-17.5 -36.5h-29q20 108 96 108q22 0 64 -24t60 -24q13 0 23 10t13.5 17.5t9.5 25.5z" />
    <glyph glyph-name="odieresis" unicode="&#xf6;" 
d="M194 -9q-83 0 -128 58t-45 138q0 81 45 139t128 58t128 -58t45 -139q0 -80 -45 -138t-128 -58zM136 282v-180q0 -49 13 -70.5t45 -21.5q35 0 46.5 20.5t11.5 70.5v181q0 50 -15.5 66.5t-42.5 16.5t-42.5 -16.5t-15.5 -66.5zM283 559q22 0 37.5 -15.5t15.5 -37.5
t-15.5 -37.5t-38.5 -15.5q-22 0 -37 15.5t-15 37.5t15.5 37.5t37.5 15.5zM107 559q22 0 37.5 -15.5t15.5 -37.5t-15.5 -37.5t-38.5 -15.5q-22 0 -37 15.5t-15 37.5t15.5 37.5t37.5 15.5z" />
    <glyph glyph-name="divide" unicode="&#xf7;" horiz-adv-x="600" 
d="M552 205h-504v96h504v-96zM302 380q-28 0 -48 20t-20 48t20 48t48 20t48 -20t20 -48t-20 -48t-48 -20zM301 126q28 0 48 -20t20 -48t-20 -48t-48 -20q-29 0 -48.5 20t-19.5 48t20 48t48 20z" />
    <glyph glyph-name="oslash" unicode="&#xf8;" 
d="M136 282v-182h2l107 232q-11 33 -51 33q-27 0 -42.5 -16.5t-15.5 -66.5zM252 101v171h-2l-106 -231q13 -31 50 -31q35 0 46.5 20.5t11.5 70.5zM46 -93l53 113q-38 26 -58 71t-20 96q0 81 45 139t128 58q38 0 69 -14l45 97h35l-52 -112q76 -54 76 -168q0 -80 -45 -138
t-128 -58q-37 0 -67 14l-46 -98h-35z" />
    <glyph glyph-name="ugrave" unicode="&#xf9;" horiz-adv-x="444" 
d="M272 -4l-9 49q-51 -54 -109 -54q-103 0 -103 108v255h-41v21q45 0 70 1q42 2 77 6v-303q0 -27 11.5 -36.5t31.5 -9.5q26 0 48.5 28.5t22.5 99.5v193h-49v21q53 0 78 1q42 2 77 6v-359h42v-21q-57 0 -147 -6zM283 439h-46l-131 94q-32 23 -32 46q0 18 11 27t24 9
q19 0 52 -38z" />
    <glyph glyph-name="uacute" unicode="&#xfa;" horiz-adv-x="444" 
d="M272 -4l-9 49q-51 -54 -109 -54q-103 0 -103 108v255h-41v21q45 0 70 1q42 2 77 6v-303q0 -27 11.5 -36.5t31.5 -9.5q26 0 48.5 28.5t22.5 99.5v193h-49v21q53 0 78 1q42 2 77 6v-359h42v-21q-57 0 -147 -6zM207 439h-46l122 138q33 38 52 38q13 0 24 -9t11 -27
q0 -23 -32 -46z" />
    <glyph glyph-name="ucircumflex" unicode="&#xfb;" horiz-adv-x="444" 
d="M272 -4l-9 49q-51 -54 -109 -54q-103 0 -103 108v255h-41v21q45 0 70 1q42 2 77 6v-303q0 -27 11.5 -36.5t31.5 -9.5q26 0 48.5 28.5t22.5 99.5v193h-49v21q53 0 78 1q42 2 77 6v-359h42v-21q-57 0 -147 -6zM125 439h-42l104 169h70l105 -169h-43l-97 108z" />
    <glyph glyph-name="udieresis" unicode="&#xfc;" horiz-adv-x="444" 
d="M272 -4l-9 49q-51 -54 -109 -54q-103 0 -103 108v255h-41v21q45 0 70 1q42 2 77 6v-303q0 -27 11.5 -36.5t31.5 -9.5q26 0 48.5 28.5t22.5 99.5v193h-49v21q53 0 78 1q42 2 77 6v-359h42v-21q-57 0 -147 -6zM310 559q22 0 37.5 -15.5t15.5 -37.5t-15.5 -37.5t-38.5 -15.5
q-22 0 -37 15.5t-15 37.5t15.5 37.5t37.5 15.5zM134 559q22 0 37.5 -15.5t15.5 -37.5t-15.5 -37.5t-38.5 -15.5q-22 0 -37 15.5t-15 37.5t15.5 37.5t37.5 15.5z" />
    <glyph glyph-name="yacute" unicode="&#xfd;" 
d="M183 354h-37l89 -219l76 219h-38v21h95v-21h-29l-154 -429q-31 -87 -57.5 -119.5t-63.5 -32.5q-23 0 -38.5 16.5t-15.5 40.5q0 21 14 34t35 13q17 0 31.5 -15t21.5 -15q26 0 70 148l-139 359h-27v21h167v-21zM180 439h-46l122 138q33 38 52 38q13 0 24 -9t11 -27
q0 -23 -32 -46z" />
    <glyph glyph-name="thorn" unicode="&#xfe;" horiz-adv-x="444" 
d="M296 159v90q0 51 -8.5 76.5t-17.5 30t-26 4.5q-26 0 -47.5 -25.5t-27.5 -66.5q-3 -17 -3 -83q0 -82 9 -106q8 -21 28.5 -41t42.5 -20q12 0 21 3.5t14.5 14t8.5 19.5t4 29t1.5 33.5t0.5 41.5zM220 -206v-21h-204v21h44v835h-44v21q20 0 78 3t72 4v-331h2q40 58 96 58
q65 0 105 -54.5t40 -134.5q0 -90 -42.5 -147t-108.5 -57q-28 0 -53 17t-37 43h-2v-257h54z" />
    <glyph glyph-name="ydieresis" unicode="&#xff;" 
d="M183 354h-37l89 -219l76 219h-38v21h95v-21h-29l-154 -429q-31 -87 -57.5 -119.5t-63.5 -32.5q-23 0 -38.5 16.5t-15.5 40.5q0 21 14 34t35 13q17 0 31.5 -15t21.5 -15q26 0 70 148l-139 359h-27v21h167v-21zM288 559q22 0 37.5 -15.5t15.5 -37.5t-15.5 -37.5
t-38.5 -15.5q-22 0 -37 15.5t-15 37.5t15.5 37.5t37.5 15.5zM112 559q22 0 37.5 -15.5t15.5 -37.5t-15.5 -37.5t-38.5 -15.5q-22 0 -37 15.5t-15 37.5t15.5 37.5t37.5 15.5z" />
    <glyph glyph-name="dotlessi" unicode="&#x131;" horiz-adv-x="222" 
d="M11 21h44v333h-41v21q45 0 70 1q42 2 77 6v-361h39v-21h-189v21z" />
    <glyph glyph-name="Lslash" unicode="&#x141;" horiz-adv-x="444" 
d="M206 624v-227l129 92v-45l-129 -92v-328q66 0 93 5.5t51 25.5q41 33 59 163h24l-6 -218h-401v24h46v230l-89 -65v45l89 65v325h-46v24h233v-24h-53z" />
    <glyph glyph-name="lslash" unicode="&#x142;" horiz-adv-x="222" 
d="M57 301v328h-42v21q18 0 75 3t73 4v-256l83 80v-48l-83 -80v-332h42v-21h-187v21h39v232l-73 -70v48z" />
    <glyph glyph-name="OE" unicode="&#x152;" horiz-adv-x="722" 
d="M350 160v310q0 82 -21 117.5t-65 35.5q-27 0 -45.5 -10.5t-28 -24.5t-14.5 -39t-6 -41.5t-1 -43.5v-308q0 -130 100 -130q81 0 81 134zM477 24h43q46 0 78 15.5t49 45t24.5 58t12.5 68.5h26l-9 -211h-374q-94 0 -120 8q-76 21 -133 102t-57 215q0 136 71.5 229.5
t171.5 93.5h429l6 -165h-23q-24 84 -57 112.5t-97 28.5h-41v-273q50 0 68.5 27.5t20.5 87.5h25v-269h-22q-9 72 -26 100t-66 28v-301z" />
    <glyph glyph-name="oe" unicode="&#x153;" horiz-adv-x="611" 
d="M363 217v-92q0 -107 72 -107q47 0 79.5 25.5t41.5 74.5h24q-12 -59 -52 -93.5t-99 -33.5q-77 0 -118 52q-44 -50 -117 -52q-82 -1 -127.5 57t-45.5 138q0 81 45 139.5t128 58.5q70 -7 115 -56q50 50 112 56q68 0 111.5 -49.5t43.5 -117.5h-213zM136 282v-180
q0 -49 13 -70.5t45 -21.5q35 0 46.5 20.5t11.5 70.5v181q0 50 -15.5 66.5t-42.5 16.5t-42.5 -16.5t-15.5 -66.5zM363 241h104v56q0 22 -4 36.5t-13 20.5t-16 7.5t-19 1.5q-52 0 -52 -69v-53z" />
    <glyph glyph-name="Scaron" unicode="&#x160;" 
d="M23 189h24q6 -66 43.5 -122t98.5 -56q44 0 71.5 28t27.5 72q0 42 -27.5 75.5t-66 58t-77.5 51.5t-66.5 72t-27.5 105q0 90 42.5 137.5t113.5 47.5q53 0 114 -41l25 31h20v-170h-22q-35 156 -138 156q-45 0 -70 -23t-25 -67q0 -30 20.5 -55.5t51.5 -43.5t67 -42.5t67 -51
t51.5 -71.5t20.5 -101q0 -41 -15.5 -82.5t-57.5 -75.5t-102 -34t-113 45l-34 -32h-16v189zM195 752l97 109h43l-105 -169h-70l-104 169h42z" />
    <glyph glyph-name="scaron" unicode="&#x161;" horiz-adv-x="278" 
d="M35 -9h-21v141h24q12 -120 94 -120q69 0 69 63q0 20 -19.5 35t-47 26.5t-55 26t-47 41t-19.5 63.5q0 52 27.5 84.5t74.5 32.5q27 0 50 -12t28 -13q3 0 6 1t4.5 2.5t3.5 4.5t3 5t3 6.5t2 5.5h19v-118h-23q-6 43 -31.5 70t-62.5 27q-25 0 -42 -11.5t-17 -35.5q0 -23 20 -39
t48 -27t56 -24.5t48 -39.5t20 -63q0 -57 -28 -94.5t-83 -37.5q-28 0 -57 11t-33 11q-11 0 -14 -22zM139 499l97 109h43l-105 -169h-70l-104 169h42z" />
    <glyph glyph-name="Ydieresis" unicode="&#x178;" horiz-adv-x="500" 
d="M318 24h59v-24h-250v24h57v266l-135 334h-35v24h211v-24h-42l113 -276l113 276h-46v24h116v-24h-38l-123 -303v-297zM348 812q22 0 37.5 -15.5t15.5 -37.5t-15.5 -37.5t-38.5 -15.5q-22 0 -37 15.5t-15 37.5t15.5 37.5t37.5 15.5zM172 812q22 0 37.5 -15.5t15.5 -37.5
t-15.5 -37.5t-38.5 -15.5q-22 0 -37 15.5t-15 37.5t15.5 37.5t37.5 15.5z" />
    <glyph glyph-name="Zcaron" unicode="&#x17d;" horiz-adv-x="444" 
d="M66 478h-24l4 170h371v-25l-269 -599h89q139 0 155 187h25l-7 -211h-398v32l268 592h-84q-103 0 -130 -146zM222 752l97 109h43l-105 -169h-70l-104 169h42z" />
    <glyph glyph-name="zcaron" unicode="&#x17e;" horiz-adv-x="333" 
d="M299 141l-2 -141h-281v32l173 322h-44q-41 0 -63 -28t-35 -89h-22l3 138h273v-24l-174 -330h46q45 0 65.5 25t39.5 95h21zM167 499l97 109h43l-105 -169h-70l-104 169h42z" />
    <glyph glyph-name="florin" unicode="&#x192;" 
d="M345 351v-26h-103v-33q0 -314 -31 -416q-11 -36 -20 -57.5t-24 -45.5t-37 -35t-52 -11q-38 0 -60.5 18.5t-22.5 56.5q0 20 12 35.5t32 15.5q22 0 35 -12.5t13 -23.5q0 -22 -14 -38t-14 -21q0 -11 19 -11q23 0 38.5 31.5t15.5 74.5q0 36 1.5 139.5t2.5 193.5l1 139h-100
v26h101q0 47 7 94.5t25 97t54.5 80.5t86.5 31q33 0 56.5 -20.5t23.5 -53.5q0 -30 -15.5 -42t-31.5 -12q-21 0 -35.5 10t-14.5 30t16 34.5t16 21.5q0 11 -20 11q-32 0 -48 -32.5t-16 -115.5v-134h103z" />
    <glyph glyph-name="circumflex" unicode="&#x2c6;" horiz-adv-x="222" 
d="M14 439h-42l104 169h70l105 -169h-43l-97 108z" />
    <glyph glyph-name="caron" unicode="&#x2c7;" horiz-adv-x="222" 
d="M111 499l97 109h43l-105 -169h-70l-104 169h42z" />
    <glyph glyph-name="uni02C9" unicode="&#x2c9;" horiz-adv-x="222" 
d="M247 528v-50h-270v50h270z" />
    <glyph glyph-name="breve" unicode="&#x2d8;" horiz-adv-x="222" 
d="M-16 587h30q5 -39 30 -63t66 -24q46 0 66 23t29 64h32q-13 -148 -130 -148q-58 0 -89 40.5t-34 107.5z" />
    <glyph glyph-name="dotaccent" unicode="&#x2d9;" horiz-adv-x="222" 
d="M111 559q22 0 37.5 -15.5t15.5 -37.5t-15.5 -37.5t-38.5 -15.5q-22 0 -37 15.5t-15 37.5t15.5 37.5t37.5 15.5z" />
    <glyph glyph-name="ring" unicode="&#x2da;" horiz-adv-x="222" 
d="M102 586q-23 0 -39 -16.5t-16 -39.5t16 -39t39 -16t39.5 16t16.5 39q0 22 -17 39t-39 17zM102 622q38 0 65 -27t27 -65t-27 -64.5t-65 -26.5t-64.5 26.5t-26.5 64.5t26.5 65t64.5 27z" />
    <glyph glyph-name="ogonek" unicode="&#x2db;" horiz-adv-x="222" 
d="M95 0h47q-32 -30 -32 -66q0 -42 36 -42q29 0 40 45h33q-9 -49 -34 -74.5t-60 -25.5q-33 0 -57.5 20t-24.5 53q0 45 52 90z" />
    <glyph glyph-name="tilde" unicode="&#x2dc;" horiz-adv-x="222" 
d="M230 576h29q-5 -24 -11 -40.5t-16.5 -34t-28 -26.5t-40.5 -9q-27 0 -68.5 23.5t-55.5 23.5q-16 0 -28.5 -13.5t-17.5 -36.5h-29q20 108 96 108q22 0 64 -24t60 -24q13 0 23 10t13.5 17.5t9.5 25.5z" />
    <glyph glyph-name="hungarumlaut" unicode="&#x2dd;" horiz-adv-x="222" 
d="M16 439h-46l122 138q33 38 52 38q13 0 24 -9t11 -27q0 -23 -32 -46zM176 439h-46l122 138q33 38 52 38q13 0 24 -9t11 -27q0 -23 -32 -46z" />
    <glyph glyph-name="uni03A9" unicode="&#x3a9;" horiz-adv-x="509" 
d="M487 145l-19 -145h-179l-8 16q56 202 64 282q2 26 2 48q0 241 -94 241q-29 0 -48 -18t-31.5 -74t-12.5 -151q0 -116 66 -328l-9 -16h-179l-17 145l28 1q11 -36 22.5 -47t34.5 -11h64q-27 26 -43.5 44.5t-40 53t-35.5 76t-12 89.5q0 121 62 195t154 74t152.5 -72.5
t60.5 -193.5q0 -45 -11 -84t-37 -76t-40 -53t-49 -53h74q21 0 31.5 11t20.5 47z" />
    <glyph glyph-name="uni03BC" unicode="&#x3bc;" horiz-adv-x="444" 
d="M377 23h42v-21q-97 0 -147 -6l-9 49q-51 -54 -109 -54q-22 0 -36 8v-28q0 -29 20.5 -61t20.5 -61q0 -76 -59 -76q-32 0 -52 23.5t-20 73.5q0 16 11.5 73t11.5 99v312h-41v21q45 0 70 1q42 2 77 6v-303q0 -27 11.5 -36.5t31.5 -9.5q26 0 48.5 28.5t22.5 99.5v193h-49v21
q53 0 78 1q42 2 77 6v-359z" />
    <glyph glyph-name="pi" unicode="&#x3c0;" horiz-adv-x="433" 
d="M390 406l25 -5q-7 -59 -27 -98q-13 -6 -45 -6q-4 -60 -4 -163q0 -42 6.5 -59t20.5 -17q15 0 32 17l11 -22q-15 -27 -40.5 -46t-50.5 -19q-81 0 -81 121q0 67 7 191q-5 -2 -39 -0.5t-43 1.5v-8q0 -209 -50 -288q-26 -13 -61 -17l-6 20q73 115 73 295q-31 0 -48.5 -6
t-44.5 -23l-13 27l9 12q9 12 12.5 16t14 15t20 16t22.5 12t29.5 9.5t34.5 2.5q29 0 93 -2q16 0 49 -0.5t51 -0.5q20 0 28 5t15 20z" />
    <glyph glyph-name="endash" unicode="&#x2013;" horiz-adv-x="500" 
d="M0 156v67h500v-67h-500z" />
    <glyph glyph-name="emdash" unicode="&#x2014;" horiz-adv-x="1000" 
d="M1000 223v-67h-1000v67h1000z" />
    <glyph glyph-name="quoteleft" unicode="&#x2018;" horiz-adv-x="222" 
d="M141 658l15 -16q-29 -30 -44 -47t-28 -43t-11 -48q19 22 55 22q25 0 40 -18t15 -40q0 -36 -20 -55.5t-49 -19.5q-35 0 -55 26t-20 63q0 54 26.5 94t75.5 82z" />
    <glyph glyph-name="quoteright" unicode="&#x2019;" horiz-adv-x="222" 
d="M81 393l-15 16q29 30 44 47t28 43t11 48q-19 -22 -55 -22q-25 0 -40 18t-15 40q0 36 20 55.5t49 19.5q35 0 55 -26t20 -63q0 -54 -26.5 -94t-75.5 -82z" />
    <glyph glyph-name="quotesinglbase" unicode="&#x201a;" horiz-adv-x="222" 
d="M81 -140l-15 16q30 31 40 42.5t26.5 40.5t17.5 55q-23 -22 -56 -22q-24 0 -39.5 17t-15.5 41q0 32 19 53.5t50 21.5q34 0 54.5 -27t20.5 -62q0 -91 -102 -176z" />
    <glyph glyph-name="quotedblleft" unicode="&#x201c;" horiz-adv-x="444" 
d="M148 658l15 -16q-29 -30 -44 -47t-28 -43t-11 -48q19 22 55 22q25 0 40 -18t15 -40q0 -36 -20 -55.5t-49 -19.5q-35 0 -55 26t-20 63q0 54 26.5 94t75.5 82zM352 658l15 -16q-29 -30 -44 -47t-28 -43t-11 -48q19 22 55 22q25 0 40 -18t15 -40q0 -36 -20 -55.5t-49 -19.5
q-35 0 -55 26t-20 63q0 54 26.5 94t75.5 82z" />
    <glyph glyph-name="quotedblright" unicode="&#x201d;" horiz-adv-x="444" 
d="M92 393l-15 16q29 30 44 47t28 43t11 48q-19 -22 -55 -22q-25 0 -40 18t-15 40q0 36 20 55.5t49 19.5q35 0 55 -26t20 -63q0 -54 -26.5 -94t-75.5 -82zM296 393l-15 16q29 30 44 47t28 43t11 48q-19 -22 -55 -22q-25 0 -40 18t-15 40q0 36 20 55.5t49 19.5q35 0 55 -26
t20 -63q0 -54 -26.5 -94t-75.5 -82z" />
    <glyph glyph-name="quotedblbase" unicode="&#x201e;" horiz-adv-x="444" 
d="M92 -140l-15 16q30 31 40 42.5t26.5 40.5t17.5 55q-23 -22 -56 -22q-24 0 -39.5 17t-15.5 41q0 32 19 53.5t50 21.5q34 0 54.5 -27t20.5 -62q0 -91 -102 -176zM296 -140l-15 16q30 31 40 42.5t26.5 40.5t17.5 55q-23 -22 -56 -22q-24 0 -39.5 17t-15.5 41q0 32 19 53.5
t50 21.5q34 0 54.5 -27t20.5 -62q0 -91 -102 -176z" />
    <glyph glyph-name="dagger" unicode="&#x2020;" horiz-adv-x="444" 
d="M234 -167h-23q0 184 -9 260t-32 143q29 41 35.5 72t6.5 112q-48 0 -83 -17t-58 -17q-16 0 -28.5 12.5t-12.5 30.5q0 19 12.5 31.5t28.5 12.5q23 0 58 -17t83 -17q0 51 -9 83.5t-18 50.5t-9 35q0 22 13 36t34 14t33.5 -14.5t12.5 -35.5q0 -17 -9 -35t-18 -50.5t-9 -83.5
q49 0 84 17t57 17q16 0 28.5 -12.5t12.5 -31.5q0 -18 -12.5 -30.5t-28.5 -12.5q-22 0 -57 17t-84 17q0 -81 6.5 -112t35.5 -72q-23 -67 -32 -143t-9 -260z" />
    <glyph glyph-name="daggerdbl" unicode="&#x2021;" horiz-adv-x="444" 
d="M223 658q21 0 33.5 -14.5t12.5 -35.5q0 -17 -9 -35t-18 -50.5t-9 -83.5q49 0 84 17t57 17q16 0 28.5 -12.5t12.5 -31.5q0 -18 -12.5 -30.5t-28.5 -12.5q-22 0 -57 17t-84 17q-4 -122 40 -177q-44 -58 -40 -179q49 0 84 17t57 17q16 0 28.5 -12.5t12.5 -30.5
q0 -19 -12.5 -31.5t-28.5 -12.5q-22 0 -57 17t-84 17q0 -51 9 -83.5t18 -50.5t9 -35q0 -21 -12.5 -35.5t-33.5 -14.5t-34 14t-13 36q0 17 9 35t18 50.5t9 83.5q-48 0 -83 -17t-58 -17q-16 0 -28.5 12.5t-12.5 31.5q0 18 12.5 30.5t28.5 12.5q23 0 58 -17t83 -17
q-1 41 -2.5 64t-11 57t-27.5 58q18 23 27.5 56.5t11 56.5t2.5 64q-48 0 -83 -17t-58 -17q-16 0 -28.5 12.5t-12.5 30.5q0 19 12.5 31.5t28.5 12.5q23 0 58 -17t83 -17q0 51 -9 83.5t-18 50.5t-9 35q0 22 13 36t34 14z" />
    <glyph glyph-name="bullet" unicode="&#x2022;" horiz-adv-x="500" 
d="M412 324q0 -68 -47 -115t-115 -47t-114.5 47t-47.5 115q0 68 47 115t115 47t115 -47t47 -115z" />
    <glyph glyph-name="ellipsis" unicode="&#x2026;" horiz-adv-x="1000" 
d="M235 57q0 -28 -20 -48t-48 -20q-29 0 -48.5 19.5t-19.5 48.5q0 28 20 48t48 20t48 -20t20 -48zM568 57q0 -28 -20 -48t-48 -20t-48 19.5t-20 48.5q0 28 20 48t48 20t48 -20t20 -48zM901 57q0 -28 -20 -48t-48 -20q-29 0 -48.5 19.5t-19.5 48.5q0 28 20 48t48 20t48 -20
t20 -48z" />
    <glyph glyph-name="perthousand" unicode="&#x2030;" horiz-adv-x="1000" 
d="M460 627h42l-297 -638h-42l272 581l-2 2q-39 -28 -113 -28q3 -13 3 -30q0 -73 -52.5 -153.5t-117.5 -80.5q-52 0 -79.5 27.5t-27.5 78.5q0 29 14 66t38 72.5t63 59.5t84 24q15 0 33.5 -10.5t28.5 -23.5q6 -6 33 -6q33 0 68 16t52 43zM167 307q38 0 74 44.5t52 101t5 91.5
q-26 8 -59 36q-39 -25 -73.5 -100.5t-34.5 -124.5q0 -48 36 -48zM344 102q0 77 59 154t134 77q82 0 82 -104q0 -75 -51.5 -152t-117.5 -77q-46 0 -76 28t-30 74zM429 83q0 -55 39 -55q26 0 52.5 26t41.5 54q35 67 35 126q0 27 -10 49t-33 22q-40 0 -82.5 -87.5t-42.5 -134.5
zM654 102q0 77 59 154t134 77q82 0 82 -104q0 -75 -51.5 -152t-117.5 -77q-46 0 -76 28t-30 74zM739 83q0 -55 39 -55q26 0 52.5 26t41.5 54q35 67 35 126q0 27 -10 49t-33 22q-40 0 -82.5 -87.5t-42.5 -134.5z" />
    <glyph glyph-name="guilsinglleft" unicode="&#x2039;" horiz-adv-x="278" 
d="M179 239l-36 -49q99 -129 99 -145q0 -11 -10 -11q-4 0 -7 2.5t-7.5 8t-6.5 7.5q-51 45 -128 108q-27 23 -27 28q0 6 11 15q112 93 152 133q7 7 13 7q3 0 6.5 -3t3.5 -6q0 -10 -63 -95z" />
    <glyph glyph-name="guilsinglright" unicode="&#x203a;" horiz-adv-x="278" 
d="M99 138l36 49q-99 129 -99 145q0 11 10 11q4 0 7 -2.5t7.5 -8t6.5 -7.5q51 -45 128 -108q27 -23 27 -28q0 -6 -11 -15q-112 -93 -152 -133q-7 -7 -13 -7q-3 0 -6.5 3t-3.5 6q0 10 63 95z" />
    <glyph glyph-name="fraction" unicode="&#x2044;" horiz-adv-x="167" 
d="M273 624l-328 -633h-51l328 633h51z" />
    <glyph glyph-name="Euro" unicode="&#x20ac;" 
d="M15 355l6 24h46q13 115 63.5 180t118.5 65q46 0 85 -42l18 32h18v-162h-21q-6 33 -11.5 54t-16.5 46.5t-27.5 38t-39.5 12.5q-22 0 -36.5 -16.5t-21 -47t-8.5 -59.5t-2 -69v-32h145l-6 -24h-139v-97h117l-5 -24h-112v-31q0 -88 13.5 -140t54.5 -52q22 0 39 12.5
t27.5 37.5t16.5 46.5t12 54.5h21v-166h-18l-18 36q-39 -42 -85 -42q-67 0 -118 65t-64 179h-53l5 24h46q-2 32 -2 49q0 18 2 48h-50z" />
    <glyph glyph-name="afii61289" unicode="&#x2113;" horiz-adv-x="340" 
d="M308 118l22 -18q-50 -109 -143 -109q-64 0 -91 34q-15 22 -20 45t-5 81v68l-38 -28l-12 28l49 39v128q0 87 9 128.5t33 76.5q36 57 87 57q39 0 61 -32t22 -87q0 -71 -25 -125.5t-79 -117.5v-75q0 -88 10.5 -119t43.5 -31q39 0 76 57zM178 427v-89q22 28 36 81t14 107
q0 92 -26 92q-15 0 -19.5 -34t-4.5 -157z" />
    <glyph glyph-name="trademark" unicode="&#x2122;" horiz-adv-x="1000" 
d="M251 624v-310q0 -29 7 -36t44 -10v-24h-202v24q37 3 44 10t7 36v310h-45q-50 0 -65 -64h-24v88h368v-88h-24q-15 64 -65 64h-45zM665 244l-137 287h-2v-193q0 -41 8.5 -54.5t43.5 -15.5v-24h-134v24q34 2 42.5 15.5t8.5 54.5v234q-23 52 -70 52v24h145l138 -283l148 283
h123v-24q-34 -1 -43.5 -11t-9.5 -35v-264q0 -29 7 -36t44 -10v-24h-201v24q37 3 43.5 10t6.5 36v218h-2l-145 -288h-14z" />
    <glyph glyph-name="Omega" unicode="&#x2126;" horiz-adv-x="509" 
d="M487 145l-19 -145h-179l-8 16q56 202 64 282q2 26 2 48q0 241 -94 241q-29 0 -48 -18t-31.5 -74t-12.5 -151q0 -116 66 -328l-9 -16h-179l-17 145l28 1q11 -36 22.5 -47t34.5 -11h64q-27 26 -43.5 44.5t-40 53t-35.5 76t-12 89.5q0 121 62 195t154 74t152.5 -72.5
t60.5 -193.5q0 -45 -11 -84t-37 -76t-40 -53t-49 -53h74q21 0 31.5 11t20.5 47z" />
    <glyph glyph-name="estimated" unicode="&#x212e;" horiz-adv-x="763" 
d="M733 298h-570q-4 0 -4 -4v-172q0 -11 7 -20q91 -94 216 -94q136 0 226 105h51q-48 -56 -121.5 -89t-156.5 -33q-146 0 -249 92.5t-103 222.5q0 131 103 224t249 93t249 -93t103 -224v-8zM604 320v173q0 12 -9 21q-92 90 -213 90q-124 0 -215 -93q-8 -8 -8 -21v-170
q0 -6 4 -6h437q4 0 4 6z" />
    <glyph glyph-name="partialdiff" unicode="&#x2202;" horiz-adv-x="414" 
d="M207 374h1q47 0 78 -42q9 55 12 101q6 80 -16 129q-23 52 -88 52q-54 0 -105 -49q-11 0 -22 29.5t-7 45.5q49 32 106 32q114 0 170 -127q41 -93 41 -215q0 -120 -37 -207q-24 -60 -68 -96t-101 -36q-64 0 -102.5 43t-38.5 122q0 84 48 150q22 30 56.5 49t72.5 19z
M227 334h-1q-35 0 -59 -49q-36 -79 -36 -202q0 -62 42 -62q31 0 67 98q26 72 37 171q-4 16 -18 30t-32 14z" />
    <glyph glyph-name="Delta" unicode="&#x2206;" horiz-adv-x="487" 
d="M461 0h-437v32l192 576l43 11l202 -587v-32zM329 54l-127 385l-123 -385h250z" />
    <glyph glyph-name="product" unicode="&#x220f;" horiz-adv-x="543" 
d="M523 611v-30q-49 -4 -60.5 -18.5t-11.5 -70.5v-446q0 -59 11 -73.5t60 -19.5v-30h-233v30q37 4 45 18t8 74v497q0 22 -5.5 28t-26.5 6h-82q-19 0 -23.5 -5t-4.5 -25v-501q0 -59 6 -73.5t41 -18.5v-30h-228v30q49 4 60.5 19.5t11.5 72.5v447q0 56 -12 70.5t-63 18.5v30
h507z" />
    <glyph glyph-name="summation" unicode="&#x2211;" horiz-adv-x="422" 
d="M407 99l-38 -183h-348v27l165 270l-164 370v28h349q0 -4 2 -30t4 -58t3 -58l-30 -5q-12 53 -26 80q-10 22 -26.5 28.5t-58.5 6.5h-88l126 -273l-171 -289h158q53 0 72.5 15t40.5 78z" />
    <glyph glyph-name="minus" unicode="&#x2212;" horiz-adv-x="600" 
d="M552 205h-504v96h504v-96z" />
    <glyph glyph-name="uni2215" unicode="&#x2215;" horiz-adv-x="167" 
d="M273 624l-328 -633h-51l328 633h51z" />
    <glyph glyph-name="uni2219" unicode="&#x2219;" horiz-adv-x="195" 
d="M166 253q0 -28 -20 -48t-48 -20t-48 19.5t-20 48.5q0 28 20 48t48 20t48 -20t20 -48z" />
    <glyph glyph-name="radical" unicode="&#x221a;" horiz-adv-x="441" 
d="M432 758l-143 -918l-23 -9l-157 473l-69 -28l-11 35l152 62l98 -327h2l108 720z" />
    <glyph glyph-name="infinity" unicode="&#x221e;" horiz-adv-x="608" 
d="M571 252v-1q0 -65 -38.5 -104.5t-90.5 -39.5q-37 0 -69 18t-67 69q-33 -43 -66.5 -65t-77.5 -22q-51 0 -88.5 39t-37.5 101t37.5 101.5t95.5 39.5q77 0 138 -83q40 47 66 63q33 20 73 20q52 0 88.5 -37.5t36.5 -98.5zM170 172h2q27 0 49 18t49 53q-22 32 -31 43.5
t-28.5 25t-41.5 13.5q-32 0 -50 -21.5t-18 -57.5q-1 -31 19.5 -52.5t49.5 -21.5zM440 325h-1q-7 0 -14 -1.5t-14 -5t-12.5 -6.5t-12.5 -9t-10.5 -9.5t-10.5 -11.5t-9 -10.5t-9 -11.5t-8 -10q34 -46 55 -62t50 -16q28 0 45 24t17 50q0 34 -18 56.5t-48 22.5z" />
    <glyph glyph-name="integral" unicode="&#x222b;" horiz-adv-x="330" 
d="M128 -15l-18 347q-5 94 2.5 166t23 113.5t38 68t43 35t43.5 8.5q24 0 44.5 -13.5t20.5 -38.5t-16.5 -39t-38.5 -14q-12 0 -19.5 8.5t-10 19t-6.5 19t-9 8.5q-8 0 -12.5 -9t-6.5 -36t1 -77l16 -310q8 -140 -13 -238t-58 -141t-86 -43q-26 0 -44.5 15.5t-18.5 36.5
q-1 26 18 42t42 16q13 0 20.5 -15t13 -30.5t12.5 -15.5q25 0 19 117z" />
    <glyph glyph-name="approxequal" unicode="&#x2248;" horiz-adv-x="391" 
d="M323 390l43 -35q-17 -38 -44.5 -63.5t-58.5 -25.5q-39 0 -77 29q-36 28 -58 28q-5 0 -9.5 -1t-8 -2t-7.5 -4.5t-6 -5t-6 -6t-5.5 -6.5t-5 -8t-4.5 -7.5t-5 -8.5t-4 -8l-44 35q16 38 45.5 62.5t64.5 24.5q36 0 75 -27q41 -28 56 -28q12 0 23.5 9t17.5 18.5t18 29.5z
M323 237l43 -35q-17 -38 -44.5 -63.5t-58.5 -25.5q-35 0 -77 29q-38 29 -58 29q-7 0 -12.5 -1.5t-11 -5.5t-9 -7t-8.5 -10.5l-7 -10.5t-7 -12t-6 -11l-44 35q16 38 45.5 62.5t64.5 24.5q33 0 74 -27q6 -4 15.5 -10.5t15 -9.5t13 -6t13.5 -3q5 0 9.5 1.5t8 3t8 6l7 7t7 9
t6 9.5t6.5 11t7 11z" />
    <glyph glyph-name="notequal" unicode="&#x2260;" horiz-adv-x="391" 
d="M295 433l-26 -65h87v-69h-109l-40 -103h149v-69h-172l-33 -83l-52 18l26 65h-91v69h114l40 103h-154v69h176l33 83z" />
    <glyph glyph-name="lessequal" unicode="&#x2264;" horiz-adv-x="391" 
d="M354 86l-315 181v74l315 180v-82l-254 -134v-2l254 -135v-82zM359 -13h-323v70h323v-70z" />
    <glyph glyph-name="greaterequal" unicode="&#x2265;" horiz-adv-x="391" 
d="M41 521l316 -180v-75l-316 -180v82l254 135v2l-254 134v82zM358 -13h-322v70h322v-70z" />
    <glyph glyph-name="lozenge" unicode="&#x25ca;" horiz-adv-x="434" 
d="M395 296l-136 -352h-86l-134 352l137 354h84zM320 296l-101 280h-3l-103 -280l103 -282h3z" />
    </font>
</defs>
</svg>
