<?xml version="1.0" standalone="no"?> <!DOCTYPE svg PUBLIC "-//W3C//DTD SVG 1.0//EN" "http://www.w3.org/TR/2001/REC-SVG-20010904/DTD/svg10.dtd" > <svg xmlns="http://www.w3.org/2000/svg" width="100%" height="100%">
<defs >
<font id="bodonibold2" horiz-adv-x="429" ><font-face
    font-family="Bodoni-Bold"
    units-per-em="1000"
    panose-1="0 0 0 0 0 0 0 0 0 0"
    ascent="764"
    descent="-261"
    alphabetic="0" />
<missing-glyph horiz-adv-x="220" />
<glyph unicode=" " glyph-name="space" horiz-adv-x="220" />
<glyph unicode="!" glyph-name="exclam" horiz-adv-x="297" d="M150 142Q182 142 204 120T226 66Q226 35 204 14T150 -8Q119 -8 97 13T75 66Q75 98 97 120T150 142V142ZM149 680Q162 632 185 603T247 555Q209 498 189 431T162 294Q159 266 157 238T155 183H141Q141
215 140 249T134 317Q127 382 108 444T51 555Q89 573 112 603T149 680V680Z" />
<glyph unicode="&quot;" glyph-name="quotedbl" horiz-adv-x="179" d="M66 412H38L35 667H68L66 412V412ZM142 412H114L111 667H145L142 412V412Z" />
<glyph unicode="#" glyph-name="numbersign" horiz-adv-x="553" d="M363 252L328 0H291L326 252H213L178 0H139L174 252H32V288H179L194 396H56V433H199L232 668H271L238 433H351L385 668H420L388 433H520V396H383L368 288H498V252H363V252ZM346 396H233L218 288H331L346
396V396Z" />
<glyph unicode="$" glyph-name="dollar" horiz-adv-x="553" d="M471 667L473 451L456 450Q439 523 396 581T274 652V419Q277 418 280 417T288 416Q289 415 291 415T295 414Q378 393 447 358T516 217Q516 114 453 55T279 -4V-121H253V-4Q240 -1 226 2T198 9Q193
11 188 12T177 16Q153 24 131 30T89 37Q73 37 65 30T52 2H36L30 250H48Q56 198 78 152T141 70Q152 61 161 54T179 41Q194 32 211 27T253 16V280Q252 280 251 280T247 281Q165 302 98 336T30 473Q30 561 91 616T249 673V764H274V671Q296 669 316 662T355 647Q377
638 394 630T422 622Q439 622 444 633T452 657Q452 659 452 662T453 667H471V667ZM279 274V13Q343 13 391 42T439 143Q439 211 393 235T290 272Q287 272 285 272T279 274V274ZM248 655Q194 655 154 628T113 539Q113 489 141 465T248 426V655V655Z" />
<glyph unicode="%" glyph-name="percent" horiz-adv-x="739" d="M547 680L223 -13H190L514 680H547V680ZM447 166Q447 234 486 286T578 338Q632 338 669 288T707 167Q707 97 669 47T577 -3Q521 -3 484 45T447 166V166ZM579 324Q545 324 535 292T524 156Q524 68
535 39T577 10Q609 10 619 39T629 159Q629 265 620 294T579 324V324ZM31 499Q31 568 70 619T162 671Q216 671 253 621T291 500Q291 431 253 381T161 330Q105 330 68 378T31 499V499ZM163 657Q129 657 119 625T108 490Q108 402 119 373T161 343Q193 343 203 372T213
492Q213 598 204 627T163 657V657Z" />
<glyph unicode="&amp;" glyph-name="ampersand" horiz-adv-x="776" d="M766 163Q738 80 691 38T581 -5Q529 -5 492 25T422 93Q416 100 410 107T398 122Q397 121 396 120T394 116Q358 70 311 32T200 -7Q132 -7 82 45T32 168Q32 226 72 267T159 338Q172 347 185
354T210 368Q174 418 159 454T143 525Q143 590 189 632T307 675Q360 675 392 645T425 564Q425 521 414 500T382 463Q372 454 360 445T333 421L470 251Q472 254 474 256T477 260Q516 308 538 331T578 364Q590 370 602 371T630 373Q670 373 696 350T722 292Q722 259
703 238T653 217Q615 217 603 240T591 297Q591 308 588 313T574 318Q561 318 539 297T486 234L492 227Q518 198 530 183T543 168Q547 164 551 160T559 151Q581 128 608 109T668 90Q702 90 718 112T747 161Q747 162 747 162T747 163Q748 164 748 165T750 168L766
163V163ZM221 352Q203 341 190 331T167 310Q155 297 150 284T145 256Q145 242 149 226T159 194Q179 149 217 112T297 74Q306 74 314 76T331 82Q344 89 357 102T387 137L221 352V352ZM320 436Q362 461 384 492T406 558Q406 597 382 625T323 654Q292 654 270 634T248
587Q248 553 264 524T299 467Q304 459 309 452T320 436V436Z" />
<glyph unicode="&apos;" glyph-name="quotesingle" horiz-adv-x="103" d="M66 412H38L35 667H68L66 412V412Z" />
<glyph unicode="(" glyph-name="parenleft" horiz-adv-x="263" d="M236 670Q208 635 189 608T156 556Q146 537 137 518T120 477Q117 468 114 460T108 441Q90 389 81 333T72 218Q72 95 114 -19T236 -228L208 -261Q180 -226 161 -200T126 -147Q113 -125 103 -101T82
-48Q78 -38 75 -28T68 -6Q62 11 58 30T49 67Q41 104 37 141T33 215Q33 349 79 471T208 698L236 670V670Z" />
<glyph unicode=")" glyph-name="parenright" horiz-adv-x="263" d="M27 -232Q31 -226 34 -222T42 -212Q117 -113 153 -10T190 220Q190 342 148 457T27 666L55 698Q82 664 102 637T137 585Q149 563 159 541T179 491Q183 481 187 470T195 445Q212 389 221 334T230
223Q230 89 184 -33T55 -260L27 -232V-232Z" />
<glyph unicode="*" glyph-name="asterisk" horiz-adv-x="553" d="M270 483Q270 517 261 544T239 593Q227 614 218 626T208 643Q208 647 211 650T219 653Q222 653 224 653T229 651Q230 650 230 650T232 649Q235 648 238 647T245 646Q250 646 252 652T257 667Q258
669 258 670T259 672Q261 682 265 690T276 698Q287 698 291 690T297 672Q297 671 297 670T298 668Q300 659 303 652T313 645Q316 645 319 646T326 649Q329 651 332 652T339 653Q341 653 343 651T346 646Q347 645 347 645T347 643Q347 639 346 636T341 628Q316 599
302 562T287 485V483Q327 500 354 521T400 574Q401 575 402 577T404 580Q407 585 411 588T420 592Q425 592 427 589T430 578Q430 575 430 572T431 567Q432 559 435 556T454 553H468Q481 553 486 550T492 540Q492 532 486 527T473 518Q465 514 459 509T453 496Q453
492 455 489T461 483Q463 480 465 477T468 469Q468 465 465 462T455 459Q450 459 439 462T414 469Q405 471 395 473T375 476Q370 477 365 477T354 478Q341 478 333 478T316 476Q311 475 306 473T293 469Q312 441 344 419T410 387Q412 387 414 386T420 385Q425 383
430 380T435 371Q435 364 430 362T419 358Q413 356 408 354T403 345Q403 339 405 334T409 322Q411 316 413 311T415 299Q415 295 412 292T403 288Q396 288 390 292T378 302Q372 307 367 311T353 316Q352 316 350 313T343 304Q340 300 336 296T327 292Q322 292 319
296T316 311Q316 312 316 313T317 316Q317 317 317 318T317 321Q317 324 317 327T317 334Q316 368 308 400T279 460Q265 439 256 421T241 384Q238 372 237 361T235 337Q235 331 235 325T237 313V311Q237 303 234 298T225 293Q222 293 219 295T212 301Q211 302 210
304T207 308Q206 310 205 311T202 314Q201 315 200 315T198 316Q191 316 185 312T174 303Q169 298 163 294T150 290Q146 290 142 293T138 301Q138 307 139 313T144 326Q146 332 147 338T149 350Q149 355 145 357T135 360Q135 360 135 360T134 360Q128 361 124 363T119
372Q119 377 124 381T138 388Q176 394 208 417T265 469Q251 472 242 473T224 476Q217 477 209 477T191 478Q178 478 166 475T142 469Q130 466 119 463T97 460Q93 460 90 462T87 469Q87 474 89 477T96 483Q99 486 101 489T104 497Q104 498 104 499T103 501Q101 504
96 507T84 516Q77 521 71 527T64 540Q64 546 70 550T88 554Q91 554 93 554T98 553Q100 553 102 553T108 552Q116 552 121 556T126 577Q126 585 128 589T137 593Q140 593 143 590T152 580Q172 547 202 520T270 483V483Z" />
<glyph unicode="+" glyph-name="plus" horiz-adv-x="553" d="M510 350V318H292V88H261V318H43V350H261V581H292V350H510V350Z" />
<glyph unicode="," glyph-name="comma" horiz-adv-x="273" d="M68 -139Q128 -122 158 -84T188 15Q177 2 163 -3T132 -9Q101 -9 79 13T56 66Q56 97 78 119T130 142Q170 142 193 113T216 34Q216 -39 178 -89T70 -155L68 -139V-139Z" />
<glyph unicode="-" glyph-name="hyphen" horiz-adv-x="271" d="M271 259L237 175H0L35 259H271V259Z" />
<glyph unicode="." glyph-name="period" horiz-adv-x="273" d="M137 144Q169 144 191 122T213 68Q213 36 191 14T137 -8Q105 -8 83 14T60 68Q60 100 82 122T137 144V144Z" />
<glyph unicode="/" glyph-name="slash" horiz-adv-x="376" d="M-5 -249L267 687H309L37 -249H-5V-249Z" />
<glyph unicode="0" glyph-name="zero" horiz-adv-x="553" d="M34 331Q34 468 107 571T278 675Q379 675 448 576T518 333Q518 194 447 94T276 -7Q172 -7 103 89T34 331V331ZM280 658Q238 658 215 634T183 560Q177 518 174 453T171 311Q171 242 173 193T182 105Q188
65 210 37T276 9Q340 9 361 70T382 318Q382 390 380 454T373 558Q368 608 345 633T280 658V658Z" />
<glyph unicode="1" glyph-name="one" horiz-adv-x="553" d="M80 500Q86 504 92 507T105 515Q114 520 122 525T140 536Q187 564 232 595T314 667H382V19H461V0H160V19H245V492Q245 519 238 530T211 542Q201 542 184 534T148 516Q145 514 142 513T136 509Q122 501
110 494T89 481L80 500V500Z" />
<glyph unicode="2" glyph-name="two" horiz-adv-x="553" d="M137 127H479Q481 141 482 151T485 169Q486 171 486 172T487 176Q488 185 490 194T494 217H510Q503 163 497 109T489 0H20Q29 16 38 29T56 56Q70 78 85 97T118 134Q130 146 143 158T171 183Q191 200
209 215T246 246Q296 291 328 342T360 476Q360 564 324 609T218 655Q206 655 191 653T160 645Q125 633 97 611T68 554Q68 542 75 535T94 528Q96 528 96 528T98 529L112 530Q140 530 161 517T183 470Q183 442 163 422T113 402Q73 402 50 431T26 507Q26 577 86 626T231
675Q347 675 424 618T501 474Q501 389 451 327T291 218Q248 199 223 188T181 166Q174 161 168 156T155 146Q151 142 147 137T137 127V127Z" />
<glyph unicode="3" glyph-name="three" horiz-adv-x="553" d="M122 380H171Q271 380 312 410T354 513Q354 585 326 621T242 658Q234 658 218 656T183 649Q159 642 139 631T119 604Q119 597 122 594T135 591Q162 591 181 574T201 527Q201 498 182 478T136 458Q104
458 84 481T63 540Q63 600 113 637T243 675Q345 675 414 632T483 526Q483 463 442 428T308 375Q408 366 461 319T515 191Q515 103 437 48T236 -8Q139 -8 83 29T27 132Q27 170 49 193T107 217Q136 217 155 197T174 145Q174 116 161 103T130 84Q124 82 118 81T105
77Q97 75 92 72T86 64Q86 42 123 26T211 10Q300 10 337 47T374 174Q374 296 334 329T175 362H122V380V380Z" />
<glyph unicode="4" glyph-name="four" horiz-adv-x="553" d="M19 218L377 667H439V284H513V183H439V19H523V0H228V19H316V183H19V218V218ZM101 284H316V553L101 284V284Z" />
<glyph unicode="5" glyph-name="five" horiz-adv-x="553" d="M93 662Q113 666 127 668T154 673Q165 674 176 674T203 675Q214 675 226 675T250 673Q275 671 298 668T335 661Q339 660 343 659T350 657Q368 653 386 649T422 645Q433 645 440 650T453 667Q454 668
454 669T456 673L469 666Q463 599 428 570T316 541Q294 541 272 544T228 552Q206 556 184 559T139 563Q135 563 133 563T128 561Q127 560 126 559T124 555Q123 511 122 485T116 434Q115 424 113 414T108 393Q116 398 124 402T140 410Q163 421 187 425T243 430Q359
430 437 370T516 221Q516 124 435 58T236 -9Q142 -9 83 31T24 139Q24 172 44 197T92 222Q123 222 141 204T160 155Q160 154 160 154T160 152Q159 129 142 110T102 90Q90 90 86 87T82 75Q82 49 123 30T219 10Q296 10 334 58T373 203Q373 301 333 354T217 407Q168
407 136 387T86 323L70 328Q88 380 97 436T107 549Q107 560 107 570T105 589Q104 604 101 621T93 662V662Z" />
<glyph unicode="6" glyph-name="six" horiz-adv-x="553" d="M478 658Q321 651 258 578T184 352Q210 390 241 405T323 421Q406 421 462 364T519 220Q519 125 452 59T288 -7Q181 -7 111 63T40 243Q40 419 171 547T478 675V658V658ZM385 203Q385 207 385 211T385
220Q384 225 384 229T384 238Q384 243 384 248T384 258Q382 308 366 350T287 392Q233 392 210 354T181 270Q179 256 178 241T177 213Q177 205 177 198T178 182Q179 154 182 128T189 84Q198 48 223 29T287 10Q325 10 348 29T378 83Q381 103 382 123T385 163Q385
173 385 183T385 203V203Z" />
<glyph unicode="7" glyph-name="seven" horiz-adv-x="553" d="M46 470Q54 500 58 522T67 564Q69 580 71 595T75 631Q76 639 76 648T78 667H538V636Q521 608 489 555T423 439Q416 427 409 415T396 390Q355 313 324 244T293 142Q293 130 301 126T322 120Q325 119
328 119T335 117Q350 113 363 102T376 61Q376 33 358 13T314 -7Q282 -7 262 13T242 68Q242 91 249 119T272 181Q273 184 274 186T277 192Q316 275 352 361T405 540H81L65 470H46V470Z" />
<glyph unicode="8" glyph-name="eight" horiz-adv-x="553" d="M240 357Q226 361 210 366T177 378Q133 396 97 427T60 506Q60 583 119 629T277 675Q371 675 431 632T492 522Q492 459 448 424T351 371Q341 368 331 365T311 359Q415 337 467 291T519 174Q519 98 449
46T276 -7Q170 -7 102 42T34 171Q34 246 87 286T204 346Q213 349 222 352T240 357V357ZM276 347Q203 322 186 279T168 162Q168 77 190 43T270 9Q331 9 359 47T387 171Q387 240 367 283T276 347V347ZM274 367Q331 385 349 413T367 511Q367 595 347 626T273 657Q221
657 204 629T186 518Q186 438 201 411T271 368Q272 368 272 368T274 367V367Z" />
<glyph unicode="9" glyph-name="nine" horiz-adv-x="553" d="M74 9Q234 18 295 91T369 315Q342 277 311 262T230 247Q147 247 91 304T34 447Q34 542 101 608T264 675Q372 675 442 604T513 424Q513 345 488 278T408 148Q341 70 258 35T74 -7V9V9ZM168 464Q168 460
168 455T169 446Q169 441 169 437T169 427Q169 422 169 417T169 407Q171 358 187 317T266 275Q319 275 342 313T372 397Q374 411 375 425T376 453Q376 460 376 467T375 480Q374 510 371 537T364 583Q355 619 330 638T265 657Q228 657 205 639T175 584Q172 565 171
545T168 504Q168 494 168 484T168 464V464Z" />
<glyph unicode=":" glyph-name="colon" horiz-adv-x="273" d="M137 144Q169 144 191 122T213 68Q213 36 191 14T137 -8Q105 -8 83 14T60 68Q60 100 82 122T137 144V144ZM137 423Q169 423 191 401T213 346Q213 315 191 293T137 270Q105 270 83 292T60 346Q60 378
82 400T137 423V423Z" />
<glyph unicode=";" glyph-name="semicolon" horiz-adv-x="273" d="M68 -139Q128 -122 158 -84T188 15Q177 2 163 -3T132 -9Q101 -9 79 13T56 66Q56 97 78 119T130 142Q170 142 193 113T216 34Q216 -39 178 -89T70 -155L68 -139V-139ZM138 423Q170 423 192 401T214
346Q214 315 192 293T138 270Q106 270 84 292T61 346Q61 378 83 400T138 423V423Z" />
<glyph unicode="&lt;" glyph-name="less" horiz-adv-x="500" d="M466 607V486L162 337L466 187V67L33 286V388L466 607V607Z" />
<glyph unicode="=" glyph-name="equal" horiz-adv-x="553" d="M510 292V260H43V292H510V292ZM510 409V377H43V409H510V409Z" />
<glyph unicode="&gt;" glyph-name="greater" horiz-adv-x="500" d="M34 67V188L338 337L35 486L34 607L467 388V285L34 67V67Z" />
<glyph unicode="?" glyph-name="question" horiz-adv-x="432" d="M157 133Q186 133 207 112T228 62Q228 33 207 13T157 -8Q127 -8 106 12T85 62Q86 91 106 112T157 133V133ZM143 168V346Q143 371 161 389T204 424Q212 429 219 433T234 443Q268 466 296 494T325
569Q325 608 288 635T196 663Q159 663 131 649T103 614Q103 610 105 607T112 604Q112 604 112 604T114 605Q115 605 115 605T117 605Q119 605 121 605T127 604Q151 601 171 585T191 542Q191 511 171 492T121 472Q84 472 61 496T38 560Q38 613 87 646T214 680Q298
680 348 634T399 510Q399 455 373 405T302 328L205 269Q184 256 174 234T162 186Q161 182 161 178T161 168H143V168Z" />
<glyph unicode="@" glyph-name="at" horiz-adv-x="750" d="M593 517L507 214Q504 206 503 199T502 186Q502 173 507 166T522 159Q529 159 541 165T568 181Q569 182 570 183T573 185Q608 212 634 254T670 342Q673 355 674 368T676 393Q676 506 595 581T391 657Q261
657 168 562T75 332Q75 199 164 105T379 10Q473 10 554 63T662 195H693L689 186Q655 97 569 42T378 -13Q243 -13 147 87T50 330Q50 475 150 578T392 682Q524 682 612 600T701 396Q701 326 672 266T588 166Q584 163 580 161T572 155Q553 143 534 137T498 131Q467
131 446 148T423 193Q401 165 372 147T304 128Q249 128 215 170T181 279Q181 289 182 299T185 319Q201 401 268 469T420 538Q446 538 462 528T493 491Q494 490 494 489T496 485L508 517H593V517ZM439 278L481 425Q482 426 482 427T482 430Q482 470 466 492T420
514Q380 514 350 482T296 385Q278 331 269 290T260 219Q260 187 273 169T311 151Q316 151 321 152T333 154Q366 164 396 198T439 278V278Z" />
<glyph unicode="A" glyph-name="A" horiz-adv-x="613" d="M313 684L566 19H630V0H329V19H405L337 211H153L113 100Q108 86 105 73T102 49Q102 33 116 26T160 19H176V0H-16V19Q30 19 51 34T88 94L298 684H313V684ZM161 232H330L245 471L161 232V232Z" />
<glyph unicode="B" glyph-name="B" horiz-adv-x="659" d="M404 358Q413 358 422 357T441 355Q509 344 565 302T622 184Q622 96 543 48T317 0H22V19H100V647H22V667H220L287 668Q312 668 342 667T405 660Q473 649 529 616T586 509Q586 449 543 417T448 369Q437
365 426 363T404 358V358ZM244 342V19Q336 19 400 42T464 177Q464 269 423 305T293 342H244V342ZM244 647V360Q325 360 383 379T442 496Q442 602 388 624T244 647V647Z" />
<glyph unicode="C" glyph-name="C" horiz-adv-x="653" d="M604 234Q603 192 603 159T603 102Q603 99 603 96T603 90Q603 72 603 52T604 0H588Q585 7 582 12T577 22Q571 32 564 36T548 40Q543 40 525 32T481 12Q458 3 431 -4T377 -14Q373 -15 369 -15T361 -15Q222
-15 127 83T32 325Q32 469 132 576T365 684Q395 684 422 676T473 659Q496 650 515 642T550 634Q561 634 567 638T579 652Q579 653 579 654T581 657Q581 658 581 658T581 659Q582 660 582 661T583 663H597L599 440H580Q578 451 575 462T568 484Q543 552 491 609T361
666Q275 666 235 582T194 316Q194 290 195 257T202 190Q212 120 245 61T354 2Q439 2 505 67T587 234H604V234Z" />
<glyph unicode="D" glyph-name="D" horiz-adv-x="751" d="M22 667H347Q516 667 617 578T719 339Q719 254 685 180T590 61Q545 28 487 14T338 0H22V19H100V647H22V667V667ZM248 647V19H323Q483 19 522 111T561 338Q561 460 528 553T345 647H248V647Z" />
<glyph unicode="E" glyph-name="E" horiz-adv-x="637" d="M610 0H22V19H100V647H22V667H582L585 477H566Q564 557 518 602T395 647H247V361Q337 361 380 378T424 495H444V194H426Q426 259 393 300T290 341H247V19H389Q481 19 536 59T592 199Q592 201 592 203T592
207Q592 209 592 211T591 215H610V0V0Z" />
<glyph unicode="F" glyph-name="F" horiz-adv-x="566" d="M411 195Q411 265 383 300T281 336H219V19H302V0H-8V19H70V647H-8V667H559L561 480H543Q543 556 489 601T361 647H219V355Q311 355 361 372T411 495H430V195H411V195Z" />
<glyph unicode="G" glyph-name="G" horiz-adv-x="688" d="M598 667V444H579Q579 449 579 454T578 465Q568 540 505 602T366 664Q294 664 254 619T203 479Q200 452 198 420T193 355Q193 338 193 322T192 290Q192 272 192 254T194 217Q199 137 232 71T365 4Q424
4 454 31T485 111V208H414V228H684V208H628V68Q586 32 529 11T410 -13Q404 -14 398 -14T386 -14Q229 -14 131 81T32 329Q32 367 38 402T54 467Q89 559 171 621T353 683Q392 683 422 675T476 656Q500 646 517 638T549 629Q563 629 570 638T578 667H598V667Z" />
<glyph unicode="H" glyph-name="H" horiz-adv-x="769" d="M249 342V19H327V0H22V19H100V647H22V667H327V647H249V362H521V647H443V667H747V647H669V19H747V0H443V19H521V342H249V342Z" />
<glyph unicode="I" glyph-name="I" horiz-adv-x="347" d="M100 19V647H22V667H325V647H247V19H325V0H22V19H100V19Z" />
<glyph unicode="J" glyph-name="J" horiz-adv-x="421" d="M334 647V128Q334 76 328 46T302 -10Q299 -14 297 -17T291 -24Q265 -55 227 -71T142 -87Q81 -87 42 -60T3 11Q3 40 21 61T64 83Q91 83 109 66T127 24Q127 4 119 -7T100 -26Q91 -32 84 -35T74 -42Q73 -42
73 -42T73 -44Q73 -55 93 -62T139 -69Q180 -69 199 -49T219 12Q219 24 218 34T213 55Q211 64 209 73T203 92Q197 114 192 141T187 210V647H96V667H412V647H334V647Z" />
<glyph unicode="K" glyph-name="K" horiz-adv-x="699" d="M364 445L640 19H709V0H393V19H464L260 345L246 332V19H324V0H22V19H100V647H22V667H324V647H246V358L444 553Q476 584 489 602T503 630Q503 639 495 643T467 647H434V667H682V647Q627 647 580 628T491
569L364 445V445Z" />
<glyph unicode="L" glyph-name="L" horiz-adv-x="625" d="M609 228V0H22V19H100V647H22V667H331V647H248V19H370Q481 19 535 67T589 228H609V228Z" />
<glyph unicode="M" glyph-name="M" horiz-adv-x="866" d="M348 0L116 640V149Q116 63 128 41T189 18Q191 18 192 18T196 18Q198 18 199 18T203 19V0H10V19H24Q68 19 80 43T93 150V647H15V667H264L434 200L610 667H844V647H766V19H844V0H541V19H619V626L383 0H348V0Z" />
<glyph unicode="N" glyph-name="N" horiz-adv-x="715" d="M592 -13L116 564V111Q116 55 129 37T200 19V0H11V19Q65 19 79 38T93 111V592L52 647H11V666H214L600 209L599 507L598 564Q597 617 585 632T517 647V666H695V647H685Q645 647 634 625T622 525L621 428L622
327V-13H592V-13Z" />
<glyph unicode="O" glyph-name="O" horiz-adv-x="697" d="M666 337Q666 335 666 333T666 328Q663 200 574 94T349 -13Q220 -13 126 90T31 336Q31 470 120 576T350 682Q482 682 572 584T666 337V337ZM504 337Q504 353 504 374T502 417Q501 440 500 462T498 500Q492
572 461 618T349 664Q284 664 247 628T203 523Q200 499 199 465T196 394Q195 377 195 361T195 328Q195 243 203 178T225 77Q239 45 273 25T349 5Q397 5 432 27T480 86Q489 113 494 147T501 216Q503 248 503 279T504 337V337Z" />
<glyph unicode="P" glyph-name="P" horiz-adv-x="646" d="M247 304V19H340V0H22V19H100V647H22V667Q60 667 97 667T172 666Q192 667 212 667T253 669Q260 669 267 669T281 670Q308 671 335 672T389 673Q499 673 566 625T634 499Q634 410 561 355T369 299Q354 299
339 299T308 301Q300 301 293 301T278 302Q270 303 263 303T247 304V304ZM247 322Q259 321 267 321T283 319Q286 319 289 319T295 319Q391 319 434 358T477 485Q477 580 444 617T324 655Q314 655 305 655T286 654Q276 653 267 652T247 650V322V322Z" />
<glyph unicode="Q" glyph-name="Q" horiz-adv-x="697" d="M414 -6V-93Q414 -136 434 -158T493 -181Q496 -181 499 -181T505 -181Q522 -179 539 -174T578 -159L585 -178Q582 -179 579 -180T571 -183Q544 -194 516 -199T456 -205Q374 -205 329 -176T283 -94L282
-6Q270 -1 259 2T239 9Q222 16 209 23T183 40Q176 45 169 50T154 63Q94 115 63 186T31 336Q31 470 120 576T350 682Q482 682 574 582T666 337Q666 220 599 122T414 -5V-6ZM504 337Q504 352 504 373T502 416Q501 440 500 462T498 499Q492 572 461 617T349 663Q284
663 247 627T203 522Q200 499 199 464T196 392Q195 376 195 360T195 328Q195 243 203 178T225 77Q239 45 273 25T349 5Q397 5 432 26T480 86Q489 113 494 146T501 216Q503 248 503 279T504 337V337Z" />
<glyph unicode="R" glyph-name="R" horiz-adv-x="715" d="M702 21Q684 6 658 -2T602 -13Q599 -13 596 -13T589 -13Q526 -13 496 23T462 136Q457 234 434 287T295 341H245V19H327V0H22V19H100V647H22V667Q60 667 98 667T175 669Q213 670 251 670T328 671Q352 671
380 670T438 663Q506 652 563 617T621 505Q621 443 575 411T474 364Q456 360 438 357T404 352Q461 347 499 334T563 295Q566 292 568 290T574 284Q594 261 601 231T612 134Q612 130 612 125T613 113Q613 106 613 99T614 85Q615 61 624 41T658 21Q660 21 661 21T665
21Q671 22 678 25T694 34L702 21V21ZM245 360Q342 360 403 380T464 515Q464 592 432 623T319 655Q304 655 286 654T245 650V360V360Z" />
<glyph unicode="S" glyph-name="S" horiz-adv-x="582" d="M501 668V453H481Q466 533 413 598T270 664Q212 664 172 632T132 553Q132 504 163 480T274 438Q287 435 299 433T325 428Q337 425 349 423T375 418Q455 398 500 346T545 210Q545 111 480 48T314 -15Q311
-15 309 -15T304 -15Q270 -13 238 -5T178 15Q149 26 128 35T100 45Q88 45 84 39T77 25Q77 24 77 24T77 23Q76 19 74 15T69 8Q69 7 69 7T69 5Q68 4 68 3T68 0H51L46 252H65Q68 241 71 230T78 207Q105 131 162 68T307 4Q373 4 414 40T455 135Q455 207 399 231T272
271Q269 272 266 272T260 274Q217 284 176 296T107 334Q78 359 64 394T47 466Q46 471 46 476T46 487Q46 572 107 628T260 684Q295 684 324 676T379 657Q404 647 423 639T457 630Q471 630 476 638T482 668H501V668Z" />
<glyph unicode="T" glyph-name="T" horiz-adv-x="650" d="M636 667L640 458H621Q619 497 608 529T575 589Q542 633 496 640T400 647V19H485V0H166V19H252V647H222Q134 647 84 598T30 458H10L17 667H636V667Z" />
<glyph unicode="U" glyph-name="U" horiz-adv-x="709" d="M695 667V647H688Q651 645 639 623T626 534V274Q626 183 612 132T562 46Q528 12 481 -3T368 -19Q241 -19 164 43T87 238V647H9V667H316V647H238V259Q238 186 242 154T261 98Q263 94 265 91T270 84Q293
52 326 36T405 20Q465 20 511 43T578 108Q579 111 580 114T583 120Q595 146 599 179T603 279V543Q603 605 589 626T511 648V667H695V667Z" />
<glyph unicode="V" glyph-name="V" horiz-adv-x="598" d="M293 -20L52 648H-17V667H296V648H208L379 188L496 509Q497 513 498 516T501 523Q510 550 516 574T522 607Q522 631 506 639T471 648Q466 648 461 648T451 648V667H627V648L622 647Q594 646 577 631T546
577L326 -20H293V-20Z" />
<glyph unicode="W" glyph-name="W" horiz-adv-x="950" d="M641 -23L476 427L314 -23H289L46 647H-17V667H261V647H203L368 186L465 457L395 647H320V667H632V647H548L716 184L817 470L847 558Q852 573 855 586T858 607Q858 631 842 638T807 647Q802 647 797 647T787
647V667H959V647Q922 647 901 617T868 552Q862 534 857 517T847 487L665 -23H641V-23Z" />
<glyph unicode="X" glyph-name="X" horiz-adv-x="652" d="M362 431L608 19H668V0H357V19H430L271 296L173 147Q145 104 133 81T121 47Q121 34 132 27T167 19H199V0H-17V19L-11 20Q40 20 71 52T129 123Q132 127 134 130T139 138L257 314L61 647H-5V667H302V647H230L350
451L424 563Q438 585 445 601T453 626Q453 637 445 642T419 647H393V667H578V647Q538 647 510 627T459 574L362 431V431Z" />
<glyph unicode="Y" glyph-name="Y" horiz-adv-x="598" d="M388 272V19H466V0H162V19H240V233L54 647H-20V667H286V647H217L373 292L486 555Q496 576 499 588T503 609Q503 632 490 639T434 647V667H618V647H612Q586 647 571 640T541 611Q535 602 529 590T515 561L388
272V272Z" />
<glyph unicode="Z" glyph-name="Z" horiz-adv-x="635" d="M615 228L604 0H20V15L432 647H264Q172 647 127 597T73 458H53L67 667H608V653L196 19H345Q417 19 466 35T546 84Q547 86 548 87T551 90Q571 114 580 143T596 228H615V228Z" />
<glyph unicode="[" glyph-name="bracketleft" horiz-adv-x="263" d="M234 -216V-249H53V687H234V654H92V-216H234V-216Z" />
<glyph unicode="\" glyph-name="backslash" horiz-adv-x="376" d="M381 -249H339L67 687H109L381 -249V-249Z" />
<glyph unicode="]" glyph-name="bracketright" horiz-adv-x="263" d="M28 654V687H209V-249H28V-216H171V654H28V654Z" />
<glyph unicode="^" glyph-name="asciicircum" horiz-adv-x="500" d="M130 360H21L182 670H317L478 360H368L249 587L130 360V360Z" />
<glyph unicode="_" glyph-name="underscore" horiz-adv-x="500" d="M0 -63H500V-137H0V-63V-63Z" />
<glyph unicode="`" glyph-name="grave" horiz-adv-x="500" d="M271 483L158 578Q135 598 125 612T114 639Q114 653 127 663T159 674Q173 674 184 669T205 652Q213 644 221 630T238 597L292 483H271V483Z" />
<glyph unicode="a" glyph-name="a" horiz-adv-x="522" d="M527 84Q522 41 495 17T423 -8Q389 -8 367 6T332 51Q311 21 277 7T195 -8Q115 -8 70 23T24 112Q24 179 78 206T198 242Q229 246 259 247T313 249Q318 249 321 249T329 249L328 316Q327 377 307 398T231
419Q227 419 213 418T181 414Q163 410 147 404T131 387Q131 387 131 387T131 386Q133 383 140 380T157 371Q167 365 175 355T183 328Q183 303 166 286T124 269Q96 269 79 287T62 335Q62 380 112 408T244 436Q251 436 257 436T271 435Q308 432 343 422T404 396Q431
380 441 356T452 288V85Q452 58 458 47T479 35Q491 35 499 48T512 87L527 84V84ZM329 233Q265 232 235 228T188 213Q170 203 163 183T155 124Q155 69 174 44T234 19Q281 19 305 45T329 122V233V233Z" />
<glyph unicode="b" glyph-name="b" horiz-adv-x="585" d="M197 358Q215 394 249 414T329 434Q426 434 491 370T556 209Q556 121 491 58T335 -6Q286 -6 252 14T197 74V-9Q189 -6 182 -5T168 -2Q159 0 149 0T126 0H10V18H70V650H10V667H107Q146 667 166 674T197
699V358V358ZM416 184V249Q416 337 393 374T317 412Q266 412 232 374T197 278V156Q197 91 231 53T322 15Q375 15 395 51T416 184V184Z" />
<glyph unicode="c" glyph-name="c" horiz-adv-x="466" d="M464 141Q451 66 402 28T275 -10Q171 -10 100 53T28 209Q28 300 102 367T275 435Q354 435 404 404T455 325Q455 296 437 277T390 258Q361 258 342 276T323 323Q323 326 323 328T324 334Q326 346 332 357T347
373Q348 373 348 373T349 375Q353 377 356 380T360 389Q360 398 344 405T309 416Q302 417 295 418T282 419Q242 419 216 404T181 362Q175 341 173 312T170 226Q170 145 175 103T194 42Q205 26 226 18T278 9Q346 9 388 42T446 141H464V141Z" />
<glyph unicode="d" glyph-name="d" horiz-adv-x="578" d="M379 360V650H312V667H417Q458 667 476 673T508 699V18H568V0H453Q441 0 430 0T408 -3Q404 -4 400 -4T391 -6Q388 -6 385 -7T379 -8V71Q361 33 327 13T246 -7Q158 -7 93 57T28 207Q28 304 92 369T251 434Q294
434 327 415T379 360V360ZM379 156V276Q379 338 348 375T262 412Q211 412 190 375T168 247V183Q168 89 188 52T261 15Q316 15 347 52T379 156V156Z" />
<glyph unicode="e" glyph-name="e" horiz-adv-x="485" d="M465 157Q448 76 393 33T254 -10Q157 -10 93 51T28 207Q28 302 93 367T253 433Q334 433 395 373T459 229H169Q170 185 172 150T177 92Q183 55 209 33T275 11Q337 11 383 50T447 157H465V157ZM169 248H317V265Q317
269 317 273T317 281Q317 285 317 289T316 298Q316 303 316 308T316 319Q315 356 303 386T246 417Q206 417 190 397T171 329Q170 309 170 289T169 248V248Z" />
<glyph unicode="f" glyph-name="f" horiz-adv-x="298" d="M267 403H205V17H267V0H17V17H77V403H17V420H77Q77 464 80 506T104 587Q123 625 157 653T236 682Q277 682 306 658T335 598Q335 567 319 549T274 531Q248 531 232 547T215 590Q215 614 228 629T265 645Q269
645 271 646T273 651Q273 658 264 663T240 668Q212 668 195 647T177 590Q177 585 177 580T179 568Q180 561 182 554T186 542Q191 530 193 519T198 497Q200 485 201 473T203 449Q203 442 203 435T205 420H267V403V403Z" />
<glyph unicode="g" glyph-name="g" horiz-adv-x="498" d="M125 173Q82 196 64 224T46 291Q46 352 99 392T231 432Q244 432 256 431T281 426Q299 422 317 415T357 395Q373 418 391 428T432 439Q461 439 478 424T496 383Q496 364 483 351T450 337Q429 337 416 351T402
386Q402 400 408 410T424 424Q405 420 393 410T370 383Q372 381 374 379T378 373Q394 353 401 333T408 287Q408 231 353 192T220 152Q210 152 203 152T189 154Q181 155 173 157T153 162Q146 162 137 161T118 158Q98 154 82 144T66 113Q66 99 83 92T136 85Q151 85
166 85T197 86Q212 86 227 86T257 87Q334 87 389 71T445 -42Q445 -134 380 -192T210 -250Q125 -250 68 -213T10 -120Q10 -115 11 -111T13 -102Q20 -79 41 -59T92 -29Q63 -19 46 6T29 67Q29 112 52 137T125 173V173ZM108 -34Q89 -52 79 -72T68 -115Q68 -167 109
-198T219 -230Q296 -230 353 -189T410 -92Q410 -57 382 -45T270 -33Q259 -33 248 -33T226 -34Q214 -34 203 -34T181 -34Q172 -34 163 -34T145 -34Q135 -33 126 -33T108 -33V-34ZM296 293V341Q295 385 281 401T229 418Q192 418 176 402T158 346Q158 333 158 321T157
296Q156 283 156 271T156 245Q156 205 172 187T226 168Q265 168 279 185T295 248L296 293V293Z" />
<glyph unicode="h" glyph-name="h" horiz-adv-x="586" d="M198 341Q211 374 255 400T349 431Q354 431 359 431T369 432Q437 432 476 396T516 297V17H576V0H330V17H387V341Q387 368 370 382T320 396Q268 396 233 358T198 261V17H255V0H10V17H70V649H10V667H107Q148
667 166 673T198 698V341V341Z" />
<glyph unicode="i" glyph-name="i" horiz-adv-x="276" d="M76 403H16V420H115Q156 420 174 426T206 450V17H266V0H16V17H76V403V403ZM136 673Q168 673 190 651T212 597Q212 566 190 544T136 521Q105 521 83 543T60 597Q60 629 82 651T136 673V673Z" />
<glyph unicode="j" glyph-name="j" horiz-adv-x="250" d="M200 450V-90Q200 -173 173 -210T86 -248Q52 -248 32 -230T11 -182Q11 -160 27 -145T66 -129Q91 -129 106 -144T122 -184Q122 -191 120 -196T115 -206Q113 -209 112 -211T110 -215Q109 -217 108 -219T107
-225Q107 -227 108 -227T113 -228Q130 -228 142 -215T159 -186Q159 -183 159 -181T160 -175Q160 -167 158 -159T150 -144Q144 -133 135 -122T115 -96Q98 -73 84 -40T70 43V403H10V420H110Q148 420 168 427T200 450V450ZM130 674Q162 674 184 652T206 598Q206 567
184 545T130 522Q99 522 77 544T54 598Q54 630 76 652T130 674V674Z" />
<glyph unicode="k" glyph-name="k" horiz-adv-x="536" d="M310 279L487 17H543V0H281V17H330L217 200L196 181V17H244V0H10V17H70V649H10V667H105Q149 667 168 673T196 698V206L335 325Q337 327 339 329T343 333Q355 344 362 355T369 375Q369 390 362 396T336
403H303V420H521V403Q467 403 428 377T353 318Q349 314 346 311T339 305Q332 298 325 292T310 279V279Z" />
<glyph unicode="l" glyph-name="l" horiz-adv-x="269" d="M70 649H10V667H109Q150 667 168 673T199 698V17H259V0H10V17H70V649V649Z" />
<glyph unicode="m" glyph-name="m" horiz-adv-x="855" d="M77 403H17V420H116Q154 420 174 427T206 450V333Q231 380 272 406T359 433Q412 433 444 410T494 333Q516 380 557 406T647 432Q721 432 753 392T785 284V17H845V0H599V17H656V333Q656 368 644 383T604
398Q558 398 526 356T494 250V17H550V0H309V17H366V333Q366 365 354 381T315 397Q273 397 240 356T206 263V17H263V0H17V17H77V403V403Z" />
<glyph unicode="n" glyph-name="n" horiz-adv-x="591" d="M207 338Q230 383 274 407T376 431Q435 431 478 398T521 303V17H581V0H331V17H391V338Q391 367 375 383T328 399Q280 399 244 359T207 264V17H267V0H17V17H77V403H17V420H116Q156 420 175 426T207 450V338V338Z" />
<glyph unicode="o" glyph-name="o" horiz-adv-x="534" d="M266 433Q364 433 435 369T506 214Q506 121 437 56T269 -9Q169 -9 99 54T28 209Q28 302 97 367T266 433V433ZM361 119V305Q361 364 339 390T268 417Q221 417 198 390T175 305V118Q175 62 198 35T268 7Q317
7 339 33T361 119V119Z" />
<glyph unicode="p" glyph-name="p" horiz-adv-x="580" d="M199 358Q201 362 203 365T208 372Q233 407 260 420T332 434Q424 434 488 369T552 212Q552 119 488 55T332 -9Q285 -9 253 9T199 66V-232H264V-249H10V-232H70V403H10V420H107Q127 420 140 421T166 429Q173
432 181 437T199 450V358V358ZM411 180V265Q411 342 389 377T319 412Q315 412 311 412T304 411Q286 408 270 401T240 382Q216 361 208 335T199 253V180Q199 122 205 96T232 49Q246 35 264 26T301 13Q305 13 308 13T316 12Q368 12 389 50T411 180V180Z" />
<glyph unicode="q" glyph-name="q" horiz-adv-x="580" d="M381 358V450Q389 443 396 438T410 429Q424 423 438 422T473 420H570V403H510V-232H570V-249H316V-232H381V66Q359 27 327 9T248 -9Q156 -9 92 55T28 212Q28 304 92 369T248 434Q292 434 319 421T372 372Q374
369 376 366T381 358V358ZM381 180V253Q381 308 373 335T340 382Q328 392 314 399T284 410Q278 411 273 411T261 412Q212 412 190 377T168 265V180Q168 89 190 51T264 12Q269 12 273 12T282 14Q301 17 318 26T348 49Q349 50 350 51T352 53Q370 73 375 99T381 180V180Z"
/>
<glyph unicode="r" glyph-name="r" horiz-adv-x="396" d="M206 450V357Q223 393 254 414T322 435Q357 435 376 415T396 360Q396 329 376 308T325 287Q299 287 281 306T262 353Q262 367 265 377T277 397Q278 399 279 400T282 403Q242 392 224 355T206 245V17H282V0H17V17H77V403H17V420H115Q154
420 174 427T206 450V450Z" />
<glyph unicode="s" glyph-name="s" horiz-adv-x="408" d="M347 430L354 297H339Q320 352 279 384T185 417Q142 417 113 397T83 345Q83 320 102 307T167 288Q184 286 202 284T240 279Q294 270 339 245T385 155Q385 83 338 38T216 -7Q198 -7 183 -4T152 3Q137 7
124 10T96 14Q87 14 80 13T67 8Q63 5 59 2T49 -6L37 -7L35 151H49Q73 97 116 53T223 9Q267 9 296 31T326 88Q326 118 308 130T233 149Q219 151 205 152T175 157Q121 166 76 192T31 283Q31 348 77 391T191 434Q209 434 225 431T255 424Q270 420 283 417T307 413Q319
413 324 416T334 430H347V430Z" />
<glyph unicode="t" glyph-name="t" horiz-adv-x="305" d="M287 420V403H198V89Q198 59 207 45T234 30Q240 30 245 31T255 35Q262 40 269 48T287 69L298 61Q277 27 248 10T183 -8Q129 -8 100 24T70 114V403H19V420Q83 420 126 470T180 581Q182 591 183 600T184
619H198V420H287V420Z" />
<glyph unicode="u" glyph-name="u" horiz-adv-x="582" d="M383 80Q363 35 324 13T223 -9Q173 -9 134 12T80 70Q75 84 73 106T70 166V403H10V420H109Q149 420 169 427T200 450V108Q200 56 214 37T265 17Q307 17 340 50T381 123Q382 128 382 133T383 144V403H323V420H421Q461
420 481 427T512 450V17H572V0H383V80V80Z" />
<glyph unicode="v" glyph-name="v" horiz-adv-x="458" d="M486 420V403H479Q451 403 433 390T400 344L238 -12H213L32 403H-28V420H238V403H176L290 140L368 315Q369 318 370 321T373 327Q376 337 378 345T380 361Q380 384 369 393T331 403H310V420H486V420Z" />
<glyph unicode="w" glyph-name="w" horiz-adv-x="706" d="M734 420V402Q702 402 686 388T655 346Q654 344 653 341T650 335L490 -15H466L344 266L217 -15H193L11 402H-28V420H217V402H154L268 139L336 287L285 402H244V420H490V402H429L542 139L615 301Q623 318
627 334T631 363Q631 384 620 393T582 402H563V420H734V420Z" />
<glyph unicode="x" glyph-name="x" horiz-adv-x="484" d="M456 420V403Q424 403 399 389T353 349L285 265L450 17H497V0H222V17H285L189 158Q184 151 176 140T157 116Q154 112 151 108T145 100Q135 85 128 71T120 47Q120 32 130 25T163 17H189V0H-13V17Q24 17
56 39T112 90Q114 91 115 92T117 95L183 175L33 403H-13V420H243V403H189L273 279Q278 286 286 296T304 319Q306 321 307 323T311 329Q323 345 331 359T340 381Q340 391 331 397T304 403H280V420H456V420Z" />
<glyph unicode="y" glyph-name="y" horiz-adv-x="459" d="M487 420V403Q461 401 446 393T417 365Q412 357 407 348T397 328L293 96Q276 60 267 38T251 -3Q249 -10 248 -16T244 -30Q243 -35 242 -39T239 -49Q238 -52 238 -55T236 -61Q233 -76 230 -93T222 -127Q210
-173 187 -211T114 -249Q80 -249 57 -229T33 -179Q33 -151 52 -132T101 -112Q129 -112 148 -132T167 -180Q167 -185 166 -190T163 -203L161 -208Q161 -208 161 -208T163 -208Q165 -208 166 -207T172 -201Q189 -178 199 -149T215 -90Q218 -73 220 -57T223 -24L30
403H-28V420H246V403H178L293 145L374 323Q376 327 377 331T379 339Q381 345 382 351T383 361Q383 388 366 395T326 403Q323 403 320 403T313 403V420H487V420Z" />
<glyph unicode="z" glyph-name="z" horiz-adv-x="441" d="M421 193V0H16V7L281 403H221Q157 403 106 357T55 244H41V420H436V413L171 17H230Q306 17 356 67T407 193H421V193Z" />
<glyph unicode="{" glyph-name="braceleft" horiz-adv-x="263" d="M85 218Q115 206 127 181T140 108V-125Q140 -173 161 -200T233 -227V-255Q151 -254 128 -217T104 -102V113Q104 157 92 177T45 210V227Q78 238 91 259T104 324V560Q104 634 133 663T233 692V665Q182
661 161 640T140 568V325Q140 279 129 256T85 218V218Z" />
<glyph unicode="|" glyph-name="bar" horiz-adv-x="500" d="M189 666H311V-167H189V666V666Z" />
<glyph unicode="}" glyph-name="braceright" horiz-adv-x="263" d="M178 218Q147 232 135 255T122 325V568Q122 618 102 639T30 665V692Q98 692 128 669T159 560V324Q159 281 172 260T218 227V210Q184 197 172 177T159 113V-103Q159 -179 138 -216T30 -254V-228Q81
-227 101 -200T122 -124V108Q122 155 135 180T178 218V218Z" />
<glyph unicode="~" glyph-name="asciitilde" horiz-adv-x="500" d="M70 245L9 295Q29 343 63 382T156 422Q182 422 206 412T255 390Q279 378 302 368T349 358Q377 358 395 377T427 419Q428 420 428 421T430 424L491 374Q490 373 490 372T488 368Q467 323 433 286T343
248Q316 248 292 258T245 279Q222 291 200 300T152 312Q124 312 106 294T74 253Q73 251 72 249T70 245V245Z" />
</font>
</defs>
</svg>
