<?xml version="1.0" standalone="no"?>
<!DOCTYPE svg PUBLIC "-//W3C//DTD SVG 1.1//EN" "http://www.w3.org/Graphics/SVG/1.1/DTD/svg11.dtd" >
<svg xmlns="http://www.w3.org/2000/svg" xmlns:xlink="http://www.w3.org/1999/xlink" version="1.1">
<metadata>
Created by FontForge 20170731 at Mon Apr  1 20:00:45 2002
 By Aleksey,,,
Copyright (c) 1989, 1990, 1999, 2001 Adobe Systems Incorporated.  All Rights Reserved.
</metadata>
<defs>
<font id="BodoniStd-PosterItalic" horiz-adv-x="667" >
  <font-face 
    font-family="Bodoni Std Poster"
    font-weight="900"
    font-style="italic"
    font-stretch="normal"
    units-per-em="1000"
    panose-1="2 7 10 4 8 9 5 9 2 4"
    ascent="698"
    descent="-302"
    x-height="487"
    cap-height="693"
    bbox="-171 -250 1011 948"
    underline-thickness="50"
    underline-position="-200"
    slope="-10.3"
    unicode-range="U+0020-FB02"
  />
<missing-glyph horiz-adv-x="561" 
d="M61 0v700h500v-700h-500zM311 395l170 255h-340zM341 350l170 -255v510zM141 50h340l-170 255zM111 605v-510l170 255z" />
    <glyph glyph-name="fi" unicode="fi" horiz-adv-x="722" 
d="M564 704q58 0 87 -25t29 -65q0 -35 -31.5 -60.5t-72.5 -25.5q-52 0 -84.5 21.5t-32.5 63.5t28 66.5t77 24.5zM686 185h24q-24 -117 -69.5 -156.5t-124.5 -39.5q-61 0 -95 26.5t-38 64t1 79.5l52 302h67q55 0 165 12l-60 -335q-7 -30 -5 -45t5.5 -18.5t11.5 -3.5
q38 0 66 114zM27 461h73q8 51 20 90.5t33.5 76t56 56.5t81.5 20q71 0 106 -30t35 -77q0 -23 -20.5 -46t-57.5 -23q-40 0 -58.5 22t-18.5 51q0 25 10.5 38.5t21 19.5t10.5 13t-14 7q-34 0 -53.5 -29t-19.5 -70q0 -61 52 -91.5t119 -27.5l-5 -29h-72q-9 -52 -29 -157
t-34 -187.5t-22 -157.5q-92 5 -118 5q-14 0 -124 -5l93 502h-70z" />
    <glyph glyph-name="fl" unicode="fl" horiz-adv-x="722" 
d="M480 693q110 0 229 11l-106 -604q-8 -46 18 -46q33 0 65 123h23q-17 -94 -61 -143t-134 -49q-165 0 -126 210zM28 461h73q33 243 191 243q71 0 106 -30t35 -77q0 -23 -20.5 -46t-57.5 -23q-40 0 -58.5 22t-18.5 51q0 25 10.5 38.5t21 19.5t10.5 13t-14 7q-34 0 -53.5 -29
t-19.5 -70q0 -61 52 -91.5t119 -27.5l-7 -29h-70q-9 -52 -29 -157t-34 -187.5t-22 -157.5q-93 5 -118 5q-14 0 -124 -5l93 502h-70z" />
    <glyph glyph-name=".notdef" horiz-adv-x="561" 
d="M61 0v700h500v-700h-500zM311 395l170 255h-340zM341 350l170 -255v510zM141 50h340l-170 255zM111 605v-510l170 255z" />
    <glyph glyph-name=".null" horiz-adv-x="0" 
 />
    <glyph glyph-name="nonmarkingreturn" horiz-adv-x="333" 
 />
    <glyph glyph-name="space" unicode=" " horiz-adv-x="333" 
 />
    <glyph glyph-name="exclam" unicode="!" horiz-adv-x="500" 
d="M237 253l-31 5q3 64 -34.5 164t-37.5 137q0 65 36.5 107t100.5 42q66 0 107.5 -35.5t41.5 -101.5q0 -39 -16 -74t-40 -62.5t-49.5 -54t-47.5 -59.5t-30 -68zM49 99q0 60 43.5 89.5t106.5 29.5q56 0 97 -31t41 -79q0 -55 -39.5 -88t-105.5 -33q-56 0 -99.5 29t-43.5 83z
" />
    <glyph glyph-name="quotedbl" unicode="&#x22;" horiz-adv-x="722" 
d="M268 334h-88l-2.5 80t-2 70.5t-1 52t1 48t4.5 33.5q14 78 107 78q81 0 81 -80q0 -18 -6 -43.5t-19 -59t-23 -58t-27.5 -65t-24.5 -56.5zM508 334h-88l-2.5 80t-2 70.5t-1 52t1 48t4.5 33.5q14 78 107 78q81 0 81 -80q0 -18 -6 -43.5t-19 -59t-23 -58t-27.5 -65
t-24.5 -56.5z" />
    <glyph glyph-name="numbersign" unicode="#" 
d="M571 292l-7 -95h-106l-34 -197h-110l34 197h-81l-34 -197h-120l34 197h-95l7 95h105l20 116h-95l8 95h104l33 190h110l-33 -190h91l33 190h110l-33 -190h97l-8 -95h-106l-20 -116h96zM385 408h-91l-20 -116h91z" />
    <glyph glyph-name="dollar" unicode="$" 
d="M345 487l29 192q-29 2 -61 -2.5t-61 -22.5t-29 -48q0 -13 7 -26.5t15 -23t25 -22t25 -17.5t28 -17t22 -13zM340 212l-31 -199q74 0 116.5 18.5t42.5 54.5q0 33 -27.5 59t-100.5 67zM255 -83l10 68q-41 5 -79.5 15.5t-77 30t-61.5 53t-23 76.5q0 36 23.5 64.5t58.5 28.5
q46 0 73 -23.5t27 -68.5q0 -35 -20 -53.5t-40 -26t-20 -13.5q0 -15 61.5 -34t82.5 -17l33 217q-3 2 -29.5 18t-32.5 19.5t-30 19.5t-31.5 22.5t-27 23t-27 27t-20.5 27.5t-18 31.5t-9.5 33.5t-4.5 38q0 106 74.5 160t190.5 54q7 0 21.5 -2t18.5 -2l13 72h41l-12 -74
q110 -19 165.5 -57t55.5 -110q0 -37 -23 -58.5t-63 -21.5q-28 0 -53 21t-25 59q0 36 19.5 54.5t39.5 25t20 10.5q0 12 -48.5 29t-93.5 21l-32 -208q106 -63 144 -96q85 -74 85 -165q0 -54 -18 -94.5t-45.5 -63.5t-70 -37.5t-82 -19.5t-91.5 -6l-10 -68h-39z" />
    <glyph glyph-name="percent" unicode="%" horiz-adv-x="889" 
d="M655 704l-367 -722h-50l328 648l-2 2q-58 -40 -131 -40q-29 0 -53 13l-2 -2q28 -47 28 -108q0 -100 -65.5 -183t-162.5 -83q-81 0 -124.5 62.5t-43.5 146.5q0 89 69 172t162 83q34 0 91 -31t107 -31q43 0 91.5 19t81.5 54h43zM216 302l68 321q5 22 -7 34.5t-30 12.5
q-10 0 -17 -3t-15 -17t-14 -40l-48 -210q-19 -80 -19 -104q0 -44 40 -44q32 0 42 50zM870 247q0 -102 -63 -183t-150 -81q-75 0 -126.5 52.5t-51.5 128.5q0 126 69.5 205t147.5 79q61 0 117.5 -50t56.5 -151zM658 330l-55 -273q-10 -51 39 -51q19 0 27 13t16 52l61 301
q11 53 -30 53q-23 0 -34.5 -17t-23.5 -78z" />
    <glyph glyph-name="ampersand" unicode="&#x26;" horiz-adv-x="944" 
d="M297 415q-56 -27 -56 -85q0 -55 54 -160t104 -120q10 -3 30 -3q28 0 56 14q-42 47 -80 113t-57 111.5t-51 129.5zM561 492q31 14 39 23.5t8 28.5t-10.5 55t-17.5 51q-16 32 -38 32q-27 0 -27 -31q0 -33 46 -159zM903 158l23 -14q-40 -81 -106.5 -120t-145.5 -39
q-103 0 -166 54q-120 -54 -246 -54q-122 0 -185.5 57.5t-63.5 141.5q0 90 66 149.5t210 105.5q-16 40 -16 93q0 84 66 130t154 46q86 0 136.5 -34t50.5 -94q0 -47 -31.5 -74.5t-80.5 -36.5q19 -52 60.5 -138.5t69.5 -115.5q18 16 38.5 47.5t20.5 54.5q0 40 -81 39v29h229
v-29q-33 1 -55 -11t-44 -39l-93 -119q19 -30 49 -57.5t56 -27.5q9 0 16.5 1t15 5.5t11.5 6t11.5 9.5t9.5 10t11 12.5t10 11.5z" />
    <glyph glyph-name="quotesingle" unicode="'" horiz-adv-x="389" 
d="M221 334h-88l-2.5 80t-2 70.5t-1 52t1 48t4.5 33.5q14 78 107 78q81 0 81 -80q0 -18 -6 -43.5t-19 -59t-23 -58t-27.5 -65t-24.5 -56.5z" />
    <glyph glyph-name="parenleft" unicode="(" horiz-adv-x="500" 
d="M507 711l-2 -23q-39 0 -69.5 -16t-52 -47t-34.5 -62t-26 -73q-35 -117 -57 -277t-22 -219q0 -68 23 -116.5t89 -73.5l-1 -25q-155 41 -232.5 156.5t-77.5 280.5q0 118 40 216t102 157t132 90.5t136 31.5h52z" />
    <glyph glyph-name="parenright" unicode=")" horiz-adv-x="500" 
d="M-22 -221l2 23q39 0 69.5 16t52 47t34.5 62t26 73q35 117 57 277t22 219q0 68 -23 116.5t-89 73.5l1 25q155 -41 232.5 -156.5t77.5 -280.5q0 -118 -40 -216t-102 -157t-132 -90.5t-136 -31.5h-52z" />
    <glyph glyph-name="asterisk" unicode="*" horiz-adv-x="444" 
d="M310 659q0 -23 -24 -69t-24 -66q0 -7 3 -10t9 -2q12 1 27 19.5t27.5 40t31.5 39t39 17.5q25 0 40.5 -18.5t15.5 -48.5q0 -23 -23 -36.5t-48 -13.5q-100 0 -100 -27q0 -6 6 -9t29 -7t68 -7q38 -3 53.5 -17.5t15.5 -44.5q0 -21 -18.5 -37.5t-39.5 -16.5q-19 0 -38 18
t-31.5 40t-28 40t-27.5 18q-10 0 -10 -16q0 -17 23.5 -63t23.5 -66q0 -22 -15.5 -37.5t-38.5 -15.5q-25 0 -43 12.5t-18 36.5q0 22 24 70t24 70q0 9 -11 9q-9 0 -29.5 -23t-32.5 -44q-29 -50 -66 -50q-27 0 -41 17t-14 44t16.5 40.5t64.5 16.5q55 3 73 8t18 16q0 14 -31 20
q-23 4 -81 9q-61 5 -61 54q0 59 61 59q16 0 35.5 -18.5t34 -40t30 -40t24.5 -18.5q10 0 10 9q0 24 -24 71t-24 70q0 22 18.5 34.5t41.5 12.5q24 0 39.5 -13t15.5 -36z" />
    <glyph glyph-name="plus" unicode="+" horiz-adv-x="600" 
d="M230 313v193h120v-193h192v-120h-192v-193h-120v193h-192v120h192z" />
    <glyph glyph-name="comma" unicode="," horiz-adv-x="333" 
d="M-33 -184v26q147 23 218 94q46 46 46 70q-1 7 -6 7q-1 0 -32.5 -13t-61.5 -13q-57 0 -96 29t-39 83q0 57 41 88t105 31q66 0 107.5 -40t41.5 -106q0 -72 -50.5 -130t-123 -89t-150.5 -37z" />
    <glyph glyph-name="hyphen" unicode="-" horiz-adv-x="333" 
d="M6 134l36 199h269l-36 -199h-269z" />
    <glyph glyph-name="period" unicode="." horiz-adv-x="333" 
d="M0 99q0 60 43.5 89.5t106.5 29.5q56 0 97 -31t41 -79q0 -55 -39.5 -88t-105.5 -33q-57 0 -100 29t-43 83z" />
    <glyph glyph-name="slash" unicode="/" horiz-adv-x="333" 
d="M90 -15h-131l285 723h130z" />
    <glyph glyph-name="zero" unicode="0" 
d="M336 629q-21 -64 -62 -292t-41 -275q0 -48 43 -48q23 0 38 21t20 50l90 487q20 107 -34 107q-18 0 -31 -9.5t-23 -40.5zM644 399q0 -171 -96 -292.5t-250 -121.5q-63 0 -113.5 21.5t-80.5 54.5t-50.5 75.5t-28 81.5t-7.5 76q0 86 24 158t62 118t85.5 78.5t92 46
t84.5 13.5q123 0 200.5 -89t77.5 -220z" />
    <glyph glyph-name="one" unicode="1" 
d="M151 29l113 635h-118l5 29q144 0 360 13l-119 -677h133l-5 -29h-503l5 29h129z" />
    <glyph glyph-name="two" unicode="2" 
d="M567 188h33q-32 -203 -238 -203q-68 0 -153 23t-107 23q-47 0 -55 -46h-35q0 58 20 108t51.5 86.5t70 69.5t77 65t70 65t51.5 76.5t20 92.5q0 59 -27 94.5t-81 35.5q-18 0 -43.5 -9.5t-25.5 -24.5q0 -9 13.5 -18.5t29 -17.5t29 -27t13.5 -46q0 -46 -31.5 -71.5
t-78.5 -25.5t-76 30.5t-29 77.5q0 58 44 96.5t97.5 52t110.5 13.5q139 0 223.5 -51.5t84.5 -147.5q0 -48 -22 -86t-60.5 -61.5t-78 -37.5t-86.5 -22q-57 -10 -111 -29.5t-104.5 -60t-61.5 -90.5l2 -2q73 72 203 72q42 0 112 -16.5t98 -16.5q41 0 51 29z" />
    <glyph glyph-name="three" unicode="3" 
d="M381 372v-2q35 -6 63.5 -13t59.5 -21.5t52 -33t34.5 -47.5t13.5 -65t-14.5 -68.5t-49 -65t-104.5 -52t-168 -19.5q-76 0 -130.5 15.5t-80 41t-36 49.5t-10.5 49q0 50 31.5 81.5t80.5 31.5q47 0 77.5 -26t30.5 -74q0 -42 -24.5 -63t-48.5 -28.5t-24 -14.5
q0 -10 26.5 -21.5t60.5 -11.5q39 0 61 23t39 65q33 79 33 188q0 73 -64 73q-4 0 -13 -0.5t-14 -0.5q-24 0 -24 18q0 6 6.5 10.5t13.5 4.5q5 0 16.5 -1.5t17.5 -1.5q29 0 48 18q25 24 36.5 76.5t11.5 100.5q0 41 -24.5 64t-64.5 23q-70 0 -70 -23q0 -5 16 -15t32.5 -31
t16.5 -51q0 -47 -30 -71.5t-78 -24.5q-31 0 -52.5 13t-30.5 33t-12.5 36t-3.5 30q0 56 57 97t173 41q158 0 235.5 -41.5t77.5 -128.5q0 -36 -18 -64t-41.5 -44t-63 -29t-64 -18t-63.5 -11z" />
    <glyph glyph-name="four" unicode="4" 
d="M352 580l-305 -350v-12h243l64 360zM-7 181l7 39l431 488h180l-86 -490h100l-7 -37h-100l-27 -152h110l-5 -29h-463l5 29h120l25 152h-290z" />
    <glyph glyph-name="five" unicode="5" 
d="M153 531l-36 -155q93 42 222 42q124 0 197 -56.5t73 -148.5q0 -45 -16.5 -83t-53 -72t-106 -53.5t-165.5 -19.5q-65 0 -114 10.5t-75.5 26t-42.5 37.5t-20.5 39.5t-4.5 37.5q0 46 31 76.5t78 30.5q48 0 78.5 -28t30.5 -74q0 -35 -19.5 -58.5t-38.5 -33t-19 -10.5
q0 -14 25 -20.5t44 -6.5q40 0 68.5 26.5t41.5 69t18 81t5 76.5q0 116 -106 116q-42 0 -76.5 -11.5t-55 -23t-28.5 -11.5q-13 0 -13 13q40 142 76 351q3 9 15 9q35 -8 114.5 -18t126.5 -10q119 0 203 28q18 -2 18 -20q0 -15 -9.5 -36.5t-33.5 -47t-58 -46.5t-89 -35.5
t-120 -14.5t-165 23z" />
    <glyph glyph-name="six" unicode="6" 
d="M375 318q0 49 -43 49q-15 0 -32 -13.5t-22 -39.5q-35 -167 -35 -249q0 -26 9 -38.5t34 -12.5q33 0 46 55q43 185 43 249zM25 303q0 82 24.5 154.5t71 128.5t120.5 89t166 33q113 0 173.5 -44.5t60.5 -112.5q0 -47 -29 -75t-76 -28q-46 0 -76.5 24t-30.5 69
q0 29 13.5 50.5t30 29.5t30 15t13.5 12q0 14 -21.5 21.5t-44.5 7.5q-64 0 -96.5 -62t-60.5 -236q42 23 97 23q93 0 159.5 -49.5t66.5 -142.5q0 -104 -75.5 -164.5t-204.5 -60.5q-77 0 -135.5 22t-91 54.5t-52.5 78t-26 83.5t-6 80z" />
    <glyph glyph-name="seven" unicode="7" 
d="M47 481l49 224h29l-13 -66l10 -5q95 69 199 69q76 0 144.5 -23t94.5 -23q31 0 55 16t30 16q5 0 9.5 -5.5t4.5 -9.5q0 -5 -6.5 -15.5t-17.5 -24.5t-20 -25t-19.5 -23t-11.5 -13q-132 -159 -173 -273q-10 -27 -18 -90t-10 -90q-4 -68 -36.5 -112t-99.5 -44q-70 0 -103 33.5
t-33 88.5q0 43 22.5 80.5t69.5 86.5q64 67 174.5 154.5t157.5 137.5l-2 2q-126 -53 -200 -53q-51 0 -128 23.5t-115 21.5q-10 -30 -14 -55z" />
    <glyph glyph-name="eight" unicode="8" 
d="M639 534q0 -45 -20.5 -78t-55.5 -52t-72.5 -28.5t-79.5 -11.5v-2q46 -10 77 -21.5t61.5 -31.5t46 -53t15.5 -78q0 -31 -14 -61.5t-46.5 -61.5t-97.5 -50.5t-154 -19.5q-124 0 -209 48t-85 138q0 42 14.5 75t35.5 53t55.5 35t64.5 22.5t72 14.5v2q-164 30 -164 158
q0 62 41.5 104t95.5 57.5t115 15.5h44q124 0 192 -50t68 -124zM371 299q0 27 -11 37.5t-37 10.5q-18 0 -28.5 -14t-20.5 -52q-11 -45 -20 -110t-9 -102q0 -55 38 -55q43 0 54 49q10 47 22 127.5t12 108.5zM303 428q0 -52 37 -52q17 0 27.5 10t18.5 42q29 121 29 183
q0 40 -10 54t-32 14q-16 0 -27.5 -13.5t-20.5 -57.5q-22 -106 -22 -180z" />
    <glyph glyph-name="nine" unicode="9" 
d="M281 375q0 -49 43 -49q15 0 32 13.5t22 39.5q35 167 35 249q0 26 -9 38.5t-34 12.5q-33 0 -46 -55q-43 -185 -43 -249zM631 390q0 -82 -24.5 -154.5t-71 -128.5t-120.5 -89t-166 -33q-113 0 -173.5 44.5t-60.5 112.5q0 47 29 75t76 28q46 0 76.5 -24t30.5 -69
q0 -29 -13.5 -50.5t-30 -29.5t-30 -15t-13.5 -12q0 -14 21.5 -21.5t44.5 -7.5q64 0 96.5 62t60.5 236q-42 -23 -97 -23q-93 0 -159.5 49.5t-66.5 142.5q0 104 75.5 164.5t204.5 60.5q77 0 135.5 -22t91 -54.5t52.5 -78t26 -83.5t6 -80z" />
    <glyph glyph-name="colon" unicode=":" horiz-adv-x="333" 
d="M0 115q0 41 37 71t88 30q79 0 113.5 -34t34.5 -84q0 -34 -39 -66t-95 -32q-60 0 -99.5 28.5t-39.5 86.5zM54 385q0 41 37 71t88 30q79 0 113.5 -34t34.5 -84q0 -34 -39 -66t-95 -32q-60 0 -99.5 28.5t-39.5 86.5z" />
    <glyph glyph-name="semicolon" unicode=";" horiz-adv-x="333" 
d="M-33 -189v26q69 13 125.5 40.5t85.5 58.5q37 40 41 65q1 8 -5 8q-3 0 -31 -12t-62 -12q-55 0 -92 28.5t-37 81.5q0 52 40.5 78.5t95.5 26.5q67 0 107 -36t40 -107q0 -67 -51.5 -124.5t-121.5 -88.5t-135 -33zM54 385q0 41 37 71t88 30q79 0 113.5 -34t34.5 -84
q0 -34 -39 -66t-95 -32q-60 0 -99.5 28.5t-39.5 86.5z" />
    <glyph glyph-name="less" unicode="&#x3c;" horiz-adv-x="600" 
d="M549 107v-115l-508 214v94l508 214v-115l-352 -146z" />
    <glyph glyph-name="equal" unicode="=" horiz-adv-x="600" 
d="M542 420v-120h-504v120h504zM542 206v-120h-504v120h504z" />
    <glyph glyph-name="greater" unicode="&#x3e;" horiz-adv-x="600" 
d="M41 107l352 146l-352 146v115l508 -214v-94l-508 -214v115z" />
    <glyph glyph-name="question" unicode="?" 
d="M286 251l-34 5q5 53 22 95.5t35 65t32 56t14 72.5q0 62 -34.5 94.5t-88.5 32.5q-39 0 -39 -16q0 -6 16 -12t34.5 -13t34.5 -30.5t16 -61.5q0 -45 -35 -73.5t-85 -28.5q-54 0 -88.5 33.5t-34.5 87.5q0 60 57 105t169 45q128 0 219.5 -49t91.5 -137q0 -16 -3.5 -30.5
t-7.5 -26t-15 -23t-17 -18.5t-22 -16t-22.5 -13t-26.5 -12l-25 -10t-27.5 -9.5l-25.5 -8.5q-33 -11 -52 -21t-36.5 -31.5t-21.5 -51.5zM98 99q0 60 43.5 89.5t106.5 29.5q56 0 97 -31t41 -79q0 -55 -39.5 -88t-105.5 -33q-57 0 -100 29t-43 83z" />
    <glyph glyph-name="at" unicode="@" horiz-adv-x="800" 
d="M503 407q0 35 -8.5 51t-30.5 16q-37 0 -75.5 -51.5t-38.5 -119.5q0 -38 12.5 -62.5t29.5 -24.5q40 0 70.5 47t40.5 144zM528 489l10 34h80l-60 -248q-6 -23 1 -48.5t26 -25.5q32 0 64 66.5t32 130.5q0 90 -73 160t-189 70q-43 0 -85 -16t-81.5 -50t-64 -96.5
t-24.5 -145.5q0 -108 81.5 -181.5t183.5 -73.5q114 0 208 50l10 -64q-114 -66 -255 -66q-76 0 -138.5 22.5t-103 58.5t-68 82.5t-39.5 92t-12 89.5q0 165 114 271.5t274 106.5q146 0 245.5 -88t99.5 -220q0 -90 -54 -170t-141 -80q-46 0 -71 28.5t-24 47.5h-2
q-7 -18 -43 -46t-77 -29q-38 -1 -69.5 30.5t-31.5 97.5q0 37 13 80t37 84t65.5 68.5t91.5 27.5q12 0 21.5 -2.5t15 -5t11.5 -9t8 -9.5t7.5 -12.5t6.5 -11.5z" />
    <glyph glyph-name="A" unicode="A" horiz-adv-x="778" 
d="M706 0h-423l4 29h72l-27 193h-207q-45 -92 -56 -117t-11 -41q0 -17 12.5 -25.5t22 -9.5t30.5 -2l-5 -27h-177l5 27q25 -1 44.5 19t40.5 62l291 585h232l98 -664h59zM139 251h189l-42 295h-2z" />
    <glyph glyph-name="B" unicode="B" horiz-adv-x="833" 
d="M147 664h-73l5 29h416q178 0 254.5 -39t76.5 -119q0 -152 -310 -174v-2q148 -16 205.5 -59.5t57.5 -117.5q0 -80 -65.5 -131t-215.5 -51h-511l5 29h39zM385 344l-57 -315q45 -1 65.5 4.5t36.5 24.5q18 21 32.5 77t14.5 129q0 54 -18.5 68t-73.5 12zM443 663l-52 -286
q82 -2 107 57q15 36 23.5 85t8.5 78q0 35 -15.5 50.5t-50.5 15.5h-21z" />
    <glyph glyph-name="C" unicode="C" horiz-adv-x="778" 
d="M733 430h-26q-16 104 -63 166t-111 62q-57 0 -85 -26.5t-51 -109.5q-15 -57 -33 -155.5t-18 -174.5q0 -77 32 -112.5t104 -35.5q104 0 201 168l32 -14q-59 -113 -138 -163t-204 -50q-141 0 -236.5 83t-95.5 221q0 113 57 210t154 153t209 56q50 0 92.5 -15t65.5 -30
t27 -15q7 0 91 60h32z" />
    <glyph glyph-name="D" unicode="D" horiz-adv-x="833" 
d="M436 664l-114 -635q44 0 68.5 10.5t38.5 44.5q33 82 64 266.5t31 243.5q0 70 -88 70zM76 664l5 29h361q173 0 268 -74.5t95 -221.5q0 -55 -15.5 -109.5t-50.5 -106.5t-85 -92t-125.5 -64.5t-166.5 -24.5h-373l5 29h35l118 635h-71z" />
    <glyph glyph-name="E" unicode="E" horiz-adv-x="778" 
d="M676 258h31l-48 -258h-659l5 29h37l113 635h-72l5 29h659l-21 -253h-32q-7 120 -63.5 172t-175.5 52l-50 -284q60 0 93.5 26.5t52.5 86.5h33l-50 -288h-32q4 67 -17 99.5t-85 45.5l-57 -321h27q28 0 53 2.5t47 10.5t39 13.5t34.5 20t28 22.5t25.5 28.5t21.5 28.5
t20.5 33.5t18 33.5t19 36z" />
    <glyph glyph-name="F" unicode="F" horiz-adv-x="722" 
d="M76 664l5 29h638l-21 -260h-31q1 94 -50 162.5t-155 68.5h-16l-52 -282q58 0 93 27.5t55 85.5h33l-53 -288h-29q1 72 -18.5 103t-85.5 40l-59 -321h86l-5 -29h-420l5 29h40l113 635h-73z" />
    <glyph glyph-name="G" unicode="G" horiz-adv-x="833" 
d="M646 637l99 71h27l-28 -263h-29q-9 87 -67.5 151t-142.5 64q-30 0 -53 -13t-37 -33t-24.5 -47.5t-16.5 -52t-11 -52.5q-1 -8 -2 -12q-50 -262 -50 -372q0 -71 50 -71q29 0 46 24.5t29 102.5l30 196h-52l3 29h382l-3 -29h-51l-47 -313q-5 0 -30 3.5t-38 3.5
q-34 0 -121 -19.5t-147 -19.5q-109 0 -187.5 47.5t-114 120t-35.5 159.5q0 104 57.5 196.5t149 146t190.5 53.5q79 0 125 -16t99 -55z" />
    <glyph glyph-name="H" unicode="H" horiz-adv-x="889" 
d="M442 664l-51 -290h120l50 290h-49l5 29h372l-5 -29h-32l-112 -635h73l-5 -29h-413l5 29h50l55 316h-120l-56 -316h45l-5 -29h-372l5 29h37l113 635h-73l5 29h408l-5 -29h-45z" />
    <glyph glyph-name="I" unicode="I" horiz-adv-x="500" 
d="M153 664h-72l5 29h409l-5 -29h-35l-114 -635h75l-5 -29h-414l5 29h39z" />
    <glyph glyph-name="J" unicode="J" horiz-adv-x="611" 
d="M602 664h-45l-63 -358q-8 -46 -14 -75.5t-15.5 -64t-20.5 -56t-27 -44.5t-36.5 -36t-48 -24.5t-62 -16t-78.5 -4.5q-50 0 -95 15t-77.5 51.5t-32.5 87.5q0 44 29 76t73 32q41 0 68.5 -23.5t27.5 -64.5q0 -84 -100 -84q-22 0 -22 -13q0 -31 64 -31q52 0 86.5 36.5
t34.5 89.5q0 36 -17.5 67t-39.5 45l71 395h-80l5 29h420z" />
    <glyph glyph-name="K" unicode="K" horiz-adv-x="944" 
d="M175 664h-75l5 29h441l-5 -29h-69l-57 -322l2 -2q45 41 97.5 86t84.5 72t61.5 53t42.5 43.5t13 29.5q0 23 -21.5 31.5t-91.5 8.5l5 29h357l-5 -27q-102 0 -188 -67l-128 -99l234 -471h59l-5 -29h-457l5 29h75l-140 309h-2l-54 -309h69l-5 -29h-404l5 29h39z" />
    <glyph glyph-name="L" unicode="L" horiz-adv-x="722" 
d="M150 664h-71l5 29h450l-5 -29h-79l-113 -635q113 0 178.5 32t124.5 122q31 47 43 84h33l-49 -267h-673l5 29h38z" />
    <glyph glyph-name="M" unicode="M" horiz-adv-x="944" 
d="M924 664h-37l-113 -635h78l-5 -29h-432l5 29h73l108 588l-2 2l-298 -619h-49l-62 619h-2l-86 -497q-6 -34 -6 -51q0 -25 14 -34.5t54 -7.5l-5 -29h-164l5 29q26 -1 39.5 12.5t20.5 48.5l102 574h-74l5 29h336l31 -284h2l138 284h329z" />
    <glyph glyph-name="N" unicode="N" horiz-adv-x="778" 
d="M612 664l5 29h161l-5 -29q-29 0 -39.5 -20t-21.5 -77l-107 -567h-165l-262 555h-2l-84 -459q-8 -42 9 -54.5t69 -12.5l-5 -29h-176l5 29q29 1 42 10t18 37l96 529q-13 35 -33.5 48.5t-72.5 14.5l5 25h377l195 -412h2l58 305q10 51 -5 64.5t-64 13.5z" />
    <glyph glyph-name="O" unicode="O" horiz-adv-x="833" 
d="M444 144l64 402q5 46 6.5 73t-8 41t-19.5 18t-27 4q-20 0 -31 -8t-24 -44t-25 -99.5t-32 -186.5q-35 -216 -35 -263q0 -38 10 -54t37 -16q34 0 52.5 25t31.5 108zM454 708q81 0 148.5 -26t109.5 -67.5t64.5 -92t22.5 -102.5q0 -113 -52 -211t-154.5 -161t-234.5 -63
q-149 0 -241 87.5t-92 214.5q0 75 33.5 150.5t89.5 135.5t137 97.5t169 37.5z" />
    <glyph glyph-name="P" unicode="P" horiz-adv-x="833" 
d="M413 0h-424l5 29h41l110 635h-70l5 29h421q168 0 246.5 -44t78.5 -147q0 -65 -49 -109.5t-121 -64.5q-34 -9 -78 -14t-68 -5.5t-76 0t-57 0.5l-48 -280h89zM440 664l-57 -328q58 0 81 12.5t35 54.5q11 40 21 105.5t10 94.5q0 35 -11 48t-42 13h-37z" />
    <glyph glyph-name="Q" unicode="Q" horiz-adv-x="833" 
d="M384 554l-67 -411q25 14 52 14q33 0 71 -33q75 433 75 494q0 35 -12.5 49.5t-38.5 14.5q-32 0 -49.5 -23.5t-30.5 -104.5zM424 65q-2 66 -63 66q-23 0 -46 -23q-2 -18 -2 -36q0 -35 12.5 -48t43.5 -13q36 0 55 54zM718 -4l18 -9q-31 -82 -87 -143t-130 -61
q-125 0 -125 121q0 50 8 84q-18 -2 -25 -2q-8 -1 -24 -1q-146 0 -237 87.5t-91 214.5q0 104 57 200.5t158 158.5t218 62q80 0 146.5 -26t108 -68t64 -94t22.5 -106q0 -147 -95 -268t-232 -148q7 -34 37 -60.5t69 -25.5q46 1 77.5 20t62.5 64z" />
    <glyph glyph-name="R" unicode="R" horiz-adv-x="889" 
d="M850 105l25 -11q-31 -61 -78.5 -85t-119.5 -24q-203 0 -203 176q0 18 1.5 54.5t1.5 55.5q0 25 -5.5 40t-20.5 22t-27 9t-41 3l-55 -316h69l-5 -29h-398l5 29h37l113 635h-73l5 29h495q133 0 200 -44t67 -112q0 -47 -26.5 -81t-71 -51.5t-85 -26t-86.5 -11.5v-2
q112 -16 152 -64t40 -116q0 -19 -3.5 -55t-3.5 -55q0 -16 5.5 -23t20.5 -7q11 0 21.5 7t16.5 14.5t15 21t12 17.5zM441 664l-50 -288q57 -3 86 19.5t43 74.5q18 65 18 130q0 64 -55 64h-42z" />
    <glyph glyph-name="S" unicode="S" 
d="M498 654l111 54h22q-30 -190 -31 -244h-34q-19 95 -79.5 152t-144.5 57q-33 0 -59.5 -19t-26.5 -53q0 -28 26 -53t65 -42.5t84 -42.5t84 -52t65 -72.5t26 -102.5q0 -42 -14.5 -83t-45 -80t-88 -63.5t-132.5 -24.5q-59 0 -98 14.5t-89 48.5l-105 -63h-29q29 200 30 261h29
q29 -92 99 -161.5t159 -69.5q42 0 76.5 20.5t34.5 62.5q0 27 -19.5 48.5t-50.5 38.5t-69 34t-76 38.5t-69 48t-50.5 68t-19.5 92.5q0 111 72.5 176.5t185.5 65.5q35 0 81.5 -15t79.5 -39z" />
    <glyph glyph-name="T" unicode="T" horiz-adv-x="778" 
d="M94 693h683l-35 -283h-31q-2 111 -28.5 175t-96.5 77l-113 -633h101l-5 -29h-498l5 29h96l113 633h-8q-7 0 -21.5 -6t-38 -22.5t-48 -41.5t-52 -69.5t-49.5 -98.5h-31z" />
    <glyph glyph-name="U" unicode="U" horiz-adv-x="778" 
d="M778 693l-5 -27q-28 -4 -38.5 -19t-15.5 -45l-69 -373q-14 -76 -39.5 -124t-68.5 -74.5t-95.5 -36t-131.5 -9.5q-82 0 -139 21t-83.5 55.5t-35 72.5t-1.5 80l78 450h-84l5 29h465l-5 -29h-83l-88 -518q-18 -107 92 -107q64 0 113 43.5t67 145.5l68 384q5 27 -12 41
t-54 13l5 27h155z" />
    <glyph glyph-name="V" unicode="V" horiz-adv-x="778" 
d="M37 664l5 29h425l-5 -29h-65l97 -422h2q34 69 87 170t77 150t24 64q0 23 -15.5 30.5t-61.5 7.5l5 29h180l-5 -29q-6 -1 -11.5 -3t-10.5 -5t-10.5 -8t-9 -8.5t-8.5 -10.5l-7.5 -10.5t-7 -12t-6 -11t-6.5 -11.5t-5 -10l-299 -574h-150l-154 664h-65z" />
    <glyph glyph-name="W" unicode="W" horiz-adv-x="944" 
d="M331 0h-147l-117 664h-46l5 29h357l-5 -29h-32l61 -390h2l69 173l-35 217h-37l5 29h361l-5 -29h-49q2 -33 24 -185t31 -191h2q21 62 54.5 146t52 133t18.5 65q0 21 -12.5 26.5t-53.5 5.5l5 29h171l-5 -31q-34 1 -46.5 -10.5t-24.5 -43.5l-233 -608h-146l-65 384h-2z" />
    <glyph glyph-name="X" unicode="X" horiz-adv-x="833" 
d="M104 664h-79l5 29h475l-5 -29h-81l104 -198q9 12 40.5 45.5t55 63t23.5 44.5q0 18 -9 27.5t-17 12t-29 3.5t-27 2l5 29h267l-4 -29q-73 2 -168 -98l-122 -128l211 -409h73l-5 -29h-467l5 29h76l-123 236q-16 -18 -40 -43.5t-34 -36.5l-25 -27.5t-20.5 -25t-12 -19.5
t-8.5 -19.5t-2 -18.5q0 -26 24.5 -36t78.5 -10l-5 -29h-289l5 29q49 8 79.5 29t78.5 72l155 164z" />
    <glyph glyph-name="Y" unicode="Y" horiz-adv-x="778" 
d="M613 664l5 29h182l-5 -29q-39 -5 -61 -45l-182 -323l-45 -267h96l-5 -29h-481l5 29h84l43 250l-165 385h-57l5 29h435l-5 -29h-73l141 -339l111 197q52 95 51 107q-1 19 -16 26.5t-63 8.5z" />
    <glyph glyph-name="Z" unicode="Z" horiz-adv-x="722" 
d="M694 661l-357 -632q214 0 318 231l34 -7l-62 -253h-625v30l359 634h-23q-79 0 -147.5 -58.5t-109.5 -151.5l-32 5l47 234h598v-32z" />
    <glyph glyph-name="bracketleft" unicode="[" horiz-adv-x="556" 
d="M384 -170l-7 -37h-357l163 909h359l-8 -37h-153l-150 -835h153z" />
    <glyph glyph-name="backslash" unicode="\" horiz-adv-x="278" 
d="M-59 708h116l280 -723h-114z" />
    <glyph glyph-name="bracketright" unicode="]" horiz-adv-x="556" 
d="M156 665l7 37h358l-163 -909h-358l7 37h153l149 835h-153z" />
    <glyph glyph-name="asciicircum" unicode="^" horiz-adv-x="600" 
d="M184 328h-116l174 365h106l174 -365h-117l-110 248z" />
    <glyph glyph-name="underscore" unicode="_" horiz-adv-x="500" 
d="M500 -125h-500v50h500v-50z" />
    <glyph glyph-name="grave" unicode="`" horiz-adv-x="333" 
d="M215 686l99 -139h-63l-128 79q-42 27 -42 55q0 24 17 39.5t37 15.5q45 0 80 -50z" />
    <glyph glyph-name="a" unicode="a" horiz-adv-x="722" 
d="M668 174h23q-34 -113 -81 -151t-119 -38q-62 0 -93.5 39t-29.5 100l-2 2q-26 -141 -163 -141q-93 0 -141.5 62.5t-48.5 158.5q0 111 75 196t175 85q59 0 93.5 -23.5t49.5 -78.5h2l17 93q16 -1 50 -3q36 -2 54 -2q10 0 120 5l-62 -328q-9 -53 -6.5 -71.5t17.5 -18.5
q7 0 13.5 4.5t13 14t11.5 18.5t11 22.5t9 21t7.5 20t4.5 13.5zM383 357q0 65 -30 65q-24 0 -34.5 -12t-25.5 -59q-14 -44 -24 -116t-10 -105q0 -73 37 -73q24 0 36.5 25t29.5 102q21 98 21 173z" />
    <glyph glyph-name="b" unicode="b" 
d="M381 385q0 16 -8.5 29.5t-24.5 13.5q-22 0 -33.5 -16t-25.5 -75q-17 -75 -30 -162.5t-13 -124.5q0 -23 9.5 -33.5t32.5 -10.5q22 0 34 24.5t27 111.5q32 179 32 243zM112 664h-83l5 29h69q90 0 251 11l-46 -259l2 -2q53 44 111 44q97 0 150 -58t53 -156q0 -30 -8 -63.5
t-32 -75t-61.5 -73.5t-104.5 -54t-153 -22q-134 0 -191.5 72.5t-34.5 200.5z" />
    <glyph glyph-name="c" unicode="c" horiz-adv-x="611" 
d="M509 99l23 -12q-47 -47 -117 -74.5t-141 -27.5q-67 0 -118.5 16.5t-79.5 40t-45.5 55.5t-22.5 57t-5 49q0 37 14 75.5t44 76t71.5 67t102 47.5t129.5 18q50 0 94.5 -11t80 -42t35.5 -79q0 -47 -33.5 -74.5t-81.5 -27.5q-43 0 -76.5 26.5t-33.5 70.5q0 24 8 40.5
t17.5 23.5t17.5 13t8 10q0 28 -41 28q-12 0 -22 -5.5t-15.5 -12t-11.5 -19.5t-8 -19t-6 -21q-40 -139 -40 -251q0 -107 90 -107q70 0 163 69z" />
    <glyph glyph-name="d" unicode="d" horiz-adv-x="722" 
d="M449 665h-91l5 29h77q90 0 251 11l-107 -611q-2 -14 2 -23t12 -9q12 0 24.5 15.5t19.5 31.5t15.5 39.5t10.5 27.5h24q-45 -191 -186 -191q-69 0 -99.5 32t-32.5 101h-2q-17 -63 -61 -98t-110 -35q-49 0 -86.5 19.5t-59.5 53t-32.5 73t-10.5 82.5q0 60 28 122t85 107
t127 45q99 0 149 -84h2zM277 272q-18 -95 -18 -153q0 -65 39 -65q18 0 32 21.5t30 88.5q26 108 26 192q0 32 -9 44.5t-30 12.5q-26 0 -41.5 -37t-28.5 -104z" />
    <glyph glyph-name="e" unicode="e" 
d="M571 134h31q-117 -149 -336 -149q-115 0 -186 55.5t-71 157.5q0 113 109.5 201t272.5 88q49 0 96.5 -10.5t88.5 -43t41 -82.5q0 -70 -76 -111.5t-190 -41.5q-11 0 -89 3q-9 -36 -9 -66q0 -106 85 -106q142 0 233 105zM393 413q0 24 -9 34.5t-34 10.5q-19 0 -30 -15.5
t-21 -49.5q-26 -90 -34 -172q58 0 78 16q21 18 35.5 70t14.5 106z" />
    <glyph glyph-name="f" unicode="f" horiz-adv-x="389" 
d="M20 461h73q8 51 20 90.5t33.5 76t56 56.5t81.5 20q71 0 106 -30t35 -77q0 -23 -20.5 -46t-57.5 -23q-40 0 -58.5 22t-18.5 51q0 25 10.5 38.5t21 19.5t10.5 13t-14 7q-34 0 -53.5 -29t-19.5 -70q0 -61 52 -91.5t119 -27.5l-5 -29h-72q-9 -52 -29 -157t-34 -187.5
t-22 -157.5q-93 5 -118 5q-14 0 -124 -5l93 502h-70z" />
    <glyph glyph-name="g" unicode="g" 
d="M399 390l15 88q9 0 27.5 -1t27.5 -2q36 -2 50 -2q23 0 118 5q-28 -115 -55 -277.5t-42 -222.5q-20 -79 -105.5 -136.5t-246.5 -57.5q-192 0 -192 101q0 36 28.5 57t70.5 21q59 0 83.5 -22.5t24.5 -51.5q0 -12 -11.5 -31.5t-11.5 -24.5q0 -23 25 -23q44 0 69.5 32t35.5 72
q33 136 35 186h-2q-25 -42 -64.5 -69t-85.5 -27q-87 0 -137 57.5t-50 146.5q0 30 8.5 65.5t28.5 74t48 69t72 50.5t95 20q95 0 139 -97h2zM283 75q20 0 33.5 24.5t31.5 97.5q7 27 15.5 86.5t8.5 84.5q0 55 -37 55q-15 0 -24.5 -13t-18.5 -48q-39 -156 -39 -223q0 -64 30 -64
z" />
    <glyph glyph-name="h" unicode="h" 
d="M348 704l-57 -344l2 -2q68 129 163 129q64 0 103 -37.5t39 -107.5q0 -57 -27 -150t-27 -109q0 -15 17 -15q14 0 28.5 24.5t41.5 90.5h23q-14 -41 -23.5 -64t-26.5 -51.5t-36 -43t-49.5 -25t-69.5 -10.5q-48 0 -83.5 31t-35.5 98q0 58 24 150t24 107q0 16 -4.5 22.5
t-15.5 6.5q-14 0 -33.5 -28t-31.5 -65q-41 -134 -66 -316q-24 1 -59 3q-42 2 -63 2q-19 0 -114 -5l118 669h-80l5 29h63q90 0 251 11z" />
    <glyph glyph-name="i" unicode="i" horiz-adv-x="389" 
d="M353 185h24q-30 -115 -80 -155.5t-118 -40.5q-63 0 -97 34.5t-34 100.5q0 52 22.5 142t22.5 99q0 34 -21 34q-18 0 -31.5 -29.5t-30.5 -88.5h-21q22 101 63 152t120 51q66 0 105 -41t39 -110q0 -49 -25 -139.5t-25 -100.5q0 -22 19 -22q10 0 19 9t17 24.5t13.5 29
t11 30.5t7.5 21zM335 611q0 -44 -40 -63t-89 -19q-55 0 -93.5 21t-38.5 71q0 44 39.5 63.5t88.5 19.5q54 0 93.5 -21.5t39.5 -71.5z" />
    <glyph glyph-name="j" unicode="j" horiz-adv-x="444" 
d="M53 288h-24q25 90 79 143t126 53q138 0 138 -139q0 -55 -18.5 -164t-38.5 -185q-9 -36 -17.5 -61t-25.5 -56t-38.5 -50t-56 -32t-78.5 -13q-54 0 -94 25.5t-40 78.5q0 31 20.5 53.5t59.5 22.5q33 0 56 -19.5t23 -44.5q0 -27 -11 -42t-21.5 -22t-10.5 -12q0 -8 15 -8
q76 0 76 95q0 41 -22.5 64t-66.5 39q7 37 26.5 124t29 143t9.5 91q0 13 -5.5 20t-17.5 6q-21 -3 -43 -41.5t-29 -68.5zM395 611q0 -44 -40 -63t-89 -19q-55 0 -93.5 21t-38.5 71q0 44 39.5 63.5t88.5 19.5q54 0 93.5 -21.5t39.5 -71.5z" />
    <glyph glyph-name="k" unicode="k" 
d="M274 250l-44 -255l-54 3q-36 2 -58 2q-86 0 -118 -5l120 669h-82l5 29h60q90 0 251 11l-75 -429q39 1 55 15.5t49 77.5q34 64 64.5 91.5t87.5 27.5q45 0 75.5 -26.5t30.5 -69.5q0 -46 -25 -69.5t-65 -23.5q-35 0 -58 20.5t-23 57.5q0 20 11.5 36.5t11.5 26.5q0 11 -12 11
q-18 0 -36 -26t-31 -57.5t-33.5 -60.5t-42.5 -34l2 -2q91 3 139 -17q34 -14 54 -47.5t23 -53.5q7 -54 25 -54q16 0 27 12t20.5 34.5t12.5 26.5l23 -5q-66 -177 -196 -177q-24 0 -41.5 2.5t-38 12t-33.5 26.5t-22 47.5t-9 73.5q0 61 -10 78t-40 21z" />
    <glyph glyph-name="l" unicode="l" horiz-adv-x="389" 
d="M372 704l-103 -584q-12 -66 15 -66q41 0 81 123h23q-27 -91 -73 -141.5t-128 -50.5q-87 0 -124.5 41.5t-18.5 149.5l86 488h-89l5 29h75q90 0 251 11z" />
    <glyph glyph-name="m" unicode="m" horiz-adv-x="944" 
d="M19 301h-24q49 186 176 186q67 0 94.5 -45.5t17.5 -145.5h2q19 76 64.5 133.5t115.5 57.5q67 0 94.5 -41t15.5 -139h2q19 69 67.5 124.5t113.5 55.5q68 0 100.5 -42.5t32.5 -86.5q0 -49 -31 -156t-31 -115q0 -17 15 -17q14 0 27 21.5t38 90.5h26q-12 -36 -21.5 -59
t-26 -51.5t-35.5 -44.5t-47.5 -27t-63.5 -11q-58 0 -87.5 37.5t-29.5 96.5q0 35 26.5 147t26.5 121q0 13 -12 13q-14 0 -26.5 -16t-31.5 -60q-32 -79 -75 -333q-9 1 -27.5 2t-27.5 1q-36 2 -55 2q-8 0 -108 -5l62 344q11 65 -4 65q-18 0 -27.5 -15.5t-29.5 -70.5
q-34 -98 -70 -323q-17 1 -53 3t-55 2q-51 0 -118 -5l65 337q8 44 6 56t-14 12q-15 0 -28 -23.5t-29 -75.5z" />
    <glyph glyph-name="n" unicode="n" horiz-adv-x="722" 
d="M23 294h-21q19 84 64.5 138.5t114.5 54.5q28 0 51 -8.5t42.5 -28.5t28 -58.5t2.5 -93.5h2q25 82 74.5 135.5t124.5 53.5q64 0 103 -37.5t39 -107.5q0 -57 -27 -150t-27 -109q0 -15 17 -15q14 0 28.5 24.5t41.5 90.5h23q-14 -41 -23.5 -64t-26.5 -51.5t-36 -43t-49.5 -25
t-69.5 -10.5q-48 0 -83.5 31t-35.5 98q0 58 24 150t24 107q0 16 -4.5 22.5t-15.5 6.5q-47 0 -101 -178l-40 -231q-25 1 -57 3q-40 2 -61 2q-7 0 -119 -5l61 332q13 73 -7 73q-26 0 -61 -106z" />
    <glyph glyph-name="o" unicode="o" 
d="M397 430q0 15 -9 25t-24 10q-18 0 -30.5 -15t-21.5 -55q-60 -259 -60 -338q0 -50 34 -50q23 0 36.5 23.5t25.5 90.5q6 33 17 89t16.5 85.5t10.5 67.5t5 67zM628 265q0 -126 -98 -203t-241 -77q-69 0 -123 21t-84.5 54.5t-45.5 71t-15 75.5q0 117 95 198.5t248 81.5
q63 0 121 -22.5t100.5 -74.5t42.5 -125z" />
    <glyph glyph-name="p" unicode="p" horiz-adv-x="722" 
d="M295 71l-47 -260h86l-5 -29h-384l5 29h64l96 548q9 49 -17 49q-15 0 -27.5 -20t-39.5 -92h-24q31 112 80.5 151.5t115.5 39.5q59 0 90.5 -35.5t29.5 -104.5h2q46 140 169 140q85 0 140 -56.5t55 -164.5q0 -106 -67 -192t-171 -86q-109 0 -149 83h-2zM309 110
q0 -51 37 -51q28 0 43 33q14 30 32 125.5t18 137.5q0 18 -1.5 28.5t-10.5 20t-25 9.5q-29 0 -50 -50q-16 -37 -29.5 -122.5t-13.5 -130.5z" />
    <glyph glyph-name="q" unicode="q" 
d="M650 487l-125 -676h80l-5 -29h-403l4 29h90l43 229l-2 2q-60 -57 -139 -57q-80 0 -126 57t-46 140q0 94 46 165t114.5 105.5t144.5 34.5q60 0 100 -12.5t58 -24.5t26 -12q5 0 14 3.5t40.5 18.5t59.5 27h26zM357 460q-26 0 -39 -47q-54 -199 -54 -313q0 -50 28 -50
q38 0 51 62q49 214 49 315q0 33 -35 33z" />
    <glyph glyph-name="r" unicode="r" horiz-adv-x="611" 
d="M45 299h-23q20 82 68.5 135t124.5 53q61 0 87.5 -36.5t22.5 -129.5h2q26 84 63 125t95 41q48 0 79 -28t31 -75t-28.5 -80t-81.5 -33q-49 0 -69.5 28t-20.5 69q0 17 -2 20.5t-10 3.5q-32 0 -100 -397q-24 1 -59 3q-40 2 -64 2q-2 0 -110 -5l63 353q11 56 -11 56t-57 -105z
" />
    <glyph glyph-name="s" unicode="s" horiz-adv-x="500" 
d="M-2 75q0 36 22.5 53t59.5 17q30 0 54.5 -16t24.5 -44q0 -27 -9.5 -41t-9.5 -17q0 -20 58 -20q61 0 61 57q0 18 -22 39t-54 43t-64 47t-54 60t-22 74q0 61 58 110.5t181 49.5q24 0 52 -4t60 -13t53 -27.5t21 -44.5q0 -34 -25 -49.5t-62 -15.5q-30 0 -52.5 18t-22.5 47
q0 13 10 27.5t10 18.5q0 9 -14.5 15t-35.5 6q-22 0 -42 -12t-20 -36q0 -19 23 -39.5t55 -41.5t64.5 -46t55.5 -63.5t23 -83.5q0 -63 -60 -110.5t-189 -47.5q-28 0 -55 3t-60 11.5t-53 28t-20 47.5z" />
    <glyph glyph-name="t" unicode="t" horiz-adv-x="444" 
d="M409 169h22q-34 -91 -87 -135.5t-148 -44.5q-93 0 -124 43t-20 106l54 306h-69l5 29q164 20 310 168h24l-30 -168h84l-5 -29h-84l-53 -309q-12 -72 30 -72q15 0 30.5 13.5t24 26.5t21.5 38t15 28z" />
    <glyph glyph-name="u" unicode="u" horiz-adv-x="722" 
d="M22 293h-24q13 45 27 75.5t36.5 60t56.5 44t80 14.5q53 0 90 -34t37 -106q0 -49 -25.5 -137t-25.5 -121q0 -23 23 -23q15 0 31 17.5t25 35.5q49 95 84 359q17 -1 53 -3t53 -2q24 0 69 2t64 3q-41 -198 -62 -333q-8 -42 -5.5 -57.5t15.5 -15.5q7 0 13.5 5.5t18.5 29.5
t27 69h23q-31 -107 -77 -149t-109 -42q-137 0 -121 179l-2 2q-43 -99 -87.5 -140t-120.5 -41q-61 0 -99 38.5t-38 99.5q0 39 15 107.5t34 123.5q18 52 -11 52q-35 0 -68 -113z" />
    <glyph glyph-name="v" unicode="v" 
d="M38 293h-24q28 91 84 142.5t127 51.5q59 0 97.5 -35.5t38.5 -93.5q0 -43 -28.5 -133.5t-28.5 -132.5q0 -27 21.5 -43.5t49.5 -16.5q46 0 88.5 31.5t69.5 76t43 88t16 70.5q0 18 -6 18q-3 0 -29.5 -14t-47.5 -14q-49 0 -71.5 29.5t-22.5 62.5q0 47 29 77t75 30
q53 0 82.5 -43.5t29.5 -104.5q0 -50 -29 -126t-59 -115q-85 -113 -255 -113q-61 0 -105 16.5t-64 42.5t-28 48.5t-8 43.5q0 70 26.5 148t26.5 99q0 9 -5 15.5t-14 6.5q-17 0 -38.5 -27t-40.5 -85z" />
    <glyph glyph-name="w" unicode="w" horiz-adv-x="944" 
d="M36 291h-23q22 90 71 143t115 53q63 0 97.5 -36t34.5 -100q0 -48 -26 -152t-26 -111q0 -22 20 -22q19 0 42 36t38 93q11 41 19.5 83.5t20 111.5t14.5 88q15 -1 50 -3q40 -2 62 -2q31 0 113 5q-59 -230 -59 -334q0 -100 74 -100q77 0 138 87t61 169q0 24 -5 24
q-3 0 -31.5 -17.5t-54.5 -17.5q-39 0 -63 27t-24 66q0 43 26 74t68 31q57 0 89 -43t32 -111q0 -40 -10 -83.5t-35 -91.5t-61.5 -86t-96 -62.5t-132.5 -24.5q-82 0 -129.5 32.5t-64.5 110.5h-2q-32 -70 -75.5 -106.5t-112.5 -36.5q-61 0 -92.5 40t-31.5 102q0 72 49 228
q16 51 -10 51q-30 0 -69 -115z" />
    <glyph glyph-name="x" unicode="x" horiz-adv-x="722" 
d="M613 154l26 2q-37 -87 -83.5 -129t-131.5 -42q-123 0 -152 115q-68 -115 -170 -115q-41 0 -68.5 25.5t-27.5 68.5q0 42 24.5 67.5t65.5 25.5q38 0 62.5 -24.5t28.5 -63.5q2 -14 12 -14q16 0 36.5 23t22.5 41l-68 220q-10 32 -17.5 41t-20.5 9q-20 0 -41 -30t-33 -58
l-24 -2q22 66 75.5 119.5t116.5 53.5q76 0 115 -27t58 -93q44 67 85 93.5t86 26.5q35 0 66 -26t31 -71q0 -35 -25 -61.5t-74 -26.5q-37 0 -58 26t-21 45q0 26 -14 26q-12 0 -24 -9.5t-41 -45.5l72 -225q18 -55 40 -55q33 0 71 90z" />
    <glyph glyph-name="y" unicode="y" 
d="M17 293h-22q12 41 26 72t36 60.5t54.5 45.5t74.5 16q63 0 101 -32.5t38 -94.5q0 -32 -6 -67.5t-19 -90t-18 -77.5q-4 -18 1.5 -30t15.5 -12q26 0 50.5 51.5t35.5 111.5l43 232q9 0 26.5 -1t26.5 -2q38 -2 59 -2q13 0 123 5q-20 -83 -49.5 -248.5t-33.5 -184.5
q-12 -62 -33 -106t-60 -81t-103 -55.5t-154 -18.5q-212 0 -212 100q0 44 34 63.5t82 19.5q34 0 62 -20.5t28 -52.5q0 -24 -16.5 -43t-16.5 -24q0 -19 38 -19q22 0 38 8.5t36 38t37.5 97t33.5 174.5l-2 2q-45 -67 -83.5 -97.5t-103.5 -30.5q-57 0 -93.5 35t-36.5 103
q0 44 25.5 142t25.5 101q0 14 -3 21t-15 7q-15 0 -30.5 -23t-40.5 -93z" />
    <glyph glyph-name="z" unicode="z" horiz-adv-x="611" 
d="M520 199h27q-32 -115 -82.5 -164.5t-131.5 -49.5q-78 0 -150 43q-4 2 -17.5 10.5t-19.5 12t-17.5 7t-22.5 3.5q-19 0 -26.5 -13.5t-7.5 -29t-8 -28.5t-26 -13q-12 0 -19.5 7.5t-7.5 19.5q0 19 28 43l350 287l-2 2q-69 -38 -136 -38q-33 0 -76 16.5t-55 16.5
q-20 0 -31.5 -11.5t-22.5 -34.5l-27 -3q16 74 72.5 139.5t127.5 65.5q53 0 94 -18.5t72 -36.5t60 -18q42 0 46 48q1 33 32 33q28 0 28 -19q0 -16 -10 -28.5t-41 -38.5l-344 -283l2 -2q7 4 30 16.5t32 16.5t27.5 11.5t35 10t35.5 2.5q25 0 68 -14t66 -14q21 0 30.5 11
t17.5 35z" />
    <glyph glyph-name="braceleft" unicode="{" horiz-adv-x="475" 
d="M329 586l-33 -189q-13 -73 -35.5 -104.5t-72.5 -44.5v-2q46 -11 57 -43t1 -92l-35 -205q-9 -54 2 -80.5t52 -40.5l-1 -3q-63 0 -103 2t-70.5 8t-45.5 15t-22.5 27t-7 38.5t6.5 54.5l35 200q9 53 -2.5 80.5t-51.5 38.5v2q47 12 67 38t29 81l31 178q18 107 70.5 135
t224.5 28v-2q-44 -12 -65.5 -40t-30.5 -80z" />
    <glyph glyph-name="bar" unicode="|" horiz-adv-x="222" 
d="M51 750h120v-1000h-120v1000z" />
    <glyph glyph-name="braceright" unicode="}" horiz-adv-x="475" 
d="M406 563l-35 -202q-9 -53 2.5 -80.5t51.5 -38.5v-2q-47 -12 -67 -38t-29 -79l-31 -178q-18 -107 -70.5 -135t-224.5 -28v2q44 12 65.5 40t30.5 80l33 187q13 73 35.5 104.5t72.5 44.5v2q-46 11 -58.5 46t0.5 91l35 205q9 54 -2 80.5t-52 40.5l1 3q63 0 103 -2t70.5 -8
t45.5 -15t22.5 -27t7 -38.5t-6.5 -54.5z" />
    <glyph glyph-name="asciitilde" unicode="~" horiz-adv-x="600" 
d="M485 346l36 -96q-20 -27 -33 -42t-38 -29.5t-54 -14.5q-42 0 -102 33q-62 35 -115 35q-51 0 -84 -72l-36 96q45 86 125 86q39 0 111 -32q7 -3 21.5 -9.5t23 -10t20 -8t20.5 -6.5t17 -2q19 0 36.5 12t27 24.5t24.5 35.5z" />
    <glyph glyph-name="uni00A0" unicode="&#xa0;" horiz-adv-x="333" 
 />
    <glyph glyph-name="exclamdown" unicode="&#xa1;" horiz-adv-x="500" 
d="M220 237l31 -5q-3 -64 34.5 -164t37.5 -137q0 -65 -36.5 -107t-100.5 -42q-66 0 -107.5 35.5t-41.5 101.5q0 39 16 74t40 62.5t49.5 54t47.5 59.5t30 68zM408 391q0 -60 -43.5 -89.5t-106.5 -29.5q-56 0 -97 31t-41 79q0 55 39.5 88t105.5 33q57 0 100 -29t43 -83z" />
    <glyph glyph-name="cent" unicode="&#xa2;" 
d="M300 101l95 230q-2 16 -2 23q0 27 12.5 43t24.5 24.5t12 17.5q0 24 -40 24q-25 0 -38 -16.5t-28 -69.5q-21 -76 -31.5 -161.5t-6.5 -114.5h2zM450 485l49 115h47l-51 -124q112 -32 112 -128q0 -45 -32 -71t-77 -26q-56 0 -85 40l-96 -234q18 -32 68 -32q76 0 174 73
l16 -17q-126 -111 -286 -102l-46 -113h-51l51 119q-83 17 -136 71.5t-53 135.5q0 91 54 160.5t131 102t159 32.5q8 0 26 -1t26 -1z" />
    <glyph glyph-name="sterling" unicode="&#xa3;" 
d="M593 189l27 3q-4 -97 -62.5 -152t-157.5 -55q-43 0 -91 18.5t-80 37.5t-36 19q-2 0 -11 -19t-31 -38.5t-54 -19.5q-34 0 -60 20t-26 52q0 45 24.5 71t68.5 26q24 0 44 -7t21 -7q9 0 9 44q0 53 -22 139h-146l7 46h124q-17 55 -8 136q9 79 79.5 142t196.5 63
q97 0 162.5 -43t65.5 -115q0 -46 -27 -76.5t-72 -30.5q-44 0 -71 25t-27 69q0 31 13.5 51t29.5 26.5t29.5 13t13.5 14.5q0 32 -62 32q-48 0 -72.5 -43t-24.5 -95q0 -116 -4 -169h151l-6 -46h-154q-10 -48 -33 -88t-41 -61t-18 -26q0 -10 10 -10q2 0 15.5 6t42 12.5t65.5 6.5
q25 0 74.5 -10.5t57.5 -10.5q48 0 66 49z" />
    <glyph glyph-name="currency" unicode="&#xa4;" 
d="M64 145l81 81q-34 42 -34 121q0 82 36 121l-82 82l66 67l81 -82q18 15 52.5 25t70.5 10q79 0 120 -35l80 82l67 -68l-81 -80q16 -15 26 -49.5t10 -72.5q0 -79 -34 -123l80 -81l-66 -66l-81 81q-42 -34 -121 -34q-84 0 -124 35l-81 -80zM223 347q0 -50 32.5 -83t78.5 -33
t78.5 33t32.5 83t-32.5 83t-78.5 33t-78.5 -33t-32.5 -83z" />
    <glyph glyph-name="yen" unicode="&#xa5;" 
d="M410 181l-26 -152h96l-5 -29h-401l5 29h84l27 152h-212l7 38h211l10 60l-10 24h-198l7 38h175l-139 323h-77l5 29h375l-5 -29h-73l141 -339l111 197q52 95 51 107q-1 19 -16 26.5t-63 8.5l5 29h182l-5 -29q-39 -5 -61 -45l-157 -278h190l-7 -38h-204l-4 -7l-13 -77h208
l-7 -38h-207z" />
    <glyph glyph-name="brokenbar" unicode="&#xa6;" horiz-adv-x="222" 
d="M51 675h120v-350h-120v350zM51 175h120v-350h-120v350z" />
    <glyph glyph-name="section" unicode="&#xa7;" horiz-adv-x="611" 
d="M81 -4q30 0 49.5 -15t19.5 -44q0 -21 -11.5 -35.5t-23 -24t-11.5 -19.5q0 -16 34.5 -30.5t73.5 -14.5q126 0 126 54q0 18 -21.5 43.5t-53.5 51.5t-69 59.5t-69 66t-53.5 73.5t-21.5 80q0 63 52 107.5t122 40.5l2 3q-87 85 -87 153q0 62 56 112.5t172 50.5
q103 0 159.5 -37t56.5 -95q0 -34 -21 -54t-55 -20q-25 0 -40.5 17.5t-15.5 42.5q0 18 6.5 29t14.5 15t14.5 12t6.5 19q0 46 -109 46q-55 0 -81 -17t-26 -43q0 -18 29.5 -49t71.5 -66.5t84 -74.5t71.5 -85t29.5 -86q0 -66 -52 -110.5t-123 -46.5l-3 -5q31 -30 47 -48
t31.5 -48t15.5 -59q0 -62 -59.5 -109t-178.5 -47q-37 0 -72 6t-70.5 20t-57 42.5t-21.5 68.5q0 28 16.5 49t44.5 21zM352 279q-2 1 -11 9.5t-14 13t-15.5 13t-17.5 13.5t-18 11.5t-20 10.5t-19 6.5t-19 2.5q-18 0 -31.5 -10.5t-13.5 -29.5q0 -21 40.5 -65.5t95 -81.5
t87.5 -37q39 0 39 39q0 5 -2 11.5t-6 13t-8 12.5t-11 13.5t-12 13t-12.5 12.5t-11.5 11t-11.5 10.5t-8.5 7.5z" />
    <glyph glyph-name="dieresis" unicode="&#xa8;" horiz-adv-x="333" 
d="M334 550q-34 0 -56.5 23t-22.5 57q0 33 22.5 56t56.5 23q33 0 56.5 -23t23.5 -56q0 -34 -23 -57t-57 -23zM115 550q-35 0 -57.5 23t-22.5 57t23 56.5t57 22.5q33 0 56 -23t23 -56q0 -34 -22.5 -57t-56.5 -23z" />
    <glyph glyph-name="copyright" unicode="&#xa9;" horiz-adv-x="800" 
d="M400 708q168 0 276 -103.5t108 -259.5q0 -155 -108 -257.5t-276 -102.5t-276 102.5t-108 257.5q0 156 108 259.5t276 103.5zM400 633q-119 0 -198 -82.5t-79 -200.5q0 -124 78.5 -207t198.5 -83q119 0 198 81t79 199q0 125 -78.5 209t-198.5 84zM560 520v-78h-24
q-34 87 -105 87q-49 0 -73.5 -43t-25.5 -116q-1 -88 21 -137.5t80 -49.5q37 0 68 25.5t52 69.5h24l-15 -84q-2 -12 -31 -22q-64 -24 -117 -24q-106 0 -164 55.5t-58 155.5q0 36 11 69t36 65.5t75 51.5t119 19q15 0 27.5 -1t24 -4t18.5 -5t18.5 -6.5t15.5 -5.5q23 -7 23 -22z
" />
    <glyph glyph-name="ordfeminine" unicode="&#xaa;" horiz-adv-x="433" 
d="M454 520h15q-22 -67 -52.5 -90t-77.5 -23q-40 0 -61 23t-19 59l-2 2q-16 -84 -105 -84q-60 0 -92 37.5t-32 94.5q0 67 49 118t114 51q38 0 60.5 -14t32.5 -47h2l10 57q5 0 15 -1.5t16 -2.5q22 -2 35 -2q22 0 80 6l-40 -198q-4 -21 -5 -33t2 -16.5t10 -4.5q6 0 12 5
t11.5 15t9 17.5t8 18.5t4.5 12zM211 626q-9 -26 -16 -68.5t-7 -58.5q0 -44 24 -44q16 0 24 14t19 57q14 60 14 99t-19 39q-16 0 -22.5 -6.5t-16.5 -31.5z" />
    <glyph glyph-name="guillemotleft" unicode="&#xab;" horiz-adv-x="556" 
d="M143 73l-101 157l138 165h122l-143 -172l99 -150h-115zM347 73l-101 157l138 165h122l-143 -172l99 -150h-115z" />
    <glyph glyph-name="logicalnot" unicode="&#xac;" horiz-adv-x="600" 
d="M422 108v192h-384v120h504v-312h-120z" />
    <glyph glyph-name="uni00AD" unicode="&#xad;" horiz-adv-x="333" 
d="M6 134l36 199h269l-36 -199h-269z" />
    <glyph glyph-name="registered" unicode="&#xae;" horiz-adv-x="800" 
d="M229 528v21h217q50 0 80.5 -26t30.5 -77q0 -33 -21.5 -61.5t-60.5 -39.5l58 -86q25 -37 58 -82v-15h-101q-13 0 -29 27.5t-37 74.5t-33 67h-20v-110q0 -16 1.5 -22t10.5 -10.5t30 -5.5v-21h-184v21q21 1 29 9t8 29v269q0 35 -37 38zM371 522v-164h20q50 0 50 85
q0 79 -42 79h-28zM400 708q168 0 276 -103.5t108 -259.5q0 -155 -108 -257.5t-276 -102.5t-276 102.5t-108 257.5q0 156 108 259.5t276 103.5zM400 633q-119 0 -198 -82.5t-79 -200.5q0 -124 78.5 -207t198.5 -83q119 0 198 81t79 199q0 125 -78.5 209t-198.5 84z" />
    <glyph glyph-name="macron" unicode="&#xaf;" horiz-adv-x="333" 
d="M406 672l-24 -85h-347l24 85h347z" />
    <glyph glyph-name="degree" unicode="&#xb0;" horiz-adv-x="450" 
d="M209 437q38 0 66 29.5t28 68.5t-27.5 68t-66.5 29q-38 0 -66 -29t-28 -68t28 -68.5t66 -29.5zM209 361q-72 0 -122 50.5t-50 123.5t50 123t122 50q73 0 123 -50t50 -123t-50 -123.5t-123 -50.5z" />
    <glyph glyph-name="plusminus" unicode="&#xb1;" horiz-adv-x="600" 
d="M38 0v120h504v-120h-504zM230 393v113h120v-113h192v-120h-192v-113h-120v113h-192v120h192z" />
    <glyph glyph-name="twosuperior" unicode="&#xb2;" horiz-adv-x="400" 
d="M37 274h-33q0 40 17.5 74t43.5 56.5t56 46.5t56 43.5t43.5 47.5t17.5 60q0 35 -16 56t-44 21q-12 0 -28.5 -5t-16.5 -14q0 -5 13.5 -11.5t27.5 -17.5t14 -27q0 -28 -21.5 -43t-55.5 -15q-30 0 -49 18.5t-19 46.5q0 50 54 73.5t125 23.5q90 0 145 -31t55 -88
q0 -98 -160 -125q-60 -9 -116.5 -36t-73.5 -69l2 -2v3q47 43 141 43q28 0 73 -9.5t63 -9.5q26 0 34 12h21q-21 -122 -165 -122q-39 0 -97.5 14t-71.5 14q-30 0 -35 -28z" />
    <glyph glyph-name="threesuperior" unicode="&#xb3;" horiz-adv-x="400" 
d="M261 504q145 -19 145 -107q0 -21 -10 -40.5t-33.5 -39.5t-72 -31.5t-117.5 -11.5q-94 0 -131 28.5t-37 64.5q0 30 20.5 49t52.5 19q30 0 50 -14t20 -36q0 -25 -16 -38t-31.5 -17t-15.5 -9q0 -3 7.5 -7.5t21 -8t28.5 -3.5q37 0 65 42q21 45 21 108q0 44 -41 44
q-3 0 -9 -0.5t-9 -0.5q-15 0 -15 21q0 9 13 9q3 0 10.5 -1t11.5 -1q11 0 31 6q16 15 23.5 44.5t7.5 51.5q0 24 -16 38.5t-42 14.5q-45 0 -45 -14q0 -2 21 -16t21 -32q0 -28 -19.5 -43t-50.5 -15q-20 0 -34 7.5t-20 20t-8 21.5t-2 18q0 35 39 59t125 24q203 0 203 -102
q0 -18 -7 -32.5t-21.5 -24.5t-29 -17.5t-36 -12.5t-34.5 -7.5t-34 -5.5v-2z" />
    <glyph glyph-name="acute" unicode="&#xb4;" horiz-adv-x="333" 
d="M196 547h-66l117 139q30 34 48 42q16 8 35 8q24 0 41 -15.5t17 -39.5q0 -32 -43 -55z" />
    <glyph glyph-name="mu" unicode="&#xb5;" horiz-adv-x="722" 
d="M688 176h23q-31 -107 -77 -149t-109 -42q-137 0 -121 179l-2 2q-23 -52 -40 -81t-43 -56t-61 -37t-84 -6q1 -16 10.5 -29.5t20 -22.5t19 -29t8.5 -47q0 -30 -29.5 -53t-70.5 -23q-52 0 -80 37t-28 99q0 59 23.5 188.5t58.5 247.5q15 52 -11 52q-35 0 -68 -113h-24
q13 45 27 75t36.5 59.5t56.5 44t80 14.5q53 0 90 -33.5t37 -105.5q0 -49 -25.5 -137t-25.5 -121q0 -23 23 -23q15 0 31 17.5t25 35.5q49 95 84 359q17 -1 55 -3t57 -2t61 2t66 3q-41 -198 -62 -333q-8 -42 -5.5 -57.5t15.5 -15.5q7 0 13.5 5.5t18.5 29.5t27 69z" />
    <glyph glyph-name="paragraph" unicode="&#xb6;" horiz-adv-x="620" 
d="M657 693l-5 -29h-71l-139 -804h71l-5 -29h-471l5 29h71l73 422q-66 4 -95 48t-29 108q0 121 62 188t178 67h355zM316 -140l139 804h-68l-139 -804h68z" />
    <glyph glyph-name="periodcentered" unicode="&#xb7;" horiz-adv-x="333" 
d="M23 244q0 60 43.5 89.5t106.5 29.5q56 0 97 -31t41 -79q0 -55 -39.5 -88t-105.5 -33q-56 0 -99.5 29t-43.5 83z" />
    <glyph glyph-name="cedilla" unicode="&#xb8;" horiz-adv-x="333" 
d="M155 0l-50 -60l2 -2q15 4 38 4q39 0 64.5 -19.5t25.5 -61.5q0 -38 -46.5 -60.5t-92.5 -22.5q-68 0 -117 31l22 35q33 -19 73 -19q52 0 52 39q0 25 -26.5 31t-45.5 -3l-19 19l69 89h51z" />
    <glyph glyph-name="onesuperior" unicode="&#xb9;" horiz-adv-x="400" 
d="M354 309l-3 -25h-327l3 25h74l74 366h-68l3 25q91 0 245 8l-77 -399h76z" />
    <glyph glyph-name="ordmasculine" unicode="&#xba;" horiz-adv-x="400" 
d="M236 497q4 20 13.5 61t13.5 64.5t4 41.5q0 26 -21 26q-24 0 -34 -37q-39 -151 -39 -198q0 -30 22 -30q15 0 23.5 14.5t17.5 57.5zM418 575q0 -76 -63.5 -122t-157.5 -46q-86 0 -130 41t-44 92q0 70 62 119t161 49q65 0 118.5 -34.5t53.5 -98.5z" />
    <glyph glyph-name="guillemotright" unicode="&#xbb;" horiz-adv-x="556" 
d="M379 395l101 -157l-138 -165h-122l143 172l-99 150h115zM175 395l101 -157l-138 -165h-122l143 172l-99 150h115z" />
    <glyph glyph-name="onequarter" unicode="&#xbc;" horiz-adv-x="1000" 
d="M483 111l5 21l280 293h127l-56 -289h65l-4 -25h-65l-18 -86h72l-4 -25h-316l4 25h78l16 86h-184zM671 136l39 197l-3 1l-184 -196v-2h148zM389 309l-3 -25h-327l3 25h74l74 366h-68l3 25q91 0 245 8l-77 -399h76zM327 -15h-60l446 723h60z" />
    <glyph glyph-name="onehalf" unicode="&#xbd;" horiz-adv-x="1000" 
d="M572 -15h-33q0 40 17.5 74t43.5 56.5t56 46.5t56 43.5t43.5 47.5t17.5 60q0 35 -16 56t-44 21q-12 0 -28.5 -5t-16.5 -14q0 -5 14 -11.5t27.5 -17t13.5 -27.5q0 -28 -21.5 -43t-55.5 -15q-30 0 -49 18.5t-19 46.5q0 50 54 73.5t125 23.5q90 0 145 -31t55 -88
q0 -98 -160 -125q-58 -9 -114 -35.5t-74 -65.5l2 -1q48 41 139 41q28 0 73 -9.5t63 -9.5q26 0 34 12h21q-21 -122 -165 -122q-39 0 -97.5 14t-71.5 14q-30 0 -35 -28zM369 309l-3 -25h-327l3 25h74l74 366h-68l3 25q91 0 245 8l-77 -399h76zM297 -15h-60l446 723h60z" />
    <glyph glyph-name="threequarters" unicode="&#xbe;" horiz-adv-x="1000" 
d="M508 111l5 21l280 293h127l-56 -289h65l-4 -25h-65l-18 -86h72l-4 -25h-316l4 25h78l16 86h-184zM696 136l39 197l-3 1l-184 -196v-2h148zM302 504q145 -19 145 -107q0 -21 -10 -40.5t-33.5 -39.5t-72 -31.5t-117.5 -11.5q-94 0 -131 28.5t-37 64.5q0 30 20.5 49t52.5 19
q30 0 50 -14t20 -36q0 -25 -15.5 -38t-31.5 -17t-16 -9q0 -3 7.5 -7.5t21 -8t28.5 -3.5q37 0 65 42q21 45 21 113q0 44 -41 44q-3 0 -9 -0.5t-9 -0.5q-15 0 -15 11q0 9 13 9q3 0 10.5 -1t11.5 -1q17 0 31 11q16 15 23.5 44.5t7.5 51.5q0 24 -16 38.5t-42 14.5q-45 0 -45 -14
q0 -2 21 -16t21 -32q0 -28 -19.5 -43t-50.5 -15q-20 0 -34 7.5t-20 20t-8 21.5t-2 18q0 35 39 59t125 24q203 0 203 -102q0 -18 -7 -32.5t-21.5 -24.5t-29 -17.5t-36 -12.5t-34.5 -7.5t-34 -5.5v-2zM347 -15h-60l446 723h60z" />
    <glyph glyph-name="questiondown" unicode="&#xbf;" 
d="M334 239l34 -5q-5 -53 -22 -95.5t-35 -65t-32 -56t-14 -72.5q0 -62 34.5 -94.5t88.5 -32.5q39 0 39 16q0 6 -16 12t-34.5 13t-34.5 30.5t-16 61.5q0 45 35 73.5t85 28.5q54 0 88.5 -33.5t34.5 -87.5q0 -60 -57 -105t-169 -45q-128 0 -219.5 49t-91.5 137q0 16 3.5 30.5
t7.5 26t15 23t17 18.5t22 16t22.5 13t26.5 12l25 10t27.5 9.5l25.5 8.5q33 11 52 21t36.5 31.5t21.5 51.5zM522 391q0 -60 -43.5 -89.5t-106.5 -29.5q-56 0 -97 31t-41 79q0 55 39.5 88t105.5 33q57 0 100 -29t43 -83z" />
    <glyph glyph-name="Agrave" unicode="&#xc0;" horiz-adv-x="778" 
d="M706 0h-423l4 29h72l-27 193h-207q-45 -92 -56 -117t-11 -41q0 -17 12.5 -25.5t22 -9.5t30.5 -2l-5 -27h-177l5 27q25 -1 44.5 19t40.5 62l291 585h232l98 -664h59zM139 251h189l-42 295h-2zM438 872l99 -139h-63l-128 79q-42 27 -42 55q0 24 17 39.5t37 15.5
q45 0 80 -50z" />
    <glyph glyph-name="Aacute" unicode="&#xc1;" horiz-adv-x="778" 
d="M706 0h-423l4 29h72l-27 193h-207q-45 -92 -56 -117t-11 -41q0 -17 12.5 -25.5t22 -9.5t30.5 -2l-5 -27h-177l5 27q25 -1 44.5 19t40.5 62l291 585h232l98 -664h59zM139 251h189l-42 295h-2zM419 733h-66l117 139q30 34 48 42q16 8 35 8q24 0 41 -15.5t17 -39.5
q0 -32 -43 -55z" />
    <glyph glyph-name="Acircumflex" unicode="&#xc2;" horiz-adv-x="778" 
d="M706 0h-423l4 29h72l-27 193h-207q-45 -92 -56 -117t-11 -41q0 -17 12.5 -25.5t22 -9.5t30.5 -2l-5 -27h-177l5 27q25 -1 44.5 19t40.5 62l291 585h232l98 -664h59zM139 251h189l-42 295h-2zM529 909l83 -176h-64l-97 87l-122 -87h-76l156 176h120z" />
    <glyph glyph-name="Atilde" unicode="&#xc3;" horiz-adv-x="778" 
d="M706 0h-423l4 29h72l-27 193h-207q-45 -92 -56 -117t-11 -41q0 -17 12.5 -25.5t22 -9.5t30.5 -2l-5 -27h-177l5 27q25 -1 44.5 19t40.5 62l291 585h232l98 -664h59zM139 251h189l-42 295h-2zM585 885h54q-16 -57 -48 -95.5t-80 -38.5q-40 0 -93 20.5t-68 20.5
q-36 0 -51 -39h-49q7 54 44.5 93.5t89.5 39.5q28 0 80.5 -20t72.5 -20q28 0 47 36v1q1 1 1 2z" />
    <glyph glyph-name="Adieresis" unicode="&#xc4;" horiz-adv-x="778" 
d="M706 0h-423l4 29h72l-27 193h-207q-45 -92 -56 -117t-11 -41q0 -17 12.5 -25.5t22 -9.5t30.5 -2l-5 -27h-177l5 27q25 -1 44.5 19t40.5 62l291 585h232l98 -664h59zM139 251h189l-42 295h-2zM557 736q-34 0 -56.5 23t-22.5 57q0 33 22.5 56t56.5 23q33 0 56.5 -23
t23.5 -56q0 -34 -23 -57t-57 -23zM338 736q-34 0 -57 23t-23 57t23 56.5t57 22.5q33 0 56 -23t23 -56q0 -34 -22.5 -57t-56.5 -23z" />
    <glyph glyph-name="Aring" unicode="&#xc5;" horiz-adv-x="778" 
d="M706 0h-423l4 29h72l-27 193h-207q-45 -92 -56 -117t-11 -41q0 -17 12.5 -25.5t22 -9.5t30.5 -2l-5 -27h-177l5 27q25 -1 44.5 19t40.5 62l291 585h232l98 -664h59zM139 251h189l-42 295h-2zM432 723q-47 0 -79.5 33t-32.5 80q0 46 33 79t79 33t79 -33t33 -79
q0 -47 -33 -80t-79 -33zM432 888q-22 0 -37 -15.5t-15 -36.5q0 -22 15 -37.5t37 -15.5q21 0 36.5 15.5t15.5 37.5q0 21 -15.5 36.5t-36.5 15.5z" />
    <glyph glyph-name="AE" unicode="&#xc6;" horiz-adv-x="944" 
d="M845 257h28l-49 -257h-610l5 29h68l44 242h-154q-14 0 -22 -14l-77 -142q-18 -34 -18 -51q0 -22 22.5 -30t47.5 -7l-5 -27h-174l5 29q22 1 34.5 12.5t28.5 40.5l277 504q18 34 2.5 56t-53.5 22h-30l5 29h687l-22 -252h-29q-7 218 -174 223l-54 -286q56 4 82.5 31t44.5 85
h31l-52 -288h-28q6 70 -11 102t-70 43l-59 -322q104 2 160.5 47.5t118.5 180.5zM179 300h158l62 356h-24z" />
    <glyph glyph-name="Ccedilla" unicode="&#xc7;" horiz-adv-x="778" 
d="M733 430h-26q-16 104 -63 166t-111 62q-57 0 -85 -26.5t-51 -109.5q-15 -57 -33 -155.5t-18 -174.5q0 -77 32 -112.5t104 -35.5q104 0 201 168l32 -14q-59 -113 -138 -163t-204 -50q-4 0 -7 1l-38 -46l2 -2q15 4 38 4q39 0 64.5 -19.5t25.5 -61.5q0 -38 -46.5 -60.5
t-92.5 -22.5q-68 0 -117 31l22 35q33 -19 73 -19q52 0 52 39q0 25 -26.5 31t-45.5 -3l-19 19l61 78q-121 16 -199.5 96t-78.5 204q0 113 57 210t154 153t209 56q50 0 92.5 -15t65.5 -30t27 -15q7 0 91 60h32z" />
    <glyph glyph-name="Egrave" unicode="&#xc8;" horiz-adv-x="778" 
d="M676 258h31l-48 -258h-659l5 29h37l113 635h-72l5 29h659l-21 -253h-32q-7 120 -63.5 172t-175.5 52l-50 -284q60 0 93.5 26.5t52.5 86.5h33l-50 -288h-32q4 67 -17 99.5t-85 45.5l-57 -321h27q28 0 53 2.5t47 10.5t39 13.5t34.5 20t28 22.5t25.5 28.5t21.5 28.5
t20.5 33.5t18 33.5t19 36zM438 872l99 -139h-63l-128 79q-42 27 -42 55q0 24 17 39.5t37 15.5q45 0 80 -50z" />
    <glyph glyph-name="Eacute" unicode="&#xc9;" horiz-adv-x="778" 
d="M676 258h31l-48 -258h-659l5 29h37l113 635h-72l5 29h659l-21 -253h-32q-7 120 -63.5 172t-175.5 52l-50 -284q60 0 93.5 26.5t52.5 86.5h33l-50 -288h-32q4 67 -17 99.5t-85 45.5l-57 -321h27q28 0 53 2.5t47 10.5t39 13.5t34.5 20t28 22.5t25.5 28.5t21.5 28.5
t20.5 33.5t18 33.5t19 36zM419 733h-66l117 139q30 34 48 42q16 8 35 8q24 0 41 -15.5t17 -39.5q0 -32 -43 -55z" />
    <glyph glyph-name="Ecircumflex" unicode="&#xca;" horiz-adv-x="778" 
d="M676 258h31l-48 -258h-659l5 29h37l113 635h-72l5 29h659l-21 -253h-32q-7 120 -63.5 172t-175.5 52l-50 -284q60 0 93.5 26.5t52.5 86.5h33l-50 -288h-32q4 67 -17 99.5t-85 45.5l-57 -321h27q28 0 53 2.5t47 10.5t39 13.5t34.5 20t28 22.5t25.5 28.5t21.5 28.5
t20.5 33.5t18 33.5t19 36zM529 909l83 -176h-64l-97 87l-122 -87h-76l156 176h120z" />
    <glyph glyph-name="Edieresis" unicode="&#xcb;" horiz-adv-x="778" 
d="M676 258h31l-48 -258h-659l5 29h37l113 635h-72l5 29h659l-21 -253h-32q-7 120 -63.5 172t-175.5 52l-50 -284q60 0 93.5 26.5t52.5 86.5h33l-50 -288h-32q4 67 -17 99.5t-85 45.5l-57 -321h27q28 0 53 2.5t47 10.5t39 13.5t34.5 20t28 22.5t25.5 28.5t21.5 28.5
t20.5 33.5t18 33.5t19 36zM557 736q-34 0 -56.5 23t-22.5 57q0 33 22.5 56t56.5 23q33 0 56.5 -23t23.5 -56q0 -34 -23 -57t-57 -23zM338 736q-34 0 -57 23t-23 57t23 56.5t57 22.5q33 0 56 -23t23 -56q0 -34 -22.5 -57t-56.5 -23z" />
    <glyph glyph-name="Igrave" unicode="&#xcc;" horiz-adv-x="500" 
d="M153 664h-72l5 29h409l-5 -29h-35l-114 -635h75l-5 -29h-414l5 29h39zM299 872l99 -139h-63l-128 79q-42 27 -42 55q0 24 17 39.5t37 15.5q45 0 80 -50z" />
    <glyph glyph-name="Iacute" unicode="&#xcd;" horiz-adv-x="500" 
d="M153 664h-72l5 29h409l-5 -29h-35l-114 -635h75l-5 -29h-414l5 29h39zM280 733h-66l117 139q30 34 48 42q16 8 35 8q24 0 41 -15.5t17 -39.5q0 -32 -43 -55z" />
    <glyph glyph-name="Icircumflex" unicode="&#xce;" horiz-adv-x="500" 
d="M153 664h-72l5 29h409l-5 -29h-35l-114 -635h75l-5 -29h-414l5 29h39zM390 909l83 -176h-64l-97 87l-122 -87h-76l156 176h120z" />
    <glyph glyph-name="Idieresis" unicode="&#xcf;" horiz-adv-x="500" 
d="M153 664h-72l5 29h409l-5 -29h-35l-114 -635h75l-5 -29h-414l5 29h39zM418 736q-34 0 -56.5 23t-22.5 57q0 33 22.5 56t56.5 23q33 0 56.5 -23t23.5 -56q0 -34 -23 -57t-57 -23zM199 736q-35 0 -57.5 23t-22.5 57t23 56.5t57 22.5q33 0 56 -23t23 -56q0 -34 -22.5 -57
t-56.5 -23z" />
    <glyph glyph-name="Eth" unicode="&#xd0;" horiz-adv-x="833" 
d="M379 346l-57 -317q52 1 72.5 10t34.5 44q33 82 64 266.5t31 243.5q0 71 -88 71l-52 -289h58l-5 -29h-58zM29 29l58 317h-68l5 29h69l54 289h-71l5 29h361q173 0 268 -74.5t95 -221.5q0 -55 -15.5 -109.5t-50.5 -106.5t-85 -92t-125.5 -64.5t-166.5 -24.5h-373l5 29h35z
" />
    <glyph glyph-name="Ntilde" unicode="&#xd1;" horiz-adv-x="778" 
d="M612 664l5 29h161l-5 -29q-29 0 -39.5 -20t-21.5 -77l-107 -567h-165l-262 555h-2l-84 -459q-8 -42 9 -54.5t69 -12.5l-5 -29h-176l5 29q29 1 42 10t18 37l96 529q-13 35 -33.5 48.5t-72.5 14.5l5 25h377l195 -412h2l58 305q10 51 -5 64.5t-64 13.5zM585 885h54
q-16 -57 -48 -95.5t-80 -38.5q-40 0 -93 20.5t-68 20.5q-36 0 -51 -39h-49q7 54 44.5 93.5t89.5 39.5q28 0 80.5 -20t72.5 -20q28 0 47 36v1q1 1 1 2z" />
    <glyph glyph-name="Ograve" unicode="&#xd2;" horiz-adv-x="833" 
d="M444 144l64 402q5 46 6.5 73t-8 41t-19.5 18t-27 4q-20 0 -31 -8t-24 -44t-25 -99.5t-32 -186.5q-35 -216 -35 -263q0 -38 10 -54t37 -16q34 0 52.5 25t31.5 108zM454 708q81 0 148.5 -26t109.5 -67.5t64.5 -92t22.5 -102.5q0 -113 -52 -211t-154.5 -161t-234.5 -63
q-149 0 -241 87.5t-92 214.5q0 75 33.5 150.5t89.5 135.5t137 97.5t169 37.5zM465 872l99 -139h-63l-128 79q-42 27 -42 55q0 24 17 39.5t37 15.5q45 0 80 -50z" />
    <glyph glyph-name="Oacute" unicode="&#xd3;" horiz-adv-x="833" 
d="M444 144l64 402q5 46 6.5 73t-8 41t-19.5 18t-27 4q-20 0 -31 -8t-24 -44t-25 -99.5t-32 -186.5q-35 -216 -35 -263q0 -38 10 -54t37 -16q34 0 52.5 25t31.5 108zM454 708q81 0 148.5 -26t109.5 -67.5t64.5 -92t22.5 -102.5q0 -113 -52 -211t-154.5 -161t-234.5 -63
q-149 0 -241 87.5t-92 214.5q0 75 33.5 150.5t89.5 135.5t137 97.5t169 37.5zM446 733h-66l117 139q30 34 48 42q16 8 35 8q24 0 41 -15.5t17 -39.5q0 -32 -43 -55z" />
    <glyph glyph-name="Ocircumflex" unicode="&#xd4;" horiz-adv-x="833" 
d="M444 144l64 402q5 46 6.5 73t-8 41t-19.5 18t-27 4q-20 0 -31 -8t-24 -44t-25 -99.5t-32 -186.5q-35 -216 -35 -263q0 -38 10 -54t37 -16q34 0 52.5 25t31.5 108zM454 708q81 0 148.5 -26t109.5 -67.5t64.5 -92t22.5 -102.5q0 -113 -52 -211t-154.5 -161t-234.5 -63
q-149 0 -241 87.5t-92 214.5q0 75 33.5 150.5t89.5 135.5t137 97.5t169 37.5zM556 909l83 -176h-64l-97 87l-122 -87h-76l156 176h120z" />
    <glyph glyph-name="Otilde" unicode="&#xd5;" horiz-adv-x="833" 
d="M444 144l64 402q5 46 6.5 73t-8 41t-19.5 18t-27 4q-20 0 -31 -8t-24 -44t-25 -99.5t-32 -186.5q-35 -216 -35 -263q0 -38 10 -54t37 -16q34 0 52.5 25t31.5 108zM454 708q81 0 148.5 -26t109.5 -67.5t64.5 -92t22.5 -102.5q0 -113 -52 -211t-154.5 -161t-234.5 -63
q-149 0 -241 87.5t-92 214.5q0 75 33.5 150.5t89.5 135.5t137 97.5t169 37.5zM612 885h54q-16 -57 -48 -95.5t-80 -38.5q-40 0 -93 20.5t-68 20.5q-36 0 -51 -39h-49q7 54 44.5 93.5t89.5 39.5q28 0 80.5 -20t72.5 -20q28 0 47 36l1 1v2z" />
    <glyph glyph-name="Odieresis" unicode="&#xd6;" horiz-adv-x="833" 
d="M444 144l64 402q5 46 6.5 73t-8 41t-19.5 18t-27 4q-20 0 -31 -8t-24 -44t-25 -99.5t-32 -186.5q-35 -216 -35 -263q0 -38 10 -54t37 -16q34 0 52.5 25t31.5 108zM454 708q81 0 148.5 -26t109.5 -67.5t64.5 -92t22.5 -102.5q0 -113 -52 -211t-154.5 -161t-234.5 -63
q-149 0 -241 87.5t-92 214.5q0 75 33.5 150.5t89.5 135.5t137 97.5t169 37.5zM584 736q-34 0 -56.5 23t-22.5 57q0 33 22.5 56t56.5 23q33 0 56.5 -23t23.5 -56q0 -34 -23 -57t-57 -23zM365 736q-35 0 -57.5 23t-22.5 57t23 56.5t57 22.5q33 0 56 -23t23 -56
q0 -34 -22.5 -57t-56.5 -23z" />
    <glyph glyph-name="multiply" unicode="&#xd7;" horiz-adv-x="600" 
d="M213 253l-154 154l82 82l154 -154l154 154l82 -82l-155 -154l155 -154l-82 -82l-154 155l-154 -155l-82 82z" />
    <glyph glyph-name="Oslash" unicode="&#xd8;" horiz-adv-x="833" 
d="M489 427l-169 -259q-7 -61 -7 -87q0 -38 12 -54t44 -16q23 0 39.5 22.5t27.5 79.5q44 236 55 312zM341 289l167 257q6 50 6 70q0 37 -12.5 51.5t-44.5 14.5q-12 0 -20 -5.5t-19.5 -27.5t-22 -62.5t-25 -114.5t-31.5 -181zM646 755h62l-62 -93q73 -41 113 -106.5
t40 -135.5q0 -113 -52 -211t-154.5 -161t-234.5 -63q-78 0 -141 26l-48 -73h-61l63 95q-69 40 -107.5 107t-38.5 147q0 75 33.5 150.5t89.5 135.5t137 97.5t169 37.5q81 0 145 -25z" />
    <glyph glyph-name="Ugrave" unicode="&#xd9;" horiz-adv-x="778" 
d="M778 693l-5 -27q-28 -4 -38.5 -19t-15.5 -45l-69 -373q-14 -76 -39.5 -124t-68.5 -74.5t-95.5 -36t-131.5 -9.5q-82 0 -139 21t-83.5 55.5t-35 72.5t-1.5 80l78 450h-84l5 29h465l-5 -29h-83l-88 -518q-18 -107 92 -107q64 0 113 43.5t67 145.5l68 384q5 27 -12 41
t-54 13l5 27h155zM453 872l99 -139h-63l-128 79q-42 27 -42 55q0 24 17 39.5t37 15.5q45 0 80 -50z" />
    <glyph glyph-name="Uacute" unicode="&#xda;" horiz-adv-x="778" 
d="M778 693l-5 -27q-28 -4 -38.5 -19t-15.5 -45l-69 -373q-14 -76 -39.5 -124t-68.5 -74.5t-95.5 -36t-131.5 -9.5q-82 0 -139 21t-83.5 55.5t-35 72.5t-1.5 80l78 450h-84l5 29h465l-5 -29h-83l-88 -518q-18 -107 92 -107q64 0 113 43.5t67 145.5l68 384q5 27 -12 41
t-54 13l5 27h155zM449 733h-66l117 139q30 34 48 42q16 8 35 8q24 0 41 -15.5t17 -39.5q0 -32 -43 -55z" />
    <glyph glyph-name="Ucircumflex" unicode="&#xdb;" horiz-adv-x="778" 
d="M778 693l-5 -27q-28 -4 -38.5 -19t-15.5 -45l-69 -373q-14 -76 -39.5 -124t-68.5 -74.5t-95.5 -36t-131.5 -9.5q-82 0 -139 21t-83.5 55.5t-35 72.5t-1.5 80l78 450h-84l5 29h465l-5 -29h-83l-88 -518q-18 -107 92 -107q64 0 113 43.5t67 145.5l68 384q5 27 -12 41
t-54 13l5 27h155zM549 909l83 -176h-64l-97 87l-122 -87h-76l156 176h120z" />
    <glyph glyph-name="Udieresis" unicode="&#xdc;" horiz-adv-x="778" 
d="M778 693l-5 -27q-28 -4 -38.5 -19t-15.5 -45l-69 -373q-14 -76 -39.5 -124t-68.5 -74.5t-95.5 -36t-131.5 -9.5q-82 0 -139 21t-83.5 55.5t-35 72.5t-1.5 80l78 450h-84l5 29h465l-5 -29h-83l-88 -518q-18 -107 92 -107q64 0 113 43.5t67 145.5l68 384q5 27 -12 41
t-54 13l5 27h155zM587 736q-34 0 -56.5 23t-22.5 57q0 33 22.5 56t56.5 23q33 0 56.5 -23t23.5 -56q0 -34 -23 -57t-57 -23zM368 736q-34 0 -57 23t-23 57t23 56.5t57 22.5q33 0 56 -23t23 -56q0 -34 -22.5 -57t-56.5 -23z" />
    <glyph glyph-name="Yacute" unicode="&#xdd;" horiz-adv-x="778" 
d="M613 664l5 29h182l-5 -29q-39 -5 -61 -45l-182 -323l-45 -267h96l-5 -29h-481l5 29h84l43 250l-165 385h-57l5 29h435l-5 -29h-73l141 -339l111 197q52 95 51 107q-1 19 -16 26.5t-63 8.5zM459 733h-66l117 139q30 34 48 42q16 8 35 8q24 0 41 -15.5t17 -39.5
q0 -32 -43 -55z" />
    <glyph glyph-name="Thorn" unicode="&#xde;" horiz-adv-x="833" 
d="M414 519l-57 -329q57 0 80.5 12.5t35.5 55.5q11 40 21 105.5t10 94.5q0 35 -11 48t-42 13h-37zM413 0h-424l5 29h41l110 635h-70l5 29h396l-5 -29h-31l-20 -116h56q168 0 246.5 -44t78.5 -147q0 -65 -49 -109.5t-121 -64.5q-75 -20 -279 -20l-23 -134h89z" />
    <glyph glyph-name="germandbls" unicode="&#xdf;" 
d="M660 543q0 -53 -33.5 -90.5t-78.5 -54t-96 -19.5v-2q180 -40 180 -183q0 -89 -63 -149t-153 -60q-47 0 -77.5 14t-59.5 48l20 22q12 -16 31 -16q26 0 34 42q6 30 16 81t13.5 69t6.5 43.5t3 46.5q0 25 -9.5 32t-35.5 8q-10 0 -10 12t12 12h21q12 0 18 5t10 21
q11 41 24.5 110t13.5 103q0 23 -10.5 32.5t-35.5 9.5q-22 0 -34.5 -16.5t-22.5 -74.5l-103 -594q-17 1 -59 3t-66 2q-14 0 -109 -5l86 479q42 234 289 234q142 0 210 -46.5t68 -118.5z" />
    <glyph glyph-name="agrave" unicode="&#xe0;" horiz-adv-x="722" 
d="M668 174h23q-34 -113 -81 -151t-119 -38q-62 0 -93.5 39t-29.5 100l-2 2q-26 -141 -163 -141q-93 0 -141.5 62.5t-48.5 158.5q0 111 75 196t175 85q59 0 93.5 -23.5t49.5 -78.5h2l17 93q16 -1 50 -3q36 -2 54 -2q10 0 120 5l-62 -328q-9 -53 -6.5 -71.5t17.5 -18.5
q7 0 13.5 4.5t13 14t11.5 18.5t11 22.5t9 21t7.5 20t4.5 13.5zM383 357q0 65 -30 65q-24 0 -34.5 -12t-25.5 -59q-14 -44 -24 -116t-10 -105q0 -73 37 -73q24 0 36.5 25t29.5 102q21 98 21 173zM410 686l99 -139h-63l-128 79q-42 27 -42 55q0 24 17 39.5t37 15.5
q45 0 80 -50z" />
    <glyph glyph-name="aacute" unicode="&#xe1;" horiz-adv-x="722" 
d="M668 174h23q-34 -113 -81 -151t-119 -38q-62 0 -93.5 39t-29.5 100l-2 2q-26 -141 -163 -141q-93 0 -141.5 62.5t-48.5 158.5q0 111 75 196t175 85q59 0 93.5 -23.5t49.5 -78.5h2l17 93q16 -1 50 -3q36 -2 54 -2q10 0 120 5l-62 -328q-9 -53 -6.5 -71.5t17.5 -18.5
q7 0 13.5 4.5t13 14t11.5 18.5t11 22.5t9 21t7.5 20t4.5 13.5zM383 357q0 65 -30 65q-24 0 -34.5 -12t-25.5 -59q-14 -44 -24 -116t-10 -105q0 -73 37 -73q24 0 36.5 25t29.5 102q21 98 21 173zM391 547h-66l117 139q30 34 48 42q16 8 35 8q24 0 41 -15.5t17 -39.5
q0 -32 -43 -55z" />
    <glyph glyph-name="acircumflex" unicode="&#xe2;" horiz-adv-x="722" 
d="M668 174h23q-34 -113 -81 -151t-119 -38q-62 0 -93.5 39t-29.5 100l-2 2q-26 -141 -163 -141q-93 0 -141.5 62.5t-48.5 158.5q0 111 75 196t175 85q59 0 93.5 -23.5t49.5 -78.5h2l17 93q16 -1 50 -3q36 -2 54 -2q10 0 120 5l-62 -328q-9 -53 -6.5 -71.5t17.5 -18.5
q7 0 13.5 4.5t13 14t11.5 18.5t11 22.5t9 21t7.5 20t4.5 13.5zM383 357q0 65 -30 65q-24 0 -34.5 -12t-25.5 -59q-14 -44 -24 -116t-10 -105q0 -73 37 -73q24 0 36.5 25t29.5 102q21 98 21 173zM501 723l83 -176h-64l-97 87l-122 -87h-76l156 176h120z" />
    <glyph glyph-name="atilde" unicode="&#xe3;" horiz-adv-x="722" 
d="M668 174h23q-34 -113 -81 -151t-119 -38q-62 0 -93.5 39t-29.5 100l-2 2q-26 -141 -163 -141q-93 0 -141.5 62.5t-48.5 158.5q0 111 75 196t175 85q59 0 93.5 -23.5t49.5 -78.5h2l17 93q16 -1 50 -3q36 -2 54 -2q10 0 120 5l-62 -328q-9 -53 -6.5 -71.5t17.5 -18.5
q7 0 13.5 4.5t13 14t11.5 18.5t11 22.5t9 21t7.5 20t4.5 13.5zM383 357q0 65 -30 65q-24 0 -34.5 -12t-25.5 -59q-14 -44 -24 -116t-10 -105q0 -73 37 -73q24 0 36.5 25t29.5 102q21 98 21 173zM557 699h54q-16 -57 -48 -95.5t-80 -38.5q-40 0 -93 20.5t-68 20.5
q-36 0 -51 -39h-49q7 54 44.5 93.5t89.5 39.5q28 0 80.5 -20t72.5 -20q28 0 47 36v1q1 1 1 2z" />
    <glyph glyph-name="adieresis" unicode="&#xe4;" horiz-adv-x="722" 
d="M668 174h23q-34 -113 -81 -151t-119 -38q-62 0 -93.5 39t-29.5 100l-2 2q-26 -141 -163 -141q-93 0 -141.5 62.5t-48.5 158.5q0 111 75 196t175 85q59 0 93.5 -23.5t49.5 -78.5h2l17 93q16 -1 50 -3q36 -2 54 -2q10 0 120 5l-62 -328q-9 -53 -6.5 -71.5t17.5 -18.5
q7 0 13.5 4.5t13 14t11.5 18.5t11 22.5t9 21t7.5 20t4.5 13.5zM383 357q0 65 -30 65q-24 0 -34.5 -12t-25.5 -59q-14 -44 -24 -116t-10 -105q0 -73 37 -73q24 0 36.5 25t29.5 102q21 98 21 173zM529 550q-34 0 -56.5 23t-22.5 57q0 33 22.5 56t56.5 23q33 0 56.5 -23
t23.5 -56q0 -34 -23 -57t-57 -23zM310 550q-34 0 -57 23t-23 57t23 56.5t57 22.5q33 0 56 -23t23 -56q0 -34 -22.5 -57t-56.5 -23z" />
    <glyph glyph-name="aring" unicode="&#xe5;" horiz-adv-x="722" 
d="M668 174h23q-34 -113 -81 -151t-119 -38q-62 0 -93.5 39t-29.5 100l-2 2q-26 -141 -163 -141q-93 0 -141.5 62.5t-48.5 158.5q0 111 75 196t175 85q59 0 93.5 -23.5t49.5 -78.5h2l17 93q16 -1 50 -3q36 -2 54 -2q10 0 120 5l-62 -328q-9 -53 -6.5 -71.5t17.5 -18.5
q7 0 13.5 4.5t13 14t11.5 18.5t11 22.5t9 21t7.5 20t4.5 13.5zM383 357q0 65 -30 65q-24 0 -34.5 -12t-25.5 -59q-14 -44 -24 -116t-10 -105q0 -73 37 -73q24 0 36.5 25t29.5 102q21 98 21 173zM404 547q-47 0 -79.5 33t-32.5 80q0 46 33 79t79 33t79 -33t33 -79
q0 -47 -33 -80t-79 -33zM404 712q-22 0 -37 -15.5t-15 -36.5q0 -22 15 -37.5t37 -15.5q21 0 36.5 15.5t15.5 37.5q0 21 -15.5 36.5t-36.5 15.5z" />
    <glyph glyph-name="ae" unicode="&#xe6;" horiz-adv-x="944" 
d="M603 486l-10 -55q46 32 85 45q38 11 95 11q67 0 110 -37t43 -78q0 -79 -72.5 -125.5t-223.5 -46.5h-50q-6 -28 -6 -72q0 -57 20 -79t77 -22q110 0 204 109h32q-115 -151 -305 -151q-85 0 -136.5 24.5t-76.5 91.5q-28 -59 -71 -87.5t-109 -28.5q-94 0 -142.5 58.5
t-48.5 152.5q0 108 70.5 199.5t175.5 91.5q97 0 148 -82l16 81q55 -5 90 -5q42 0 85 5zM347 433q-20 0 -30 -16.5t-20 -55.5q-16 -62 -32.5 -162.5t-16.5 -133.5q0 -26 7.5 -34t25.5 -8q31 0 49 55q18 59 37 159.5t19 143.5q0 52 -39 52zM583 223q48 -1 69 8.5t30 37.5
q24 72 24 137q0 40 -36 40q-24 0 -35 -19t-23 -72z" />
    <glyph glyph-name="ccedilla" unicode="&#xe7;" horiz-adv-x="611" 
d="M509 99l23 -12q-45 -46 -113 -73t-137 -29l-38 -45l2 -2q15 4 38 4q39 0 64.5 -19.5t25.5 -61.5q0 -38 -46.5 -60.5t-92.5 -22.5q-68 0 -117 31l22 35q33 -19 73 -19q52 0 52 39q0 25 -26.5 31t-45.5 -3l-19 19l59 76q-57 5 -100.5 23t-67 41t-38.5 53t-19.5 53t-4.5 46
q0 37 14 75.5t44 76t71.5 67t102 47.5t129.5 18q50 0 94.5 -11t80 -42t35.5 -79q0 -47 -33.5 -74.5t-81.5 -27.5q-43 0 -76.5 26.5t-33.5 70.5q0 24 8 40.5t17.5 23.5t17.5 13t8 10q0 28 -41 28q-12 0 -22 -5.5t-15.5 -12t-11.5 -19.5t-8 -19t-6 -21q-40 -139 -40 -251
q0 -107 90 -107q70 0 163 69z" />
    <glyph glyph-name="egrave" unicode="&#xe8;" 
d="M571 134h31q-117 -149 -336 -149q-115 0 -186 55.5t-71 157.5q0 113 109.5 201t272.5 88q49 0 96.5 -10.5t88.5 -43t41 -82.5q0 -70 -76 -111.5t-190 -41.5q-11 0 -89 3q-9 -36 -9 -66q0 -106 85 -106q142 0 233 105zM393 413q0 24 -9 34.5t-34 10.5q-19 0 -30 -15.5
t-21 -49.5q-26 -90 -34 -172q58 0 78 16q21 18 35.5 70t14.5 106zM382 686l99 -139h-63l-128 79q-42 27 -42 55q0 24 17 39.5t37 15.5q45 0 80 -50z" />
    <glyph glyph-name="eacute" unicode="&#xe9;" 
d="M571 134h31q-117 -149 -336 -149q-115 0 -186 55.5t-71 157.5q0 113 109.5 201t272.5 88q49 0 96.5 -10.5t88.5 -43t41 -82.5q0 -70 -76 -111.5t-190 -41.5q-11 0 -89 3q-9 -36 -9 -66q0 -106 85 -106q142 0 233 105zM393 413q0 24 -9 34.5t-34 10.5q-19 0 -30 -15.5
t-21 -49.5q-26 -90 -34 -172q58 0 78 16q21 18 35.5 70t14.5 106zM363 547h-66l117 139q30 34 48 42q16 8 35 8q24 0 41 -15.5t17 -39.5q0 -32 -43 -55z" />
    <glyph glyph-name="ecircumflex" unicode="&#xea;" 
d="M571 134h31q-117 -149 -336 -149q-115 0 -186 55.5t-71 157.5q0 113 109.5 201t272.5 88q49 0 96.5 -10.5t88.5 -43t41 -82.5q0 -70 -76 -111.5t-190 -41.5q-11 0 -89 3q-9 -36 -9 -66q0 -106 85 -106q142 0 233 105zM393 413q0 24 -9 34.5t-34 10.5q-19 0 -30 -15.5
t-21 -49.5q-26 -90 -34 -172q58 0 78 16q21 18 35.5 70t14.5 106zM473 723l83 -176h-64l-97 87l-122 -87h-76l156 176h120z" />
    <glyph glyph-name="edieresis" unicode="&#xeb;" 
d="M571 134h31q-117 -149 -336 -149q-115 0 -186 55.5t-71 157.5q0 113 109.5 201t272.5 88q49 0 96.5 -10.5t88.5 -43t41 -82.5q0 -70 -76 -111.5t-190 -41.5q-11 0 -89 3q-9 -36 -9 -66q0 -106 85 -106q142 0 233 105zM393 413q0 24 -9 34.5t-34 10.5q-19 0 -30 -15.5
t-21 -49.5q-26 -90 -34 -172q58 0 78 16q21 18 35.5 70t14.5 106zM501 550q-34 0 -56.5 23t-22.5 57q0 33 22.5 56t56.5 23q33 0 56.5 -23t23.5 -56q0 -34 -23 -57t-57 -23zM282 550q-34 0 -57 23t-23 57t23 56.5t57 22.5q33 0 56 -23t23 -56q0 -34 -22.5 -57t-56.5 -23z
" />
    <glyph glyph-name="igrave" unicode="&#xec;" horiz-adv-x="389" 
d="M353 185h24q-30 -115 -80 -155.5t-118 -40.5q-63 0 -97 34.5t-34 100.5q0 52 22.5 142t22.5 99q0 34 -21 34q-18 0 -31.5 -29.5t-30.5 -88.5h-21q22 101 63 152t120 51q66 0 105 -41t39 -110q0 -49 -25 -139.5t-25 -100.5q0 -22 19 -22q10 0 19 9t17 24.5t13.5 29
t11 30.5t7.5 21zM243 686l99 -139h-63l-128 79q-42 27 -42 55q0 24 17 39.5t37 15.5q45 0 80 -50z" />
    <glyph glyph-name="iacute" unicode="&#xed;" horiz-adv-x="389" 
d="M353 185h24q-30 -115 -80 -155.5t-118 -40.5q-63 0 -97 34.5t-34 100.5q0 52 22.5 142t22.5 99q0 34 -21 34q-18 0 -31.5 -29.5t-30.5 -88.5h-21q22 101 63 152t120 51q66 0 105 -41t39 -110q0 -49 -25 -139.5t-25 -100.5q0 -22 19 -22q10 0 19 9t17 24.5t13.5 29
t11 30.5t7.5 21zM224 547h-66l117 139q30 34 48 42q16 8 35 8q24 0 41 -15.5t17 -39.5q0 -32 -43 -55z" />
    <glyph glyph-name="icircumflex" unicode="&#xee;" horiz-adv-x="389" 
d="M353 185h24q-30 -115 -80 -155.5t-118 -40.5q-63 0 -97 34.5t-34 100.5q0 52 22.5 142t22.5 99q0 34 -21 34q-18 0 -31.5 -29.5t-30.5 -88.5h-21q22 101 63 152t120 51q66 0 105 -41t39 -110q0 -49 -25 -139.5t-25 -100.5q0 -22 19 -22q10 0 19 9t17 24.5t13.5 29
t11 30.5t7.5 21zM334 723l83 -176h-64l-97 87l-122 -87h-76l156 176h120z" />
    <glyph glyph-name="idieresis" unicode="&#xef;" horiz-adv-x="389" 
d="M353 185h24q-30 -115 -80 -155.5t-118 -40.5q-63 0 -97 34.5t-34 100.5q0 52 22.5 142t22.5 99q0 34 -21 34q-18 0 -31.5 -29.5t-30.5 -88.5h-21q22 101 63 152t120 51q66 0 105 -41t39 -110q0 -49 -25 -139.5t-25 -100.5q0 -22 19 -22q10 0 19 9t17 24.5t13.5 29
t11 30.5t7.5 21zM362 550q-34 0 -56.5 23t-22.5 57q0 33 22.5 56t56.5 23q33 0 56.5 -23t23.5 -56q0 -34 -23 -57t-57 -23zM143 550q-35 0 -57.5 23t-22.5 57t23 56.5t57 22.5q33 0 56 -23t23 -56q0 -34 -22.5 -57t-56.5 -23z" />
    <glyph glyph-name="eth" unicode="&#xf0;" 
d="M291 7q23 0 36.5 24t26.5 96q7 35 21.5 107t20.5 110t6 66q0 48 -36 48q-18 0 -32.5 -21t-21.5 -55q-55 -251 -55 -325q0 -50 34 -50zM673 654l-129 -38q84 -100 84 -266q0 -97 -26.5 -169t-74 -114t-107 -62t-131.5 -20q-69 0 -123 21t-84.5 54.5t-45.5 71t-15 75.5
q0 119 87 199.5t240 80.5q46 0 74 -17q-6 57 -28 101l-145 -43l-50 44l166 49q-24 34 -59 61l93 26q54 -12 100 -47l124 37z" />
    <glyph glyph-name="ntilde" unicode="&#xf1;" horiz-adv-x="722" 
d="M23 294h-21q19 84 64.5 138.5t114.5 54.5q28 0 51 -8.5t42.5 -28.5t28 -58.5t2.5 -93.5h2q25 82 74.5 135.5t124.5 53.5q64 0 103 -37.5t39 -107.5q0 -57 -27 -150t-27 -109q0 -15 17 -15q14 0 28.5 24.5t41.5 90.5h23q-14 -41 -23.5 -64t-26.5 -51.5t-36 -43t-49.5 -25
t-69.5 -10.5q-48 0 -83.5 31t-35.5 98q0 58 24 150t24 107q0 16 -4.5 22.5t-15.5 6.5q-47 0 -101 -178l-40 -231q-25 1 -57 3q-40 2 -61 2q-7 0 -119 -5l61 332q13 73 -7 73q-26 0 -61 -106zM557 699h54q-16 -57 -48 -95.5t-80 -38.5q-40 0 -93 20.5t-68 20.5q-36 0 -51 -39
h-49q7 54 44.5 93.5t89.5 39.5q28 0 80.5 -20t72.5 -20q28 0 47 36v1q1 1 1 2z" />
    <glyph glyph-name="ograve" unicode="&#xf2;" 
d="M397 430q0 15 -9 25t-24 10q-18 0 -30.5 -15t-21.5 -55q-60 -259 -60 -338q0 -50 34 -50q23 0 36.5 23.5t25.5 90.5q6 33 17 89t16.5 85.5t10.5 67.5t5 67zM628 265q0 -126 -98 -203t-241 -77q-69 0 -123 21t-84.5 54.5t-45.5 71t-15 75.5q0 117 95 198.5t248 81.5
q63 0 121 -22.5t100.5 -74.5t42.5 -125zM382 686l99 -139h-63l-128 79q-42 27 -42 55q0 24 17 39.5t37 15.5q45 0 80 -50z" />
    <glyph glyph-name="oacute" unicode="&#xf3;" 
d="M397 430q0 15 -9 25t-24 10q-18 0 -30.5 -15t-21.5 -55q-60 -259 -60 -338q0 -50 34 -50q23 0 36.5 23.5t25.5 90.5q6 33 17 89t16.5 85.5t10.5 67.5t5 67zM628 265q0 -126 -98 -203t-241 -77q-69 0 -123 21t-84.5 54.5t-45.5 71t-15 75.5q0 117 95 198.5t248 81.5
q63 0 121 -22.5t100.5 -74.5t42.5 -125zM363 547h-66l117 139q30 34 48 42q16 8 35 8q24 0 41 -15.5t17 -39.5q0 -32 -43 -55z" />
    <glyph glyph-name="ocircumflex" unicode="&#xf4;" 
d="M397 430q0 15 -9 25t-24 10q-18 0 -30.5 -15t-21.5 -55q-60 -259 -60 -338q0 -50 34 -50q23 0 36.5 23.5t25.5 90.5q6 33 17 89t16.5 85.5t10.5 67.5t5 67zM628 265q0 -126 -98 -203t-241 -77q-69 0 -123 21t-84.5 54.5t-45.5 71t-15 75.5q0 117 95 198.5t248 81.5
q63 0 121 -22.5t100.5 -74.5t42.5 -125zM473 723l83 -176h-64l-97 87l-122 -87h-76l156 176h120z" />
    <glyph glyph-name="otilde" unicode="&#xf5;" 
d="M397 430q0 15 -9 25t-24 10q-18 0 -30.5 -15t-21.5 -55q-60 -259 -60 -338q0 -50 34 -50q23 0 36.5 23.5t25.5 90.5q6 33 17 89t16.5 85.5t10.5 67.5t5 67zM628 265q0 -126 -98 -203t-241 -77q-69 0 -123 21t-84.5 54.5t-45.5 71t-15 75.5q0 117 95 198.5t248 81.5
q63 0 121 -22.5t100.5 -74.5t42.5 -125zM529 699h54q-16 -57 -48 -95.5t-80 -38.5q-40 0 -93 20.5t-68 20.5q-36 0 -51 -39h-49q7 54 44.5 93.5t89.5 39.5q28 0 80.5 -20t72.5 -20q28 0 47 36v1q1 1 1 2z" />
    <glyph glyph-name="odieresis" unicode="&#xf6;" 
d="M397 430q0 15 -9 25t-24 10q-18 0 -30.5 -15t-21.5 -55q-60 -259 -60 -338q0 -50 34 -50q23 0 36.5 23.5t25.5 90.5q6 33 17 89t16.5 85.5t10.5 67.5t5 67zM628 265q0 -126 -98 -203t-241 -77q-69 0 -123 21t-84.5 54.5t-45.5 71t-15 75.5q0 117 95 198.5t248 81.5
q63 0 121 -22.5t100.5 -74.5t42.5 -125zM501 550q-34 0 -56.5 23t-22.5 57q0 33 22.5 56t56.5 23q33 0 56.5 -23t23.5 -56q0 -34 -23 -57t-57 -23zM282 550q-34 0 -57 23t-23 57t23 56.5t57 22.5q33 0 56 -23t23 -56q0 -34 -22.5 -57t-56.5 -23z" />
    <glyph glyph-name="divide" unicode="&#xf7;" horiz-adv-x="600" 
d="M542 193h-504v120h504v-120zM198 460q0 38 27.5 65.5t65.5 27.5q37 0 64.5 -28t27.5 -65q0 -35 -27.5 -63.5t-63.5 -28.5q-38 0 -66 27.5t-28 64.5zM198 46q0 38 27.5 65t65.5 27q37 0 64.5 -27.5t27.5 -64.5q0 -35 -27.5 -64t-63.5 -29q-38 0 -66 27.5t-28 65.5z" />
    <glyph glyph-name="oslash" unicode="&#xf8;" 
d="M268 165l130 240q0 60 -34 60q-19 0 -31 -14.5t-21 -55.5q-28 -124 -46 -228zM386 325l-137 -253q1 -38 10.5 -51.5t26.5 -13.5q23 0 36.5 24t26.5 96q8 41 21.5 107t17.5 89zM215 -8l-71 -131h-51l79 143q-75 27 -113 84.5t-38 118.5q0 117 95 198.5t248 81.5
q35 0 66 -8l63 115h48l-68 -127q68 -24 111.5 -75t43.5 -127q0 -126 -98 -203t-241 -77q-42 0 -74 7z" />
    <glyph glyph-name="ugrave" unicode="&#xf9;" horiz-adv-x="722" 
d="M22 293h-24q13 45 27 75.5t36.5 60t56.5 44t80 14.5q53 0 90 -34t37 -106q0 -49 -25.5 -137t-25.5 -121q0 -23 23 -23q15 0 31 17.5t25 35.5q49 95 84 359q17 -1 53 -3t53 -2q24 0 69 2t64 3q-41 -198 -62 -333q-8 -42 -5.5 -57.5t15.5 -15.5q7 0 13.5 5.5t18.5 29.5
t27 69h23q-31 -107 -77 -149t-109 -42q-137 0 -121 179l-2 2q-43 -99 -87.5 -140t-120.5 -41q-61 0 -99 38.5t-38 99.5q0 39 15 107.5t34 123.5q18 52 -11 52q-35 0 -68 -113zM410 686l99 -139h-63l-128 79q-42 27 -42 55q0 24 17 39.5t37 15.5q45 0 80 -50z" />
    <glyph glyph-name="uacute" unicode="&#xfa;" horiz-adv-x="722" 
d="M22 293h-24q13 45 27 75.5t36.5 60t56.5 44t80 14.5q53 0 90 -34t37 -106q0 -49 -25.5 -137t-25.5 -121q0 -23 23 -23q15 0 31 17.5t25 35.5q49 95 84 359q17 -1 53 -3t53 -2q24 0 69 2t64 3q-41 -198 -62 -333q-8 -42 -5.5 -57.5t15.5 -15.5q7 0 13.5 5.5t18.5 29.5
t27 69h23q-31 -107 -77 -149t-109 -42q-137 0 -121 179l-2 2q-43 -99 -87.5 -140t-120.5 -41q-61 0 -99 38.5t-38 99.5q0 39 15 107.5t34 123.5q18 52 -11 52q-35 0 -68 -113zM391 547h-66l117 139q30 34 48 42q16 8 35 8q24 0 41 -15.5t17 -39.5q0 -32 -43 -55z" />
    <glyph glyph-name="ucircumflex" unicode="&#xfb;" horiz-adv-x="722" 
d="M22 293h-24q13 45 27 75.5t36.5 60t56.5 44t80 14.5q53 0 90 -34t37 -106q0 -49 -25.5 -137t-25.5 -121q0 -23 23 -23q15 0 31 17.5t25 35.5q49 95 84 359q17 -1 53 -3t53 -2q24 0 69 2t64 3q-41 -198 -62 -333q-8 -42 -5.5 -57.5t15.5 -15.5q7 0 13.5 5.5t18.5 29.5
t27 69h23q-31 -107 -77 -149t-109 -42q-137 0 -121 179l-2 2q-43 -99 -87.5 -140t-120.5 -41q-61 0 -99 38.5t-38 99.5q0 39 15 107.5t34 123.5q18 52 -11 52q-35 0 -68 -113zM501 723l83 -176h-64l-97 87l-122 -87h-76l156 176h120z" />
    <glyph glyph-name="udieresis" unicode="&#xfc;" horiz-adv-x="722" 
d="M22 293h-24q13 45 27 75.5t36.5 60t56.5 44t80 14.5q53 0 90 -34t37 -106q0 -49 -25.5 -137t-25.5 -121q0 -23 23 -23q15 0 31 17.5t25 35.5q49 95 84 359q17 -1 53 -3t53 -2q24 0 69 2t64 3q-41 -198 -62 -333q-8 -42 -5.5 -57.5t15.5 -15.5q7 0 13.5 5.5t18.5 29.5
t27 69h23q-31 -107 -77 -149t-109 -42q-137 0 -121 179l-2 2q-43 -99 -87.5 -140t-120.5 -41q-61 0 -99 38.5t-38 99.5q0 39 15 107.5t34 123.5q18 52 -11 52q-35 0 -68 -113zM529 550q-34 0 -56.5 23t-22.5 57q0 33 22.5 56t56.5 23q33 0 56.5 -23t23.5 -56q0 -34 -23 -57
t-57 -23zM310 550q-34 0 -57 23t-23 57t23 56.5t57 22.5q33 0 56 -23t23 -56q0 -34 -22.5 -57t-56.5 -23z" />
    <glyph glyph-name="yacute" unicode="&#xfd;" 
d="M17 293h-22q12 41 26 72t36 60.5t54.5 45.5t74.5 16q63 0 101 -32.5t38 -94.5q0 -32 -6 -67.5t-19 -90t-18 -77.5q-4 -18 1.5 -30t15.5 -12q26 0 50.5 51.5t35.5 111.5l43 232q9 0 26.5 -1t26.5 -2q38 -2 59 -2q13 0 123 5q-20 -83 -49.5 -248.5t-33.5 -184.5
q-12 -62 -33 -106t-60 -81t-103 -55.5t-154 -18.5q-212 0 -212 100q0 44 34 63.5t82 19.5q34 0 62 -20.5t28 -52.5q0 -24 -16.5 -43t-16.5 -24q0 -19 38 -19q22 0 38 8.5t36 38t37.5 97t33.5 174.5l-2 2q-45 -67 -83.5 -97.5t-103.5 -30.5q-57 0 -93.5 35t-36.5 103
q0 44 25.5 142t25.5 101q0 14 -3 21t-15 7q-15 0 -30.5 -23t-40.5 -93zM363 547h-66l117 139q30 34 48 42q16 8 35 8q24 0 41 -15.5t17 -39.5q0 -32 -43 -55z" />
    <glyph glyph-name="thorn" unicode="&#xfe;" horiz-adv-x="722" 
d="M270 71l-47 -260h85l-4 -29h-384l5 29h64l149 853h-83l5 29h63q90 0 251 11l-52 -299l3 -3q16 41 53.5 63t85.5 22q85 0 140 -56.5t55 -164.5q0 -71 -23 -131.5t-79 -103.5t-136 -43q-109 0 -149 83h-2zM284 110q0 -51 37 -51q28 0 43 33q14 30 32 125.5t18 137.5
q0 18 -1.5 28.5t-10.5 20t-25 9.5q-29 0 -50 -50q-16 -37 -29.5 -122.5t-13.5 -130.5z" />
    <glyph glyph-name="ydieresis" unicode="&#xff;" 
d="M17 293h-22q12 41 26 72t36 60.5t54.5 45.5t74.5 16q63 0 101 -32.5t38 -94.5q0 -32 -6 -67.5t-19 -90t-18 -77.5q-4 -18 1.5 -30t15.5 -12q26 0 50.5 51.5t35.5 111.5l43 232q9 0 26.5 -1t26.5 -2q38 -2 59 -2q13 0 123 5q-20 -83 -49.5 -248.5t-33.5 -184.5
q-12 -62 -33 -106t-60 -81t-103 -55.5t-154 -18.5q-212 0 -212 100q0 44 34 63.5t82 19.5q34 0 62 -20.5t28 -52.5q0 -24 -16.5 -43t-16.5 -24q0 -19 38 -19q22 0 38 8.5t36 38t37.5 97t33.5 174.5l-2 2q-45 -67 -83.5 -97.5t-103.5 -30.5q-57 0 -93.5 35t-36.5 103
q0 44 25.5 142t25.5 101q0 14 -3 21t-15 7q-15 0 -30.5 -23t-40.5 -93zM501 550q-34 0 -56.5 23t-22.5 57q0 33 22.5 56t56.5 23q33 0 56.5 -23t23.5 -56q0 -34 -23 -57t-57 -23zM282 550q-34 0 -57 23t-23 57t23 56.5t57 22.5q33 0 56 -23t23 -56q0 -34 -22.5 -57
t-56.5 -23z" />
    <glyph glyph-name="dotlessi" unicode="&#x131;" horiz-adv-x="389" 
d="M353 185h24q-30 -115 -80 -155.5t-118 -40.5q-63 0 -97 34.5t-34 100.5q0 52 22.5 142t22.5 99q0 34 -21 34q-18 0 -31.5 -29.5t-30.5 -88.5h-21q22 101 63 152t120 51q66 0 105 -41t39 -110q0 -49 -25 -139.5t-25 -100.5q0 -22 19 -22q10 0 19 9t17 24.5t13.5 29
t11 30.5t7.5 21z" />
    <glyph glyph-name="Lslash" unicode="&#x141;" horiz-adv-x="722" 
d="M37 29l37 212l-94 -47l12 50l91 46l67 374h-71l5 29h450l-5 -29h-79l-37 -209l139 69l-12 -50l-136 -68l-67 -377q113 0 178.5 32t124.5 122q31 47 43 84h33l-49 -267h-673l5 29h38z" />
    <glyph glyph-name="lslash" unicode="&#x142;" horiz-adv-x="389" 
d="M61 272l69 392h-89l5 29q153 0 326 11l-44 -251l126 85l-9 -52l-126 -86l-50 -280q-12 -66 15 -66q41 0 81 123h23q-27 -91 -73 -141.5t-128 -50.5q-88 0 -125.5 41.5t-17.5 149.5l8 44l-95 -64l9 52z" />
    <glyph glyph-name="OE" unicode="&#x152;" horiz-adv-x="944" 
d="M958 693l-22 -254h-26q-18 232 -169 225l-51 -286q52 6 77 31.5t43 80.5h31l-48 -277h-29q3 68 -17 99t-63 36l-57 -319q94 0 153.5 48.5t118.5 185.5h29l-50 -263h-576q-53 0 -102.5 15t-95 47t-72.5 90.5t-27 137.5q0 68 26.5 137.5t75 129.5t126.5 98t171 38h554z
M366 100l85 469q18 99 -41 99q-9 0 -16.5 -3t-11.5 -5.5t-9 -11t-6 -11.5t-5.5 -15t-5.5 -14q-15 -41 -53 -240t-38 -283q0 -59 47 -59q21 0 34 16.5t20 57.5z" />
    <glyph glyph-name="oe" unicode="&#x153;" horiz-adv-x="944" 
d="M870 133h30q-101 -148 -307 -148q-105 0 -149 53q-77 -53 -160 -53q-75 0 -130.5 22t-83.5 57t-41 71t-13 72q0 117 95 198.5t248 81.5q84 0 146 -52q71 52 204 52q33 0 67.5 -7.5t67.5 -22.5t54 -42.5t21 -64.5q0 -66 -77.5 -109t-199.5 -43q-22 0 -66 2q-8 -33 -8 -77
q0 -42 23 -69.5t64 -27.5q59 0 116.5 29.5t98.5 77.5zM590 270l-9 -49q46 -2 69.5 12.5t34.5 53.5q21 72 21 131q0 26 -10.5 36t-29.5 10q-17 0 -26 -9.5t-21 -51.5t-29 -133zM386 430q0 15 -9 25t-24 10q-18 0 -30.5 -15t-21.5 -55q-60 -262 -60 -338q0 -50 34 -50
q23 0 36.5 24t26.5 96q6 31 17 86t16.5 83.5t10 66.5t4.5 67z" />
    <glyph glyph-name="Scaron" unicode="&#x160;" 
d="M498 654l111 54h22q-30 -190 -31 -244h-34q-19 95 -79.5 152t-144.5 57q-33 0 -59.5 -19t-26.5 -53q0 -28 26 -53t65 -42.5t84 -42.5t84 -52t65 -72.5t26 -102.5q0 -42 -14.5 -83t-45 -80t-88 -63.5t-132.5 -24.5q-59 0 -98 14.5t-89 48.5l-105 -63h-29q29 200 30 261h29
q29 -92 99 -161.5t159 -69.5q42 0 76.5 20.5t34.5 62.5q0 27 -19.5 48.5t-50.5 38.5t-69 34t-76 38.5t-69 48t-50.5 68t-19.5 92.5q0 111 72.5 176.5t185.5 65.5q35 0 81.5 -15t79.5 -39zM233 909h62l97 -88l126 88h70l-152 -176h-123z" />
    <glyph glyph-name="scaron" unicode="&#x161;" horiz-adv-x="500" 
d="M-2 75q0 36 22.5 53t59.5 17q30 0 54.5 -16t24.5 -44q0 -27 -9.5 -41t-9.5 -17q0 -20 58 -20q61 0 61 57q0 18 -22 39t-54 43t-64 47t-54 60t-22 74q0 61 58 110.5t181 49.5q24 0 52 -4t60 -13t53 -27.5t21 -44.5q0 -34 -25 -49.5t-62 -15.5q-30 0 -52.5 18t-22.5 47
q0 13 10 27.5t10 18.5q0 9 -14.5 15t-35.5 6q-22 0 -42 -12t-20 -36q0 -19 23 -39.5t55 -41.5t64.5 -46t55.5 -63.5t23 -83.5q0 -63 -60 -110.5t-189 -47.5q-28 0 -55 3t-60 11.5t-53 28t-20 47.5zM150 723h62l97 -88l126 88h70l-152 -176h-123z" />
    <glyph glyph-name="Ydieresis" unicode="&#x178;" horiz-adv-x="778" 
d="M613 664l5 29h182l-5 -29q-39 -5 -61 -45l-182 -323l-45 -267h96l-5 -29h-481l5 29h84l43 250l-165 385h-57l5 29h435l-5 -29h-73l141 -339l111 197q52 95 51 107q-1 19 -16 26.5t-63 8.5zM597 736q-34 0 -56.5 23t-22.5 57q0 33 22.5 56t56.5 23q33 0 56.5 -23t23.5 -56
q0 -34 -23 -57t-57 -23zM378 736q-34 0 -57 23t-23 57t23 56.5t57 22.5q33 0 56 -23t23 -56q0 -34 -22.5 -57t-56.5 -23z" />
    <glyph glyph-name="Zcaron" unicode="&#x17d;" horiz-adv-x="722" 
d="M694 661l-357 -632q214 0 318 231l34 -7l-62 -253h-625v30l359 634h-23q-79 0 -147.5 -58.5t-109.5 -151.5l-32 5l47 234h598v-32zM261 909h62l97 -88l126 88h70l-152 -176h-123z" />
    <glyph glyph-name="zcaron" unicode="&#x17e;" horiz-adv-x="611" 
d="M520 199h27q-32 -115 -82.5 -164.5t-131.5 -49.5q-78 0 -150 43q-4 2 -17.5 10.5t-19.5 12t-17.5 7t-22.5 3.5q-19 0 -26.5 -13.5t-7.5 -29t-8 -28.5t-26 -13q-12 0 -19.5 7.5t-7.5 19.5q0 19 28 43l350 287l-2 2q-69 -38 -136 -38q-33 0 -76 16.5t-55 16.5
q-20 0 -31.5 -11.5t-22.5 -34.5l-27 -3q16 74 72.5 139.5t127.5 65.5q53 0 94 -18.5t72 -36.5t60 -18q42 0 46 48q1 33 32 33q28 0 28 -19q0 -16 -10 -28.5t-41 -38.5l-344 -283l2 -2q7 4 30 16.5t32 16.5t27.5 11.5t35 10t35.5 2.5q25 0 68 -14t66 -14q21 0 30.5 11
t17.5 35zM205 723h62l97 -88l126 88h70l-152 -176h-123z" />
    <glyph glyph-name="florin" unicode="&#x192;" 
d="M560 397h-132q0 -22 0.5 -68.5t0.5 -70.5q0 -52 -7.5 -106.5t-28 -116t-52.5 -109t-86 -79t-122 -31.5q-44 0 -81 25.5t-37 67.5q0 36 19.5 60.5t54.5 24.5q29 0 51.5 -17.5t22.5 -46.5q0 -25 -17.5 -46.5t-16.5 -26.5q1 -15 26 -15q73 0 73 142v304q0 53 10 109h-134
l5 35h136q11 52 31.5 100t51.5 92t77 70.5t100 26.5t94 -25.5t40 -76.5q0 -33 -18.5 -54.5t-51.5 -21.5q-73 0 -73 73q0 12 17 35t17 26q0 17 -32 17q-22 0 -38 -15t-23.5 -39t-10.5 -45t-3 -42q0 -81 4 -121h138z" />
    <glyph glyph-name="circumflex" unicode="&#x2c6;" horiz-adv-x="333" 
d="M306 723l83 -176h-64l-97 87l-122 -87h-76l156 176h120z" />
    <glyph glyph-name="caron" unicode="&#x2c7;" horiz-adv-x="333" 
d="M66 723h62l97 -88l126 88h70l-152 -176h-123z" />
    <glyph glyph-name="uni02C9" unicode="&#x2c9;" horiz-adv-x="333" 
d="M406 672l-24 -85h-347l24 85h347z" />
    <glyph glyph-name="breve" unicode="&#x2d8;" horiz-adv-x="333" 
d="M353 713h51q-7 -73 -59 -120t-126 -47q-82 0 -118.5 43t-25.5 124h53q1 -81 108 -81q40 0 73 21.5t44 59.5z" />
    <glyph glyph-name="dotaccent" unicode="&#x2d9;" horiz-adv-x="333" 
d="M224 550q-34 0 -57 23t-23 57t23 56.5t57 22.5q33 0 56 -23t23 -56q0 -34 -22.5 -57t-56.5 -23z" />
    <glyph glyph-name="ring" unicode="&#x2da;" horiz-adv-x="333" 
d="M209 547q-47 0 -79.5 33t-32.5 80q0 46 33 79t79 33t79 -33t33 -79q0 -47 -33 -80t-79 -33zM209 712q-22 0 -37 -15.5t-15 -36.5q0 -22 15 -37.5t37 -15.5q21 0 36.5 15.5t15.5 37.5q0 21 -15.5 36.5t-36.5 15.5z" />
    <glyph glyph-name="ogonek" unicode="&#x2db;" horiz-adv-x="333" 
d="M128 0h103l-44 -20q-55 -25 -55 -60q0 -42 54 -42q35 0 78 26l18 -44q-33 -28 -72.5 -48t-67.5 -20q-63 0 -92.5 28t-29.5 66q0 41 28.5 70.5t79.5 43.5z" />
    <glyph glyph-name="tilde" unicode="&#x2dc;" horiz-adv-x="333" 
d="M362 699h54q-16 -57 -48 -95.5t-80 -38.5q-40 0 -93 20.5t-68 20.5q-36 0 -51 -39h-49q7 54 44.5 93.5t89.5 39.5q28 0 80.5 -20t72.5 -20q28 0 47 36l1 1v2z" />
    <glyph glyph-name="hungarumlaut" unicode="&#x2dd;" horiz-adv-x="333" 
d="M96 547h-66l117 139q30 34 48 42q16 8 35 8q24 0 41 -15.5t17 -39.5q0 -32 -43 -55zM296 547h-66l117 139q30 34 48 42q16 8 35 8q24 0 41 -15.5t17 -39.5q0 -32 -43 -55z" />
    <glyph glyph-name="uni03A9" unicode="&#x3a9;" horiz-adv-x="871" 
d="M803 203l-73 -203h-322l-7 30q45 65 69.5 103t62.5 116.5t49 142.5q49 264 -97 264q-71 0 -116 -61t-71 -204q-25 -141 47 -360l-15 -31h-327l7 203l46 -1q11 -43 27 -56.5t56 -13.5h95q-36 23 -60.5 43.5t-52 53.5t-38 76.5t-1.5 93.5q26 141 141 224.5t276 83.5
q162 0 245 -82t58 -220q-9 -46 -34 -86.5t-65.5 -75.5t-75.5 -58.5t-85 -52.5h113q36 0 55.5 13.5t45.5 56.5z" />
    <glyph glyph-name="uni03BC" unicode="&#x3bc;" horiz-adv-x="722" 
d="M688 176h23q-31 -107 -77 -149t-109 -42q-137 0 -121 179l-2 2q-23 -52 -40 -81t-43 -56t-61 -37t-84 -6q1 -16 10.5 -29.5t20 -22.5t19 -29t8.5 -47q0 -30 -29.5 -53t-70.5 -23q-52 0 -80 37t-28 99q0 59 23.5 188.5t58.5 247.5q15 52 -11 52q-35 0 -68 -113h-24
q13 45 27 75t36.5 59.5t56.5 44t80 14.5q53 0 90 -33.5t37 -105.5q0 -49 -25.5 -137t-25.5 -121q0 -23 23 -23q15 0 31 17.5t25 35.5q49 95 84 359q17 -1 55 -3t57 -2t61 2t66 3q-41 -198 -62 -333q-8 -42 -5.5 -57.5t15.5 -15.5q7 0 13.5 5.5t18.5 29.5t27 69z" />
    <glyph glyph-name="pi" unicode="&#x3c0;" horiz-adv-x="707" 
d="M670 514l37 -10q-9 -37 -35 -89.5t-43 -66.5q-30 -9 -73 -9q-18 -61 -36 -166q-13 -84 30 -84q13 0 47 12l7 -38q-29 -31 -78 -54t-93 -23q-136 0 -110 146q9 47 48 210q-37 0 -67.5 1t-45.5 1l-1 -5q-46 -249 -134 -333q-48 -15 -92 -20l-6 29q66 73 110 165t57 166
q-48 1 -78.5 -6t-73.5 -28l-15 41q54 60 77 77q66 51 165 50q46 0 158 -2q29 0 85.5 -0.5t81.5 -0.5q49 0 78 37z" />
    <glyph glyph-name="endash" unicode="&#x2013;" horiz-adv-x="500" 
d="M511 310l-23 -153h-500l23 153h500z" />
    <glyph glyph-name="emdash" unicode="&#x2014;" horiz-adv-x="1000" 
d="M988 157h-1000l23 153h1000z" />
    <glyph glyph-name="quoteleft" unicode="&#x2018;" horiz-adv-x="389" 
d="M378 696v-26q-147 -23 -218 -94q-46 -46 -46 -70q1 -7 6 -7q1 0 32.5 13t61.5 13q57 0 96 -29t39 -83q0 -57 -41 -88t-105 -31q-66 0 -107.5 40t-41.5 106q0 72 50.5 130t123 89t150.5 37z" />
    <glyph glyph-name="quoteright" unicode="&#x2019;" horiz-adv-x="389" 
d="M26 294v26q147 23 218 94q46 46 46 70q-1 7 -6 7q-1 0 -32.5 -13t-61.5 -13q-57 0 -96 29t-39 83q0 57 41 88t105 31q66 0 107.5 -40t41.5 -106q0 -72 -50.5 -130t-123 -89t-150.5 -37z" />
    <glyph glyph-name="quotesinglbase" unicode="&#x201a;" horiz-adv-x="389" 
d="M-1 -184v26q147 23 218 94q46 46 46 70q-1 7 -6 7q-1 0 -32.5 -13t-61.5 -13q-57 0 -96 29t-39 83q0 57 41 88t105 31q66 0 107.5 -40t41.5 -106q0 -72 -50.5 -130t-123 -89t-150.5 -37z" />
    <glyph glyph-name="quotedblleft" unicode="&#x201c;" horiz-adv-x="722" 
d="M348 696v-26q-147 -23 -218 -94q-46 -46 -46 -70q1 -7 6 -7q1 0 32.5 13t61.5 13q57 0 96 -29t39 -83q0 -57 -41 -88t-105 -31q-66 0 -107.5 40t-41.5 106q0 72 50.5 130t123 89t150.5 37zM705 696v-26q-147 -23 -218 -94q-46 -46 -46 -70q1 -7 6 -7q1 0 32.5 13t61.5 13
q57 0 96 -29t39 -83q0 -57 -41 -88t-105 -31q-66 0 -107.5 40t-41.5 106q0 72 50.5 130t123 89t150.5 37z" />
    <glyph glyph-name="quotedblright" unicode="&#x201d;" horiz-adv-x="722" 
d="M389 294v26q147 23 218 94q46 46 46 70q-1 7 -6 7q-1 0 -32.5 -13t-61.5 -13q-57 0 -96 29t-39 83q0 57 41 88t105 31q66 0 107.5 -40t41.5 -106q0 -72 -50.5 -130t-123 -89t-150.5 -37zM32 294v26q147 23 218 94q46 46 46 70q-1 7 -6 7q-1 0 -32.5 -13t-61.5 -13
q-57 0 -96 29t-39 83q0 57 41 88t105 31q66 0 107.5 -40t41.5 -106q0 -72 -50.5 -130t-123 -89t-150.5 -37z" />
    <glyph glyph-name="quotedblbase" unicode="&#x201e;" horiz-adv-x="722" 
d="M-2 -184v26q147 23 218 94q46 46 46 70q-1 7 -6 7q-1 0 -32.5 -13t-61.5 -13q-57 0 -96 29t-39 83q0 57 41 88t105 31q66 0 107.5 -40t41.5 -106q0 -72 -50.5 -130t-123 -89t-150.5 -37zM355 -184v26q147 23 218 94q46 46 46 70q-1 7 -6 7q-1 0 -32.5 -13t-61.5 -13
q-57 0 -96 29t-39 83q0 57 41 88t105 31q66 0 107.5 -40t41.5 -106q0 -72 -50.5 -130t-123 -89t-150.5 -37z" />
    <glyph glyph-name="dagger" unicode="&#x2020;" horiz-adv-x="611" 
d="M228 -218h-27q11 134 -6 224.5t-60 184.5q56 22 100.5 57.5t44.5 81.5q0 7 -5 14t-12 8q-14 2 -26.5 -11.5t-22.5 -30.5t-30 -31.5t-47 -14.5q-43 0 -70 26t-27 68q0 38 21 71t65 33q33 0 57.5 -12.5t36 -27t23.5 -27t22 -12.5q11 0 18.5 7t7.5 17q0 30 -13.5 55
t-29 40.5t-29 42t-13.5 58.5q0 41 34 73t91 32q48 0 84 -28.5t36 -76.5q0 -31 -21.5 -61t-47 -49.5t-47 -42.5t-21.5 -42q0 -27 26 -27q13 0 25.5 12.5t22 27.5t29.5 27.5t46 12.5q44 0 73 -29t29 -72q0 -44 -27.5 -71t-71.5 -27q-29 0 -52 14.5t-33.5 31.5t-22.5 31.5
t-22 14.5q-31 0 -31 -42q0 -24 23.5 -55t40.5 -46t48 -40q-78 -101 -118.5 -178t-70.5 -211z" />
    <glyph glyph-name="daggerdbl" unicode="&#x2021;" horiz-adv-x="611" 
d="M448 625q0 -33 -25.5 -62.5t-51 -54t-25.5 -42.5q0 -21 18 -21q13 0 32 18.5t45 37.5t56 19q39 0 63.5 -25t24.5 -67q0 -33 -23.5 -58.5t-63.5 -25.5q-28 0 -50 11.5t-32.5 25t-23 25t-24.5 11.5q-25 0 -25 -34q0 -59 71 -134q-43 -29 -84 -74t-41 -73q0 -15 3.5 -19.5
t13.5 -4.5q11 0 24 11.5t24.5 26t34 26t49.5 11.5q37 0 62 -25.5t25 -62.5q0 -39 -25 -63.5t-62 -24.5q-25 0 -47 11.5t-34.5 25.5t-26 25.5t-24.5 11.5q-22 0 -22 -23q0 -19 33 -63.5t33 -79.5q0 -42 -22.5 -68.5t-73.5 -26.5q-96 0 -96 83q0 26 16 50.5t35 40.5t35 34.5
t16 33.5q0 21 -18 21q-13 0 -32 -18.5t-45 -37.5t-56 -19q-39 0 -63.5 25t-24.5 67q0 33 23.5 58.5t63.5 25.5q28 0 50 -11.5t32.5 -25t23 -25t24.5 -11.5q25 0 25 34q0 59 -71 134q43 29 84 74t41 73q0 15 -3.5 19t-13.5 4q-11 0 -24 -11.5t-24.5 -25.5t-34 -25.5
t-49.5 -11.5q-37 0 -62 25.5t-25 62.5q0 39 25 63.5t62 24.5q25 0 47 -11.5t34.5 -25.5t26 -25.5t24.5 -11.5q22 0 22 23q0 19 -33 63.5t-33 79.5q0 42 22.5 68.5t73.5 26.5q96 0 96 -83z" />
    <glyph glyph-name="bullet" unicode="&#x2022;" horiz-adv-x="500" 
d="M443 346q0 -80 -56.5 -136t-136.5 -56t-135.5 55.5t-56.5 136.5q-1 80 55 136.5t137 56.5q80 0 136.5 -56.5t56.5 -136.5z" />
    <glyph glyph-name="ellipsis" unicode="&#x2026;" horiz-adv-x="1000" 
d="M-2 99q0 60 43.5 89.5t106.5 29.5q56 0 97 -31t41 -79q0 -55 -39.5 -88t-105.5 -33q-57 0 -100 29t-43 83zM331 99q0 60 43.5 89.5t106.5 29.5q56 0 97 -31t41 -79q0 -55 -39.5 -88t-105.5 -33q-56 0 -99.5 29t-43.5 83zM664 99q0 60 43.5 89.5t106.5 29.5q56 0 97 -31
t41 -79q0 -55 -39.5 -88t-105.5 -33q-57 0 -100 29t-43 83z" />
    <glyph glyph-name="perthousand" unicode="&#x2030;" horiz-adv-x="1000" 
d="M554 735l-410 -780h-57l379 715l-2 2q-38 -22 -86 -22q-34 0 -53 10q21 -63 21 -94q0 -75 -60.5 -142.5t-134.5 -67.5q-68 0 -104 47t-36 118q0 20 7 46t23 56t38 55t55.5 41.5t72.5 16.5q40 0 91 -28t79 -28q35 0 71.5 14t60.5 41h45zM171 402l67 264q7 26 0 38t-20 12
q-12 0 -18.5 -6t-10 -14.5t-8.5 -29.5l-61 -240q-5 -20 1 -35.5t21 -15.5q22 0 29 27zM622 177q0 -88 -58.5 -155t-134.5 -67q-65 0 -103.5 42t-38.5 112q0 81 54 154t142 73q65 0 102 -46t37 -113zM454 21l62 255q4 17 -2.5 29t-18.5 12q-17 0 -24.5 -10.5t-15.5 -41.5
l-63 -255q-4 -16 3.5 -26t19.5 -10q28 0 39 47zM988 177q0 -88 -58.5 -155t-134.5 -67q-65 0 -103.5 42t-38.5 112q0 81 54 154t142 73q65 0 102 -46t37 -113zM820 21l62 255q4 17 -2.5 29t-18.5 12q-17 0 -24.5 -10.5t-15.5 -41.5l-63 -255q-4 -16 3.5 -26t19.5 -10
q28 0 39 47z" />
    <glyph glyph-name="guilsinglleft" unicode="&#x2039;" horiz-adv-x="333" 
d="M130 73l-101 157l138 165h122l-143 -172l99 -150h-115z" />
    <glyph glyph-name="guilsinglright" unicode="&#x203a;" horiz-adv-x="333" 
d="M175 395l101 -157l-138 -165h-122l143 172l-99 150h115z" />
    <glyph glyph-name="fraction" unicode="&#x2044;" horiz-adv-x="167" 
d="M-111 -15h-60l446 723h60z" />
    <glyph glyph-name="Euro" unicode="&#x20ac;" 
d="M343 -15q-110 0 -185 80.5t-82 201.5h-79l20 38h58q1 39 10 88h-82l20 38h72q36 124 126 200.5t201 76.5q16 0 31.5 -2t28 -5t24 -7t21 -9t17 -9.5t14 -9t10 -8l6.5 -6.5l4 -3q44 34 74 59h28l-25 -221h-23q-18 63 -64 116.5t-105 53.5q-42 0 -61 -32.5t-39 -129.5
l-13 -64h247l-20 -38h-234l-16 -88h204l-20 -38h-190q-6 -48 -6 -75q0 -74 29 -112t80 -38q52 0 99 45.5t77 107.5l23 -5l-27 -206h-31l-39 61q-75 -60 -183 -60z" />
    <glyph glyph-name="afii61289" unicode="&#x2113;" horiz-adv-x="556" 
d="M469 175l25 -31q-120 -158 -269 -158q-98 0 -137 44q-20 26 -25 55.5t6 113.5l6 33l-71 -33l-9 43l90 49l25 137q18 99 42 155t67 100q83 84 178 84q70 0 97 -45t15 -111q-15 -83 -70 -146.5t-168 -138.5l-13 -70q-17 -85 -3 -127t66 -42q66 0 148 88zM300 488l-16 -91
q49 47 77 92.5t42 121.5q20 108 -23 108q-27 0 -40.5 -42.5t-39.5 -188.5z" />
    <glyph glyph-name="trademark" unicode="&#x2122;" horiz-adv-x="1000" 
d="M4 600v93h384v-93h-27q-11 59 -62 59h-27v-303q0 -27 6.5 -34t34.5 -6v-27h-234v27q24 -2 32.5 6.5t8.5 33.5v303h-27q-51 0 -62 -59h-27zM661 290l-123 263l-2 -1v-162q0 -48 8.5 -62t37.5 -12v-27h-135v27q29 0 37 13.5t8 60.5v222q-17 54 -67 54v27h178l119 -246
l131 246h139v-27q-23 1 -32 -8t-9 -32v-270q0 -23 8 -31.5t33 -8.5v-27h-224v27q23 0 33 9t10 31v189l-3 2l-131 -257h-16z" />
    <glyph glyph-name="Omega" unicode="&#x2126;" horiz-adv-x="871" 
d="M803 203l-73 -203h-322l-7 30q45 65 69.5 103t62.5 116.5t49 142.5q49 264 -97 264q-71 0 -116 -61t-71 -204q-25 -141 47 -360l-15 -31h-327l7 203l46 -1q11 -43 27 -56.5t56 -13.5h95q-36 23 -60.5 43.5t-52 53.5t-38 76.5t-1.5 93.5q26 141 141 224.5t276 83.5
q162 0 245 -82t58 -220q-9 -46 -34 -86.5t-65.5 -75.5t-75.5 -58.5t-85 -52.5h113q36 0 55.5 13.5t45.5 56.5z" />
    <glyph glyph-name="estimated" unicode="&#x212e;" horiz-adv-x="932" 
d="M898 336h-649q-5 0 -5 -4v-197q0 -12 8 -22q104 -107 246 -107q75 0 142 32t116 87h58q-55 -64 -138.5 -101.5t-178.5 -37.5q-166 0 -283.5 105.5t-117.5 253.5q0 150 117.5 255.5t283.5 105.5q167 0 284 -105.5t117 -255.5v-9zM751 361v198q0 14 -10 24
q-105 102 -243 102q-141 0 -245 -106q-9 -9 -9 -24v-194q0 -6 5 -6h498q4 0 4 6z" />
    <glyph glyph-name="partialdiff" unicode="&#x2202;" horiz-adv-x="659" 
d="M322 444h1q40 0 72 -14.5t45 -38.5q25 65 35 114q21 98 1 147q-21 47 -80 47q-74 0 -195 -88q-21 0 -39.5 47.5t-0.5 75.5q34 14 48.5 19.5t53 12.5t81.5 7q177 0 245 -150q46 -103 24 -234q-27 -145 -107 -247q-117 -156 -300 -156q-104 0 -156 58.5t-35 155.5
q20 106 103 173q87 71 204 71zM361 380h-1q-53 0 -94 -54q-57 -78 -80 -200q-16 -92 39 -92q43 0 103 97q49 83 89 201q-17 48 -56 48z" />
    <glyph glyph-name="Delta" unicode="&#x2206;" horiz-adv-x="773" 
d="M668 0h-694l9 50l412 637l93 19l189 -656zM448 82l-108 411l-256 -411h364z" />
    <glyph glyph-name="product" unicode="&#x220f;" horiz-adv-x="919" 
d="M888 718v-44q-70 -6 -86 -24.5t-16 -91.5v-477q0 -74 16.5 -92.5t86.5 -24.5v-45h-379v45q57 5 68.5 22t11.5 95v541q0 27 -7 33t-34 6h-119q-26 0 -32.5 -6.5t-6.5 -32.5v-541q0 -77 10.5 -94.5t63.5 -22.5v-45h-372v45q69 6 85.5 25t16.5 92v477q0 72 -17 91.5
t-89 24.5v44h799z" />
    <glyph glyph-name="summation" unicode="&#x2211;" horiz-adv-x="732" 
d="M707 172l-59 -264h-559v48l235 302l-227 412v48h549q6 -112 14 -208l-46 -11q-27 82 -49 118q-17 29 -38 39t-79 10h-124l158 -293l-242 -314h251q30 0 44 0.5t31.5 5t25.5 11t20.5 22.5t22 34t26.5 52z" />
    <glyph glyph-name="minus" unicode="&#x2212;" horiz-adv-x="600" 
d="M542 193h-504v120h504v-120z" />
    <glyph glyph-name="uni2215" unicode="&#x2215;" horiz-adv-x="167" 
d="M-111 -15h-60l446 723h60z" />
    <glyph glyph-name="uni2219" unicode="&#x2219;" horiz-adv-x="333" 
d="M23 244q0 60 43.5 89.5t106.5 29.5q56 0 97 -31t41 -79q0 -55 -39.5 -88t-105.5 -33q-56 0 -99.5 29t-43.5 83z" />
    <glyph glyph-name="radical" unicode="&#x221a;" horiz-adv-x="699" 
d="M699 876l-200 -1041l-45 -18l-236 537l-97 -42l-17 53l238 105l143 -351h3l144 769z" />
    <glyph glyph-name="infinity" unicode="&#x221e;" horiz-adv-x="834" 
d="M789 288v-1q0 -89 -53 -142t-125 -53q-111 0 -185 111q-43 -56 -85.5 -83.5t-100.5 -27.5q-71 0 -123.5 52t-52.5 136q0 86 53 139.5t133 53.5q57 0 100.5 -25.5t83.5 -79.5q2 2 13 15t15.5 17.5l17 17t21 18t23 14.5t27 13t29.5 7t35 3q73 -1 123.5 -51.5t50.5 -133.5z
M251 191h2q57 0 120 85q-21 31 -28 41t-24 28t-33 24t-38 6q-37 0 -61 -25t-24 -69q0 -37 25.5 -63.5t60.5 -26.5zM605 375h-1q-24 0 -49.5 -17t-37.5 -31t-34 -43q40 -56 67 -74.5t61 -18.5q35 0 55.5 28t20.5 60q0 41 -22 68.5t-60 27.5z" />
    <glyph glyph-name="integral" unicode="&#x222b;" horiz-adv-x="543" 
d="M244 -39l-24 394q-6 100 2 180.5t27 131t42 86t52 53t52 24.5t46 7q37 0 67.5 -20t30.5 -51q0 -38 -23 -59t-54 -21q-21 0 -33.5 21.5t-20.5 43t-16 21.5q-7 0 -11 -5.5t-6 -21t-1.5 -41.5t3.5 -70l21 -368q14 -243 -54 -369t-175 -126q-38 0 -67 22t-30 53q-1 34 30 59
t63 25q14 0 24 -15t14 -32.5t10.5 -32.5t13.5 -15q15 0 18.5 33t-1.5 93z" />
    <glyph glyph-name="approxequal" unicode="&#x2248;" horiz-adv-x="624" 
d="M523 484l71 -70q-36 -54 -80 -82.5t-84 -28.5q-56 0 -120 39q-2 1 -10 6t-10.5 6t-10 5t-10.5 5t-10 4t-12 3.5t-11.5 1.5t-12.5 1q-22 0 -42.5 -11.5t-32.5 -24t-32 -35.5l-69 70q27 45 77 77.5t102 32.5q57 0 109 -32q35 -23 51.5 -30.5t36.5 -7.5q48 0 100 71z
M523 273l71 -70q-76 -111 -166 -111q-55 0 -118 39q-55 32 -86 32q-22 0 -43 -11.5t-33 -23.5t-32 -36l-69 70q27 45 77.5 77.5t101.5 32.5q56 0 108 -31q6 -3 21 -13t22 -14t20 -8t25 -4q28 0 49.5 17t51.5 54z" />
    <glyph glyph-name="notequal" unicode="&#x2260;" horiz-adv-x="638" 
d="M496 525l-34 -75h128v-108h-173l-52 -120h225v-107h-271l-51 -116l-86 38l34 78h-130v107h175l53 120h-228v108h272l50 113z" />
    <glyph glyph-name="lessequal" unicode="&#x2264;" horiz-adv-x="660" 
d="M612 129l-502 223v115l501 221v-118l-388 -160v-2l389 -160v-119zM613 -14h-504v110h504v-110z" />
    <glyph glyph-name="greaterequal" unicode="&#x2265;" horiz-adv-x="661" 
d="M112 688l501 -222v-115l-501 -222v119l388 160v3l-388 159v118zM608 -14h-498v110h498v-110z" />
    <glyph glyph-name="lozenge" unicode="&#x25ca;" horiz-adv-x="733" 
d="M690 338l-225 -416h-134l-224 416l227 417h132zM565 338l-164 314h-4l-165 -314l165 -318h4z" />
    </font>
</defs>
</svg>
