<?xml version="1.0" standalone="no"?>
<!DOCTYPE svg PUBLIC "-//W3C//DTD SVG 1.1//EN" "http://www.w3.org/Graphics/SVG/1.1/DTD/svg11.dtd" >
<svg xmlns="http://www.w3.org/2000/svg" xmlns:xlink="http://www.w3.org/1999/xlink" version="1.1">
<metadata>
Created by FontForge 20170731 at Mon Apr  1 19:58:32 2002
 By Aleksey,,,
Copyright (c) 1989, 1990, 1999, 2001 Adobe Systems Incorporated.  All Rights Reserved.
</metadata>
<defs>
<font id="BodoniStd-BookItalic" horiz-adv-x="500" >
  <font-face 
    font-family="Bodoni Std Book"
    font-weight="400"
    font-style="italic"
    font-stretch="normal"
    units-per-em="1000"
    panose-1="2 7 6 3 7 5 6 9 3 3"
    ascent="698"
    descent="-302"
    x-height="406"
    cap-height="668"
    bbox="-196 -250 1013 887"
    underline-thickness="50"
    underline-position="-200"
    slope="-15.5"
    unicode-range="U+0020-FB02"
  />
<missing-glyph horiz-adv-x="599" 
d="M99 0v700h500v-700h-500zM349 395l170 255h-340zM379 350l170 -255v510zM179 50h340l-170 255zM149 605v-510l170 255z" />
    <glyph glyph-name="fi" unicode="fi" 
d="M109 373h-86l7 23h86q83 296 251 296q38 0 69 -16t31 -55q0 -15 -12 -26t-27 -11q-14 0 -26 9t-12 24q0 7 3 16t7 15l3 6q0 9 -13.5 13.5t-23.5 4.5q-33 0 -60.5 -23t-49 -68t-35.5 -85t-31 -100h99q39 0 134 10l-87 -327l-9 -36q0 -9 9 -14t19 -5q51 0 99 120l19 -7
q-48 -148 -150 -148q-26 0 -44.5 13.5t-18.5 38.5q0 16 10 56l72 276h-158l-40 -174q-27 -112 -55.5 -193t-53 -124.5t-53.5 -68.5t-49.5 -31t-46.5 -6q-28 0 -52 14t-24 41q0 18 11.5 31.5t32.5 13.5q12 0 23 -11t11 -30q0 -3 -6 -14l-5 -11q0 -11 22 -11q51 0 76 56
q23 47 48 156z" />
    <glyph glyph-name="fl" unicode="fl" 
d="M454 154l18 -9q-13 -30 -24.5 -52t-30.5 -48.5t-43 -41t-51 -14.5q-26 0 -45 13t-19 41q0 9 5.5 32.5t16 65t16.5 68.5l38 164h-151l-40 -177q-27 -112 -55.5 -193t-53 -124.5t-53.5 -68.5t-49.5 -31t-46.5 -6q-28 0 -52 14t-24 41q0 18 11.5 31.5t32.5 13.5q12 0 23 -11
t11 -30q0 -3 -6 -14l-5 -11q0 -11 22 -11q51 0 76 56q24 49 48 159l86 362h-86l7 23h86q13 61 42.5 125.5t81.5 117.5t110 53q23 0 43 -5q5 -1 10.5 -2t9.5 -2t7 -1q12 0 35 4t34 4l-146 -577q0 -2 -7 -27t-7 -34q0 -29 22 -29q13 0 26 9t25.5 28t20 31.5t19 36.5t12.5 26z
M190 396h152l51 196q-8 8 -8 25q0 6 7 17t7 18q0 17 -32 17q-31 0 -57 -19t-43 -44.5t-33 -65t-23.5 -66t-16.5 -62.5q-3 -11 -4 -16z" />
    <glyph glyph-name=".notdef" horiz-adv-x="599" 
d="M99 0v700h500v-700h-500zM349 395l170 255h-340zM379 350l170 -255v510zM179 50h340l-170 255zM149 605v-510l170 255z" />
    <glyph glyph-name=".null" horiz-adv-x="0" 
 />
    <glyph glyph-name="nonmarkingreturn" horiz-adv-x="333" 
 />
    <glyph glyph-name="space" unicode=" " horiz-adv-x="250" 
 />
    <glyph glyph-name="exclam" unicode="!" horiz-adv-x="389" 
d="M179 192h-26q34 127 43 188t15 176q7 123 74 123q17 0 31 -14.5t14 -43.5q0 -33 -18.5 -69t-57.5 -128.5t-75 -231.5zM78 43q0 23 16.5 40t39.5 17q22 0 38.5 -17t16.5 -40t-16 -39.5t-39 -16.5t-39.5 16.5t-16.5 39.5z" />
    <glyph glyph-name="quotedbl" unicode="&#x22;" horiz-adv-x="444" 
d="M339 390h-29q25 211 35 243t33 36q6 1 14 1q38 0 38 -29q0 -10 -4 -25t-13.5 -40t-18.5 -48t-25.5 -64.5t-29.5 -73.5zM155 390h-29q25 211 35 243t33 36q6 1 14 1q38 0 38 -29q0 -10 -4 -25t-13.5 -40t-18.5 -48t-25.5 -64.5t-29.5 -73.5z" />
    <glyph glyph-name="numbersign" unicode="#" 
d="M441 244l-13 -52h-107l-77 -192h-56l77 192h-135l-77 -192h-56l77 192h-105l13 52h113l63 157h-108l13 52h116l77 192h56l-77 -192h135l77 192h56l-77 -192h96l-13 -52h-104l-63 -157h99zM349 401h-135l-63 -157h135z" />
    <glyph glyph-name="dollar" unicode="$" 
d="M112 -91h-24l27 102q-52 16 -75 53.5t-23 70.5q0 30 15 56t43 26q18 0 30.5 -11t12.5 -30t-13.5 -32.5t-29.5 -13.5h-22q-5 0 -5 -17q0 -16 17 -41.5t55 -39.5l76 291q-85 41 -85 129q0 24 6.5 48t23 52.5t51.5 49.5t84 28l19 74h24l-18 -69q7 2 26 2q33 0 52 -4l19 71
h24l-20 -77q85 -24 85 -104q0 -24 -11 -40t-33 -16q-18 0 -28.5 11.5t-10.5 29.5t11 26.5t22.5 11.5t11.5 6q0 39 -52 56l-64 -246q50 -23 77.5 -58t27.5 -95q0 -31 -9 -60.5t-30 -60t-61.5 -53t-97.5 -30.5l-25 -96h-24l24 92q-8 -1 -33 -1q-23 0 -45 5zM217 311l-75 -285
q18 -5 42 -5q20 0 37 3l67 257q-8 4 -32.5 14t-38.5 16zM296 614l-56 -214q9 -4 33 -13.5t38 -15.5l63 241q-21 4 -42 4q-14 0 -36 -2zM310 272l-64 -243q67 13 101.5 55t34.5 93q0 62 -72 95zM219 411l51 198q-54 -13 -85 -45.5t-31 -73.5q0 -52 65 -79z" />
    <glyph glyph-name="percent" unicode="%" horiz-adv-x="833" 
d="M703 372q34 0 68 -26.5t34 -84.5q0 -35 -13.5 -79t-38.5 -86.5t-66 -71.5t-89 -29q-51 0 -84 33t-33 86q0 90 71.5 174t150.5 84zM626 24q40 0 77.5 42t58 95t20.5 93q0 87 -69 87q-25 0 -62 -38.5t-60 -93.5q-33 -79 -33 -122q0 -63 68 -63zM216 -28l350 620l-2 2
q-59 -42 -136 -42q-1 0 -40 6q-1 -125 -64 -204t-139 -79q-52 0 -85.5 33.5t-33.5 86.5q0 83 70.5 169t148.5 86q39 0 62 -16t37 -49q22 -12 46 -12q48 0 99 26t87 74h43l-392 -701h-51zM298 619h-10q-29 0 -64 -45.5t-58 -106t-23 -102.5q0 -34 15 -47.5t49 -13.5
q20 0 42 12q47 24 81.5 89.5t34.5 122.5q0 23 -5 39q-50 25 -62 52z" />
    <glyph glyph-name="ampersand" unicode="&#x26;" horiz-adv-x="722" 
d="M660 92l15 -8q-60 -97 -147 -97q-76 0 -131 73q-37 -38 -89.5 -56.5t-103.5 -18.5q-65 0 -119 44t-54 120q0 42 20.5 80.5t55.5 68.5t70 51.5t74 39.5q-15 70 -15 119q0 81 48 128t127 47q64 0 98.5 -30t34.5 -73q0 -32 -20 -61.5t-53 -50.5t-63.5 -35.5t-62.5 -24.5
q29 -117 101 -248l92 190q30 61 84 61q30 0 50 -17.5t20 -47.5q0 -21 -11.5 -34.5t-32.5 -13.5q-38 0 -38 39q0 3 2.5 14.5t2.5 12.5q0 15 -18 13q-16 -2 -30 -23.5t-40 -75.5l-67 -139q48 -98 111 -98q44 0 89 51zM257 366q-125 -56 -125 -177q0 -68 34 -117t98 -49
q62 0 118 56q-86 127 -125 287zM339 427q54 20 92 63t38 97q0 76 -66 76q-26 0 -45 -12.5t-26.5 -31.5t-10.5 -33t-3 -26q0 -68 21 -133z" />
    <glyph glyph-name="quotesingle" unicode="'" horiz-adv-x="222" 
d="M146 390h-29q25 211 35 243t33 36q6 1 14 1q38 0 38 -29q0 -10 -4 -25t-13.5 -40t-18.5 -48t-25.5 -64.5t-29.5 -73.5z" />
    <glyph glyph-name="parenleft" unicode="(" horiz-adv-x="333" 
d="M360 697l8 -20q-83 -45 -142 -150.5t-86.5 -232t-30.5 -267.5q-3 -129 68 -245l-15 -9q-49 70 -78.5 178t-29.5 202q0 164 84.5 310.5t221.5 233.5z" />
    <glyph glyph-name="parenright" unicode=")" horiz-adv-x="333" 
d="M-19 -227l-8 20q83 45 142 150.5t86.5 232t30.5 267.5q3 129 -68 245l15 9q49 -70 78.5 -178t29.5 -202q0 -164 -84.5 -310.5t-221.5 -233.5z" />
    <glyph glyph-name="asterisk" unicode="*" 
d="M258 462q-32 21 -76.5 31t-66.5 19t-22 33q0 16 10 26.5t25 10.5q17 0 34.5 -18.5t44 -45.5t58.5 -42q0 56 -13 98.5t-13 54.5q0 17 10.5 27.5t25.5 10.5t25.5 -10.5t10.5 -27.5q0 -12 -13 -54.5t-13 -98.5q32 15 58.5 42t44 45.5t34.5 18.5q15 0 25 -10.5t10 -26.5
q0 -24 -22 -33t-66.5 -19t-76.5 -31q32 -21 76.5 -31t66.5 -19t22 -33q0 -16 -10 -26.5t-25 -10.5q-17 0 -34.5 18.5t-44 45.5t-58.5 42q0 -56 13 -98.5t13 -54.5q0 -17 -10.5 -27.5t-25.5 -10.5t-25.5 10.5t-10.5 27.5q0 12 13 54.5t13 98.5q-32 -15 -58.5 -42t-44 -45.5
t-34.5 -18.5q-15 0 -25 10.5t-10 26.5q0 24 22 33t66.5 19t76.5 31z" />
    <glyph glyph-name="plus" unicode="+" horiz-adv-x="550" 
d="M246 272v214h58v-214h203v-58h-203v-214h-58v214h-203v58h203z" />
    <glyph glyph-name="comma" unicode="," horiz-adv-x="250" 
d="M5 -159l-11 19q119 73 119 131q0 27 -14 27q-4 0 -16.5 -14t-32.5 -14q-16 0 -28 13.5t-12 29.5q0 28 17.5 46t45.5 18q35 0 52.5 -24.5t17.5 -60.5q0 -55 -38 -95t-100 -76z" />
    <glyph glyph-name="hyphen" unicode="-" horiz-adv-x="333" 
d="M38 248h238l-15 -60h-238z" />
    <glyph glyph-name="period" unicode="." horiz-adv-x="250" 
d="M15 46q0 25 17 42t42 17t42.5 -17t17.5 -42t-17.5 -41.5t-42.5 -16.5t-42 16.5t-17 41.5z" />
    <glyph glyph-name="slash" unicode="/" horiz-adv-x="278" 
d="M321 683h67l-395 -698h-67z" />
    <glyph glyph-name="zero" unicode="0" 
d="M483 424q0 -67 -21 -142t-58 -141t-96 -109t-127 -43q-54 0 -90.5 36.5t-49.5 80t-13 87.5q0 98 27.5 187t70.5 148.5t94.5 94.5t99.5 35q45 0 78 -20.5t51 -55.5t26 -74.5t8 -83.5zM228 584q-50 -66 -91 -239.5t-39 -236.5q2 -55 24.5 -77t70.5 -22q21 0 49 14
q67 35 120 218.5t53 291.5q0 45 -23 75t-65 30q-57 0 -99 -54z" />
    <glyph glyph-name="one" unicode="1" 
d="M326 0h-294l7 23h100l132 517q12 42 12 67q0 15 -55 15h-52l7 23h28q157 10 173 13l-163 -635h112z" />
    <glyph glyph-name="two" unicode="2" 
d="M357 0h-376v50q29 26 89.5 72t107 84.5t95 88t75.5 105t27 113.5q0 120 -116 120q-45 0 -86 -26.5t-41 -58.5q0 -24 20 -24q22 0 37 -12t15 -32q0 -22 -11.5 -34.5t-28.5 -12.5q-32 0 -50.5 21.5t-18.5 54.5q0 62 55 105.5t149 43.5q70 0 120.5 -41t50.5 -111
q0 -48 -30.5 -99t-82.5 -97.5t-103 -85.5t-109.5 -81.5t-85.5 -66.5l2 -2h245q27 0 42 18t27 59h26z" />
    <glyph glyph-name="three" unicode="3" 
d="M148 -11q-60 0 -107 29.5t-47 87.5q0 25 15.5 43.5t38.5 18.5q14 0 29.5 -10.5t15.5 -30.5q0 -19 -9 -29.5t-20.5 -13t-20.5 -6.5t-9 -12q0 -2 2 -7t10 -14t21 -16.5t38 -13.5t58 -6q66 0 114.5 59.5t48.5 158.5q0 56 -36.5 83.5t-93.5 27.5q-7 0 -21.5 -1t-21.5 -1
q-19 0 -19 18q0 14 24 14q3 0 17 -1t24 -1q85 0 130.5 55.5t45.5 131.5q0 85 -91 85q-33 0 -61 -12t-28 -26q0 -2 8.5 -13t8.5 -31t-11 -31.5t-30 -11.5t-29.5 14t-10.5 34q0 34 41.5 65.5t120.5 31.5q64 0 114 -34t50 -97q0 -49 -32.5 -88.5t-74.5 -59.5t-89 -29v-2
q66 -12 110 -51t44 -105q0 -23 -6.5 -47.5t-25.5 -53t-47.5 -50.5t-77 -37t-110.5 -15z" />
    <glyph glyph-name="four" unicode="4" 
d="M358 0h-228l5 23h70l39 145h-253v37q68 95 201.5 242.5t203.5 210.5h54l-118 -461h92l17 71h25l-42 -169h-26l18 69h-91l-38 -145h75zM252 197l92 364l-2 2q-196 -190 -325 -366h235z" />
    <glyph glyph-name="five" unicode="5" 
d="M385 574h-196l-64 -197q66 19 117 19q30 0 62 -10t63 -30.5t51 -57t20 -82.5q0 -87 -74.5 -157t-187.5 -70q-59 0 -108 30t-49 88q0 28 13.5 47t38.5 19q23 0 37.5 -14.5t14.5 -36.5q0 -24 -14.5 -34t-29 -12.5t-14.5 -8.5q0 -22 35 -39t74 -17q77 0 124 66.5t47 157.5
q0 59 -41.5 94t-99.5 35q-12 0 -55 -8.5t-46 -8.5q-6 0 -8 6t1 12l76 235q7 20 20 32.5t26 12.5h181q58 0 69 24h15q-4 -50 -28 -72.5t-70 -22.5z" />
    <glyph glyph-name="six" unicode="6" 
d="M483 668v-23q-111 -10 -202 -89t-127 -190l2 -2q64 62 147 62q21 0 45.5 -9t51 -27.5t43.5 -55t17 -84.5q0 -108 -78 -184.5t-183 -76.5q-50 0 -88 24.5t-55 59.5t-25 63.5t-8 47.5q0 125 69.5 236.5t175 176.5t215.5 71zM141 308q-14 -23 -28.5 -92t-14.5 -97
q0 -50 29 -80t77 -30q46 0 79.5 30.5t53.5 78.5q12 31 24 82.5t12 79.5q0 115 -88 115q-44 0 -85 -28.5t-59 -58.5z" />
    <glyph glyph-name="seven" unicode="7" 
d="M166 645h359v-20q-292 -374 -297 -511q-1 -15 2 -31.5t3 -25.5q0 -28 -13 -48t-40 -20q-26 0 -41.5 15.5t-15.5 43.5q0 55 75.5 176.5t257.5 349.5h-271q-11 0 -20 -4t-17 -13.5t-12 -14.5t-12.5 -19.5t-9.5 -16.5h-28z" />
    <glyph glyph-name="eight" unicode="8" 
d="M7 157q0 70 63.5 122.5t134.5 62.5v2q-49 17 -78.5 56t-29.5 93q0 21 9 46t30.5 53.5t66.5 47t107 18.5q64 0 112 -43.5t48 -109.5t-54 -114t-119 -55v-2q57 -15 97 -56t40 -100q0 -85 -70 -137t-171 -52q-79 0 -132.5 44t-53.5 124zM347 219q0 58 -29 81t-86 23
q-84 0 -117 -94q-25 -68 -25 -124q0 -45 22.5 -70.5t84.5 -25.5q73 0 112 60q16 26 27 71t11 79zM390 546v5q1 40 -21 63.5t-60 23.5q-51 0 -77.5 -24.5t-42.5 -80.5q-13 -45 -13 -76q0 -46 20 -75.5t63 -29.5q65 0 93 51q17 32 27.5 77.5t10.5 65.5z" />
    <glyph glyph-name="nine" unicode="9" 
d="M22 -21v23q111 10 202 89t127 190l-2 2q-64 -62 -147 -62q-21 0 -45.5 9t-51 27.5t-43.5 55t-17 84.5q0 108 78 184.5t183 76.5q50 0 88 -24.5t55 -59.5t25 -63t8 -47q0 -126 -69.5 -237.5t-175 -176.5t-215.5 -71zM364 339q14 23 28.5 92t14.5 97q0 50 -29 80t-77 30
q-46 0 -79.5 -30.5t-53.5 -78.5q-12 -30 -24 -82t-12 -80q0 -115 88 -115q44 0 85 28.5t59 58.5z" />
    <glyph glyph-name="colon" unicode=":" horiz-adv-x="250" 
d="M15 48q0 26 17 43.5t42 17.5t42.5 -18t17.5 -43t-17.5 -43t-42.5 -18t-42 17.5t-17 43.5zM103 345q0 26 17 43.5t42 17.5t42.5 -18t17.5 -43t-17.5 -43t-42.5 -18t-42 17.5t-17 43.5z" />
    <glyph glyph-name="semicolon" unicode=";" horiz-adv-x="250" 
d="M5 -166l-11 20q119 75 119 137q0 28 -14 28q-4 0 -16.5 -14.5t-32.5 -14.5q-16 0 -28 14t-12 30q0 29 17.5 48t45.5 19q35 0 52.5 -25.5t17.5 -62.5q0 -57 -38 -99t-100 -80zM103 345q0 26 17 43.5t42 17.5t42.5 -18t17.5 -43t-17.5 -43t-42.5 -18t-42 17.5t-17 43.5z
" />
    <glyph glyph-name="less" unicode="&#x3c;" horiz-adv-x="550" 
d="M507 35v-64l-464 242v60l464 242v-65l-392 -207z" />
    <glyph glyph-name="equal" unicode="=" horiz-adv-x="550" 
d="M507 316h-464v58h464v-58zM507 112h-464v58h464v-58z" />
    <glyph glyph-name="greater" unicode="&#x3e;" horiz-adv-x="550" 
d="M43 -29v64l392 208l-392 207v65l464 -242v-60z" />
    <glyph glyph-name="question" unicode="?" 
d="M186 193h-22q2 37 7.5 64.5t17.5 49.5t22.5 36.5t34.5 31.5t41 26.5t54 29.5q42 22 63.5 48t21.5 68q0 43 -35 79.5t-94 36.5q-33 0 -64.5 -17.5t-31.5 -30.5q0 -4 9.5 -10.5t18.5 -17.5t9 -26q0 -41 -40 -41q-16 0 -28 13.5t-12 29.5q0 44 39 82t102 38q69 0 113 -44.5
t44 -114.5q0 -57 -25 -97t-55.5 -58.5t-79 -44.5t-74.5 -47q-29 -23 -36 -84zM89 44q0 23 16.5 40t39.5 17q22 0 38.5 -17t16.5 -40t-16 -39.5t-39 -16.5t-39.5 16.5t-16.5 39.5z" />
    <glyph glyph-name="at" unicode="@" horiz-adv-x="778" 
d="M540 405q0 71 -57 71q-45 0 -85.5 -61.5t-40.5 -144.5q0 -84 62 -84q36 0 73.5 59.5t47.5 159.5zM555 459l11 41h68l-66 -261q-1 -9 -3 -23t8 -27.5t32 -13.5q61 0 99.5 67t38.5 141q0 120 -79.5 198.5t-217.5 78.5q-126 0 -208.5 -94.5t-82.5 -257.5q0 -115 84 -202
t216 -87q42 0 81 8t60.5 15.5t59.5 24.5l13 -25q-123 -57 -213 -57q-76 0 -141 21.5t-108 56.5t-73.5 79.5t-44.5 89t-14 86.5q0 160 108.5 262.5t262.5 102.5q147 0 239.5 -84.5t92.5 -214.5q0 -87 -52.5 -163.5t-136.5 -76.5q-30 0 -52 16t-30 31.5t-7 23.5h-2
q-16 -21 -47.5 -43.5t-70.5 -26.5q-13 -1 -27 3t-33 14.5t-31 38.5t-12 69q0 50 26 105.5t76 96t108 40.5q24 0 39.5 -12.5t28.5 -40.5z" />
    <glyph glyph-name="A" unicode="A" horiz-adv-x="556" 
d="M384 679l50 -656h64l-7 -23h-227l7 23h68l-13 209h-188l-112 -209h78l-7 -23h-147l7 23h38l355 656h34zM324 257l-17 284h-2l-153 -284h172z" />
    <glyph glyph-name="B" unicode="B" horiz-adv-x="611" 
d="M-9 0l7 23h56l159 622h-76l7 23h253q56 0 95.5 -13.5t58.5 -36t27 -45t8 -47.5q0 -81 -65 -128t-149 -53v-2q69 -12 115 -51.5t46 -105.5q0 -49 -21 -86t-56.5 -57.5t-76 -30.5t-85.5 -12h-303zM231 336l-81 -313h93q74 0 112 19.5t56 74.5q23 69 23 106q0 101 -115 109
q-9 0 -39.5 2t-48.5 2zM310 645l-73 -284q65 0 123 4q66 4 97.5 59.5t31.5 129.5q0 52 -25 71.5t-93 19.5h-61z" />
    <glyph glyph-name="C" unicode="C" horiz-adv-x="611" 
d="M554 632l39 29h18l-37 -178l-28 4q0 173 -128 173q-48 0 -91 -37.5t-72.5 -95.5t-51 -127t-32 -132t-10.5 -111q0 -20 5.5 -42.5t18 -47t38.5 -40t62 -15.5q126 0 224 179l28 -8l-54 -183h-18l-19 39q-66 -54 -158 -54q-96 0 -162.5 71t-66.5 169q0 118 55 225t140 170
t173 63q32 0 67.5 -14t59.5 -37z" />
    <glyph glyph-name="D" unicode="D" horiz-adv-x="667" 
d="M214 645h-79l7 23h243q128 0 191 -73t63 -190q0 -50 -14 -104.5t-43.5 -108t-70.5 -96.5t-99.5 -69.5t-125.5 -26.5h-293l7 23h57zM310 645l-158 -622h68q55 0 87.5 5t67.5 22q58 28 112.5 181t54.5 256q0 86 -43 122t-135 36h-54z" />
    <glyph glyph-name="E" unicode="E" horiz-adv-x="611" 
d="M480 0h-484l7 23h56l157 622h-76l7 23h463l-39 -174h-25q4 23 4 46q0 58 -30.5 81.5t-117.5 23.5h-89l-72 -286q82 1 110.5 18.5t57.5 86.5h26l-66 -259h-25q3 27 3 48q0 48 -19.5 61t-93.5 18l-79 -309h101q105 0 154 31.5t100 133.5h28z" />
    <glyph glyph-name="F" unicode="F" horiz-adv-x="611" 
d="M249 0h-231l7 23h56l157 622h-76l7 23h463l-39 -174h-25q4 23 4 46q0 58 -30.5 81.5t-117.5 23.5h-89l-72 -286q82 1 110.5 18.5t57.5 86.5h26l-66 -259h-25q3 27 3 48q0 48 -19.5 61t-93.5 18l-79 -309h79z" />
    <glyph glyph-name="G" unicode="G" horiz-adv-x="611" 
d="M359 237h261l-7 -26h-60q-17 -55 -35 -92t-48 -70t-75 -48.5t-107 -15.5q-96 0 -162.5 71t-66.5 169q0 118 55 225t140 170t173 63q32 0 67.5 -14t59.5 -37l39 29h18l-37 -178l-28 4q0 173 -128 173q-48 0 -91 -37.5t-72.5 -95.5t-51 -127t-32 -132t-10.5 -111
q0 -19 5 -40.5t18 -48t41.5 -43.5t68.5 -17q60 0 92 47t49 156h-83z" />
    <glyph glyph-name="H" unicode="H" horiz-adv-x="667" 
d="M216 0h-225l7 23h55l159 622h-79l7 23h243l-7 -23h-66l-75 -284h244l72 284h-75l7 23h227l-7 -23h-55l-158 -622h76l-7 -23h-241l7 23h67l79 309h-242l-80 -309h74z" />
    <glyph glyph-name="I" unicode="I" horiz-adv-x="333" 
d="M216 0h-225l7 23h54l166 622h-78l7 23h232l-7 -23h-57l-167 -622h75z" />
    <glyph glyph-name="J" unicode="J" horiz-adv-x="444" 
d="M235 668h243l-7 -23h-57l-127 -561q-7 -32 -19.5 -61.5t-34 -61.5t-56.5 -51t-79 -19q-41 0 -69.5 22t-28.5 63q0 32 17.5 45.5t35.5 13.5t33.5 -12t15.5 -33t-16 -39t-16 -20q0 -17 24 -17q61 0 92 139l133 592h-91z" />
    <glyph glyph-name="K" unicode="K" horiz-adv-x="611" 
d="M589 0h-250l7 23h75l-188 329l326 293h-90l7 23h185l-7 -23h-59l-287 -255l222 -367h66zM221 23l-7 -23h-226l7 23h55l156 622h-78l7 23h246l-7 -23h-71l-159 -622h77z" />
    <glyph glyph-name="L" unicode="L" 
d="M448 0h-460l7 23h52l161 622h-75l7 23h243l-7 -23h-70l-164 -622h79q45 0 73.5 1.5t53 10.5t38 17t30.5 31t27 43t30 63h28z" />
    <glyph glyph-name="M" unicode="M" horiz-adv-x="778" 
d="M142 0h-158l7 23h56l157 622h-76l7 23h192l22 -500h2l272 500h183l-7 -23h-58l-157 -622h81l-7 -23h-241l7 23h64l157 620h-2l-353 -643h-29l-28 638h-2l-157 -615h75z" />
    <glyph glyph-name="N" unicode="N" horiz-adv-x="667" 
d="M153 0h-159l7 23h57l158 622h-76l7 23h179l166 -500h2l119 477h-73l7 23h158l-7 -23h-57l-168 -660h-20l-211 642h-2l-154 -604h74z" />
    <glyph glyph-name="O" unicode="O" horiz-adv-x="667" 
d="M411 660q-53 0 -99 -38t-71 -104q-47 -119 -70 -222t-23 -157q0 -61 31.5 -97.5t91.5 -36.5q54 0 91.5 26.5t75.5 101.5q38 74 61 171t27.5 145.5t4.5 71.5q0 64 -26 101.5t-94 37.5zM269 -15q-97 0 -155 70t-58 169q0 56 16 118.5t48 122t75 108t103 78t125 29.5
q89 0 147.5 -62.5t58.5 -192.5q0 -30 -12 -80t-41 -113t-69 -117.5t-102.5 -92t-135.5 -37.5z" />
    <glyph glyph-name="P" unicode="P" horiz-adv-x="611" 
d="M310 645l-79 -313q51 0 124 5q71 4 112.5 68t41.5 141q0 99 -129 99h-70zM223 0h-229l7 23h56l159 622h-78l7 23h242q108 0 166 -40.5t58 -117.5q0 -24 -5.5 -47.5t-24.5 -52.5t-49.5 -50.5t-87 -36t-130.5 -14.5h-88l-73 -286h77z" />
    <glyph glyph-name="Q" unicode="Q" horiz-adv-x="667" 
d="M478 -195v-19q-40 -5 -72 -5q-61 0 -102.5 16.5t-59.5 43.5t-24.5 50t-6.5 49q0 19 6 51q-76 17 -119.5 82.5t-43.5 150.5q0 56 16 118.5t48 122t75 108t103 78t125 29.5q89 0 147.5 -62.5t58.5 -192.5q0 -27 -10.5 -72t-35 -103t-58 -110t-86.5 -93.5t-114 -54.5
q-6 -73 -5 -93q1 -46 27.5 -71t70.5 -25q47 0 60 2zM411 660q-53 0 -99 -38t-71 -104q-47 -119 -70 -222t-23 -157q0 -61 31.5 -97.5t91.5 -36.5q54 0 91.5 26.5t75.5 101.5q38 74 61 171t27.5 145.5t4.5 71.5q0 64 -26 101.5t-94 37.5z" />
    <glyph glyph-name="R" unicode="R" horiz-adv-x="611" 
d="M230 23l-7 -23h-235l7 23h55l162 622h-86l7 23h273q45 0 84.5 -13.5t68.5 -48.5t29 -86q0 -80 -73.5 -124.5t-195.5 -44.5v-2q77 -25 111 -63t37 -129l11 -86q6 -53 47 -53q24 0 51 10v-24q-17 -9 -36 -14q-22 -5 -40 -5q-64 0 -95.5 34.5t-37.5 102.5l-12 131
q0 52 -31.5 71.5t-93.5 22.5l-84 -324h84zM308 645l-72 -275q124 0 164 19q32 15 59 58t27 109q0 53 -28 71t-106 18h-44z" />
    <glyph glyph-name="S" unicode="S" 
d="M78 36l-57 -37h-15l43 190l24 -6q0 -78 36.5 -127t112.5 -49q62 0 106.5 45.5t44.5 105.5q0 37 -19 65.5t-47 45.5t-61 38t-61 41t-47 55t-19 81q0 84 53 141.5t135 57.5q65 0 121 -49l39 31h19l-38 -171l-24 3q-3 91 -34 127.5t-89 36.5q-54 0 -92.5 -35t-38.5 -91
q0 -29 20.5 -53t50.5 -40.5t66 -38t66 -44t50.5 -59.5t20.5 -84q0 -53 -24 -104t-79 -89t-130 -38q-79 0 -133 51z" />
    <glyph glyph-name="T" unicode="T" horiz-adv-x="556" 
d="M334 23l-6 -23h-253l7 23h72l160 622q-83 0 -129.5 -40t-78.5 -121h-33l57 184h485l-49 -201h-25q3 60 3 62q0 74 -27.5 93t-106.5 23l-160 -622h84z" />
    <glyph glyph-name="U" unicode="U" horiz-adv-x="667" 
d="M207 645h-81l7 23h243l-7 -23h-67l-97 -374q-28 -109 -28 -145q0 -55 35.5 -84.5t89.5 -29.5q141 0 180 143l134 490h-78l7 23h160l-7 -23h-54l-132 -497q-20 -74 -77.5 -118.5t-148.5 -44.5q-79 0 -137.5 41.5t-58.5 119.5q0 54 28 160z" />
    <glyph glyph-name="V" unicode="V" horiz-adv-x="556" 
d="M82 645l7 23h225l-7 -23h-69l31 -507h2l285 507h-80l7 23h148l-7 -23h-40l-368 -660h-30l-41 660h-63z" />
    <glyph glyph-name="W" unicode="W" horiz-adv-x="778" 
d="M79 645l7 23h561l-7 -23h-51l-119 -210l17 -291h2l271 501h-74l7 23h153l-7 -23h-47l-356 -660h-27l-19 321h-2l-185 -321h-25l-36 660h-63zM373 645h-137l24 -509h2l125 225zM561 645h-101l7 -164h2z" />
    <glyph glyph-name="X" unicode="X" horiz-adv-x="611" 
d="M156 23l-7 -23h-177l7 23h52l246 307l-86 315h-81l7 23h255l-7 -23h-79l64 -232l189 232h-89l7 23h182l-7 -23h-59l-214 -265l96 -357h77l-7 -23h-253l7 23h81l-75 277l-222 -277h93z" />
    <glyph glyph-name="Y" unicode="Y" horiz-adv-x="556" 
d="M355 23l-7 -23h-271l7 23h82l69 254l-97 368h-65l7 23h241l-7 -23h-83l86 -326l227 326h-73l7 23h157l-7 -23h-53l-243 -354l-68 -268h91z" />
    <glyph glyph-name="Z" unicode="Z" horiz-adv-x="611" 
d="M516 179l-54 -179h-457v23l490 622h-159q-95 0 -150 -143h-32l45 166h417v-23l-489 -622h170q121 0 188 169z" />
    <glyph glyph-name="bracketleft" unicode="[" horiz-adv-x="278" 
d="M26 -179h146l-6 -23h-214l225 870h215l-6 -23h-145z" />
    <glyph glyph-name="backslash" unicode="\" horiz-adv-x="278" 
d="M14 683h60l220 -698h-60z" />
    <glyph glyph-name="bracketright" unicode="]" horiz-adv-x="278" 
d="M252 645h-146l6 23h214l-225 -870h-215l6 23h145z" />
    <glyph glyph-name="asciicircum" unicode="^" horiz-adv-x="550" 
d="M148 265h-62l183 380h52l183 -380h-62l-147 307z" />
    <glyph glyph-name="underscore" unicode="_" 
d="M500 -125h-500v50h500v-50z" />
    <glyph glyph-name="grave" unicode="`" horiz-adv-x="278" 
d="M269 438h-29l-137 107q-19 14 -19 33q0 11 10.5 20.5t20.5 9.5q20 0 45 -31z" />
    <glyph glyph-name="a" unicode="a" 
d="M355 396h74l-95 -343q-5 -17 1.5 -25t17.5 -8q24 0 57 45.5t41 79.5l19 -6q-27 -77 -63.5 -113.5t-73.5 -36.5q-29 0 -49 17.5t-21 46.5h-2q-19 -29 -51 -46.5t-64 -17.5q-59 0 -93.5 42.5t-34.5 110.5q0 88 78 176t161 88q56 0 80 -61h1zM151 292q-21 -41 -39 -103
t-18 -103q0 -33 17.5 -55t48.5 -22q26 0 59 27.5t57 94.5q44 122 44 185q0 31 -17 50.5t-47 19.5q-36 0 -60 -25.5t-45 -68.5z" />
    <glyph glyph-name="b" unicode="b" horiz-adv-x="444" 
d="M171 664h-69l7 23h24q61 0 118 5l-86 -324l2 -2q48 40 97 40q48 0 89.5 -36.5t41.5 -115.5q0 -40 -16 -85t-45 -86t-76 -67.5t-102 -26.5q-49 0 -88 28.5t-39 77.5q0 12 2.5 25.5t7.5 31.5t7 25zM164 9q23 0 41 9.5t31.5 29.5t20.5 35t18 41q47 114 47 189
q0 32 -17.5 52.5t-48.5 20.5q-88 0 -122 -134q-40 -153 -40 -178t18 -45t52 -20z" />
    <glyph glyph-name="c" unicode="c" horiz-adv-x="389" 
d="M309 108l16 -11q-71 -108 -158 -108q-78 0 -118 48t-40 97q0 102 75.5 187t166.5 85q41 0 72 -22.5t31 -63.5q0 -18 -11.5 -33t-28.5 -15q-16 0 -28 10t-12 26q0 20 14.5 35t14.5 20q0 11 -16.5 17t-31.5 6q-82 0 -126 -114q-41 -111 -41 -177q0 -38 21.5 -59.5
t57.5 -21.5q45 0 76.5 24t65.5 70z" />
    <glyph glyph-name="d" unicode="d" 
d="M451 153l21 -8q-56 -156 -149 -156q-25 0 -41.5 18t-17.5 43h-2q-19 -27 -50.5 -44t-64.5 -17q-59 0 -95 43.5t-36 95.5q0 95 73 186.5t162 91.5q53 0 88 -44l80 302h-83l7 23h38q61 0 118 5l-167 -629q-3 -13 -3 -15q0 -9 8.5 -16t16.5 -7q43 0 97 128zM121 221
q-29 -89 -29 -137q0 -32 19.5 -53.5t49.5 -21.5q37 0 67 34.5t57 119.5q36 108 36 154q0 31 -16 50t-47 19q-28 0 -50.5 -15.5t-39.5 -45t-26.5 -50.5t-20.5 -54z" />
    <glyph glyph-name="e" unicode="e" horiz-adv-x="389" 
d="M108 215q84 0 127.5 34.5t43.5 87.5q0 18 -12.5 32t-30.5 14q-32 0 -60.5 -32t-43 -65.5t-24.5 -70.5zM302 114l17 -12q-31 -56 -67 -84.5t-92 -28.5q-64 0 -107 48t-43 111q0 94 77 176t167 82q41 0 68.5 -23t27.5 -59q0 -54 -59.5 -91.5t-187.5 -38.5q-15 -60 -15 -87
q0 -40 19 -66.5t57 -26.5q50 0 79 24t59 76z" />
    <glyph glyph-name="f" unicode="f" horiz-adv-x="278" 
d="M282 373h-98l-40 -174q-27 -112 -55.5 -193t-53 -124.5t-53.5 -68.5t-49.5 -31t-46.5 -6q-28 0 -52 14t-24 41q0 18 11.5 31.5t32.5 13.5q12 0 23 -11t11 -30q0 -3 -6 -14l-5 -11q0 -11 22 -11q51 0 76 56q23 47 48 156l86 362h-86l7 23h86q13 61 42.5 125.5t81.5 117.5
t110 53q32 0 54.5 -16t22.5 -47q0 -16 -11.5 -27t-27.5 -11t-27.5 9.5t-11.5 24.5q0 9 5.5 19.5t5.5 15.5q0 12 -24 12q-38 0 -83.5 -75.5t-63.5 -200.5h100z" />
    <glyph glyph-name="g" unicode="g" 
d="M220 145q34 0 58.5 34t34 74t9.5 74q0 20 -6 33t-18 18t-17.5 6t-16.5 2q-32 0 -55.5 -26.5t-33 -62.5t-13.5 -60.5t-4 -35.5q0 -27 18 -41.5t44 -14.5zM456 414q17 0 27.5 -11.5t10.5 -28.5q0 -13 -9.5 -23.5t-22.5 -10.5q-14 0 -37 17q-3 -1 -4 -3.5t-3 -10t-4.5 -19
t-10.5 -34.5t-19 -51q-20 -53 -63 -84t-105 -31q-44 0 -76 23q-18 -2 -37.5 -17t-19.5 -32q0 -12 8 -20t29 -13t36 -6.5t51 -4.5q16 -1 24 -2q83 -7 116.5 -28t33.5 -77q0 -48 -23.5 -83.5t-62 -54t-80 -27t-85.5 -8.5q-62 0 -108.5 27t-46.5 86q0 66 98 107v2
q-50 11 -50 62q0 30 26.5 58.5t70.5 49.5q-30 30 -30 76q0 70 53.5 117t122.5 47q40 0 69.5 -22.5t46.5 -60.5h1q8 26 14 41.5t22 32.5t37 17zM266 -26q-14 2 -78.5 6.5t-87.5 10.5q-33 -21 -48.5 -46t-15.5 -63q0 -8 3 -18.5t13 -26.5t34.5 -26.5t60.5 -10.5q28 0 59 5.5
t63 18t53 36t21 55.5q0 17 -6 28.5t-20 17.5t-23 8t-28 5z" />
    <glyph glyph-name="h" unicode="h" 
d="M172 664h-77l7 23h32q60 0 118 5l-91 -377l2 -1q25 39 68.5 65.5t79.5 26.5q88 0 88 -83q0 -18 -35.5 -149.5t-35.5 -132.5q0 -20 28 -20q47 0 93 121l19 -8q-12 -31 -23 -52t-28.5 -44.5t-41 -36t-51.5 -12.5q-27 0 -45 14t-18 40q0 33 35.5 157t35.5 137q0 38 -45 38
q-54 0 -98.5 -61t-66.5 -150l-41 -164h-72l162 661z" />
    <glyph glyph-name="i" unicode="i" horiz-adv-x="278" 
d="M228 144l19 -7q-48 -148 -150 -148q-26 0 -44.5 13.5t-18.5 38.5q0 16 10 56l72 276h-79l7 23h19q39 0 134 10l-87 -327l-9 -36q0 -9 9 -14t19 -5q51 0 99 120zM199 560q-20 0 -33 13.5t-13 34.5q0 20 13.5 34.5t32.5 14.5t32.5 -14.5t13.5 -34.5q0 -21 -13 -34.5
t-33 -13.5z" />
    <glyph glyph-name="j" unicode="j" horiz-adv-x="222" 
d="M111 373h-81l7 23h19q39 0 134 10l-105 -431q-19 -80 -62 -141t-104 -61q-29 0 -51 15t-22 44q0 17 11 29t27 12q18 0 29.5 -10.5t11.5 -29.5q0 -3 -2.5 -11.5t-2.5 -12.5q0 -3 4.5 -7.5t7.5 -4.5q21 0 38 33t38 120zM192 560q-20 0 -33 13.5t-13 34.5q0 20 13.5 34.5
t32.5 14.5t32.5 -14.5t13.5 -34.5q0 -21 -13 -34.5t-33 -13.5z" />
    <glyph glyph-name="k" unicode="k" horiz-adv-x="444" 
d="M133 214l-54 -214h-73l169 664h-81l7 23h36q61 0 118 5l-114 -440q1 0 14.5 4.5t20.5 4.5q6 0 16 -2.5t14 -2.5q4 2 8 2.5t5.5 2l6.5 6.5q55 88 80.5 113.5t55.5 25.5q17 0 35.5 -14t18.5 -40q0 -37 -40 -37q-13 0 -21.5 9t-8.5 22q0 2 2 11t2 11q0 3 -4 6t-7 3
q-6 0 -14.5 -7.5t-20.5 -23.5t-20.5 -29t-24.5 -37t-23 -34q33 -15 47.5 -38.5t14.5 -61.5q0 -12 -4.5 -45.5t-4.5 -44.5q0 -28 23 -28q18 0 43 39.5t40 73.5l18 -8q-22 -57 -58.5 -100.5t-83.5 -43.5q-59 0 -59 62q0 14 15.5 71t15.5 73q0 17 -8 28t-17 11q-2 0 -19.5 -10
t-35.5 -10h-30z" />
    <glyph glyph-name="l" unicode="l" horiz-adv-x="278" 
d="M179 664h-82l7 23h38q61 0 118 5l-164 -613l-9 -36q0 -9 9 -14t19 -5q48 0 107 131l19 -7q-60 -159 -158 -159q-26 0 -44.5 13.5t-18.5 38.5q0 16 10 56z" />
    <glyph glyph-name="m" unicode="m" horiz-adv-x="722" 
d="M113 373h-80l7 23h19q41 0 135 10l-20 -83l3 -2q68 85 140 85q34 0 59.5 -20t24.5 -65h1h2q67 85 139 85q88 0 88 -83q0 -18 -35.5 -149.5t-35.5 -132.5q0 -20 28 -20q47 0 93 121l19 -8q-12 -31 -23 -52t-28.5 -44.5t-41 -36t-51.5 -12.5q-27 0 -45 14t-18 40
q0 33 35.5 157t35.5 137q0 38 -45 38q-6 0 -17 -3t-29 -13.5t-35 -28t-35 -50t-29 -75.5l-55 -205h-71l61 239q22 85 22 99q0 18 -11.5 27.5t-28.5 9.5q-6 0 -17 -3t-29 -13.5t-35 -28t-35 -50t-29 -75.5l-55 -205h-71z" />
    <glyph glyph-name="n" unicode="n" 
d="M117 373h-80l7 23h19q39 0 134 10l-24 -91l2 -1q25 39 68.5 65.5t79.5 26.5q88 0 88 -83q0 -18 -35.5 -149.5t-35.5 -132.5q0 -20 28 -20q47 0 93 121l19 -8q-12 -31 -23 -52t-28.5 -44.5t-41 -36t-51.5 -12.5q-27 0 -45 14t-18 40q0 33 35.5 157t35.5 137q0 38 -45 38
q-54 0 -98.5 -61t-66.5 -150l-41 -164h-72z" />
    <glyph glyph-name="o" unicode="o" horiz-adv-x="444" 
d="M401 247q0 -57 -32 -117t-86.5 -100.5t-113.5 -40.5q-72 0 -114 45t-42 101q0 102 74 186.5t168 84.5q63 0 104.5 -47t41.5 -112zM130 277q-11 -30 -26 -95t-15 -90q0 -34 21.5 -58.5t54.5 -24.5q45 0 71.5 30t44.5 80q38 105 38 184q0 83 -71 83q-80 0 -118 -109z" />
    <glyph glyph-name="p" unicode="p" horiz-adv-x="444" 
d="M100 -226h-196l7 20h55l139 579h-78l7 23h19q27 0 127 10l-16 -59l2 -2q25 30 49.5 45.5t60.5 15.5q19 0 39 -7t41 -23.5t34.5 -50t13.5 -79.5q0 -89 -69 -173t-152 -84q-66 0 -88 51h-2l-59 -246h73zM139 234q-30 -107 -30 -153q0 -29 18 -50.5t46 -21.5q44 0 67.5 23.5
t48.5 95.5q39 109 39 174q0 84 -68 84q-82 0 -121 -152z" />
    <glyph glyph-name="q" unicode="q" horiz-adv-x="444" 
d="M185 -206l64 247l-2 2q-35 -54 -107 -54q-61 0 -96 40.5t-35 104.5q0 55 34.5 119t89.5 108.5t108 44.5q69 0 85 -61h2l15 51h70l-158 -602h69l-7 -20h-206l7 20h67zM180 352q-27 -29 -57 -109t-36 -149q-3 -44 16.5 -64.5t41.5 -20.5q70 0 109 86q59 127 59 212
q0 36 -16.5 57.5t-48.5 21.5q-22 0 -36 -7t-32 -27z" />
    <glyph glyph-name="r" unicode="r" horiz-adv-x="333" 
d="M16 0l92 373h-79l7 23h19q39 0 134 10l-25 -100l2 -1q21 41 53.5 71t69.5 30q19 0 32.5 -11t13.5 -29q0 -17 -11.5 -28.5t-28.5 -11.5q-15 0 -32.5 13.5t-24.5 13.5q-18 0 -52 -50t-51 -116l-47 -187h-72z" />
    <glyph glyph-name="s" unicode="s" horiz-adv-x="333" 
d="M108 -11q-35 0 -60 9t-36.5 22.5t-16 25t-4.5 21.5q0 20 9.5 34t27.5 14q15 0 26.5 -11t11.5 -27q0 -10 -7.5 -26t-7.5 -19q0 -12 17 -17.5t33 -5.5q95 0 95 69q0 22 -20 49t-43.5 49t-43.5 55t-20 66q0 53 38.5 81t90.5 28q29 0 56.5 -15.5t27.5 -48.5q0 -37 -35 -37
q-15 0 -23.5 8.5t-8.5 21.5q0 4 3 15t3 15q0 21 -36 21q-26 0 -44 -14.5t-18 -41.5q0 -19 15.5 -38.5t47.5 -50t53 -57.5q20 -25 18 -71q0 -12 -6.5 -30t-21.5 -40.5t-47 -38t-74 -15.5z" />
    <glyph glyph-name="t" unicode="t" horiz-adv-x="278" 
d="M247 373h-77l-73 -288q-11 -40 -11 -43q0 -23 20 -23q32 0 62.5 39.5t46.5 96.5l19 -7q-15 -63 -57 -111t-98 -48q-24 0 -44 13t-20 37l16 68l67 266h-68l7 23h68l29 109h72l-29 -109h77z" />
    <glyph glyph-name="u" unicode="u" 
d="M114 373h-81l7 23h19q39 0 134 10l-72 -297q-1 -4 -4.5 -15.5t-5.5 -21.5t-2 -18q0 -20 13 -27.5t26 -7.5q46 0 89 45.5t60 110.5l57 221h71l-44 -168q-3 -14 -15 -58t-19.5 -75t-7.5 -38q0 -34 26 -34q51 0 96 121l18 -6q-48 -149 -141 -149q-39 0 -54.5 25t-9.5 62
l-3 2q-23 -37 -63.5 -63t-82.5 -26q-85 0 -85 69q0 4 3 17t8 32t8 31z" />
    <glyph glyph-name="v" unicode="v" horiz-adv-x="389" 
d="M7 253h-21q58 153 143 153q25 0 41 -14t16 -42q0 -10 -41.5 -153t-41.5 -152q0 -31 39 -31q50 0 96 57.5t69.5 123t23.5 106.5q0 21 -25.5 35t-25.5 37q0 14 10 23.5t24 9.5q21 0 33 -18.5t12 -50.5q0 -30 -8.5 -72t-27.5 -90.5t-45.5 -89.5t-67 -68.5t-87.5 -27.5
q-33 0 -59 16.5t-26 49.5q0 17 38.5 158t38.5 142q0 7 -5 13t-13 6q-21 0 -47.5 -41.5t-42.5 -79.5z" />
    <glyph glyph-name="w" unicode="w" horiz-adv-x="611" 
d="M20 266h-23q16 53 55 96.5t86 43.5q53 0 53 -53q0 -15 -19.5 -92t-39 -149t-19.5 -74q2 -22 20 -22q14 0 29 12t23.5 22.5t24.5 34.5q72 106 135 311h69q-6 -25 -26 -92.5t-32 -121.5t-12 -96q0 -20 2.5 -33t12.5 -23.5t28 -10.5q39 0 77 64t58 130t20 93q0 12 -7 18.5
t-16 8.5t-16 11.5t-7 27.5q0 16 11.5 25t27.5 9q15 0 24.5 -17.5t9.5 -40.5q0 -64 -24 -145t-74 -147.5t-109 -66.5q-45 0 -64 31t-19 71q0 23 7 79l-2 1q-52 -106 -93 -144t-86 -38q-25 0 -42 16.5t-17 41.5q0 3 38 153.5t38 164.5q0 1 -5.5 5t-8.5 4q-21 0 -49.5 -39
t-38.5 -69z" />
    <glyph glyph-name="x" unicode="x" horiz-adv-x="444" 
d="M379 159l19 -5q-52 -165 -126 -165q-18 0 -31.5 6t-21 14t-13.5 24.5t-8 28t-6 33.5l-10 57l-74 -96q-2 -3 -10.5 -14t-12 -15.5t-12.5 -13.5t-15.5 -13t-15.5 -7.5t-19 -3.5q-43 0 -43 39t34 39q13 0 27.5 -14.5t19.5 -14.5q8 0 21 16l95 127l-14 88q-10 54 -17.5 74
t-18.5 20q-16 0 -32.5 -24.5t-32 -59.5t-19.5 -41l-21 8q3 6 20.5 41.5t29.5 56.5t33.5 41.5t42.5 20.5q37 0 54.5 -33t30.5 -110q5 6 26.5 35.5t38 49.5t38.5 39t37 19t26 -9.5t11 -25.5q0 -15 -10.5 -25.5t-25.5 -10.5q-7 0 -20.5 7.5t-15.5 7.5q-13 0 -46.5 -45
t-52.5 -78l26 -138q6 -35 11.5 -48.5t18.5 -13.5q34 0 84 132z" />
    <glyph glyph-name="y" unicode="y" horiz-adv-x="444" 
d="M29 242l-20 7q37 90 62 120q30 37 66 37q33 0 52 -26t31 -107l25 -159h2l76 166q34 76 50.5 101t39.5 25q34 0 34 -35q0 -11 -8.5 -19.5t-19.5 -8.5q-15 0 -22 6.5t-12 6.5q-4 0 -16.5 -24.5t-33 -69.5t-38.5 -87.5t-43 -102t-38 -88.5q-48 -110 -100.5 -160.5
t-88.5 -50.5q-49 0 -49 40q0 12 9 22.5t22 10.5q11 0 28 -16.5t25 -16.5q26 0 74.5 72t48.5 111q0 13 -16 130.5t-23 162.5q0 1 -1.5 14.5t-3.5 21.5t-5.5 19.5t-10 17t-14.5 5.5q-14 0 -28 -16.5t-22.5 -34.5t-18.5 -43.5t-13 -30.5z" />
    <glyph glyph-name="z" unicode="z" horiz-adv-x="333" 
d="M80 338l-32 -58l-19 10l66 116q43 -15 104.5 -26.5t90.5 -5.5q-2 13 4.5 22.5t18.5 9.5q7 0 12 -6t5 -12q0 -8 -15 -29t-26 -32l-237 -239q29 -1 98 -25t81 -24q11 0 18 6t7 14q0 9 -24 15t-24 27q0 13 10 21t24 8q19 0 28.5 -16t9.5 -37q0 -45 -31 -66.5t-76 -21.5
q-22 0 -52.5 8.5t-67.5 21.5t-52 17q-3 -45 -22 -45q-17 0 -17 19q0 18 33 51l251 260l-2 2q-21 -3 -49 -3q-68 0 -115 18z" />
    <glyph glyph-name="braceleft" unicode="{" horiz-adv-x="333" 
d="M160 -197l-3 -12q-62 0 -87.5 19t-25.5 66q0 61 31 166q31 99 31 135q0 45 -47 57q35 10 52 24.5t38.5 70t46.5 169.5q20 92 64 135t102 43h27l-3 -12q-29 -9 -43.5 -17.5t-31 -31t-29 -63t-26.5 -109.5q-12 -59 -26.5 -98t-33.5 -60.5t-37 -31.5t-46 -18l-1 -2
q27 -5 43.5 -25.5t16.5 -50.5q0 -34 -32 -152t-32 -136q0 -23 13.5 -42t38.5 -24z" />
    <glyph glyph-name="bar" unicode="|" horiz-adv-x="222" 
d="M82 750h58v-1000h-58v1000z" />
    <glyph glyph-name="braceright" unicode="}" horiz-adv-x="333" 
d="M173 664l3 12q62 0 87.5 -19t25.5 -65q0 -68 -31 -167q-31 -105 -31 -135q0 -45 47 -56q-35 -11 -52 -25.5t-38.5 -70t-46.5 -169.5q-20 -92 -64 -135t-102 -43h-27l3 12q38 13 56 27t36.5 58.5t37.5 135.5q16 78 38.5 122.5t44.5 60t60 26.5l1 2q-27 5 -43.5 25
t-16.5 50q0 36 32 152q32 118 32 136q0 23 -13.5 42t-38.5 24z" />
    <glyph glyph-name="asciitilde" unicode="~" horiz-adv-x="550" 
d="M470 312l36 -44q-20 -29 -33 -44.5t-38 -30.5t-54 -15q-41 0 -102 35q-64 36 -115 36q-52 0 -84 -75l-36 44q44 89 125 89q41 0 111 -33q81 -37 102 -37q19 0 36 12.5t27 25.5t25 37z" />
    <glyph glyph-name="uni00A0" unicode="&#xa0;" horiz-adv-x="250" 
 />
    <glyph glyph-name="exclamdown" unicode="&#xa1;" horiz-adv-x="389" 
d="M210 268h26q-34 -127 -43 -188t-15 -176q-7 -123 -74 -123q-17 0 -31 14.5t-14 43.5q0 32 18.5 68.5t57.5 129t75 231.5zM200 416q0 24 16.5 40.5t39.5 16.5t39 -16.5t16 -40.5q0 -23 -16.5 -39.5t-38.5 -16.5q-23 0 -39.5 16.5t-16.5 39.5z" />
    <glyph glyph-name="cent" unicode="&#xa2;" 
d="M350 108l16 -12q-70 -107 -158 -107q-23 0 -39 4l-70 -127h-33l74 136q-45 19 -67.5 58t-22.5 74q0 101 75.5 185.5t166.5 84.5q34 0 60 -15l64 116h35l-75 -136q19 -21 19 -51q0 -17 -11.5 -32t-28.5 -15q-16 0 -28 9l-144 -262q13 -5 25 -5q45 0 76.5 24.5t65.5 70.5z
M156 31l162 296q4 7 15 17.5t11 16.5q0 11 -16.5 17t-31.5 6q-27 0 -49 -11t-37 -30.5t-23.5 -35t-16.5 -36.5q-41 -111 -41 -177q0 -41 27 -63z" />
    <glyph glyph-name="sterling" unicode="&#xa3;" 
d="M241 383h116l-7 -25h-112q-16 -192 -123 -285l2 -2q54 19 112 19q17 0 47 -6q26 -7 46 -7q25 0 42 9.5t27 28.5t14.5 37t8.5 44h21q-4 -36 -8 -59.5t-14.5 -54t-25 -49t-40 -31.5t-59.5 -13q-35 0 -79 32t-64 32q-26 0 -53 -31q-25 -31 -44 -31q-25 0 -25 27q0 9 7.5 19
t15.5 16.5t19.5 14t12.5 8.5q33 24 51 62t18 115v105h-105l7 25h100q9 62 35.5 122t77 106.5t110.5 46.5q42 0 71 -24.5t29 -67.5q0 -26 -13 -43t-37 -17q-15 0 -26.5 10.5t-11.5 24.5q0 18 6.5 30.5t14 17t14 9.5t6.5 10q0 12 -20.5 21t-31.5 9q-61 0 -91 -47
q-29 -45 -41 -208z" />
    <glyph glyph-name="currency" unicode="&#xa4;" 
d="M-8 84l98 98q-45 56 -45 129q0 71 44 130l-97 97l41 41l97 -97q57 44 130 44t130 -44l97 97l41 -41l-97 -97q44 -59 44 -130q0 -73 -44 -130l97 -97l-41 -41l-98 98q-56 -45 -129 -45q-75 0 -129 45l-98 -98zM103 311q0 -65 46 -111t111 -46t111 46t46 111t-46 111
t-111 46t-111 -46t-46 -111z" />
    <glyph glyph-name="yen" unicode="&#xa5;" 
d="M250 168l-36 -145h91l-7 -23h-256l7 23h82l39 145h-167l7 27h167l23 87l-7 26h-163l7 27h149l-75 287h-65l7 23h226l-7 -23h-83l78 -297l204 297h-73l7 23h157l-7 -23h-53l-194 -287h158l-7 -27h-169l-8 -12l-25 -101h182l-7 -27h-182z" />
    <glyph glyph-name="brokenbar" unicode="&#xa6;" horiz-adv-x="222" 
d="M82 675h58v-350h-58v350zM82 175h58v-350h-58v350z" />
    <glyph glyph-name="section" unicode="&#xa7;" 
d="M184 552q0 60 41 95.5t101 35.5q56 0 95.5 -25t39.5 -79q0 -22 -15.5 -37.5t-36.5 -15.5t-34 14t-13 35q0 18 17 32t17 25q0 17 -20.5 24t-41.5 7q-40 0 -65 -24t-25 -64q0 -30 14.5 -54t54 -69t68.5 -85q57 -80 54 -143q-2 -46 -33 -82.5t-77 -36.5q-20 0 -41 8l-2 -2
q25 -32 34 -45t19 -39t10 -56q0 -53 -46.5 -92.5t-99.5 -39.5q-71 0 -108.5 34.5t-37.5 73.5q0 26 16 43t41 17q45 0 45 -50q0 -17 -10.5 -28t-20.5 -18t-10 -14q0 -15 23 -26.5t54 -11.5q39 0 67.5 26.5t28.5 66.5q0 33 -31 76.5t-67.5 80t-67.5 88.5t-31 100q0 50 30.5 87
t78.5 37q27 0 50 -10l2 2q-67 85 -67 139zM256 388q-20 10 -49 10q-24 0 -42 -19t-18 -43q0 -31 13 -58.5t48 -70.5q41 -49 60 -64t45 -15q18 0 41.5 18.5t22.5 53.5q-1 47 -42.5 104.5t-78.5 83.5z" />
    <glyph glyph-name="dieresis" unicode="&#xa8;" horiz-adv-x="278" 
d="M98 456q-19 0 -32 13t-13 32q0 18 13 31.5t32 13.5q18 0 31.5 -13.5t13.5 -31.5q0 -19 -13.5 -32t-31.5 -13zM298 456q-19 0 -32 13t-13 32q0 18 13 31.5t32 13.5q18 0 31.5 -13.5t13.5 -31.5q0 -19 -13.5 -32t-31.5 -13z" />
    <glyph glyph-name="copyright" unicode="&#xa9;" horiz-adv-x="800" 
d="M423 -15q-148 0 -250 101.5t-102 245.5q0 146 102 248.5t250 102.5q149 0 250.5 -102.5t101.5 -248.5q0 -144 -101.5 -245.5t-250.5 -101.5zM423 24q125 0 210 91.5t85 216.5q0 127 -84.5 219.5t-210.5 92.5q-124 0 -209 -93t-85 -219q0 -125 85 -216.5t209 -91.5z
M577 247h16l-17 -70q0 -11 -25 -19q-51 -17 -106 -17q-95 0 -157 49.5t-62 151.5q0 71 60 133.5t164 62.5q19 0 36 -2.5t25 -4.5t24.5 -7t19.5 -6q21 -7 21 -21v-71h-15q-4 38 -31 65t-83 27q-71 0 -105.5 -46.5t-35.5 -125.5q-1 -85 35 -135t113 -50q88 0 123 86z" />
    <glyph glyph-name="ordfeminine" unicode="&#xaa;" horiz-adv-x="300" 
d="M281 652h58l-62 -192q-3 -10 1.5 -15t11.5 -5q14 0 35 24.5t26 42.5l20 -3q-35 -87 -104 -87q-19 0 -32 10.5t-14 27.5h-1q-28 -38 -85 -38q-38 0 -60.5 25t-22.5 64q0 51 52.5 101.5t112.5 50.5q37 0 52 -35h1zM153 592q-14 -23 -25.5 -59t-11.5 -59q0 -15 10 -27.5
t23 -12.5q49 0 76 66q28 71 28 106q0 14 -9.5 24.5t-21.5 10.5q-40 0 -69 -49z" />
    <glyph glyph-name="guillemotleft" unicode="&#xab;" 
d="M281 217q73 -131 73 -138q0 -6 -6 -6q-2 0 -4 1t-5.5 4.5t-7.5 8.5t-12 14.5t-16.5 20t-24 28.5t-32.5 37q-24 27 -24 32q0 3 7.5 9t23 17.5t27.5 21.5q36 26 64.5 52t40 37t15.5 11q8 0 8 -7q0 -24 -114 -131q-9 -8 -13 -12zM149 217q73 -131 73 -138q0 -6 -6 -6
q-2 0 -4 1t-5.5 4.5t-7.5 8.5t-12 14.5t-16.5 20t-24 28.5t-32.5 37q-24 27 -24 32q0 3 7.5 9t23 17.5t27.5 21.5q36 26 64.5 52t40 37t15.5 11q8 0 8 -7q0 -24 -114 -131q-9 -8 -13 -12z" />
    <glyph glyph-name="logicalnot" unicode="&#xac;" horiz-adv-x="550" 
d="M449 91v225h-406v58h464v-283h-58z" />
    <glyph glyph-name="uni00AD" unicode="&#xad;" horiz-adv-x="333" 
d="M38 248h238l-15 -60h-238z" />
    <glyph glyph-name="registered" unicode="&#xae;" horiz-adv-x="800" 
d="M261 511v15h174q51 0 85.5 -24t34.5 -70q0 -38 -23 -65t-60 -41l59 -80q50 -69 80 -86v-9h-59q-10 0 -19.5 7t-21 22.5t-22 33t-29 46.5t-36.5 54h-53v-97q0 -35 5.5 -40.5t44.5 -9.5v-16h-160v16q38 4 43.5 9.5t5.5 40.5v243q0 35 -5.5 41t-43.5 10zM371 506v-171h47
q37 0 56.5 25t19.5 69q0 40 -22 58.5t-57 18.5h-44zM423 -15q-148 0 -250 101.5t-102 245.5q0 146 102 248.5t250 102.5q149 0 250.5 -102.5t101.5 -248.5q0 -144 -101.5 -245.5t-250.5 -101.5zM423 24q125 0 210 91.5t85 216.5q0 127 -84.5 219.5t-210.5 92.5
q-124 0 -209 -93t-85 -219q0 -125 85 -216.5t209 -91.5z" />
    <glyph glyph-name="macron" unicode="&#xaf;" horiz-adv-x="278" 
d="M358 527l-8 -49h-274l8 49h274z" />
    <glyph glyph-name="degree" unicode="&#xb0;" horiz-adv-x="400" 
d="M235 404q44 0 75 33t31 78t-31 78t-75 33t-75 -33t-31 -78t31 -78t75 -33zM235 372q-60 0 -101.5 41.5t-41.5 101.5t41.5 101.5t101.5 41.5t101.5 -41.5t41.5 -101.5t-41.5 -101.5t-101.5 -41.5z" />
    <glyph glyph-name="plusminus" unicode="&#xb1;" horiz-adv-x="550" 
d="M507 0h-464v58h464v-58zM246 324v162h58v-162h203v-58h-203v-162h-58v162h-203v58h203z" />
    <glyph glyph-name="twosuperior" unicode="&#xb2;" horiz-adv-x="300" 
d="M7 263v30q18 15 73 55.5t87 67t61.5 69t29.5 81.5q0 72 -70 72q-29 0 -53.5 -16t-24.5 -35q0 -15 13 -15q15 0 24.5 -7t9.5 -19q0 -14 -8.5 -23.5t-22.5 -9.5q-21 0 -35.5 16t-14.5 40q0 37 38.5 63t99.5 26q48 0 84.5 -23.5t36.5 -67.5q0 -37 -32.5 -77.5t-71 -68
t-88 -60t-65.5 -46.5l1 -2h145q17 0 27 11t17 36h22l-33 -97h-250z" />
    <glyph glyph-name="threesuperior" unicode="&#xb3;" horiz-adv-x="300" 
d="M119 255q-40 0 -72.5 19t-32.5 57q0 15 13 28.5t32 13.5q8 0 18.5 -8.5t10.5 -21.5q0 -19 -19 -25t-19 -11q0 -1 1.5 -4t6.5 -8t12.5 -9.5t23 -8t35.5 -3.5q41 0 70.5 34t29.5 90q0 67 -79 67q-4 0 -14 -2t-14 -2q-12 0 -12 16q0 13 15 13q2 0 11.5 -1.5t15.5 -1.5
q54 0 81.5 31t27.5 71q0 51 -49 51q-21 0 -39.5 -7.5t-18.5 -15.5q0 -1 5.5 -7.5t5.5 -18.5q0 -13 -8 -22t-23 -9q-13 0 -22 11.5t-9 27.5q0 20 29 39t81 19q43 0 80 -20.5t37 -58.5q0 -43 -40 -70t-88 -31v-2q100 -25 100 -98q0 -18 -8 -36.5t-26.5 -39t-57 -33.5
t-91.5 -13z" />
    <glyph glyph-name="acute" unicode="&#xb4;" horiz-adv-x="278" 
d="M176 438h-31q19 18 65.5 66t75 74t39.5 26q16 0 26.5 -9t10.5 -23q0 -20 -31 -37z" />
    <glyph glyph-name="mu" unicode="&#xb5;" 
d="M114 373h-81l7 23h19q39 0 134 10l-72 -297q-1 -4 -4.5 -15.5t-5.5 -21.5t-2 -18q0 -20 13 -27.5t26 -7.5q46 0 89 45.5t60 110.5l57 221h71l-44 -168q-3 -14 -15 -58t-19.5 -75t-7.5 -38q0 -34 26 -34q51 0 96 121l18 -6q-48 -149 -141 -149q-39 0 -54.5 25t-9.5 62
l-3 2q-23 -37 -63.5 -63t-82.5 -26q-33 0 -56 13q-16 -21 -16 -37q0 -23 21 -63t21 -58q0 -71 -52 -71q-23 0 -32.5 23.5t-9.5 49.5q0 28 5 60.5t11.5 59.5t19.5 79t22 93z" />
    <glyph glyph-name="paragraph" unicode="&#xb6;" horiz-adv-x="600" 
d="M312 -196h82l-6 -23h-341l6 23h82l117 445q-77 0 -119 38t-44 99q-1 37 5 73t25.5 75t50 68t83 47.5t120.5 18.5h248l-6 -23h-82zM258 272l98 373q-42 4 -75.5 -21.5t-52.5 -63.5t-31.5 -84t-16.5 -77t-4 -48q0 -79 82 -79zM414 645l-221 -841h61l221 841h-61z" />
    <glyph glyph-name="periodcentered" unicode="&#xb7;" horiz-adv-x="250" 
d="M65 233q0 25 17 42t42 17t42.5 -17t17.5 -42t-17.5 -41.5t-42.5 -16.5t-42 16.5t-17 41.5z" />
    <glyph glyph-name="cedilla" unicode="&#xb8;" horiz-adv-x="278" 
d="M-4 -93l62 93h36l-44 -65q15 3 29 3q34 0 55 -20t21 -53q0 -37 -36 -58t-90 -21q-44 0 -84 21l19 26q27 -14 61 -14q61 0 61 45q0 18 -13 29t-37 11q-6 0 -18 -3t-15 -4z" />
    <glyph glyph-name="onesuperior" unicode="&#xb9;" horiz-adv-x="300" 
d="M243 263h-206l4 20h65l86 299q8 24 8 40q0 8 -36 8h-34l5 20h26q106 6 120 8l-106 -375h73z" />
    <glyph glyph-name="ordmasculine" unicode="&#xba;" horiz-adv-x="266" 
d="M55 502q0 59 49.5 107.5t117.5 48.5q47 0 76 -27t29 -65q0 -52 -48.5 -100.5t-112.5 -48.5q-54 0 -82.5 26t-28.5 59zM259 599q0 42 -42 42q-49 0 -71 -57q-7 -18 -17 -55.5t-10 -51.5q0 -19 13 -31t32 -12q46 0 70 58q25 61 25 107z" />
    <glyph glyph-name="guillemotright" unicode="&#xbb;" 
d="M346 223q-73 131 -73 138q0 6 6 6q2 0 4 -1t5.5 -4.5t7.5 -8.5t12 -14.5t16.5 -20t24 -28.5t32.5 -37q24 -27 24 -32q0 -3 -7.5 -9t-23 -17.5t-27.5 -21.5q-36 -26 -64.5 -52t-40 -37t-15.5 -11q-8 0 -8 7q0 24 114 131q9 8 13 12zM214 223q-73 131 -73 138q0 6 6 6
q2 0 4 -1t5.5 -4.5t7.5 -8.5t12 -14.5t16.5 -20t24 -28.5t32.5 -37q24 -27 24 -32q0 -3 -7.5 -9t-23 -17.5t-27.5 -21.5q-36 -26 -64.5 -52t-40 -37t-15.5 -11q-8 0 -8 7q0 24 114 131q9 8 13 12z" />
    <glyph glyph-name="onequarter" unicode="&#xbc;" horiz-adv-x="750" 
d="M640 0h-163l5 20h46l25 81h-165v22q44 57 130.5 144.5t132.5 126.5h51l-77 -271h50l11 38h21l-27 -102h-22l12 42h-49l-25 -81h49zM558 123l57 204l-2 2q-113 -106 -196 -206h141zM243 263h-206l4 20h65l86 299q8 24 8 40q0 8 -36 8h-34l5 20h26q106 6 120 8l-106 -375
h73zM572 658h50l-453 -669h-50z" />
    <glyph glyph-name="onehalf" unicode="&#xbd;" horiz-adv-x="750" 
d="M243 263h-206l4 20h65l86 299q8 24 8 40q0 8 -36 8h-34l5 20h26q106 6 120 8l-106 -375h73zM397 0v30q18 15 73 55.5t87 67t61.5 69t29.5 81.5q0 71 -70 71q-29 0 -53.5 -15.5t-24.5 -34.5q0 -15 13 -15q15 0 24.5 -7t9.5 -19q0 -33 -31 -33q-21 0 -35.5 16t-14.5 40
q0 37 38.5 63t99.5 26q48 0 84.5 -23.5t36.5 -67.5q0 -37 -32.5 -77.5t-71 -68t-88 -60t-65.5 -46.5l1 -2h145q18 0 27.5 10.5t16.5 35.5h22l-33 -96h-250zM572 658h50l-453 -669h-50z" />
    <glyph glyph-name="threequarters" unicode="&#xbe;" horiz-adv-x="750" 
d="M640 0h-163l5 20h46l25 81h-165v22q44 57 130.5 144.5t132.5 126.5h51l-77 -271h50l11 38h21l-27 -102h-22l12 42h-49l-25 -81h49zM558 123l57 204l-2 2q-113 -106 -196 -206h141zM602 658h50l-453 -669h-50zM119 255q-40 0 -72.5 19t-32.5 57q0 15 13 28.5t32 13.5
q8 0 18.5 -8.5t10.5 -21.5q0 -19 -19 -25t-19 -11q0 -1 1.5 -4t6.5 -8t12.5 -9.5t23 -8t35.5 -3.5q41 0 70.5 34t29.5 90q0 67 -79 67q-4 0 -14 -2t-14 -2q-12 0 -12 16q0 13 15 13q2 0 11.5 -1.5t15.5 -1.5q54 0 81.5 31t27.5 71q0 51 -49 51q-21 0 -39.5 -7.5t-18.5 -15.5
q0 -1 5.5 -7.5t5.5 -18.5q0 -13 -8 -22t-23 -9q-13 0 -22 11.5t-9 27.5q0 20 29 39t81 19q43 0 80 -20.5t37 -58.5q0 -43 -40 -70t-88 -31v-2q100 -25 100 -98q0 -18 -8 -36.5t-26.5 -39t-57 -33.5t-91.5 -13z" />
    <glyph glyph-name="questiondown" unicode="&#xbf;" 
d="M308 268h22q-2 -37 -7.5 -64.5t-17.5 -49.5t-22.5 -36.5t-34.5 -31.5t-41 -26.5t-54 -29.5q-42 -22 -63.5 -48t-21.5 -68q0 -43 35 -79.5t94 -36.5q33 0 64.5 17.5t31.5 30.5q0 4 -9.5 10.5t-18.5 17.5t-9 26q0 41 40 41q16 0 28 -13.5t12 -29.5q0 -44 -39 -82t-102 -38
q-69 0 -113 44.5t-44 114.5q0 57 25 97t55.5 58.5t79 44.5t74.5 47q29 23 36 84zM294 416q0 24 16.5 40.5t39.5 16.5t39 -16.5t16 -40.5q0 -23 -16.5 -39.5t-38.5 -16.5q-23 0 -39.5 16.5t-16.5 39.5z" />
    <glyph glyph-name="Agrave" unicode="&#xc0;" horiz-adv-x="556" 
d="M384 679l50 -656h64l-7 -23h-227l7 23h68l-13 209h-188l-112 -209h78l-7 -23h-147l7 23h38l355 656h34zM324 257l-17 284h-2l-153 -284h172zM408 705h-29l-137 107q-19 14 -19 33q0 11 10.5 20.5t20.5 9.5q20 0 45 -31z" />
    <glyph glyph-name="Aacute" unicode="&#xc1;" horiz-adv-x="556" 
d="M384 679l50 -656h64l-7 -23h-227l7 23h68l-13 209h-188l-112 -209h78l-7 -23h-147l7 23h38l355 656h34zM324 257l-17 284h-2l-153 -284h172zM345 705h-31q19 18 65.5 66t75 74t39.5 26q16 0 26.5 -9t10.5 -23q0 -20 -31 -37z" />
    <glyph glyph-name="Acircumflex" unicode="&#xc2;" horiz-adv-x="556" 
d="M384 679l50 -656h64l-7 -23h-227l7 23h68l-13 209h-188l-112 -209h78l-7 -23h-147l7 23h38l355 656h34zM324 257l-17 284h-2l-153 -284h172zM376 872h38l88 -167h-32l-82 106l-136 -106h-37z" />
    <glyph glyph-name="Atilde" unicode="&#xc3;" horiz-adv-x="556" 
d="M384 679l50 -656h64l-7 -23h-227l7 23h68l-13 209h-188l-112 -209h78l-7 -23h-147l7 23h38l355 656h34zM324 257l-17 284h-2l-153 -284h172zM491 833h26q-24 -102 -99 -102q-21 0 -73 23q-52 22 -70 22q-21 0 -34.5 -13.5t-17.5 -33.5h-26q7 41 31.5 71.5t63.5 30.5
q27 0 79 -22q52 -23 73 -23q28 0 47 47z" />
    <glyph glyph-name="Adieresis" unicode="&#xc4;" horiz-adv-x="556" 
d="M384 679l50 -656h64l-7 -23h-227l7 23h68l-13 209h-188l-112 -209h78l-7 -23h-147l7 23h38l355 656h34zM324 257l-17 284h-2l-153 -284h172zM265 723q-19 0 -32 13t-13 32q0 18 13 31.5t32 13.5q18 0 31.5 -13.5t13.5 -31.5q0 -19 -13.5 -32t-31.5 -13zM465 723
q-19 0 -32 13t-13 32q0 18 13 31.5t32 13.5q18 0 31.5 -13.5t13.5 -31.5q0 -19 -13.5 -32t-31.5 -13z" />
    <glyph glyph-name="Aring" unicode="&#xc5;" horiz-adv-x="556" 
d="M384 679l50 -656h64l-7 -23h-227l7 23h68l-13 209h-188l-112 -209h78l-7 -23h-147l7 23h38l355 656h34zM324 257l-17 284h-2l-153 -284h172zM379 693q-41 0 -69 28.5t-28 68.5t28.5 68.5t68.5 28.5t68.5 -28.5t28.5 -68.5t-28.5 -68.5t-68.5 -28.5zM379 857
q-28 0 -47.5 -19.5t-19.5 -47.5t19 -47.5t48 -19.5q28 0 47.5 19.5t19.5 47.5t-19.5 47.5t-47.5 19.5z" />
    <glyph glyph-name="AE" unicode="&#xc6;" horiz-adv-x="889" 
d="M105 0h-143l7 23h33l327 444q63 83 63 115q0 31 -21 47t-81 16l7 23h591l-39 -174h-25q4 23 4 46q0 58 -30.5 81.5t-117.5 23.5h-76l-72 -286q77 1 105 18.5t57 86.5h26l-66 -259h-25q3 27 3 48q0 48 -18.5 61t-88.5 18l-79 -309h87q105 0 154 31.5t100 133.5h28
l-58 -188h-485l7 23h72l53 211h-214l-155 -211h77zM210 259h200l73 283q21 81 21 85q-1 7 -7 7q-4 0 -7 -1t-7 -4.5t-7.5 -7.5t-9.5 -12t-11 -15.5t-15 -21t-19 -26.5z" />
    <glyph glyph-name="Ccedilla" unicode="&#xc7;" horiz-adv-x="611" 
d="M554 632l39 29h18l-37 -178l-28 4q0 173 -128 173q-48 0 -91 -37.5t-72.5 -95.5t-51 -127t-32 -132t-10.5 -111q0 -20 5.5 -42.5t18 -47t38.5 -40t62 -15.5q126 0 224 179l28 -8l-54 -183h-18l-19 39q-66 -54 -158 -54q-20 0 -35 4l-36 -54q15 3 29 3q34 0 55 -20t21 -53
q0 -37 -36 -58t-90 -21q-44 0 -84 21l19 26q27 -14 61 -14q61 0 61 45q0 18 -13 29t-37 11q-6 0 -18 -3t-15 -4l-7 10l60 90q-73 21 -118.5 84.5t-45.5 143.5q0 118 55 225t140 170t173 63q32 0 67.5 -14t59.5 -37z" />
    <glyph glyph-name="Egrave" unicode="&#xc8;" horiz-adv-x="611" 
d="M480 0h-484l7 23h56l157 622h-76l7 23h463l-39 -174h-25q4 23 4 46q0 58 -30.5 81.5t-117.5 23.5h-89l-72 -286q82 1 110.5 18.5t57.5 86.5h26l-66 -259h-25q3 27 3 48q0 48 -19.5 61t-93.5 18l-79 -309h101q105 0 154 31.5t100 133.5h28zM436 705h-29l-137 107
q-19 14 -19 33q0 11 10.5 20.5t20.5 9.5q20 0 45 -31z" />
    <glyph glyph-name="Eacute" unicode="&#xc9;" horiz-adv-x="611" 
d="M480 0h-484l7 23h56l157 622h-76l7 23h463l-39 -174h-25q4 23 4 46q0 58 -30.5 81.5t-117.5 23.5h-89l-72 -286q82 1 110.5 18.5t57.5 86.5h26l-66 -259h-25q3 27 3 48q0 48 -19.5 61t-93.5 18l-79 -309h101q105 0 154 31.5t100 133.5h28zM373 705h-31q19 18 65.5 66
t75 74t39.5 26q16 0 26.5 -9t10.5 -23q0 -20 -31 -37z" />
    <glyph glyph-name="Ecircumflex" unicode="&#xca;" horiz-adv-x="611" 
d="M480 0h-484l7 23h56l157 622h-76l7 23h463l-39 -174h-25q4 23 4 46q0 58 -30.5 81.5t-117.5 23.5h-89l-72 -286q82 1 110.5 18.5t57.5 86.5h26l-66 -259h-25q3 27 3 48q0 48 -19.5 61t-93.5 18l-79 -309h101q105 0 154 31.5t100 133.5h28zM404 872h38l88 -167h-32
l-82 106l-136 -106h-37z" />
    <glyph glyph-name="Edieresis" unicode="&#xcb;" horiz-adv-x="611" 
d="M480 0h-484l7 23h56l157 622h-76l7 23h463l-39 -174h-25q4 23 4 46q0 58 -30.5 81.5t-117.5 23.5h-89l-72 -286q82 1 110.5 18.5t57.5 86.5h26l-66 -259h-25q3 27 3 48q0 48 -19.5 61t-93.5 18l-79 -309h101q105 0 154 31.5t100 133.5h28zM293 723q-19 0 -32 13t-13 32
q0 18 13 31.5t32 13.5q18 0 31.5 -13.5t13.5 -31.5q0 -19 -13.5 -32t-31.5 -13zM493 723q-19 0 -32 13t-13 32q0 18 13 31.5t32 13.5q18 0 31.5 -13.5t13.5 -31.5q0 -19 -13.5 -32t-31.5 -13z" />
    <glyph glyph-name="Igrave" unicode="&#xcc;" horiz-adv-x="333" 
d="M216 0h-225l7 23h54l166 622h-78l7 23h232l-7 -23h-57l-167 -622h75zM297 705h-29l-137 107q-19 14 -19 33q0 11 10.5 20.5t20.5 9.5q20 0 45 -31z" />
    <glyph glyph-name="Iacute" unicode="&#xcd;" horiz-adv-x="333" 
d="M216 0h-225l7 23h54l166 622h-78l7 23h232l-7 -23h-57l-167 -622h75zM227 705h-31q19 18 65.5 66t75 74t39.5 26q16 0 26.5 -9t10.5 -23q0 -20 -31 -37z" />
    <glyph glyph-name="Icircumflex" unicode="&#xce;" horiz-adv-x="333" 
d="M216 0h-225l7 23h54l166 622h-78l7 23h232l-7 -23h-57l-167 -622h75zM278 872h38l88 -167h-32l-82 106l-136 -106h-37z" />
    <glyph glyph-name="Idieresis" unicode="&#xcf;" horiz-adv-x="333" 
d="M216 0h-225l7 23h54l166 622h-78l7 23h232l-7 -23h-57l-167 -622h75zM158 723q-19 0 -32 13t-13 32q0 18 13 31.5t32 13.5q18 0 31.5 -13.5t13.5 -31.5q0 -19 -13.5 -32t-31.5 -13zM358 723q-19 0 -32 13t-13 32q0 18 13 31.5t32 13.5q18 0 31.5 -13.5t13.5 -31.5
q0 -19 -13.5 -32t-31.5 -13z" />
    <glyph glyph-name="Eth" unicode="&#xd0;" horiz-adv-x="667" 
d="M214 645h-79l7 23h243q128 0 191 -73t63 -190q0 -50 -14 -104.5t-43.5 -108t-70.5 -96.5t-99.5 -69.5t-125.5 -26.5h-293l7 23h57l78 309h-107l8 29h106zM369 332h-138l-79 -309h68q55 0 87.5 5t67.5 22q58 28 112.5 181t54.5 256q0 86 -43 122t-135 36h-54l-72 -284h139
z" />
    <glyph glyph-name="Ntilde" unicode="&#xd1;" horiz-adv-x="667" 
d="M153 0h-159l7 23h57l158 622h-76l7 23h179l166 -500h2l119 477h-73l7 23h158l-7 -23h-57l-168 -660h-20l-211 642h-2l-154 -604h74zM547 833h26q-24 -102 -99 -102q-21 0 -73 23q-52 22 -70 22q-21 0 -34.5 -13.5t-17.5 -33.5h-26q7 41 31.5 71.5t63.5 30.5q27 0 79 -22
q52 -23 73 -23q28 0 47 47z" />
    <glyph glyph-name="Ograve" unicode="&#xd2;" horiz-adv-x="667" 
d="M411 660q-53 0 -99 -38t-71 -104q-47 -119 -70 -222t-23 -157q0 -61 31.5 -97.5t91.5 -36.5q54 0 91.5 26.5t75.5 101.5q38 74 61 171t27.5 145.5t4.5 71.5q0 64 -26 101.5t-94 37.5zM269 -15q-97 0 -155 70t-58 169q0 56 16 118.5t48 122t75 108t103 78t125 29.5
q89 0 147.5 -62.5t58.5 -192.5q0 -30 -12 -80t-41 -113t-69 -117.5t-102.5 -92t-135.5 -37.5zM464 705h-29l-137 107q-19 14 -19 33q0 11 10.5 20.5t20.5 9.5q20 0 45 -31z" />
    <glyph glyph-name="Oacute" unicode="&#xd3;" horiz-adv-x="667" 
d="M411 660q-53 0 -99 -38t-71 -104q-47 -119 -70 -222t-23 -157q0 -61 31.5 -97.5t91.5 -36.5q54 0 91.5 26.5t75.5 101.5q38 74 61 171t27.5 145.5t4.5 71.5q0 64 -26 101.5t-94 37.5zM269 -15q-97 0 -155 70t-58 169q0 56 16 118.5t48 122t75 108t103 78t125 29.5
q89 0 147.5 -62.5t58.5 -192.5q0 -30 -12 -80t-41 -113t-69 -117.5t-102.5 -92t-135.5 -37.5zM401 705h-31q19 18 65.5 66t75 74t39.5 26q16 0 26.5 -9t10.5 -23q0 -20 -31 -37z" />
    <glyph glyph-name="Ocircumflex" unicode="&#xd4;" horiz-adv-x="667" 
d="M411 660q-53 0 -99 -38t-71 -104q-47 -119 -70 -222t-23 -157q0 -61 31.5 -97.5t91.5 -36.5q54 0 91.5 26.5t75.5 101.5q38 74 61 171t27.5 145.5t4.5 71.5q0 64 -26 101.5t-94 37.5zM269 -15q-97 0 -155 70t-58 169q0 56 16 118.5t48 122t75 108t103 78t125 29.5
q89 0 147.5 -62.5t58.5 -192.5q0 -30 -12 -80t-41 -113t-69 -117.5t-102.5 -92t-135.5 -37.5zM432 872h38l88 -167h-32l-82 106l-136 -106h-37z" />
    <glyph glyph-name="Otilde" unicode="&#xd5;" horiz-adv-x="667" 
d="M411 660q-53 0 -99 -38t-71 -104q-47 -119 -70 -222t-23 -157q0 -61 31.5 -97.5t91.5 -36.5q54 0 91.5 26.5t75.5 101.5q38 74 61 171t27.5 145.5t4.5 71.5q0 64 -26 101.5t-94 37.5zM269 -15q-97 0 -155 70t-58 169q0 56 16 118.5t48 122t75 108t103 78t125 29.5
q89 0 147.5 -62.5t58.5 -192.5q0 -30 -12 -80t-41 -113t-69 -117.5t-102.5 -92t-135.5 -37.5zM547 833h26q-24 -102 -99 -102q-21 0 -73 23q-52 22 -70 22q-21 0 -34.5 -13.5t-17.5 -33.5h-26q7 41 31.5 71.5t63.5 30.5q27 0 79 -22q52 -23 73 -23q28 0 47 47z" />
    <glyph glyph-name="Odieresis" unicode="&#xd6;" horiz-adv-x="667" 
d="M411 660q-53 0 -99 -38t-71 -104q-47 -119 -70 -222t-23 -157q0 -61 31.5 -97.5t91.5 -36.5q54 0 91.5 26.5t75.5 101.5q38 74 61 171t27.5 145.5t4.5 71.5q0 64 -26 101.5t-94 37.5zM269 -15q-97 0 -155 70t-58 169q0 56 16 118.5t48 122t75 108t103 78t125 29.5
q89 0 147.5 -62.5t58.5 -192.5q0 -30 -12 -80t-41 -113t-69 -117.5t-102.5 -92t-135.5 -37.5zM325 723q-19 0 -32 13t-13 32q0 18 13 31.5t32 13.5q18 0 31.5 -13.5t13.5 -31.5q0 -19 -13.5 -32t-31.5 -13zM525 723q-19 0 -32 13t-13 32q0 18 13 31.5t32 13.5
q18 0 31.5 -13.5t13.5 -31.5q0 -19 -13.5 -32t-31.5 -13z" />
    <glyph glyph-name="multiply" unicode="&#xd7;" horiz-adv-x="550" 
d="M235 243l-192 200l40 42l192 -201l192 201l40 -42l-192 -200l192 -200l-40 -42l-192 200l-192 -200l-40 42z" />
    <glyph glyph-name="Oslash" unicode="&#xd8;" horiz-adv-x="667" 
d="M161 72l346 546q-27 42 -96 42q-53 0 -99 -38t-71 -104q-47 -119 -70 -222t-23 -157q0 -38 13 -67zM592 752h42l-77 -122q72 -64 72 -205q0 -30 -12 -80t-41 -113t-69 -117.5t-102.5 -92t-135.5 -37.5q-60 0 -104 27l-70 -109h-42l83 131q-80 68 -80 190q0 56 16 118.5
t48 122t75 108t103 78t125 29.5q60 0 106 -28zM524 579l-342 -539q32 -35 89 -35q54 0 91.5 26.5t75.5 101.5q38 74 61 171t27.5 145.5t4.5 71.5q0 33 -7 58z" />
    <glyph glyph-name="Ugrave" unicode="&#xd9;" horiz-adv-x="667" 
d="M207 645h-81l7 23h243l-7 -23h-67l-97 -374q-28 -109 -28 -145q0 -55 35.5 -84.5t89.5 -29.5q141 0 180 143l134 490h-78l7 23h160l-7 -23h-54l-132 -497q-20 -74 -77.5 -118.5t-148.5 -44.5q-79 0 -137.5 41.5t-58.5 119.5q0 54 28 160zM464 705h-29l-137 107
q-19 14 -19 33q0 11 10.5 20.5t20.5 9.5q20 0 45 -31z" />
    <glyph glyph-name="Uacute" unicode="&#xda;" horiz-adv-x="667" 
d="M207 645h-81l7 23h243l-7 -23h-67l-97 -374q-28 -109 -28 -145q0 -55 35.5 -84.5t89.5 -29.5q141 0 180 143l134 490h-78l7 23h160l-7 -23h-54l-132 -497q-20 -74 -77.5 -118.5t-148.5 -44.5q-79 0 -137.5 41.5t-58.5 119.5q0 54 28 160zM401 705h-31q19 18 65.5 66
t75 74t39.5 26q16 0 26.5 -9t10.5 -23q0 -20 -31 -37z" />
    <glyph glyph-name="Ucircumflex" unicode="&#xdb;" horiz-adv-x="667" 
d="M207 645h-81l7 23h243l-7 -23h-67l-97 -374q-28 -109 -28 -145q0 -55 35.5 -84.5t89.5 -29.5q141 0 180 143l134 490h-78l7 23h160l-7 -23h-54l-132 -497q-20 -74 -77.5 -118.5t-148.5 -44.5q-79 0 -137.5 41.5t-58.5 119.5q0 54 28 160zM432 872h38l88 -167h-32l-82 106
l-136 -106h-37z" />
    <glyph glyph-name="Udieresis" unicode="&#xdc;" horiz-adv-x="667" 
d="M207 645h-81l7 23h243l-7 -23h-67l-97 -374q-28 -109 -28 -145q0 -55 35.5 -84.5t89.5 -29.5q141 0 180 143l134 490h-78l7 23h160l-7 -23h-54l-132 -497q-20 -74 -77.5 -118.5t-148.5 -44.5q-79 0 -137.5 41.5t-58.5 119.5q0 54 28 160zM325 723q-19 0 -32 13t-13 32
q0 18 13 31.5t32 13.5q18 0 31.5 -13.5t13.5 -31.5q0 -19 -13.5 -32t-31.5 -13zM525 723q-19 0 -32 13t-13 32q0 18 13 31.5t32 13.5q18 0 31.5 -13.5t13.5 -31.5q0 -19 -13.5 -32t-31.5 -13z" />
    <glyph glyph-name="Yacute" unicode="&#xdd;" horiz-adv-x="556" 
d="M355 23l-7 -23h-271l7 23h82l69 254l-97 368h-65l7 23h241l-7 -23h-83l86 -326l227 326h-73l7 23h157l-7 -23h-53l-243 -354l-68 -268h91zM345 705h-31q19 18 65.5 66t75 74t39.5 26q16 0 26.5 -9t10.5 -23q0 -20 -31 -37z" />
    <glyph glyph-name="Thorn" unicode="&#xde;" horiz-adv-x="611" 
d="M276 507l-79 -313q51 0 124 5q71 4 112.5 68t41.5 141q0 99 -129 99h-70zM223 0h-229l7 23h56l159 622h-78l7 23h244l-7 -23h-72l-27 -115h70q108 0 166 -40.5t58 -117.5q0 -24 -5.5 -47.5t-24.5 -52.5t-49.5 -50.5t-87 -36t-130.5 -14.5h-88l-39 -148h77z" />
    <glyph glyph-name="germandbls" unicode="&#xdf;" horiz-adv-x="444" 
d="M435 564q0 -70 -45.5 -114t-115.5 -61v-2q61 -20 93 -55t32 -100q0 -51 -22 -106t-67 -96t-100 -41q-33 0 -58 19t-25 52q0 18 12 32t30 14q16 0 27 -11t11 -28q0 -14 -12.5 -30.5t-12.5 -17.5q0 -5 11 -8t18 -3q28 0 46 28.5t34 82.5q31 106 31 158q0 39 -17.5 63
t-39 30.5t-39 10.5t-17.5 8q0 6 9.5 7.5l28.5 4.5t33 10q38 16 62.5 80t24.5 116q0 67 -54 67q-82 0 -119 -160q-6 -26 -26 -113.5t-30 -130t-27.5 -110.5t-33 -118t-30.5 -90q-20 -50 -42 -85.5t-39 -53t-37 -27.5t-30.5 -11.5t-24.5 -1.5q-26 0 -48 16.5t-22 41.5
q0 19 11 32t29 13q12 0 24 -12t12 -30q0 -9 -6 -16t-6 -11q0 -10 20 -10q25 0 48 27.5t32 56.5q9 26 117 492q75 321 229 321q55 0 88 -36t33 -94z" />
    <glyph glyph-name="agrave" unicode="&#xe0;" 
d="M355 396h74l-95 -343q-5 -17 1.5 -25t17.5 -8q24 0 57 45.5t41 79.5l19 -6q-27 -77 -63.5 -113.5t-73.5 -36.5q-29 0 -49 17.5t-21 46.5h-2q-19 -29 -51 -46.5t-64 -17.5q-59 0 -93.5 42.5t-34.5 110.5q0 88 78 176t161 88q56 0 80 -61h1zM151 292q-21 -41 -39 -103
t-18 -103q0 -33 17.5 -55t48.5 -22q26 0 59 27.5t57 94.5q44 122 44 185q0 31 -17 50.5t-47 19.5q-36 0 -60 -25.5t-45 -68.5zM380 438h-29l-137 107q-19 14 -19 33q0 11 10.5 20.5t20.5 9.5q20 0 45 -31z" />
    <glyph glyph-name="aacute" unicode="&#xe1;" 
d="M355 396h74l-95 -343q-5 -17 1.5 -25t17.5 -8q24 0 57 45.5t41 79.5l19 -6q-27 -77 -63.5 -113.5t-73.5 -36.5q-29 0 -49 17.5t-21 46.5h-2q-19 -29 -51 -46.5t-64 -17.5q-59 0 -93.5 42.5t-34.5 110.5q0 88 78 176t161 88q56 0 80 -61h1zM151 292q-21 -41 -39 -103
t-18 -103q0 -33 17.5 -55t48.5 -22q26 0 59 27.5t57 94.5q44 122 44 185q0 31 -17 50.5t-47 19.5q-36 0 -60 -25.5t-45 -68.5zM287 438h-31q19 18 65.5 66t75 74t39.5 26q16 0 26.5 -9t10.5 -23q0 -20 -31 -37z" />
    <glyph glyph-name="acircumflex" unicode="&#xe2;" 
d="M355 396h74l-95 -343q-5 -17 1.5 -25t17.5 -8q24 0 57 45.5t41 79.5l19 -6q-27 -77 -63.5 -113.5t-73.5 -36.5q-29 0 -49 17.5t-21 46.5h-2q-19 -29 -51 -46.5t-64 -17.5q-59 0 -93.5 42.5t-34.5 110.5q0 88 78 176t161 88q56 0 80 -61h1zM151 292q-21 -41 -39 -103
t-18 -103q0 -33 17.5 -55t48.5 -22q26 0 59 27.5t57 94.5q44 122 44 185q0 31 -17 50.5t-47 19.5q-36 0 -60 -25.5t-45 -68.5zM318 605h38l88 -167h-32l-82 106l-136 -106h-37z" />
    <glyph glyph-name="atilde" unicode="&#xe3;" 
d="M355 396h74l-95 -343q-5 -17 1.5 -25t17.5 -8q24 0 57 45.5t41 79.5l19 -6q-27 -77 -63.5 -113.5t-73.5 -36.5q-29 0 -49 17.5t-21 46.5h-2q-19 -29 -51 -46.5t-64 -17.5q-59 0 -93.5 42.5t-34.5 110.5q0 88 78 176t161 88q56 0 80 -61h1zM151 292q-21 -41 -39 -103
t-18 -103q0 -33 17.5 -55t48.5 -22q26 0 59 27.5t57 94.5q44 122 44 185q0 31 -17 50.5t-47 19.5q-36 0 -60 -25.5t-45 -68.5zM433 566h26q-24 -102 -99 -102q-21 0 -73 23q-52 22 -70 22q-21 0 -34.5 -13.5t-17.5 -33.5h-26q7 41 31.5 71.5t63.5 30.5q27 0 79 -22
q52 -23 73 -23q28 0 47 47z" />
    <glyph glyph-name="adieresis" unicode="&#xe4;" 
d="M355 396h74l-95 -343q-5 -17 1.5 -25t17.5 -8q24 0 57 45.5t41 79.5l19 -6q-27 -77 -63.5 -113.5t-73.5 -36.5q-29 0 -49 17.5t-21 46.5h-2q-19 -29 -51 -46.5t-64 -17.5q-59 0 -93.5 42.5t-34.5 110.5q0 88 78 176t161 88q56 0 80 -61h1zM151 292q-21 -41 -39 -103
t-18 -103q0 -33 17.5 -55t48.5 -22q26 0 59 27.5t57 94.5q44 122 44 185q0 31 -17 50.5t-47 19.5q-36 0 -60 -25.5t-45 -68.5zM189 456q-19 0 -32 13t-13 32q0 18 13 31.5t32 13.5q18 0 31.5 -13.5t13.5 -31.5q0 -19 -13.5 -32t-31.5 -13zM389 456q-19 0 -32 13t-13 32
q0 18 13 31.5t32 13.5q18 0 31.5 -13.5t13.5 -31.5q0 -19 -13.5 -32t-31.5 -13z" />
    <glyph glyph-name="aring" unicode="&#xe5;" 
d="M355 396h74l-95 -343q-5 -17 1.5 -25t17.5 -8q24 0 57 45.5t41 79.5l19 -6q-27 -77 -63.5 -113.5t-73.5 -36.5q-29 0 -49 17.5t-21 46.5h-2q-19 -29 -51 -46.5t-64 -17.5q-59 0 -93.5 42.5t-34.5 110.5q0 88 78 176t161 88q56 0 80 -61h1zM151 292q-21 -41 -39 -103
t-18 -103q0 -33 17.5 -55t48.5 -22q26 0 59 27.5t57 94.5q44 122 44 185q0 31 -17 50.5t-47 19.5q-36 0 -60 -25.5t-45 -68.5zM316 446q-40 0 -68.5 28t-28.5 69q0 40 28.5 68.5t68.5 28.5t68.5 -28.5t28.5 -68.5t-28.5 -68.5t-68.5 -28.5zM316 610q-28 0 -47.5 -19.5
t-19.5 -47.5q0 -29 19.5 -48t47.5 -19t47.5 19.5t19.5 47.5t-19.5 47.5t-47.5 19.5z" />
    <glyph glyph-name="ae" unicode="&#xe6;" horiz-adv-x="667" 
d="M165 9q37 0 66.5 31.5t55.5 104.5q34 96 40 167q0 32 -19 53t-51 21q-13 0 -26 -6t-23 -15t-20 -22t-17.5 -25t-14 -25.5t-10 -23t-6.5 -17.5l-4 -9q-14 -34 -27.5 -91t-13.5 -80q0 -29 21 -46t49 -17zM362 406h63l-13 -57l2 -2q29 30 53.5 44.5t61.5 14.5q41 0 68.5 -23
t27.5 -59q0 -54 -59.5 -91.5t-187.5 -38.5q-15 -60 -15 -87q0 -40 19 -66.5t57 -26.5q50 0 79 24t59 76l17 -12q-31 -56 -67 -84.5t-92 -28.5q-45 0 -82 23.5t-54 62.5q-67 -86 -150 -86q-59 0 -93.5 42.5t-34.5 110.5q0 88 78 176t161 88q59 0 83 -59h2zM383 215
q84 0 127.5 34.5t43.5 87.5q0 18 -12.5 32t-30.5 14q-32 0 -60.5 -32t-43 -65.5t-24.5 -70.5z" />
    <glyph glyph-name="ccedilla" unicode="&#xe7;" horiz-adv-x="389" 
d="M309 108l16 -11q-71 -108 -158 -108q-16 0 -23 2l-38 -56q15 3 29 3q34 0 55 -20t21 -53q0 -37 -36 -58t-90 -21q-44 0 -84 21l19 26q27 -14 61 -14q61 0 61 45q0 18 -13 29t-37 11q-6 0 -18 -3t-15 -4l-7 10l61 91q-52 16 -78 57t-26 79q0 102 75.5 187t166.5 85
q41 0 72 -22.5t31 -63.5q0 -18 -11.5 -33t-28.5 -15q-16 0 -28 10t-12 26q0 20 14.5 35t14.5 20q0 11 -16.5 17t-31.5 6q-82 0 -126 -114q-41 -111 -41 -177q0 -38 21.5 -59.5t57.5 -21.5q45 0 76.5 24t65.5 70z" />
    <glyph glyph-name="egrave" unicode="&#xe8;" horiz-adv-x="389" 
d="M108 215q84 0 127.5 34.5t43.5 87.5q0 18 -12.5 32t-30.5 14q-32 0 -60.5 -32t-43 -65.5t-24.5 -70.5zM302 114l17 -12q-31 -56 -67 -84.5t-92 -28.5q-64 0 -107 48t-43 111q0 94 77 176t167 82q41 0 68.5 -23t27.5 -59q0 -54 -59.5 -91.5t-187.5 -38.5q-15 -60 -15 -87
q0 -40 19 -66.5t57 -26.5q50 0 79 24t59 76zM325 438h-29l-137 107q-19 14 -19 33q0 11 10.5 20.5t20.5 9.5q20 0 45 -31z" />
    <glyph glyph-name="eacute" unicode="&#xe9;" horiz-adv-x="389" 
d="M108 215q84 0 127.5 34.5t43.5 87.5q0 18 -12.5 32t-30.5 14q-32 0 -60.5 -32t-43 -65.5t-24.5 -70.5zM302 114l17 -12q-31 -56 -67 -84.5t-92 -28.5q-64 0 -107 48t-43 111q0 94 77 176t167 82q41 0 68.5 -23t27.5 -59q0 -54 -59.5 -91.5t-187.5 -38.5q-15 -60 -15 -87
q0 -40 19 -66.5t57 -26.5q50 0 79 24t59 76zM232 438h-31q19 18 65.5 66t75 74t39.5 26q16 0 26.5 -9t10.5 -23q0 -20 -31 -37z" />
    <glyph glyph-name="ecircumflex" unicode="&#xea;" horiz-adv-x="389" 
d="M108 215q84 0 127.5 34.5t43.5 87.5q0 18 -12.5 32t-30.5 14q-32 0 -60.5 -32t-43 -65.5t-24.5 -70.5zM302 114l17 -12q-31 -56 -67 -84.5t-92 -28.5q-64 0 -107 48t-43 111q0 94 77 176t167 82q41 0 68.5 -23t27.5 -59q0 -54 -59.5 -91.5t-187.5 -38.5q-15 -60 -15 -87
q0 -40 19 -66.5t57 -26.5q50 0 79 24t59 76zM263 605h38l88 -167h-32l-82 106l-136 -106h-37z" />
    <glyph glyph-name="edieresis" unicode="&#xeb;" horiz-adv-x="389" 
d="M108 215q84 0 127.5 34.5t43.5 87.5q0 18 -12.5 32t-30.5 14q-32 0 -60.5 -32t-43 -65.5t-24.5 -70.5zM302 114l17 -12q-31 -56 -67 -84.5t-92 -28.5q-64 0 -107 48t-43 111q0 94 77 176t167 82q41 0 68.5 -23t27.5 -59q0 -54 -59.5 -91.5t-187.5 -38.5q-15 -60 -15 -87
q0 -40 19 -66.5t57 -26.5q50 0 79 24t59 76zM144 456q-19 0 -32 13t-13 32q0 18 13 31.5t32 13.5q18 0 31.5 -13.5t13.5 -31.5q0 -19 -13.5 -32t-31.5 -13zM344 456q-19 0 -32 13t-13 32q0 18 13 31.5t32 13.5q18 0 31.5 -13.5t13.5 -31.5q0 -19 -13.5 -32t-31.5 -13z" />
    <glyph glyph-name="igrave" unicode="&#xec;" horiz-adv-x="278" 
d="M228 144l19 -7q-48 -148 -150 -148q-26 0 -44.5 13.5t-18.5 38.5q0 16 10 56l72 276h-79l7 23h19q39 0 134 10l-87 -327l-9 -36q0 -9 9 -14t19 -5q51 0 99 120zM269 438h-29l-137 107q-19 14 -19 33q0 11 10.5 20.5t20.5 9.5q20 0 45 -31z" />
    <glyph glyph-name="iacute" unicode="&#xed;" horiz-adv-x="278" 
d="M228 144l19 -7q-48 -148 -150 -148q-26 0 -44.5 13.5t-18.5 38.5q0 16 10 56l72 276h-79l7 23h19q39 0 134 10l-87 -327l-9 -36q0 -9 9 -14t19 -5q51 0 99 120zM176 438h-31q19 18 65.5 66t75 74t39.5 26q16 0 26.5 -9t10.5 -23q0 -20 -31 -37z" />
    <glyph glyph-name="icircumflex" unicode="&#xee;" horiz-adv-x="278" 
d="M228 144l19 -7q-48 -148 -150 -148q-26 0 -44.5 13.5t-18.5 38.5q0 16 10 56l72 276h-79l7 23h19q39 0 134 10l-87 -327l-9 -36q0 -9 9 -14t19 -5q51 0 99 120zM187 605h38l88 -167h-32l-82 106l-136 -106h-37z" />
    <glyph glyph-name="idieresis" unicode="&#xef;" horiz-adv-x="278" 
d="M228 144l19 -7q-48 -148 -150 -148q-26 0 -44.5 13.5t-18.5 38.5q0 16 10 56l72 276h-79l7 23h19q39 0 134 10l-87 -327l-9 -36q0 -9 9 -14t19 -5q51 0 99 120zM83 456q-19 0 -32 13t-13 32q0 18 13 31.5t32 13.5q18 0 31.5 -13.5t13.5 -31.5q0 -19 -13.5 -32t-31.5 -13z
M283 456q-19 0 -32 13t-13 32q0 18 13 31.5t32 13.5q18 0 31.5 -13.5t13.5 -31.5q0 -19 -13.5 -32t-31.5 -13z" />
    <glyph glyph-name="eth" unicode="&#xf0;" horiz-adv-x="444" 
d="M130 277q-11 -30 -26 -95t-15 -90q0 -34 21.5 -58.5t54.5 -24.5q45 0 71.5 30t44.5 80q38 105 38 184q0 83 -71 83q-80 0 -118 -109zM322 603l118 62l11 -27l-113 -59q63 -99 63 -233q0 -155 -66.5 -256t-165.5 -101q-72 0 -114 45t-42 101q0 102 74 186.5t168 84.5
q44 0 70 -29q6 87 -39 175l-117 -60l-11 27l114 59q-36 62 -81 93l34 23q58 -34 97 -91z" />
    <glyph glyph-name="ntilde" unicode="&#xf1;" 
d="M117 373h-80l7 23h19q39 0 134 10l-24 -91l2 -1q25 39 68.5 65.5t79.5 26.5q88 0 88 -83q0 -18 -35.5 -149.5t-35.5 -132.5q0 -20 28 -20q47 0 93 121l19 -8q-12 -31 -23 -52t-28.5 -44.5t-41 -36t-51.5 -12.5q-27 0 -45 14t-18 40q0 33 35.5 157t35.5 137q0 38 -45 38
q-54 0 -98.5 -61t-66.5 -150l-41 -164h-72zM433 566h26q-24 -102 -99 -102q-21 0 -73 23q-52 22 -70 22q-21 0 -34.5 -13.5t-17.5 -33.5h-26q7 41 31.5 71.5t63.5 30.5q27 0 79 -22q52 -23 73 -23q28 0 47 47z" />
    <glyph glyph-name="ograve" unicode="&#xf2;" horiz-adv-x="444" 
d="M401 247q0 -57 -32 -117t-86.5 -100.5t-113.5 -40.5q-72 0 -114 45t-42 101q0 102 74 186.5t168 84.5q63 0 104.5 -47t41.5 -112zM130 277q-11 -30 -26 -95t-15 -90q0 -34 21.5 -58.5t54.5 -24.5q45 0 71.5 30t44.5 80q38 105 38 184q0 83 -71 83q-80 0 -118 -109z
M352 438h-29l-137 107q-19 14 -19 33q0 11 10.5 20.5t20.5 9.5q20 0 45 -31z" />
    <glyph glyph-name="oacute" unicode="&#xf3;" horiz-adv-x="444" 
d="M401 247q0 -57 -32 -117t-86.5 -100.5t-113.5 -40.5q-72 0 -114 45t-42 101q0 102 74 186.5t168 84.5q63 0 104.5 -47t41.5 -112zM130 277q-11 -30 -26 -95t-15 -90q0 -34 21.5 -58.5t54.5 -24.5q45 0 71.5 30t44.5 80q38 105 38 184q0 83 -71 83q-80 0 -118 -109z
M259 438h-31q19 18 65.5 66t75 74t39.5 26q16 0 26.5 -9t10.5 -23q0 -20 -31 -37z" />
    <glyph glyph-name="ocircumflex" unicode="&#xf4;" horiz-adv-x="444" 
d="M401 247q0 -57 -32 -117t-86.5 -100.5t-113.5 -40.5q-72 0 -114 45t-42 101q0 102 74 186.5t168 84.5q63 0 104.5 -47t41.5 -112zM130 277q-11 -30 -26 -95t-15 -90q0 -34 21.5 -58.5t54.5 -24.5q45 0 71.5 30t44.5 80q38 105 38 184q0 83 -71 83q-80 0 -118 -109z
M280 605h38l88 -167h-32l-82 106l-136 -106h-37z" />
    <glyph glyph-name="otilde" unicode="&#xf5;" horiz-adv-x="444" 
d="M401 247q0 -57 -32 -117t-86.5 -100.5t-113.5 -40.5q-72 0 -114 45t-42 101q0 102 74 186.5t168 84.5q63 0 104.5 -47t41.5 -112zM130 277q-11 -30 -26 -95t-15 -90q0 -34 21.5 -58.5t54.5 -24.5q45 0 71.5 30t44.5 80q38 105 38 184q0 83 -71 83q-80 0 -118 -109z
M405 566h26q-24 -102 -99 -102q-21 0 -73 23q-52 22 -70 22q-21 0 -34.5 -13.5t-17.5 -33.5h-26q7 41 31.5 71.5t63.5 30.5q27 0 79 -22q52 -23 73 -23q28 0 47 47z" />
    <glyph glyph-name="odieresis" unicode="&#xf6;" horiz-adv-x="444" 
d="M401 247q0 -57 -32 -117t-86.5 -100.5t-113.5 -40.5q-72 0 -114 45t-42 101q0 102 74 186.5t168 84.5q63 0 104.5 -47t41.5 -112zM130 277q-11 -30 -26 -95t-15 -90q0 -34 21.5 -58.5t54.5 -24.5q45 0 71.5 30t44.5 80q38 105 38 184q0 83 -71 83q-80 0 -118 -109z
M161 456q-19 0 -32 13t-13 32q0 18 13 31.5t32 13.5q18 0 31.5 -13.5t13.5 -31.5q0 -19 -13.5 -32t-31.5 -13zM361 456q-19 0 -32 13t-13 32q0 18 13 31.5t32 13.5q18 0 31.5 -13.5t13.5 -31.5q0 -19 -13.5 -32t-31.5 -13z" />
    <glyph glyph-name="divide" unicode="&#xf7;" horiz-adv-x="550" 
d="M216 438q0 26 17 43.5t42 17.5t42.5 -18t17.5 -43q0 -26 -17.5 -43.5t-42.5 -17.5t-42 17.5t-17 43.5zM216 48q0 26 17 43.5t42 17.5t42.5 -18t17.5 -43t-17.5 -43t-42.5 -18t-42 17.5t-17 43.5zM507 214h-464v58h464v-58z" />
    <glyph glyph-name="oslash" unicode="&#xf8;" horiz-adv-x="444" 
d="M314 341l-195 -315q22 -17 46 -17q45 0 71.5 30t44.5 80q38 105 38 184q0 20 -5 38zM99 51l196 319q-18 16 -47 16q-80 0 -118 -109q-11 -30 -26 -95t-15 -90q0 -22 10 -41zM39 -104h-37l75 120q-30 20 -47 52.5t-17 66.5q0 102 74 186.5t168 84.5q29 0 56 -11l64 104h37
l-74 -120q29 -21 46 -56.5t17 -75.5q0 -57 -32 -117t-86.5 -100.5t-113.5 -40.5q-36 0 -65 13z" />
    <glyph glyph-name="ugrave" unicode="&#xf9;" 
d="M114 373h-81l7 23h19q39 0 134 10l-72 -297q-1 -4 -4.5 -15.5t-5.5 -21.5t-2 -18q0 -20 13 -27.5t26 -7.5q46 0 89 45.5t60 110.5l57 221h71l-44 -168q-3 -14 -15 -58t-19.5 -75t-7.5 -38q0 -34 26 -34q51 0 96 121l18 -6q-48 -149 -141 -149q-39 0 -54.5 25t-9.5 62
l-3 2q-23 -37 -63.5 -63t-82.5 -26q-85 0 -85 69q0 4 3 17t8 32t8 31zM380 438h-29l-137 107q-19 14 -19 33q0 11 10.5 20.5t20.5 9.5q20 0 45 -31z" />
    <glyph glyph-name="uacute" unicode="&#xfa;" 
d="M114 373h-81l7 23h19q39 0 134 10l-72 -297q-1 -4 -4.5 -15.5t-5.5 -21.5t-2 -18q0 -20 13 -27.5t26 -7.5q46 0 89 45.5t60 110.5l57 221h71l-44 -168q-3 -14 -15 -58t-19.5 -75t-7.5 -38q0 -34 26 -34q51 0 96 121l18 -6q-48 -149 -141 -149q-39 0 -54.5 25t-9.5 62
l-3 2q-23 -37 -63.5 -63t-82.5 -26q-85 0 -85 69q0 4 3 17t8 32t8 31zM287 438h-31q19 18 65.5 66t75 74t39.5 26q16 0 26.5 -9t10.5 -23q0 -20 -31 -37z" />
    <glyph glyph-name="ucircumflex" unicode="&#xfb;" 
d="M114 373h-81l7 23h19q39 0 134 10l-72 -297q-1 -4 -4.5 -15.5t-5.5 -21.5t-2 -18q0 -20 13 -27.5t26 -7.5q46 0 89 45.5t60 110.5l57 221h71l-44 -168q-3 -14 -15 -58t-19.5 -75t-7.5 -38q0 -34 26 -34q51 0 96 121l18 -6q-48 -149 -141 -149q-39 0 -54.5 25t-9.5 62
l-3 2q-23 -37 -63.5 -63t-82.5 -26q-85 0 -85 69q0 4 3 17t8 32t8 31zM303 605h38l88 -167h-32l-82 106l-136 -106h-37z" />
    <glyph glyph-name="udieresis" unicode="&#xfc;" 
d="M114 373h-81l7 23h19q39 0 134 10l-72 -297q-1 -4 -4.5 -15.5t-5.5 -21.5t-2 -18q0 -20 13 -27.5t26 -7.5q46 0 89 45.5t60 110.5l57 221h71l-44 -168q-3 -14 -15 -58t-19.5 -75t-7.5 -38q0 -34 26 -34q51 0 96 121l18 -6q-48 -149 -141 -149q-39 0 -54.5 25t-9.5 62
l-3 2q-23 -37 -63.5 -63t-82.5 -26q-85 0 -85 69q0 4 3 17t8 32t8 31zM189 456q-19 0 -32 13t-13 32q0 18 13 31.5t32 13.5q18 0 31.5 -13.5t13.5 -31.5q0 -19 -13.5 -32t-31.5 -13zM389 456q-19 0 -32 13t-13 32q0 18 13 31.5t32 13.5q18 0 31.5 -13.5t13.5 -31.5
q0 -19 -13.5 -32t-31.5 -13z" />
    <glyph glyph-name="yacute" unicode="&#xfd;" horiz-adv-x="444" 
d="M29 242l-20 7q37 90 62 120q30 37 66 37q33 0 52 -26t31 -107l25 -159h2l76 166q34 76 50.5 101t39.5 25q34 0 34 -35q0 -11 -8.5 -19.5t-19.5 -8.5q-15 0 -22 6.5t-12 6.5q-4 0 -16.5 -24.5t-33 -69.5t-38.5 -87.5t-43 -102t-38 -88.5q-48 -110 -100.5 -160.5
t-88.5 -50.5q-49 0 -49 40q0 12 9 22.5t22 10.5q11 0 28 -16.5t25 -16.5q26 0 74.5 72t48.5 111q0 13 -16 130.5t-23 162.5q0 1 -1.5 14.5t-3.5 21.5t-5.5 19.5t-10 17t-14.5 5.5q-14 0 -28 -16.5t-22.5 -34.5t-18.5 -43.5t-13 -30.5zM259 438h-31q19 18 65.5 66t75 74
t39.5 26q16 0 26.5 -9t10.5 -23q0 -20 -31 -37z" />
    <glyph glyph-name="thorn" unicode="&#xfe;" horiz-adv-x="444" 
d="M100 -226h-196l7 20h55l212 870h-69l7 23h24q60 0 118 5l-86 -324l2 -2q48 40 97 40t91 -36.5t42 -123.5q0 -89 -69 -173t-152 -84q-66 0 -88 51h-2l-59 -246h73zM139 234q-30 -107 -30 -153q0 -29 18 -50.5t46 -21.5q44 0 67.5 23.5t48.5 95.5q39 109 39 174
q0 84 -68 84q-82 0 -121 -152z" />
    <glyph glyph-name="ydieresis" unicode="&#xff;" horiz-adv-x="444" 
d="M29 242l-20 7q37 90 62 120q30 37 66 37q33 0 52 -26t31 -107l25 -159h2l76 166q34 76 50.5 101t39.5 25q34 0 34 -35q0 -11 -8.5 -19.5t-19.5 -8.5q-15 0 -22 6.5t-12 6.5q-4 0 -16.5 -24.5t-33 -69.5t-38.5 -87.5t-43 -102t-38 -88.5q-48 -110 -100.5 -160.5
t-88.5 -50.5q-49 0 -49 40q0 12 9 22.5t22 10.5q11 0 28 -16.5t25 -16.5q26 0 74.5 72t48.5 111q0 13 -16 130.5t-23 162.5q0 1 -1.5 14.5t-3.5 21.5t-5.5 19.5t-10 17t-14.5 5.5q-14 0 -28 -16.5t-22.5 -34.5t-18.5 -43.5t-13 -30.5zM171 456q-19 0 -32 13t-13 32
q0 18 13 31.5t32 13.5q18 0 31.5 -13.5t13.5 -31.5q0 -19 -13.5 -32t-31.5 -13zM371 456q-19 0 -32 13t-13 32q0 18 13 31.5t32 13.5q18 0 31.5 -13.5t13.5 -31.5q0 -19 -13.5 -32t-31.5 -13z" />
    <glyph glyph-name="dotlessi" unicode="&#x131;" horiz-adv-x="278" 
d="M228 144l19 -7q-48 -148 -150 -148q-26 0 -44.5 13.5t-18.5 38.5q0 16 10 56l72 276h-79l7 23h19q39 0 134 10l-87 -327l-9 -36q0 -9 9 -14t19 -5q51 0 99 120z" />
    <glyph glyph-name="Lslash" unicode="&#x141;" 
d="M448 0h-460l7 23h52l62 240l-124 -72l13 44l124 76l86 334h-75l7 23h243l-7 -23h-70l-70 -266l188 112l-13 -44l-188 -116l-81 -308h79q45 0 73.5 1.5t53 10.5t38 17t30.5 31t27 43t30 63h28z" />
    <glyph glyph-name="lslash" unicode="&#x142;" horiz-adv-x="278" 
d="M180 664h-83l7 23h38q61 0 118 5l-83 -310l108 64l-10 -39l-108 -63l-71 -265l-9 -36q0 -9 9 -14t19 -5q48 0 107 131l19 -7q-60 -159 -158 -159q-26 0 -44.5 13.5t-18.5 38.5q0 16 10 56l52 197l-92 -54l10 38l92 54z" />
    <glyph glyph-name="OE" unicode="&#x152;" horiz-adv-x="944" 
d="M384 69q32 46 85.5 249.5t53.5 236.5q0 45 -28.5 67.5t-74.5 22.5q-90 0 -152 -92q-36 -54 -77.5 -195t-41.5 -224q0 -52 34.5 -80.5t86.5 -28.5q32 0 66 12t48 32zM768 464l-66 -259h-25q3 27 3 48q0 48 -19.5 61t-93.5 18l-79 -309h101q105 0 154 31.5t100 133.5h28
l-58 -188h-515q-244 0 -244 228q0 40 12.5 93t42 115t71.5 113t108 85t144 34h511l-39 -174h-25q4 23 4 46q0 58 -30.5 81.5t-117.5 23.5h-89l-72 -286q82 1 110.5 18.5t57.5 86.5h26z" />
    <glyph glyph-name="oe" unicode="&#x153;" horiz-adv-x="667" 
d="M578 114l17 -12q-31 -56 -67 -84.5t-92 -28.5q-78 0 -122 65q-68 -65 -143 -65q-72 0 -114 45t-42 101q0 102 74 186.5t168 84.5q70 0 122 -66q81 66 151 66q41 0 68.5 -23t27.5 -59q0 -54 -59.5 -91.5t-187.5 -38.5q-15 -60 -15 -87q0 -40 19 -66.5t57 -26.5q50 0 79 24
t59 76zM132 277q-11 -30 -26 -95t-15 -90q0 -34 21.5 -58.5t54.5 -24.5q45 0 71.5 30t44.5 80q38 105 38 184q0 83 -71 83q-80 0 -118 -109zM384 215q84 0 127.5 34.5t43.5 87.5q0 18 -12.5 32t-30.5 14q-32 0 -60.5 -32t-43 -65.5t-24.5 -70.5z" />
    <glyph glyph-name="Scaron" unicode="&#x160;" 
d="M78 36l-57 -37h-15l43 190l24 -6q0 -78 36.5 -127t112.5 -49q62 0 106.5 45.5t44.5 105.5q0 37 -19 65.5t-47 45.5t-61 38t-61 41t-47 55t-19 81q0 84 53 141.5t135 57.5q65 0 121 -49l39 31h19l-38 -171l-24 3q-3 91 -34 127.5t-89 36.5q-54 0 -92.5 -35t-38.5 -91
q0 -29 20.5 -53t50.5 -40.5t66 -38t66 -44t50.5 -59.5t20.5 -84q0 -53 -24 -104t-79 -89t-130 -38q-79 0 -133 51zM229 872l91 -106l144 106h35l-167 -167h-38l-99 167h34z" />
    <glyph glyph-name="scaron" unicode="&#x161;" horiz-adv-x="333" 
d="M108 -11q-35 0 -60 9t-36.5 22.5t-16 25t-4.5 21.5q0 20 9.5 34t27.5 14q15 0 26.5 -11t11.5 -27q0 -10 -7.5 -26t-7.5 -19q0 -12 17 -17.5t33 -5.5q95 0 95 69q0 22 -20 49t-43.5 49t-43.5 55t-20 66q0 53 38.5 81t90.5 28q29 0 56.5 -15.5t27.5 -48.5q0 -37 -35 -37
q-15 0 -23.5 8.5t-8.5 21.5q0 4 3 15t3 15q0 21 -36 21q-26 0 -44 -14.5t-18 -41.5q0 -19 15.5 -38.5t47.5 -50t53 -57.5q20 -25 18 -71q0 -12 -6.5 -30t-21.5 -40.5t-47 -38t-74 -15.5zM146 605l91 -106l144 106h35l-167 -167h-38l-99 167h34z" />
    <glyph glyph-name="Ydieresis" unicode="&#x178;" horiz-adv-x="556" 
d="M355 23l-7 -23h-271l7 23h82l69 254l-97 368h-65l7 23h241l-7 -23h-83l86 -326l227 326h-73l7 23h157l-7 -23h-53l-243 -354l-68 -268h91zM276 723q-19 0 -32 13t-13 32q0 18 13 31.5t32 13.5q18 0 31.5 -13.5t13.5 -31.5q0 -19 -13.5 -32t-31.5 -13zM476 723
q-19 0 -32 13t-13 32q0 18 13 31.5t32 13.5q18 0 31.5 -13.5t13.5 -31.5q0 -19 -13.5 -32t-31.5 -13z" />
    <glyph glyph-name="Zcaron" unicode="&#x17d;" horiz-adv-x="611" 
d="M516 179l-54 -179h-457v23l490 622h-159q-95 0 -150 -143h-32l45 166h417v-23l-489 -622h170q121 0 188 169zM285 872l91 -106l144 106h35l-167 -167h-38l-99 167h34z" />
    <glyph glyph-name="zcaron" unicode="&#x17e;" horiz-adv-x="333" 
d="M80 338l-32 -58l-19 10l66 116q43 -15 104.5 -26.5t90.5 -5.5q-2 13 4.5 22.5t18.5 9.5q7 0 12 -6t5 -12q0 -8 -15 -29t-26 -32l-237 -239q29 -1 98 -25t81 -24q11 0 18 6t7 14q0 9 -24 15t-24 27q0 13 10 21t24 8q19 0 28.5 -16t9.5 -37q0 -45 -31 -66.5t-76 -21.5
q-22 0 -52.5 8.5t-67.5 21.5t-52 17q-3 -45 -22 -45q-17 0 -17 19q0 18 33 51l251 260l-2 2q-21 -3 -49 -3q-68 0 -115 18zM146 605l91 -106l144 106h35l-167 -167h-38l-99 167h34z" />
    <glyph glyph-name="florin" unicode="&#x192;" 
d="M205 367h-115l7 27h114l28 102q22 77 74 136t111 59q50 0 76 -25t26 -53q0 -15 -10 -30.5t-30 -15.5q-17 0 -27.5 11t-10.5 28q0 11 8.5 24.5t8.5 17.5q0 18 -36 18q-25 0 -44.5 -16.5t-35 -52t-24 -62t-21 -76t-16.5 -65.5h127l-7 -27h-124l-65 -289
q-32 -143 -92 -222.5t-134 -79.5q-36 0 -65 21t-29 57q0 19 12 32.5t30 13.5q16 0 26.5 -11t10.5 -28q0 -15 -9 -29t-9 -18q0 -16 36 -16q84 0 147 280q2 9 3 13z" />
    <glyph glyph-name="circumflex" unicode="&#x2c6;" horiz-adv-x="278" 
d="M207 605h38l88 -167h-32l-82 106l-136 -106h-37z" />
    <glyph glyph-name="caron" unicode="&#x2c7;" horiz-adv-x="278" 
d="M118 605l91 -106l144 106h35l-167 -167h-38l-99 167h34z" />
    <glyph glyph-name="uni02C9" unicode="&#x2c9;" horiz-adv-x="278" 
d="M358 527l-8 -49h-274l8 49h274z" />
    <glyph glyph-name="breve" unicode="&#x2d8;" horiz-adv-x="278" 
d="M79 598h27q3 -45 30.5 -73.5t71.5 -28.5q99 0 143 102h25q-35 -161 -174 -161q-60 0 -94 45t-29 116z" />
    <glyph glyph-name="dotaccent" unicode="&#x2d9;" horiz-adv-x="278" 
d="M218 456q-19 0 -32 13t-13 32q0 18 13 31.5t32 13.5q18 0 31.5 -13.5t13.5 -31.5q0 -19 -13.5 -32t-31.5 -13z" />
    <glyph glyph-name="ring" unicode="&#x2da;" horiz-adv-x="278" 
d="M205 446q-41 0 -69 28t-28 69q0 40 28.5 68.5t68.5 28.5t68.5 -28.5t28.5 -68.5t-28.5 -68.5t-68.5 -28.5zM205 610q-28 0 -47.5 -19.5t-19.5 -47.5q0 -29 19 -48t48 -19q28 0 47.5 19.5t19.5 47.5t-19.5 47.5t-47.5 19.5z" />
    <glyph glyph-name="ogonek" unicode="&#x2db;" horiz-adv-x="278" 
d="M141 0h41q-49 -41 -49 -87q0 -25 30 -25q27 0 51 49h31q-21 -49 -52 -74.5t-64 -25.5q-28 0 -47 14.5t-18 37.5q2 58 77 111z" />
    <glyph glyph-name="tilde" unicode="&#x2dc;" horiz-adv-x="278" 
d="M322 566h26q-24 -102 -99 -102q-21 0 -73 23q-52 22 -70 22q-21 0 -34.5 -13.5t-17.5 -33.5h-26q7 41 31.5 71.5t63.5 30.5q27 0 79 -22q52 -23 73 -23q28 0 47 47z" />
    <glyph glyph-name="hungarumlaut" unicode="&#x2dd;" horiz-adv-x="278" 
d="M86 438h-31q19 18 65.5 66t75 74t39.5 26q16 0 26.5 -9t10.5 -23q0 -20 -31 -37zM266 438h-31q19 18 65.5 66t75 74t39.5 26q16 0 26.5 -9t10.5 -23q0 -20 -31 -37z" />
    <glyph glyph-name="uni03A9" unicode="&#x3a9;" horiz-adv-x="654" 
d="M574 123l-56 -123h-207l-1 16q7 8 41 48.5t53 65t47 65t47 80.5t30 80q38 140 2.5 207t-112.5 67q-82 0 -152 -68t-110 -211q-6 -22 -10 -43.5t-4.5 -44.5t-1 -39t3.5 -40.5t5.5 -35.5t8.5 -37.5t8.5 -31.5t10 -33t8.5 -29l-12 -16h-204l14 123l19 1q1 -45 11.5 -58.5
t37.5 -13.5h98q-111 144 -67 304q37 134 134.5 216t209.5 82q115 0 165 -78t13 -212q-13 -49 -40 -95.5t-64 -87.5t-66.5 -69t-68.5 -60h100q30 0 45 12t43 60z" />
    <glyph glyph-name="uni03BC" unicode="&#x3bc;" 
d="M114 373h-81l7 23h19q39 0 134 10l-72 -297q-1 -4 -4.5 -15.5t-5.5 -21.5t-2 -18q0 -20 13 -27.5t26 -7.5q46 0 89 45.5t60 110.5l57 221h71l-44 -168q-3 -14 -15 -58t-19.5 -75t-7.5 -38q0 -34 26 -34q51 0 96 121l18 -6q-48 -149 -141 -149q-39 0 -54.5 25t-9.5 62
l-3 2q-23 -37 -63.5 -63t-82.5 -26q-33 0 -56 13q-16 -21 -16 -37q0 -23 21 -63t21 -58q0 -71 -52 -71q-23 0 -32.5 23.5t-9.5 49.5q0 28 5 60.5t11.5 59.5t19.5 79t22 93z" />
    <glyph glyph-name="pi" unicode="&#x3c0;" horiz-adv-x="506" 
d="M497 439l18 -8q-20 -40 -51 -73q-21 -4 -65 -4q-18 -49 -68 -231q-24 -87 17 -87q23 0 56 30l7 -16q-49 -61 -105 -61q-37 0 -48.5 23.5t4.5 93.5q23 81 80 251q-55 1 -151 1l-6 -20q-27 -97 -62 -176.5t-56.5 -112.5t-33.5 -44q-33 -15 -54 -16l-1 14q61 56 108 158
t75 199q-30 0 -55.5 -7.5t-37 -14t-38.5 -23.5l-7 18q1 1 11.5 10t13.5 12t13.5 11.5t17 11.5t18 10t21 10t22.5 6.5t26.5 5t28.5 1.5q30 0 110.5 -1.5t128.5 -1.5q21 0 33.5 6t29.5 25z" />
    <glyph glyph-name="endash" unicode="&#x2013;" 
d="M-19 194l12 47h500l-12 -47h-500z" />
    <glyph glyph-name="emdash" unicode="&#x2014;" horiz-adv-x="1000" 
d="M-19 194l12 47h1000l-12 -47h-1000z" />
    <glyph glyph-name="quoteleft" unicode="&#x2018;" horiz-adv-x="222" 
d="M232 670l9 -16q-123 -70 -123 -143q0 -24 12 -24q3 0 8.5 10.5t17 21.5t30.5 11q20 0 32 -12.5t12 -32.5q0 -27 -20 -43t-48 -16q-30 0 -50.5 21t-20.5 56q0 55 33 89t108 78z" />
    <glyph glyph-name="quoteright" unicode="&#x2019;" horiz-adv-x="222" 
d="M104 426l-9 16q123 70 123 143q0 24 -12 24q-3 0 -8.5 -10.5t-17 -21.5t-30.5 -11q-20 0 -32 12.5t-12 32.5q0 27 20 43t48 16q30 0 50.5 -21t20.5 -56q0 -55 -33 -89t-108 -78z" />
    <glyph glyph-name="quotesinglbase" unicode="&#x201a;" horiz-adv-x="222" 
d="M1 -148l-9 16q123 70 123 143q0 24 -12 24q-2 0 -4 -3t-5.5 -8.5t-6.5 -9.5q-14 -22 -40 -22q-20 0 -32 12.5t-12 32.5q0 27 20 43t48 16q30 0 50.5 -21t20.5 -56q0 -55 -33 -89t-108 -78z" />
    <glyph glyph-name="quotedblleft" unicode="&#x201c;" horiz-adv-x="444" 
d="M459 670l9 -16q-123 -70 -123 -143q0 -24 12 -24q3 0 8.5 10.5t17 21.5t30.5 11q20 0 32 -12.5t12 -32.5q0 -27 -20 -43t-48 -16q-30 0 -50.5 21t-20.5 56q0 55 33 89t108 78zM230 670l9 -16q-123 -70 -123 -143q0 -24 12 -24q3 0 8.5 10.5t17 21.5t30.5 11
q20 0 32 -12.5t12 -32.5q0 -27 -20 -43t-48 -16q-30 0 -50.5 21t-20.5 56q0 55 33 89t108 78z" />
    <glyph glyph-name="quotedblright" unicode="&#x201d;" horiz-adv-x="444" 
d="M328 426l-9 16q123 70 123 143q0 24 -12 24q-3 0 -8.5 -10.5t-17 -21.5t-30.5 -11q-20 0 -32 12.5t-12 32.5q0 27 20 43t48 16q30 0 50.5 -21t20.5 -56q0 -55 -33 -89t-108 -78zM99 426l-9 16q123 70 123 143q0 24 -12 24q-3 0 -8.5 -10.5t-17 -21.5t-30.5 -11
q-20 0 -32 12.5t-12 32.5q0 27 20 43t48 16q30 0 50.5 -21t20.5 -56q0 -55 -33 -89t-108 -78z" />
    <glyph glyph-name="quotedblbase" unicode="&#x201e;" horiz-adv-x="444" 
d="M224 -148l-9 16q123 70 123 143q0 24 -12 24q-2 0 -4 -3t-5.5 -8.5t-6.5 -9.5q-14 -22 -40 -22q-20 0 -32 12.5t-12 32.5q0 27 20 43t48 16q30 0 50.5 -21t20.5 -56q0 -55 -33 -89t-108 -78zM-5 -148l-9 16q123 70 123 143q0 24 -12 24q-2 0 -4 -3t-5.5 -8.5t-6.5 -9.5
q-14 -22 -40 -22q-20 0 -32 12.5t-12 32.5q0 27 20 43t48 16q30 0 50.5 -21t20.5 -56q0 -55 -33 -89t-108 -78z" />
    <glyph glyph-name="dagger" unicode="&#x2020;" 
d="M179 -160h-22q55 226 54 368q0 36 -5 54q23 18 44.5 64t30.5 100q-44 0 -81 -16.5t-59 -16.5q-17 0 -28.5 12.5t-11.5 29.5q0 18 10.5 29.5t28.5 11.5q16 0 56.5 -15t88.5 -15q11 51 11 76q0 13 -5 44t-5 37q0 61 52 61q19 0 28 -14.5t9 -33.5q0 -15 -32 -71t-39 -99
q49 0 86 15t52 15q25 0 35.5 -10.5t10.5 -34.5q0 -17 -13.5 -27.5t-30.5 -10.5q-16 0 -54 16.5t-90 16.5q-9 -44 -9 -84q0 -49 17 -85q-60 -93 -129 -417z" />
    <glyph glyph-name="daggerdbl" unicode="&#x2021;" 
d="M206 262q47 44 76 164q-44 0 -81 -16.5t-59 -16.5q-17 0 -28.5 12.5t-11.5 29.5q0 18 10.5 29.5t28.5 11.5q16 0 56.5 -15t88.5 -15q11 51 11 76q0 13 -5 44t-5 37q0 61 52 61q19 0 28 -14.5t9 -33.5q0 -15 -32 -71t-39 -99q49 0 86 15t52 15q25 0 35.5 -10.5t10.5 -34.5
q0 -17 -13.5 -27.5t-30.5 -10.5q-16 0 -54 16.5t-90 16.5q-10 -46 -10 -80q0 -52 16 -89q-47 -44 -76 -164q44 0 81 16.5t59 16.5q17 0 28.5 -12.5t11.5 -29.5q0 -18 -10.5 -29.5t-28.5 -11.5q-16 0 -56.5 15t-88.5 15q-11 -51 -11 -76q0 -13 5 -44t5 -37q0 -61 -52 -61
q-19 0 -28 14.5t-9 33.5q0 15 32 71t39 99q-49 0 -86 -15t-52 -15q-25 0 -35.5 10.5t-10.5 34.5q0 17 13.5 27.5t30.5 10.5q16 0 54 -16.5t90 -16.5q10 46 10 80q0 52 -16 89z" />
    <glyph glyph-name="bullet" unicode="&#x2022;" 
d="M87 327q0 67 47.5 115t115.5 48t115.5 -48t47.5 -115t-47.5 -115t-115.5 -48t-115.5 48t-47.5 115z" />
    <glyph glyph-name="ellipsis" unicode="&#x2026;" horiz-adv-x="1000" 
d="M60 46q0 25 17 42t42 17t42.5 -17t17.5 -42t-17.5 -41.5t-42.5 -16.5t-42 16.5t-17 41.5zM393 46q0 25 17 42t42 17t42.5 -17t17.5 -42t-17.5 -41.5t-42.5 -16.5t-42 16.5t-17 41.5zM726 46q0 25 17 42t42 17t42.5 -17t17.5 -42t-17.5 -41.5t-42.5 -16.5t-42 16.5
t-17 41.5z" />
    <glyph glyph-name="perthousand" unicode="&#x2030;" horiz-adv-x="1000" 
d="M522 673h47l-394 -701h-51l349 616l-2 2q-56 -27 -96 -27q-24 0 -41 4v-36q0 -18 -8 -46t-25 -60.5t-39.5 -60.5t-56.5 -47t-71 -19q-33 0 -56.5 13t-34 33.5t-15 37.5t-4.5 33q0 76 69 159.5t142 83.5q36 0 59.5 -17t32.5 -43q16 -9 41 -9q99 0 154 84zM103 382
q0 -52 56 -52q49 0 99.5 75t50.5 144q0 20 -2 30q-13 4 -35 19.5t-25 26.5q-28 0 -62.5 -46t-58 -104t-23.5 -93zM914 352q48 0 73.5 -30.5t25.5 -81.5q0 -44 -23 -101t-70 -103.5t-103 -46.5q-54 0 -84.5 31t-30.5 87q0 79 68.5 162t143.5 83zM781 83q0 -66 51 -66
q53 0 104.5 75.5t51.5 150.5q0 74 -59 74q-48 0 -94 -90q-54 -101 -54 -144zM559 352q48 0 73.5 -30.5t25.5 -81.5q0 -44 -23 -101t-70 -103.5t-103 -46.5q-54 0 -84.5 31t-30.5 87q0 79 68.5 162t143.5 83zM426 83q0 -66 51 -66q53 0 104.5 75.5t51.5 150.5q0 74 -59 74
q-48 0 -94 -90q-54 -101 -54 -144z" />
    <glyph glyph-name="guilsinglleft" unicode="&#x2039;" horiz-adv-x="333" 
d="M138 217q73 -131 73 -138q0 -6 -6 -6q-2 0 -4 1t-5.5 4.5t-7.5 8.5t-12 14.5t-16.5 20t-24 28.5t-32.5 37q-24 27 -24 32q0 3 7.5 9t23 17.5t27.5 21.5q36 26 64.5 52t40 37t15.5 11q8 0 8 -7q0 -24 -114 -131q-9 -8 -13 -12z" />
    <glyph glyph-name="guilsinglright" unicode="&#x203a;" horiz-adv-x="333" 
d="M196 223q-73 131 -73 138q0 6 6 6q2 0 4 -1t5.5 -4.5t7.5 -8.5t12 -14.5t16.5 -20t24 -28.5t32.5 -37q24 -27 24 -32q0 -3 -7.5 -9t-23 -17.5t-27.5 -21.5q-36 -26 -64.5 -52t-40 -37t-15.5 -11q-8 0 -8 7q0 24 114 131q9 8 13 12z" />
    <glyph glyph-name="fraction" unicode="&#x2044;" horiz-adv-x="167" 
d="M302 658h50l-453 -669h-50z" />
    <glyph glyph-name="Euro" unicode="&#x20ac;" 
d="M427 380h-241q-2 -8 -6 -24.5t-6 -24.5q-5 -21 -13 -61h215l-12 -24h-206q-7 -43 -7 -85q0 -20 5 -43.5t16.5 -49t33.5 -42.5t51 -17q59 0 108.5 53.5t79.5 125.5l18 -8l-44 -180h-15l-15 43q-54 -54 -130 -54q-79 0 -133 70.5t-54 169.5v17h-62l11 24h53q4 55 20 110
h-65l12 24h61q39 111 114 182.5t153 71.5q27 0 56 -14t48 -37l32 29h15l-29 -175l-18 4q0 93 -32 133t-78 40q-101 0 -170 -234h246z" />
    <glyph glyph-name="afii61289" unicode="&#x2113;" horiz-adv-x="361" 
d="M273 101l13 -14q-78 -96 -170 -96q-58 0 -77 36q-19 38 7 134l23 83l-67 -43l-5 19l80 55l33 117q34 122 56.5 172t61.5 83q41 40 82 40q36 0 47 -36t-4 -85q-39 -138 -211 -280l-26 -93q-18 -61 -16 -96.5t15.5 -48.5t40.5 -13q56 0 117 66zM187 449l-34 -124
q55 51 98.5 115.5t60.5 124.5q12 41 7.5 68.5t-25.5 27.5q-26 0 -50.5 -49t-56.5 -163z" />
    <glyph glyph-name="trademark" unicode="&#x2122;" horiz-adv-x="990" 
d="M250 636v-312q0 -39 5.5 -45.5t41.5 -10.5v-19h-163v19q37 4 42 10.5t5 45.5v312h-48q-51 0 -68 -69h-19v88h339v-88h-19q-17 69 -68 69h-48zM678 246l-152 313h-2v-227q0 -33 10.5 -46.5t41.5 -17.5v-19h-130v19q32 4 42.5 17.5t10.5 46.5v254q-9 22 -28.5 36t-40.5 14
v19h123l154 -308l159 308h98v-19q-31 -1 -42.5 -15t-11.5 -42v-255q0 -40 4.5 -46t42.5 -10v-19h-163v19q38 4 42.5 10t4.5 46v233h-2l-152 -311h-9z" />
    <glyph glyph-name="Omega" unicode="&#x2126;" horiz-adv-x="654" 
d="M574 123l-56 -123h-207l-1 16q7 8 41 48.5t53 65t47 65t47 80.5t30 80q38 140 2.5 207t-112.5 67q-82 0 -152 -68t-110 -211q-6 -22 -10 -43.5t-4.5 -44.5t-1 -39t3.5 -40.5t5.5 -35.5t8.5 -37.5t8.5 -31.5t10 -33t8.5 -29l-12 -16h-204l14 123l19 1q1 -45 11.5 -58.5
t37.5 -13.5h98q-111 144 -67 304q37 134 134.5 216t209.5 82q115 0 165 -78t13 -212q-13 -49 -40 -95.5t-64 -87.5t-66.5 -69t-68.5 -60h100q30 0 45 12t43 60z" />
    <glyph glyph-name="estimated" unicode="&#x212e;" horiz-adv-x="905" 
d="M873 314h-601q-5 0 -5 -4v-182q0 -11 8 -21q96 -99 227 -99q143 0 239 111h54q-51 -60 -128.5 -94.5t-165.5 -34.5q-153 0 -261.5 97.5t-108.5 235.5t108.5 236t261.5 98q154 0 263 -98t109 -236v-9zM736 337v183q0 13 -9 22q-97 95 -225 95q-130 0 -226 -98
q-9 -9 -9 -23v-179q0 -6 5 -6h460q4 0 4 6z" />
    <glyph glyph-name="partialdiff" unicode="&#x2202;" horiz-adv-x="471" 
d="M263 401h1q35 0 64.5 -17.5t43.5 -50.5q23 62 33 98q24 78 17 150q-4 39 -30 69t-68 30q-63 0 -134 -49q-7 -1 -11.5 7t-4.5 20.5t6 21.5q67 39 135 39q114 0 145 -132q18 -86 -17 -215q-40 -144 -108 -238q-102 -143 -218 -143q-74 0 -104 50t-6 137q23 87 94 154
q33 30 77 49.5t85 19.5zM271 368h-1q-64 0 -120 -56q-59 -63 -87 -166q-15 -53 1 -91t59 -38q66 0 137 98q46 62 95 181q-4 24 -26.5 48t-57.5 24z" />
    <glyph glyph-name="Delta" unicode="&#x2206;" horiz-adv-x="565" 
d="M450 0h-500l5 19l406 626l31 9l63 -635zM380 38l-48 513l-329 -513h377z" />
    <glyph glyph-name="product" unicode="&#x220f;" horiz-adv-x="702" 
d="M677 645v-22q-57 -4 -69.5 -13t-12.5 -44v-559q0 -41 12.5 -52t67.5 -15v-21h-220v21q54 4 65.5 13.5t11.5 53.5v581q0 19 -5.5 24t-25.5 5h-205q-19 0 -24.5 -4.5t-5.5 -20.5v-585q0 -42 9.5 -52t61.5 -15v-21h-213v21q55 5 67 15t12 52v559q0 35 -12 44t-70 13v22h556z
" />
    <glyph glyph-name="summation" unicode="&#x2211;" horiz-adv-x="589" 
d="M568 79l-37 -162h-409v19l206 333l-201 356v20h404q0 -7 4.5 -59t6.5 -84l-22 -4q-10 60 -28 92q-9 17 -27 22.5t-67 5.5h-188l176 -308l-204 -335h240q59 0 78.5 16.5t45.5 93.5z" />
    <glyph glyph-name="minus" unicode="&#x2212;" horiz-adv-x="550" 
d="M507 214h-464v58h464v-58z" />
    <glyph glyph-name="uni2215" unicode="&#x2215;" horiz-adv-x="167" 
d="M302 658h50l-453 -669h-50z" />
    <glyph glyph-name="uni2219" unicode="&#x2219;" horiz-adv-x="250" 
d="M65 233q0 25 17 42t42 17t42.5 -17t17.5 -42t-17.5 -41.5t-42.5 -16.5t-42 16.5t-17 41.5z" />
    <glyph glyph-name="radical" unicode="&#x221a;" horiz-adv-x="593" 
d="M575 832l-147 -964l-15 -9l-199 514l-78 -39l-9 28l131 62l159 -424h2l125 840z" />
    <glyph glyph-name="infinity" unicode="&#x221e;" horiz-adv-x="713" 
d="M669 268v-1q0 -62 -40 -101.5t-95 -39.5q-40 0 -76.5 25t-84.5 80q-30 -34 -49.5 -52.5t-51.5 -35.5t-66 -17q-55 0 -94 40t-39 98q0 61 39.5 101t99.5 40q45 0 83.5 -28t80.5 -78q26 29 36 39.5t33.5 31t46 28t49.5 7.5q57 -1 92.5 -38.5t35.5 -98.5zM211 168h2
q12 0 23 2.5t22.5 9.5t19.5 12t20 17l17 17t18 19.5t16 17.5q-50 60 -74 77q-33 24 -69 24q-40 0 -64 -29.5t-24 -71.5q1 -40 27 -67.5t66 -27.5zM536 364h-1q-21 0 -43.5 -12t-34.5 -23t-34 -35t-25 -27q48 -55 77 -77t62 -22q40 0 64 29.5t24 66.5q0 46 -25 73t-64 27z
" />
    <glyph glyph-name="integral" unicode="&#x222b;" horiz-adv-x="429" 
d="M246 21l-18 388q-5 113 3.5 190.5t29 117t44 55.5t55.5 16q18 0 33.5 -10t15.5 -28q0 -16 -10 -25t-24 -9q-15 0 -26 18t-21 18q-12 0 -22 -12t-17 -50t-4 -99l17 -362q4 -99 -1 -173.5t-16.5 -118t-30.5 -70.5t-38.5 -36t-44.5 -9q-22 0 -36 12t-14 28q-1 16 11 26.5
t29 10.5q13 0 24 -19t20 -19q22 0 33.5 44t7.5 116z" />
    <glyph glyph-name="approxequal" unicode="&#x2248;" horiz-adv-x="516" 
d="M447 392l29 -24q-42 -85 -113 -85q-17 0 -34.5 5t-29.5 11.5t-38 20.5q-51 30 -81 30q-45 0 -86 -66l-30 24q44 85 122 85q12 0 23.5 -2t23 -7t18.5 -8.5t18.5 -10t14.5 -8.5t12 -7t12 -6.5t10.5 -5.5t11.5 -5.5t10.5 -3.5t12.5 -2.5t12 -0.5q44 0 82 66zM447 243l29 -25
q-42 -85 -113 -85q-17 0 -34.5 5t-29.5 11.5t-38 20.5q-51 30 -80 30q-28 0 -48 -17.5t-39 -48.5l-30 23q44 86 122 86q12 0 23.5 -2t23 -7t18 -8t18.5 -10.5t14 -8.5q3 -2 13.5 -8t14 -7.5t12.5 -5.5t14 -5.5t12.5 -3t15.5 -1.5q25 0 43.5 16t38.5 51z" />
    <glyph glyph-name="notequal" unicode="&#x2260;" horiz-adv-x="536" 
d="M396 455l-39 -85h135v-44h-152l-59 -129h211v-43h-228l-47 -103l-35 16l40 87h-130v43h148l57 129h-205v44h223l46 101z" />
    <glyph glyph-name="lessequal" unicode="&#x2264;" horiz-adv-x="556" 
d="M510 94l-393 201v46l393 200v-53l-346 -168v-2l346 -171v-53zM512 12h-400v46h400v-46z" />
    <glyph glyph-name="greaterequal" unicode="&#x2265;" horiz-adv-x="556" 
d="M117 541l393 -200v-46l-393 -201v53l346 170v2l-346 169v53zM512 12h-399v46h399v-46z" />
    <glyph glyph-name="lozenge" unicode="&#x25ca;" horiz-adv-x="598" 
d="M555 312l-180 -375h-51l-179 375l180 377h50zM505 312l-153 327h-3l-154 -326l154 -327h3z" />
    </font>
</defs>
</svg>
