<?xml version="1.0" standalone="no"?>
<!DOCTYPE svg PUBLIC "-//W3C//DTD SVG 1.1//EN" "http://www.w3.org/Graphics/SVG/1.1/DTD/svg11.dtd" >
<svg xmlns="http://www.w3.org/2000/svg" xmlns:xlink="http://www.w3.org/1999/xlink" version="1.1">
<metadata>
Created by FontForge 20170731 at Mon Apr  1 19:59:38 2002
 By Aleksey,,,
Copyright (c) 1986, 1990, 1991, 1998, 2001 Adobe Systems Incorporated.  All Rights Reserved.
</metadata>
<defs>
<font id="BodoniStd-Poster" horiz-adv-x="667" >
  <font-face 
    font-family="Bodoni Std Poster"
    font-weight="900"
    font-stretch="normal"
    units-per-em="1000"
    panose-1="2 7 10 4 8 9 5 2 2 4"
    ascent="698"
    descent="-302"
    x-height="473"
    cap-height="693"
    bbox="-170 -250 1000 963"
    underline-thickness="50"
    underline-position="-200"
    unicode-range="U+0020-FB02"
  />
<missing-glyph horiz-adv-x="500" 
d="M0 0v700h500v-700h-500zM250 395l170 255h-340zM280 350l170 -255v510zM80 50h340l-170 255zM50 605v-510l170 255z" />
    <glyph glyph-name="fi" unicode="fi" horiz-adv-x="722" 
d="M706 0h-324v24h42v426h-42v30h140q27 0 77.5 3.5t61.5 3.5v-463h45v-24zM547 718q51 0 83 -24.5t32 -74.5q0 -98 -115 -98q-52 0 -83 25.5t-31 72.5t33 73t81 26zM65 450h-56v30h57q-3 101 55.5 169.5t158.5 68.5q51 0 89 -25t38 -74q0 -37 -23.5 -59.5t-61.5 -22.5
q-31 0 -54 20.5t-23 51.5q0 39 47 66q-4 10 -12 10q-37 0 -59 -27t-22 -65q0 -42 25.5 -70t57 -36.5t63.5 -6.5v-30h-42v-426h42v-24h-336v24h56v426z" />
    <glyph glyph-name="fl" unicode="fl" horiz-adv-x="722" 
d="M706 0h-322v24h42v669q43 0 123.5 7t111.5 8v-684h45v-24zM65 450h-56v30h57q-3 101 55.5 169.5t158.5 68.5q51 0 89 -25t38 -74q0 -37 -23.5 -59.5t-61.5 -22.5q-31 0 -54 20.5t-23 51.5q0 39 47 66q-4 10 -12 10q-37 0 -59 -27t-22 -65q0 -63 50 -89.5t119 -23.5v-30
h-65v-426h41v-24h-335v24h56v426z" />
    <glyph glyph-name=".notdef" horiz-adv-x="500" 
d="M0 0v700h500v-700h-500zM250 395l170 255h-340zM280 350l170 -255v510zM80 50h340l-170 255zM50 605v-510l170 255z" />
    <glyph glyph-name=".null" horiz-adv-x="0" 
 />
    <glyph glyph-name="nonmarkingreturn" horiz-adv-x="333" 
 />
    <glyph glyph-name="space" unicode=" " horiz-adv-x="333" 
 />
    <glyph glyph-name="exclam" unicode="!" horiz-adv-x="389" 
d="M210 237h-31q0 13 -1 25t-5 25t-6 22t-9.5 23t-10 20.5t-12.5 22t-12.5 19.5t-14 22t-13.5 20q-46 69 -46 134q0 62 42 100t105 38q61 0 102.5 -38t41.5 -100q0 -65 -46 -134q-3 -4 -12.5 -18t-12.5 -19t-11.5 -18t-11.5 -19.5t-9.5 -19t-9.5 -20t-7 -19.5t-5.5 -21.5
t-3 -21.5t-1.5 -23zM194 217q59 0 101.5 -29.5t42.5 -86.5t-42 -86.5t-102 -29.5t-102.5 29.5t-42.5 86.5t42.5 86.5t102.5 29.5z" />
    <glyph glyph-name="quotedbl" unicode="&#x22;" horiz-adv-x="550" 
d="M154 391l-28 226q0 91 67 91q29 0 44.5 -19.5t15.5 -49.5q0 -12 -7 -63l-29 -175q0 -1 -1 -8.5t-2 -10.5t-2.5 -10t-3.5 -10.5t-5 -7.5t-7.5 -6t-10.5 -2q-11 0 -18.5 9t-9 15t-3.5 21zM326 391l-28 226q0 91 67 91q29 0 44.5 -19.5t15.5 -49.5q0 -12 -7 -63l-29 -175
q0 -1 -1 -8.5t-2 -10.5t-2.5 -10t-3.5 -10.5t-5 -7.5t-7.5 -6t-10.5 -2q-11 0 -18.5 9t-9 15t-3.5 21z" />
    <glyph glyph-name="numbersign" unicode="#" 
d="M553 315v-93h-102l-32 -222h-89l31 222h-85l-32 -222h-88l31 222h-100v93h114l13 88h-99v93h111l30 212h87l-29 -212h86l29 212h90l-30 -212h90v-93h-103l-12 -88h89zM387 403h-86l-12 -88h85z" />
    <glyph glyph-name="dollar" unicode="$" 
d="M308 498v181q-47 -3 -82 -21.5t-35 -59.5q0 -31 30 -54t87 -46zM347 224v-209q55 5 94 26t39 66q0 66 -133 117zM308 12v229l-136 60q-120 53 -120 188q0 81 65 147t191 72v65h39v-65q77 -2 132.5 -16.5t83 -37.5t39 -46t11.5 -48q0 -38 -26 -59.5t-65 -21.5
q-37 0 -61.5 21t-24.5 58q0 20 7 35.5t14.5 23.5t26.5 25q12 11 -18.5 21.5t-55.5 12.5q-33 3 -63 3v-197q130 -51 181 -84q107 -72 107 -183q0 -64 -24 -104.5t-80 -78.5q-58 -40 -184 -47v-121h-39v121q-66 -8 -130.5 10t-106.5 59t-42 93q0 37 28.5 66.5t64.5 29.5
q39 0 67.5 -22.5t28.5 -61.5q0 -35 -17 -58.5t-51 -48.5q0 -19 60 -29.5t98 -10.5z" />
    <glyph glyph-name="percent" unicode="%" horiz-adv-x="1000" 
d="M737 708l-412 -723h-56l369 648q-72 -39 -143 -39q-40 0 -68 12q30 -48 30 -110q0 -108 -76 -187t-184 -79q-83 0 -133 59.5t-50 144.5q0 33 15.5 74.5t44.5 84.5t81.5 72t116.5 29q37 0 103 -30.5t119 -30.5q48 0 101 17.5t86 46.5q6 5 14 8t11.5 3.5t16 0t14.5 -0.5z
M772 71l68 289q9 36 -3.5 51.5t-34.5 15.5q-11 0 -20 -6t-14 -13t-10.5 -20.5t-7.5 -21t-5 -23t-4 -18.5l-57 -225q-24 -93 32 -93q27 0 37.5 16t18.5 48zM248 317l68 289q9 36 -3.5 51.5t-34.5 15.5q-11 0 -20 -6t-14 -13t-10.5 -20.5t-7.5 -21t-5 -23t-4 -18.5l-57 -225
q-24 -93 32 -93q27 0 37.5 16t18.5 48zM784 449q82 0 139 -56t57 -137q0 -111 -71.5 -191t-180.5 -80q-79 0 -133 54.5t-54 143.5q0 31 10 66.5t31 71t49 64t68 46.5t85 18z" />
    <glyph glyph-name="ampersand" unicode="&#x26;" horiz-adv-x="944" 
d="M685 389v32h220v-32h-23q-16 0 -36 -19t-64 -71l-63 -74l61 -86q10 -14 16 -21t17.5 -13.5t24.5 -6.5q35 0 71 59l23 -13q-35 -77 -98 -118t-148 -41q-120 0 -192 71q-115 -71 -242 -71t-184.5 56.5t-57.5 138.5q0 40 17 74t43.5 57.5t64 43t71.5 30.5t72 20
q-48 81 -48 145q0 44 22.5 76t59.5 48.5t75 23.5t79 7q89 0 140.5 -34.5t51.5 -84.5q0 -66 -93 -104l139 -230q1 1 8.5 9.5t8.5 10.5t7.5 10t8 11t5.5 10.5t5.5 12t3 11.5t1.5 13q0 23 -15 36t-30 13h-22zM289 379q-49 -12 -49 -61q0 -15 4 -32t13.5 -36.5t15.5 -31
t19.5 -34l16.5 -27.5q53 -92 116 -92q27 0 52 14q-25 33 -53 76t-43.5 68.5t-48.5 82.5t-43 73zM484 626l56 -103q11 -20 20 -20q11 0 20.5 11t9.5 34q0 33 -27.5 81.5t-59.5 48.5q-17 0 -24 -13t5 -39z" />
    <glyph glyph-name="quotesingle" unicode="'" horiz-adv-x="278" 
d="M104 391l-28 226q0 91 67 91q29 0 44.5 -19.5t15.5 -49.5q0 -12 -7 -63l-29 -175q0 -1 -1 -8.5t-2 -10.5t-2.5 -10t-3.5 -10.5t-5 -7.5t-7.5 -6t-10.5 -2q-11 0 -18.5 9t-9 15t-3.5 21z" />
    <glyph glyph-name="parenleft" unicode="(" horiz-adv-x="444" 
d="M410 708v-24q-62 -15 -92 -47.5t-44 -112t-14 -237.5q0 -301 53 -411q14 -29 33 -45t32.5 -19.5t34.5 -5.5v-26q-73 6 -168 61q-97 56 -155.5 165t-58.5 223q0 265 169 390q30 22 66.5 40t60 25.5t52.5 15t31 8.5z" />
    <glyph glyph-name="parenright" unicode=")" horiz-adv-x="444" 
d="M34 684v24q2 -1 31 -8.5t52.5 -15t60 -25.5t66.5 -40q169 -125 169 -390q0 -114 -58.5 -223t-155.5 -165q-95 -55 -168 -61v26q21 2 34.5 5.5t32.5 19.5t33 45q53 110 53 411q0 158 -14 237.5t-44 112t-92 47.5z" />
    <glyph glyph-name="asterisk" unicode="*" horiz-adv-x="500" 
d="M225 442q-29 -19 -41 -32.5t-19.5 -30t-16.5 -27.5q-32 -37 -69 -29q-20 3 -34 28q-14 21 -7 43q5 17 22 29.5t38 14.5q24 4 34.5 2t30.5 2t51 19q14 14 1 19q-31 15 -51.5 19.5t-31 2t-34.5 1.5q-48 9 -60 44q-6 23 8 43q14 25 33 28q39 8 69 -29q9 -11 17 -27t20 -29.5
t41 -33.5q11 -6 11 7q-3 35 -9 52.5t-16 32t-15 28.5q-18 45 9 74q14 15 41 15q29 0 41 -15q12 -13 14.5 -34t-5.5 -40q-5 -13 -15.5 -28t-15.5 -32.5t-7 -52.5q-3 -6 3.5 -10t11.5 0q29 20 41.5 33.5t20 29t17.5 27.5q12 16 31 25t37 5q23 -8 33 -28q13 -24 8 -43
q-6 -17 -22.5 -29.5t-36.5 -15.5q-25 -4 -35.5 -1.5t-30.5 -1.5t-51 -19q-7 -3 -7 -7.5t8 -4.5q31 -15 51 -19.5t31 -2t35 -0.5q20 -4 37 -16.5t22 -29.5q6 -17 -7 -43q-14 -24 -34 -27q-38 -10 -68 29q-10 12 -17.5 28t-19.5 29.5t-41 32.5q-8 7 -14.5 3.5t-2.5 -12.5
q3 -35 8.5 -52t15.5 -32.5t15 -28.5q8 -19 5.5 -40t-14.5 -34q-17 -15 -41 -15q-26 0 -41 15q-12 13 -14.5 34t5.5 40q5 13 15 28.5t15.5 32.5t8.5 52q2 8 -3 9.5t-9 -5.5z" />
    <glyph glyph-name="plus" unicode="+" horiz-adv-x="600" 
d="M242 314v191h116v-191h194v-116h-194v-198h-116v198h-194v116h194z" />
    <glyph glyph-name="comma" unicode="," horiz-adv-x="333" 
d="M65 -189l-4 26q53 11 99.5 31t83.5 58t37 85q0 17 -17 5q-3 -2 -7 -6q-25 -25 -88 -25q-78 0 -114 35.5t-36 81.5q0 57 42.5 86t102.5 29q74 0 118.5 -44.5t44.5 -118.5q0 -101 -77.5 -164.5t-184.5 -78.5z" />
    <glyph glyph-name="hyphen" unicode="-" horiz-adv-x="333" 
d="M307 164h-281v153h281v-153z" />
    <glyph glyph-name="period" unicode="." horiz-adv-x="333" 
d="M175 217q59 0 101.5 -29.5t42.5 -86.5t-42 -86.5t-102 -29.5t-102.5 29.5t-42.5 86.5t42.5 86.5t102.5 29.5z" />
    <glyph glyph-name="slash" unicode="/" horiz-adv-x="278" 
d="M385 708l-352 -708h-140l352 708h140z" />
    <glyph glyph-name="zero" unicode="0" 
d="M332 708q59 0 113.5 -22.5t99.5 -65t72.5 -112.5t27.5 -158q0 -170 -88 -267.5t-225 -97.5t-225 97.5t-88 267.5q0 88 27.5 158t72.5 112.5t99.5 65t113.5 22.5zM281 587v-483q0 -92 51 -92t51 92v483q0 94 -51 94t-51 -94z" />
    <glyph glyph-name="one" unicode="1" 
d="M551 0h-438v27h98v639h-91v27h171q33 0 93.5 7t77.5 8v-681h89v-27z" />
    <glyph glyph-name="two" unicode="2" 
d="M50 -15h-31q-1 43 11 82.5t27 66.5t47 61t51.5 51t61.5 52q4 3 6 5t5.5 5t6.5 5q57 47 82.5 92.5t25.5 114.5q0 65 -30.5 109t-91.5 44q-23 0 -49.5 -8t-26.5 -26q0 -8 7 -8q41 -1 69 -31t28 -71q0 -45 -31.5 -72.5t-77.5 -27.5q-48 0 -79 32.5t-31 80.5q0 79 76 122.5
t186 43.5q88 0 152.5 -19t99 -50.5t50 -66t15.5 -71.5q0 -87 -53.5 -132t-211.5 -87q-9 -2 -29.5 -7.5t-30.5 -8t-25.5 -7.5t-29 -11t-27.5 -13q-87 -47 -87 -86q0 -9 12 -9q4 0 11 4l21 12t27 14q64 29 150 29q46 0 122 -12q72 -12 100.5 -0.5t36.5 49.5h30
q-4 -124 -77 -194q-33 -32 -77.5 -44.5t-111.5 -12.5q-45 0 -144 25q-70 18 -100 18q-23 0 -41.5 -11t-23.5 -32z" />
    <glyph glyph-name="three" unicode="3" 
d="M346 472v49q0 25 -1.5 43.5t-7.5 41.5t-16 37.5t-29 24.5t-45 10q-16 0 -44.5 -10t-28.5 -23q0 -3 27 -17q54 -28 54 -89q0 -46 -29.5 -70.5t-75.5 -24.5q-43 0 -73 30.5t-30 73.5q0 45 26.5 78t68.5 50t83.5 24.5t82.5 7.5q45 0 92.5 -9.5t93 -29.5t74.5 -58t29 -87
t-33 -88t-98 -58l-16 -4q-16 -3 -27.5 -6.5t-11.5 -6.5q0 -4 8 -7t20.5 -5t13.5 -2q165 -42 165 -167q0 -195 -317 -195q-140 0 -206.5 44t-66.5 121q0 50 32 79.5t82 29.5q48 0 78 -28t30 -75q0 -55 -41 -84q-6 -4 -14.5 -9.5t-13 -9t-8 -7.5t-2.5 -9q3 -22 65 -22
q61 0 87.5 40.5t26.5 141.5q0 63 -11 95t-26 39.5t-43 7.5h-38q-20 0 -20 14q0 9 4 12.5t16 3.5h40q74 0 74 103z" />
    <glyph glyph-name="four" unicode="4" 
d="M14 188v44l396 476h141v-481h86v-39h-86v-161h81v-27h-407v27h83v161h-294zM308 536l-248 -298v-11h248v309z" />
    <glyph glyph-name="five" unicode="5" 
d="M87 357l36 335q1 13 21 11q8 -1 54 -8t92 -11.5t90 -4.5q63 0 139 13q7 1 26 7.5t29 6.5t10 -18q0 -22 -16 -51.5t-49 -62t-97.5 -55t-146.5 -22.5q-22 0 -46.5 2.5t-56 7.5t-38.5 6l-17 -131q-1 -4 0.5 -5.5t5.5 -0.5t7 2.5l8 4l7 3.5q82 37 174 37q55 0 105.5 -11.5
t96 -35.5t72.5 -68t27 -103q0 -53 -21.5 -93.5t-54 -64t-79 -38t-89.5 -19.5t-92 -5q-135 0 -194.5 47t-59.5 110q0 53 31 81.5t84 28.5q47 0 76 -28.5t29 -75.5q0 -28 -16 -54.5t-41 -34.5q-30 -10 -30 -17q0 -15 25.5 -22.5t44.5 -7.5q62 0 90 42t28 154q0 37 -3.5 63
t-14 53.5t-35 42t-62.5 14.5q-34 0 -82.5 -21t-51.5 -21q-17 0 -15 18z" />
    <glyph glyph-name="six" unicode="6" 
d="M280 185v-79q0 -51 11.5 -72.5t40.5 -21.5q45 0 45 94v164v13v16.5t-1 15t-3.5 15.5t-6.5 11.5t-11 9t-16 2.5q-21 0 -34.5 -16t-18 -46t-5.5 -48t-1 -48v-10zM280 484v-121q73 47 140 47q96 0 157.5 -54.5t61.5 -148.5q0 -62 -24 -106.5t-66 -69t-91 -35.5t-108 -11
q-157 0 -245.5 98.5t-88.5 254.5q0 174 100 272t257 98q57 0 102 -15t69.5 -38t36.5 -47t12 -45q0 -49 -31.5 -73.5t-81.5 -24.5q-45 0 -74 26t-29 70q0 29 17.5 52t41.5 33q18 8 18 16q-1 7 -26.5 13t-37.5 6q-110 0 -110 -197z" />
    <glyph glyph-name="seven" unicode="7" 
d="M90 528l-12 -87h-28l38 262h28l-7 -74l1.5 -1.5t4.5 2t5.5 3.5t4.5 4q50 40 90.5 55.5t90.5 15.5q48 0 126 -21t111 -21q28 0 58.5 13t36.5 13q3 0 6.5 -5t3.5 -9q0 -11 -46 -71q-146 -190 -146 -451q0 -82 -35 -135t-114 -53q-61 0 -96.5 40.5t-35.5 94.5q0 104 136 234
q18 17 99.5 89t109.5 107l-10 8q-84 -48 -173 -48q-29 0 -61.5 5.5t-73 15.5t-61.5 14q-38 5 -51 0z" />
    <glyph glyph-name="eight" unicode="8" 
d="M375 452v167q0 65 -46 65t-46 -65v-167q0 -25 2 -39t12.5 -27t31.5 -13t31.5 13t12.5 27t2 39zM227 356v14q-81 10 -130 46q-58 42 -58 120q0 82 80 127t210 45t210 -45t80 -127q0 -76 -53 -116t-135 -50v-14q85 -11 141 -52q70 -51 70 -131q0 -29 -8 -54t-29 -50.5
t-55 -43.5t-90.5 -29t-130.5 -11t-130.5 11t-90.5 29t-55 43.5t-29 50.5t-8 54q0 80 64 126t147 57zM379 104v176q-1 36 -15 52t-35 16t-35 -16t-15 -52v-176q0 -55 12 -75t38 -20t38 20t12 75z" />
    <glyph glyph-name="nine" unicode="9" 
d="M276 564v-186q0 -42 38 -42q56 0 56 108v154q-2 83 -46 83q-17 0 -28 -12t-15 -35.5t-4.5 -35t-0.5 -34.5zM373 222v103q-79 -46 -140 -46q-97 0 -158 53.5t-61 148.5q0 63 24.5 108.5t68 70.5t93.5 36.5t109 11.5q137 0 232.5 -96.5t95.5 -260.5q0 -181 -106 -277
q-53 -48 -117.5 -68.5t-155.5 -20.5q-46 0 -91.5 13t-81.5 46.5t-36 81.5t30.5 72.5t79.5 24.5q46 0 75.5 -25.5t29.5 -70.5q0 -31 -19 -52t-38.5 -31t-19.5 -15q0 -7 27.5 -12t42.5 -5q29 0 47 6.5t35.5 26.5t25.5 64t8 113z" />
    <glyph glyph-name="colon" unicode=":" horiz-adv-x="333" 
d="M175 217q59 0 101.5 -29.5t42.5 -86.5t-42 -86.5t-102 -29.5t-102.5 29.5t-42.5 86.5t42.5 86.5t102.5 29.5zM175 508q59 0 101.5 -29.5t42.5 -86.5q0 -58 -42 -87t-102 -29t-102.5 29.5t-42.5 86.5t42.5 86.5t102.5 29.5z" />
    <glyph glyph-name="semicolon" unicode=";" horiz-adv-x="333" 
d="M65 -189l-4 26q53 11 99.5 31t83.5 58t37 85q0 17 -17 5q-3 -2 -7 -6q-25 -25 -88 -25q-78 0 -114 35.5t-36 81.5q0 57 42.5 86t102.5 29q74 0 118.5 -44.5t44.5 -118.5q0 -101 -77.5 -164.5t-184.5 -78.5zM172 508q59 0 101.5 -29.5t42.5 -86.5q0 -58 -42 -87t-102 -29
t-102.5 29.5t-42.5 86.5t42.5 86.5t102.5 29.5z" />
    <glyph glyph-name="less" unicode="&#x3c;" horiz-adv-x="600" 
d="M555 108v-128l-509 226v99l509 227v-128l-356 -150z" />
    <glyph glyph-name="equal" unicode="=" horiz-adv-x="600" 
d="M552 412v-116h-504v116h504zM552 216v-116h-504v116h504z" />
    <glyph glyph-name="greater" unicode="&#x3e;" horiz-adv-x="600" 
d="M46 108l356 146l-356 150v128l509 -227v-99l-509 -226v128z" />
    <glyph glyph-name="question" unicode="?" horiz-adv-x="611" 
d="M302 239h-33q-6 67 32 147q40 84 40 152q0 59 -31 96.5t-89 37.5q-15 0 -36 -5t-21 -15q0 -3 2 -5t4 -2t5.5 -0.5t4.5 -0.5q6 -1 18 -2t21 -4q64 -20 64 -97q0 -49 -36.5 -78t-85.5 -29q-52 0 -90 32t-38 84q0 46 26 79t69 49t84.5 23t84.5 7q45 0 90.5 -8.5t90.5 -26.5
t73 -54t28 -85q0 -27 -8.5 -49.5t-19.5 -36.5t-33 -28t-36.5 -20.5t-44.5 -18.5t-42 -17q-53 -23 -72.5 -46.5t-20.5 -78.5zM291 217q59 0 101.5 -29.5t42.5 -86.5t-42 -86.5t-102 -29.5t-102.5 29.5t-42.5 86.5t42.5 86.5t102.5 29.5z" />
    <glyph glyph-name="at" unicode="@" horiz-adv-x="740" 
d="M280 325q0 -35 20.5 -59.5t55.5 -24.5q45 0 73.5 32t28.5 74q0 36 -22 58.5t-58 22.5q-41 0 -69.5 -32t-28.5 -71zM487 473l10 48h95l-49 -278q-4 -13 -3 -23.5t15 -10.5q35 0 66 50.5t31 123.5q0 113 -74.5 176t-193.5 63q-125 0 -202 -78t-77 -198q0 -125 83 -200
t213 -75q106 0 191 64h99q-114 -150 -298 -150q-163 0 -275.5 103t-112.5 258q0 153 111 257.5t271 104.5q138 0 235 -81q112 -89 112 -212q0 -121 -77 -197q-32 -30 -83 -55.5t-90 -25.5q-26 0 -42.5 12.5t-15.5 36.5q-43 -45 -98 -45q-67 0 -117.5 50t-50.5 119
q0 88 57 153.5t147 65.5q80 0 123 -56z" />
    <glyph glyph-name="A" unicode="A" horiz-adv-x="833" 
d="M366 258l-92 254l-91 -254h183zM199 0h-192v27h23q34 0 72 102l206 564h209l247 -666h55v-27h-444v27h72l-71 204h-202l-40 -107q-15 -37 -8.5 -58.5t19 -30t27.5 -8.5h27v-27z" />
    <glyph glyph-name="B" unicode="B" horiz-adv-x="833" 
d="M384 347v-320h34q78 0 78 97v131q0 53 -22.5 72.5t-65.5 19.5h-24zM384 666v-291h43q28 0 42.5 21.5t14.5 56.5v139q0 74 -77 74h-23zM442 0h-440v27h76v639h-76v27h549q42 0 82 -8t78.5 -26t61.5 -51.5t23 -79.5q0 -43 -21.5 -75t-58 -48.5t-73.5 -24t-78 -8.5v-20
q23 -1 64 -5q78 -8 131 -48t53 -114q0 -30 -7.5 -55.5t-20.5 -43.5t-31 -32.5t-39.5 -23t-46 -15t-50 -9t-52 -5t-51.5 -2t-49 0.5h-24z" />
    <glyph glyph-name="C" unicode="C" horiz-adv-x="722" 
d="M678 708v-246h-32q-24 78 -73.5 139t-118.5 61q-42 0 -63 -13t-34.5 -65.5t-13.5 -159.5v-193q0 -78 17 -123t41.5 -59t63.5 -14q77 0 128 58.5t66 139.5h31q-13 -119 -93 -183.5t-201 -64.5q-167 0 -271 100t-104 267q0 152 105.5 254t258.5 102q55 0 134 -27
q3 -1 20.5 -9t28.5 -8q8 0 30 13l54 31h26z" />
    <glyph glyph-name="D" unicode="D" horiz-adv-x="833" 
d="M380 666v-639h44q37 0 50.5 26t13.5 116v393q0 104 -77 104h-31zM7 693h434q166 0 266.5 -90.5t100.5 -255.5q0 -135 -69 -226.5t-212 -114.5q-38 -6 -173 -6h-349v27h74v639h-72v27z" />
    <glyph glyph-name="E" unicode="E" horiz-adv-x="722" 
d="M685 0h-680v27h74v639h-74v27h671l5 -243h-33q-23 92 -76 154t-129 62h-61v-303h17q32 0 68 34t42 102h33v-305h-33q-6 72 -42 107t-68 35h-17v-309h68q138 0 210 237h30z" />
    <glyph glyph-name="F" unicode="F" horiz-adv-x="722" 
d="M472 0h-472v27h79v639h-77v27h692l5 -255h-32q-48 228 -220 228h-60v-303h17q32 0 68 34t42 102h33v-305h-33q-6 72 -42 107t-68 35h-17v-309h85v-27z" />
    <glyph glyph-name="G" unicode="G" horiz-adv-x="833" 
d="M602 651l94 57h38v-242h-28q-35 77 -97 136t-135 59q-27 0 -48 -8t-34.5 -18.5t-23 -31.5t-14 -35.5t-7 -43.5t-2.5 -42.5v-43.5v-324q0 -104 57 -104q15 0 26 4.5t17.5 15.5t10.5 19.5t5.5 26t2 25.5t0 27.5t-0.5 22.5v180h-58v28h401v-28h-54v-267q-60 0 -115 -21
q-98 -37 -142.5 -47.5t-97.5 -10.5q-167 0 -271 97.5t-104 254.5q0 76 23.5 139.5t62 105.5t88 71t100 42t100.5 13q121 0 206 -57z" />
    <glyph glyph-name="H" unicode="H" horiz-adv-x="889" 
d="M430 0h-423v27h78v639h-78v27h423v-27h-45v-296h118v296h-45v27h424v-27h-79v-639h79v-27h-424v27h45v316h-118v-316h45v-27z" />
    <glyph glyph-name="I" unicode="I" horiz-adv-x="500" 
d="M481 0h-462v27h76v639h-76v27h462v-27h-76v-639h76v-27z" />
    <glyph glyph-name="J" unicode="J" horiz-adv-x="611" 
d="M530 666v-338q0 -118 -10 -161q-19 -83 -94 -139q-57 -43 -177 -43q-43 0 -84.5 8.5t-81 26.5t-63.5 52.5t-24 80.5q0 51 27.5 84.5t77.5 33.5q44 0 74.5 -25.5t30.5 -68.5q0 -41 -24 -66t-62 -33q-20 -4 -20 -23q0 -22 42 -22q56 0 89.5 40.5t33.5 97.5q0 63 -35 97v398
h-96v27h468v-27h-72z" />
    <glyph glyph-name="K" unicode="K" horiz-adv-x="944" 
d="M451 0h-449v27h77v639h-77v27h466v-27h-86v-326l238 239q40 43 22.5 65t-76.5 22h-31v27h315v-27h-33q-62 0 -129 -67l-78 -78l286 -494h44v-27h-452v27h71l-175 309h-2v-309h69v-27z" />
    <glyph glyph-name="L" unicode="L" horiz-adv-x="722" 
d="M689 0h-684v27h76v639h-76v27h470v-27h-88v-639h46q54 0 94 20t65.5 58.5t40 76.5t27.5 93h29v-275z" />
    <glyph glyph-name="M" unicode="M" horiz-adv-x="1000" 
d="M907 666v-639h79v-27h-451v27h78v560h-2l-223 -587h-41l-227 594h-2v-482q0 -19 1.5 -30t7.5 -26t21 -22t39 -7h19v-27h-206v27h19q62 0 62 83v556h-74v27h362l123 -330l126 330h368v-27h-79z" />
    <glyph glyph-name="N" unicode="N" horiz-adv-x="778" 
d="M208 0h-206v27h25q56 0 56 95v491q-2 3 -9 12.5t-10 13t-9.5 10.5t-11 10t-12 5.5t-14.5 2.5h-15v26h380l271 -371v294q0 21 -20 35.5t-48 14.5h-20v27h206v-27h-30q-15 0 -25 -5.5t-15 -12t-7.5 -24.5t-3 -31.5t-0.5 -42.5v-5v-545h-168l-404 556v-434q0 -95 58 -95h32
v-27z" />
    <glyph glyph-name="O" unicode="O" horiz-adv-x="833" 
d="M349 553v-465q0 -32 17.5 -54t49.5 -22q34 0 51 21.5t17 54.5v465q0 26 -1.5 42.5t-7 39t-20.5 34.5t-39 12q-23 0 -37.5 -12t-20.5 -34t-7.5 -39.5t-1.5 -42.5zM416 708q162 0 277.5 -102t115.5 -259q0 -158 -113 -260t-280 -102q-169 0 -280.5 106.5t-111.5 255.5
q0 108 55.5 191.5t144 126.5t192.5 43z" />
    <glyph glyph-name="P" unicode="P" horiz-adv-x="833" 
d="M477 0h-472v27h78v639h-76v27h514q148 0 217.5 -60t69.5 -143q0 -85 -69.5 -145.5t-217.5 -60.5h-137v-257h93v-27zM384 666v-355h38q72 0 72 111v144q0 41 -18 70.5t-60 29.5h-32z" />
    <glyph glyph-name="Q" unicode="Q" horiz-adv-x="833" 
d="M343 553v-424q36 19 70 19q38 0 68 -32v437q0 26 -1.5 42.5t-7 39t-20.5 34.5t-39 12t-39 -12t-21 -34.5t-8 -39.5t-2 -42zM413 127q-28 0 -46.5 -15t-18.5 -38q0 -28 18 -45t42 -17q31 0 50.5 15.5t15.5 44.5q-3 22 -20.5 38.5t-40.5 16.5zM413 708q162 0 277.5 -102
t115.5 -259q0 -123 -70 -213.5t-185 -126.5q47 -73 121 -73q35 0 65 17t44 47l26 -10q-19 -42 -35 -71t-42 -63t-60 -51.5t-74 -17.5q-62 0 -96.5 50.5t-23.5 154.5q-11 -2 -31 -4q-10 -1 -32 -1q-169 0 -280.5 106.5t-111.5 255.5q0 108 55.5 191.5t144 126.5t192.5 43z
" />
    <glyph glyph-name="R" unicode="R" horiz-adv-x="889" 
d="M377 666v-277h38q39 0 55 24.5t16 108.5v62q0 32 -17.5 57t-46.5 25h-45zM79 27v639h-74v27h517q144 0 211.5 -48t67.5 -120q0 -39 -18 -69t-49 -46.5t-64 -25.5t-70 -11v-10q94 -10 142.5 -64.5t48.5 -145.5q0 -28 0.5 -38.5t2.5 -27.5t8 -23t16 -6q18 0 45 38l27 -15
q-59 -96 -200 -96q-99 0 -153.5 48.5t-55.5 145.5q0 83 -7.5 121.5t-20 48.5t-41.5 10h-35v-332h84v-27h-459v27h77z" />
    <glyph glyph-name="S" unicode="S" 
d="M309 519l204 -104q50 -26 84.5 -82.5t34.5 -123.5q0 -61 -26 -106.5t-70.5 -70t-95 -36t-108.5 -11.5q-73 0 -160 47l-108 -47h-25l-7 248h32q41 -96 114.5 -158.5t169.5 -62.5q37 0 66.5 16.5t29.5 50.5q0 37 -28 59t-74 42q-5 2 -8 3l-76 34q-219 98 -219 261
q0 107 68.5 168.5t176.5 61.5q75 0 160 -41l108 41h23l8 -229h-27q-41 88 -110 145t-158 57q-32 0 -58.5 -17t-26.5 -48q0 -15 6 -28t20.5 -24t24 -17t30 -16t25.5 -12z" />
    <glyph glyph-name="T" unicode="T" horiz-adv-x="778" 
d="M231 27v639q-135 -12 -186 -228h-31l5 255h732l5 -255h-31q-51 216 -186 228v-639h91v-27h-491v27h92z" />
    <glyph glyph-name="U" unicode="U" horiz-adv-x="778" 
d="M5 666v27h465v-27h-83v-528q0 -50 32 -75t86 -25q73 0 109 45.5t36 170.5v294q0 69 -14 93.5t-50 24.5h-26v27h206v-27h-33q-23 0 -35.5 -26.5t-12.5 -96.5v-357q0 -114 -102 -168q-62 -33 -188 -33q-71 0 -157 18q-30 6 -53 17t-47.5 32t-38 60t-13.5 92v462h-81z" />
    <glyph glyph-name="V" unicode="V" horiz-adv-x="833" 
d="M60 666h-53v27h449v-27h-69l164 -421l135 327q10 30 10.5 48t-10 28.5t-20 14t-19.5 3.5h-24v27h194v-27h-24q-13 0 -33 -21t-30 -47l-239 -598h-162z" />
    <glyph glyph-name="W" unicode="W" horiz-adv-x="1000" 
d="M28 666h-26v27h361v-27h-33l105 -385l50 169l-56 216h-35v27h377v-27h-49l90 -378h2l88 312q10 34 -1.5 50t-35.5 16h-22v27h152v-27q-22 -5 -33.5 -17t-17.5 -35l-175 -614h-167l-101 385l-109 -385h-167z" />
    <glyph glyph-name="X" unicode="X" horiz-adv-x="889" 
d="M301 0h-287v27h26q54 0 118 81l146 187l-241 371h-49v27h470v-27h-73l132 -200l73 94q26 34 23.5 57.5t-20 36t-43.5 12.5h-32v27h280v-27h-32q-25 0 -61.5 -26t-67.5 -66l-103 -134l269 -413h39v-27h-463v27h75l-157 242l-107 -142q-19 -25 -19 -58q0 -22 17.5 -32
t40.5 -10h46v-27z" />
    <glyph glyph-name="Y" unicode="Y" horiz-adv-x="889" 
d="M66 666h-54v27h469v-27h-71l180 -298h6l118 206q16 28 17 47.5t-10 28.5t-22 12.5t-24 3.5h-27v27h222v-27h-17q-47 0 -105 -100l-142 -244v-295h91v-27h-486v27h88v251z" />
    <glyph glyph-name="Z" unicode="Z" horiz-adv-x="722" 
d="M56 693h627v-31l-323 -635h58q77 0 142 59.5t90 178.5h33l-8 -265h-647v38l318 628h-34q-88 0 -151 -62t-88 -155h-29z" />
    <glyph glyph-name="bracketleft" unicode="[" horiz-adv-x="389" 
d="M342 -220h-294v928h291v-39h-127v-850h130v-39z" />
    <glyph glyph-name="backslash" unicode="\" horiz-adv-x="278" 
d="M-107 708h140l352 -708h-140z" />
    <glyph glyph-name="bracketright" unicode="]" horiz-adv-x="389" 
d="M342 -220h-294v39h130v850h-127v39h291v-928z" />
    <glyph glyph-name="asciicircum" unicode="^" horiz-adv-x="600" 
d="M164 284l-104 47l180 377h120l180 -377l-104 -47l-136 279z" />
    <glyph glyph-name="underscore" unicode="_" horiz-adv-x="500" 
d="M500 -125h-500v50h500v-50z" />
    <glyph glyph-name="grave" unicode="`" horiz-adv-x="333" 
d="M179 511l-118 70q-35 21 -48 38t-13 42q0 20 19 33.5t39 13.5q16 0 29 -3.5t26.5 -16t18.5 -17t20 -26t17 -23.5l82 -111h-72z" />
    <glyph glyph-name="a" unicode="a" 
d="M361 268v131q0 35 -11.5 48t-45.5 13q-40 0 -40 -11q0 -3 18.5 -23t18.5 -47q0 -80 -133 -80q-43 0 -76.5 19.5t-33.5 59.5q0 109 249 109q104 0 180 -19q54 -12 81 -39t27 -80v-268q0 -24 17 -24q5 0 10 1t9.5 5t7 5.5t8 7.5t6.5 7v-35q-54 -63 -156 -63q-47 0 -78.5 15
t-49.5 54q-63 -69 -194 -69q-64 0 -110 30t-46 92q0 129 175 153q59 8 118 8h49zM361 144v100h-36q-11 0 -20 -3.5t-14.5 -8t-9.5 -14t-6 -15.5t-3 -19t-1 -19v-20v-18q0 -19 0.5 -26.5t3.5 -24.5t11.5 -24.5t22.5 -7.5q19 0 31 9t16 29t4.5 29t0.5 33z" />
    <glyph glyph-name="b" unicode="b" 
d="M58 669h-53v24q78 0 180.5 7.5t110.5 7.5v-295q61 74 142 74q98 0 152 -76t54 -178q0 -103 -54.5 -175.5t-154.5 -72.5q-54 0 -88.5 22.5t-60.5 70.5h-2v-91q-1 0 -113.5 6.5t-165.5 6.5v24h53v645zM296 318v-156q0 -55 15.5 -86.5t39.5 -31.5q20 0 28.5 25t8.5 93v156
q0 76 -9 93q-9 15 -27 15q-26 0 -41 -28.5t-15 -79.5z" />
    <glyph glyph-name="c" unicode="c" horiz-adv-x="611" 
d="M563 146l23 -12q-65 -149 -265 -149q-137 0 -221 67t-84 182q0 82 48 141.5t117.5 85.5t150.5 26q134 0 192.5 -46.5t58.5 -115.5q0 -50 -31.5 -80.5t-81.5 -30.5q-44 0 -75.5 29t-31.5 73q0 39 18.5 62t55.5 41q16 8 16 13q0 13 -23.5 20t-39.5 7q-20 0 -33 -2t-28 -8
t-22 -17.5t-16 -31.5t-10.5 -48.5t-4 -69.5t2.5 -94q2 -30 4 -48.5t9 -43t18 -38.5t32.5 -24t50.5 -10q112 0 170 122z" />
    <glyph glyph-name="d" unicode="d" 
d="M363 162v156q0 51 -15 79.5t-41 28.5q-13 0 -21 -6.5t-11 -22.5t-3.5 -29t-0.5 -41v-9v-156q0 -68 8.5 -93t28.5 -25q24 0 39.5 31.5t15.5 86.5zM602 24h53v-24q-52 0 -148.5 -6t-131.5 -7v91q-28 -49 -63.5 -71t-90.5 -22q-96 0 -150.5 74t-54.5 174q0 103 54 178.5
t153 75.5q85 0 140 -74v256h-81v24q59 0 168 7t152 8v-684z" />
    <glyph glyph-name="e" unicode="e" horiz-adv-x="611" 
d="M588 205h-322v-42q0 -69 22 -106t86 -37q53 0 101 29.5t82 75.5l19 -13q-88 -127 -252 -127q-101 0 -164 27q-146 62 -146 224q0 116 82 183.5t201 67.5q132 0 212 -75.5t79 -206.5zM266 229h86v138q0 3 0.5 16t0 19t-1.5 17.5t-4 17.5t-8 13t-13 10t-19 3q-7 0 -13.5 -2
t-10.5 -6.5t-7 -9t-5 -12.5t-3 -13t-1.5 -14.5t-0.5 -13.5v-13.5v-11.5v-138z" />
    <glyph glyph-name="f" unicode="f" horiz-adv-x="389" 
d="M65 450h-56v30h57q-3 101 55.5 169.5t158.5 68.5q51 0 89 -25t38 -74q0 -37 -23.5 -59.5t-61.5 -22.5q-31 0 -54 20.5t-23 51.5q0 39 47 66q-4 10 -12 10q-37 0 -59 -27t-22 -65q0 -43 26.5 -70t61.5 -36t76 -7v-30h-60v-426h56v-24h-350v24h56v426z" />
    <glyph glyph-name="g" unicode="g" horiz-adv-x="611" 
d="M343 252v144q0 41 -11.5 55t-34.5 14q-45 0 -45 -69v-144q0 -26 12.5 -37.5t29.5 -11.5q27 0 38 11.5t11 37.5zM317 186h-131q-42 0 -42 -27q0 -31 96 -31h165q79 0 130 -39.5t51 -118.5q0 -80 -70 -135t-228 -55q-75 0 -130.5 10.5t-83 27t-39.5 33t-12 32.5
q0 26 21.5 41t44 18.5t48.5 2.5l2 2q-47 14 -80.5 45t-33.5 75q0 59 36.5 91.5t97.5 39.5v2q-54 16 -88 51.5t-34 87.5q0 42 25.5 72.5t66.5 46t80.5 22.5t77.5 7q48 0 96 -6q17 41 52.5 70.5t76.5 29.5q34 0 58.5 -16.5t24.5 -49.5q0 -59 -66 -59q-20 0 -36.5 13.5
t-16.5 32.5q0 6 3 18l3 12q-2 7 -7 7q-19 0 -38 -21t-25 -42q65 -20 104.5 -53.5t39.5 -92.5q0 -144 -239 -144zM366 -77q-148 0 -200 15q-10 3 -20.5 -19t-10.5 -35q0 -75 141 -75q26 0 57 2.5t73.5 9t70.5 23t28 39.5q0 16 -6 23t-36.5 12t-96.5 5z" />
    <glyph glyph-name="h" unicode="h" horiz-adv-x="722" 
d="M308 236v-212h35v-24h-331v24h55v645h-53v24q54 0 154.5 7t139.5 8v-317q28 45 75 70.5t100 25.5q163 0 163 -178v-285h53v-24h-329v24h35v290v11v14t-0.5 14.5t-1.5 15t-2.5 13.5t-4 13t-6.5 10t-9 7t-12 2q-61 0 -61 -178z" />
    <glyph glyph-name="i" unicode="i" horiz-adv-x="389" 
d="M368 0h-354v24h55v425h-53v24q57 0 161 5.5t138 6.5v-461h53v-24zM190 718q134 0 134 -99q0 -51 -40 -74.5t-94 -23.5t-94 23.5t-40 74.5q0 99 134 99z" />
    <glyph glyph-name="j" unicode="j" horiz-adv-x="444" 
d="M368 485v-344q0 -12 0.5 -48.5t0 -52.5t-2.5 -48t-8 -51t-16 -43t-26.5 -43t-39.5 -34q-60 -41 -141 -41q-50 0 -92.5 26.5t-42.5 73.5q0 36 23 59t59 23q35 0 59.5 -20.5t24.5 -54.5q0 -21 -12 -36t-24.5 -22.5t-12.5 -9.5q0 -12 19 -12q36 0 59.5 27.5t23.5 64.5
q0 43 -24 72.5t-65 36.5v441h-86v24q62 0 175 5.5t149 6.5zM243 718q134 0 134 -99q0 -51 -40 -74.5t-94 -23.5t-94 23.5t-40 74.5q0 99 134 99z" />
    <glyph glyph-name="k" unicode="k" 
d="M322 0h-317v24h48v645h-48v24q51 0 145 7t132 8v-473l79 68q83 73 83 108q0 20 -20 29t-40 9h-25v24h278v-24h-26q-47 0 -154 -88l191 -337h14v-24h-308v24h41l-99 189l-14 -10v-179h40v-24z" />
    <glyph glyph-name="l" unicode="l" horiz-adv-x="389" 
d="M370 0h-354v24h56v645h-58v24q56 0 158 7t142 8v-684h56v-24z" />
    <glyph glyph-name="m" unicode="m" horiz-adv-x="1000" 
d="M67 449h-55v24q52 0 148 5.5t126 6.5v-103q75 105 176 105q52 0 91 -25.5t50 -74.5q27 42 75 71t96 29q86 0 120.5 -45.5t34.5 -154.5v-263h55v-24h-317v24h30v294q0 1 0.5 19.5t0 26.5t-3.5 22t-10.5 20t-19.5 6q-22 0 -36 -29.5t-14 -66.5v-292h30v-24h-292v24h30v298
v8q0 23 -0.5 33.5t-3 24t-9.5 19t-18 5.5q-23 0 -37.5 -27.5t-14.5 -60.5v-300h27v-24h-314v24h55v425z" />
    <glyph glyph-name="n" unicode="n" horiz-adv-x="722" 
d="M308 485v-94q28 45 75 70.5t100 25.5q77 0 119.5 -41.5t42.5 -143.5v-278h54v-24h-329v24h35v302q0 4 0.5 17t0.5 20t-2 18.5t-5.5 17t-11 10.5t-18.5 5q-29 0 -45 -32t-16 -63v-295h35v-24h-331v24h55v425h-53v24q56 0 158.5 5.5t135.5 6.5z" />
    <glyph glyph-name="o" unicode="o" 
d="M280 387v-300q0 -17 0.5 -24t2.5 -20t7 -18.5t15 -10.5t25 -5q11 0 19.5 2t13.5 7l8.5 8.5t4.5 13t1.5 14t0 17t-0.5 16.5v300q0 18 -1 27.5t-5 23t-14 19.5t-27 6q-22 0 -33.5 -13t-14 -27t-2.5 -36zM330 487q130 0 211 -57q45 -31 72.5 -82.5t27.5 -105.5
q0 -117 -90 -193q-76 -64 -221 -64t-221 64q-90 76 -90 193q0 54 27.5 105.5t72.5 82.5q81 57 211 57z" />
    <glyph glyph-name="p" unicode="p" 
d="M296 318v-156q0 -55 15.5 -86.5t39.5 -31.5q20 0 28.5 25t8.5 93v156q0 76 -9 93q-9 15 -27 15q-26 0 -41 -28.5t-15 -79.5zM58 449h-53v24q53 0 150.5 5.5t128.5 6.5v-91q31 49 65.5 71t89.5 22q96 0 150.5 -75t54.5 -174q0 -104 -54 -178.5t-154 -74.5q-83 0 -140 73
v-254h74v-24h-365v24h53v645z" />
    <glyph glyph-name="q" unicode="q" 
d="M602 449v-645h53v-24h-366v24h74v254q-48 -72 -140 -72q-67 0 -115.5 37t-70 93t-21.5 122q0 100 54.5 174.5t150.5 74.5q55 0 88.5 -21.5t65.5 -71.5v91q31 -1 129 -6.5t151 -5.5v-24h-53zM363 162v156q0 51 -15 79.5t-41 28.5q-13 0 -21 -6.5t-11 -22.5t-3.5 -29
t-0.5 -41v-9v-156q0 -68 8.5 -93t28.5 -25q24 0 39.5 31.5t15.5 86.5z" />
    <glyph glyph-name="r" unicode="r" horiz-adv-x="611" 
d="M67 449h-53v24q55 0 156 5.5t133 6.5v-101h2q54 99 161 99q53 0 91 -30t38 -81q0 -52 -32.5 -84.5t-84.5 -32.5q-50 0 -81 30t-31 80q0 25 6 47q-10 16 -26.5 -5.5t-21.5 -36.5q-4 -11 -6.5 -22t-3.5 -25t-1 -20.5v-25.5v-23v-230h71v-24h-370v24h53v425z" />
    <glyph glyph-name="s" unicode="s" horiz-adv-x="500" 
d="M23 168h19q27 -64 95.5 -111.5t136.5 -47.5q69 0 69 43q0 14 -8 25t-26.5 20t-34 15t-45.5 15.5t-46 15.5q-35 13 -59.5 26t-49.5 34t-38 52t-13 70q0 74 55 118t131 44q50 0 139 -30l78 30h22l6 -171h-23q-27 60 -83 103.5t-118 43.5q-59 0 -59 -47q0 -7 3 -14t10 -12.5
t12.5 -9.5t16.5 -8.5t15 -6.5t16 -6t13 -4l107 -39q52 -19 82.5 -62t30.5 -100q0 -90 -64 -135q-50 -34 -148 -34q-19 0 -39.5 5t-46.5 14t-40 13l-82 -32h-27z" />
    <glyph glyph-name="t" unicode="t" horiz-adv-x="444" 
d="M287 649h19v-176h113v-24h-113v-353q0 -39 12 -47q7 -4 16 -4q23 0 41 23.5t25 48t10 49.5h22q-7 -100 -62 -140.5t-158 -40.5q-90 0 -120.5 33t-30.5 131v300h-59v24q89 0 162 47.5t123 128.5z" />
    <glyph glyph-name="u" unicode="u" horiz-adv-x="722" 
d="M701 24v-24q-54 0 -153.5 -6t-134.5 -7v94q-63 -96 -183 -96q-85 0 -124 41t-39 151v272h-53v24q56 0 158.5 5.5t135.5 6.5v-393q0 -40 36 -40q23 0 37.5 20t19 42t4.5 44v291h-53v24q56 0 158 5.5t135 6.5v-461h56z" />
    <glyph glyph-name="v" unicode="v" 
d="M-1 449v24h371v-24h-64l137 -299l93 212q15 43 4 65t-33 22h-23v24h176v-24q-32 0 -51.5 -18t-34.5 -53l-165 -378h-153l-206 449h-51z" />
    <glyph glyph-name="w" unicode="w" horiz-adv-x="1000" 
d="M16 449v24h329v-24h-32l126 -316l45 117l-74 199h-44v24h340v-24h-56l119 -309l87 226q14 33 11.5 51.5t-9.5 24.5t-17 6h-19v25h153v-24q-21 0 -36 -7.5t-26.5 -25t-16.5 -28.5t-14 -35l-135 -353h-166l-82 211l-81 -211h-175l-177 449h-50z" />
    <glyph glyph-name="x" unicode="x" 
d="M252 0h-253v24q26 8 50.5 21.5t50 35t40 34.5t43.5 43.5t38 39.5l-176 251h-46v24h378v-24h-49l94 -136l60 55q25 22 16.5 51.5t-43.5 29.5h-22v24h229v-24h-15q-31 0 -71 -35l-137 -123l189 -267h34v-24h-359v24h41l-107 153l-51 -51q-36 -36 -36 -57t25 -33t49 -12h28
v-24z" />
    <glyph glyph-name="y" unicode="y" horiz-adv-x="722" 
d="M478 220l92 154q16 27 8.5 43.5t-20 24t-22.5 7.5h-13v24h174v-24q-48 0 -100 -89l-213 -359q-61 -101 -98 -144q-69 -77 -151 -77q-49 0 -83 30.5t-34 78.5q0 38 29 63t68 25q37 0 64 -21.5t27 -58.5q0 -31 -22 -51q-3 -3 -10 -8t-9.5 -8t-2.5 -7q0 -9 13 -9q30 0 73 39
q35 30 99 140l-278 456h-55v24h382v-24h-58z" />
    <glyph glyph-name="z" unicode="z" horiz-adv-x="611" 
d="M58 294l5 179h513v-24l-276 -425h45q150 0 208 164h26l-11 -188h-547v24l275 425h-39q-46 0 -96.5 -37.5t-80.5 -117.5h-22z" />
    <glyph glyph-name="braceleft" unicode="{" horiz-adv-x="389" 
d="M291 91v-189q0 -52 16.5 -80t58.5 -40v-2q-44 0 -79 2t-61.5 5t-46.5 10.5t-33.5 13.5t-22.5 18.5t-14 21t-7 27t-2.5 30.5t-0.5 35v178q0 55 -15 81t-60 38v2q42 11 58.5 38.5t16.5 80.5v202q0 67 18 95t71.5 39t177.5 11v-3q-43 -14 -59 -40.5t-16 -80.5v-205
q0 -61 -17 -93.5t-65 -43.5v-2q48 -13 65 -44.5t17 -104.5z" />
    <glyph glyph-name="bar" unicode="|" horiz-adv-x="278" 
d="M79 -250v1000h119v-1000h-119z" />
    <glyph glyph-name="braceright" unicode="}" horiz-adv-x="389" 
d="M98 -98v189q0 73 17 104.5t65 44.5v2q-48 11 -65 43.5t-17 93.5v205q0 54 -16 80.5t-59 40.5v3q124 0 177.5 -11t71.5 -39t18 -95v-202q0 -53 16.5 -80.5t58.5 -38.5v-2q-45 -12 -60 -38t-15 -81v-178q0 -23 -0.5 -35t-2.5 -30.5t-7 -27t-14 -21t-22.5 -18.5t-33.5 -13.5
t-46.5 -10.5t-61.5 -5t-79 -2v2q42 12 58.5 40t16.5 80z" />
    <glyph glyph-name="asciitilde" unicode="~" horiz-adv-x="600" 
d="M488 359l64 -73q-20 -31 -28 -42.5t-27.5 -34t-41 -31.5t-47.5 -9q-51 0 -115 33t-94 33q-11 0 -21.5 -4.5t-17 -9t-15 -15.5t-12 -16t-11.5 -19.5t-10 -17.5l-64 74q67 124 149 124q41 0 115 -33q76 -33 95 -33q12 0 22 4t19 14t14.5 16.5t14 21t11.5 18.5z" />
    <glyph glyph-name="uni00A0" unicode="&#xa0;" horiz-adv-x="333" 
 />
    <glyph glyph-name="exclamdown" unicode="&#xa1;" horiz-adv-x="389" 
d="M179 251h31q0 -13 1 -25t5 -25t6 -22t9.5 -23t10 -20.5t12.5 -22t12.5 -19.5t14 -22t13.5 -20q46 -69 46 -134q0 -62 -42 -100t-105 -38q-61 0 -102.5 38t-41.5 100q0 65 46 134q3 4 12.5 18t12.5 19t11.5 18t11.5 19.5t9.5 19t9.5 20t7 19.5t5.5 21.5t3 21.5t1.5 23z
M195 505q59 0 101.5 -29.5t42.5 -86.5t-42 -86.5t-102 -29.5t-102.5 29.5t-42.5 86.5t42.5 86.5t102.5 29.5z" />
    <glyph glyph-name="cent" unicode="&#xa2;" 
d="M400 283l-86 -155q4 -52 33 -78t73 -26q57 0 103.5 34t69.5 88l23 -12q-68 -149 -264 -149q-47 0 -106 13l-78 -146h-43l84 156q-71 23 -117 84.5t-46 141.5q0 82 48 141.5t117.5 85.5t150.5 26q49 0 99 -10l69 129h44l-75 -140q114 -38 114 -141q0 -50 -31.5 -80.5
t-81.5 -30.5q-36 0 -63.5 19t-36.5 50zM309 192l99 182q19 35 60 46q12 3 16.5 8.5t1.5 11t-12 8.5q-34 12 -64 12q-45 0 -65.5 -20t-31.5 -72q-4 -21 -5.5 -78.5t1.5 -97.5z" />
    <glyph glyph-name="sterling" unicode="&#xa3;" 
d="M134 323h-111v45h92q-37 60 -37 132q0 69 40.5 118t98.5 69.5t125 20.5q71 0 125 -16t82.5 -41.5t42.5 -52t14 -52.5q0 -51 -30 -78.5t-81 -27.5q-42 0 -69 24t-27 66q0 40 18 59.5t51 34.5q10 5 14.5 8.5t3.5 6.5q-6 32 -72 32q-47 0 -69.5 -33t-22.5 -108q0 -29 12 -83
t13 -79h134v-44h-134q-11 -111 -65 -172q53 17 104 17q36 0 86 -9q66 -12 100 8q24 14 32 46h28q-2 -100 -51 -164.5t-145 -64.5q-41 0 -83.5 14.5t-69 29.5t-71.5 45q-4 3 -6 0t-6 -15q-26 -74 -98 -74q-37 0 -59.5 22.5t-22.5 59.5q0 43 27.5 66t72.5 23q21 0 63 -12
q1 71 -49 179z" />
    <glyph glyph-name="currency" unicode="&#xa4;" 
d="M53 119l49 48q-41 73 -41 142q0 78 41 144l-49 48l87 88l49 -49q68 42 142 42q82 0 148 -42l49 49l85 -88l-49 -48q42 -66 42 -143q0 -84 -42 -143l49 -48l-85 -87l-49 48q-73 -43 -142 -43q-83 0 -148 43l-49 -48zM334 196q47 0 80 34t33 80t-33 79.5t-80 33.5
q-48 0 -81 -33.5t-33 -79.5t33 -80t81 -34z" />
    <glyph glyph-name="yen" unicode="&#xa5;" 
d="M491 161v-134h74v-27h-392v27h71v134h-71v44h71v36h-71v44h67l-185 381h-43v27h379v-27h-58l146 -298h4l96 206q13 28 13.5 47.5t-8 28.5t-18 12.5t-19.5 3.5h-22v27h180v-27h-14q-38 0 -85 -100l-115 -244v-37h74v-44h-74v-36h74v-44h-74z" />
    <glyph glyph-name="brokenbar" unicode="&#xa6;" horiz-adv-x="278" 
d="M79 -175v350h119v-350h-119zM79 325v350h119v-350h-119z" />
    <glyph glyph-name="section" unicode="&#xa7;" horiz-adv-x="611" 
d="M385 264l-108 56q-38 19 -72 19q-16 0 -30 -10.5t-14 -26.5q0 -7 11 -17.5t29.5 -21.5t34.5 -20t33.5 -18t19.5 -10q92 -52 133 -52q44 0 44 27q0 18 -18.5 35t-62.5 39zM254 553q159 -82 208 -115q53 -36 77 -70.5t24 -86.5q0 -41 -22.5 -77.5t-59.5 -51.5
q-33 -13 -33 -18q0 -4 17 -18.5t37 -32t37 -50t17 -69.5q0 -74 -63.5 -126t-200.5 -52q-33 0 -69 7t-72 21.5t-59 41.5t-23 63q0 29 20.5 48t50.5 19q31 0 52 -19t21 -49q0 -16 -12 -37t-12 -26q0 -17 42 -29.5t66 -12.5q129 0 129 68q0 20 -6 29q-25 32 -192 112
q-101 48 -140 90t-39 103q0 103 124 140q24 7 3 21q-106 69 -106 163q0 82 68 125.5t180 43.5q100 0 156 -35q63 -38 63 -92q0 -30 -19.5 -47.5t-49.5 -17.5q-27 0 -46 18t-19 45q0 26 13.5 45t13.5 20q0 10 -16 20q-37 19 -95 19q-24 0 -52 -4.5t-55.5 -20.5t-27.5 -40
q0 -7 2.5 -13.5t7.5 -12t9.5 -10t12.5 -9.5t12.5 -7.5t14 -7t11.5 -5.5z" />
    <glyph glyph-name="dieresis" unicode="&#xa8;" horiz-adv-x="333" 
d="M57 708q32 0 55 -23t23 -55t-23 -55.5t-55 -23.5t-55 23.5t-23 55.5t23 55t55 23zM277 708q32 0 55 -23t23 -55t-23 -55.5t-55 -23.5t-55 23.5t-23 55.5t23 55t55 23z" />
    <glyph glyph-name="copyright" unicode="&#xa9;" horiz-adv-x="800" 
d="M396 -15q-145 0 -248.5 107.5t-103.5 255.5q0 149 103 254.5t250 105.5q150 0 254.5 -104t104.5 -256t-105.5 -257.5t-254.5 -105.5zM397 648q-120 0 -206.5 -89t-86.5 -210q0 -126 87.5 -215t210.5 -89q120 0 207 91t87 213q0 124 -88 211.5t-211 87.5zM494 513l20 19
h20v-99h-18q-19 43 -44.5 67t-70.5 24q-31 0 -45 -10t-21 -45t-7 -110q0 -110 11 -141t63 -31q88 0 120 95h21v-105h-23l-20 19q-49 -27 -95 -27q-80 0 -136.5 55t-56.5 135q0 56 56.5 118.5t130.5 62.5q55 0 95 -27z" />
    <glyph glyph-name="ordfeminine" unicode="&#xaa;" horiz-adv-x="400" 
d="M184 577h32v78q0 21 -7.5 29t-29.5 8q-26 0 -26 -7q0 -1 12 -13.5t12 -28.5q0 -48 -87 -48q-28 0 -49.5 11.5t-21.5 36.5q0 65 162 65q68 0 117 -11q35 -7 52.5 -23.5t17.5 -48.5v-160q0 -15 11 -15q9 0 27 16v-21q-35 -38 -102 -38q-62 0 -83 41q-40 -41 -126 -41
q-42 0 -71.5 18t-29.5 55q0 78 113 92q36 5 77 5zM216 502v60h-23q-7 0 -13 -2t-10 -4.5t-6.5 -8.5t-4 -9.5t-2 -11.5t-0.5 -11v-12v-11q0 -50 25 -50q13 0 20.5 5.5t10 17.5t3 17.5t0.5 19.5z" />
    <glyph glyph-name="guillemotleft" unicode="&#xab;" horiz-adv-x="556" 
d="M289 402l-116 -162l121 -160h-123l-119 160l117 162h120zM500 402l-116 -162l121 -160h-123l-119 160l117 162h120z" />
    <glyph glyph-name="logicalnot" unicode="&#xac;" horiz-adv-x="600" 
d="M436 120v176h-388v116h504v-292h-116z" />
    <glyph glyph-name="uni00AD" unicode="&#xad;" horiz-adv-x="333" 
d="M307 164h-281v153h281v-153z" />
    <glyph glyph-name="registered" unicode="&#xae;" horiz-adv-x="800" 
d="M396 -15q-145 0 -248.5 107.5t-103.5 255.5q0 149 103 254.5t250 105.5q150 0 254.5 -104t104.5 -256t-105.5 -257.5t-254.5 -105.5zM397 648q-120 0 -206.5 -89t-86.5 -210q0 -126 87.5 -215t210.5 -89q120 0 207 91t87 213q0 124 -88 211.5t-211 87.5zM407 193v-16
h-183v16h44v325h-45v17h221q47 0 80.5 -22t33.5 -65q0 -39 -38.5 -58t-86.5 -23v-2q59 -10 84.5 -32.5t25.5 -61.5q0 -61 11 -72q9 -9 43 -1l3 -12q-32 -16 -65 -16q-51 0 -71 24.5t-22 86.5q0 48 -11.5 63t-46.5 15h-24v-166h47zM360 518v-142h23q44 0 58.5 9.5t14.5 37.5
v52v9v8.5t-1 7t-3 6.5t-6 5t-10 4t-15 2t-21 1h-40z" />
    <glyph glyph-name="macron" unicode="&#xaf;" horiz-adv-x="333" 
d="M344 617h-353v91h353v-91z" />
    <glyph glyph-name="degree" unicode="&#xb0;" horiz-adv-x="400" 
d="M350 558q0 -62 -44 -106t-106 -44t-106 44t-44 106q-1 62 43.5 106t106.5 44t106 -44t44 -106zM279 558q0 32 -23.5 55.5t-56.5 23.5t-56 -23.5t-22 -55.5q0 -33 22.5 -56t56.5 -23q32 0 55.5 23t23.5 56z" />
    <glyph glyph-name="plusminus" unicode="&#xb1;" horiz-adv-x="600" 
d="M358 150h-116v198h-194v116h194v191h116v-191h194v-116h-194v-198zM48 116h504v-116h-504v116z" />
    <glyph glyph-name="twosuperior" unicode="&#xb2;" horiz-adv-x="400" 
d="M23 274h-20q-1 33 8.5 60.5t36.5 55.5t40.5 39t54.5 42q37 28 53.5 55t16.5 69q0 39 -20 65.5t-59 26.5q-15 0 -32.5 -5t-17.5 -15q0 -5 5 -5q27 -1 45 -18.5t18 -42.5q0 -28 -20.5 -44t-50.5 -16q-31 0 -51 19.5t-20 47.5q0 48 49.5 74t120.5 26q109 0 157.5 -37
t48.5 -87q0 -52 -35 -79.5t-137 -52.5q-68 -15 -92 -28q-57 -27 -57 -51q0 -6 8 -6q3 0 7.5 2.5t13 7t17.5 8.5q44 18 98 18q29 0 79 -8q47 -7 65.5 0t23.5 30h19q-1 -74 -50 -117q-38 -34 -122 -34q-30 0 -94 15q-42 11 -65 11q-36 0 -42 -26z" />
    <glyph glyph-name="threesuperior" unicode="&#xb3;" horiz-adv-x="400" 
d="M165 487h-24q-13 0 -13 8q0 10 13 10h26q48 0 48 61v30q0 26 -3 44t-18.5 34t-43.5 16q-10 0 -28.5 -6t-18.5 -14q0 -1 17 -10q36 -16 36 -53q0 -27 -19 -42t-50 -15q-28 0 -47.5 18t-19.5 44q0 27 17 47t44.5 30t54.5 14.5t54 4.5q41 0 81 -9.5t73.5 -35.5t33.5 -65
q0 -30 -21.5 -53t-63.5 -35q-36 -7 -36 -10t5.5 -4.5t12.5 -2.5t9 -2q108 -24 108 -100q0 -117 -207 -117q-177 0 -177 99q0 30 20.5 48t53.5 18q31 0 50.5 -17t19.5 -45q0 -33 -26 -51q-4 -3 -9.5 -6t-8.5 -5t-5 -4.5t-2 -5.5q2 -13 42 -13t57 24.5t17 84.5q0 55 -12 70.5
t-40 15.5z" />
    <glyph glyph-name="acute" unicode="&#xb4;" horiz-adv-x="333" 
d="M272 581l-118 -70h-72l82 111q4 5 14.5 20t15.5 21t15.5 17t18.5 15.5t20.5 8.5t26.5 4q20 0 39 -13.5t19 -33.5q0 -25 -13 -42t-48 -38z" />
    <glyph glyph-name="mu" unicode="&#xb5;" horiz-adv-x="722" 
d="M701 24v-24q-54 0 -153.5 -6t-134.5 -7v94q-29 -45 -70 -70t-65 -21q-30 5 -4 -49q2 -4 4 -9q1 -1 6 -10.5t7.5 -15t5 -15.5t1.5 -19q-3 -40 -34 -66t-78 -26q-49 0 -80.5 24.5t-28.5 69.5q3 46 31 74t12 46q-28 33 -40.5 71.5t-12.5 111.5v272h-53v24q56 0 158.5 5.5
t135.5 6.5v-393q0 -40 36 -40q23 0 37 20t18.5 41.5t4.5 44.5v291h-52v24q56 0 158 5.5t135 6.5v-461h56z" />
    <glyph glyph-name="paragraph" unicode="&#xb6;" horiz-adv-x="850" 
d="M708 708v-77h-69v-845h-84v845h-87v-845h-83v430q-91 0 -166.5 66.5t-75.5 180.5t75.5 179.5t166.5 65.5h323z" />
    <glyph glyph-name="periodcentered" unicode="&#xb7;" horiz-adv-x="333" 
d="M167 372q59 0 101.5 -29.5t42.5 -86.5t-42 -86.5t-102 -29.5t-102.5 29.5t-42.5 86.5t42.5 86.5t102.5 29.5z" />
    <glyph glyph-name="cedilla" unicode="&#xb8;" horiz-adv-x="333" 
d="M45 -205l17 44q42 -13 60 -13q53 0 53 37q0 16 -10 25.5t-27 9.5q-18 0 -26 -6l-17 9l47 99h46l-28 -62q15 5 39 5q37 0 63.5 -17.5t26.5 -53.5q0 -33 -23.5 -55t-53.5 -30.5t-62 -8.5q-57 0 -105 17z" />
    <glyph glyph-name="onesuperior" unicode="&#xb9;" horiz-adv-x="400" 
d="M342 283h-285v16h64v384h-59v16h111q16 0 34.5 1.5t41.5 4t35 3.5v-409h58v-16z" />
    <glyph glyph-name="ordmasculine" unicode="&#xba;" horiz-adv-x="400" 
d="M168 648v-180q0 -13 0.5 -18t3 -13.5t9.5 -12t19 -3.5q8 0 13.5 1t8.5 4.5t5 5.5t3 8t1 8v10v10v180q0 14 -1 22t-8.5 16t-21.5 8q-21 0 -26.5 -12.5t-5.5 -33.5zM200 708q85 0 137 -34q29 -19 47 -50t18 -63q0 -71 -58 -116q-50 -38 -144 -38t-144 38q-58 45 -58 116
q0 32 18 63t47 50q52 34 137 34z" />
    <glyph glyph-name="guillemotright" unicode="&#xbb;" horiz-adv-x="556" 
d="M383 240l-116 162h120l117 -162l-119 -160h-123zM172 240l-116 162h120l117 -162l-119 -160h-123z" />
    <glyph glyph-name="onequarter" unicode="&#xbc;" horiz-adv-x="1000" 
d="M520 113v26l257 286h92v-289h56v-23h-56v-97h53v-16h-265v16h54v97h-191zM711 321l-161 -178v-7h161v185zM360 283h-285v16h64v384h-59v16h111q16 0 34.5 1.5t41.5 4t35 3.5v-409h58v-16zM335 -15h-60l450 723h61z" />
    <glyph glyph-name="onehalf" unicode="&#xbd;" horiz-adv-x="1000" 
d="M360 283h-285v16h64v384h-59v16h111q16 0 34.5 1.5t41.5 4t35 3.5v-409h58v-16zM552 -15h-20q-1 27 8.5 52.5t18.5 41t34.5 39t35.5 31.5t43 33q37 28 53.5 55t16.5 69q0 39 -20 65.5t-59 26.5q-15 0 -32.5 -5t-17.5 -15q0 -5 5 -5q27 -1 45 -18.5t18 -42.5
q0 -28 -20.5 -44t-50.5 -16q-31 0 -51 19.5t-20 47.5q0 48 49.5 74t120.5 26q109 0 157.5 -37t48.5 -87q0 -52 -35 -79.5t-137 -52.5q-68 -15 -92 -28q-57 -27 -57 -51q0 -6 8 -6q3 0 7.5 2.5t13 7t17.5 8.5q44 18 98 18q29 0 79 -8q47 -7 65.5 0t23.5 30h19
q-1 -74 -50 -117q-38 -34 -122 -34q-30 0 -94 15q-42 11 -65 11q-36 0 -42 -26zM275 -15h-60l450 723h61z" />
    <glyph glyph-name="threequarters" unicode="&#xbe;" horiz-adv-x="1000" 
d="M520 113v26l257 286h92v-289h56v-23h-56v-97h53v-16h-265v16h54v97h-191zM711 321l-161 -178v-7h161v185zM355 -15h-60l450 723h61zM232 487h-24q-13 0 -13 8q0 10 13 10h26q48 0 48 61v30q0 26 -3 44t-18.5 34t-43.5 16q-10 0 -28.5 -6t-18.5 -14q0 -1 17 -10
q36 -16 36 -53q0 -27 -19 -42t-50 -15q-28 0 -47.5 18t-19.5 44q0 27 17 47t44.5 30t54.5 14.5t54 4.5q41 0 81 -9.5t73.5 -35.5t33.5 -65q0 -30 -21.5 -53t-63.5 -35q-36 -7 -36 -10t5.5 -4.5t12.5 -2.5t9 -2q108 -24 108 -100q0 -117 -207 -117q-177 0 -177 99
q0 30 20.5 48t53.5 18q31 0 50.5 -17t19.5 -45q0 -33 -26 -51q-4 -3 -9.5 -6t-8.5 -5t-5 -4.5t-2 -5.5q2 -13 42 -13t57 24.5t17 84.5q0 55 -12 70.5t-40 15.5z" />
    <glyph glyph-name="questiondown" unicode="&#xbf;" horiz-adv-x="611" 
d="M310 249h33q3 -30 -1.5 -58t-11.5 -45.5t-19 -43.5q-40 -84 -40 -152q0 -59 31 -96.5t89 -37.5q15 0 36 5t21 15q0 3 -2 5t-4 2t-5.5 0.5t-4.5 0.5q-6 1 -18 2t-21 4q-64 20 -64 97q0 49 36.5 78t85.5 29q52 0 90 -32t38 -84q0 -46 -26 -79t-69 -49t-84.5 -23t-84.5 -7
q-45 0 -90.5 8.5t-90.5 26.5t-73 54t-28 85q0 27 8.5 49.5t19.5 36.5t33 28t36.5 20.5t44.5 18.5t42 17q53 23 72.5 46.5t20.5 78.5zM322 505q59 0 101.5 -29.5t42.5 -86.5t-42 -86.5t-102 -29.5t-102.5 29.5t-42.5 86.5t42.5 86.5t102.5 29.5z" />
    <glyph glyph-name="Agrave" unicode="&#xc0;" horiz-adv-x="833" 
d="M366 258l-92 254l-91 -254h183zM199 0h-192v27h23q34 0 72 102l206 564h209l247 -666h55v-27h-444v27h72l-71 204h-202l-40 -107q-15 -37 -8.5 -58.5t19 -30t27.5 -8.5h27v-27zM429 751l-118 70q-35 21 -48 38t-13 42q0 20 19 33.5t39 13.5q16 0 29 -3.5t26.5 -16
t18.5 -17t20 -26t17 -23.5l82 -111h-72z" />
    <glyph glyph-name="Aacute" unicode="&#xc1;" horiz-adv-x="833" 
d="M366 258l-92 254l-91 -254h183zM199 0h-192v27h23q34 0 72 102l206 564h209l247 -666h55v-27h-444v27h72l-71 204h-202l-40 -107q-15 -37 -8.5 -58.5t19 -30t27.5 -8.5h27v-27zM522 821l-118 -70h-72l82 111q4 5 14.5 20t15.5 21t15.5 17t18.5 15.5t20.5 8.5t26.5 4
q20 0 39 -13.5t19 -33.5q0 -25 -13 -42t-48 -38z" />
    <glyph glyph-name="Acircumflex" unicode="&#xc2;" horiz-adv-x="833" 
d="M366 258l-92 254l-91 -254h183zM199 0h-192v27h23q34 0 72 102l206 564h209l247 -666h55v-27h-444v27h72l-71 204h-202l-40 -107q-15 -37 -8.5 -58.5t19 -30t27.5 -8.5h27v-27zM417 840l-105 -93h-80l122 181h125l121 -181h-79z" />
    <glyph glyph-name="Atilde" unicode="&#xc3;" horiz-adv-x="833" 
d="M366 258l-92 254l-91 -254h183zM199 0h-192v27h23q34 0 72 102l206 564h209l247 -666h55v-27h-444v27h72l-71 204h-202l-40 -107q-15 -37 -8.5 -58.5t19 -30t27.5 -8.5h27v-27zM561 928h55q-15 -65 -44.5 -105t-87.5 -40q-37 0 -95 27q-58 26 -71 26q-19 0 -32 -15
t-15 -34h-52q29 146 126 146q30 0 90 -25q56 -26 84 -26q15 0 26 14.5t16 31.5z" />
    <glyph glyph-name="Adieresis" unicode="&#xc4;" horiz-adv-x="833" 
d="M366 258l-92 254l-91 -254h183zM199 0h-192v27h23q34 0 72 102l206 564h209l247 -666h55v-27h-444v27h72l-71 204h-202l-40 -107q-15 -37 -8.5 -58.5t19 -30t27.5 -8.5h27v-27zM307 928q32 0 55 -23t23 -55t-23 -55.5t-55 -23.5t-55 23.5t-23 55.5t23 55t55 23zM527 928
q32 0 55 -23t23 -55t-23 -55.5t-55 -23.5t-55 23.5t-23 55.5t23 55t55 23z" />
    <glyph glyph-name="Aring" unicode="&#xc5;" horiz-adv-x="833" 
d="M366 258l-92 254l-91 -254h183zM199 0h-192v27h23q34 0 72 102l206 564h209l247 -666h55v-27h-444v27h72l-71 204h-202l-40 -107q-15 -37 -8.5 -58.5t19 -30t27.5 -8.5h27v-27zM417 739q-46 0 -79 33t-33 79t33 79t79 33t79 -33t33 -79t-33 -79t-79 -33zM417 903
q-21 0 -36.5 -15.5t-15.5 -36.5t15.5 -36.5t36.5 -15.5t36.5 15.5t15.5 36.5t-15.5 36.5t-36.5 15.5z" />
    <glyph glyph-name="AE" unicode="&#xc6;" horiz-adv-x="1000" 
d="M205 287h189v379h-20zM745 666h-55v-303h17q32 0 68 34t42 102h33v-305h-33q-6 72 -42 107t-68 35h-17v-309h49q27 0 56.5 12.5t60 38t54 74t32.5 112.5h33v-264h-658v27h77v233h-201l-71 -158q-16 -36 7 -55.5t46 -19.5h15v-27h-185v27q28 8 46.5 25.5t36.5 57.5
l210 466q40 90 -50 90h-28v27h745v-247h-30q-16 65 -40.5 111.5t-52 68.5t-51 31t-46.5 9z" />
    <glyph glyph-name="Ccedilla" unicode="&#xc7;" horiz-adv-x="722" 
d="M678 708v-246h-32q-24 78 -73.5 139t-118.5 61q-42 0 -63 -13t-34.5 -65.5t-13.5 -159.5v-193q0 -78 17 -123t41.5 -59t63.5 -14q77 0 128 58.5t66 139.5h31q-13 -119 -93 -183.5t-201 -64.5q-14 0 -19 1l-22 -48q15 5 39 5q37 0 63.5 -17.5t26.5 -53.5q0 -33 -23.5 -55
t-53.5 -30.5t-62 -8.5q-57 0 -105 17l17 44q42 -13 60 -13q53 0 53 37q0 16 -10 25.5t-27 9.5q-18 0 -26 -6l-17 9l42 89q-141 19 -226 116t-85 246q0 152 105.5 254t258.5 102q55 0 134 -27q3 -1 20.5 -9t28.5 -8q8 0 30 13l54 31h26z" />
    <glyph glyph-name="Egrave" unicode="&#xc8;" horiz-adv-x="722" 
d="M685 0h-680v27h74v639h-74v27h671l5 -243h-33q-23 92 -76 154t-129 62h-61v-303h17q32 0 68 34t42 102h33v-305h-33q-6 72 -42 107t-68 35h-17v-309h68q138 0 210 237h30zM374 751l-118 70q-35 21 -48 38t-13 42q0 20 19 33.5t39 13.5q16 0 29 -3.5t26.5 -16t18.5 -17
t20 -26t17 -23.5l82 -111h-72z" />
    <glyph glyph-name="Eacute" unicode="&#xc9;" horiz-adv-x="722" 
d="M685 0h-680v27h74v639h-74v27h671l5 -243h-33q-23 92 -76 154t-129 62h-61v-303h17q32 0 68 34t42 102h33v-305h-33q-6 72 -42 107t-68 35h-17v-309h68q138 0 210 237h30zM467 821l-118 -70h-72l82 111q4 5 14.5 20t15.5 21t15.5 17t18.5 15.5t20.5 8.5t26.5 4
q20 0 39 -13.5t19 -33.5q0 -25 -13 -42t-48 -38z" />
    <glyph glyph-name="Ecircumflex" unicode="&#xca;" horiz-adv-x="722" 
d="M685 0h-680v27h74v639h-74v27h671l5 -243h-33q-23 92 -76 154t-129 62h-61v-303h17q32 0 68 34t42 102h33v-305h-33q-6 72 -42 107t-68 35h-17v-309h68q138 0 210 237h30zM362 840l-105 -93h-80l122 181h125l121 -181h-79z" />
    <glyph glyph-name="Edieresis" unicode="&#xcb;" horiz-adv-x="722" 
d="M685 0h-680v27h74v639h-74v27h671l5 -243h-33q-23 92 -76 154t-129 62h-61v-303h17q32 0 68 34t42 102h33v-305h-33q-6 72 -42 107t-68 35h-17v-309h68q138 0 210 237h30zM252 928q32 0 55 -23t23 -55t-23 -55.5t-55 -23.5t-55 23.5t-23 55.5t23 55t55 23zM472 928
q32 0 55 -23t23 -55t-23 -55.5t-55 -23.5t-55 23.5t-23 55.5t23 55t55 23z" />
    <glyph glyph-name="Igrave" unicode="&#xcc;" horiz-adv-x="500" 
d="M481 0h-462v27h76v639h-76v27h462v-27h-76v-639h76v-27zM263 751l-118 70q-35 21 -48 38t-13 42q0 20 19 33.5t39 13.5q16 0 29 -3.5t26.5 -16t18.5 -17t20 -26t17 -23.5l82 -111h-72z" />
    <glyph glyph-name="Iacute" unicode="&#xcd;" horiz-adv-x="500" 
d="M481 0h-462v27h76v639h-76v27h462v-27h-76v-639h76v-27zM356 821l-118 -70h-72l82 111q4 5 14.5 20t15.5 21t15.5 17t18.5 15.5t20.5 8.5t26.5 4q20 0 39 -13.5t19 -33.5q0 -25 -13 -42t-48 -38z" />
    <glyph glyph-name="Icircumflex" unicode="&#xce;" horiz-adv-x="500" 
d="M481 0h-462v27h76v639h-76v27h462v-27h-76v-639h76v-27zM251 840l-105 -93h-80l122 181h125l121 -181h-79z" />
    <glyph glyph-name="Idieresis" unicode="&#xcf;" horiz-adv-x="500" 
d="M481 0h-462v27h76v639h-76v27h462v-27h-76v-639h76v-27zM141 928q32 0 55 -23t23 -55t-23 -55.5t-55 -23.5t-55 23.5t-23 55.5t23 55t55 23zM361 928q32 0 55 -23t23 -55t-23 -55.5t-55 -23.5t-55 23.5t-23 55.5t23 55t55 23z" />
    <glyph glyph-name="Eth" unicode="&#xd0;" horiz-adv-x="833" 
d="M5 0v27h74v328h-69v51h69v260h-72v27h434q166 0 266.5 -90.5t100.5 -255.5q0 -135 -69 -226.5t-212 -114.5q-38 -6 -173 -6h-349zM380 666v-260h74v-51h-74v-328h44q37 0 50.5 26t13.5 116v393q0 104 -77 104h-31z" />
    <glyph glyph-name="Ntilde" unicode="&#xd1;" horiz-adv-x="778" 
d="M208 0h-206v27h25q56 0 56 95v491q-2 3 -9 12.5t-10 13t-9.5 10.5t-11 10t-12 5.5t-14.5 2.5h-15v26h380l271 -371v294q0 21 -20 35.5t-48 14.5h-20v27h206v-27h-30q-15 0 -25 -5.5t-15 -12t-7.5 -24.5t-3 -31.5t-0.5 -42.5v-5v-545h-168l-404 556v-434q0 -95 58 -95h32
v-27zM534 928h55q-15 -65 -44.5 -105t-87.5 -40q-37 0 -95 27q-58 26 -71 26q-19 0 -32 -15t-15 -34h-52q29 146 126 146q30 0 90 -25q56 -26 84 -26q15 0 26 14.5t16 31.5z" />
    <glyph glyph-name="Ograve" unicode="&#xd2;" horiz-adv-x="833" 
d="M349 553v-465q0 -32 17.5 -54t49.5 -22q34 0 51 21.5t17 54.5v465q0 26 -1.5 42.5t-7 39t-20.5 34.5t-39 12q-23 0 -37.5 -12t-20.5 -34t-7.5 -39.5t-1.5 -42.5zM416 708q162 0 277.5 -102t115.5 -259q0 -158 -113 -260t-280 -102q-169 0 -280.5 106.5t-111.5 255.5
q0 108 55.5 191.5t144 126.5t192.5 43zM429 751l-118 70q-35 21 -48 38t-13 42q0 20 19 33.5t39 13.5q16 0 29 -3.5t26.5 -16t18.5 -17t20 -26t17 -23.5l82 -111h-72z" />
    <glyph glyph-name="Oacute" unicode="&#xd3;" horiz-adv-x="833" 
d="M349 553v-465q0 -32 17.5 -54t49.5 -22q34 0 51 21.5t17 54.5v465q0 26 -1.5 42.5t-7 39t-20.5 34.5t-39 12q-23 0 -37.5 -12t-20.5 -34t-7.5 -39.5t-1.5 -42.5zM416 708q162 0 277.5 -102t115.5 -259q0 -158 -113 -260t-280 -102q-169 0 -280.5 106.5t-111.5 255.5
q0 108 55.5 191.5t144 126.5t192.5 43zM522 821l-118 -70h-72l82 111q4 5 14.5 20t15.5 21t15.5 17t18.5 15.5t20.5 8.5t26.5 4q20 0 39 -13.5t19 -33.5q0 -25 -13 -42t-48 -38z" />
    <glyph glyph-name="Ocircumflex" unicode="&#xd4;" horiz-adv-x="833" 
d="M349 553v-465q0 -32 17.5 -54t49.5 -22q34 0 51 21.5t17 54.5v465q0 26 -1.5 42.5t-7 39t-20.5 34.5t-39 12q-23 0 -37.5 -12t-20.5 -34t-7.5 -39.5t-1.5 -42.5zM416 708q162 0 277.5 -102t115.5 -259q0 -158 -113 -260t-280 -102q-169 0 -280.5 106.5t-111.5 255.5
q0 108 55.5 191.5t144 126.5t192.5 43zM417 840l-105 -93h-80l122 181h125l121 -181h-79z" />
    <glyph glyph-name="Otilde" unicode="&#xd5;" horiz-adv-x="833" 
d="M349 553v-465q0 -32 17.5 -54t49.5 -22q34 0 51 21.5t17 54.5v465q0 26 -1.5 42.5t-7 39t-20.5 34.5t-39 12q-23 0 -37.5 -12t-20.5 -34t-7.5 -39.5t-1.5 -42.5zM416 708q162 0 277.5 -102t115.5 -259q0 -158 -113 -260t-280 -102q-169 0 -280.5 106.5t-111.5 255.5
q0 108 55.5 191.5t144 126.5t192.5 43zM561 928h55q-15 -65 -44.5 -105t-87.5 -40q-37 0 -95 27q-58 26 -71 26q-19 0 -32 -15t-15 -34h-52q29 146 126 146q30 0 90 -25q56 -26 84 -26q15 0 26 14.5t16 31.5z" />
    <glyph glyph-name="Odieresis" unicode="&#xd6;" horiz-adv-x="833" 
d="M349 553v-465q0 -32 17.5 -54t49.5 -22q34 0 51 21.5t17 54.5v465q0 26 -1.5 42.5t-7 39t-20.5 34.5t-39 12q-23 0 -37.5 -12t-20.5 -34t-7.5 -39.5t-1.5 -42.5zM416 708q162 0 277.5 -102t115.5 -259q0 -158 -113 -260t-280 -102q-169 0 -280.5 106.5t-111.5 255.5
q0 108 55.5 191.5t144 126.5t192.5 43zM307 928q32 0 55 -23t23 -55t-23 -55.5t-55 -23.5t-55 23.5t-23 55.5t23 55t55 23zM527 928q32 0 55 -23t23 -55t-23 -55.5t-55 -23.5t-55 23.5t-23 55.5t23 55t55 23z" />
    <glyph glyph-name="multiply" unicode="&#xd7;" horiz-adv-x="600" 
d="M217 256l-169 167l82 82l169 -167l171 169l82 -82l-171 -169l174 -174l-82 -82l-174 174l-171 -171l-82 82z" />
    <glyph glyph-name="Oslash" unicode="&#xd8;" horiz-adv-x="833" 
d="M343 297l138 210v46q0 26 -1.5 42.5t-7 39t-20.5 34.5t-39 12t-39 -12t-21 -34.5t-8 -39.5t-2 -42v-256zM711 760l-75 -113q79 -49 124.5 -126.5t45.5 -173.5q0 -158 -113 -260t-280 -102q-105 0 -186 43l-73 -110h-61l89 135q-76 51 -118.5 128t-42.5 166
q0 108 55.5 191.5t144 126.5t192.5 43q91 0 176 -36l59 88h63zM481 413l-138 -209v-116q0 -32 18 -54t52 -22t51 21.5t17 54.5v325z" />
    <glyph glyph-name="Ugrave" unicode="&#xd9;" horiz-adv-x="778" 
d="M5 666v27h465v-27h-83v-528q0 -50 32 -75t86 -25q73 0 109 45.5t36 170.5v294q0 69 -14 93.5t-50 24.5h-26v27h206v-27h-33q-23 0 -35.5 -26.5t-12.5 -96.5v-357q0 -114 -102 -168q-62 -33 -188 -33q-71 0 -157 18q-30 6 -53 17t-47.5 32t-38 60t-13.5 92v462h-81z
M402 751l-118 70q-35 21 -48 38t-13 42q0 20 19 33.5t39 13.5q16 0 29 -3.5t26.5 -16t18.5 -17t20 -26t17 -23.5l82 -111h-72z" />
    <glyph glyph-name="Uacute" unicode="&#xda;" horiz-adv-x="778" 
d="M5 666v27h465v-27h-83v-528q0 -50 32 -75t86 -25q73 0 109 45.5t36 170.5v294q0 69 -14 93.5t-50 24.5h-26v27h206v-27h-33q-23 0 -35.5 -26.5t-12.5 -96.5v-357q0 -114 -102 -168q-62 -33 -188 -33q-71 0 -157 18q-30 6 -53 17t-47.5 32t-38 60t-13.5 92v462h-81z
M495 821l-118 -70h-72l82 111q4 5 14.5 20t15.5 21t15.5 17t18.5 15.5t20.5 8.5t26.5 4q20 0 39 -13.5t19 -33.5q0 -25 -13 -42t-48 -38z" />
    <glyph glyph-name="Ucircumflex" unicode="&#xdb;" horiz-adv-x="778" 
d="M5 666v27h465v-27h-83v-528q0 -50 32 -75t86 -25q73 0 109 45.5t36 170.5v294q0 69 -14 93.5t-50 24.5h-26v27h206v-27h-33q-23 0 -35.5 -26.5t-12.5 -96.5v-357q0 -114 -102 -168q-62 -33 -188 -33q-71 0 -157 18q-30 6 -53 17t-47.5 32t-38 60t-13.5 92v462h-81z
M390 840l-105 -93h-80l122 181h125l121 -181h-79z" />
    <glyph glyph-name="Udieresis" unicode="&#xdc;" horiz-adv-x="778" 
d="M5 666v27h465v-27h-83v-528q0 -50 32 -75t86 -25q73 0 109 45.5t36 170.5v294q0 69 -14 93.5t-50 24.5h-26v27h206v-27h-33q-23 0 -35.5 -26.5t-12.5 -96.5v-357q0 -114 -102 -168q-62 -33 -188 -33q-71 0 -157 18q-30 6 -53 17t-47.5 32t-38 60t-13.5 92v462h-81z
M280 928q32 0 55 -23t23 -55t-23 -55.5t-55 -23.5t-55 23.5t-23 55.5t23 55t55 23zM500 928q32 0 55 -23t23 -55t-23 -55.5t-55 -23.5t-55 23.5t-23 55.5t23 55t55 23z" />
    <glyph glyph-name="Yacute" unicode="&#xdd;" horiz-adv-x="889" 
d="M66 666h-54v27h469v-27h-71l180 -298h6l118 206q16 28 17 47.5t-10 28.5t-22 12.5t-24 3.5h-27v27h222v-27h-17q-47 0 -105 -100l-142 -244v-295h91v-27h-486v27h88v251zM570 821l-118 -70h-72l82 111q4 5 14.5 20t15.5 21t15.5 17t18.5 15.5t20.5 8.5t26.5 4
q20 0 39 -13.5t19 -33.5q0 -25 -13 -42t-48 -38z" />
    <glyph glyph-name="Thorn" unicode="&#xde;" horiz-adv-x="833" 
d="M5 0v27h78v639h-76v27h470v-27h-93v-105h137q148 0 217.5 -60t69.5 -143q0 -85 -69.5 -145.5t-217.5 -60.5h-137v-125h93v-27h-472zM384 534v-355h38q72 0 72 111v144q0 41 -18 70.5t-60 29.5h-32z" />
    <glyph glyph-name="germandbls" unicode="&#xdf;" horiz-adv-x="722" 
d="M75 24v460q0 102 73.5 163t213.5 61q39 0 73.5 -3t77 -13.5t73 -28t51 -49t20.5 -73.5q0 -35 -13.5 -61t-32 -41t-50.5 -25.5t-54.5 -14.5t-59.5 -9v-12q103 -9 165 -52q76 -52 76 -147q0 -80 -58 -137t-155 -57q-92 0 -131 59l32 24q0 -1 1.5 -6t1.5 -6t1.5 -4.5t3 -4.5
t3.5 -2.5t5 -2t7 -0.5q6 0 10.5 2t7.5 6.5t4.5 8.5t2 11t0.5 11v11.5v9.5v205q0 55 -34 55h-22q-14 0 -14 16q0 12 13 12h23q17 0 17 30v232q0 16 -14.5 24t-31.5 8q-16 0 -30 -9.5t-14 -21.5v-653h-298v24h56z" />
    <glyph glyph-name="agrave" unicode="&#xe0;" 
d="M361 268v131q0 35 -11.5 48t-45.5 13q-40 0 -40 -11q0 -3 18.5 -23t18.5 -47q0 -80 -133 -80q-43 0 -76.5 19.5t-33.5 59.5q0 109 249 109q104 0 180 -19q54 -12 81 -39t27 -80v-268q0 -24 17 -24q5 0 10 1t9.5 5t7 5.5t8 7.5t6.5 7v-35q-54 -63 -156 -63q-47 0 -78.5 15
t-49.5 54q-63 -69 -194 -69q-64 0 -110 30t-46 92q0 129 175 153q59 8 118 8h49zM361 144v100h-36q-11 0 -20 -3.5t-14.5 -8t-9.5 -14t-6 -15.5t-3 -19t-1 -19v-20v-18q0 -19 0.5 -26.5t3.5 -24.5t11.5 -24.5t22.5 -7.5q19 0 31 9t16 29t4.5 29t0.5 33zM346 551l-118 70
q-35 21 -48 38t-13 42q0 20 19 33.5t39 13.5q16 0 29 -3.5t26.5 -16t18.5 -17t20 -26t17 -23.5l82 -111h-72z" />
    <glyph glyph-name="aacute" unicode="&#xe1;" 
d="M361 268v131q0 35 -11.5 48t-45.5 13q-40 0 -40 -11q0 -3 18.5 -23t18.5 -47q0 -80 -133 -80q-43 0 -76.5 19.5t-33.5 59.5q0 109 249 109q104 0 180 -19q54 -12 81 -39t27 -80v-268q0 -24 17 -24q5 0 10 1t9.5 5t7 5.5t8 7.5t6.5 7v-35q-54 -63 -156 -63q-47 0 -78.5 15
t-49.5 54q-63 -69 -194 -69q-64 0 -110 30t-46 92q0 129 175 153q59 8 118 8h49zM361 144v100h-36q-11 0 -20 -3.5t-14.5 -8t-9.5 -14t-6 -15.5t-3 -19t-1 -19v-20v-18q0 -19 0.5 -26.5t3.5 -24.5t11.5 -24.5t22.5 -7.5q19 0 31 9t16 29t4.5 29t0.5 33zM439 621l-118 -70
h-72l82 111q4 5 14.5 20t15.5 21t15.5 17t18.5 15.5t20.5 8.5t26.5 4q20 0 39 -13.5t19 -33.5q0 -25 -13 -42t-48 -38z" />
    <glyph glyph-name="acircumflex" unicode="&#xe2;" 
d="M361 268v131q0 35 -11.5 48t-45.5 13q-40 0 -40 -11q0 -3 18.5 -23t18.5 -47q0 -80 -133 -80q-43 0 -76.5 19.5t-33.5 59.5q0 109 249 109q104 0 180 -19q54 -12 81 -39t27 -80v-268q0 -24 17 -24q5 0 10 1t9.5 5t7 5.5t8 7.5t6.5 7v-35q-54 -63 -156 -63q-47 0 -78.5 15
t-49.5 54q-63 -69 -194 -69q-64 0 -110 30t-46 92q0 129 175 153q59 8 118 8h49zM361 144v100h-36q-11 0 -20 -3.5t-14.5 -8t-9.5 -14t-6 -15.5t-3 -19t-1 -19v-20v-18q0 -19 0.5 -26.5t3.5 -24.5t11.5 -24.5t22.5 -7.5q19 0 31 9t16 29t4.5 29t0.5 33zM334 620l-105 -93
h-80l122 181h125l121 -181h-79z" />
    <glyph glyph-name="atilde" unicode="&#xe3;" 
d="M361 268v131q0 35 -11.5 48t-45.5 13q-40 0 -40 -11q0 -3 18.5 -23t18.5 -47q0 -80 -133 -80q-43 0 -76.5 19.5t-33.5 59.5q0 109 249 109q104 0 180 -19q54 -12 81 -39t27 -80v-268q0 -24 17 -24q5 0 10 1t9.5 5t7 5.5t8 7.5t6.5 7v-35q-54 -63 -156 -63q-47 0 -78.5 15
t-49.5 54q-63 -69 -194 -69q-64 0 -110 30t-46 92q0 129 175 153q59 8 118 8h49zM361 144v100h-36q-11 0 -20 -3.5t-14.5 -8t-9.5 -14t-6 -15.5t-3 -19t-1 -19v-20v-18q0 -19 0.5 -26.5t3.5 -24.5t11.5 -24.5t22.5 -7.5q19 0 31 9t16 29t4.5 29t0.5 33zM478 708h55
q-15 -65 -44.5 -105t-87.5 -40q-37 0 -95 27q-58 26 -71 26q-19 0 -32 -15t-15 -34h-52q29 146 126 146q30 0 90 -25q56 -26 84 -26q15 0 26 14.5t16 31.5z" />
    <glyph glyph-name="adieresis" unicode="&#xe4;" 
d="M361 268v131q0 35 -11.5 48t-45.5 13q-40 0 -40 -11q0 -3 18.5 -23t18.5 -47q0 -80 -133 -80q-43 0 -76.5 19.5t-33.5 59.5q0 109 249 109q104 0 180 -19q54 -12 81 -39t27 -80v-268q0 -24 17 -24q5 0 10 1t9.5 5t7 5.5t8 7.5t6.5 7v-35q-54 -63 -156 -63q-47 0 -78.5 15
t-49.5 54q-63 -69 -194 -69q-64 0 -110 30t-46 92q0 129 175 153q59 8 118 8h49zM361 144v100h-36q-11 0 -20 -3.5t-14.5 -8t-9.5 -14t-6 -15.5t-3 -19t-1 -19v-20v-18q0 -19 0.5 -26.5t3.5 -24.5t11.5 -24.5t22.5 -7.5q19 0 31 9t16 29t4.5 29t0.5 33zM224 708q32 0 55 -23
t23 -55t-23 -55.5t-55 -23.5t-55 23.5t-23 55.5t23 55t55 23zM444 708q32 0 55 -23t23 -55t-23 -55.5t-55 -23.5t-55 23.5t-23 55.5t23 55t55 23z" />
    <glyph glyph-name="aring" unicode="&#xe5;" 
d="M361 268v131q0 35 -11.5 48t-45.5 13q-40 0 -40 -11q0 -3 18.5 -23t18.5 -47q0 -80 -133 -80q-43 0 -76.5 19.5t-33.5 59.5q0 109 249 109q104 0 180 -19q54 -12 81 -39t27 -80v-268q0 -24 17 -24q5 0 10 1t9.5 5t7 5.5t8 7.5t6.5 7v-35q-54 -63 -156 -63q-47 0 -78.5 15
t-49.5 54q-63 -69 -194 -69q-64 0 -110 30t-46 92q0 129 175 153q59 8 118 8h49zM361 144v100h-36q-11 0 -20 -3.5t-14.5 -8t-9.5 -14t-6 -15.5t-3 -19t-1 -19v-20v-18q0 -19 0.5 -26.5t3.5 -24.5t11.5 -24.5t22.5 -7.5q19 0 31 9t16 29t4.5 29t0.5 33zM324 544
q-46 0 -79 33t-33 79t33 79t79 33t79 -33t33 -79t-33 -79t-79 -33zM324 708q-21 0 -36.5 -15.5t-15.5 -36.5t15.5 -36.5t36.5 -15.5t36.5 15.5t15.5 36.5t-15.5 36.5t-36.5 15.5z" />
    <glyph glyph-name="ae" unicode="&#xe6;" horiz-adv-x="944" 
d="M593 229h86v138q0 3 0.5 16t0 19t-1.5 17.5t-4 17.5t-8 13t-13 10t-19 3q-7 0 -13.5 -2t-10.5 -6.5t-7 -9t-5 -12.5t-3 -13t-1.5 -14.5t-0.5 -13.5v-13.5v-11.5v-138zM360 266v146q0 51 -53 51q-35 0 -35 -15q0 -1 15 -21.5t15 -46.5q0 -31 -22.5 -51t-50 -26.5
t-57.5 -6.5q-112 0 -112 79q0 112 228 112q100 0 187 -40q72 40 163 40q124 0 208.5 -80t77.5 -202h-331v-45q0 -70 24.5 -106.5t90.5 -36.5q57 0 104 29.5t78 79.5l21 -13q-85 -128 -249 -128q-110 0 -182 57q-95 -57 -267 -57q-192 0 -192 130q0 52 41.5 88t93.5 49.5
t106 13.5h98zM360 93v152q-31 3 -50 -2.5t-26.5 -24.5t-9 -33.5t-1.5 -46.5v-10q0 -2 -1 -21.5t0 -28t4 -23t12 -21t23 -6.5q49 0 49 65z" />
    <glyph glyph-name="ccedilla" unicode="&#xe7;" horiz-adv-x="611" 
d="M563 146l23 -12q-65 -149 -265 -149h-1l-21 -47q15 5 39 5q37 0 63.5 -17.5t26.5 -53.5q0 -33 -23.5 -55t-53.5 -30.5t-62 -8.5q-57 0 -105 17l17 44q42 -13 60 -13q53 0 53 37q0 16 -10 25.5t-27 9.5q-18 0 -26 -6l-17 9l41 87q-118 11 -188.5 76t-70.5 170
q0 82 48 141.5t117.5 85.5t150.5 26q134 0 192.5 -46.5t58.5 -115.5q0 -50 -31.5 -80.5t-81.5 -30.5q-44 0 -75.5 29t-31.5 73q0 39 18.5 62t55.5 41q16 8 16 13q0 13 -23.5 20t-39.5 7q-20 0 -33 -2t-28 -8t-22 -17.5t-16 -31.5t-10.5 -48.5t-4 -69.5t2.5 -94
q2 -30 4 -48.5t9 -43t18 -38.5t32.5 -24t50.5 -10q112 0 170 122z" />
    <glyph glyph-name="egrave" unicode="&#xe8;" horiz-adv-x="611" 
d="M588 205h-322v-42q0 -69 22 -106t86 -37q53 0 101 29.5t82 75.5l19 -13q-88 -127 -252 -127q-101 0 -164 27q-146 62 -146 224q0 116 82 183.5t201 67.5q132 0 212 -75.5t79 -206.5zM266 229h86v138q0 3 0.5 16t0 19t-1.5 17.5t-4 17.5t-8 13t-13 10t-19 3q-7 0 -13.5 -2
t-10.5 -6.5t-7 -9t-5 -12.5t-3 -13t-1.5 -14.5t-0.5 -13.5v-13.5v-11.5v-138zM318 551l-118 70q-35 21 -48 38t-13 42q0 20 19 33.5t39 13.5q16 0 29 -3.5t26.5 -16t18.5 -17t20 -26t17 -23.5l82 -111h-72z" />
    <glyph glyph-name="eacute" unicode="&#xe9;" horiz-adv-x="611" 
d="M588 205h-322v-42q0 -69 22 -106t86 -37q53 0 101 29.5t82 75.5l19 -13q-88 -127 -252 -127q-101 0 -164 27q-146 62 -146 224q0 116 82 183.5t201 67.5q132 0 212 -75.5t79 -206.5zM266 229h86v138q0 3 0.5 16t0 19t-1.5 17.5t-4 17.5t-8 13t-13 10t-19 3q-7 0 -13.5 -2
t-10.5 -6.5t-7 -9t-5 -12.5t-3 -13t-1.5 -14.5t-0.5 -13.5v-13.5v-11.5v-138zM411 621l-118 -70h-72l82 111q4 5 14.5 20t15.5 21t15.5 17t18.5 15.5t20.5 8.5t26.5 4q20 0 39 -13.5t19 -33.5q0 -25 -13 -42t-48 -38z" />
    <glyph glyph-name="ecircumflex" unicode="&#xea;" horiz-adv-x="611" 
d="M588 205h-322v-42q0 -69 22 -106t86 -37q53 0 101 29.5t82 75.5l19 -13q-88 -127 -252 -127q-101 0 -164 27q-146 62 -146 224q0 116 82 183.5t201 67.5q132 0 212 -75.5t79 -206.5zM266 229h86v138q0 3 0.5 16t0 19t-1.5 17.5t-4 17.5t-8 13t-13 10t-19 3q-7 0 -13.5 -2
t-10.5 -6.5t-7 -9t-5 -12.5t-3 -13t-1.5 -14.5t-0.5 -13.5v-13.5v-11.5v-138zM306 620l-105 -93h-80l122 181h125l121 -181h-79z" />
    <glyph glyph-name="edieresis" unicode="&#xeb;" horiz-adv-x="611" 
d="M588 205h-322v-42q0 -69 22 -106t86 -37q53 0 101 29.5t82 75.5l19 -13q-88 -127 -252 -127q-101 0 -164 27q-146 62 -146 224q0 116 82 183.5t201 67.5q132 0 212 -75.5t79 -206.5zM266 229h86v138q0 3 0.5 16t0 19t-1.5 17.5t-4 17.5t-8 13t-13 10t-19 3q-7 0 -13.5 -2
t-10.5 -6.5t-7 -9t-5 -12.5t-3 -13t-1.5 -14.5t-0.5 -13.5v-13.5v-11.5v-138zM196 708q32 0 55 -23t23 -55t-23 -55.5t-55 -23.5t-55 23.5t-23 55.5t23 55t55 23zM416 708q32 0 55 -23t23 -55t-23 -55.5t-55 -23.5t-55 23.5t-23 55.5t23 55t55 23z" />
    <glyph glyph-name="igrave" unicode="&#xec;" horiz-adv-x="389" 
d="M368 0h-354v24h55v425h-53v24q57 0 161 5.5t138 6.5v-461h53v-24zM207 551l-118 70q-35 21 -48 38t-13 42q0 20 19 33.5t39 13.5q16 0 29 -3.5t26.5 -16t18.5 -17t20 -26t17 -23.5l82 -111h-72z" />
    <glyph glyph-name="iacute" unicode="&#xed;" horiz-adv-x="389" 
d="M368 0h-354v24h55v425h-53v24q57 0 161 5.5t138 6.5v-461h53v-24zM300 621l-118 -70h-72l82 111q4 5 14.5 20t15.5 21t15.5 17t18.5 15.5t20.5 8.5t26.5 4q20 0 39 -13.5t19 -33.5q0 -25 -13 -42t-48 -38z" />
    <glyph glyph-name="icircumflex" unicode="&#xee;" horiz-adv-x="389" 
d="M368 0h-354v24h55v425h-53v24q57 0 161 5.5t138 6.5v-461h53v-24zM195 620l-105 -93h-80l122 181h125l121 -181h-79z" />
    <glyph glyph-name="idieresis" unicode="&#xef;" horiz-adv-x="389" 
d="M368 0h-354v24h55v425h-53v24q57 0 161 5.5t138 6.5v-461h53v-24zM85 708q32 0 55 -23t23 -55t-23 -55.5t-55 -23.5t-55 23.5t-23 55.5t23 55t55 23zM305 708q32 0 55 -23t23 -55t-23 -55.5t-55 -23.5t-55 23.5t-23 55.5t23 55t55 23z" />
    <glyph glyph-name="eth" unicode="&#xf0;" 
d="M151 557l121 68q-16 11 -55 25t-84 19l40 54q147 -17 197 -41l136 76l39 -43l-113 -62q205 -113 209 -373q2 -136 -81 -215.5t-230 -79.5q-145 0 -221 64q-90 76 -90 193q0 58 26.5 106t69 77.5t91 45.5t95.5 16q49 0 71 -16l2 2q-14 70 -56 115l-129 -72zM280 387v-300
q0 -17 0.5 -24t2.5 -20t7 -18.5t15 -10.5t25 -5q22 0 32.5 12.5t12.5 26t2 39.5v300q0 18 -1 27.5t-5 23t-14 19.5t-27 6q-22 0 -33.5 -13t-14 -27t-2.5 -36z" />
    <glyph glyph-name="ntilde" unicode="&#xf1;" horiz-adv-x="722" 
d="M308 485v-94q28 45 75 70.5t100 25.5q77 0 119.5 -41.5t42.5 -143.5v-278h54v-24h-329v24h35v302q0 4 0.5 17t0.5 20t-2 18.5t-5.5 17t-11 10.5t-18.5 5q-29 0 -45 -32t-16 -63v-295h35v-24h-331v24h55v425h-53v24q56 0 158.5 5.5t135.5 6.5zM506 708h55
q-15 -65 -44.5 -105t-87.5 -40q-37 0 -95 27q-58 26 -71 26q-19 0 -32 -15t-15 -34h-52q29 146 126 146q30 0 90 -25q56 -26 84 -26q15 0 26 14.5t16 31.5z" />
    <glyph glyph-name="ograve" unicode="&#xf2;" 
d="M280 387v-300q0 -17 0.5 -24t2.5 -20t7 -18.5t15 -10.5t25 -5q11 0 19.5 2t13.5 7l8.5 8.5t4.5 13t1.5 14t0 17t-0.5 16.5v300q0 18 -1 27.5t-5 23t-14 19.5t-27 6q-22 0 -33.5 -13t-14 -27t-2.5 -36zM330 487q130 0 211 -57q45 -31 72.5 -82.5t27.5 -105.5
q0 -117 -90 -193q-76 -64 -221 -64t-221 64q-90 76 -90 193q0 54 27.5 105.5t72.5 82.5q81 57 211 57zM346 551l-118 70q-35 21 -48 38t-13 42q0 20 19 33.5t39 13.5q16 0 29 -3.5t26.5 -16t18.5 -17t20 -26t17 -23.5l82 -111h-72z" />
    <glyph glyph-name="oacute" unicode="&#xf3;" 
d="M280 387v-300q0 -17 0.5 -24t2.5 -20t7 -18.5t15 -10.5t25 -5q11 0 19.5 2t13.5 7l8.5 8.5t4.5 13t1.5 14t0 17t-0.5 16.5v300q0 18 -1 27.5t-5 23t-14 19.5t-27 6q-22 0 -33.5 -13t-14 -27t-2.5 -36zM330 487q130 0 211 -57q45 -31 72.5 -82.5t27.5 -105.5
q0 -117 -90 -193q-76 -64 -221 -64t-221 64q-90 76 -90 193q0 54 27.5 105.5t72.5 82.5q81 57 211 57zM439 621l-118 -70h-72l82 111q4 5 14.5 20t15.5 21t15.5 17t18.5 15.5t20.5 8.5t26.5 4q20 0 39 -13.5t19 -33.5q0 -25 -13 -42t-48 -38z" />
    <glyph glyph-name="ocircumflex" unicode="&#xf4;" 
d="M280 387v-300q0 -17 0.5 -24t2.5 -20t7 -18.5t15 -10.5t25 -5q11 0 19.5 2t13.5 7l8.5 8.5t4.5 13t1.5 14t0 17t-0.5 16.5v300q0 18 -1 27.5t-5 23t-14 19.5t-27 6q-22 0 -33.5 -13t-14 -27t-2.5 -36zM330 487q130 0 211 -57q45 -31 72.5 -82.5t27.5 -105.5
q0 -117 -90 -193q-76 -64 -221 -64t-221 64q-90 76 -90 193q0 54 27.5 105.5t72.5 82.5q81 57 211 57zM334 620l-105 -93h-80l122 181h125l121 -181h-79z" />
    <glyph glyph-name="otilde" unicode="&#xf5;" 
d="M280 387v-300q0 -17 0.5 -24t2.5 -20t7 -18.5t15 -10.5t25 -5q11 0 19.5 2t13.5 7l8.5 8.5t4.5 13t1.5 14t0 17t-0.5 16.5v300q0 18 -1 27.5t-5 23t-14 19.5t-27 6q-22 0 -33.5 -13t-14 -27t-2.5 -36zM330 487q130 0 211 -57q45 -31 72.5 -82.5t27.5 -105.5
q0 -117 -90 -193q-76 -64 -221 -64t-221 64q-90 76 -90 193q0 54 27.5 105.5t72.5 82.5q81 57 211 57zM478 708h55q-15 -65 -44.5 -105t-87.5 -40q-37 0 -95 27q-58 26 -71 26q-19 0 -32 -15t-15 -34h-52q29 146 126 146q30 0 90 -25q56 -26 84 -26q15 0 26 14.5t16 31.5z
" />
    <glyph glyph-name="odieresis" unicode="&#xf6;" 
d="M280 387v-300q0 -17 0.5 -24t2.5 -20t7 -18.5t15 -10.5t25 -5q11 0 19.5 2t13.5 7l8.5 8.5t4.5 13t1.5 14t0 17t-0.5 16.5v300q0 18 -1 27.5t-5 23t-14 19.5t-27 6q-22 0 -33.5 -13t-14 -27t-2.5 -36zM330 487q130 0 211 -57q45 -31 72.5 -82.5t27.5 -105.5
q0 -117 -90 -193q-76 -64 -221 -64t-221 64q-90 76 -90 193q0 54 27.5 105.5t72.5 82.5q81 57 211 57zM224 708q32 0 55 -23t23 -55t-23 -55.5t-55 -23.5t-55 23.5t-23 55.5t23 55t55 23zM444 708q32 0 55 -23t23 -55t-23 -55.5t-55 -23.5t-55 23.5t-23 55.5t23 55t55 23z
" />
    <glyph glyph-name="divide" unicode="&#xf7;" horiz-adv-x="600" 
d="M48 198v116h504v-116h-504zM300 505q32 0 55 -23t23 -55t-23 -55.5t-55 -23.5t-55.5 23.5t-23.5 55.5t23.5 55t55.5 23zM300 157q32 0 55 -23t23 -55t-23 -55.5t-55 -23.5t-55.5 23.5t-23.5 55.5t23.5 55t55.5 23z" />
    <glyph glyph-name="oslash" unicode="&#xf8;" 
d="M280 387v-167l97 156v11q0 18 -1 27.5t-5 23t-14 19.5t-27 6q-22 0 -33.5 -13t-14 -27t-2.5 -36zM438 474l71 114h58l-81 -129q71 -28 113 -87.5t42 -129.5q0 -117 -90 -193q-76 -64 -221 -64q-70 0 -130 17l-76 -121h-55l86 138q-63 33 -99.5 92t-36.5 131
q0 54 27.5 105.5t72.5 82.5q81 57 211 57q59 0 108 -13zM377 87v198l-97 -155v-43q0 -17 0.5 -24t2.5 -20t7 -18.5t15 -10.5t25 -5q11 0 19.5 2t13.5 7l8.5 8.5t4.5 13t1.5 14t0 17t-0.5 16.5z" />
    <glyph glyph-name="ugrave" unicode="&#xf9;" horiz-adv-x="722" 
d="M701 24v-24q-54 0 -153.5 -6t-134.5 -7v94q-63 -96 -183 -96q-85 0 -124 41t-39 151v272h-53v24q56 0 158.5 5.5t135.5 6.5v-393q0 -40 36 -40q23 0 37.5 20t19 42t4.5 44v291h-53v24q56 0 158 5.5t135 6.5v-461h56zM374 551l-118 70q-35 21 -48 38t-13 42q0 20 19 33.5
t39 13.5q16 0 29 -3.5t26.5 -16t18.5 -17t20 -26t17 -23.5l82 -111h-72z" />
    <glyph glyph-name="uacute" unicode="&#xfa;" horiz-adv-x="722" 
d="M701 24v-24q-54 0 -153.5 -6t-134.5 -7v94q-63 -96 -183 -96q-85 0 -124 41t-39 151v272h-53v24q56 0 158.5 5.5t135.5 6.5v-393q0 -40 36 -40q23 0 37.5 20t19 42t4.5 44v291h-53v24q56 0 158 5.5t135 6.5v-461h56zM467 621l-118 -70h-72l82 111q4 5 14.5 20t15.5 21
t15.5 17t18.5 15.5t20.5 8.5t26.5 4q20 0 39 -13.5t19 -33.5q0 -25 -13 -42t-48 -38z" />
    <glyph glyph-name="ucircumflex" unicode="&#xfb;" horiz-adv-x="722" 
d="M701 24v-24q-54 0 -153.5 -6t-134.5 -7v94q-63 -96 -183 -96q-85 0 -124 41t-39 151v272h-53v24q56 0 158.5 5.5t135.5 6.5v-393q0 -40 36 -40q23 0 37.5 20t19 42t4.5 44v291h-53v24q56 0 158 5.5t135 6.5v-461h56zM362 620l-105 -93h-80l122 181h125l121 -181h-79z" />
    <glyph glyph-name="udieresis" unicode="&#xfc;" horiz-adv-x="722" 
d="M701 24v-24q-54 0 -153.5 -6t-134.5 -7v94q-63 -96 -183 -96q-85 0 -124 41t-39 151v272h-53v24q56 0 158.5 5.5t135.5 6.5v-393q0 -40 36 -40q23 0 37.5 20t19 42t4.5 44v291h-53v24q56 0 158 5.5t135 6.5v-461h56zM252 708q32 0 55 -23t23 -55t-23 -55.5t-55 -23.5
t-55 23.5t-23 55.5t23 55t55 23zM472 708q32 0 55 -23t23 -55t-23 -55.5t-55 -23.5t-55 23.5t-23 55.5t23 55t55 23z" />
    <glyph glyph-name="yacute" unicode="&#xfd;" horiz-adv-x="722" 
d="M478 220l92 154q16 27 8.5 43.5t-20 24t-22.5 7.5h-13v24h174v-24q-48 0 -100 -89l-213 -359q-61 -101 -98 -144q-69 -77 -151 -77q-49 0 -83 30.5t-34 78.5q0 38 29 63t68 25q37 0 64 -21.5t27 -58.5q0 -31 -22 -51q-3 -3 -10 -8t-9.5 -8t-2.5 -7q0 -9 13 -9q30 0 73 39
q35 30 99 140l-278 456h-55v24h382v-24h-58zM487 621l-118 -70h-72l82 111q4 5 14.5 20t15.5 21t15.5 17t18.5 15.5t20.5 8.5t26.5 4q20 0 39 -13.5t19 -33.5q0 -25 -13 -42t-48 -38z" />
    <glyph glyph-name="thorn" unicode="&#xfe;" 
d="M296 318v-156q0 -55 15.5 -86.5t39.5 -31.5q20 0 28.5 25t8.5 93v156q0 30 -0.5 44t-4 32t-11 25t-20.5 7q-26 0 -41 -28.5t-15 -79.5zM5 -220v24h53v865h-53v24q42 0 87 2t109.5 6.5t94.5 6.5v-298h2q43 77 141 77q96 0 150.5 -75t54.5 -174q0 -104 -54 -178.5
t-154 -74.5q-45 0 -81 21t-57 52h-2v-254h74v-24h-365z" />
    <glyph glyph-name="ydieresis" unicode="&#xff;" horiz-adv-x="722" 
d="M478 220l92 154q16 27 8.5 43.5t-20 24t-22.5 7.5h-13v24h174v-24q-48 0 -100 -89l-213 -359q-61 -101 -98 -144q-69 -77 -151 -77q-49 0 -83 30.5t-34 78.5q0 38 29 63t68 25q37 0 64 -21.5t27 -58.5q0 -31 -22 -51q-3 -3 -10 -8t-9.5 -8t-2.5 -7q0 -9 13 -9q30 0 73 39
q35 30 99 140l-278 456h-55v24h382v-24h-58zM312 708q32 0 55 -23t23 -55t-23 -55.5t-55 -23.5t-55 23.5t-23 55.5t23 55t55 23zM532 708q32 0 55 -23t23 -55t-23 -55.5t-55 -23.5t-55 23.5t-23 55.5t23 55t55 23z" />
    <glyph glyph-name="dotlessi" unicode="&#x131;" horiz-adv-x="389" 
d="M368 0h-354v24h55v425h-53v24q57 0 161 5.5t138 6.5v-461h53v-24z" />
    <glyph glyph-name="Lslash" unicode="&#x141;" horiz-adv-x="722" 
d="M387 429v-402h46q54 0 94 20t65.5 58.5t40 76.5t27.5 93h29v-275h-684v27h76v265l-59 -26l-17 34l76 34v332h-76v27h470v-27h-88v-195l97 43l17 -34z" />
    <glyph glyph-name="lslash" unicode="&#x142;" horiz-adv-x="389" 
d="M314 460v-436h56v-24h-354v24h56v340l-44 -18l-12 28l56 22v273h-58v24q56 0 158 7t142 8v-215l62 25l12 -28z" />
    <glyph glyph-name="OE" unicode="&#x152;" horiz-adv-x="1000" 
d="M418 79v543q0 19 -13 31.5t-33 12.5q-18 0 -29.5 -9.5t-15.5 -29t-4.5 -30t-0.5 -32.5v-410q0 -3 -0.5 -19t0 -24t1.5 -23.5t4.5 -24.5t9 -19.5t14.5 -15t21 -4.5q46 0 46 54zM755 666h-47v-303h17q32 0 68 34t42 102h33v-305h-33q-6 72 -42 107t-68 35h-17v-309h44
q44 0 80 21.5t59 58t37.5 74.5t22.5 81h34v-262h-494q-152 0 -201.5 5.5t-100.5 31.5q-184 92 -175 319q6 154 90.5 244.5t242.5 92.5h625v-247h-30q-10 62 -35.5 108.5t-55.5 69t-54.5 32.5t-41.5 10z" />
    <glyph glyph-name="oe" unicode="&#x153;" horiz-adv-x="944" 
d="M271 387v-300q0 -17 0.5 -24t2.5 -20t7 -18.5t15 -10.5t25 -5q11 0 19.5 2t13.5 7l8.5 8.5t4.5 13t1.5 14t0 17t-0.5 16.5v300q0 18 -1 27.5t-5 23t-14 19.5t-27 6q-22 0 -33.5 -13t-14 -27t-2.5 -36zM596 229h86v138q0 3 0.5 16t0 19t-1.5 17.5t-4 17.5t-8 13t-13 10
t-19 3q-7 0 -13.5 -2t-10.5 -6.5t-7 -9t-5 -12.5t-3 -13t-1.5 -14.5t-0.5 -13.5v-13.5v-11.5v-138zM926 205h-330v-70q0 -115 120 -115q105 0 180 107l20 -12q-77 -130 -262 -130q-93 0 -164 37q-85 -37 -169 -37q-145 0 -221 64q-90 76 -90 193q0 54 27.5 105.5t72.5 82.5
q81 57 211 57q55 0 160 -32q71 32 163 32q124 0 206.5 -79.5t75.5 -202.5z" />
    <glyph glyph-name="Scaron" unicode="&#x160;" 
d="M309 519l204 -104q50 -26 84.5 -82.5t34.5 -123.5q0 -61 -26 -106.5t-70.5 -70t-95 -36t-108.5 -11.5q-73 0 -160 47l-108 -47h-25l-7 248h32q41 -96 114.5 -158.5t169.5 -62.5q37 0 66.5 16.5t29.5 50.5q0 37 -28 59t-74 42q-5 2 -8 3l-76 34q-219 98 -219 261
q0 107 68.5 168.5t176.5 61.5q75 0 160 -41l108 41h23l8 -229h-27q-41 88 -110 145t-158 57q-32 0 -58.5 -17t-26.5 -48q0 -15 6 -28t20.5 -24t24 -17t30 -16t25.5 -12zM334 837l105 91h80l-123 -179h-125l-122 179h80z" />
    <glyph glyph-name="scaron" unicode="&#x161;" horiz-adv-x="500" 
d="M23 168h19q27 -64 95.5 -111.5t136.5 -47.5q69 0 69 43q0 14 -8 25t-26.5 20t-34 15t-45.5 15.5t-46 15.5q-35 13 -59.5 26t-49.5 34t-38 52t-13 70q0 74 55 118t131 44q50 0 139 -30l78 30h22l6 -171h-23q-27 60 -83 103.5t-118 43.5q-59 0 -59 -47q0 -7 3 -14t10 -12.5
t12.5 -9.5t16.5 -8.5t15 -6.5t16 -6t13 -4l107 -39q52 -19 82.5 -62t30.5 -100q0 -90 -64 -135q-50 -34 -148 -34q-19 0 -39.5 5t-46.5 14t-40 13l-82 -32h-27zM251 617l105 91h80l-123 -179h-125l-122 179h80z" />
    <glyph glyph-name="Ydieresis" unicode="&#x178;" horiz-adv-x="889" 
d="M66 666h-54v27h469v-27h-71l180 -298h6l118 206q16 28 17 47.5t-10 28.5t-22 12.5t-24 3.5h-27v27h222v-27h-17q-47 0 -105 -100l-142 -244v-295h91v-27h-486v27h88v251zM395 928q32 0 55 -23t23 -55t-23 -55.5t-55 -23.5t-55 23.5t-23 55.5t23 55t55 23zM615 928
q32 0 55 -23t23 -55t-23 -55.5t-55 -23.5t-55 23.5t-23 55.5t23 55t55 23z" />
    <glyph glyph-name="Zcaron" unicode="&#x17d;" horiz-adv-x="722" 
d="M56 693h627v-31l-323 -635h58q77 0 142 59.5t90 178.5h33l-8 -265h-647v38l318 628h-34q-88 0 -151 -62t-88 -155h-29zM362 837l105 91h80l-123 -179h-125l-122 179h80z" />
    <glyph glyph-name="zcaron" unicode="&#x17e;" horiz-adv-x="611" 
d="M58 294l5 179h513v-24l-276 -425h45q150 0 208 164h26l-11 -188h-547v24l275 425h-39q-46 0 -96.5 -37.5t-80.5 -117.5h-22zM306 617l105 91h80l-123 -179h-125l-122 179h80z" />
    <glyph glyph-name="florin" unicode="&#x192;" 
d="M173 -6l57 272q5 28 22 73t18 50h-134l7 34h142q22 51 53.5 99t72.5 91t92.5 69t105.5 26q55 0 92.5 -29.5t26.5 -81.5q-15 -75 -92 -75q-29 0 -43.5 18.5t-8.5 47.5q6 30 30 47q17 14 19 21q4 11 -9.5 18t-27.5 7q-38 0 -65.5 -43t-36.5 -87l-27 -128h137l-7 -34h-137
l-29 -143q-23 -110 -70 -198t-102.5 -138t-108.5 -76t-98 -26q-53 0 -88 25.5t-25 75.5q7 33 33.5 56t58.5 23q31 0 48.5 -17.5t10.5 -47.5q-4 -19 -16 -34.5t-22.5 -24t-11.5 -10.5q-2 -10 5 -14.5t18 -4.5q79 0 110 159z" />
    <glyph glyph-name="circumflex" unicode="&#x2c6;" horiz-adv-x="333" 
d="M167 620l-105 -93h-80l122 181h125l121 -181h-79z" />
    <glyph glyph-name="caron" unicode="&#x2c7;" horiz-adv-x="333" 
d="M167 617l105 91h80l-123 -179h-125l-122 179h80z" />
    <glyph glyph-name="uni02C9" unicode="&#x2c9;" horiz-adv-x="333" 
d="M344 617h-353v91h353v-91z" />
    <glyph glyph-name="breve" unicode="&#x2d8;" horiz-adv-x="333" 
d="M5 708h58q6 -76 105 -76q93 0 104 76h58q-5 -80 -47 -124.5t-121 -44.5q-76 0 -117.5 46.5t-39.5 122.5z" />
    <glyph glyph-name="dotaccent" unicode="&#x2d9;" horiz-adv-x="333" 
d="M167 708q32 0 55 -23t23 -55t-23 -55.5t-55 -23.5t-55 23.5t-23 55.5t23 55t55 23z" />
    <glyph glyph-name="ring" unicode="&#x2da;" horiz-adv-x="333" 
d="M167 484q-46 0 -79 33t-33 79t33 79t79 33t79 -33t33 -79t-33 -79t-79 -33zM167 648q-21 0 -36.5 -15.5t-15.5 -36.5t15.5 -36.5t36.5 -15.5t36.5 15.5t15.5 36.5t-15.5 36.5t-36.5 15.5z" />
    <glyph glyph-name="ogonek" unicode="&#x2db;" horiz-adv-x="333" 
d="M274 -89l23 -40q-40 -40 -77 -52.5t-91 -10.5q-67 3 -88 64q-17 51 22.5 89.5t110.5 38.5h62l-8 -15l-39 -8q-20 -4 -32.5 -22.5t-8.5 -40.5q4 -31 55 -36q5 0 10.5 0.5t11 2.5t9.5 4t10.5 6t9.5 6l10.5 7t9.5 7z" />
    <glyph glyph-name="tilde" unicode="&#x2dc;" horiz-adv-x="333" 
d="M311 708h55q-15 -65 -44.5 -105t-87.5 -40q-37 0 -95 27q-58 26 -71 26q-19 0 -32 -15t-15 -34h-52q29 146 126 146q30 0 90 -25q56 -26 84 -26q15 0 26 14.5t16 31.5z" />
    <glyph glyph-name="hungarumlaut" unicode="&#x2dd;" horiz-adv-x="333" 
d="M136 581l-118 -70h-72l82 111q4 5 14.5 20t15.5 21t15.5 17t18.5 15.5t20.5 8.5t26.5 4q20 0 39 -13.5t19 -33.5q0 -25 -13 -42t-48 -38zM327 581l-118 -70h-72l82 111q4 5 14.5 20t15.5 21t15.5 17t18.5 15.5t20.5 8.5t26.5 4q20 0 39 -13.5t19 -33.5q0 -25 -13 -42
t-48 -38z" />
    <glyph glyph-name="uni03A9" unicode="&#x3a9;" horiz-adv-x="870" 
d="M832 210l-37 -210h-328l-14 31q109 221 109 364q0 133 -31.5 195.5t-99.5 62.5q-66 0 -95 -59t-29 -200q0 -143 106 -362l-10 -32h-334l-30 210h49q19 -42 37 -55t59 -13h91q-40 22 -69.5 42.5t-63 52.5t-51.5 74t-18 91q0 140 99.5 222t263.5 82q163 0 261.5 -81
t98.5 -218q0 -45 -18 -85t-52.5 -73.5t-65.5 -56.5t-76 -50h111q35 0 52 13.5t35 54.5h50z" />
    <glyph glyph-name="uni03BC" unicode="&#x3bc;" horiz-adv-x="722" 
d="M701 24v-24q-54 0 -153.5 -6t-134.5 -7v94q-29 -45 -70 -70t-65 -21q-30 5 -4 -49q2 -4 4 -9q1 -1 6 -10.5t7.5 -15t5 -15.5t1.5 -19q-3 -40 -34 -66t-78 -26q-49 0 -80.5 24.5t-28.5 69.5q3 46 31 74t12 46q-28 33 -40.5 71.5t-12.5 111.5v272h-53v24q56 0 158.5 5.5
t135.5 6.5v-393q0 -40 36 -40q23 0 37 20t18.5 41.5t4.5 44.5v291h-52v24q56 0 158 5.5t135 6.5v-461h56z" />
    <glyph glyph-name="pi" unicode="&#x3c0;" horiz-adv-x="714" 
d="M650 517l40 -10q-1 -38 -18.5 -94.5t-31.5 -71.5q-28 -9 -71 -9q-6 -68 -5 -154q1 -83 44 -83q8 0 42 9l15 -40q-24 -31 -71 -54.5t-92 -23.5q-63 0 -102.5 34t-39.5 114q0 83 10 201q-32 0 -58 1t-45 1v-2q0 -243 -73 -329q-50 -17 -92 -20l-13 31q53 75 80.5 163
t27.5 159q-49 1 -78 -4.5t-68 -26.5l-23 44q2 3 13 18.5t14.5 20t14.5 18t16.5 18t17.5 15.5t21.5 15t24 10.5t29 9t33 4.5t39.5 2q47 0 161 -2q29 0 84.5 -0.5t81.5 -0.5q50 0 72 37z" />
    <glyph glyph-name="endash" unicode="&#x2013;" horiz-adv-x="500" 
d="M500 164h-500v153h500v-153z" />
    <glyph glyph-name="emdash" unicode="&#x2014;" horiz-adv-x="1000" 
d="M1000 164h-1000v153h1000v-153z" />
    <glyph glyph-name="quoteleft" unicode="&#x2018;" horiz-adv-x="333" 
d="M275 708l4 -26q-53 -11 -99.5 -31t-83.5 -58t-37 -85q0 -17 17 -5l7 6q25 25 88 25q78 0 114 -35.5t36 -81.5q0 -57 -42.5 -86t-102.5 -29q-74 0 -118.5 44.5t-44.5 118.5q0 101 77.5 164.5t184.5 78.5z" />
    <glyph glyph-name="quoteright" unicode="&#x2019;" horiz-adv-x="333" 
d="M59 302l-4 26q53 11 99.5 31t83.5 58t37 85q0 17 -17 5l-7 -6q-25 -25 -88 -25q-78 0 -114 35.5t-36 81.5q0 57 42.5 86t102.5 29q74 0 118.5 -44.5t44.5 -118.5q0 -101 -77.5 -164.5t-184.5 -78.5z" />
    <glyph glyph-name="quotesinglbase" unicode="&#x201a;" horiz-adv-x="333" 
d="M59 -189l-4 26q53 11 99.5 31t83.5 58t37 85q0 17 -17 5q-3 -2 -7 -6q-25 -25 -88 -25q-78 0 -114 35.5t-36 81.5q0 57 42.5 86t102.5 29q74 0 118.5 -44.5t44.5 -118.5q0 -101 -77.5 -164.5t-184.5 -78.5z" />
    <glyph glyph-name="quotedblleft" unicode="&#x201c;" horiz-adv-x="722" 
d="M650 708l4 -26q-53 -11 -99.5 -31t-83.5 -58t-37 -85q0 -17 17 -5l7 6q25 25 88 25q78 0 114 -35.5t36 -81.5q0 -57 -42.5 -86t-102.5 -29q-74 0 -118.5 44.5t-44.5 118.5q0 101 77.5 164.5t184.5 78.5zM288 708l4 -26q-53 -11 -99.5 -31t-83.5 -58t-37 -85q0 -17 17 -5
l7 6q25 25 88 25q78 0 114 -35.5t36 -81.5q0 -57 -42.5 -86t-102.5 -29q-74 0 -118.5 44.5t-44.5 118.5q0 101 77.5 164.5t184.5 78.5z" />
    <glyph glyph-name="quotedblright" unicode="&#x201d;" horiz-adv-x="722" 
d="M72 302l-4 26q53 11 99.5 31t83.5 58t37 85q0 17 -17 5l-7 -6q-25 -25 -88 -25q-78 0 -114 35.5t-36 81.5q0 57 42.5 86t102.5 29q74 0 118.5 -44.5t44.5 -118.5q0 -101 -77.5 -164.5t-184.5 -78.5zM435 302l-4 26q53 11 99.5 31t83.5 58t37 85q0 17 -17 5l-7 -6
q-25 -25 -88 -25q-78 0 -114 35.5t-36 81.5q0 57 42.5 86t102.5 29q74 0 118.5 -44.5t44.5 -118.5q0 -101 -77.5 -164.5t-184.5 -78.5z" />
    <glyph glyph-name="quotedblbase" unicode="&#x201e;" horiz-adv-x="722" 
d="M72 -189l-4 26q53 11 99.5 31t83.5 58t37 85q0 17 -17 5q-3 -2 -7 -6q-25 -25 -88 -25q-78 0 -114 35.5t-36 81.5q0 57 42.5 86t102.5 29q74 0 118.5 -44.5t44.5 -118.5q0 -101 -77.5 -164.5t-184.5 -78.5zM435 -189l-4 26q53 11 99.5 31t83.5 58t37 85q0 17 -17 5
q-3 -2 -7 -6q-25 -25 -88 -25q-78 0 -114 35.5t-36 81.5q0 57 42.5 86t102.5 29q74 0 118.5 -44.5t44.5 -118.5q0 -101 -77.5 -164.5t-184.5 -78.5z" />
    <glyph glyph-name="dagger" unicode="&#x2020;" horiz-adv-x="611" 
d="M318 -212h-26q-22 232 -143 401q143 68 143 133q0 28 -24 28q-14 0 -25.5 -13.5t-20 -29t-29.5 -29t-52 -13.5q-45 0 -72 27.5t-27 71.5q0 41 29 70t70 29q32 0 53 -13.5t28.5 -29.5t18 -29.5t23.5 -13.5t21 10.5t8 23.5q0 8 -5 18.5t-12 20t-18.5 22t-18.5 20t-18 18
t-13 12.5q-27 27 -27 74q0 51 36 81.5t91 30.5q51 0 86 -31t35 -81q0 -47 -27 -74q-2 -2 -13 -12.5t-18 -18t-18.5 -20t-18.5 -22t-12 -20t-5 -18.5q0 -13 8 -23.5t21 -10.5t23.5 13.5t18 29.5t28.5 29.5t53 13.5q41 0 70 -29t29 -70q0 -44 -27 -71.5t-72 -27.5
q-31 0 -52 13.5t-29.5 29t-20 29t-25.5 13.5q-24 0 -24 -28q0 -65 143 -133q-121 -169 -143 -401z" />
    <glyph glyph-name="daggerdbl" unicode="&#x2021;" horiz-adv-x="611" 
d="M305 708q41 0 71 -25t30 -65q0 -27 -21.5 -52.5t-43 -47.5t-21.5 -42q0 -30 26 -30q11 0 19.5 8t15.5 19.5t16 23t26.5 19.5t41.5 8q39 0 65 -27.5t26 -67.5q0 -36 -26.5 -63t-62.5 -27q-29 0 -49.5 12.5t-29.5 28t-20.5 28t-24.5 12.5q-25 0 -25 -30q0 -61 121 -141
q-38 -21 -80 -66.5t-42 -79.5q0 -11 7 -19.5t18 -8.5q16 0 27 12.5t18 28t27.5 28t52.5 12.5q36 0 61 -28.5t25 -64.5q0 -37 -23.5 -64t-60.5 -27q-11 0 -20.5 1.5t-17 3.5t-15 7t-12 7.5t-12 11t-10.5 11.5t-11.5 14t-11.5 15q-16 8 -27.5 1t-11.5 -25q0 -17 14 -33.5
t30 -29t30 -34t14 -47.5q0 -38 -30 -62.5t-73 -24.5t-73 24.5t-30 62.5q0 26 14 47.5t30 34t30 29t14 33.5q0 18 -11.5 25t-27.5 -1q-3 -4 -11.5 -15t-11.5 -14t-10.5 -11.5t-12 -11t-12 -7.5t-15 -7t-17 -3.5t-20.5 -1.5q-37 0 -60.5 27t-23.5 64q0 36 25 64.5t61 28.5
q32 0 52.5 -12.5t27.5 -28t18 -28t27 -12.5q11 0 18 8.5t7 19.5q0 34 -42 79.5t-80 66.5q121 80 121 141q0 30 -25 30q-13 0 -24.5 -12.5t-20.5 -28t-29.5 -28t-49.5 -12.5q-36 0 -62.5 27t-26.5 63q0 40 26 67.5t65 27.5q24 0 41.5 -8t26.5 -19.5t16 -23t15.5 -19.5
t19.5 -8q26 0 26 30q0 20 -21.5 42t-43 47.5t-21.5 52.5q0 40 30 65t71 25z" />
    <glyph glyph-name="bullet" unicode="&#x2022;" horiz-adv-x="500" 
d="M249 177q-70 0 -119 49.5t-49 119.5t49 119t119 49t119.5 -49t49.5 -119t-49.5 -119.5t-119.5 -49.5z" />
    <glyph glyph-name="ellipsis" unicode="&#x2026;" horiz-adv-x="1000" 
d="M168 217q59 0 101.5 -29.5t42.5 -86.5t-42 -86.5t-102 -29.5t-102.5 29.5t-42.5 86.5t42.5 86.5t102.5 29.5zM501 217q59 0 101.5 -29.5t42.5 -86.5t-42 -86.5t-102 -29.5t-102.5 29.5t-42.5 86.5t42.5 86.5t102.5 29.5zM834 217q59 0 101.5 -29.5t42.5 -86.5t-42 -86.5
t-102 -29.5t-102.5 29.5t-42.5 86.5t42.5 86.5t102.5 29.5z" />
    <glyph glyph-name="perthousand" unicode="&#x2030;" horiz-adv-x="1000" 
d="M287 115q0 83 57 152t139 69q66 0 102.5 -45.5t36.5 -113.5q0 -50 -22 -100t-69 -86t-107 -36q-66 0 -101.5 46.5t-35.5 113.5zM455 265l-55 -215q-6 -25 -7 -39.5t5 -22.5t19 -8q11 0 17.5 6.5t9 13t5.5 21.5l4 20l56 216q11 44 6 54q-6 10 -22 10q-8 0 -14 -3t-10 -11
t-6 -12.5t-4.5 -16t-3.5 -13.5zM180 660l-55 -215q-6 -25 -7 -39.5t5 -22.5t19 -8q11 0 17.5 6.5t9 13t5.5 21.5l4 20l56 216q11 44 6 54q-6 10 -22 10q-8 0 -14 -3t-10 -11t-6 -12.5t-4.5 -16t-3.5 -13.5zM554 735l-410 -780h-57l379 717q-41 -22 -93 -22q-23 0 -48 10
q21 -63 21 -94q0 -70 -57.5 -140t-143.5 -70q-60 0 -96.5 46t-36.5 107q0 82 57.5 154.5t137.5 72.5q40 0 90 -27.5t86 -27.5q32 0 65 13t54 34q6 6 15.5 7.5t18 -0.5t18.5 0zM654 115q0 83 57 152t139 69q66 0 102.5 -45.5t36.5 -113.5q0 -50 -22 -100t-69 -86t-107 -36
q-66 0 -101.5 46.5t-35.5 113.5zM822 265l-55 -215q-6 -25 -7 -39.5t5 -22.5t19 -8q11 0 17.5 6.5t9 13t5.5 21.5l4 20l56 216q11 44 6 54q-6 10 -22 10q-8 0 -14 -3t-10 -11t-6 -12.5t-4.5 -16t-3.5 -13.5z" />
    <glyph glyph-name="guilsinglleft" unicode="&#x2039;" horiz-adv-x="333" 
d="M282 402l-116 -162l121 -160h-123l-119 160l117 162h120z" />
    <glyph glyph-name="guilsinglright" unicode="&#x203a;" horiz-adv-x="333" 
d="M167 240l-116 162h120l117 -162l-119 -160h-123z" />
    <glyph glyph-name="fraction" unicode="&#x2044;" horiz-adv-x="167" 
d="M-110 -15h-60l450 723h61z" />
    <glyph glyph-name="Euro" unicode="&#x20ac;" 
d="M519 242h-180q1 -126 25.5 -168.5t83.5 -42.5q70 0 115 45.5t64 112.5h31v-204h-25l-51 31q-22 13 -30 13q-1 0 -22 -11t-57.5 -22t-75.5 -11q-122 0 -203 70t-107 187h-85l35 74h40q0 5 -0.5 15t-0.5 15q0 15 2 41h-74l33 74h53q28 113 107.5 180t199.5 67
q39 0 75.5 -11t57.5 -22t22 -11q8 0 30 13l51 31h25v-204h-31q-19 67 -64 112.5t-115 45.5q-58 0 -82 -40.5t-27 -160.5h283l-35 -74h-249v-71h216z" />
    <glyph glyph-name="afii61289" unicode="&#x2113;" horiz-adv-x="569" 
d="M515 183l32 -33q-95 -164 -248 -164q-102 0 -149 45q-26 27 -39 62t-13 110v26l-64 -31l-18 46l82 47v138q0 94 14 150t49 101q71 90 172 90q74 0 110.5 -45.5t36.5 -113.5q0 -83 -43.5 -145t-145.5 -137v-67q0 -86 20 -127t72 -41q64 0 132 89zM291 488v-84
q38 45 56.5 88t18.5 119q0 108 -40 108q-26 0 -30.5 -39.5t-4.5 -191.5z" />
    <glyph glyph-name="trademark" unicode="&#x2122;" horiz-adv-x="1000" 
d="M152 338v341q-71 -7 -97 -121h-16l2 135h381l3 -135h-16q-26 114 -97 121v-341h47v-13h-255v13h48zM961 693v-14h-41v-341h41v-13h-235v13h41v298h-2l-116 -311h-21l-118 316h-1v-257q0 -13 1.5 -21.5t10 -16.5t24.5 -8h10v-13h-108v13h10q33 0 33 45v296h-38v14h188
l64 -176l65 176h192z" />
    <glyph glyph-name="Omega" unicode="&#x2126;" horiz-adv-x="870" 
d="M832 210l-37 -210h-328l-14 31q109 221 109 364q0 133 -31.5 195.5t-99.5 62.5q-66 0 -95 -59t-29 -200q0 -143 106 -362l-10 -32h-334l-30 210h49q19 -42 37 -55t59 -13h91q-40 22 -69.5 42.5t-63 52.5t-51.5 74t-18 91q0 140 99.5 222t263.5 82q163 0 261.5 -81
t98.5 -218q0 -45 -18 -85t-52.5 -73.5t-65.5 -56.5t-76 -50h111q35 0 52 13.5t35 54.5h50z" />
    <glyph glyph-name="estimated" unicode="&#x212e;" horiz-adv-x="870" 
d="M836 336h-650q-5 0 -5 -4v-197q0 -13 9 -22q104 -107 245 -107q76 0 143 32t116 87h57q-54 -64 -138 -101.5t-179 -37.5q-166 0 -283 105t-117 254q0 150 117 255.5t283 105.5q167 0 284.5 -105.5t117.5 -255.5v-9zM688 361v198q0 13 -9 24q-105 102 -244 102
q-140 0 -244 -106q-10 -9 -10 -24v-194q0 -6 5 -6h498q4 0 4 6z" />
    <glyph glyph-name="partialdiff" unicode="&#x2202;" horiz-adv-x="666" 
d="M308 444h1q39 0 72 -13.5t49 -36.5q13 56 15 116q4 97 -24 145q-25 38 -80 38q-75 0 -182 -92q-13 1 -32.5 25t-31 56t-2.5 51q31 13 45 18.5t51 12.5t82 7q179 0 277 -150q68 -106 68 -234q0 -141 -63 -246q-91 -155 -277 -155q-106 0 -169 58.5t-63 155.5q0 106 72 174
q74 70 192 70zM362 377h-1q-48 0 -77 -54q-42 -80 -42 -203q0 -43 10.5 -63.5t35.5 -20.5q38 0 77 96q36 88 52 201q-23 44 -55 44z" />
    <glyph glyph-name="Delta" unicode="&#x2206;" horiz-adv-x="780" 
d="M739 0h-700v54l296 632l96 20l308 -652v-54zM488 87l-175 391l-173 -391h348z" />
    <glyph glyph-name="product" unicode="&#x220f;" horiz-adv-x="867" 
d="M835 720v-46q-69 -6 -85.5 -26.5t-16.5 -97.5v-460q0 -77 17 -97t87 -25v-48h-392v48q55 4 66 22t11 100v530q0 27 -7 33.5t-34 6.5h-99q-26 0 -32 -6.5t-6 -34.5v-529q0 -82 10 -100t61 -22v-48h-385v48q69 5 85.5 25.5t16.5 96.5v460q0 78 -17 98t-89 26v46h809z" />
    <glyph glyph-name="summation" unicode="&#x2211;" horiz-adv-x="674" 
d="M649 181l-61 -273h-563v51l232 294l-224 416v51h553q7 -132 14 -212l-48 -13q-29 81 -51 119q-18 31 -39 41.5t-78 10.5h-107l150 -289l-240 -307h241q30 0 44 0.5t32 5t26 10.5t21 22t22.5 34.5t26.5 51.5z" />
    <glyph glyph-name="minus" unicode="&#x2212;" horiz-adv-x="600" 
d="M48 198v116h504v-116h-504z" />
    <glyph glyph-name="uni2215" unicode="&#x2215;" horiz-adv-x="167" 
d="M-110 -15h-60l450 723h61z" />
    <glyph glyph-name="uni2219" unicode="&#x2219;" horiz-adv-x="333" 
d="M167 372q59 0 101.5 -29.5t42.5 -86.5t-42 -86.5t-102 -29.5t-102.5 29.5t-42.5 86.5t42.5 86.5t102.5 29.5z" />
    <glyph glyph-name="radical" unicode="&#x221a;" horiz-adv-x="640" 
d="M641 872l-202 -1041l-49 -18l-233 533l-97 -41l-18 56l248 108l135 -334h3l142 750z" />
    <glyph glyph-name="infinity" unicode="&#x221e;" horiz-adv-x="812" 
d="M768 288v-1q0 -91 -54 -144.5t-127 -53.5q-23 0 -41 3t-43 12.5t-50.5 33t-48.5 59.5q-41 -54 -83.5 -81t-100.5 -27q-72 0 -124.5 52.5t-52.5 138.5q0 87 53.5 141t134.5 54q58 0 100.5 -24t80.5 -78q1 2 9.5 11.5t11.5 13t12 13t14.5 14t16 13t18.5 12.5l20 10
t23.5 8.5t25.5 4.5t28 2q72 -1 124.5 -52t52.5 -135zM231 194h2q57 0 114 81q-19 30 -26 40.5t-22.5 27.5t-31 22.5t-36.5 5.5q-35 0 -58 -23.5t-23 -67.5q0 -34 24.5 -60t56.5 -26zM580 371h-1q-24 0 -47.5 -16t-35 -30t-31.5 -41q38 -56 63.5 -73t58.5 -17t52.5 27.5
t19.5 57.5q0 39 -21 65.5t-58 26.5z" />
    <glyph glyph-name="integral" unicode="&#x222b;" horiz-adv-x="492" 
d="M181 -48l-24 391q-7 122 7 215.5t39.5 143.5t61.5 81.5t65 40.5t57 9q39 0 71 -21t32 -54q0 -41 -24.5 -63t-57.5 -22q-22 0 -35 22.5t-21 45.5t-16 23q-12 0 -14 -25t4 -107l21 -362q14 -242 -57 -372t-181 -130q-40 0 -71 23t-32 55q-1 37 32.5 63.5t66.5 26.5
q15 0 25.5 -16t15 -34.5t10.5 -34.5t13 -16q13 0 15 30.5t-3 86.5z" />
    <glyph glyph-name="approxequal" unicode="&#x2248;" horiz-adv-x="599" 
d="M496 490l75 -75q-37 -55 -82 -84t-85 -29q-56 0 -118 38q-2 1 -10 6t-10 6t-9 5t-10.5 5t-10 3.5t-11 3.5t-11 2t-12.5 1q-31 0 -54.5 -17.5t-52.5 -52.5l-73 75q26 44 77.5 77.5t103.5 33.5q61 0 108 -30q36 -23 51.5 -30.5t34.5 -7.5q44 0 99 70zM496 275l75 -75
q-38 -54 -82.5 -83.5t-86.5 -29.5q-55 0 -116 38q-52 32 -84 32q-22 0 -42.5 -11t-32.5 -23t-32 -35l-73 75q26 44 78 77.5t104 33.5q55 0 106 -30q6 -3 20 -13t21 -14t19.5 -8t24.5 -4q28 0 49.5 16.5t51.5 53.5z" />
    <glyph glyph-name="notequal" unicode="&#x2260;" horiz-adv-x="599" 
d="M461 526l-32 -72h122v-114h-169l-50 -116h219v-115h-268l-49 -113l-93 40l33 73h-126v115h174l49 116h-223v114h271l49 112z" />
    <glyph glyph-name="lessequal" unicode="&#x2264;" horiz-adv-x="599" 
d="M550 134l-500 220v124l499 219v-126l-380 -154v-2l381 -154v-127zM552 -16h-503v118h503v-118z" />
    <glyph glyph-name="greaterequal" unicode="&#x2265;" horiz-adv-x="599" 
d="M51 697l500 -220v-123l-499 -220v127l380 154v3l-381 153v126zM546 -16h-496v118h496v-118z" />
    <glyph glyph-name="lozenge" unicode="&#x25ca;" horiz-adv-x="678" 
d="M634 338l-224 -416h-144l-223 416l226 418h142zM500 338l-159 309h-5l-159 -309l160 -313h3z" />
    </font>
</defs>
</svg>
