<?xml version="1.0" standalone="no"?>
<!DOCTYPE svg PUBLIC "-//W3C//DTD SVG 1.1//EN" "http://www.w3.org/Graphics/SVG/1.1/DTD/svg11.dtd" >
<svg xmlns="http://www.w3.org/2000/svg" xmlns:xlink="http://www.w3.org/1999/xlink" version="1.1">
<metadata>
Created by FontForge 20170731 at Mon Apr  1 19:57:28 2002
 By Aleksey,,,
Copyright (c) 1986, 1990, 1991, 1998, 2001 Adobe Systems Incorporated.  All Rights Reserved.
</metadata>
<defs>
<font id="BodoniStd-BoldItalic" horiz-adv-x="556" >
  <font-face 
    font-family="Bodoni Std"
    font-weight="700"
    font-style="italic"
    font-stretch="normal"
    units-per-em="1000"
    panose-1="2 7 8 3 7 7 6 9 3 3"
    ascent="698"
    descent="-302"
    x-height="400"
    cap-height="668"
    bbox="-168 -250 1020 949"
    underline-thickness="50"
    underline-position="-200"
    slope="-12"
    unicode-range="U+0020-FB02"
  />
<missing-glyph horiz-adv-x="587" 
d="M87 0v700h500v-700h-500zM337 395l170 255h-340zM367 350l170 -255v510zM167 50h340l-170 255zM137 605v-510l170 255z" />
    <glyph glyph-name="fi" unicode="fi" horiz-adv-x="611" 
d="M133 368h-88l6 28h90q38 119 80 171q43 54 97 85t104 31q95 0 127 -50q12 -19 12 -37q0 -28 -17 -44t-45 -16q-23 0 -39 15.5t-16 38.5q0 15 9 28t9 20q0 17 -42 17q-76 0 -111 -94q-12 -31 -23.5 -93t-14.5 -72h184q9 0 25.5 1t24.5 2q16 1 49 1l-79 -333q-6 -20 -4 -30
t16 -10q22 0 47.5 37.5t39.5 72.5l21 -10q-28 -71 -65 -106.5t-104 -35.5q-33 0 -57 15.5t-24 40.5q0 15 14 79l55 248h-150q-46 -228 -84 -338q-78 -237 -191 -237q-44 0 -69.5 25t-25.5 54q0 23 16 40t38 17q23 0 40 -12.5t17 -35.5q0 -13 -7.5 -32.5t-7.5 -21.5
q0 -6 11 -6q38 0 62 153z" />
    <glyph glyph-name="fl" unicode="fl" horiz-adv-x="611" 
d="M133 368h-90l6 28h92q21 82 47 127q34 62 89 111q59 49 130 49q34 0 77 -19l128 19l-134 -615q-8 -39 12 -41q16 -1 36.5 21t31.5 42t21 42l21 -11q-29 -68 -64 -102t-97 -34q-38 0 -63 22t-25 61q0 13 4.5 29t4.5 17l88 438q-29 16 -29 45q0 10 14 32q9 13 -5.5 19.5
t-30.5 6.5q-66 0 -97 -99q-8 -24 -13.5 -53t-10.5 -62t-7 -45h101l-5 -28h-101q-46 -228 -84 -338q-78 -237 -191 -237q-44 0 -69.5 25t-25.5 54q0 23 16 40t38 17q23 0 40 -12.5t17 -35.5q0 -13 -7.5 -32.5t-7.5 -21.5q0 -6 11 -6q38 0 62 153z" />
    <glyph glyph-name=".notdef" horiz-adv-x="587" 
d="M87 0v700h500v-700h-500zM337 395l170 255h-340zM367 350l170 -255v510zM167 50h340l-170 255zM137 605v-510l170 255z" />
    <glyph glyph-name=".null" horiz-adv-x="0" 
 />
    <glyph glyph-name="nonmarkingreturn" horiz-adv-x="333" 
 />
    <glyph glyph-name="space" unicode=" " horiz-adv-x="305" 
 />
    <glyph glyph-name="exclam" unicode="!" horiz-adv-x="389" 
d="M198 219h-30q25 103 25 238q0 29 -2 87q0 8 -0.5 23.5t-0.5 23.5q0 38 22 65t59 27q35 0 54.5 -20.5t19.5 -55.5q0 -17 -15 -47q-72 -148 -112 -278q-4 -10 -10.5 -31t-9.5 -32zM156 149q33 0 58 -24.5t25 -57.5q0 -34 -24.5 -58t-58.5 -24t-58 24.5t-24 57.5t24.5 57.5
t57.5 24.5z" />
    <glyph glyph-name="quotedbl" unicode="&#x22;" horiz-adv-x="500" 
d="M279 579l-51 -138q0 -1 -3.5 -10t-5.5 -12.5t-5.5 -10t-8.5 -9t-11 -2.5q-20 0 -18 36l15 178q2 29 20 50.5t48 21.5q17 0 28 -10t9 -27q-4 -36 -17 -67zM451 579l-51 -138q0 -1 -3.5 -10t-5.5 -12.5t-5.5 -10t-8.5 -9t-11 -2.5q-20 0 -18 36l15 178q2 29 20 50.5
t48 21.5q17 0 28 -10t9 -27q-4 -36 -17 -67z" />
    <glyph glyph-name="numbersign" unicode="#" horiz-adv-x="611" 
d="M526 277v-66h-105l-32 -211h-75l32 211h-108l-32 -211h-75l32 211h-103v66h114l18 121h-104v66h114l30 201h75l-30 -201h107l29 201h75l-29 -201h93v-66h-103l-18 -121h95zM374 398h-107l-18 -121h107z" />
    <glyph glyph-name="dollar" unicode="$" horiz-adv-x="611" 
d="M213 -11l-24 -108h-26l25 114q-52 9 -93.5 41.5t-41.5 80.5q0 32 17.5 57t48.5 25q30 0 46 -17.5t16 -47.5q0 -27 -28 -47q-5 -4 -13 -8t-12.5 -7t-4.5 -6q-3 -16 24 -29t47 -15l59 262q-127 40 -127 160q0 76 64 130t143 60l17 69h25l-15 -66q47 4 80 -4l16 70h27
l-18 -75q40 -5 75.5 -40t35.5 -74q0 -27 -13 -46t-39 -19t-40.5 15t-14.5 41q0 18 21 39q20 20 20 22q0 11 -19 22.5t-33 13.5l-49 -220q54 -14 91 -60.5t37 -101.5q0 -97 -58.5 -156t-156.5 -73l-25 -110h-25l21 106q-37 -3 -80 2zM382 389l52 219q-32 6 -79 2l-47 -203z
M380 245l-51 -226q59 10 97 41.5t38 83.5q0 42 -20.5 65t-63.5 36zM284 413l44 195q-57 -7 -92 -35.5t-35 -81.5q0 -28 26 -49.5t57 -28.5zM297 14l56 238l-75 22l-59 -258q41 -6 78 -2z" />
    <glyph glyph-name="percent" unicode="%" horiz-adv-x="1000" 
d="M251 -30l358 616l-2 2q-61 -42 -132 -42q-38 0 -71 10q9 -59 -16 -125.5t-77.5 -113t-114.5 -46.5q-61 0 -100 37t-39 98q0 55 26.5 104t64 79t74.5 47.5t63 17.5q81 0 109 -64q49 -18 84 -18q51 0 105.5 30.5t68.5 65.5q2 4 5 7t7 3.5t7 1t7.5 0t5.5 -0.5h25l-407 -709
h-51zM310 613q-36 -5 -87 -100t-51 -159q0 -20 15.5 -35.5t35.5 -15.5q44 0 82 40t57 91t19 93q0 20 -4 36q-35 21 -67 50zM790 376q54 0 82 -35t28 -90q0 -58 -25.5 -116t-75.5 -99t-109 -41q-61 0 -100.5 36t-39.5 96q0 100 78 174.5t162 74.5zM822 338q-31 0 -68.5 -48.5
t-62 -109t-24.5 -99.5q0 -54 51 -54q65 0 112 78t47 148q0 32 -13 58.5t-42 26.5z" />
    <glyph glyph-name="ampersand" unicode="&#x26;" horiz-adv-x="778" 
d="M271 353q-42 -19 -59 -49t-17 -78q0 -61 33 -125t87 -64q50 0 92 39q-75 98 -136 277zM407 428q57 27 82.5 66t25.5 101q0 50 -67 50q-42 0 -65 -28t-5 -91zM417 400l83 -197l88 155q15 25 40 41t53 16q39 0 61.5 -18.5t22.5 -56.5q0 -29 -18 -47.5t-47 -18.5
q-26 0 -43 18t-17 45q0 3 2 9.5t2 8.5q1 8 -5 7q-17 -2 -36 -31q-3 -5 -5 -9l-82 -151q4 -6 18.5 -29.5t22.5 -34.5t23 -27t31 -23t35 -7q53 0 96 60l22 -18q-64 -103 -184 -103q-94 0 -155 65q-56 -39 -93.5 -54t-97.5 -15q-93 0 -143 53.5t-50 129.5q0 19 4 36.5
t14.5 33.5t18.5 28t27.5 26t27.5 21t34 20t32 16.5t34.5 16.5t30.5 14q-21 71 -21 106q0 86 57 134t150 48q29 0 55 -4.5t53.5 -14.5t43.5 -31.5t16 -51.5q0 -26 -13.5 -49t-39.5 -40.5t-48 -29.5t-55 -26.5t-45 -20.5z" />
    <glyph glyph-name="quotesingle" unicode="'" horiz-adv-x="250" 
d="M255 579l-51 -138q0 -1 -3.5 -10t-5.5 -12.5t-5.5 -10t-8.5 -9t-11 -2.5q-20 0 -18 36l15 178q2 29 20 50.5t48 21.5q17 0 28 -10t9 -27q-4 -36 -17 -67z" />
    <glyph glyph-name="parenleft" unicode="(" horiz-adv-x="389" 
d="M220 -220h-24q-132 198 -132 402q0 68 17 129t42.5 107t70.5 95.5t85.5 85t103.5 84.5h27q-76 -70 -120.5 -140t-72.5 -166q-55 -180 -55 -346q0 -150 58 -251z" />
    <glyph glyph-name="parenright" unicode=")" horiz-adv-x="389" 
d="M175 683h24q132 -198 132 -402q0 -68 -17 -129t-42.5 -107t-70.5 -95.5t-85.5 -85t-103.5 -84.5h-27q76 70 120.5 140t72.5 166q55 180 55 346q0 150 -58 251z" />
    <glyph glyph-name="asterisk" unicode="*" horiz-adv-x="611" 
d="M283 424q-26 -17 -37 -29.5t-18 -27.5t-15 -25q-29 -34 -62 -26q-18 3 -31 25q-13 20 -6 39q4 16 19.5 27t34.5 13q21 3 31 1.5t28 2.5t46 17q12 12 1 17q-28 14 -46 18t-28 2t-32 1q-43 7 -54 40q-5 20 7 39q12 22 30 25q35 8 62 -26q9 -11 16 -25t18 -26.5t37 -30.5
q10 -5 10 7q-3 31 -8 47t-14 29.5t-14 25.5q-16 41 8 67q12 14 37 14q26 0 37 -14q24 -26 8 -67q-5 -12 -14 -25.5t-13.5 -29.5t-6.5 -47q-3 -6 3 -9.5t11 0.5q26 17 37 29.5t18 26.5t16 25q28 35 62 27q19 -5 30 -25q12 -22 7 -39q-5 -15 -20.5 -26.5t-33.5 -14.5
q-22 -3 -32 -1t-28 -2t-46 -17q-4 -1 -5.5 -4t0.5 -5t6 -2q28 -13 46 -17t28 -2t32 -1q18 -3 33.5 -14.5t20.5 -26.5q5 -18 -7 -39q-12 -22 -30 -25q-36 -8 -62 27q-9 11 -16 25t-18 26.5t-37 29.5q-7 7 -13 3.5t-2 -11.5q2 -31 7 -47t14 -29.5t14 -25.5q16 -41 -8 -67
q-14 -14 -37 -14q-25 0 -37 14q-24 26 -8 67q5 12 14 25.5t14 29.5t7 47q2 7 -2.5 9t-8.5 -5z" />
    <glyph glyph-name="plus" unicode="+" horiz-adv-x="500" 
d="M29 263h181v181h81v-181h181v-81h-181v-181h-81v181h-181v81z" />
    <glyph glyph-name="comma" unicode="," horiz-adv-x="333" 
d="M78 -185l-9 21q144 70 144 158q0 8 -4.5 17t-10.5 9q-3 0 -5.5 -2.5l-7 -7l-7.5 -7.5q-20 -18 -44 -18q-33 0 -49.5 20t-16.5 53q0 30 24.5 54t54.5 24q46 0 77.5 -33.5t31.5 -86.5q0 -67 -53.5 -120.5t-124.5 -80.5z" />
    <glyph glyph-name="hyphen" unicode="-" horiz-adv-x="333" 
d="M309 150h-285l20 102h285z" />
    <glyph glyph-name="period" unicode="." horiz-adv-x="333" 
d="M153 149q33 0 58 -24.5t25 -57.5q0 -34 -24.5 -58t-58.5 -24t-58 24.5t-24 57.5t24.5 57.5t57.5 24.5z" />
    <glyph glyph-name="slash" unicode="/" horiz-adv-x="278" 
d="M-6 0l207 683h83l-206 -683h-84z" />
    <glyph glyph-name="zero" unicode="0" horiz-adv-x="611" 
d="M378 641q-60 0 -91 -79q-27 -68 -60 -228.5t-33 -252.5q0 -69 64 -69q63 0 91 61q27 59 63.5 236.5t36.5 249.5q0 41 -16 61.5t-55 20.5zM392 665q92 0 144.5 -69.5t52.5 -164.5q0 -113 -44 -215q-40 -90 -122 -160.5t-171 -70.5q-98 0 -148 74t-50 177q0 153 93 283
q45 64 109.5 105t135.5 41z" />
    <glyph glyph-name="one" unicode="1" horiz-adv-x="611" 
d="M485 665l-146 -635h136l-7 -30h-405l6 30h121l129 553q3 14 -8.5 19.5t-34.5 5.5h-94l7 30z" />
    <glyph glyph-name="two" unicode="2" horiz-adv-x="611" 
d="M466 0h-431v89q25 18 83.5 57.5t97.5 69t85 71t73 88t33 95.5q3 24 3 48q0 59 -24.5 86.5t-83.5 27.5q-33 0 -75 -21t-42 -51q0 -18 18 -18q4 0 11.5 0.5t11.5 0.5q25 0 40.5 -15.5t15.5 -41.5q0 -30 -18 -49t-48 -19q-37 0 -60.5 26.5t-23.5 63.5q0 73 65.5 115
t140.5 42q45 0 83.5 -8t74 -26.5t56 -53t20.5 -82.5q0 -120 -182 -222q-41 -23 -126.5 -75.5t-131.5 -77.5v-2h284q46 0 56 26l20 59h30z" />
    <glyph glyph-name="three" unicode="3" horiz-adv-x="611" 
d="M329 351v-1q41 -5 72.5 -13t63.5 -24.5t49.5 -46.5t17.5 -72q0 -54 -30 -96.5t-78 -66t-99.5 -35t-101.5 -11.5q-67 0 -120 33.5t-53 95.5q0 35 20 59t54 24q30 0 49 -19.5t19 -49.5t-29 -47q-2 -1 -10 -5.5t-11 -6.5t-6.5 -6.5t-4.5 -9.5q-3 -17 16 -27t37 -12t35 -2
q42 0 73 22.5t47 58.5t23 74t7 77t-21.5 63.5t-61.5 24.5q-13 0 -37.5 -3.5t-36.5 -3.5q-11 0 -16 1t-8.5 6t-3.5 15q0 7 4.5 11.5t12.5 5.5t14.5 1.5t15.5 -0.5t12 -1q34 0 55 5.5t43 23.5q68 57 68 172q0 41 -19.5 57.5t-61.5 16.5q-22 0 -37.5 -4t-21 -8t-11.5 -11l-7 -8
q-5 -7 2 -11q24 -12 34 -25t10 -37q0 -26 -18 -44t-44 -18q-30 0 -48 19.5t-18 49.5q0 44 33 73t73.5 39.5t83.5 10.5q47 0 90 -12t77 -44.5t34 -80.5q0 -36 -16 -64.5t-36 -45.5t-57 -31.5t-59.5 -20.5t-62.5 -15z" />
    <glyph glyph-name="four" unicode="4" horiz-adv-x="611" 
d="M64 213h240l77 331zM38 183v53l428 429h87l-102 -452h76q20 0 27.5 12t10.5 34t8 32h24l-40 -188h-26q1 6 4.5 19t5 22t1.5 19t-6 15t-18 5h-74l-33 -153h90l-7 -30h-319l7 30h78l36 153h-258z" />
    <glyph glyph-name="five" unicode="5" horiz-adv-x="611" 
d="M566 683h22q-24 -76 -52 -109q-21 -25 -43 -32t-60 -7h-215l-52 -176q101 31 150 31q118 0 174 -50.5t56 -124.5q0 -53 -28.5 -98t-73 -73t-96 -43.5t-101.5 -15.5q-74 0 -131 31.5t-57 98.5q0 31 21 52t53 21q29 0 48.5 -20t19.5 -49q0 -26 -27 -49q-3 -3 -9.5 -7.5
t-10 -7t-6 -6t-2.5 -6.5q0 -31 81 -31q58 0 105.5 54.5t47.5 175.5q0 106 -120 106q-44 0 -108 -22q-7 -2 -14.5 4t-5.5 13l72 254q15 56 62 56h271q4 0 9 5.5t10.5 13.5t9.5 11z" />
    <glyph glyph-name="six" unicode="6" horiz-adv-x="611" 
d="M580 665l-7 -34q-109 -3 -198 -74.5t-116 -178.5q78 41 136 41q79 0 128 -49t49 -116q0 -150 -145 -229q-74 -40 -170 -40q-30 0 -64 13t-66 38.5t-53 71t-21 101.5q0 127 87.5 236.5t212.5 168.5q52 24 119 37.5t108 13.5zM229 279l-21 -127q-6 -38 -6 -74
q0 -35 18 -49.5t55 -14.5q60 0 88 41q15 22 34 120.5t19 135.5q0 35 -10 54t-42 19q-27 0 -61 -18t-56 -40q-13 -14 -18 -47z" />
    <glyph glyph-name="seven" unicode="7" horiz-adv-x="611" 
d="M618 653v-45l-163 -203q-3 -4 -22.5 -28t-24.5 -30.5t-20.5 -27.5t-20.5 -33t-13.5 -31t-11.5 -36.5t-3 -36.5q0 -12 7 -46.5t7 -51.5q0 -99 -103 -99q-32 0 -53 24t-21 49q0 32 14 62q9 20 23 41.5t33.5 47t32 41t37.5 45t32 37.5l162 196h-273q-30 0 -44 -6t-24 -21
l-30 -47l-23 12l95 187h407z" />
    <glyph glyph-name="eight" unicode="8" horiz-adv-x="611" 
d="M269 10q44 0 64.5 15.5t35.5 57.5q11 29 20.5 78.5t9.5 78.5q0 39 -22.5 60.5t-61.5 21.5q-65 0 -102 -97q-26 -69 -26 -155q0 -38 19.5 -49t62.5 -11zM333 349q35 0 52.5 17t30.5 54q32 88 32 163q0 32 -16 44.5t-49 12.5q-36 0 -56.5 -19t-34.5 -85q-16 -75 -16 -118
q0 -69 57 -69zM374 336v-1q39 -9 66 -18.5t55 -27t42 -45.5t14 -66q0 -34 -16.5 -66.5t-49.5 -61.5t-92.5 -47t-135.5 -18q-57 0 -104.5 14t-82.5 52.5t-35 96.5q0 44 22.5 79.5t60 57t76 34t81.5 18.5v2q-144 31 -144 139q0 27 14 57.5t42 60.5t79 49.5t116 19.5
q52 0 96.5 -12.5t78 -47.5t33.5 -88q0 -76 -67.5 -125t-148.5 -56z" />
    <glyph glyph-name="nine" unicode="9" horiz-adv-x="611" 
d="M73 -15l7 32q111 5 198 76t116 178q-75 -42 -136 -42q-76 0 -126.5 48t-50.5 124q0 113 93.5 188.5t209.5 75.5q93 0 154.5 -65.5t61.5 -159.5q0 -44 -10 -85q-19 -79 -75.5 -149t-132.5 -124q-129 -90 -309 -97zM260 498l-20 -120q-11 -63 3 -88t51 -25q43 0 97 45
q13 11 20.5 23.5t9.5 19.5t4 24t3 21l20 122q11 68 -10.5 91t-60.5 23q-48 0 -75.5 -26t-41.5 -110z" />
    <glyph glyph-name="colon" unicode=":" horiz-adv-x="333" 
d="M202 402q33 0 58 -24.5t25 -57.5q0 -34 -24.5 -58t-58.5 -24t-58 24.5t-24 57.5t24.5 57.5t57.5 24.5zM154 149q33 0 58 -24.5t25 -57.5q0 -34 -24.5 -58t-58.5 -24t-58 24.5t-24 57.5t24.5 57.5t57.5 24.5z" />
    <glyph glyph-name="semicolon" unicode=";" horiz-adv-x="333" 
d="M78 -185l-9 21q144 70 144 158q0 8 -4.5 17t-10.5 9q-3 0 -5.5 -2.5l-7 -7l-7.5 -7.5q-20 -18 -44 -18q-33 0 -49.5 20t-16.5 53q0 30 24.5 54t54.5 24q46 0 77.5 -33.5t31.5 -86.5q0 -67 -53.5 -120.5t-124.5 -80.5zM203 402q33 0 58 -24.5t25 -57.5q0 -34 -24.5 -58
t-58.5 -24t-58 24.5t-24 57.5t24.5 57.5t57.5 24.5z" />
    <glyph glyph-name="less" unicode="&#x3c;" horiz-adv-x="500" 
d="M486 47v-79l-472 215v78l472 217v-80l-393 -177z" />
    <glyph glyph-name="equal" unicode="=" horiz-adv-x="500" 
d="M29 331h443v-81h-443v81zM29 195h443v-81h-443v81z" />
    <glyph glyph-name="greater" unicode="&#x3e;" horiz-adv-x="500" 
d="M14 47l393 174l-393 177v80l472 -217v-78l-472 -215v79z" />
    <glyph glyph-name="question" unicode="?" horiz-adv-x="500" 
d="M185 206h-21q0 12 2 72q2 31 10 56t17.5 41t28.5 32.5t32.5 25t41.5 25.5t44 27q43 28 43 76t-29.5 73.5t-78.5 25.5q-18 0 -48.5 -10.5t-30.5 -24.5q0 -3 3 -6t11 -8t12 -7q26 -18 26 -49q0 -28 -18.5 -47t-46.5 -19q-33 0 -50 21.5t-17 54.5q0 25 20 50t45 42
q40 26 98 26q79 0 132.5 -45t53.5 -122q0 -82 -71 -147q-10 -9 -23.5 -18t-34 -19.5t-31 -15.5t-37 -17t-28.5 -13q-21 -10 -31.5 -21t-14 -21t-9.5 -38zM156 149q33 0 58 -24.5t25 -57.5q0 -34 -24.5 -58t-58.5 -24t-58 24.5t-24 57.5t24.5 57.5t57.5 24.5z" />
    <glyph glyph-name="at" unicode="@" horiz-adv-x="833" 
d="M524 408q14 64 -26 64q-37 0 -86.5 -55.5t-69.5 -149.5q-17 -77 36 -77q28 0 72.5 58.5t73.5 159.5zM560 459l20 40h86l-127 -264q-3 -6 -5.5 -14.5t-3 -20t8.5 -19t27 -7.5q58 0 107 62t70 156q5 36 3.5 72.5t-19.5 71t-45.5 61.5t-74.5 43t-105 16q-129 0 -231 -84
t-135 -239q-30 -137 35 -225.5t186 -88.5q109 0 232 50l14 -28q-148 -56 -259 -56q-60 0 -109 12t-83 32t-59 47.5t-38.5 57t-20 61.5t-6.5 61t6 55q35 161 172.5 266.5t303.5 105.5q147 0 231.5 -84t57.5 -210q-8 -37 -29 -78.5t-53 -81t-78.5 -65t-96.5 -25.5
q-32 0 -52 17t-25 35t-1 26q-12 -14 -54.5 -40t-82.5 -29q-10 0 -19 1t-23 5.5t-23 13.5t-17.5 24.5t-8 39t5.5 55.5q15 67 59.5 120.5t94 79t90.5 25.5q24 0 40 -9t22 -18.5t12 -25.5z" />
    <glyph glyph-name="A" unicode="A" horiz-adv-x="611" 
d="M124 0h-177l7 30q32 0 58 26q32 32 100 149l279 478h37l70 -653h73l-7 -30h-304l7 30h69l-14 162h-181l-70 -118q-11 -18 -11 -25q0 -19 22 -19h49zM297 459l-137 -237h158z" />
    <glyph glyph-name="B" unicode="B" horiz-adv-x="722" 
d="M365 638l-57 -275h88q54 0 77 32q15 21 28.5 81.5t13.5 92.5q0 30 -4 42t-25 19.5t-68 7.5h-53zM384 0h-388l6 30h72l127 608h-76l7 30h317q70 0 119 -14t72 -38t32 -47t9 -49q0 -44 -21 -77.5t-55.5 -51.5t-71.5 -27.5t-78 -11.5v-2q39 -6 69 -16t60 -27.5t46.5 -47.5
t16.5 -70q0 -70 -42.5 -114.5t-112.5 -62.5q-48 -12 -108 -12zM300 333l-60 -303h66q65 0 95 10.5t42 42.5q10 25 22 85.5t12 88.5q0 38 -20.5 57t-80.5 19h-76z" />
    <glyph glyph-name="C" unicode="C" horiz-adv-x="667" 
d="M558 193l36 -7l-47 -186h-22l-31 39q-64 -54 -168 -54q-116 0 -190.5 72.5t-74.5 189.5q0 147 123 288q50 59 123.5 103.5t139.5 44.5q67 0 131 -55l46 40h21l-28 -189l-36 4q-6 67 -37.5 118.5t-93.5 51.5q-31 0 -50.5 -8.5t-40.5 -31.5q-42 -46 -85 -232
q-42 -176 -42 -269q0 -59 24.5 -78t84.5 -19q74 0 125 48.5t92 129.5z" />
    <glyph glyph-name="D" unicode="D" horiz-adv-x="778" 
d="M275 0h-279l6 30h73l126 608h-76l7 30h302q64 0 118 -16.5t98 -49.5t69 -89t25 -129q0 -99 -50 -186.5t-134 -141.5q-16 -10 -31 -18t-32 -14t-28.5 -10t-32 -6.5t-29 -4.5t-32.5 -2.5t-30.5 -0.5h-35h-34.5zM369 638l-125 -608h69q69 0 115 17q43 16 72 79.5t44 131.5
q36 165 36 259q0 121 -137 121h-74z" />
    <glyph glyph-name="E" unicode="E" horiz-adv-x="667" 
d="M547 0h-551l6 30h73l125 608h-78l6 30h516l-27 -188h-36q-1 53 -11 85.5t-33 48t-48.5 20t-68.5 4.5h-53l-56 -273h30q15 0 32.5 7.5t42 35t40.5 72.5h36l-58 -279h-37v34.5t-2 29t-6 29.5t-12 20t-21 16.5t-31 4.5h-22l-61 -305h48q107 0 165.5 44t107.5 149h33z" />
    <glyph glyph-name="F" unicode="F" horiz-adv-x="611" 
d="M322 0h-328l6 30h75l125 608h-77l7 30h502l-30 -204h-35q5 103 -27.5 138.5t-121.5 35.5h-50l-59 -273h30q15 0 32.5 7.5t42 35t40.5 72.5h36l-58 -279h-37v34.5t-2 29t-6 29.5t-12 20t-21 16.5t-31 4.5h-22l-59 -305h87z" />
    <glyph glyph-name="G" unicode="G" horiz-adv-x="722" 
d="M590 629l50 39h19l-27 -189l-37 4q-9 73 -42 121.5t-98 48.5q-37 0 -66.5 -21t-49.5 -59t-30.5 -68.5t-21.5 -71.5q-52 -198 -52 -324q0 -51 22 -72.5t73 -21.5q25 0 40.5 3t34.5 14t31.5 38t19.5 70l12 71h-92l7 30h337l-7 -30h-76l-24 -93q-5 -18 -47.5 -49
t-107.5 -57.5t-119 -26.5q-125 0 -201.5 67t-76.5 192q0 88 40 171.5t107 147.5q124 120 239 120q74 0 143 -54z" />
    <glyph glyph-name="H" unicode="H" horiz-adv-x="778" 
d="M203 638h-78l7 30h316l-7 -30h-75l-58 -282h206l57 282h-78l7 30h316l-7 -30h-74l-126 -608h79l-7 -30h-318l7 30h74l63 296h-204l-63 -296h77l-7 -30h-314l6 30h72z" />
    <glyph glyph-name="I" unicode="I" horiz-adv-x="444" 
d="M387 638l-127 -608h81l-7 -30h-318l7 30h70l125 608h-80l7 30h316l-7 -30h-67z" />
    <glyph glyph-name="J" unicode="J" horiz-adv-x="444" 
d="M116 -14l135 652h-92l7 30h331l-7 -30h-76l-110 -511q-29 -133 -88 -197t-161 -64q-59 0 -101.5 27.5t-42.5 83.5q0 29 21.5 52t49.5 23q32 0 51.5 -21.5t19.5 -53.5q0 -18 -15 -42q-3 -4 -7 -9t-6.5 -8.5t-2.5 -6.5q0 -12 24 -15q9 -1 16 0.5t17.5 9t20 28t16.5 52.5z
" />
    <glyph glyph-name="K" unicode="K" horiz-adv-x="722" 
d="M525 638l7 30h228l-7 -30h-27q-37 0 -84 -41l-193 -168l186 -399h68l-7 -30h-318l7 30h78l-148 325l260 228q34 27 34 43q0 12 -37 12h-47zM308 0h-312l6 30h73l125 608h-77l7 30h317l-7 -30h-75l-128 -608h78z" />
    <glyph glyph-name="L" unicode="L" 
d="M522 0h-533l7 30h72l128 608h-80l7 30h321l-6 -30h-77l-126 -608h55q88 0 145.5 47t103.5 143h37z" />
    <glyph glyph-name="M" unicode="M" horiz-adv-x="833" 
d="M795 638l-126 -608h79l-7 -30h-309l7 30h69l119 549l-2 2l-300 -581h-33l-72 583h-2l-98 -481q-15 -72 47 -72h21l-7 -30h-189l7 30h23q42 0 51 37l109 505q15 66 -23 66h-48l7 30h249l49 -422l218 422h239l-7 -30h-71z" />
    <glyph glyph-name="N" unicode="N" horiz-adv-x="722" 
d="M88 104l99 466q10 27 1 47.5t-45 20.5h-30l7 30h225l218 -434l72 340q6 26 -5.5 45t-31.5 19h-35l6 30h190l-7 -30h-25q-18 0 -33 -12.5t-19 -33.5l-128 -607h-38l-290 576l-95 -481q-4 -24 6.5 -37t32.5 -13h30l-7 -30h-188l5 30h26q20 0 36.5 23t22.5 51z" />
    <glyph glyph-name="O" unicode="O" horiz-adv-x="778" 
d="M478 653q-54 0 -86 -14.5t-54 -56.5q-33 -62 -73 -215t-40 -256q0 -55 21.5 -75.5t79.5 -20.5q54 0 83 12.5t53.5 53t47.5 123.5q25 89 47.5 200t22.5 177q0 72 -102 72zM469 683q125 0 200 -66.5t75 -194.5q0 -111 -63.5 -216.5t-159.5 -165.5q-29 -18 -83.5 -36.5
t-105.5 -18.5q-50 0 -95 13t-86 42t-65.5 84t-24.5 131q0 191 184 340q108 88 224 88z" />
    <glyph glyph-name="P" unicode="P" horiz-adv-x="667" 
d="M319 0h-325l6 30h74l126 608h-66l7 30h284q246 0 246 -163q0 -67 -47 -113.5t-115 -64.5q-89 -24 -170 -24h-44l-57 -273h86zM366 638l-64 -305h43q52 0 77 11t38 40q16 37 27 94t11 100q0 17 -5 28.5t-11.5 17.5t-19.5 9.5t-23 4t-28 0.5h-45z" />
    <glyph glyph-name="Q" unicode="Q" horiz-adv-x="778" 
d="M478 653q-54 0 -86 -14.5t-54 -56.5q-33 -62 -73 -215t-40 -256q0 -55 21.5 -75.5t79.5 -20.5q54 0 83 12.5t53.5 53t47.5 123.5q25 89 47.5 200t22.5 177q0 72 -102 72zM241 -56v53q-180 49 -180 258q0 191 184 340q108 88 224 88q125 0 200 -66.5t75 -194.5
q0 -111 -63.5 -217t-159.5 -165q-42 -26 -102 -42q-13 -132 32 -159l2 -1q20 -13 43 -15.5t57.5 1t47.5 3.5l-7 -32q-64 -10 -93 -12t-79 3q-78 7 -129.5 47t-51.5 111z" />
    <glyph glyph-name="R" unicode="R" horiz-adv-x="722" 
d="M311 0h-317l6 30h73l125 608h-75l7 30h316q237 0 237 -149q0 -38 -18 -67.5t-43.5 -46t-63.5 -28t-67 -16t-66 -7.5v-2q89 -25 128 -61t42 -121q1 -23 5 -74q1 -14 2.5 -22t5 -18t12 -14.5t20.5 -4.5q24 0 52 10l-3 -33q-18 -12 -50.5 -20.5t-55.5 -8.5q-86 0 -125 46
t-39 162q0 150 -67 150h-50l-65 -313h81zM425 638h-62l-54 -265h52q69 0 101 26q24 20 37.5 79t13.5 103q0 20 -6.5 32.5t-22 17.5t-26.5 6t-33 1z" />
    <glyph glyph-name="S" unicode="S" 
d="M97 41l-57 -41h-26l32 201h35q6 -83 48.5 -134.5t121.5 -51.5q70 0 109.5 34t39.5 91q0 17 -6 32t-12 24.5t-23 22t-24 16.5t-32 17.5t-30 16.5q-105 59 -134.5 96t-29.5 94q0 94 54.5 159t145.5 65q71 0 146 -49l42 34h26l-26 -183h-38q-2 32 -7 58q-10 51 -48.5 80.5
t-90.5 29.5q-43 0 -79 -23t-36 -65q0 -14 3.5 -26.5t13.5 -23t17.5 -18t24.5 -17t26.5 -14.5t31.5 -15.5t31 -14.5q33 -16 55.5 -31t45.5 -38.5t35 -56t12 -74.5q0 -114 -68.5 -182.5t-167.5 -68.5q-98 0 -161 56z" />
    <glyph glyph-name="T" unicode="T" horiz-adv-x="611" 
d="M662 668l-20 -202h-29q-1 85 -43 128.5t-86 43.5h-21l-127 -608h90l-7 -30h-339l7 30h81l131 608h-24q-59 0 -110 -49t-81 -123h-31l36 202h573z" />
    <glyph glyph-name="U" unicode="U" horiz-adv-x="722" 
d="M115 274l75 364h-78l7 30h317l-7 -30h-75l-85 -413q-25 -121 0 -165.5t101 -44.5q145 0 177 158l81 401q8 39 -3.5 51.5t-40.5 12.5h-25l7 30h191l-7 -30h-23q-26 0 -39.5 -16.5t-21.5 -55.5l-78 -367q-19 -89 -48.5 -133.5t-104.5 -68.5q-37 -12 -116 -12
q-108 0 -165 43t-57 124q0 34 18 122z" />
    <glyph glyph-name="V" unicode="V" horiz-adv-x="611" 
d="M58 638l7 30h311l-7 -30h-70l41 -419l225 380q23 39 -26 39h-42l5 30h186l-7 -30h-22q-12 0 -27 -14t-23 -28l-373 -611h-36l-62 653h-80z" />
    <glyph glyph-name="W" unicode="W" horiz-adv-x="889" 
d="M65 638l7 30h693l-7 -30h-17q-12 0 -17.5 -1t-16.5 -9t-23 -25l-103 -142q-4 -6 -9 -11.5t-4.5 -5.5t-1 -6t0.5 -12l17 -237l265 412q9 12 6.5 24.5t-22.5 12.5h-29l7 30h150l-7 -30h-19q-11 0 -24 -10.5t-20 -22.5l-394 -620h-35l-27 294l-208 -294h-36l-54 653h-72z
M322 173l110 152l-23 313h-122zM552 638l9 -151l81 113q9 12 11.5 21t-0.5 13t-9 4h-92z" />
    <glyph glyph-name="X" unicode="X" horiz-adv-x="667" 
d="M279 306l-138 332h-80l7 30h324l-7 -30h-72l85 -205l116 143q15 18 22 29.5t7.5 19t-6 10.5t-21.5 3h-47l7 30h206l-7 -30h-26q-45 0 -77 -40l-160 -200l154 -368h76l-7 -30h-321l7 30h74l-102 241l-133 -168q-36 -45 -37 -56q5 -16 37 -17h45l-6 -30h-203l6 30h24
q6 0 12 2t12.5 6t12 8t13 11.5l12.5 12.5t13 14.5t12 15t12.5 16t11.5 14.5z" />
    <glyph glyph-name="Y" unicode="Y" horiz-adv-x="611" 
d="M66 668h315l-7 -30h-82l110 -301l150 240q39 61 -16 61h-46l7 30h194l-7 -30h-19q-14 0 -31.5 -11t-26.5 -25l-192 -299q-4 -7 -9 -34l-46 -239h93l-7 -30h-346l6 30h86l55 278l-127 330h-61z" />
    <glyph glyph-name="Z" unicode="Z" horiz-adv-x="611" 
d="M81 480l63 188h469v-35l-414 -603h89q77 0 143.5 55t106.5 133h36l-72 -218h-497v33l416 605h-51q-169 0 -252 -158h-37z" />
    <glyph glyph-name="bracketleft" unicode="[" horiz-adv-x="389" 
d="M-4 -220l186 903h243l-5 -30h-136l-172 -843h135l-5 -30h-246z" />
    <glyph glyph-name="backslash" unicode="\" horiz-adv-x="606" 
d="M359 0l-266 683h88l266 -683h-88z" />
    <glyph glyph-name="bracketright" unicode="]" horiz-adv-x="389" 
d="M397 683l-186 -903h-243l5 30h136l172 843h-135l5 30h246z" />
    <glyph glyph-name="asciicircum" unicode="^" horiz-adv-x="500" 
d="M74 193h-79l215 472h77l218 -472h-80l-177 387z" />
    <glyph glyph-name="underscore" unicode="_" horiz-adv-x="500" 
d="M500 -75v-50h-500v50h500z" />
    <glyph glyph-name="grave" unicode="`" horiz-adv-x="333" 
d="M186 498l-137 88q-14 9 -20.5 14t-13.5 15.5t-7 23.5q0 18 13 31t31 13q13 0 24.5 -4t22.5 -13.5t17.5 -16.5t18 -21t15.5 -19l97 -111h-61z" />
    <glyph glyph-name="a" unicode="a" 
d="M288 374q-55 0 -96 -160q-33 -132 -33 -159q0 -19 10.5 -30.5t29.5 -11.5q32 0 61.5 33t48 80t29.5 92.5t11 74.5q0 31 -16 56t-45 25zM370 327l21 69h111l-86 -322q-9 -35 13 -35q37 0 87 107l21 -7q-14 -30 -25 -49t-29.5 -44t-42 -37.5t-50.5 -12.5q-33 0 -52.5 24.5
t-26.5 60.5q-61 -96 -140 -96q-62 0 -99 45t-37 109q0 80 48.5 149.5t122.5 99.5q33 14 59 14q72 0 105 -75z" />
    <glyph glyph-name="b" unicode="b" 
d="M210 240l-36 -136q-24 -91 54 -91q25 0 42.5 7.5t29 25.5t16.5 32t14 43q2 6 3 10q18 61 36 153q11 61 4 81q-6 16 -32 16q-33 0 -72.5 -34t-58.5 -107zM181 645h-72l7 28h103q17 0 102 10l-92 -350l2 -2q56 78 125 78q66 0 108 -46t42 -114q0 -125 -118 -216
q-63 -48 -185 -48q-80 0 -122 50t-17 147z" />
    <glyph glyph-name="c" unicode="c" horiz-adv-x="500" 
d="M412 111l16 -14q-84 -112 -208 -112q-71 0 -122 47.5t-51 119.5q0 97 86 173.5t183 76.5q50 0 94 -22.5t44 -69.5q0 -28 -17 -46t-45 -18q-24 0 -41 15.5t-17 39.5q0 14 5 29q5 17 5 20q0 9 -8.5 16.5t-19.5 7.5q-22 0 -33 -5t-23 -21q-20 -25 -48.5 -126.5t-28.5 -161.5
q0 -47 55 -47q99 0 174 98z" />
    <glyph glyph-name="d" unicode="d" 
d="M348 298q0 32 -15 54t-47 22q-20 0 -35.5 -13.5t-23.5 -29t-16 -36.5q-1 -4 -2 -6q-17 -44 -35.5 -132t-18.5 -111q0 -21 8.5 -27t30.5 -6q38 0 69 32t48.5 79t27 93t9.5 81zM366 343l62 302h-72l7 28h98q19 0 55 4.5t43 5.5l-131 -625q-6 -32 15 -32t48.5 41.5
t33.5 68.5l21 -8q-16 -59 -51.5 -101t-88.5 -42q-44 0 -71 23.5t-26 67.5l-2 2q-39 -93 -141 -93q-57 0 -96 51t-39 111q0 94 75 174.5t166 80.5q72 0 94 -59z" />
    <glyph glyph-name="e" unicode="e" horiz-adv-x="500" 
d="M274 163h-81q-2 -10 -7 -32t-7.5 -39t-2.5 -32q0 -47 53 -47q121 0 204 113l16 -14q-85 -127 -237 -127q-73 0 -123.5 43t-50.5 115q0 99 88.5 179t187.5 80q56 0 101.5 -26.5t45.5 -79.5q0 -82 -100 -116q-51 -17 -87 -17zM200 191h58q30 0 65.5 32t35.5 94
q0 29 -12.5 43t-41.5 14q-51 0 -72 -71z" />
    <glyph glyph-name="f" unicode="f" horiz-adv-x="333" 
d="M121 368h-93l6 28h94q49 209 192 274q28 13 58 13q45 0 80 -22.5t35 -65.5q0 -29 -16.5 -44t-44.5 -15q-22 0 -38.5 13.5t-16.5 34.5q0 12 8.5 32t10.5 26t-3.5 9.5t-16.5 3.5q-27 0 -47 -19t-32 -53t-18.5 -63.5t-12.5 -70t-9 -53.5h112l-6 -28h-111q-46 -228 -84 -338
q-78 -237 -191 -237q-44 0 -69.5 25t-25.5 54q0 23 16 40t38 17q23 0 40 -12.5t17 -35.5q0 -13 -7.5 -32.5t-7.5 -21.5q0 -6 11 -6q38 0 62 153z" />
    <glyph glyph-name="g" unicode="g" horiz-adv-x="500" 
d="M193 -24h-83q-28 0 -46 -27t-18 -57q0 -71 122 -71q80 0 130 22q28 13 51.5 36.5t23.5 48.5q0 29 -41 35q-4 0 -12 1l-6 1q-88 11 -121 11zM306 228l18 75q11 41 0.5 56t-43.5 15q-28 0 -42.5 -14t-22.5 -52l-14 -68q-10 -50 -0.5 -64.5t37.5 -14.5q32 0 44.5 12t22.5 55
zM155 84h79q88 0 131 -9q63 -13 63 -90q0 -62 -52 -116q-75 -76 -235 -76q-68 0 -118.5 26.5t-50.5 78.5q0 35 28 58t66 32q-54 27 -54 84q0 33 25.5 63t59.5 47q-24 33 -24 67q0 39 28 75t65 54q52 24 108 24q97 0 157 -76q23 94 70 94q46 0 46 -44q0 -18 -10.5 -28.5
t-27.5 -10.5q-7 0 -20.5 5.5t-16.5 5.5q-11 0 -18 -19t-7 -31q0 -83 -60 -124t-147 -41q-60 0 -118 32q-4 -3 -13.5 -8.5t-14.5 -9t-9.5 -10.5t-4.5 -16q0 -37 75 -37z" />
    <glyph glyph-name="h" unicode="h" 
d="M16 0l152 645h-72l7 28h103q17 0 102 10l-94 -381l2 -2q42 54 78 78t95 24q40 0 65.5 -21t25.5 -56q0 -14 -14 -75l-48 -202q-2 -7 3 -12t13 -5q21 0 47 38t39 69l21 -8q-17 -40 -31 -59q-29 -39 -54 -57t-66 -18q-113 0 -88 110l45 191q11 46 11 60q0 6 -4.5 11.5
t-10.5 5.5q-41 0 -97 -69q-46 -57 -66 -147l-35 -158h-129z" />
    <glyph glyph-name="i" unicode="i" horiz-adv-x="278" 
d="M104 368h-72l7 28h103q17 0 51 2t51 2l-79 -333q-6 -20 -4 -30t16 -10q22 0 47.5 37.5t39.5 72.5l21 -10q-28 -71 -65 -106.5t-104 -35.5q-33 0 -57 15.5t-24 40.5q0 15 14 79zM203 641q28 0 49 -19t21 -47q0 -30 -20.5 -51t-49.5 -21q-27 0 -45.5 21.5t-18.5 50.5
q0 25 20 45.5t44 20.5z" />
    <glyph glyph-name="j" unicode="j" horiz-adv-x="333" 
d="M44 -111l111 479h-72l7 28h103q17 0 51 2t51 2l-109 -436q-14 -55 -39 -94t-55.5 -57t-57.5 -25.5t-55 -7.5q-39 0 -69.5 18.5t-30.5 55.5q0 23 15.5 39t37.5 16q25 0 40 -13.5t15 -38.5q0 -8 -3 -19.5t-3 -18.5q0 -11 14 -11q11 0 19 6t14 21t8.5 24t7.5 30zM326 579
q0 -29 -20.5 -50.5t-49.5 -21.5q-28 0 -46 22t-18 50q0 24 20 45t44 21q28 0 49 -19t21 -47z" />
    <glyph glyph-name="k" unicode="k" horiz-adv-x="500" 
d="M3 0l144 645h-72l7 28h103q17 0 102 10l-98 -435q25 14 66 14q10 14 32 48.5t36 52t40.5 34t58.5 16.5q29 0 46 -19t17 -48q0 -25 -16.5 -42t-41.5 -17q-19 0 -34 13t-15 31q0 3 3.5 15.5t3.5 17.5q0 9 -10 9q-11 0 -30 -24t-39 -54.5t-25 -36.5q47 -8 75 -37t28 -76
q0 -39 -9 -77q-8 -34 12 -34q21 0 52.5 35.5t41.5 60.5l18 -7q-23 -54 -63.5 -90.5t-92.5 -36.5q-39 0 -68 19t-29 56q0 27 17 74q16 43 16 69q0 21 -9 21q-2 0 -18 -16q-15 -15 -33 -15q-23 0 -36 14l-50 -218h-130z" />
    <glyph glyph-name="l" unicode="l" horiz-adv-x="278" 
d="M158 645h-72l7 28h103q17 0 102 10l-142 -615q-8 -39 12 -41q16 -1 36.5 21t31.5 42t21 42l21 -11q-29 -68 -64 -102t-97 -34q-38 0 -63 22t-25 61q0 10 9 46z" />
    <glyph glyph-name="m" unicode="m" horiz-adv-x="778" 
d="M234 400l-26 -110l2 -2q24 29 35.5 42t34.5 33.5t46.5 29.5t50.5 9q54 0 76 -33.5t12 -87.5l2 -2q75 123 168 123q40 0 65 -22t25 -61q0 -21 -14 -73l-36 -138q-14 -54 -14 -57q0 -17 15 -17q37 0 94 106l22 -9q-32 -64 -68 -99.5t-93 -35.5q-90 0 -90 69q0 15 15 75
l48 192q9 36 -9 36q-43 0 -95 -78t-70 -162l-27 -128h-130l75 320q7 21 5.5 34.5t-19.5 13.5t-50 -32q-71 -71 -92 -156l-46 -180h-129l85 368h-72l7 28h99q16 0 49 2t49 2z" />
    <glyph glyph-name="n" unicode="n" 
d="M257 400l-30 -106l2 -2q3 4 16.5 19.5t18 20.5t17 17.5t19.5 17.5t19.5 13.5t23 12t24 6.5t27.5 3q42 0 74 -25.5t20 -78.5l-58 -248q-1 -7 4.5 -13t12.5 -6q22 0 49 36.5t39 65.5l17 -5q-28 -68 -62.5 -100t-98.5 -32q-45 0 -70 23.5t-11 80.5l52 212q13 56 -13 56
q-6 0 -12 -2t-12 -6t-11 -7.5t-12 -10.5l-10.5 -10.5t-10.5 -11t-8 -8.5q-34 -37 -48.5 -67t-27.5 -84l-38 -161h-131l89 368h-72l7 28h103q17 0 51 2t51 2z" />
    <glyph glyph-name="o" unicode="o" 
d="M333 402q74 0 128.5 -48t54.5 -121q0 -80 -64.5 -149t-145.5 -89q-40 -10 -87 -10q-85 0 -131 49t-46 119q0 67 46 126t113 91t132 32zM322 374q-68 0 -90 -59q-10 -29 -32 -137.5t-22 -131.5q0 -33 62 -33q33 0 50.5 7.5t27.5 33.5q17 43 39.5 138t22.5 134q0 48 -58 48
z" />
    <glyph glyph-name="p" unicode="p" 
d="M339 374q-66 0 -117 -120q-31 -75 -31 -148q0 -37 17.5 -65t52.5 -28q14 0 26 9.5t16.5 18t13.5 26.5q25 52 48 141.5t23 133.5q0 16 -15 24t-34 8zM177 52l-53 -239h84l-5 -28h-285l5 28h70l122 555h-72l7 28h103q17 0 51 2t51 2q-17 -48 -30 -93l2 -2q20 41 54.5 69
t76.5 28q70 0 113 -44t43 -114q0 -54 -23 -104t-57.5 -83t-72 -52.5t-68.5 -19.5q-42 0 -67.5 15t-48.5 52z" />
    <glyph glyph-name="q" unicode="q" 
d="M300 374q-15 0 -26.5 -6t-20 -18.5t-13.5 -22t-11 -25.5q-20 -50 -40 -139.5t-20 -111.5q0 -19 7 -28.5t26 -9.5q51 0 90.5 51.5t57 112.5t17.5 111q0 31 -18.5 58.5t-48.5 27.5zM383 325l19 71h128l-139 -583h68l-5 -28h-257l6 28h64l58 259h-2q-23 -38 -61 -62.5
t-80 -24.5q-62 0 -100.5 46t-38.5 110q0 88 73 174.5t166 86.5q39 0 62 -19t39 -58z" />
    <glyph glyph-name="r" unicode="r" horiz-adv-x="389" 
d="M256 400l-29 -105l2 -2q1 2 17.5 24.5t24 31t23.5 24.5t30.5 22.5t30.5 6.5q27 0 42 -16t15 -43q0 -28 -14.5 -44t-41.5 -16q-23 0 -40 21q-2 2 -5.5 7.5t-5 7.5t-4.5 4t-7 2q-20 0 -51 -53q-29 -50 -44 -109l-40 -163h-128l85 368h-72l7 28h103q17 0 51 2t51 2z" />
    <glyph glyph-name="s" unicode="s" horiz-adv-x="389" 
d="M220 112l-114 88q-16 12 -23.5 28t-8 22t-0.5 21q0 50 44 90.5t116 40.5q42 0 79.5 -19t37.5 -57q0 -20 -12.5 -35t-32.5 -15q-46 0 -53 43q-2 9 5 39q1 5 -7.5 9t-17 5.5t-14.5 1.5q-63 0 -63 -35q0 -19 20 -33l100 -74q60 -44 60 -101q0 -69 -49.5 -107.5t-119.5 -38.5
q-32 0 -63 7t-57.5 29t-26.5 55q0 26 17 42.5t42 16.5q22 0 36.5 -15.5t14.5 -37.5q0 -9 -6.5 -26.5t-6.5 -22.5q0 -20 55 -20q80 0 80 47q0 28 -32 52z" />
    <glyph glyph-name="t" unicode="t" horiz-adv-x="333" 
d="M58 390h62l28 114q84 2 126 4l-26 -118h70l-5 -28h-72l-71 -292q-10 -40 13 -40q29 0 58.5 39t32.5 71l22 -6q-12 -64 -54 -101t-107 -37q-35 0 -62.5 18t-27.5 51q0 12 14 72l53 225h-60z" />
    <glyph glyph-name="u" unicode="u" 
d="M317 161l59 235h129l-79 -352q-3 -18 12 -18q24 0 50.5 35.5t36.5 65.5l21 -5q-18 -62 -57.5 -99.5t-99.5 -37.5q-33 0 -58 16t-25 48q0 11 3.5 32.5t3.5 25.5l-2 2q-36 -60 -74.5 -92t-98.5 -32q-35 0 -66.5 18t-31.5 51q0 8 5 28l67 286h-72l7 28h103q17 0 51 2t51 2
l-82 -333q-8 -33 -3.5 -40t17.5 -7q40 0 93 73q35 48 40 68z" />
    <glyph glyph-name="v" unicode="v" horiz-adv-x="444" 
d="M240 295l-32 -132q-22 -90 -22 -97q0 -14 12.5 -24.5t27.5 -10.5q42 0 81 46.5t59.5 104t20.5 98.5q0 10 -13 10q-4 0 -11 -1t-11 -1q-24 0 -40.5 15.5t-16.5 40.5q0 26 16.5 42t41.5 16q34 0 53.5 -28t19.5 -64q0 -62 -35.5 -142.5t-80.5 -125.5q-57 -57 -144 -57
q-43 0 -74.5 25t-31.5 68q0 14 13 68l35 143q12 48 12 66q0 9 -14 9q-21 0 -47.5 -39t-34.5 -66l-23 5q18 55 55 96.5t88 41.5q54 0 80 -33t16 -74z" />
    <glyph glyph-name="w" unicode="w" horiz-adv-x="667" 
d="M497 396l-46 -192q-14 -55 -14 -112q0 -65 39 -65q28 0 60.5 38t54 93t21.5 100v5v6.5v6.5t-1 6.5t-2.5 5t-4 4t-6.5 1.5q-3 0 -9.5 1t-10.5 1q-24 0 -36 15t-12 37q0 21 17 38t37 17q36 0 51 -27.5t12 -69.5q-12 -148 -74 -234t-144 -86q-44 0 -73.5 32t-29.5 92
q0 15 3.5 42t3.5 31l-2 2q-48 -100 -77 -136q-37 -44 -78 -58q-15 -5 -43 -5q-37 0 -65.5 21.5t-28.5 56.5q0 13 17 72l44 149q13 43 13 55q0 13 -13 13q-6 0 -12 -4t-13.5 -12t-13 -14.5t-13 -18.5t-11 -17.5t-10.5 -17.5l-7 -12l-20 14q16 27 27 44t30.5 40.5t42 35.5
t46.5 12q41 0 62.5 -25t21.5 -62q0 -22 -9 -53l-53 -194q-4 -15 -4.5 -24.5t3 -13t6 -4t8.5 -0.5q41 0 103 113q46 84 66 167l21 90h126z" />
    <glyph glyph-name="x" unicode="x" horiz-adv-x="500" 
d="M78 241l-21 8q12 30 23.5 51.5t30 47.5t42.5 40t52 14q19 0 34.5 -8.5t23.5 -17.5t16.5 -30.5t11 -30t8.5 -33.5q2 3 17 26t23.5 34t23 28t29.5 24.5t30 7.5q25 0 41.5 -14.5t16.5 -39.5q0 -55 -55 -55q-13 0 -33 12q-18 11 -22 11q-17 -2 -39.5 -33.5t-20.5 -44.5
l34 -150q1 -3 2 -9t2 -9t2.5 -8t2.5 -7.5t3 -5.5t4 -5t5 -3t7 -1q15 0 40 38.5t32 60.5l22 -7q-22 -61 -59.5 -104t-90.5 -43q-14 0 -25.5 2.5t-21 9.5t-16.5 12t-13.5 18t-10 18t-8 22.5t-6 21.5t-6 23.5t-4.5 21.5q-3 -5 -19 -35.5t-24.5 -42.5t-25.5 -33t-36 -29.5
t-41 -8.5q-25 0 -38.5 18.5t-13.5 44.5q0 21 15.5 37t36.5 16q17 0 46 -16q2 -1 5.5 -3t5.5 -4t4.5 -3t3.5 -1q10 0 37 34t35 59l-37 158q-3 10 -11 10q-10 0 -21.5 -12.5t-19.5 -26.5t-17.5 -32.5t-11.5 -22.5z" />
    <glyph glyph-name="y" unicode="y" horiz-adv-x="500" 
d="M256 324l53 -185l67 182q1 3 5 14t6 16t6.5 14.5t9 14.5t10.5 11t13.5 8.5t15.5 2.5q21 0 33.5 -13.5t12.5 -35.5t-10.5 -39t-31.5 -17q-4 0 -13.5 4.5t-13.5 4.5q-14 3 -30 -40l-104 -268q-84 -213 -201 -213q-30 0 -50.5 19t-20.5 49q0 26 16 43.5t42 17.5
q25 0 41.5 -15.5t11.5 -38.5t16 -23q15 0 49 43.5t38 62.5q4 16 4 24q0 11 -13 53l-82 243q-1 3 -3.5 12t-5 16t-6 15.5t-8 13t-10.5 4.5q-5 0 -10 -3.5t-10.5 -9.5t-10 -12.5t-10 -15.5t-9 -14.5t-7.5 -13.5t-5 -9l-22 9q20 53 59.5 100t85.5 47q15 0 25.5 -2t24 -9
t24.5 -24t18 -43z" />
    <glyph glyph-name="z" unicode="z" horiz-adv-x="444" 
d="M86 106l236 191l-2 2q-78 -30 -152 -30q-36 0 -75 11q-15 -32 -30 -59l-21 11l80 170q107 -45 216 -45q30 0 32 11q7 34 34 34q16 0 16 -21q0 -35 -57 -80l-231 -189l2 -2q29 6 78 6q28 0 76 -14q46 -14 56 -14q35 0 35 27q0 5 -4 6.5t-12 0.5l-8 -1q-19 0 -30.5 11
t-11.5 30q0 18 11.5 30t30.5 12q52 0 52 -72q0 -57 -44 -102t-101 -45q-40 0 -94 24q-54 25 -72 25q-5 0 -8 -1t-4 -3.5t-1.5 -4t0 -6t0.5 -6.5q0 -24 -25 -28q-14 -2 -23 9.5t-9 26.5q0 36 60 85z" />
    <glyph glyph-name="braceleft" unicode="{" horiz-adv-x="333" 
d="M81 -78l40 194q7 32 7 43t-8 37q-12 29 -44 37l1 2q45 11 63.5 36t29.5 79l36 174q18 90 52 122q19 18 47 27t41.5 9.5t47.5 0.5l-1 -3q-40 -13 -61 -41t-31 -78l-38 -182q-14 -65 -35.5 -99t-69.5 -45l-1 -2q42 -12 51.5 -47t-4.5 -88l-40 -196q-12 -49 -2.5 -77.5
t45.5 -42.5l-1 -2h-20.5h-21.5t-18 1.5t-20 4t-16.5 7.5t-17.5 12q-30 32 -11 117z" />
    <glyph glyph-name="bar" unicode="|" horiz-adv-x="606" 
d="M240 -250v1000h81v-1000h-81z" />
    <glyph glyph-name="braceright" unicode="}" horiz-adv-x="333" 
d="M313 541l-40 -194q-7 -32 -7 -43t8 -37q12 -29 44 -37l-1 -2q-45 -11 -63.5 -36t-29.5 -79l-36 -174q-18 -90 -52 -122q-19 -18 -47 -27t-41.5 -9.5t-47.5 -0.5l1 3q40 13 61 41t31 78l38 182q14 65 35.5 99t69.5 45l1 2q-42 12 -51.5 47t4.5 88l40 196q12 49 2.5 77.5
t-45.5 42.5l1 2h20.5h21.5t18 -1.5t20 -4t16.5 -7.5t17.5 -12q30 -32 11 -117z" />
    <glyph glyph-name="asciitilde" unicode="~" horiz-adv-x="500" 
d="M446 301l63 -40q-19 -27 -28.5 -39t-28.5 -30.5t-39.5 -26.5t-45.5 -8q-31 0 -88 21l-42 16q-56 22 -77 22q-9 0 -17.5 -2t-16 -7t-12.5 -9t-12 -13t-10 -13t-10 -15t-9 -14l-62 41q31 51 65 80t82 29q38 0 113 -29q77 -29 96 -29q8 0 15 2t14 6.5t12 8.5t11.5 12t9 11.5
t9.5 13.5t8 12z" />
    <glyph glyph-name="uni00A0" unicode="&#xa0;" horiz-adv-x="305" 
 />
    <glyph glyph-name="exclamdown" unicode="&#xa1;" horiz-adv-x="389" 
d="M190 242h30q-26 -112 -26 -225q0 -24 2 -72.5t2 -73.5q0 -41 -24 -66t-64 -25q-32 0 -49.5 21.5t-17.5 53.5q0 17 15 47q8 17 24 49.5t24 48.5q25 52 84 242zM231 462q33 0 58 -24.5t25 -57.5q0 -34 -24.5 -58t-58.5 -24t-58 24.5t-24 57.5t24.5 57.5t57.5 24.5z" />
    <glyph glyph-name="cent" unicode="&#xa2;" horiz-adv-x="611" 
d="M249 26l131 267q-2 10 -2 16q0 9 4 17.5t8.5 14t4.5 6.5q0 12 -10 20.5t-22 8.5q-36 0 -68 -56t-48.5 -128t-16.5 -131q0 -23 19 -35zM427 390l57 115h40l-64 -130q41 -22 41 -66q0 -28 -16 -46t-45 -18q-24 0 -37 13l-118 -241h1q102 0 173 95l17 -14
q-84 -110 -206 -111l-61 -125h-40l63 129q-59 11 -98 55t-39 106q0 90 81.5 169t186.5 79q33 0 64 -10z" />
    <glyph glyph-name="sterling" unicode="&#xa3;" horiz-adv-x="611" 
d="M126 131q-27 0 -47.5 -16.5t-25.5 -43.5q-6 -29 8 -43.5t43 -14.5q27 0 55.5 15t48.5 39q-22 64 -82 64zM187 325h-95l10 50h85q1 36 9 72q22 106 102 162t168 56q75 0 127 -36t38 -106q-7 -33 -32 -55.5t-57 -22.5q-31 0 -48.5 18.5t-10.5 49.5q4 23 32 51q26 24 29 38
q4 17 -17.5 25t-42.5 8q-76 0 -103.5 -37t-17.5 -132q8 -70 8 -91h113l-10 -50h-109q1 -18 -7 -54q-14 -71 -68 -147q37 -10 85 -10q73 0 111.5 30.5t63.5 105.5h31q-56 -265 -236 -265q-66 0 -118 54q-66 -54 -134 -54q-45 0 -70 21.5t-16 64.5q8 40 44.5 67t76.5 27
q26 0 60.5 -14.5t36.5 -14.5q10 44 -19 134q-3 11 -10 29.5t-9 25.5z" />
    <glyph glyph-name="currency" unicode="&#xa4;" horiz-adv-x="611" 
d="M92 153l36 37q-39 58 -39 124q0 71 39 127l-36 36l50 52l37 -37q54 40 130 40q65 0 123 -40l37 37l51 -52l-37 -36q39 -59 39 -131q0 -61 -39 -120l37 -37l-51 -51l-37 37q-58 -41 -130 -41q-65 0 -123 41l-37 -37zM308 188q51 0 87.5 38.5t36.5 89.5t-36 88.5t-87 37.5
q-56 0 -93 -36.5t-37 -92.5q0 -53 38 -89t91 -36z" />
    <glyph glyph-name="yen" unicode="&#xa5;" horiz-adv-x="611" 
d="M280 635l88 -270l166 244q7 11 0.5 18.5t-21.5 7.5h-53l6 30h191l-6 -30h-34q-20 0 -32.5 -9.5t-36.5 -45.5l-173 -255l-10 -47h122l-9 -44h-122l-9 -44h122l-10 -44h-122l-24 -116h80l-6 -30h-307l6 30h76l24 116h-121l10 44h121l9 44h-121l9 44h121l4 22l-103 335h-56
l6 30h288l-6 -30h-67z" />
    <glyph glyph-name="brokenbar" unicode="&#xa6;" horiz-adv-x="606" 
d="M240 -175v350h81v-350h-81zM240 325v350h81v-350h-81z" />
    <glyph glyph-name="section" unicode="&#xa7;" horiz-adv-x="500" 
d="M248 28q-34 29 -81 77t-66 75q-30 44 -19 106q12 59 53 92t97 28l2 10q-12 12 -18.5 20t-15 20t-12.5 21.5t-7.5 22.5t-3 27.5t3.5 30.5q13 63 64.5 94t105.5 31q48 0 87.5 -26t30.5 -70q-6 -26 -25 -44.5t-45 -18.5q-23 0 -36 16t-9 38q2 10 8.5 18.5t22 20.5t16.5 13
q7 5 4 15q-9 20 -49 20q-37 0 -66 -19.5t-36 -54.5q-6 -29 16.5 -57.5t103.5 -100.5q49 -43 67 -92.5t10 -86.5q-12 -56 -51.5 -87.5t-94.5 -30.5l-2 -10q69 -60 53 -135q-13 -65 -67 -98t-121 -33q-50 0 -90 26t-30 73q14 62 75 62q21 0 34 -15t9 -36q-5 -21 -28 -37.5
t-24 -20.5q-3 -15 19.5 -23.5t41.5 -8.5q38 0 65.5 18.5t34.5 55.5q9 43 -27 74zM226 387q-26 0 -47 -18.5t-26 -44.5q-2 -11 1 -24t7 -21.5t14.5 -22.5t15 -19t18 -18.5l14.5 -14.5q47 -49 80 -49q27 0 48.5 18.5t27.5 45.5q1 6 1.5 11t-1 11l-2.5 10t-5 10t-5 8.5t-6 9.5
t-6 8t-7 9l-6 7q-72 84 -116 84z" />
    <glyph glyph-name="dieresis" unicode="&#xa8;" horiz-adv-x="333" 
d="M271 533q-25 0 -43.5 20t-18.5 45q0 26 18.5 45.5t43.5 19.5q26 0 45.5 -19t19.5 -46t-19 -46t-46 -19zM60 533q-25 0 -43.5 20t-18.5 45q0 26 18.5 45.5t43.5 19.5q26 0 45.5 -19t19.5 -46t-19 -46t-46 -19z" />
    <glyph glyph-name="copyright" unicode="&#xa9;" horiz-adv-x="747" 
d="M377 -15q-140 0 -240 103.5t-100 246.5q0 144 99.5 246t241.5 102q144 0 245 -100.5t101 -247.5t-102 -248.5t-245 -101.5zM378 623q-115 0 -198 -85t-83 -202q0 -121 84 -206t202 -85q116 0 198.5 86.5t82.5 204.5q0 119 -83.5 203t-202.5 84zM472 494l19 18h19v-95h-17
q-18 42 -42.5 65t-68.5 23q-29 0 -43 -10t-21 -44t-7 -106q0 -106 11 -136t61 -30q84 0 116 92h20v-101h-22l-20 18q-49 -26 -91 -26q-77 0 -131.5 53t-54.5 130q0 54 54.5 114.5t125.5 60.5q52 0 92 -26z" />
    <glyph glyph-name="ordfeminine" unicode="&#xaa;" horiz-adv-x="334" 
d="M247 666q-36 0 -62 -96q-22 -70 -22 -95t26 -25q40 0 69 62t29 106q0 18 -10.5 33t-29.5 15zM300 638l14 42h72l-56 -194q-6 -21 9 -21q25 0 56 65l14 -5q-13 -25 -22.5 -39.5t-30 -30t-43.5 -15.5q-41 0 -51 51q-38 -58 -91 -58q-40 0 -64 27t-24 65q0 48 31.5 90
t79.5 60q19 8 38 8q47 0 68 -45z" />
    <glyph glyph-name="guillemotleft" unicode="&#xab;" horiz-adv-x="500" 
d="M242 222l168 125q15 11 20 11q8 0 8 -9q0 -21 -36 -57l-87 -91l39 -69q28 -49 28 -69q0 -9 -9 -9q-10 0 -30 22l-103 113l-6 6l-7 7t-3 5t3 4.5t8 5.5t7 5zM104 222l168 125q15 11 20 11q8 0 8 -9q0 -21 -36 -57l-87 -91l39 -69q28 -49 28 -69q0 -9 -9 -9q-10 0 -30 22
l-103 113l-6 6l-7 7t-3 5t3 4.5t8 5.5t7 5z" />
    <glyph glyph-name="logicalnot" unicode="&#xac;" horiz-adv-x="500" 
d="M392 62v188h-363v81h443v-269h-80z" />
    <glyph glyph-name="uni00AD" unicode="&#xad;" horiz-adv-x="333" 
d="M309 150h-285l20 102h285z" />
    <glyph glyph-name="registered" unicode="&#xae;" horiz-adv-x="747" 
d="M377 -15q-140 0 -240 103.5t-100 246.5q0 144 99.5 246t241.5 102q144 0 245 -100.5t101 -247.5t-102 -248.5t-245 -101.5zM378 623q-115 0 -198 -85t-83 -202q0 -121 84 -206t202 -85q116 0 198.5 86.5t82.5 204.5q0 119 -83.5 203t-202.5 84zM388 178v-16h-183v16h44
v325h-45v17h221q47 0 80.5 -22t33.5 -65q0 -39 -38.5 -58t-86.5 -23v-2q59 -10 84.5 -32.5t25.5 -61.5q0 -61 11 -72q9 -9 43 -1l3 -12q-32 -16 -65 -16q-51 0 -71 24.5t-22 86.5q0 48 -11.5 63t-46.5 15h-24v-166h47zM341 503v-142h23q44 0 58.5 9.5t14.5 37.5v52v9v8.5
t-1 7t-3 6.5t-6 5t-10 4t-15 2t-21 1h-40z" />
    <glyph glyph-name="macron" unicode="&#xaf;" horiz-adv-x="333" 
d="M332 596h-331v72h331v-72z" />
    <glyph glyph-name="degree" unicode="&#xb0;" horiz-adv-x="400" 
d="M370 515q0 -62 -44 -106t-106 -44t-106 44t-44 106q-1 61 43.5 105.5t106.5 44.5t106 -44.5t44 -105.5zM219 609q-38 0 -66 -28t-27 -66q0 -39 27.5 -66.5t66.5 -27.5t67 27.5t27 66.5q1 38 -27.5 66t-67.5 28z" />
    <glyph glyph-name="plusminus" unicode="&#xb1;" horiz-adv-x="500" 
d="M29 322h181v122h81v-122h181v-81h-181v-123h-81v123h-181v81zM472 0h-443v81h443v-81z" />
    <glyph glyph-name="twosuperior" unicode="&#xb2;" horiz-adv-x="366" 
d="M318 266h-280v53q16 11 54.5 35t63.5 41.5t55 42.5t47.5 52.5t21.5 57.5q2 20 2 29q0 35 -16 51.5t-54 16.5q-21 0 -48.5 -12.5t-27.5 -30.5q0 -11 11 -11q3 0 8 0.5t7 0.5q16 0 26.5 -9.5t10.5 -24.5q0 -18 -12 -29.5t-31 -11.5q-24 0 -39.5 16t-15.5 38q0 44 42.5 69
t91.5 25q63 0 107.5 -23.5t44.5 -78.5q0 -72 -118 -133q-25 -13 -81 -44.5t-87 -47.5v-1h185q29 0 36 15l13 36h20z" />
    <glyph glyph-name="threesuperior" unicode="&#xb3;" horiz-adv-x="366" 
d="M239 477v-2q37 -4 63 -11t47.5 -28t21.5 -54q0 -42 -34.5 -72t-78 -41.5t-88.5 -11.5q-44 0 -78 20t-34 57q0 21 13 35.5t35 14.5q19 0 31.5 -11.5t12.5 -29.5q0 -19 -19 -28q-20 -11 -21 -17q-2 -10 10.5 -16t24 -7.5t22.5 -1.5q36 0 59 24t31 53t8 62q0 24 -14 38.5
t-40 14.5q-8 0 -24.5 -2t-23.5 -2q-18 0 -18 13q0 5 3 7.5t8 3t9.5 0.5t10 -0.5t7.5 -0.5q40 0 64 18q44 34 44 103q0 25 -13 34.5t-40 9.5q-11 0 -19.5 -1.5t-13.5 -3.5t-8 -4t-5.5 -5t-3.5 -4q-3 -5 2 -7q28 -14 28 -37q0 -16 -11.5 -26.5t-28.5 -10.5q-19 0 -31 11.5
t-12 29.5q0 38 38.5 56t84.5 18q50 0 90.5 -20t40.5 -62q0 -22 -10.5 -39t-23.5 -27t-36.5 -19t-38.5 -12.5t-41 -8.5z" />
    <glyph glyph-name="acute" unicode="&#xb4;" horiz-adv-x="333" 
d="M285 586l-137 -88h-61l97 111q4 5 15.5 19t18 21t17.5 16.5t22.5 13.5t24.5 4q18 0 31 -13t13 -31q0 -13 -7 -23.5t-13.5 -15.5t-20.5 -14z" />
    <glyph glyph-name="mu" unicode="&#xb5;" 
d="M317 161l59 235h129l-79 -352q-3 -18 12 -18q24 0 50.5 35.5t36.5 65.5l21 -5q-18 -62 -57.5 -99.5t-99.5 -37.5q-33 0 -58 16t-25 48q0 11 3.5 32.5t3.5 25.5l-2 2q-34 -57 -71 -87.5t-88 -33.5q-17 -1 -26.5 -13.5t-7.5 -30.5q5 -46 -8 -98q-6 -25 -21.5 -45.5
t-40.5 -20.5q-23 0 -34.5 31.5t-7.5 54.5q10 56 32 92q19 33 12 50q-14 33 -5 74l67 286h-72l7 28h103q17 0 51 2t51 2l-82 -333q-8 -33 -3.5 -40t17.5 -7q40 0 93 73q35 48 40 68z" />
    <glyph glyph-name="paragraph" unicode="&#xb6;" 
d="M604 683l-20 -68h-76l-221 -754h-60l221 754h-77l-221 -755h-60l113 384l-14 2q-14 3 -25 5.5t-28 12.5t-29 23.5t-22 39t-12 57.5q-4 63 23.5 121.5t70.5 96t90 59.5t84 22h263z" />
    <glyph glyph-name="periodcentered" unicode="&#xb7;" horiz-adv-x="333" 
d="M153 304q33 0 58 -24.5t25 -57.5q0 -34 -24.5 -58t-58.5 -24t-58 24.5t-24 57.5t24.5 57.5t57.5 24.5z" />
    <glyph glyph-name="cedilla" unicode="&#xb8;" horiz-adv-x="333" 
d="M103 -104l-10 8l42 96h42l-28 -64q14 5 35 5q39 0 63 -18t24 -56q0 -25 -14 -42.5t-36.5 -26.5t-44 -12.5t-44.5 -3.5q-42 0 -88 18l16 37q30 -13 72 -13q18 0 31.5 11.5t13.5 28.5q0 18 -12.5 27t-30.5 9t-31 -4z" />
    <glyph glyph-name="onesuperior" unicode="&#xb9;" horiz-adv-x="366" 
d="M340 665l-95 -381h89l-5 -18h-263l4 18h79l83 332q3 8 -5 11.5t-23 3.5h-61l5 18z" />
    <glyph glyph-name="ordmasculine" unicode="&#xba;" horiz-adv-x="334" 
d="M293 683q48 0 83.5 -28.5t35.5 -72.5q0 -48 -42 -89.5t-94 -53.5q-25 -6 -57 -6q-55 0 -85 29.5t-30 71.5q0 60 61 104.5t128 44.5zM286 666q-45 0 -59 -35q-7 -17 -21 -82t-14 -79q0 -20 41 -20q21 0 32.5 4.5t17.5 19.5q11 26 26 83.5t15 80.5q0 28 -38 28z" />
    <glyph glyph-name="guillemotright" unicode="&#xbb;" horiz-adv-x="500" 
d="M242 190l-168 -125q-15 -11 -20 -11q-8 0 -8 9q0 21 36 57l87 91l-39 69q-28 49 -28 69q0 9 9 9q10 0 30 -22l103 -113l6 -6l7 -7t3 -5t-3 -4.5t-8 -5.5t-7 -5zM404 190l-168 -125q-15 -11 -20 -11q-8 0 -8 9q0 21 36 57l87 91l-39 69q-28 49 -28 69q0 9 9 9q10 0 30 -22
l103 -113l6 -6l7 -7t3 -5t-3 -4.5t-8 -5.5t-7 -5z" />
    <glyph glyph-name="onequarter" unicode="&#xbc;" horiz-adv-x="916" 
d="M465 110v32l278 257h57l-67 -271h50q13 0 17.5 7t7 20.5t5.5 19.5h15l-26 -113h-17q1 3 3.5 11.5t3.5 13t1 11t-4 9.5t-12 3h-48l-22 -92h59l-5 -18h-207l5 18h50l24 92h-168zM749 665l-448 -665h-53l448 665h53zM484 128h156l50 199zM362 665l-95 -381h89l-5 -18h-263
l4 18h79l83 332q3 8 -5 11.5t-23 3.5h-61l5 18z" />
    <glyph glyph-name="onehalf" unicode="&#xbd;" horiz-adv-x="916" 
d="M719 665l-448 -665h-53l448 665h53zM362 665l-95 -381h89l-5 -18h-263l4 18h79l83 332q3 8 -5 11.5t-23 3.5h-61l5 18zM479 0v53q16 11 54.5 35t63.5 41.5t55 42.5t47.5 52.5t21.5 57.5q2 20 2 29q0 35 -16 51.5t-54 16.5q-21 0 -48.5 -12.5t-27.5 -30.5q0 -11 11 -11
q2 0 7 0.5t8 0.5q16 0 26.5 -9.5t10.5 -24.5q0 -18 -12 -29.5t-31 -11.5q-24 0 -39.5 16t-15.5 38q0 44 42.5 69t91.5 25q63 0 107.5 -23.5t44.5 -78.5q0 -72 -118 -133q-25 -13 -81 -44.5t-87 -47.5v-1h185q29 0 36 15l13 36h20l-37 -122h-280z" />
    <glyph glyph-name="threequarters" unicode="&#xbe;" horiz-adv-x="916" 
d="M465 110v32l278 257h57l-67 -271h50q13 0 17.5 7t7 20.5t5.5 19.5h15l-26 -113h-17q1 3 3.5 11.5t3.5 13t1 11t-4 9.5t-12 3h-48l-22 -92h59l-5 -18h-207l5 18h50l24 92h-168zM745 665l-448 -665h-53l448 665h53zM484 128h156l50 199zM269 477v-2q37 -4 63 -11t47.5 -28
t21.5 -54q0 -42 -34.5 -72t-78 -41.5t-88.5 -11.5q-44 0 -78 20t-34 57q0 21 13 35.5t35 14.5q19 0 31.5 -11.5t12.5 -29.5q0 -19 -19 -28q-20 -11 -21 -17q-2 -10 10.5 -16t24 -7.5t22.5 -1.5q36 0 59 24t31 53t8 62q0 24 -14 38.5t-40 14.5q-8 0 -24.5 -2t-23.5 -2
q-18 0 -18 13q0 5 3 7.5t8 3t9.5 0.5t10 -0.5t7.5 -0.5q40 0 64 18q44 34 44 103q0 25 -13 34.5t-40 9.5q-11 0 -19.5 -1.5t-13.5 -3.5t-8 -4t-5.5 -5t-3.5 -4q-3 -5 2 -7q28 -14 28 -37q0 -16 -11.5 -26.5t-28.5 -10.5q-19 0 -31 11.5t-12 29.5q0 38 38.5 56t84.5 18
q50 0 90.5 -20t40.5 -62q0 -22 -10.5 -39t-23.5 -27t-36.5 -19t-38.5 -12.5t-41 -8.5z" />
    <glyph glyph-name="questiondown" unicode="&#xbf;" horiz-adv-x="500" 
d="M302 256h21q2 -97 -19 -149.5t-97 -92.5q-3 -2 -14 -7.5t-14.5 -7.5t-12.5 -7t-13.5 -8.5t-11 -9t-11.5 -11t-10 -12.5q-16 -22 -16 -55q0 -44 31 -68t77 -24q45 0 70 22q17 12 6 19q-16 9 -25 15.5t-16 19t-7 28.5q0 29 17.5 47.5t46.5 18.5q31 0 49.5 -21t18.5 -52
q0 -41 -48.5 -81t-115.5 -40q-78 0 -132 46t-54 122q0 60 37 108.5t85 70.5q70 32 104 49q29 14 38 29t16 51zM331 462q33 0 58 -24.5t25 -57.5q0 -34 -24.5 -58t-58.5 -24t-58 24.5t-24 57.5t24.5 57.5t57.5 24.5z" />
    <glyph glyph-name="Agrave" unicode="&#xc0;" horiz-adv-x="611" 
d="M124 0h-177l7 30q32 0 58 26q32 32 100 149l279 478h37l70 -653h73l-7 -30h-304l7 30h69l-14 162h-181l-70 -118q-11 -18 -11 -25q0 -19 22 -19h49zM297 459l-137 -237h158zM435 764l-137 88q-14 9 -20.5 14t-13.5 15.5t-7 23.5q0 18 13 31t31 13q13 0 24.5 -4
t22.5 -13.5t17.5 -16.5t18 -21t15.5 -19l97 -111h-61z" />
    <glyph glyph-name="Aacute" unicode="&#xc1;" horiz-adv-x="611" 
d="M124 0h-177l7 30q32 0 58 26q32 32 100 149l279 478h37l70 -653h73l-7 -30h-304l7 30h69l-14 162h-181l-70 -118q-11 -18 -11 -25q0 -19 22 -19h49zM297 459l-137 -237h158zM524 852l-137 -88h-61l97 111q4 5 15.5 19t18 21t17.5 16.5t22.5 13.5t24.5 4q18 0 31 -13
t13 -31q0 -13 -7 -23.5t-13.5 -15.5t-20.5 -14z" />
    <glyph glyph-name="Acircumflex" unicode="&#xc2;" horiz-adv-x="611" 
d="M124 0h-177l7 30q32 0 58 26q32 32 100 149l279 478h37l70 -653h73l-7 -30h-304l7 30h69l-14 162h-181l-70 -118q-11 -18 -11 -25q0 -19 22 -19h49zM297 459l-137 -237h158zM241 760l157 174h93l87 -174l-3 -2h-56l-90 98l-136 -98h-51z" />
    <glyph glyph-name="Atilde" unicode="&#xc3;" horiz-adv-x="611" 
d="M124 0h-177l7 30q32 0 58 26q32 32 100 149l279 478h37l70 -653h73l-7 -30h-304l7 30h69l-14 162h-181l-70 -118q-11 -18 -11 -25q0 -19 22 -19h49zM297 459l-137 -237h158zM546 889h43q-30 -126 -121 -126q-33 0 -85 24q-50 24 -72 24q-16 0 -29 -14t-16 -33h-42
q7 52 37.5 88.5t80.5 36.5q31 0 83 -24q52 -25 69 -25q21 0 31.5 12.5t20.5 36.5z" />
    <glyph glyph-name="Adieresis" unicode="&#xc4;" horiz-adv-x="611" 
d="M124 0h-177l7 30q32 0 58 26q32 32 100 149l279 478h37l70 -653h73l-7 -30h-304l7 30h69l-14 162h-181l-70 -118q-11 -18 -11 -25q0 -19 22 -19h49zM297 459l-137 -237h158zM520 779q-25 0 -43.5 20t-18.5 45q0 26 18.5 45.5t43.5 19.5q26 0 45.5 -19t19.5 -46t-19 -46
t-46 -19zM309 779q-25 0 -43.5 20t-18.5 45q0 26 18.5 45.5t43.5 19.5q26 0 45.5 -19t19.5 -46t-19 -46t-46 -19z" />
    <glyph glyph-name="Aring" unicode="&#xc5;" horiz-adv-x="611" 
d="M124 0h-177l7 30q32 0 58 26q32 32 100 149l279 478h37l70 -653h73l-7 -30h-304l7 30h69l-14 162h-181l-70 -118q-11 -18 -11 -25q0 -19 22 -19h49zM297 459l-137 -237h158zM415 701q-44 0 -75 31.5t-31 75.5q0 43 31.5 74.5t74.5 31.5q44 0 75.5 -31t31.5 -75
q0 -45 -31.5 -76t-75.5 -31zM415 865q-23 0 -40.5 -17t-17.5 -40t17.5 -40.5t40.5 -17.5t41 17.5t18 40.5t-18 40t-41 17z" />
    <glyph glyph-name="AE" unicode="&#xc6;" horiz-adv-x="944" 
d="M256 330h163l66 308h-34zM234 300l-148 -238q-9 -14 1.5 -23t24.5 -9h38l-6 -30h-162l7 30q14 0 28.5 8.5t29 26.5t22.5 29t21 32l224 358q23 37 32.5 65.5t7 44.5t-13 26.5t-23 14t-27.5 3.5h-31l7 30h657l-27 -188h-36q-1 53 -11 85.5t-33 48t-48.5 20t-68.5 4.5h-53
l-55 -273h30q15 0 32.5 7.5t42 35t40.5 72.5h36l-58 -279h-37v34.5t-2 29t-6 29.5t-12 20t-21 16.5t-31 4.5h-22l-60 -305h48q107 0 165.5 44t107.5 149h33l-49 -223h-549l7 30h73l54 270h-179z" />
    <glyph glyph-name="Ccedilla" unicode="&#xc7;" horiz-adv-x="667" 
d="M617 479l-36 4q-6 67 -37.5 118.5t-93.5 51.5q-31 0 -50.5 -8.5t-40.5 -31.5q-42 -46 -85 -232q-42 -176 -42 -269q0 -59 24.5 -78t84.5 -19q74 0 125 48.5t92 129.5l36 -7l-47 -186h-22l-31 39q-64 -54 -168 -54q-12 0 -18 2l-22 -51q14 5 35 5q39 0 63 -18t24 -56
q0 -25 -14 -42.5t-36.5 -26.5t-44 -12.5t-44.5 -3.5q-42 0 -88 18l16 37q30 -13 72 -13q18 0 31.5 11.5t13.5 28.5q0 18 -12.5 27t-30.5 9t-31 -4l-10 8l39 88q-94 16 -151 84.5t-57 170.5q0 147 123 288q50 59 123.5 103.5t139.5 44.5q67 0 131 -55l46 40h21z" />
    <glyph glyph-name="Egrave" unicode="&#xc8;" horiz-adv-x="667" 
d="M547 0h-551l6 30h73l125 608h-78l6 30h516l-27 -188h-36q-1 53 -11 85.5t-33 48t-48.5 20t-68.5 4.5h-53l-56 -273h30q15 0 32.5 7.5t42 35t40.5 72.5h36l-58 -279h-37v34.5t-2 29t-6 29.5t-12 20t-21 16.5t-31 4.5h-22l-61 -305h48q107 0 165.5 44t107.5 149h33z
M463 764l-137 88q-14 9 -20.5 14t-13.5 15.5t-7 23.5q0 18 13 31t31 13q13 0 24.5 -4t22.5 -13.5t17.5 -16.5t18 -21t15.5 -19l97 -111h-61z" />
    <glyph glyph-name="Eacute" unicode="&#xc9;" horiz-adv-x="667" 
d="M547 0h-551l6 30h73l125 608h-78l6 30h516l-27 -188h-36q-1 53 -11 85.5t-33 48t-48.5 20t-68.5 4.5h-53l-56 -273h30q15 0 32.5 7.5t42 35t40.5 72.5h36l-58 -279h-37v34.5t-2 29t-6 29.5t-12 20t-21 16.5t-31 4.5h-22l-61 -305h48q107 0 165.5 44t107.5 149h33z
M552 852l-137 -88h-61l97 111q4 5 15.5 19t18 21t17.5 16.5t22.5 13.5t24.5 4q18 0 31 -13t13 -31q0 -13 -7 -23.5t-13.5 -15.5t-20.5 -14z" />
    <glyph glyph-name="Ecircumflex" unicode="&#xca;" horiz-adv-x="667" 
d="M547 0h-551l6 30h73l125 608h-78l6 30h516l-27 -188h-36q-1 53 -11 85.5t-33 48t-48.5 20t-68.5 4.5h-53l-56 -273h30q15 0 32.5 7.5t42 35t40.5 72.5h36l-58 -279h-37v34.5t-2 29t-6 29.5t-12 20t-21 16.5t-31 4.5h-22l-61 -305h48q107 0 165.5 44t107.5 149h33z
M289 760l157 174h93l87 -174l-3 -2h-56l-90 98l-136 -98h-51z" />
    <glyph glyph-name="Edieresis" unicode="&#xcb;" horiz-adv-x="667" 
d="M547 0h-551l6 30h73l125 608h-78l6 30h516l-27 -188h-36q-1 53 -11 85.5t-33 48t-48.5 20t-68.5 4.5h-53l-56 -273h30q15 0 32.5 7.5t42 35t40.5 72.5h36l-58 -279h-37v34.5t-2 29t-6 29.5t-12 20t-21 16.5t-31 4.5h-22l-61 -305h48q107 0 165.5 44t107.5 149h33z
M548 779q-25 0 -43.5 20t-18.5 45q0 26 18.5 45.5t43.5 19.5q26 0 45.5 -19t19.5 -46t-19 -46t-46 -19zM337 779q-25 0 -43.5 20t-18.5 45q0 26 18.5 45.5t43.5 19.5q26 0 45.5 -19t19.5 -46t-19 -46t-46 -19z" />
    <glyph glyph-name="Igrave" unicode="&#xcc;" horiz-adv-x="444" 
d="M387 638l-127 -608h81l-7 -30h-318l7 30h70l125 608h-80l7 30h316l-7 -30h-67zM342 764l-137 88q-14 9 -20.5 14t-13.5 15.5t-7 23.5q0 18 13 31t31 13q13 0 24.5 -4t22.5 -13.5t17.5 -16.5t18 -21t15.5 -19l97 -111h-61z" />
    <glyph glyph-name="Iacute" unicode="&#xcd;" horiz-adv-x="444" 
d="M387 638l-127 -608h81l-7 -30h-318l7 30h70l125 608h-80l7 30h316l-7 -30h-67zM411 852l-137 -88h-61l97 111q4 5 15.5 19t18 21t17.5 16.5t22.5 13.5t24.5 4q18 0 31 -13t13 -31q0 -13 -7 -23.5t-13.5 -15.5t-20.5 -14z" />
    <glyph glyph-name="Icircumflex" unicode="&#xce;" horiz-adv-x="444" 
d="M387 638l-127 -608h81l-7 -30h-318l7 30h70l125 608h-80l7 30h316l-7 -30h-67zM148 760l157 174h93l87 -174l-3 -2h-56l-90 98l-136 -98h-51z" />
    <glyph glyph-name="Idieresis" unicode="&#xcf;" horiz-adv-x="444" 
d="M387 638l-127 -608h81l-7 -30h-318l7 30h70l125 608h-80l7 30h316l-7 -30h-67zM447 779q-25 0 -43.5 20t-18.5 45q0 26 18.5 45.5t43.5 19.5q26 0 45.5 -19t19.5 -46t-19 -46t-46 -19zM236 779q-25 0 -43.5 20t-18.5 45q0 26 18.5 45.5t43.5 19.5q26 0 45.5 -19t19.5 -46
t-19 -46t-46 -19z" />
    <glyph glyph-name="Eth" unicode="&#xd0;" horiz-adv-x="778" 
d="M369 638l-54 -261h133l-10 -40h-131l-63 -307h69q69 0 115 17q43 16 72 79.5t44 131.5q36 165 36 259q0 121 -137 121h-74zM-4 0l6 30h73l64 307h-74l10 40h72l54 261h-76l7 30h302q64 0 118 -16.5t98 -49.5t69 -89t25 -129q0 -99 -50 -186.5t-134 -141.5
q-41 -26 -92 -39t-87 -15t-106 -2h-279z" />
    <glyph glyph-name="Ntilde" unicode="&#xd1;" horiz-adv-x="722" 
d="M88 104l99 466q10 27 1 47.5t-45 20.5h-30l7 30h225l218 -434l72 340q6 26 -5.5 45t-31.5 19h-35l6 30h190l-7 -30h-25q-18 0 -33 -12.5t-19 -33.5l-128 -607h-38l-290 576l-95 -481q-4 -24 6.5 -37t32.5 -13h30l-7 -30h-188l5 30h26q20 0 36.5 23t22.5 51zM602 889h43
q-30 -126 -121 -126q-33 0 -85 24q-50 24 -72 24q-16 0 -29 -14t-16 -33h-42q7 52 37.5 88.5t80.5 36.5q31 0 83 -24q52 -25 69 -25q21 0 31.5 12.5t20.5 36.5z" />
    <glyph glyph-name="Ograve" unicode="&#xd2;" horiz-adv-x="778" 
d="M478 653q-54 0 -86 -14.5t-54 -56.5q-33 -62 -73 -215t-40 -256q0 -55 21.5 -75.5t79.5 -20.5q54 0 83 12.5t53.5 53t47.5 123.5q25 89 47.5 200t22.5 177q0 72 -102 72zM469 683q125 0 200 -66.5t75 -194.5q0 -111 -63.5 -216.5t-159.5 -165.5q-29 -18 -83.5 -36.5
t-105.5 -18.5q-50 0 -95 13t-86 42t-65.5 84t-24.5 131q0 191 184 340q108 88 224 88zM509 764l-137 88q-14 9 -20.5 14t-13.5 15.5t-7 23.5q0 18 13 31t31 13q13 0 24.5 -4t22.5 -13.5t17.5 -16.5t18 -21t15.5 -19l97 -111h-61z" />
    <glyph glyph-name="Oacute" unicode="&#xd3;" horiz-adv-x="778" 
d="M478 653q-54 0 -86 -14.5t-54 -56.5q-33 -62 -73 -215t-40 -256q0 -55 21.5 -75.5t79.5 -20.5q54 0 83 12.5t53.5 53t47.5 123.5q25 89 47.5 200t22.5 177q0 72 -102 72zM469 683q125 0 200 -66.5t75 -194.5q0 -111 -63.5 -216.5t-159.5 -165.5q-29 -18 -83.5 -36.5
t-105.5 -18.5q-50 0 -95 13t-86 42t-65.5 84t-24.5 131q0 191 184 340q108 88 224 88zM608 852l-137 -88h-61l97 111q4 5 15.5 19t18 21t17.5 16.5t22.5 13.5t24.5 4q18 0 31 -13t13 -31q0 -13 -7 -23.5t-13.5 -15.5t-20.5 -14z" />
    <glyph glyph-name="Ocircumflex" unicode="&#xd4;" horiz-adv-x="778" 
d="M478 653q-54 0 -86 -14.5t-54 -56.5q-33 -62 -73 -215t-40 -256q0 -55 21.5 -75.5t79.5 -20.5q54 0 83 12.5t53.5 53t47.5 123.5q25 89 47.5 200t22.5 177q0 72 -102 72zM469 683q125 0 200 -66.5t75 -194.5q0 -111 -63.5 -216.5t-159.5 -165.5q-29 -18 -83.5 -36.5
t-105.5 -18.5q-50 0 -95 13t-86 42t-65.5 84t-24.5 131q0 191 184 340q108 88 224 88zM325 760l157 174h93l87 -174l-3 -2h-56l-90 98l-136 -98h-51z" />
    <glyph glyph-name="Otilde" unicode="&#xd5;" horiz-adv-x="778" 
d="M478 653q-54 0 -86 -14.5t-54 -56.5q-33 -62 -73 -215t-40 -256q0 -55 21.5 -75.5t79.5 -20.5q54 0 83 12.5t53.5 53t47.5 123.5q25 89 47.5 200t22.5 177q0 72 -102 72zM469 683q125 0 200 -66.5t75 -194.5q0 -111 -63.5 -216.5t-159.5 -165.5q-29 -18 -83.5 -36.5
t-105.5 -18.5q-50 0 -95 13t-86 42t-65.5 84t-24.5 131q0 191 184 340q108 88 224 88zM630 889h43q-30 -126 -121 -126q-33 0 -85 24q-50 24 -72 24q-16 0 -29 -14t-16 -33h-42q7 52 37.5 88.5t80.5 36.5q31 0 83 -24q52 -25 69 -25q21 0 31.5 12.5t20.5 36.5z" />
    <glyph glyph-name="Odieresis" unicode="&#xd6;" horiz-adv-x="778" 
d="M478 653q-54 0 -86 -14.5t-54 -56.5q-33 -62 -73 -215t-40 -256q0 -55 21.5 -75.5t79.5 -20.5q54 0 83 12.5t53.5 53t47.5 123.5q25 89 47.5 200t22.5 177q0 72 -102 72zM469 683q125 0 200 -66.5t75 -194.5q0 -111 -63.5 -216.5t-159.5 -165.5q-29 -18 -83.5 -36.5
t-105.5 -18.5q-50 0 -95 13t-86 42t-65.5 84t-24.5 131q0 191 184 340q108 88 224 88zM604 779q-25 0 -43.5 20t-18.5 45q0 26 18.5 45.5t43.5 19.5q26 0 45.5 -19t19.5 -46t-19 -46t-46 -19zM393 779q-25 0 -43.5 20t-18.5 45q0 26 18.5 45.5t43.5 19.5q26 0 45.5 -19
t19.5 -46t-19 -46t-46 -19z" />
    <glyph glyph-name="multiply" unicode="&#xd7;" horiz-adv-x="500" 
d="M29 57l164 165l-164 165l57 57l164 -165l164 165l57 -57l-164 -165l164 -165l-57 -57l-164 165l-164 -165z" />
    <glyph glyph-name="Oslash" unicode="&#xd8;" horiz-adv-x="778" 
d="M225 99l348 516q-20 38 -95 38q-54 0 -86 -14.5t-54 -56.5q-33 -63 -73 -218t-40 -265zM602 659l52 77h50l-65 -96q105 -68 105 -218q0 -111 -63.5 -216.5t-159.5 -165.5q-29 -18 -83.5 -36.5t-105.5 -18.5q-66 0 -119 21l-75 -111h-50l87 129q-114 67 -114 231
q0 191 184 340q108 88 224 88q76 0 133 -24zM580 550l-341 -505q20 -30 87 -30q54 0 83 12.5t53.5 53t47.5 123.5q70 251 70 346z" />
    <glyph glyph-name="Ugrave" unicode="&#xd9;" horiz-adv-x="722" 
d="M115 274l75 364h-78l7 30h317l-7 -30h-75l-85 -413q-25 -121 0 -165.5t101 -44.5q145 0 177 158l81 401q8 39 -3.5 51.5t-40.5 12.5h-25l7 30h191l-7 -30h-23q-26 0 -39.5 -16.5t-21.5 -55.5l-78 -367q-19 -89 -48.5 -133.5t-104.5 -68.5q-37 -12 -116 -12
q-108 0 -165 43t-57 124q0 34 18 122zM491 764l-137 88q-14 9 -20.5 14t-13.5 15.5t-7 23.5q0 18 13 31t31 13q13 0 24.5 -4t22.5 -13.5t17.5 -16.5t18 -21t15.5 -19l97 -111h-61z" />
    <glyph glyph-name="Uacute" unicode="&#xda;" horiz-adv-x="722" 
d="M115 274l75 364h-78l7 30h317l-7 -30h-75l-85 -413q-25 -121 0 -165.5t101 -44.5q145 0 177 158l81 401q8 39 -3.5 51.5t-40.5 12.5h-25l7 30h191l-7 -30h-23q-26 0 -39.5 -16.5t-21.5 -55.5l-78 -367q-19 -89 -48.5 -133.5t-104.5 -68.5q-37 -12 -116 -12
q-108 0 -165 43t-57 124q0 34 18 122zM610 852l-137 -88h-61l97 111q4 5 15.5 19t18 21t17.5 16.5t22.5 13.5t24.5 4q18 0 31 -13t13 -31q0 -13 -7 -23.5t-13.5 -15.5t-20.5 -14z" />
    <glyph glyph-name="Ucircumflex" unicode="&#xdb;" horiz-adv-x="722" 
d="M115 274l75 364h-78l7 30h317l-7 -30h-75l-85 -413q-25 -121 0 -165.5t101 -44.5q145 0 177 158l81 401q8 39 -3.5 51.5t-40.5 12.5h-25l7 30h191l-7 -30h-23q-26 0 -39.5 -16.5t-21.5 -55.5l-78 -367q-19 -89 -48.5 -133.5t-104.5 -68.5q-37 -12 -116 -12
q-108 0 -165 43t-57 124q0 34 18 122zM317 760l157 174h93l87 -174l-3 -2h-56l-90 98l-136 -98h-51z" />
    <glyph glyph-name="Udieresis" unicode="&#xdc;" horiz-adv-x="722" 
d="M115 274l75 364h-78l7 30h317l-7 -30h-75l-85 -413q-25 -121 0 -165.5t101 -44.5q145 0 177 158l81 401q8 39 -3.5 51.5t-40.5 12.5h-25l7 30h191l-7 -30h-23q-26 0 -39.5 -16.5t-21.5 -55.5l-78 -367q-19 -89 -48.5 -133.5t-104.5 -68.5q-37 -12 -116 -12
q-108 0 -165 43t-57 124q0 34 18 122zM576 779q-25 0 -43.5 20t-18.5 45q0 26 18.5 45.5t43.5 19.5q26 0 45.5 -19t19.5 -46t-19 -46t-46 -19zM365 779q-25 0 -43.5 20t-18.5 45q0 26 18.5 45.5t43.5 19.5q26 0 45.5 -19t19.5 -46t-19 -46t-46 -19z" />
    <glyph glyph-name="Yacute" unicode="&#xdd;" horiz-adv-x="611" 
d="M66 668h315l-7 -30h-82l110 -301l150 240q39 61 -16 61h-46l7 30h194l-7 -30h-19q-14 0 -31.5 -11t-26.5 -25l-192 -299q-4 -7 -9 -34l-46 -239h93l-7 -30h-346l6 30h86l55 278l-127 330h-61zM554 852l-137 -88h-61l97 111q4 5 15.5 19t18 21t17.5 16.5t22.5 13.5t24.5 4
q18 0 31 -13t13 -31q0 -13 -7 -23.5t-13.5 -15.5t-20.5 -14z" />
    <glyph glyph-name="Thorn" unicode="&#xde;" horiz-adv-x="667" 
d="M-6 0l6 30h74l126 608h-66l7 30h317l-9 -30h-83l-23 -110h52q246 0 246 -163q0 -67 -47 -113.5t-115 -64.5q-89 -24 -170 -24h-43l-28 -133h86l-5 -30h-325zM337 498l-65 -305h43q52 0 77 11t38 40q16 37 27 94t11 100q0 17 -5 28.5t-11.5 17.5t-19.5 9.5t-23 4t-28 0.5
h-44z" />
    <glyph glyph-name="germandbls" unicode="&#xdf;" 
d="M256 538l-61 -288q-41 -195 -76 -278q-17 -39 -30 -64t-35 -55t-51.5 -45t-65.5 -15q-33 0 -63.5 26t-24.5 59q4 22 18 36t36 14q56 0 56 -54q0 -15 -8 -31t-8 -18q0 -4 15 -4q14 0 25 12.5t18.5 37.5t11.5 42.5t8.5 47t4.5 31.5l49 289q14 81 32.5 140.5t32.5 87.5
t37 65q69 109 185 109q71 0 125 -34.5t54 -102.5q0 -77 -54.5 -121t-135.5 -56v-2q166 -19 166 -166q0 -80 -61.5 -142.5t-139.5 -62.5q-44 0 -82 23t-38 64q0 25 12.5 41t36.5 16q18 0 31 -12.5t13 -31.5q0 -23 -14 -37q-3 -3 -8 -7q-7 -5 -6 -7q4 -17 27 -17q19 0 28 7.5
t17 27.5q19 48 33 118.5t14 102.5q0 73 -88 75q-6 0 -7 9.5t4 10.5q32 5 38 5q34 0 50 42q35 92 35 170q0 59 -61 59q-30 0 -51 -19.5t-29 -42t-15 -55.5z" />
    <glyph glyph-name="agrave" unicode="&#xe0;" 
d="M288 374q-55 0 -96 -160q-33 -132 -33 -159q0 -19 10.5 -30.5t29.5 -11.5q32 0 61.5 33t48 80t29.5 92.5t11 74.5q0 31 -16 56t-45 25zM370 327l21 69h111l-86 -322q-9 -35 13 -35q37 0 87 107l21 -7q-14 -30 -25 -49t-29.5 -44t-42 -37.5t-50.5 -12.5q-33 0 -52.5 24.5
t-26.5 60.5q-61 -96 -140 -96q-62 0 -99 45t-37 109q0 80 48.5 149.5t122.5 99.5q33 14 59 14q72 0 105 -75zM338 498l-137 88q-14 9 -20.5 14t-13.5 15.5t-7 23.5q0 18 13 31t31 13q13 0 24.5 -4t22.5 -13.5t17.5 -16.5t18 -21t15.5 -19l97 -111h-61z" />
    <glyph glyph-name="aacute" unicode="&#xe1;" 
d="M288 374q-55 0 -96 -160q-33 -132 -33 -159q0 -19 10.5 -30.5t29.5 -11.5q32 0 61.5 33t48 80t29.5 92.5t11 74.5q0 31 -16 56t-45 25zM370 327l21 69h111l-86 -322q-9 -35 13 -35q37 0 87 107l21 -7q-14 -30 -25 -49t-29.5 -44t-42 -37.5t-50.5 -12.5q-33 0 -52.5 24.5
t-26.5 60.5q-61 -96 -140 -96q-62 0 -99 45t-37 109q0 80 48.5 149.5t122.5 99.5q33 14 59 14q72 0 105 -75zM467 586l-137 -88h-61l97 111q4 5 15.5 19t18 21t17.5 16.5t22.5 13.5t24.5 4q18 0 31 -13t13 -31q0 -13 -7 -23.5t-13.5 -15.5t-20.5 -14z" />
    <glyph glyph-name="acircumflex" unicode="&#xe2;" 
d="M288 374q-55 0 -96 -160q-33 -132 -33 -159q0 -19 10.5 -30.5t29.5 -11.5q32 0 61.5 33t48 80t29.5 92.5t11 74.5q0 31 -16 56t-45 25zM370 327l21 69h111l-86 -322q-9 -35 13 -35q37 0 87 107l21 -7q-14 -30 -25 -49t-29.5 -44t-42 -37.5t-50.5 -12.5q-33 0 -52.5 24.5
t-26.5 60.5q-61 -96 -140 -96q-62 0 -99 45t-37 109q0 80 48.5 149.5t122.5 99.5q33 14 59 14q72 0 105 -75zM174 494l157 174h93l87 -174l-3 -2h-56l-90 98l-136 -98h-51z" />
    <glyph glyph-name="atilde" unicode="&#xe3;" 
d="M288 374q-55 0 -96 -160q-33 -132 -33 -159q0 -19 10.5 -30.5t29.5 -11.5q32 0 61.5 33t48 80t29.5 92.5t11 74.5q0 31 -16 56t-45 25zM370 327l21 69h111l-86 -322q-9 -35 13 -35q37 0 87 107l21 -7q-14 -30 -25 -49t-29.5 -44t-42 -37.5t-50.5 -12.5q-33 0 -52.5 24.5
t-26.5 60.5q-61 -96 -140 -96q-62 0 -99 45t-37 109q0 80 48.5 149.5t122.5 99.5q33 14 59 14q72 0 105 -75zM459 643h43q-30 -126 -121 -126q-33 0 -85 24q-50 24 -72 24q-16 0 -29 -14t-16 -33h-42q7 52 37.5 88.5t80.5 36.5q31 0 83 -24q52 -25 69 -25q21 0 31.5 12.5
t20.5 36.5z" />
    <glyph glyph-name="adieresis" unicode="&#xe4;" 
d="M288 374q-55 0 -96 -160q-33 -132 -33 -159q0 -19 10.5 -30.5t29.5 -11.5q32 0 61.5 33t48 80t29.5 92.5t11 74.5q0 31 -16 56t-45 25zM370 327l21 69h111l-86 -322q-9 -35 13 -35q37 0 87 107l21 -7q-14 -30 -25 -49t-29.5 -44t-42 -37.5t-50.5 -12.5q-33 0 -52.5 24.5
t-26.5 60.5q-61 -96 -140 -96q-62 0 -99 45t-37 109q0 80 48.5 149.5t122.5 99.5q33 14 59 14q72 0 105 -75zM443 513q-25 0 -43.5 20t-18.5 45q0 26 18.5 45.5t43.5 19.5q26 0 45.5 -19t19.5 -46t-19 -46t-46 -19zM232 513q-25 0 -43.5 20t-18.5 45q0 26 18.5 45.5
t43.5 19.5q26 0 45.5 -19t19.5 -46t-19 -46t-46 -19z" />
    <glyph glyph-name="aring" unicode="&#xe5;" 
d="M288 374q-55 0 -96 -160q-33 -132 -33 -159q0 -19 10.5 -30.5t29.5 -11.5q32 0 61.5 33t48 80t29.5 92.5t11 74.5q0 31 -16 56t-45 25zM370 327l21 69h111l-86 -322q-9 -35 13 -35q37 0 87 107l21 -7q-14 -30 -25 -49t-29.5 -44t-42 -37.5t-50.5 -12.5q-33 0 -52.5 24.5
t-26.5 60.5q-61 -96 -140 -96q-62 0 -99 45t-37 109q0 80 48.5 149.5t122.5 99.5q33 14 59 14q72 0 105 -75zM338 455q-44 0 -75 31.5t-31 75.5q0 43 31.5 74.5t74.5 31.5q44 0 75.5 -31t31.5 -75q0 -45 -31.5 -76t-75.5 -31zM338 619q-23 0 -40.5 -17t-17.5 -40t17.5 -40.5
t40.5 -17.5t41 17.5t18 40.5t-18 40t-41 17z" />
    <glyph glyph-name="ae" unicode="&#xe6;" horiz-adv-x="722" 
d="M298 135l26 93q8 30 8 60q0 32 -14.5 59t-43.5 27q-42 0 -70 -76q-27 -70 -43 -145t-16 -107q0 -33 37 -33q34 0 61 26.5t44 63.5q6 13 11 32zM450 254l-18 -65h62q48 0 73 40t25 93q0 22 -11.5 37t-33.5 15q-30 0 -44 -13t-29 -44q-16 -34 -24 -63zM351 328l15 68h90
l-15 -73l2 -2q26 40 53.5 60.5t68.5 20.5q51 0 89.5 -30t38.5 -80q0 -83 -99 -115q-50 -16 -88 -16h-80q-19 -70 -19 -103q0 -45 64 -45q60 0 101.5 25.5t91.5 79.5l17 -19q-104 -114 -206 -114q-135 0 -171 104q-22 -46 -59.5 -75t-85.5 -29q-60 0 -98.5 45t-38.5 107
q0 61 29 118.5t78 96.5q62 50 121 50q41 0 63 -17t38 -57z" />
    <glyph glyph-name="ccedilla" unicode="&#xe7;" horiz-adv-x="500" 
d="M147 -96l37 85q-59 12 -98 56.5t-39 106.5q0 97 86 173.5t183 76.5q50 0 94 -22.5t44 -69.5q0 -28 -17 -46t-45 -18q-24 0 -41 15.5t-17 39.5q0 14 5 29q5 17 5 20q0 9 -8.5 16.5t-19.5 7.5q-22 0 -33 -5t-23 -21q-20 -25 -48.5 -126.5t-28.5 -161.5q0 -47 55 -47
q99 0 174 98l16 -14q-38 -51 -90.5 -81t-112.5 -31l-22 -49q14 5 35 5q39 0 63 -18t24 -56q0 -25 -14 -42.5t-36.5 -26.5t-44 -12.5t-44.5 -3.5q-42 0 -88 18l16 37q30 -13 72 -13q18 0 31.5 11.5t13.5 28.5q0 18 -12.5 27t-30.5 9t-31 -4z" />
    <glyph glyph-name="egrave" unicode="&#xe8;" horiz-adv-x="500" 
d="M274 163h-81q-2 -10 -7 -32t-7.5 -39t-2.5 -32q0 -47 53 -47q121 0 204 113l16 -14q-85 -127 -237 -127q-73 0 -123.5 43t-50.5 115q0 99 88.5 179t187.5 80q56 0 101.5 -26.5t45.5 -79.5q0 -82 -100 -116q-51 -17 -87 -17zM200 191h58q30 0 65.5 32t35.5 94
q0 29 -12.5 43t-41.5 14q-51 0 -72 -71zM310 498l-137 88q-14 9 -20.5 14t-13.5 15.5t-7 23.5q0 18 13 31t31 13q13 0 24.5 -4t22.5 -13.5t17.5 -16.5t18 -21t15.5 -19l97 -111h-61z" />
    <glyph glyph-name="eacute" unicode="&#xe9;" horiz-adv-x="500" 
d="M274 163h-81q-2 -10 -7 -32t-7.5 -39t-2.5 -32q0 -47 53 -47q121 0 204 113l16 -14q-85 -127 -237 -127q-73 0 -123.5 43t-50.5 115q0 99 88.5 179t187.5 80q56 0 101.5 -26.5t45.5 -79.5q0 -82 -100 -116q-51 -17 -87 -17zM200 191h58q30 0 65.5 32t35.5 94
q0 29 -12.5 43t-41.5 14q-51 0 -72 -71zM439 586l-137 -88h-61l97 111q4 5 15.5 19t18 21t17.5 16.5t22.5 13.5t24.5 4q18 0 31 -13t13 -31q0 -13 -7 -23.5t-13.5 -15.5t-20.5 -14z" />
    <glyph glyph-name="ecircumflex" unicode="&#xea;" horiz-adv-x="500" 
d="M274 163h-81q-2 -10 -7 -32t-7.5 -39t-2.5 -32q0 -47 53 -47q121 0 204 113l16 -14q-85 -127 -237 -127q-73 0 -123.5 43t-50.5 115q0 99 88.5 179t187.5 80q56 0 101.5 -26.5t45.5 -79.5q0 -82 -100 -116q-51 -17 -87 -17zM200 191h58q30 0 65.5 32t35.5 94
q0 29 -12.5 43t-41.5 14q-51 0 -72 -71zM146 494l157 174h93l87 -174l-3 -2h-56l-90 98l-136 -98h-51z" />
    <glyph glyph-name="edieresis" unicode="&#xeb;" horiz-adv-x="500" 
d="M274 163h-81q-2 -10 -7 -32t-7.5 -39t-2.5 -32q0 -47 53 -47q121 0 204 113l16 -14q-85 -127 -237 -127q-73 0 -123.5 43t-50.5 115q0 99 88.5 179t187.5 80q56 0 101.5 -26.5t45.5 -79.5q0 -82 -100 -116q-51 -17 -87 -17zM200 191h58q30 0 65.5 32t35.5 94
q0 29 -12.5 43t-41.5 14q-51 0 -72 -71zM410 513q-25 0 -43.5 20t-18.5 45q0 26 18.5 45.5t43.5 19.5q26 0 45.5 -19t19.5 -46t-19 -46t-46 -19zM199 513q-25 0 -43.5 20t-18.5 45q0 26 18.5 45.5t43.5 19.5q26 0 45.5 -19t19.5 -46t-19 -46t-46 -19z" />
    <glyph glyph-name="igrave" unicode="&#xec;" horiz-adv-x="278" 
d="M49 120l55 248h-72l7 28h103q17 0 51 2t51 2l-79 -333q-6 -20 -4 -30t16 -10q22 0 47.5 37.5t39.5 72.5l21 -10q-28 -71 -65 -106.5t-104 -35.5q-33 0 -57 15.5t-24 40.5q0 15 14 79zM199 498l-137 88q-14 9 -20.5 14t-13.5 15.5t-7 23.5q0 18 13 31t31 13q13 0 24.5 -4
t22.5 -13.5t17.5 -16.5t18 -21t15.5 -19l97 -111h-61z" />
    <glyph glyph-name="iacute" unicode="&#xed;" horiz-adv-x="278" 
d="M49 120l55 248h-72l7 28h103q17 0 51 2t51 2l-79 -333q-6 -20 -4 -30t16 -10q22 0 47.5 37.5t39.5 72.5l21 -10q-28 -71 -65 -106.5t-104 -35.5q-33 0 -57 15.5t-24 40.5q0 15 14 79zM298 586l-137 -88h-61l97 111q4 5 15.5 19t18 21t17.5 16.5t22.5 13.5t24.5 4
q18 0 31 -13t13 -31q0 -13 -7 -23.5t-13.5 -15.5t-20.5 -14z" />
    <glyph glyph-name="icircumflex" unicode="&#xee;" horiz-adv-x="278" 
d="M49 120l55 248h-72l7 28h103q17 0 51 2t51 2l-79 -333q-6 -20 -4 -30t16 -10q22 0 47.5 37.5t39.5 72.5l21 -10q-28 -71 -65 -106.5t-104 -35.5q-33 0 -57 15.5t-24 40.5q0 15 14 79zM-6 494l157 174h93l87 -174l-3 -2h-56l-90 98l-136 -98h-51z" />
    <glyph glyph-name="idieresis" unicode="&#xef;" horiz-adv-x="278" 
d="M49 120l55 248h-72l7 28h103q17 0 51 2t51 2l-79 -333q-6 -20 -4 -30t16 -10q22 0 47.5 37.5t39.5 72.5l21 -10q-28 -71 -65 -106.5t-104 -35.5q-33 0 -57 15.5t-24 40.5q0 15 14 79zM284 513q-25 0 -43.5 20t-18.5 45q0 26 18.5 45.5t43.5 19.5q26 0 45.5 -19t19.5 -46
t-19 -46t-46 -19zM73 513q-25 0 -43.5 20t-18.5 45q0 26 18.5 45.5t43.5 19.5q26 0 45.5 -19t19.5 -46t-19 -46t-46 -19z" />
    <glyph glyph-name="eth" unicode="&#xf0;" 
d="M187 548l123 57q-12 8 -26 17q-15 11 -54 27q-16 7 -27 11l24 33q55 -15 79.5 -25t65.5 -34l126 59l35 -33l-120 -55q57 -52 80 -120.5t23 -162.5q0 -140 -61.5 -223t-148.5 -104q-40 -10 -87 -10q-85 0 -131 49t-46 119q0 67 45.5 126t108.5 91t121 32q47 0 66 -21
q3 10 3 26q0 26 -12 79.5t-35 83.5l-122 -56zM322 374q-68 0 -90 -59q-10 -29 -32 -137.5t-22 -131.5q0 -33 62 -33q33 0 50.5 7.5t27.5 33.5q17 43 39.5 138t22.5 134q0 48 -58 48z" />
    <glyph glyph-name="ntilde" unicode="&#xf1;" 
d="M257 400l-30 -106l2 -2q3 4 16.5 19.5t18 20.5t17 17.5t19.5 17.5t19.5 13.5t23 12t24 6.5t27.5 3q42 0 74 -25.5t20 -78.5l-58 -248q-1 -7 4.5 -13t12.5 -6q22 0 49 36.5t39 65.5l17 -5q-28 -68 -62.5 -100t-98.5 -32q-45 0 -70 23.5t-11 80.5l52 212q13 56 -13 56
q-6 0 -12 -2t-12 -6t-11 -7.5t-12 -10.5l-10.5 -10.5t-10.5 -11t-8 -8.5q-34 -37 -48.5 -67t-27.5 -84l-38 -161h-131l89 368h-72l7 28h103q17 0 51 2t51 2zM459 643h43q-30 -126 -121 -126q-33 0 -85 24q-50 24 -72 24q-16 0 -29 -14t-16 -33h-42q7 52 37.5 88.5t80.5 36.5
q31 0 83 -24q52 -25 69 -25q21 0 31.5 12.5t20.5 36.5z" />
    <glyph glyph-name="ograve" unicode="&#xf2;" 
d="M333 402q74 0 128.5 -48t54.5 -121q0 -80 -64.5 -149t-145.5 -89q-40 -10 -87 -10q-85 0 -131 49t-46 119q0 67 46 126t113 91t132 32zM322 374q-68 0 -90 -59q-10 -29 -32 -137.5t-22 -131.5q0 -33 62 -33q33 0 50.5 7.5t27.5 33.5q17 43 39.5 138t22.5 134q0 48 -58 48
zM338 498l-137 88q-14 9 -20.5 14t-13.5 15.5t-7 23.5q0 18 13 31t31 13q13 0 24.5 -4t22.5 -13.5t17.5 -16.5t18 -21t15.5 -19l97 -111h-61z" />
    <glyph glyph-name="oacute" unicode="&#xf3;" 
d="M333 402q74 0 128.5 -48t54.5 -121q0 -80 -64.5 -149t-145.5 -89q-40 -10 -87 -10q-85 0 -131 49t-46 119q0 67 46 126t113 91t132 32zM322 374q-68 0 -90 -59q-10 -29 -32 -137.5t-22 -131.5q0 -33 62 -33q33 0 50.5 7.5t27.5 33.5q17 43 39.5 138t22.5 134q0 48 -58 48
zM467 586l-137 -88h-61l97 111q4 5 15.5 19t18 21t17.5 16.5t22.5 13.5t24.5 4q18 0 31 -13t13 -31q0 -13 -7 -23.5t-13.5 -15.5t-20.5 -14z" />
    <glyph glyph-name="ocircumflex" unicode="&#xf4;" 
d="M333 402q74 0 128.5 -48t54.5 -121q0 -80 -64.5 -149t-145.5 -89q-40 -10 -87 -10q-85 0 -131 49t-46 119q0 67 46 126t113 91t132 32zM322 374q-68 0 -90 -59q-10 -29 -32 -137.5t-22 -131.5q0 -33 62 -33q33 0 50.5 7.5t27.5 33.5q17 43 39.5 138t22.5 134q0 48 -58 48
zM174 494l157 174h93l87 -174l-3 -2h-56l-90 98l-136 -98h-51z" />
    <glyph glyph-name="otilde" unicode="&#xf5;" 
d="M333 402q74 0 128.5 -48t54.5 -121q0 -80 -64.5 -149t-145.5 -89q-40 -10 -87 -10q-85 0 -131 49t-46 119q0 67 46 126t113 91t132 32zM322 374q-68 0 -90 -59q-10 -29 -32 -137.5t-22 -131.5q0 -33 62 -33q33 0 50.5 7.5t27.5 33.5q17 43 39.5 138t22.5 134q0 48 -58 48
zM459 643h43q-30 -126 -121 -126q-33 0 -85 24q-50 24 -72 24q-16 0 -29 -14t-16 -33h-42q7 52 37.5 88.5t80.5 36.5q31 0 83 -24q52 -25 69 -25q21 0 31.5 12.5t20.5 36.5z" />
    <glyph glyph-name="odieresis" unicode="&#xf6;" 
d="M333 402q74 0 128.5 -48t54.5 -121q0 -80 -64.5 -149t-145.5 -89q-40 -10 -87 -10q-85 0 -131 49t-46 119q0 67 46 126t113 91t132 32zM322 374q-68 0 -90 -59q-10 -29 -32 -137.5t-22 -131.5q0 -33 62 -33q33 0 50.5 7.5t27.5 33.5q17 43 39.5 138t22.5 134q0 48 -58 48
zM438 513q-25 0 -43.5 20t-18.5 45q0 26 18.5 45.5t43.5 19.5q26 0 45.5 -19t19.5 -46t-19 -46t-46 -19zM227 513q-25 0 -43.5 20t-18.5 45q0 26 18.5 45.5t43.5 19.5q26 0 45.5 -19t19.5 -46t-19 -46t-46 -19z" />
    <glyph glyph-name="divide" unicode="&#xf7;" horiz-adv-x="500" 
d="M472 182h-443v81h443v-81zM251 314q-25 0 -43.5 20t-18.5 45q0 26 18.5 45.5t43.5 19.5q26 0 45.5 -19t19.5 -46t-19 -46t-46 -19zM251 1q-25 0 -43.5 20t-18.5 45q0 26 18.5 45.5t43.5 19.5q26 0 45.5 -19t19.5 -46t-19 -46t-46 -19z" />
    <glyph glyph-name="oslash" unicode="&#xf8;" 
d="M182 66l186 296q-12 12 -46 12q-69 0 -90 -57q-9 -25 -28.5 -119t-23.5 -130zM376 311l-181 -289q18 -9 45 -9q32 0 50 8.5t28 34.5q16 38 36.5 124.5t23.5 128.5zM388 394l60 94h42l-68 -108q43 -21 68.5 -59.5t25.5 -87.5q0 -80 -64.5 -149t-145.5 -89q-40 -10 -87 -10
q-27 0 -44 5l-66 -105h-44l74 116q-47 20 -72 61t-25 91q0 67 46 126t113 91t132 32q26 0 55 -8z" />
    <glyph glyph-name="ugrave" unicode="&#xf9;" 
d="M317 161l59 235h129l-79 -352q-3 -18 12 -18q24 0 50.5 35.5t36.5 65.5l21 -5q-18 -62 -57.5 -99.5t-99.5 -37.5q-33 0 -58 16t-25 48q0 11 3.5 32.5t3.5 25.5l-2 2q-36 -60 -74.5 -92t-98.5 -32q-35 0 -66.5 18t-31.5 51q0 8 5 28l67 286h-72l7 28h103q17 0 51 2t51 2
l-82 -333q-8 -33 -3.5 -40t17.5 -7q40 0 93 73q35 48 40 68zM338 498l-137 88q-14 9 -20.5 14t-13.5 15.5t-7 23.5q0 18 13 31t31 13q13 0 24.5 -4t22.5 -13.5t17.5 -16.5t18 -21t15.5 -19l97 -111h-61z" />
    <glyph glyph-name="uacute" unicode="&#xfa;" 
d="M317 161l59 235h129l-79 -352q-3 -18 12 -18q24 0 50.5 35.5t36.5 65.5l21 -5q-18 -62 -57.5 -99.5t-99.5 -37.5q-33 0 -58 16t-25 48q0 11 3.5 32.5t3.5 25.5l-2 2q-36 -60 -74.5 -92t-98.5 -32q-35 0 -66.5 18t-31.5 51q0 8 5 28l67 286h-72l7 28h103q17 0 51 2t51 2
l-82 -333q-8 -33 -3.5 -40t17.5 -7q40 0 93 73q35 48 40 68zM467 586l-137 -88h-61l97 111q4 5 15.5 19t18 21t17.5 16.5t22.5 13.5t24.5 4q18 0 31 -13t13 -31q0 -13 -7 -23.5t-13.5 -15.5t-20.5 -14z" />
    <glyph glyph-name="ucircumflex" unicode="&#xfb;" 
d="M317 161l59 235h129l-79 -352q-3 -18 12 -18q24 0 50.5 35.5t36.5 65.5l21 -5q-18 -62 -57.5 -99.5t-99.5 -37.5q-33 0 -58 16t-25 48q0 11 3.5 32.5t3.5 25.5l-2 2q-36 -60 -74.5 -92t-98.5 -32q-35 0 -66.5 18t-31.5 51q0 8 5 28l67 286h-72l7 28h103q17 0 51 2t51 2
l-82 -333q-8 -33 -3.5 -40t17.5 -7q40 0 93 73q35 48 40 68zM154 494l157 174h93l87 -174l-3 -2h-56l-90 98l-136 -98h-51z" />
    <glyph glyph-name="udieresis" unicode="&#xfc;" 
d="M317 161l59 235h129l-79 -352q-3 -18 12 -18q24 0 50.5 35.5t36.5 65.5l21 -5q-18 -62 -57.5 -99.5t-99.5 -37.5q-33 0 -58 16t-25 48q0 11 3.5 32.5t3.5 25.5l-2 2q-36 -60 -74.5 -92t-98.5 -32q-35 0 -66.5 18t-31.5 51q0 8 5 28l67 286h-72l7 28h103q17 0 51 2t51 2
l-82 -333q-8 -33 -3.5 -40t17.5 -7q40 0 93 73q35 48 40 68zM423 513q-25 0 -43.5 20t-18.5 45q0 26 18.5 45.5t43.5 19.5q26 0 45.5 -19t19.5 -46t-19 -46t-46 -19zM212 513q-25 0 -43.5 20t-18.5 45q0 26 18.5 45.5t43.5 19.5q26 0 45.5 -19t19.5 -46t-19 -46t-46 -19z
" />
    <glyph glyph-name="yacute" unicode="&#xfd;" horiz-adv-x="500" 
d="M256 324l53 -185l67 182q1 3 5 14t6 16t6.5 14.5t9 14.5t10.5 11t13.5 8.5t15.5 2.5q21 0 33.5 -13.5t12.5 -35.5t-10.5 -39t-31.5 -17q-4 0 -13.5 4.5t-13.5 4.5q-14 3 -30 -40l-104 -268q-84 -213 -201 -213q-30 0 -50.5 19t-20.5 49q0 26 16 43.5t42 17.5
q25 0 41.5 -15.5t11.5 -38.5t16 -23q15 0 49 43.5t38 62.5q4 16 4 24q0 11 -13 53l-82 243q-1 3 -3.5 12t-5 16t-6 15.5t-8 13t-10.5 4.5q-5 0 -10 -3.5t-10.5 -9.5t-10 -12.5t-10 -15.5t-9 -14.5t-7.5 -13.5t-5 -9l-22 9q20 53 59.5 100t85.5 47q15 0 25.5 -2t24 -9
t24.5 -24t18 -43zM439 586l-137 -88h-61l97 111q4 5 15.5 19t18 21t17.5 16.5t22.5 13.5t24.5 4q18 0 31 -13t13 -31q0 -13 -7 -23.5t-13.5 -15.5t-20.5 -14z" />
    <glyph glyph-name="thorn" unicode="&#xfe;" 
d="M191 106q0 -36 15.5 -64.5t44.5 -28.5q19 0 33 9.5t19.5 18t13.5 26.5q24 50 47.5 139t23.5 123q0 45 -44 45q-71 0 -122 -120q-31 -75 -31 -148zM-7 -187l186 832h-70l7 28h103q17 0 102 10q-74 -302 -96 -376l2 -2q20 41 54.5 69t76.5 28q70 0 113 -44t43 -114
q0 -107 -75.5 -183t-155.5 -76q-74 0 -105 67h-2l-52 -239h84l-5 -28h-285l5 28h70z" />
    <glyph glyph-name="ydieresis" unicode="&#xff;" horiz-adv-x="500" 
d="M256 324l53 -185l67 182q1 3 5 14t6 16t6.5 14.5t9 14.5t10.5 11t13.5 8.5t15.5 2.5q21 0 33.5 -13.5t12.5 -35.5t-10.5 -39t-31.5 -17q-4 0 -13.5 4.5t-13.5 4.5q-14 3 -30 -40l-104 -268q-84 -213 -201 -213q-30 0 -50.5 19t-20.5 49q0 26 16 43.5t42 17.5
q25 0 41.5 -15.5t11.5 -38.5t16 -23q15 0 49 43.5t38 62.5q4 16 4 24q0 11 -13 53l-82 243q-1 3 -3.5 12t-5 16t-6 15.5t-8 13t-10.5 4.5q-5 0 -10 -3.5t-10.5 -9.5t-10 -12.5t-10 -15.5t-9 -14.5t-7.5 -13.5t-5 -9l-22 9q20 53 59.5 100t85.5 47q15 0 25.5 -2t24 -9
t24.5 -24t18 -43zM395 513q-25 0 -43.5 20t-18.5 45q0 26 18.5 45.5t43.5 19.5q26 0 45.5 -19t19.5 -46t-19 -46t-46 -19zM184 513q-25 0 -43.5 20t-18.5 45q0 26 18.5 45.5t43.5 19.5q26 0 45.5 -19t19.5 -46t-19 -46t-46 -19z" />
    <glyph glyph-name="dotlessi" unicode="&#x131;" horiz-adv-x="278" 
d="M49 120l55 248h-72l7 28h103q17 0 51 2t51 2l-79 -333q-6 -20 -4 -30t16 -10q22 0 47.5 37.5t39.5 72.5l21 -10q-28 -71 -65 -106.5t-104 -35.5q-33 0 -57 15.5t-24 40.5q0 15 14 79z" />
    <glyph glyph-name="Lslash" unicode="&#x141;" 
d="M306 374l-71 -344h55q88 0 145.5 47t103.5 143h37l-54 -220h-533l7 30h72l60 283l-78 -27l-13 32l99 34l60 286h-80l7 30h321l-6 -30h-77l-47 -226l108 36l12 -30z" />
    <glyph glyph-name="lslash" unicode="&#x142;" horiz-adv-x="278" 
d="M98 383l60 262h-72l7 28h103q17 0 102 10l-58 -252l73 25l7 -24l-87 -30l-77 -334q-8 -39 12 -41q16 -1 36.5 21t31.5 42t21 42l21 -11q-29 -68 -64 -102t-97 -34q-38 0 -63 22t-25 61q0 10 9 46l53 238l-57 -20l-8 26z" />
    <glyph glyph-name="OE" unicode="&#x152;" horiz-adv-x="972" 
d="M908 0h-436q-15 0 -58 -1t-63.5 -0.5t-58.5 3t-61 10.5t-52 20t-50.5 33t-38.5 49q-23 38 -31.5 84t6 117t59.5 146q51 84 143 145.5t224 61.5h515l-27 -188h-36q-1 53 -11 85.5t-33 48t-48.5 20t-68.5 4.5h-53l-57 -273h30q15 0 32.5 7.5t42 35t40.5 72.5h36l-58 -279
h-37v34.5t-2 29t-6 29.5t-12 20t-21 16.5t-31 4.5h-22l-61 -305h48q107 0 165.5 44t107.5 149h33zM330 30q24 0 40.5 3.5t36.5 16.5t34.5 42t24.5 74l72 328q7 34 8 59.5t-5.5 40.5t-14.5 24.5t-22 13.5t-23.5 5t-24.5 1q-32 0 -57 -10.5t-50.5 -37.5t-47 -80.5
t-39.5 -133.5q-42 -184 -42 -268q0 -78 110 -78z" />
    <glyph glyph-name="oe" unicode="&#x153;" horiz-adv-x="778" 
d="M713 118l15 -19q-52 -56 -102 -85t-114 -29q-83 0 -134 54q-58 -54 -160 -54q-91 0 -136.5 51.5t-45.5 118.5q0 91 82 169t193 78q79 0 143 -54q43 29 73.5 41.5t74.5 12.5q56 0 97 -30t41 -85q0 -56 -52 -90.5t-122 -34.5h-91l-17 -72q-9 -38 5.5 -57.5t60.5 -19.5
q54 0 98.5 28t90.5 77zM332 123l32 139q8 38 8 67q0 23 -20.5 34t-45.5 11q-41 0 -61 -18q-26 -24 -49.5 -131.5t-23.5 -159.5t58 -52q65 0 80 39q12 30 22 71zM508 294l-28 -104h56q33 0 68 33.5t35 95.5q0 55 -53 55q-30 0 -48 -18t-30 -62z" />
    <glyph glyph-name="Scaron" unicode="&#x160;" 
d="M97 41l-57 -41h-26l32 201h35q6 -83 48.5 -134.5t121.5 -51.5q70 0 109.5 34t39.5 91q0 17 -6 32t-12 24.5t-23 22t-24 16.5t-32 17.5t-30 16.5q-105 59 -134.5 96t-29.5 94q0 94 54.5 159t145.5 65q71 0 146 -49l42 34h26l-26 -183h-38q-2 32 -7 58q-10 51 -48.5 80.5
t-90.5 29.5q-43 0 -79 -23t-36 -65q0 -14 3.5 -26.5t13.5 -23t17.5 -18t24.5 -17t26.5 -14.5t31.5 -15.5t31 -14.5q33 -16 55.5 -31t45.5 -38.5t35 -56t12 -74.5q0 -114 -68.5 -182.5t-167.5 -68.5q-98 0 -161 56zM426 758h-93l-85 174l3 2h53l92 -99l132 99h56l1 -2z" />
    <glyph glyph-name="scaron" unicode="&#x161;" horiz-adv-x="389" 
d="M220 112l-114 88q-16 12 -23.5 28t-8 22t-0.5 21q0 50 44 90.5t116 40.5q42 0 79.5 -19t37.5 -57q0 -20 -12.5 -35t-32.5 -15q-46 0 -53 43q-2 9 5 39q1 5 -7.5 9t-17 5.5t-14.5 1.5q-63 0 -63 -35q0 -19 20 -33l100 -74q60 -44 60 -101q0 -69 -49.5 -107.5t-119.5 -38.5
q-32 0 -63 7t-57.5 29t-26.5 55q0 26 17 42.5t42 16.5q22 0 36.5 -15.5t14.5 -37.5q0 -9 -6.5 -26.5t-6.5 -22.5q0 -20 55 -20q80 0 80 47q0 28 -32 52zM322 492h-93l-85 174l3 2h53l92 -99l132 99h56l1 -2z" />
    <glyph glyph-name="Ydieresis" unicode="&#x178;" horiz-adv-x="611" 
d="M66 668h315l-7 -30h-82l110 -301l150 240q39 61 -16 61h-46l7 30h194l-7 -30h-19q-14 0 -31.5 -11t-26.5 -25l-192 -299q-4 -7 -9 -34l-46 -239h93l-7 -30h-346l6 30h86l55 278l-127 330h-61zM530 779q-25 0 -43.5 20t-18.5 45q0 26 18.5 45.5t43.5 19.5q26 0 45.5 -19
t19.5 -46t-19 -46t-46 -19zM319 779q-25 0 -43.5 20t-18.5 45q0 26 18.5 45.5t43.5 19.5q26 0 45.5 -19t19.5 -46t-19 -46t-46 -19z" />
    <glyph glyph-name="Zcaron" unicode="&#x17d;" horiz-adv-x="611" 
d="M81 480l63 188h469v-35l-414 -603h89q77 0 143.5 55t106.5 133h36l-72 -218h-497v33l416 605h-51q-169 0 -252 -158h-37zM453 758h-93l-85 174l3 2h53l92 -99l132 99h56l1 -2z" />
    <glyph glyph-name="zcaron" unicode="&#x17e;" horiz-adv-x="444" 
d="M86 106l236 191l-2 2q-78 -30 -152 -30q-36 0 -75 11q-15 -32 -30 -59l-21 11l80 170q107 -45 216 -45q30 0 32 11q7 34 34 34q16 0 16 -21q0 -35 -57 -80l-231 -189l2 -2q29 6 78 6q28 0 76 -14q46 -14 56 -14q35 0 35 27q0 5 -4 6.5t-12 0.5l-8 -1q-19 0 -30.5 11
t-11.5 30q0 18 11.5 30t30.5 12q52 0 52 -72q0 -57 -44 -102t-101 -45q-40 0 -94 24q-54 25 -72 25q-5 0 -8 -1t-4 -3.5t-1.5 -4t0 -6t0.5 -6.5q0 -24 -25 -28q-14 -2 -23 9.5t-9 26.5q0 36 60 85zM350 492h-93l-85 174l3 2h53l92 -99l132 99h56l1 -2z" />
    <glyph glyph-name="florin" unicode="&#x192;" horiz-adv-x="611" 
d="M366 353l-29 -169q-41 -240 -158 -351q-63 -59 -147 -53q-84 7 -94 85q-3 23 17 42t43 19q25 0 41.5 -14t16.5 -38q0 -14 -10 -31.5t-10 -19.5q0 -15 23 -15q67 0 98 123q10 39 19.5 111t11.5 84l41 227h-111l7 28h112q21 102 95.5 193t166.5 91q43 0 77.5 -23t34.5 -64
q0 -27 -17 -43t-44 -16q-24 0 -40 16.5t-16 40.5q0 11 8 27q17 34 -14 34q-27 0 -46.5 -19t-30.5 -53t-17.5 -64t-12 -68.5t-8.5 -51.5h120l-6 -28h-121z" />
    <glyph glyph-name="circumflex" unicode="&#x2c6;" horiz-adv-x="333" 
d="M102 494l157 174h93l87 -174l-3 -2h-56l-90 98l-136 -98h-51z" />
    <glyph glyph-name="caron" unicode="&#x2c7;" horiz-adv-x="333" 
d="M314 492h-93l-85 174l3 2h53l92 -99l132 99h56l1 -2z" />
    <glyph glyph-name="uni02C9" unicode="&#x2c9;" horiz-adv-x="333" 
d="M332 596h-331v72h331v-72z" />
    <glyph glyph-name="breve" unicode="&#x2d8;" horiz-adv-x="333" 
d="M154 668h44q-3 -44 21 -65.5t70 -21.5q92 0 124 87h44q-17 -73 -65 -118t-120 -45q-73 0 -103.5 45t-14.5 118z" />
    <glyph glyph-name="dotaccent" unicode="&#x2d9;" horiz-adv-x="333" 
d="M165 533q-25 0 -43.5 20t-18.5 45q0 26 18.5 45.5t43.5 19.5q26 0 45.5 -19t19.5 -46t-19 -46t-46 -19z" />
    <glyph glyph-name="ring" unicode="&#x2da;" horiz-adv-x="333" 
d="M166 470q-44 0 -75 31.5t-31 75.5q0 43 31.5 74.5t74.5 31.5q44 0 75.5 -31t31.5 -75q0 -45 -31.5 -76t-75.5 -31zM166 634q-23 0 -40.5 -17t-17.5 -40t17.5 -40.5t40.5 -17.5t41 17.5t18 40.5t-18 40t-41 17z" />
    <glyph glyph-name="ogonek" unicode="&#x2db;" horiz-adv-x="333" 
d="M252 -66l18 -30q-14 -14 -43 -32q-31 -19 -90 -15q-53 4 -69 48q-14 38 17.5 66.5t87.5 28.5h49l-6 -11l-31 -6q-17 -3 -26.5 -17t-6.5 -30q4 -23 44 -27q16 -2 56 25z" />
    <glyph glyph-name="tilde" unicode="&#x2dc;" horiz-adv-x="333" 
d="M307 663h43q-30 -126 -121 -126q-33 0 -85 24q-50 24 -72 24q-16 0 -29 -14t-16 -33h-42q7 52 37.5 88.5t80.5 36.5q31 0 83 -24q52 -25 69 -25q21 0 31.5 12.5t20.5 36.5z" />
    <glyph glyph-name="hungarumlaut" unicode="&#x2dd;" horiz-adv-x="333" 
d="M145 586l-137 -88h-61l97 111q4 5 15.5 19t18 21t17.5 16.5t22.5 13.5t24.5 4q18 0 31 -13t13 -31q0 -13 -7 -23.5t-13.5 -15.5t-20.5 -14zM346 586l-137 -88h-61l97 111q4 5 15.5 19t18 21t17.5 16.5t22.5 13.5t24.5 4q18 0 31 -13t13 -31q0 -13 -7 -23.5t-13.5 -15.5
t-20.5 -14z" />
    <glyph glyph-name="uni03A9" unicode="&#x3a9;" horiz-adv-x="799" 
d="M742 161l-64 -161h-273l-4 24q1 2 27 33t34.5 42.5t32 43t35 52t28.5 50.5t27 59t16 58q28 137 -8 201t-117 64q-177 0 -234 -269q-8 -38 -7.5 -79.5t4 -69t17 -71.5t18.5 -57.5t22 -56.5l-13 -24h-274l8 161l32 1q8 -44 21.5 -58t48.5 -14h103q-14 12 -24.5 20.5t-25 23
t-24.5 27.5t-21.5 30.5t-18 36t-11 40t-4 46.5t6.5 51q29 136 137.5 218t250.5 82q144 0 215.5 -79t42.5 -213q-10 -46 -34.5 -87.5t-63 -78t-71 -61.5t-78.5 -56h114q34 0 51.5 13t44.5 59z" />
    <glyph glyph-name="uni03BC" unicode="&#x3bc;" 
d="M317 161l59 235h129l-79 -352q-3 -18 12 -18q24 0 50.5 35.5t36.5 65.5l21 -5q-18 -62 -57.5 -99.5t-99.5 -37.5q-33 0 -58 16t-25 48q0 11 3.5 32.5t3.5 25.5l-2 2q-34 -57 -71 -87.5t-88 -33.5q-17 -1 -26.5 -13.5t-7.5 -30.5q5 -46 -8 -98q-6 -25 -21.5 -45.5
t-40.5 -20.5q-23 0 -34.5 31.5t-7.5 54.5q10 56 32 92q19 33 12 50q-14 33 -5 74l67 286h-72l7 28h103q17 0 51 2t51 2l-82 -333q-8 -33 -3.5 -40t17.5 -7q40 0 93 73q35 48 40 68z" />
    <glyph glyph-name="pi" unicode="&#x3c0;" horiz-adv-x="621" 
d="M611 469l26 -9q-10 -30 -30 -65t-34 -48q-22 -6 -71 -6q-20 -62 -47 -197q-17 -83 27 -83q20 0 52 22l8 -27q-27 -31 -65.5 -49.5t-73.5 -18.5q-106 0 -79 128q18 82 59 227q-126 2 -143 2l-3 -12q-21 -99 -52.5 -177t-51.5 -108t-34 -43q-39 -14 -72 -17l-4 21
q63 62 107.5 158.5t62.5 179.5q-46 0 -75.5 -9t-68.5 -32l-11 29q51 52 78 69q55 35 131 34q240 -3 292 -3q24 0 39.5 7t32.5 27z" />
    <glyph glyph-name="endash" unicode="&#x2013;" horiz-adv-x="500" 
d="M0 150l20 102h500l-20 -102h-500z" />
    <glyph glyph-name="emdash" unicode="&#x2014;" horiz-adv-x="1000" 
d="M0 150l20 102h1000l-20 -102h-1000z" />
    <glyph glyph-name="quoteleft" unicode="&#x2018;" horiz-adv-x="278" 
d="M285 683l5 -23q-50 -15 -88.5 -50t-38.5 -81q0 -30 12 -30q21 41 59 41q31 0 47 -18.5t16 -49.5q0 -29 -24 -49t-54 -20q-47 0 -73.5 31.5t-26.5 79.5q0 62 50.5 108t115.5 61z" />
    <glyph glyph-name="quoteright" unicode="&#x2019;" horiz-adv-x="278" 
d="M155 403l-5 23q50 15 88.5 50t38.5 81q0 30 -12 30q-21 -41 -59 -41q-31 0 -47 18.5t-16 49.5q0 29 24 49t54 20q47 0 73.5 -31.5t26.5 -79.5q0 -62 -50.5 -108t-115.5 -61z" />
    <glyph glyph-name="quotesinglbase" unicode="&#x201a;" horiz-adv-x="278" 
d="M51 -158l-5 23q50 15 88.5 50t38.5 81q0 30 -12 30q-21 -41 -59 -41q-31 0 -47 18.5t-16 49.5q0 29 24 49t54 20q47 0 73.5 -31.5t26.5 -79.5q0 -62 -50.5 -108t-115.5 -61z" />
    <glyph glyph-name="quotedblleft" unicode="&#x201c;" 
d="M256 683l5 -23q-50 -15 -88.5 -50t-38.5 -81q0 -30 12 -30q20 41 59 41q31 0 47 -18.5t16 -49.5q0 -29 -24 -49t-54 -20q-47 0 -73.5 31.5t-26.5 79.5q0 62 50.5 108t115.5 61zM525 683l5 -23q-50 -15 -88.5 -50t-38.5 -81q0 -30 12 -30q21 41 59 41q31 0 47 -18.5
t16 -49.5q0 -29 -24 -49t-54 -20q-47 0 -73.5 31.5t-26.5 79.5q0 62 50.5 108t115.5 61z" />
    <glyph glyph-name="quotedblright" unicode="&#x201d;" 
d="M427 403l-5 23q50 15 88.5 50t38.5 81q0 30 -12 30q-21 -41 -59 -41q-31 0 -47 18.5t-16 49.5q0 29 24 49t54 20q47 0 73.5 -31.5t26.5 -79.5q0 -62 -50.5 -108t-115.5 -61zM155 403l-5 23q50 15 88.5 50t38.5 81q0 30 -12 30q-21 -41 -59 -41q-31 0 -47 18.5t-16 49.5
q0 29 24 49t54 20q47 0 73.5 -31.5t26.5 -79.5q0 -62 -50.5 -108t-115.5 -61z" />
    <glyph glyph-name="quotedblbase" unicode="&#x201e;" 
d="M323 -158l-5 23q50 15 88.5 50t38.5 81q0 30 -12 30q-7 -15 -24 -29q-17 -12 -35 -12q-31 0 -47 18.5t-16 49.5q0 29 24 49t54 20q47 0 73.5 -31.5t26.5 -79.5q0 -62 -50.5 -108t-115.5 -61zM51 -158l-5 23q50 15 88.5 50t38.5 81q0 30 -12 30q-7 -15 -24 -29
q-17 -12 -35 -12q-31 0 -47 18.5t-16 49.5q0 29 24 49t54 20q47 0 73.5 -31.5t26.5 -79.5q0 -62 -50.5 -108t-115.5 -61z" />
    <glyph glyph-name="dagger" unicode="&#x2020;" horiz-adv-x="500" 
d="M192 -159h-30q37 200 40 276q4 80 -9 145q81 88 91 174q-16 0 -45 -8t-48 -19q-28 -17 -56 -17q-23 0 -34 16t-6 39t22 39t40 16q29 0 50 -17q15 -11 40 -19t41 -8q14 52 3 96q-1 3 -5 18t-4.5 19t-2.5 19t1 19q5 26 25.5 40t46.5 14t40.5 -14t9.5 -40q-2 -9 -7 -19.5
t-10 -17.5t-14 -20t-12 -18q-28 -43 -37 -96q16 0 45 8t48 19q28 17 56 17q23 0 34 -16t6 -39t-22 -39t-40 -16q-29 0 -50 17q-15 11 -40 19t-41 8q-27 -87 17 -174q-34 -56 -60.5 -126t-41 -124.5t-34.5 -139.5q-5 -21 -7 -31z" />
    <glyph glyph-name="daggerdbl" unicode="&#x2021;" horiz-adv-x="500" 
d="M191 409q-28 -17 -56 -17q-23 0 -34 16t-6 39t22 39t40 16q29 0 50 -17q15 -11 40 -19t41 -8q14 52 3 96q-1 3 -5 18t-4.5 19t-2.5 19t1 19q5 26 25.5 40t46.5 14t40.5 -14t9.5 -40q-2 -9 -7 -19.5t-10 -17.5t-14 -20t-12 -18q-28 -43 -37 -96q16 0 45 8t48 19
q28 17 56 17q23 0 34 -16t6 -39t-22 -39t-40 -16q-29 0 -50 17q-15 11 -40 19t-41 8q-27 -87 17 -174q-80 -89 -90 -174q16 0 45 8t48 19q28 17 56 17q23 0 34 -16t6 -39t-22 -39t-40 -16q-29 0 -50 17q-15 11 -40 19t-41 8q-14 -52 -3 -96q1 -3 5 -18t4.5 -19t2.5 -19
t-1 -19q-5 -26 -25.5 -40t-46.5 -14t-40.5 14t-9.5 40q2 9 7 19.5t10 17.5t14 20t12 18q28 43 37 96q-16 0 -45 -8t-48 -19q-28 -17 -56 -17q-23 0 -34 16t-6 39t22 39t40 16q29 0 50 -17q15 -11 40 -19t41 -8q27 88 -18 174q81 88 91 174q-16 0 -45 -8t-48 -19z" />
    <glyph glyph-name="bullet" unicode="&#x2022;" horiz-adv-x="606" 
d="M138 334q0 64 50.5 109.5t121.5 45.5t121.5 -45.5t50.5 -109.5t-50.5 -109.5t-121.5 -45.5t-121.5 45.5t-50.5 109.5z" />
    <glyph glyph-name="ellipsis" unicode="&#x2026;" horiz-adv-x="1000" 
d="M166 149q33 0 58 -24.5t25 -57.5q0 -34 -24.5 -58t-58.5 -24t-58 24.5t-24 57.5t24.5 57.5t57.5 24.5zM499 149q33 0 58 -24.5t25 -57.5q0 -34 -24.5 -58t-58.5 -24t-58 24.5t-24 57.5t24.5 57.5t57.5 24.5zM832 149q33 0 58 -24.5t25 -57.5q0 -34 -24.5 -58t-58.5 -24
t-58 24.5t-24 57.5t24.5 57.5t57.5 24.5z" />
    <glyph glyph-name="perthousand" unicode="&#x2030;" horiz-adv-x="1000" 
d="M696 125q0 77 56.5 142.5t132.5 65.5q55 0 82.5 -32t27.5 -88q0 -78 -40 -146q-51 -85 -130 -85q-63 0 -96 39.5t-33 103.5zM911 300q-47 0 -82 -84t-35 -141q0 -59 50 -65q17 -3 41.5 14.5t47.5 54.5q14 22 25.5 64.5t11.5 70.5q0 33 -14 59.5t-45 26.5zM464 -18
q-62 0 -96 40t-34 103q0 76 57.5 142t132.5 66q55 0 82.5 -32t27.5 -88q0 -47 -16.5 -95t-45.5 -82q-47 -54 -108 -54zM550 300q-47 0 -82 -84t-35 -141q0 -30 11 -45.5t39 -19.5q36 -5 81 60t45 144q0 33 -14 59.5t-45 26.5zM542 701h25l-445 -751h-49l398 670l-2 2
q-43 -38 -111 -38q-25 0 -57 13q9 -55 -6 -117.5t-58.5 -110t-103.5 -47.5q-59 0 -92.5 40.5t-33.5 101.5q0 88 61.5 149t128.5 61q42 0 78 -30q38 -30 84 -30q47 0 89 23.5t60 53.5q2 4 5.5 6.5t8 3t7.5 1t7.5 0t5.5 -0.5zM104 419q0 -66 52 -66q53 0 87.5 71t34.5 131
q0 28 -8 49q-35 13 -61 30q-21 3 -46 -31t-42 -86t-17 -98z" />
    <glyph glyph-name="guilsinglleft" unicode="&#x2039;" horiz-adv-x="333" 
d="M76 222l168 125q15 11 20 11q8 0 8 -9q0 -21 -36 -57l-87 -91l39 -69q28 -49 28 -69q0 -9 -9 -9q-10 0 -30 22l-103 113l-6 6l-7 7t-3 5t3 4.5t8 5.5t7 5z" />
    <glyph glyph-name="guilsinglright" unicode="&#x203a;" horiz-adv-x="333" 
d="M257 190l-168 -125q-15 -11 -20 -11q-8 0 -8 9q0 21 36 57l87 91l-39 69q-28 49 -28 69q0 9 9 9q10 0 30 -22l103 -113l6 -6l7 -7t3 -5t-3 -4.5t-8 -5.5t-7 -5z" />
    <glyph glyph-name="fraction" unicode="&#x2044;" horiz-adv-x="167" 
d="M333 665l-448 -665h-53l448 665h53z" />
    <glyph glyph-name="Euro" unicode="&#x20ac;" horiz-adv-x="611" 
d="M466 239h-211q-1 -5 -4 -28.5t-4 -31.5t-2.5 -29.5t-0.5 -30.5l3 -27t7.5 -26t13.5 -20t19.5 -17.5t28 -9.5t36.5 -4q67 0 119.5 50.5t74.5 106.5l36 -6l-42 -166h-22l-29 34q-58 -49 -152 -49q-110 0 -172.5 68t-64.5 186h-78l29 54h52q3 31 13 69h-68l29 54h59
q30 65 75 117q113 132 244 132q68 0 120 -52l39 37h21l-24 -167l-33 3q-4 59 -35.5 104t-84.5 45q-23 0 -42.5 -7t-33 -15t-26.5 -26.5t-20 -29t-15.5 -36.5t-11 -35t-9.5 -37.5t-8 -32.5h269l-30 -54h-252q-2 -11 -7 -34.5t-7 -34.5h230z" />
    <glyph glyph-name="afii61289" unicode="&#x2113;" horiz-adv-x="465" 
d="M397 136l18 -23q-100 -127 -221 -127q-78 0 -109 40q-31 46 -9 148l12 56l-72 -40l-7 31l88 52l26 126q24 108 46.5 160t63.5 90q60 59 128 59q54 0 73 -39.5t7 -96.5q-16 -78 -69.5 -141.5t-151.5 -135.5l-16 -74q-18 -90 -4.5 -126.5t61.5 -36.5q64 0 136 78zM254 457
l-23 -108q111 101 137 221q10 38 5 70t-28 32q-28 0 -46 -45.5t-45 -169.5z" />
    <glyph glyph-name="trademark" unicode="&#x2122;" horiz-adv-x="1000" 
d="M22 558l6 110h335l4 -110h-14q-17 54 -38.5 76t-73.5 18v-308h46v-15h-184v15h46v308q-52 4 -73.5 -18t-38.5 -76h-15zM794 652v-308h45v-15h-182v15h48v307h-2l-106 -322h-20l-105 322h-1v-276q0 -5 1 -9t1.5 -7t3 -5.5t3.5 -4t5 -2.5t5.5 -1.5t7.5 -1t7.5 -0.5h8.5h9
v-15h-118v15q36 0 43 7t7 24v277h-50v16h156l63 -205l66 205h149v-16h-45z" />
    <glyph glyph-name="Omega" unicode="&#x2126;" horiz-adv-x="799" 
d="M742 161l-64 -161h-273l-4 24q1 2 27 33t34.5 42.5t32 43t35 52t28.5 50.5t27 59t16 58q28 137 -8 201t-117 64q-177 0 -234 -269q-8 -38 -7.5 -79.5t4 -69t17 -71.5t18.5 -57.5t22 -56.5l-13 -24h-274l8 161l32 1q8 -44 21.5 -58t48.5 -14h103q-14 12 -24.5 20.5t-25 23
t-24.5 27.5t-21.5 30.5t-18 36t-11 40t-4 46.5t6.5 51q29 136 137.5 218t250.5 82q144 0 215.5 -79t42.5 -213q-10 -46 -34.5 -87.5t-63 -78t-71 -61.5t-78.5 -56h114q34 0 51.5 13t44.5 59z" />
    <glyph glyph-name="estimated" unicode="&#x212e;" horiz-adv-x="905" 
d="M873 315h-611q-5 0 -5 -4v-185q0 -11 8 -21q97 -100 231 -100q146 0 243 112h55q-52 -61 -130.5 -96t-168.5 -35q-156 0 -266 99t-110 239q0 141 110 240t266 99q157 0 267.5 -99t110.5 -240v-9zM734 339v186q0 13 -9 22q-98 96 -229 96q-133 0 -230 -99q-9 -9 -9 -23
v-182q0 -6 5 -6h468q4 0 4 6z" />
    <glyph glyph-name="partialdiff" unicode="&#x2202;" horiz-adv-x="583" 
d="M315 416h1q39 0 73 -16.5t48 -46.5q22 59 32 103q22 90 5 147q-9 32 -36 52.5t-64 20.5q-70 0 -170 -69q-16 -1 -27 30.5t2 53.5q82 40 165 40q150 0 204 -138q35 -94 9 -221q-30 -141 -105 -239q-110 -147 -263 -147q-91 0 -135 54.5t-25 144.5q21 96 98 162
q83 69 188 69zM338 368h-1q-64 0 -113 -54q-58 -66 -82 -180q-11 -50 4.5 -80t55.5 -30q61 0 125 95q50 72 91 187q-7 23 -28 42.5t-52 19.5z" />
    <glyph glyph-name="Delta" unicode="&#x2206;" horiz-adv-x="693" 
d="M601 0h-617l7 33l405 617l62 14l150 -631zM458 59l-102 456l-291 -456h393z" />
    <glyph glyph-name="product" unicode="&#x220f;" horiz-adv-x="842" 
d="M813 666v-32q-67 -5 -81.5 -18.5t-14.5 -65.5v-506q0 -57 15 -71.5t80 -18.5v-33h-305v33q59 5 71 17.5t12 72.5v546q0 23 -6.5 29t-30.5 6h-179q-23 0 -29 -5.5t-6 -26.5v-549q0 -59 10.5 -72.5t65.5 -17.5v-33h-298v33q64 4 79 18.5t15 71.5v506q0 53 -15 66.5
t-82 17.5v32h699z" />
    <glyph glyph-name="summation" unicode="&#x2211;" horiz-adv-x="688" 
d="M665 128l-50 -213h-501v32l228 311l-221 375v33h493q5 -78 13 -176l-33 -8q-17 71 -40 109q-13 21 -33 28.5t-76 7.5h-171l175 -293l-230 -318h260q51 0 72 6.5t37.5 29.5t42.5 85z" />
    <glyph glyph-name="minus" unicode="&#x2212;" horiz-adv-x="500" 
d="M472 182h-443v81h443v-81z" />
    <glyph glyph-name="uni2215" unicode="&#x2215;" horiz-adv-x="167" 
d="M333 665l-448 -665h-53l448 665h53z" />
    <glyph glyph-name="uni2219" unicode="&#x2219;" horiz-adv-x="333" 
d="M153 304q33 0 58 -24.5t25 -57.5q0 -34 -24.5 -58t-58.5 -24t-58 24.5t-24 57.5t24.5 57.5t57.5 24.5z" />
    <glyph glyph-name="radical" unicode="&#x221a;" horiz-adv-x="668" 
d="M658 836l-178 -981l-30 -14l-225 519l-90 -43l-13 39l185 87l161 -388h2l139 791z" />
    <glyph glyph-name="infinity" unicode="&#x221e;" horiz-adv-x="804" 
d="M758 271v-1q0 -77 -47.5 -123.5t-111.5 -46.5q-92 0 -177 111q-45 -54 -86 -82.5t-95 -28.5q-64 0 -110.5 46.5t-46.5 118.5q0 74 47 121.5t118 47.5q94 0 178 -108q50 56 74 74q48 35 104 34q66 -1 109.5 -46t43.5 -117zM249 170h1q25 0 52 16.5t42 32t39 44.5
q-27 36 -40.5 52.5t-40.5 33.5t-56 17q-40 0 -65 -28t-25 -73q0 -39 27 -67t66 -28zM597 366h-1q-14 0 -28.5 -5.5t-24.5 -11.5t-24 -19t-20.5 -20t-19.5 -22t-16 -19q45 -56 74 -77.5t64 -21.5q39 0 62 29.5t23 65.5q0 44 -24.5 72.5t-64.5 28.5z" />
    <glyph glyph-name="integral" unicode="&#x222b;" horiz-adv-x="495" 
d="M254 -5l-21 381q-5 101 3.5 179t26 123t43.5 74t50.5 38.5t51.5 9.5t50 -15t23 -39q0 -27 -16 -41.5t-39 -14.5q-16 0 -25.5 15t-16.5 30.5t-16 15.5q-39 0 -30 -151l18 -359q6 -122 -6 -211.5t-38.5 -138.5t-59.5 -71.5t-74 -22.5q-31 0 -52 16.5t-22 40.5t20.5 41.5
t45.5 17.5q17 0 30 -33t23 -33q39 0 31 148z" />
    <glyph glyph-name="approxequal" unicode="&#x2248;" horiz-adv-x="604" 
d="M518 433l48 -47q-60 -98 -141 -98q-47 0 -116 39q-56 32 -87 32q-30 0 -53 -18t-48 -52l-48 46q24 43 66 70.5t87 27.5q47 0 108 -35q24 -15 34 -20.5t25 -10t30 -4.5q49 0 95 70zM518 249l48 -46q-60 -98 -142 -98q-47 0 -115 39q-55 31 -87 31q-31 0 -53.5 -18
t-47.5 -52l-48 47q24 43 66 70.5t87 27.5q44 0 107 -35q4 -2 17 -9.5t18 -10.5t15.5 -7.5t19.5 -6t19 -1.5q28 0 49.5 16.5t46.5 52.5z" />
    <glyph glyph-name="notequal" unicode="&#x2260;" horiz-adv-x="622" 
d="M473 489l-39 -84h140v-75h-171l-59 -129h230v-74h-261l-52 -114l-59 27l39 87h-137v74h169l58 129h-227v75h258l50 111z" />
    <glyph glyph-name="lessequal" unicode="&#x2264;" horiz-adv-x="642" 
d="M592 102l-464 215v80l464 214v-84l-385 -169v-2l385 -169v-85zM594 -8h-469v75h469v-75z" />
    <glyph glyph-name="greaterequal" unicode="&#x2265;" horiz-adv-x="642" 
d="M129 611l464 -215v-79l-463 -215v85l384 169v2l-385 169v84zM591 -8h-465v75h465v-75z" />
    <glyph glyph-name="lozenge" unicode="&#x25ca;" horiz-adv-x="687" 
d="M642 316l-210 -388h-90l-209 388l211 391h88zM555 316l-165 316h-4l-166 -315l166 -317h3z" />
    </font>
</defs>
</svg>
