<?xml version="1.0" standalone="no"?>
<!DOCTYPE svg PUBLIC "-//W3C//DTD SVG 1.1//EN" "http://www.w3.org/Graphics/SVG/1.1/DTD/svg11.dtd" >
<svg xmlns="http://www.w3.org/2000/svg" xmlns:xlink="http://www.w3.org/1999/xlink" version="1.1">
<metadata>
Created by FontForge 20170731 at Mon Apr  1 19:55:51 2002
 By Aleksey,,,
Copyright (c) 1986, 1990, 1991, 1998, 2001 Adobe Systems Incorporated.  All Rights Reserved.
</metadata>
<defs>
<font id="BodoniStd" horiz-adv-x="500" >
  <font-face 
    font-family="Bodoni Std"
    font-weight="400"
    font-stretch="normal"
    units-per-em="1000"
    panose-1="2 7 7 3 7 7 6 2 3 3"
    ascent="698"
    descent="-302"
    x-height="396"
    cap-height="668"
    bbox="-168 -250 1000 940"
    underline-thickness="50"
    underline-position="-200"
    unicode-range="U+0020-FB02"
  />
<missing-glyph 
d="M0 0v700h500v-700h-500zM250 395l170 255h-340zM280 350l170 -255v510zM80 50h340l-170 255zM50 605v-510l170 255z" />
    <glyph glyph-name="fi" unicode="fi" horiz-adv-x="556" 
d="M17 371v25h70q0 227 167 279q26 8 56 8q46 0 86 -24.5t40 -67.5q0 -24 -13 -38.5t-37 -14.5q-38 0 -51.5 27t13.5 62q12 13 -4 24.5t-41 11.5q-49 0 -78.5 -37t-29.5 -81v-149h89q121 0 184 6v-377h70v-25h-236v25h58v346h-165v-346h58v-25h-236v25h70v346h-70z" />
    <glyph glyph-name="fl" unicode="fl" horiz-adv-x="556" 
d="M256 0h-240v25h72v346h-72v25h72q3 75 21 131t41 85t54 46t53 21t46 4q37 0 83 -22q15 0 42 10t40 12v-658h72v-25h-237v25h57v346h-164v-346h60v-25zM196 522v-126h164v141q-13 2 -24 14t-11 26q0 9 11 27t11 30q0 15 -14.5 22t-29.5 7q-43 0 -75 -32t-32 -109z" />
    <glyph glyph-name=".notdef" 
d="M0 0v700h500v-700h-500zM250 395l170 255h-340zM280 350l170 -255v510zM80 50h340l-170 255zM50 605v-510l170 255z" />
    <glyph glyph-name=".null" horiz-adv-x="0" 
 />
    <glyph glyph-name="nonmarkingreturn" horiz-adv-x="333" 
 />
    <glyph glyph-name="space" unicode=" " horiz-adv-x="250" 
 />
    <glyph glyph-name="exclam" unicode="!" horiz-adv-x="333" 
d="M180 212h-27q0 150 -37 317q-16 71 -16 94q0 29 19 44.5t47 15.5q29 0 48 -15.5t19 -44.5q0 -23 -16 -94q-37 -167 -37 -317zM166 113q24 0 43.5 -19t19.5 -45t-19.5 -45t-43.5 -19q-25 0 -45 19t-20 45t20 45t45 19z" />
    <glyph glyph-name="quotedbl" unicode="&#x22;" horiz-adv-x="340" 
d="M77 398l-16 204q0 14 -1.5 32t8.5 33.5t31 15.5q42 0 36 -81l-14 -204q0 -1 -0.5 -5t-0.5 -6.5t-1.5 -6.5t-3.5 -6.5t-6.5 -4.5t-9.5 -2t-9.5 2t-6.5 4.5t-3.5 6.5t-1.5 6.5t-0.5 6.5t-0.5 5zM221 398l-16 204q0 14 -1.5 32t8.5 33.5t31 15.5q42 0 36 -81l-14 -204
q0 -1 -0.5 -5t-0.5 -6.5t-1.5 -6.5t-3.5 -6.5t-6.5 -4.5t-9.5 -2t-9.5 2t-6.5 4.5t-3.5 6.5t-1.5 6.5t-0.5 6.5t-0.5 5z" />
    <glyph glyph-name="numbersign" unicode="#" 
d="M471 271v-55h-109l-31 -216h-58l31 216h-134l-33 -216h-58l33 216h-107v55h116l21 134h-110v55h118l31 202h58l-31 -202h133l30 202h58l-30 -202h97v-55h-105l-20 -134h100zM333 405h-133l-21 -134h134z" />
    <glyph glyph-name="dollar" unicode="$" 
d="M278 630v77h25v-79q51 -7 93.5 -41.5t42.5 -83.5q0 -23 -14.5 -38t-37.5 -15q-44 0 -44 48q0 22 29 40q15 9 15 19q-1 16 -33.5 35t-50.5 18v-238q78 -32 114 -70.5t36 -112.5q0 -69 -41 -118.5t-109 -64.5v-101h-25v97q-39 -3 -67 0v-97h-26v98q-54 8 -98.5 45t-44.5 87
q0 26 16.5 43.5t42.5 17.5q17 0 31 -12.5t14 -29.5q0 -37 -24 -51q-1 -1 -8 -4.5t-9 -5t-4.5 -5.5t-2.5 -9q0 -16 35 -37.5t52 -18.5v274q-55 21 -88 63t-33 99q0 60 32 103t89 62v83h26v-77q33 1 67 0zM211 611v-211q11 -4 33.5 -11t33.5 -11v235q-10 4 -32 3t-35 -5z
M185 407v197q-82 -34 -82 -106q0 -60 82 -91zM303 263v-238q49 12 79.5 46.5t30.5 83.5q0 22 -9 39t-30 31t-32.5 20t-38.5 18zM211 289v-268q28 -3 67 0v248q-13 3 -67 20z" />
    <glyph glyph-name="percent" unicode="%" horiz-adv-x="944" 
d="M731 664l-454 -695h-51l386 592l-2 2q-53 -32 -123 -32q-43 0 -88 14q6 -117 -62.5 -202t-151.5 -85q-49 0 -83.5 33.5t-34.5 92.5q0 50 30.5 109t81.5 102t102 43q24 0 45 -9.5t30 -17t32 -30.5q17 -16 68 -21.5t92 4.5q90 23 127 88q7 12 25 12h31zM222 526l-40 -77
q-26 -51 -27.5 -89t15 -55t43.5 -17q32 0 73.5 35.5t70 99.5t16.5 129q-39 18 -72 45q-42 0 -79 -71zM760 370q55 0 87.5 -33.5t29.5 -92.5q-5 -100 -65 -175.5t-153 -75.5q-50 0 -83 34t-33 89q0 80 69.5 167t147.5 87zM781 333q-32 0 -69 -53t-59 -112t-22 -86
q0 -29 15.5 -45.5t44.5 -15.5q44 2 83.5 42t59.5 90t20 91q0 38 -18.5 63.5t-54.5 25.5z" />
    <glyph glyph-name="ampersand" unicode="&#x26;" horiz-adv-x="833" 
d="M339 501l50 -71q87 24 87 122q0 103 -86 103q-36 0 -58.5 -20t-22.5 -55q0 -37 30 -79zM540 0l-41 59q-98 -79 -223 -79q-90 0 -152 48.5t-62 135.5q0 36 14 67.5t32 51.5t51 41t55.5 31.5t60.5 26.5q-56 92 -56 147q0 71 51.5 110t124.5 39q42 0 78.5 -10t65.5 -38
t29 -71q0 -90 -163 -151l165 -233q37 43 57.5 99.5t19.5 113.5h-98v25h223v-25h-95q0 -60 -25 -127.5t-65 -109.5l86 -126h99v-25h-232zM483 82l-194 280q-30 -13 -45 -21.5t-33 -23.5t-25.5 -35t-7.5 -48q0 -63 56 -143q24 -34 48.5 -51t59.5 -17q68 0 141 59z" />
    <glyph glyph-name="quotesingle" unicode="'" horiz-adv-x="200" 
d="M79 398l-16 204q0 14 -1.5 32t8.5 33.5t31 15.5q42 0 36 -81l-14 -204q0 -1 -0.5 -5t-0.5 -6.5t-1.5 -6.5t-3.5 -6.5t-6.5 -4.5t-9.5 -2t-9.5 2t-6.5 4.5t-3.5 6.5t-1.5 6.5t-0.5 6.5t-0.5 5z" />
    <glyph glyph-name="parenleft" unicode="(" horiz-adv-x="333" 
d="M285 683v-27q-48 -32 -79.5 -79.5t-45 -109t-17.5 -111t-4 -117.5q0 -48 2 -88t4 -71.5t9 -60t10.5 -47t14.5 -40t15.5 -32t19.5 -29t21 -25t24.5 -26t25.5 -26.5v-28q-110 85 -173 203t-63 253q0 141 69 272t167 189z" />
    <glyph glyph-name="parenright" unicode=")" horiz-adv-x="333" 
d="M49 656v27q98 -58 167 -189t69 -272q0 -135 -63 -253t-173 -203v28q7 7 25.5 26.5t24.5 26t21 25t19.5 29t15.5 32t14.5 40t10.5 47t9 60t4 71.5t2 88q0 68 -4 117.5t-17.5 111t-45 109t-79.5 79.5z" />
    <glyph glyph-name="asterisk" unicode="*" 
d="M250 645q25 0 32.5 -24t-4.5 -53q-21 -59 -18 -113q45 25 87 75q26 32 45 32q39 0 39 -39q0 -24 -31 -37q-12 -5 -61 -17t-71 -29q41 -26 79 -34q48 -10 55 -13q30 -12 30 -37q0 -37 -39 -37q-10 0 -25 11t-19 20q-6 13 -37.5 39.5t-51.5 35.5q-3 -54 18 -113
q12 -29 4.5 -53t-32.5 -24q-24 0 -31.5 24t4.5 53q21 59 18 113q-20 -9 -51.5 -35.5t-37.5 -39.5q-4 -9 -19 -20t-25 -11q-39 0 -39 37q0 25 30 37q7 3 55 13q38 8 79 34q-22 17 -71 29t-61 17q-31 13 -31 37q0 39 39 39q19 0 45 -32q42 -50 87 -75q3 54 -18 113
q-12 29 -4.5 53t31.5 24z" />
    <glyph glyph-name="plus" unicode="+" 
d="M29 249h195v194h54v-194h194v-54h-194v-195h-54v195h-195v54z" />
    <glyph glyph-name="comma" unicode="," horiz-adv-x="333" 
d="M271 6q0 -50 -29 -93.5t-75 -73.5q-7 -2 -13 1t-6 11q0 5 19 18q28 18 51.5 58t23.5 70q0 11 -4.5 26t-12.5 15q-12 0 -16 -16q-4 -17 -18.5 -27t-34.5 -10q-24 0 -39.5 19t-15.5 44q0 30 21 48.5t52 18.5q46 0 71.5 -31t25.5 -78z" />
    <glyph glyph-name="hyphen" unicode="-" horiz-adv-x="333" 
d="M299 174h-265v54h265v-54z" />
    <glyph glyph-name="period" unicode="." horiz-adv-x="333" 
d="M165 113q24 0 43.5 -19t19.5 -45t-19.5 -45t-43.5 -19q-25 0 -45 19t-20 45t20 45t45 19z" />
    <glyph glyph-name="slash" unicode="/" horiz-adv-x="278" 
d="M276 683l-217 -698h-57l216 698h58z" />
    <glyph glyph-name="zero" unicode="0" 
d="M152 431v-218q0 -100 12 -137q21 -66 82 -66q23 0 40 8.5t27 26t16.5 33.5t8.5 43t2.5 40.5t0.5 40.5v11v218q0 192 -95 192q-94 0 -94 -192zM30 320q0 78 28.5 153t79.5 123.5t108 48.5q87 0 152 -102t65 -223q0 -156 -68.5 -245.5t-148.5 -89.5t-148 89.5t-68 245.5z
" />
    <glyph glyph-name="one" unicode="1" 
d="M208 25v543q0 31 -10.5 36t-58.5 5h-56v25h58q15 0 175 11v-620h116v-25h-343v25h119z" />
    <glyph glyph-name="two" unicode="2" 
d="M407 185h22l-5 -185h-395v65q11 10 51 46.5t68.5 63.5t64 63t58 68t29.5 55q15 50 15 100q0 60 -30.5 104.5t-87.5 44.5q-42 0 -79 -28t-37 -68q0 -7 6 -11.5t20 -0.5t19 4q55 0 55 -50q0 -58 -62 -58q-32 0 -50.5 24.5t-18.5 57.5q0 74 57.5 119.5t133.5 45.5
q79 0 136 -45.5t57 -122.5q0 -45 -21 -85t-80 -92l-237 -209h250q37 0 49 16t12 78z" />
    <glyph glyph-name="three" unicode="3" 
d="M230 339v-1q42 -4 76.5 -13.5t67 -28t51 -50t18.5 -74.5q0 -89 -71.5 -138t-164.5 -49q-75 0 -122 34.5t-47 84.5q0 26 18.5 45t44.5 19q22 0 37.5 -15.5t15.5 -37.5q0 -9 -1.5 -16t-6.5 -13t-7.5 -8.5t-12 -9t-12.5 -9.5q-19 -14 8 -32q28 -19 73 -19q68 0 98.5 44
t30.5 115q0 126 -98 149q-39 9 -85 7q-31 -2 -31 12q0 7 3 10t11.5 4t25.5 2q28 1 49 2q35 2 59 28t33.5 58.5t9.5 66.5q0 117 -96 117q-31 0 -59 -19q-21 -15 -6 -27q14 -9 20 -14.5t11 -16t5 -24.5q0 -21 -15.5 -33t-36.5 -12q-24 0 -39 17t-15 42q0 52 49.5 80.5
t105.5 28.5q73 0 130.5 -37.5t57.5 -106.5q0 -67 -53.5 -107t-129.5 -55z" />
    <glyph glyph-name="four" unicode="4" 
d="M44 198h220v337zM444 170h-76v-145h81v-25h-273v25h88v145h-255v29l291 446h68v-447h76v74h26v-177h-26v75z" />
    <glyph glyph-name="five" unicode="5" 
d="M384 673h21q0 -78 -33 -100q-31 -22 -134 -22h-113l-8 -184q48 16 112 16q110 0 166 -59t56 -135q0 -86 -62 -145t-186 -59q-62 0 -108 31.5t-46 91.5q0 24 17 42t40 18q27 0 41 -16t14 -43q0 -11 -4.5 -19.5t-9 -12.5t-14 -10t-13.5 -9q-17 -12 0 -29q22 -21 84 -21
q129 0 129 179q0 74 -32.5 121t-103.5 47q-48 0 -78 -16q-32 -15 -32 -4l11 246q1 40 12 52t36 12h204q28 0 34 28z" />
    <glyph glyph-name="six" unicode="6" 
d="M427 645v-23q-112 -17 -182 -87.5t-83 -181.5q61 50 121 50q83 0 135 -61.5t52 -145.5q0 -91 -64.5 -151t-155.5 -60q-67 0 -117 41.5t-73 101t-23 124.5q0 156 116.5 270.5t273.5 122.5zM350 195q0 91 -11 124q-20 57 -75 58q-28 0 -55.5 -18.5t-45.5 -43.5
q-4 -5 -5.5 -26.5t-1 -42.5t1 -46.5t0.5 -28.5q0 -87 22.5 -127.5t76.5 -40.5q22 0 36 5.5t28.5 23t21.5 58.5t7 105z" />
    <glyph glyph-name="seven" unicode="7" 
d="M46 457l56 188h356q1 -7 -1 -15t-4 -12.5t-7.5 -15t-6.5 -12.5l-87 -184q-89 -189 -49 -294q14 -38 14 -57q0 -31 -17 -50.5t-47 -19.5q-34 0 -50.5 23.5t-16.5 59.5q0 20 44 123.5t96.5 219t61.5 140.5h-198h-26.5t-21 1t-15.5 -1t-12 -1.5t-8.5 -5t-7 -7t-5.5 -12.5
t-6 -16.5t-6.5 -23t-8.5 -28.5h-27z" />
    <glyph glyph-name="eight" unicode="8" 
d="M331 481q0 89 -18 116t-65 27q-23 0 -39.5 -9.5t-24.5 -21.5t-12 -35t-4.5 -37t-0.5 -40q0 -78 19.5 -105t61.5 -27q27 0 45 11t25.5 32.5t10 41t2.5 47.5zM282 333v-2q76 -12 129.5 -57t53.5 -117q0 -60 -35 -100.5t-82 -56t-100 -15.5q-98 0 -157 47t-59 125
q0 71 53 114t126 60v2q-45 12 -76.5 27t-57.5 48.5t-26 79.5q0 77 56 117t141 40q80 0 139.5 -40t59.5 -117q0 -112 -165 -155zM347 161q0 75 -19.5 116t-79.5 41q-98 0 -98 -157q0 -27 1.5 -45.5t7 -41t15.5 -35.5t28.5 -22.5t45.5 -9.5q54 0 76.5 34t22.5 120z" />
    <glyph glyph-name="nine" unicode="9" 
d="M75 -15v22q113 17 182.5 86.5t82.5 181.5q-59 -49 -120 -49q-78 0 -133 58t-55 149q0 85 64 148.5t150 63.5q102 0 160.5 -81.5t58.5 -187.5q0 -156 -116.5 -270.5t-273.5 -120.5zM346 426q0 67 -8 110t-24.5 61t-32 23.5t-40.5 5.5q-20 0 -32.5 -5t-27.5 -23.5
t-22 -61.5t-7 -110q0 -26 0.5 -35.5t2 -36.5t7 -40t14.5 -30.5t25 -25t37 -7.5q24 0 61.5 23.5t40.5 45.5q6 54 6 106z" />
    <glyph glyph-name="colon" unicode=":" horiz-adv-x="333" 
d="M167 113q24 0 43.5 -19t19.5 -45t-19.5 -45t-43.5 -19q-25 0 -45 19t-20 45t20 45t45 19zM167 396q24 0 43.5 -19t19.5 -45t-19.5 -45t-43.5 -19q-25 0 -45 19t-20 45t20 45t45 19z" />
    <glyph glyph-name="semicolon" unicode=";" horiz-adv-x="333" 
d="M174 115q46 0 71.5 -31t25.5 -78q0 -50 -29 -93.5t-75 -73.5q-7 -2 -13 1t-6 11q0 5 19 18q28 18 51.5 58t23.5 70q0 11 -4.5 26t-12.5 15q-12 0 -16 -16q-4 -17 -18.5 -27t-34.5 -10q-24 0 -39.5 19t-15.5 44q0 30 21 48.5t52 18.5zM185 396q24 0 43.5 -19t19.5 -45
t-19.5 -45t-43.5 -19q-25 0 -45 19t-20 45t20 45t45 19z" />
    <glyph glyph-name="less" unicode="&#x3c;" 
d="M486 38v-55l-472 215v50l472 217v-55l-411 -188z" />
    <glyph glyph-name="equal" unicode="=" 
d="M29 315h443v-54h-443v54zM29 184h443v-54h-443v54z" />
    <glyph glyph-name="greater" unicode="&#x3e;" 
d="M14 38l410 184l-410 188v55l472 -217v-50l-472 -215v55z" />
    <glyph glyph-name="question" unicode="?" horiz-adv-x="444" 
d="M191 211h-25q-12 71 -9.5 108.5t25.5 74.5q12 18 39.5 46t42.5 36q19 10 39.5 39t20.5 55q0 42 -34.5 66.5t-78.5 24.5q-23 0 -47.5 -9.5t-38.5 -20.5t-14 -17q0 -5 2.5 -8.5t5 -5t9 -4t9.5 -4.5q25 -12 25 -43q0 -23 -14 -35t-37 -12q-52 0 -52 61q0 48 46.5 84
t108.5 36q72 0 122 -46t50 -117q0 -41 -19 -77t-40 -56t-61 -51l-22 -16.5t-18 -14t-12.5 -10.5t-10 -11.5t-5.5 -12t-4.5 -15.5t-1.5 -19t-1 -26zM178 113q24 0 43.5 -19t19.5 -45t-19.5 -45t-43.5 -19q-25 0 -45 19t-20 45t20 45t45 19z" />
    <glyph glyph-name="at" unicode="@" horiz-adv-x="740" 
d="M408 279l45 135q7 18 7 31q0 28 -14 47.5t-41 19.5q-45 0 -84.5 -59.5t-59 -127.5t-19.5 -112q0 -25 15 -41t39 -16q68 0 112 123zM479 483l13 43h78l-87 -256q-24 -75 -24 -91q0 -19 24 -19q46 0 93 45q79 71 79 189q0 105 -81 177t-187 72q-126 0 -214.5 -89
t-88.5 -216q0 -131 86 -221.5t215 -90.5q80 0 152 42.5t109 113.5h40q-34 -89 -119.5 -143t-182.5 -54q-143 0 -241 102.5t-98 247.5q0 143 98.5 245.5t238.5 102.5q129 0 220.5 -81.5t91.5 -210.5q0 -99 -59 -172q-30 -39 -75 -65t-89 -26q-27 0 -49.5 14.5t-26.5 39.5
q-53 -53 -113 -53q-52 0 -81.5 38.5t-29.5 91.5q0 61 25 124.5t75.5 109.5t113.5 46q32 0 59 -14t35 -42z" />
    <glyph glyph-name="A" unicode="A" horiz-adv-x="667" 
d="M287 506l-101 -279h195zM215 0h-213v25h81l239 658h34l229 -658h80v-25h-317v25h104l-61 177h-216l-62 -177h102v-25z" />
    <glyph glyph-name="B" unicode="B" horiz-adv-x="667" 
d="M243 643v-285h89q61 0 92 33.5t31 115.5q0 34 -5 58t-15 38.5t-24.5 23.5t-32 12t-39 4t-45.5 0t-51 0zM247 0h-231v25h99v618h-99v25h307q268 0 268 -161q0 -69 -56.5 -108t-134.5 -51v-2q53 -4 99.5 -22t80.5 -57t34 -93q0 -115 -131 -158q-26 -8 -60.5 -12.5t-56.5 -5
t-65.5 0.5t-53.5 1zM243 333v-308h126q102 0 102 154q0 75 -30 114t-103 40h-95z" />
    <glyph glyph-name="C" unicode="C" horiz-adv-x="667" 
d="M567 199h28v-205h-22l-41 48q-66 -57 -171 -57q-85 0 -157 51.5t-112 131t-40 162.5q0 98 48.5 184t132.5 136q57 33 136 33q91 0 155 -52l40 42h22v-193h-29q-11 81 -63 129.5t-126 48.5q-49 0 -77.5 -14t-54.5 -54q-13 -21 -21.5 -45.5t-11.5 -59.5t-4 -53t-0.5 -61.5
t0.5 -49.5q0 -142 17 -200q31 -105 142 -111q156 -8 209 189z" />
    <glyph glyph-name="D" unicode="D" horiz-adv-x="722" 
d="M27 643v25h275q81 0 128.5 -10t87.5 -35q154 -95 154 -289q0 -91 -41.5 -171.5t-117.5 -122.5q-35 -20 -82.5 -29t-74.5 -10t-88 -1h-241v25h98v618h-98zM253 643v-618q111 0 144 8q74 17 106 95q4 10 7 20q25 76 25 211q0 91 -15.5 153t-39.5 85q-29 28 -80.5 37
t-146.5 9z" />
    <glyph glyph-name="E" unicode="E" horiz-adv-x="667" 
d="M368 643h-106v-287q79 0 113.5 23.5t38.5 98.5h28v-279h-28q-7 82 -38 108t-114 24v-306h142q47 0 79.5 13t51.5 41t29 58t19 78h29l-9 -215h-569v25h100v618h-100v25h553l6 -180h-28q-15 68 -42 102t-68 45q-29 8 -87 8z" />
    <glyph glyph-name="F" unicode="F" horiz-adv-x="611" 
d="M124 25v618h-99v25h554l7 -204h-27q-7 33 -12 51t-15.5 44t-27 43t-40.5 28q-29 13 -103 13h-109v-287q79 0 113.5 23.5t38.5 98.5h28v-279h-28q-7 82 -38 108t-114 24v-306h99v-25h-326v25h99z" />
    <glyph glyph-name="G" unicode="G" horiz-adv-x="722" 
d="M594 480h-29q-18 75 -66 126.5t-123 51.5q-51 0 -86.5 -19t-53 -43t-26.5 -72t-10 -77t-1 -88v-6.5v-6v-6.5q0 -10 -0.5 -41t0 -45t1.5 -43t4 -44.5t8.5 -40.5t13.5 -38.5t21 -30.5t29 -26t38 -15t49 -6q23 0 41 3t30.5 11.5t22 16t15 23t9 25t4.5 30.5t1.5 30.5t0 34.5
t-0.5 34h-101v25h313v-25h-70q-1 -108 -73 -170.5t-181 -62.5q-83 0 -139 29t-112 95q-71 85 -71 224q0 132 93 244q89 106 219 106q90 0 168 -52l40 42h22v-193z" />
    <glyph glyph-name="H" unicode="H" horiz-adv-x="778" 
d="M522 331h-266v-306h99v-25h-326v25h99v618h-99v25h326v-25h-99v-287h266v287h-99v25h326v-25h-99v-618h99v-25h-326v25h99v306z" />
    <glyph glyph-name="I" unicode="I" horiz-adv-x="389" 
d="M258 643v-618h99v-25h-326v25h99v618h-99v25h326v-25h-99z" />
    <glyph glyph-name="J" unicode="J" 
d="M359 643v-412q0 -4 0.5 -46t0 -60t-5 -48t-12.5 -48q-25 -53 -72 -84.5t-106 -31.5q-49 0 -90 20q-20 10 -35 33t-15 45q0 27 16 47.5t42 20.5t42 -16t16 -41q0 -18 -17 -37q-13 -18 -12 -26q2 -21 54 -21q66 0 66 90v615h-107v25h332v-25h-97z" />
    <glyph glyph-name="K" unicode="K" horiz-adv-x="722" 
d="M725 0h-311v25h103l-256 322l278 296h-114v25h251v-25h-97l-219 -229l319 -389h46v-25zM250 643v-618h99v-25h-326v25h99v618h-99v25h326v-25h-99z" />
    <glyph glyph-name="L" unicode="L" horiz-adv-x="611" 
d="M578 0h-555v25h99v618h-99v25h331v-25h-104v-618h131q169 0 176 200h31z" />
    <glyph glyph-name="M" unicode="M" horiz-adv-x="833" 
d="M715 643v-618h99v-25h-326v25h99v601h-3l-200 -626h-34l-199 626h-2v-601h97v-25h-228v25h99v618h-99v25h258l140 -457l145 457h253v-25h-99z" />
    <glyph glyph-name="N" unicode="N" horiz-adv-x="722" 
d="M603 643v-656h-30l-424 636v-598h98v-25h-228v25h98v618h-98v25h256l296 -437v412h-96v25h228v-25h-100z" />
    <glyph glyph-name="O" unicode="O" horiz-adv-x="722" 
d="M361 -15q-141 0 -226.5 110t-85.5 256q0 126 94.5 229t217.5 103t217 -103t94 -229q0 -146 -85 -256t-226 -110zM525 239v218q0 55 -15 100q-33 101 -149 101q-120 0 -150 -101q-15 -50 -15 -100v-218q0 -69 11 -112q31 -117 154 -117t154 117q10 39 10 112z" />
    <glyph glyph-name="P" unicode="P" horiz-adv-x="667" 
d="M42 643v25h323q279 0 279 -184q0 -50 -24 -87t-64 -56.5t-83 -28.5t-90 -9h-114v-278h106v-25h-333v25h99v618h-99zM269 328h117q35 0 59 12.5t36 35.5t17 49t5 60q0 27 -1.5 44.5t-8 41.5t-18 38t-34.5 24t-55 10h-117v-315z" />
    <glyph glyph-name="Q" unicode="Q" horiz-adv-x="722" 
d="M625 -187v-24q-61 -7 -122 -0.5t-110 23.5t-77.5 63.5t-24.5 117.5q-20 3 -47 15t-62 40t-64 66.5t-49 101t-20 135.5q0 125 94.5 228.5t217.5 103.5q127 0 219 -102.5t92 -229.5q0 -73 -20 -135.5t-49 -100.5t-63.5 -66.5t-61 -40.5t-45.5 -15q-6 -110 37.5 -146
t154.5 -34zM361 7q28 0 51 6t39.5 16t29 26.5t20.5 32t13.5 39.5t7.5 42.5t3 46.5t1 45.5t-0.5 46.5t-0.5 43q0 129 -8 170q-21 121 -124 135q-15 2 -32 2q-35 -1 -62 -9.5t-44 -24t-29.5 -36.5t-17.5 -45.5t-8.5 -52t-3.5 -55.5v-56v-28q0 -13 -0.5 -42t-0.5 -46t1 -45.5
t3.5 -46.5t8 -42.5t13.5 -40t21 -32.5t29.5 -26.5t39 -16t50.5 -6.5z" />
    <glyph glyph-name="R" unicode="R" horiz-adv-x="722" 
d="M272 643v-274h82q67 0 97 32.5t30 100.5q0 82 -27 111.5t-95 29.5h-87zM272 344v-319h99v-25h-326v25h99v618h-99v25h335q49 0 84.5 -4.5t74.5 -19t59.5 -47t20.5 -81.5q0 -40 -19.5 -71t-52.5 -49t-67 -28t-73 -14v-2q112 -17 151.5 -79t39.5 -192q0 -11 0.5 -18
t3.5 -16.5t9.5 -14.5t17 -9t28 -3.5t40.5 4.5v-24q-48 -12 -85 -12q-154 0 -154 153q0 133 -40 167q-42 36 -91 36h-55z" />
    <glyph glyph-name="S" unicode="S" horiz-adv-x="556" 
d="M133 36l-47 -42h-17v199h29q18 -79 64 -131t120 -52q61 0 105 40t44 100q0 17 -4.5 31.5t-9 25t-17.5 21t-19.5 16t-25.5 13.5t-25 10.5t-29 10t-28 9.5q-40 14 -60 20q-139 42 -139 193q0 79 52 131t130 52q82 0 146 -50l38 40h18v-189h-32q-9 75 -55 124.5t-118 49.5
q-50 0 -87 -32.5t-37 -81.5q0 -11 2 -21l3.5 -17.5t8 -14.5t9 -11.5t12 -9.5t12.5 -7t16 -6t16 -5t18 -5t18 -5q14 -4 35 -10.5t27 -8.5q48 -14 66 -23q114 -54 114 -196q0 -96 -58 -157.5t-153 -61.5q-37 0 -77 14t-65 37z" />
    <glyph glyph-name="T" unicode="T" horiz-adv-x="667" 
d="M503 0h-338v25h105v618q-101 5 -144.5 -40.5t-57.5 -148.5h-32l11 214h573l11 -214h-31q-14 103 -57.5 148.5t-144.5 40.5v-618h105v-25z" />
    <glyph glyph-name="U" unicode="U" horiz-adv-x="722" 
d="M478 668h229v-25h-100v-420q0 -73 -14 -115t-46 -71q-58 -52 -194 -52q-105 0 -177 53q-62 46 -62 209v396h-99v25h326v-25h-99v-366q0 -115 5 -144q14 -85 87 -107q32 -9 74 -9q85 0 126 49t41 135v442h-97v25z" />
    <glyph glyph-name="V" unicode="V" horiz-adv-x="667" 
d="M583 643l-232 -658h-30l-239 658h-82v25h317v-25h-103l170 -468l169 468h-104v25h217v-25h-83z" />
    <glyph glyph-name="W" unicode="W" horiz-adv-x="944" 
d="M602 643h-138l72 -172zM15 643v25h680v-25h-66l-79 -221l96 -262l177 483h-81v25h186v-25h-75l-235 -658h-31l-113 307l-111 -307h-32l-240 658h-76zM217 643l180 -483l62 176l-112 307h-130z" />
    <glyph glyph-name="X" unicode="X" horiz-adv-x="722" 
d="M21 643v25h319v-25h-99l140 -229l157 229h-113v25h242v-25h-95l-175 -255l230 -363h77v-25h-327v25h103l-157 252l-177 -252h118v-25h-247v25h94l193 278l-207 340h-76z" />
    <glyph glyph-name="Y" unicode="Y" horiz-adv-x="667" 
d="M522 0h-344v25h106v278l-210 340h-73v25h325v-25h-103l171 -287l161 287h-104v25h215v-25h-80l-174 -318v-300h110v-25z" />
    <glyph glyph-name="Z" unicode="Z" horiz-adv-x="611" 
d="M103 488h-30l15 180h483v-28l-387 -615h167q52 0 85.5 11t54.5 37.5t32 57.5t21 84h28l-8 -215h-525v27l389 616h-108q-67 0 -96 -7q-99 -23 -121 -148z" />
    <glyph glyph-name="bracketleft" unicode="[" horiz-adv-x="389" 
d="M318 -234h-246v917h246v-36h-165v-845h165v-36z" />
    <glyph glyph-name="backslash" unicode="\" horiz-adv-x="520" 
d="M340 0l-217 683h58l216 -683h-57z" />
    <glyph glyph-name="bracketright" unicode="]" horiz-adv-x="389" 
d="M318 -234h-246v36h165v845h-165v36h246v-917z" />
    <glyph glyph-name="asciicircum" unicode="^" 
d="M64 173h-54l215 472h49l217 -472h-54l-188 408z" />
    <glyph glyph-name="underscore" unicode="_" 
d="M0 -75h500v-50h-500v50z" />
    <glyph glyph-name="grave" unicode="`" horiz-adv-x="333" 
d="M232 492l-150 100q-30 20 -30 37q0 15 12.5 27t27.5 12q5 0 11 -2.5t10.5 -5t11.5 -8.5t10 -9l10 -10l9 -9l127 -132h-49z" />
    <glyph glyph-name="a" unicode="a" 
d="M300 145v55q-28 0 -49.5 -3t-45.5 -11t-37 -27t-13 -48q0 -77 65 -77q25 0 44 16.5t29 42.5q7 17 7 52zM300 221v125q0 17 -23.5 26.5t-42.5 9.5q-44 0 -66 -19q-11 -10 -4 -19q14 -19 14 -48q0 -19 -15 -31.5t-33 -12.5q-22 0 -37 12t-15 35q0 51 51 77t108 26
q75 0 128 -27q21 -10 29 -24t8 -37v-266q0 -19 24 -19q12 0 35 23l12 -14q-43 -53 -95 -53q-33 0 -53 19t-25 52q-58 -71 -146 -71q-47 0 -75.5 25t-28.5 72q0 42 25.5 72t66 44t80.5 19.5t78 3.5z" />
    <glyph glyph-name="b" unicode="b" horiz-adv-x="556" 
d="M88 25v618h-72v25q85 -3 180 15v-355q44 74 119 74q82 0 137.5 -65t55.5 -148q0 -81 -54.5 -142.5t-135.5 -61.5q-36 0 -69 19t-53 50v-62q-44 8 -180 8v25h72zM390 99v190q0 40 -19 66.5t-57 26.5q-46 0 -80 -35.5t-38 -83.5v-140q0 -46 35.5 -82t81.5 -36q77 0 77 94z
" />
    <glyph glyph-name="c" unicode="c" horiz-adv-x="444" 
d="M156 212v-80q0 -71 19.5 -99t68.5 -28q52 0 88 32.5t50 87.5h23q-10 -64 -56 -102t-111 -38q-90 0 -146.5 63t-52.5 154q2 38 20.5 81.5t46.5 67.5q58 51 141 51q55 0 102 -25.5t47 -76.5q0 -21 -14.5 -39.5t-35.5 -18.5q-26 0 -44 12.5t-18 38.5q0 17 15.5 32t15.5 22
q0 18 -25 26.5t-45 8.5q-26 0 -44 -10.5t-26.5 -23t-13 -38t-5 -39.5t-0.5 -44v-15z" />
    <glyph glyph-name="d" unicode="d" horiz-adv-x="556" 
d="M354 -8v76h-2q-38 -83 -134 -83q-37 0 -61.5 12t-56.5 40q-28 25 -44 68.5t-16 85.5q0 77 57.5 144t133.5 67q47 0 79.5 -24t41.5 -61h2v326h-72v25q85 -3 180 15v-658h72v-25q-133 0 -180 -8zM162 273v-178q0 -90 72 -90q45 0 82.5 39.5t37.5 85.5v106q0 53 -32 99.5
t-86 46.5q-45 0 -59.5 -28.5t-14.5 -80.5z" />
    <glyph glyph-name="e" unicode="e" horiz-adv-x="444" 
d="M151 246h146q0 9 1 32.5t0.5 33t-4 26.5t-11 24.5t-22 13.5t-36.5 6q-14 0 -24.5 -2t-18 -8t-13.5 -11t-9 -15.5t-5.5 -16.5t-3 -20t-0.5 -20v-22v-21zM385 221h-234v-80q0 -32 2 -51.5t10 -41.5t27.5 -32.5t49.5 -10.5q52 0 91.5 33.5t55.5 86.5h25q-38 -140 -192 -140
q-79 0 -133.5 63.5t-54.5 143.5q0 83 59 146.5t140 63.5q73 0 126 -45.5t53 -117.5q0 -4 -0.5 -7.5t-2 -5.5t-2 -3t-4 -1.5t-4.5 -0.5h-5.5h-6.5z" />
    <glyph glyph-name="f" unicode="f" horiz-adv-x="333" 
d="M200 552v-156h95v-25h-95v-346h86v-25h-272v25h78v346h-80v25h80q0 228 131 277q27 10 51 10q39 0 70 -20.5t31 -58.5q0 -23 -15.5 -37.5t-38.5 -14.5q-20 0 -33.5 12.5t-13.5 32.5q0 24 26 41q9 5 -2 16q-9 9 -25 9q-32 0 -52.5 -39.5t-20.5 -71.5z" />
    <glyph glyph-name="g" unicode="g" horiz-adv-x="444" 
d="M311 -36h-170q-40 0 -40 -75q0 -46 29 -72t75 -26q149 0 182 111q12 39 -8.5 50.5t-67.5 11.5zM156 341v-139q0 -27 12 -38.5t41 -11.5q33 0 45 10t12 40v139q0 24 -13 32.5t-40 8.5q-57 0 -57 -41zM108 58h188q6 0 22 0.5t21.5 0t18 -2t18.5 -5t14.5 -10t15.5 -15.5
q19 -27 19 -72q0 -91 -65 -139.5t-159 -48.5q-37 0 -73 11t-63.5 38t-27.5 66q0 28 18.5 51t45.5 33q-65 24 -65 91q0 77 90 102q-67 42 -67 104q0 64 44 102t108 38q63 0 114 -45q29 35 45 43q14 6 28 6q19 0 31.5 -11.5t12.5 -29.5q0 -36 -36 -36q-14 0 -26.5 17t-14.5 17
q-5 0 -9.5 -3t-11.5 -10l-6 -8q24 -28 24 -74q0 -35 -17.5 -67t-46.5 -49q-14 -8 -34 -12t-31 -4.5t-37.5 0t-31.5 0.5q-96 0 -96 -45q0 -33 40 -33z" />
    <glyph glyph-name="h" unicode="h" horiz-adv-x="556" 
d="M261 0h-235v25h66v618h-72v25q85 -3 180 15v-377h2q19 45 56.5 70.5t87.5 25.5q38 0 75 -15t44 -46q9 -44 9 -161v-155h63v-25h-232v25h63v180q0 11 0.5 30t0.5 28.5t-0.5 25t-2 23.5t-4 19t-7 16.5t-10.5 11t-14.5 8t-19.5 2.5q-30 0 -57 -27t-40 -59q-13 -33 -13 -126
v-132h60v-25z" />
    <glyph glyph-name="i" unicode="i" horiz-adv-x="278" 
d="M267 0h-255v25h73v346h-73v25q29 -1 181 4v-375h74v-25zM190 584q0 -26 -17 -43t-42 -17q-22 0 -38 18.5t-16 41.5q0 20 17 37t37 17q22 0 40.5 -16t18.5 -38z" />
    <glyph glyph-name="j" unicode="j" horiz-adv-x="333" 
d="M240 400v-221q0 -167 -3 -208q-6 -86 -48 -145.5t-121 -59.5q-34 0 -60 22t-26 55q0 18 13 35t31 17q50 0 50 -42q0 -11 -5 -21q-18 -35 11 -40q32 -5 42 36q4 17 6 37.5t2.5 33t0 39t-0.5 34.5v399h-73v25q29 -1 181 4zM240 587q0 -26 -17 -43t-42 -17q-22 0 -38 18.5
t-16 41.5q0 20 17 37t37 17q22 0 40.5 -16t18.5 -38z" />
    <glyph glyph-name="k" unicode="k" horiz-adv-x="556" 
d="M289 371v25h215v-25h-88l-110 -106l188 -240h39v-25h-223v25h57l-153 195l158 151h-83zM264 0h-234v25h64v618h-72v25q85 -3 180 15v-658h62v-25z" />
    <glyph glyph-name="l" unicode="l" horiz-adv-x="278" 
d="M267 0h-256v25h75v618h-72v25q85 -3 180 15v-658h73v-25z" />
    <glyph glyph-name="m" unicode="m" horiz-adv-x="778" 
d="M192 400v-96h2q41 98 139 98q41 0 71.5 -21.5t43.5 -61.5q49 83 130 83q26 0 45 -4t32 -12t21.5 -19t13 -24.5t6.5 -30t2 -34.5v-38v-22v-193h64v-25h-223v25h53v267v10v13.5t-1 12t-2.5 12.5t-4.5 9.5t-7.5 9t-11 5t-15.5 2.5q-51 0 -78 -47t-27 -101v-193h55v-25h-213
v25h52v239q0 6 0.5 23t0.5 24.5t-2.5 20t-7.5 18.5t-15 11t-24 5q-37 0 -68 -47t-31 -103v-191h55v-25h-226v25h65v346h-69v25q22 -1 175 4z" />
    <glyph glyph-name="n" unicode="n" horiz-adv-x="556" 
d="M197 400v-94h2q50 96 149 96q26 0 46 -4.5t32.5 -13.5t21.5 -21t13 -26.5t6.5 -31.5t2.5 -35.5v-38.5v-5v-5v-5.5v-5.5v-185h63v-25h-232v25h63v180q0 11 0.5 29.5t0.5 28.5t-0.5 25t-2 23t-4 18.5t-7 16t-10.5 11t-14.5 7.5t-19.5 2q-30 0 -57 -26t-40 -57
q-13 -33 -13 -126v-132h63v-25h-237v25h68v346h-68v25q23 -1 174 4z" />
    <glyph glyph-name="o" unicode="o" 
d="M40 191q0 84 63 147.5t147 63.5t147 -63.5t63 -147.5t-62.5 -145t-147.5 -61t-147.5 61t-62.5 145zM341 191v21q0 39 -0.5 57.5t-5 45t-13.5 38t-27 20.5t-45 9q-19 0 -34 -5t-24.5 -10.5t-16 -20.5t-10 -23.5t-5 -33t-1.5 -35.5v-42v-21q0 -47 1 -70t5.5 -50.5t14 -38.5
t26.5 -19t44 -8q62 0 76.5 38t14.5 148z" />
    <glyph glyph-name="p" unicode="p" horiz-adv-x="556" 
d="M390 81v214q0 44 -16.5 65.5t-59.5 21.5q-41 0 -79 -41.5t-38 -73.5v-130q0 -51 33 -91.5t82 -40.5q78 0 78 76zM197 400v-81h2q16 35 50.5 59t72.5 24q79 0 133 -62.5t54 -144.5q0 -79 -54.5 -144.5t-132.5 -65.5q-90 0 -123 71h-2v-265h70v-25h-250v25h72v580h-73v25
q29 -1 181 4z" />
    <glyph glyph-name="q" unicode="q" horiz-adv-x="556" 
d="M160 235v-119q0 -111 80 -111q49 0 82 41t33 91v60q0 185 -129 185q-68 0 -66 -141v-6zM463 371v-580h72v-25h-250v25h70v266q-47 -72 -125 -72q-77 0 -132 65.5t-55 144.5q0 81 54 144t133 63q38 0 73 -24.5t50 -59.5h2v82q152 -5 181 -4v-25h-73z" />
    <glyph glyph-name="r" unicode="r" horiz-adv-x="444" 
d="M204 400v-111q21 36 35 55.5t42.5 38.5t62.5 19q32 0 56 -16.5t24 -48.5q0 -56 -63 -56q-18 0 -33 14t-15 32q0 5 2 15q3 12 2 17t-9 5q-19 0 -42 -23q-31 -31 -46.5 -81t-15.5 -142v-93h90v-25h-257v25h59v346h-66v25q24 -1 174 4z" />
    <glyph glyph-name="s" unicode="s" horiz-adv-x="389" 
d="M96 27l-29 -27h-16v143h27q8 -58 40.5 -98t86.5 -40q35 0 63 22t28 58q0 18 -7 29.5t-24 18t-28.5 8.5t-38.5 6q-76 10 -109 42t-33 91q0 56 35 89t91 33q55 0 98 -32l16 26h17v-118h-26q-5 42 -34.5 73t-70.5 31q-32 0 -56.5 -18.5t-24.5 -50.5q0 -24 15.5 -34.5
t79.5 -21.5q40 -7 62 -13.5t43 -20.5t29.5 -38t8.5 -62q0 -138 -143 -138q-24 0 -53 12t-47 30z" />
    <glyph glyph-name="t" unicode="t" horiz-adv-x="333" 
d="M90 384v116l108 6v-122h95v-30h-95v-275q0 -20 1.5 -29.5t10.5 -17.5t27 -8q42 0 61 53l20 -10q-31 -82 -122 -82q-64 0 -85 20.5t-21 65.5v283h-64v30h64z" />
    <glyph glyph-name="u" unicode="u" horiz-adv-x="556" 
d="M358 -8v88h-3q-22 -43 -60.5 -69t-86.5 -26q-66 0 -93.5 28t-27.5 69v289h-65v25q23 -1 171 4v-311v-6q0 -19 1 -27.5t5 -19.5t14.5 -15t27.5 -4q38 0 77.5 40.5t39.5 120.5v193h-76v25q31 -1 182 4v-375h70v-25q-134 0 -176 -8z" />
    <glyph glyph-name="v" unicode="v" 
d="M21 396h227v-25h-63l100 -250l106 250h-69v25h153v-25h-54l-161 -386h-26l-162 386h-51v25z" />
    <glyph glyph-name="w" unicode="w" horiz-adv-x="667" 
d="M5 371v25h226v-25h-67l86 -245l100 270h28l106 -262l82 237h-68v25h159v-25h-60l-129 -386h-32l-111 260l-100 -260h-31l-140 386h-49z" />
    <glyph glyph-name="x" unicode="x" 
d="M185 0h-166v25h64l118 149l-138 197h-44v25h219v-25h-54l86 -117l92 117h-66v25h165v-25h-67l-107 -139l148 -207h42v-25h-220v25h54l-93 128l-102 -128h69v-25z" />
    <glyph glyph-name="y" unicode="y" 
d="M244 0l-176 371h-49v25h229v-25h-64l111 -243l95 243h-72v25h157v-25h-55l-176 -451q-12 -30 -20.5 -48.5t-25.5 -47t-37.5 -43.5t-44.5 -15q-21 0 -38 15t-17 36q0 22 13.5 36.5t34.5 14.5q18 0 27.5 -5t21.5 -19q1 -1 2 -3q7 -11 16 1t24 46q30 66 44 112z" />
    <glyph glyph-name="z" unicode="z" horiz-adv-x="444" 
d="M53 241v155h337v-30l-234 -341h81q38 0 61 8.5t35.5 31t17.5 43.5t10 62h28v-170h-359v27l236 344q-11 0 -32 0.5t-29.5 0.5t-24.5 -1.5t-24 -5.5t-19.5 -10.5t-20 -17.5t-16.5 -27q-11 -21 -21 -69h-26z" />
    <glyph glyph-name="braceleft" unicode="{" horiz-adv-x="389" 
d="M235 91v-199q0 -54 20 -81.5t76 -42.5v-2q-90 0 -131 28q-29 19 -37.5 46.5t-8.5 69.5v198q0 21 -0.5 30.5t-6.5 24t-18 27.5q-28 27 -72 33v3q60 12 78.5 37t18.5 83v174q0 93 37 130t140 33v-2q-54 -14 -75 -43.5t-21 -81.5v-182q0 -65 -20.5 -101t-84.5 -47v-3
q63 -11 84 -42t21 -90z" />
    <glyph glyph-name="bar" unicode="|" horiz-adv-x="560" 
d="M253 -250v1000h54v-1000h-54z" />
    <glyph glyph-name="braceright" unicode="}" horiz-adv-x="389" 
d="M153 -108v199q0 59 21 90t84 42v3q-64 11 -84.5 47t-20.5 101v182q0 52 -21 81.5t-75 43.5v2q103 4 140 -33t37 -130v-174q0 -58 18.5 -83t78.5 -37v-3q-44 -6 -72 -33q-12 -13 -18 -27.5t-6.5 -24t-0.5 -30.5v-198q0 -27 -2 -44t-12.5 -38t-31.5 -34q-41 -28 -131 -28v2
q56 15 76 42.5t20 81.5z" />
    <glyph glyph-name="asciitilde" unicode="~" 
d="M447 285l41 -25q-20 -29 -34 -45t-39 -30.5t-54 -14.5q-11 0 -29.5 4.5t-31.5 9t-38 13.5t-30 11q-66 23 -85 23q-32 0 -52 -18t-42 -52l-40 27q30 46 60 70.5t76 24.5q40 0 111 -30q74 -31 100 -31q46 0 87 63z" />
    <glyph glyph-name="uni00A0" unicode="&#xa0;" horiz-adv-x="250" 
 />
    <glyph glyph-name="exclamdown" unicode="&#xa1;" horiz-adv-x="333" 
d="M153 237h27q0 -150 37 -317q16 -71 16 -94q0 -29 -19 -44.5t-48 -15.5q-28 0 -47 15.5t-19 44.5q0 23 16 94q37 167 37 317zM166 461q24 0 43.5 -19t19.5 -45t-19.5 -45t-43.5 -19q-25 0 -45 19t-20 45t20 45t45 19z" />
    <glyph glyph-name="cent" unicode="&#xa2;" 
d="M205 35l78 219q1 4 4.5 13.5t5 14t5.5 12t7.5 12t8.5 9t12 7.5q14 5 14 22q0 18 -23.5 26t-45.5 8q-96 0 -95 -147v-5v-86q0 -73 29 -105zM138 -145l54 146q-54 19 -90.5 67t-36.5 130q0 92 63.5 146t144.5 54q32 0 60 -7l45 124h39l-51 -137q55 -28 55 -81
q0 -21 -13.5 -38t-35.5 -18q-32 -2 -51 15l-87 -238q15 -10 36 -10q51 0 88 32.5t49 84.5h24q-11 -63 -57 -100t-110 -37q-29 0 -39 6l-52 -139h-35z" />
    <glyph glyph-name="sterling" unicode="&#xa3;" 
d="M40 48q0 -20 15 -32.5t35 -12.5q21 0 47 21.5t34 42.5q-30 28 -73 28q-23 0 -40.5 -12.5t-17.5 -34.5zM131 322h-108v28h103q-7 75 -7 82q0 94 53 153.5t145 59.5q58 0 101.5 -33t43.5 -89q0 -32 -17.5 -54t-48.5 -22q-51 0 -51 58q0 15 12 30.5t27 15.5q4 0 11 -0.5
t10 -0.5q15 0 15 17t-26.5 36t-68.5 19q-102 0 -102 -117q0 -35 24 -155h121v-28h-117q24 -114 -24 -226q54 -16 107 -16q110 0 116 99l21 -1q-1 -33 -4 -56t-11 -52t-21 -47t-37 -30.5t-57 -12.5q-25 0 -52.5 11t-43.5 22t-44 32q-14 -27 -47.5 -46t-63.5 -19
q-33 0 -53.5 19t-20.5 52q0 35 25.5 54.5t60.5 19.5q28 0 76 -16q3 42 -19 107q-24 70 -28 106z" />
    <glyph glyph-name="currency" unicode="&#xa4;" 
d="M37 125l50 50q-49 60 -49 135q0 78 49 136l-50 49l27 27l49 -49q60 49 137 49q81 0 136 -49l49 49l27 -27l-49 -49q48 -60 48 -137t-48 -134l49 -50l-27 -26l-49 49q-61 -50 -139 -50q-71 0 -134 50l-49 -49zM250 473q-67 0 -114.5 -47.5t-47.5 -114.5q0 -66 47.5 -114.5
t113.5 -48.5q67 0 115 47t48 114q0 68 -47 116t-115 48z" />
    <glyph glyph-name="yen" unicode="&#xa5;" 
d="M402 0h-277v25h85v128h-134v25h134v58h-134v25h134v32l-158 327h-50v25h242v-25h-73l124 -276l117 276h-67v25h153v-25h-55l-130 -306v-53h135v-25h-135v-58h135v-25h-135v-128h89v-25z" />
    <glyph glyph-name="brokenbar" unicode="&#xa6;" horiz-adv-x="560" 
d="M253 -175v350h54v-350h-54zM253 325v350h54v-350h-54z" />
    <glyph glyph-name="section" unicode="&#xa7;" 
d="M193 391q-30 0 -50 -20.5t-20 -50.5q0 -43 66 -102q1 -1 9 -8t10 -8.5t10 -8.5t11.5 -9t11.5 -7.5t12.5 -8t11.5 -6t12.5 -5t12 -3t12.5 -1.5q34 0 53.5 20t19.5 54q0 36 -69 99q-70 65 -113 65zM295 132q32 -28 47.5 -44t30 -45.5t14.5 -62.5q0 -58 -44.5 -89.5
t-100.5 -31.5q-48 0 -92.5 26.5t-44.5 71.5q0 23 14 39.5t37 16.5t37 -12t14 -34q0 -15 -17 -32t-17 -19q2 -19 26.5 -27.5t47.5 -8.5q35 0 59.5 20t24.5 55q0 28 -19 54.5t-48 47.5t-62 46.5t-62 50.5t-48 61.5t-19 77.5q0 59 38 91.5t97 26.5q-56 49 -72 72q-25 36 -25 79
q0 58 41.5 89.5t100.5 31.5q49 0 87 -27t38 -74q0 -23 -15.5 -36.5t-38.5 -13.5q-19 0 -31 13t-12 32q0 17 16.5 33.5t16.5 20.5q0 16 -22 23.5t-41 7.5q-35 0 -59.5 -19t-24.5 -53q0 -19 11.5 -39.5t27.5 -34.5q14 -12 44 -36t48.5 -39t42 -37.5t41.5 -42.5q45 -52 45 -106
q0 -60 -36.5 -94t-95.5 -29z" />
    <glyph glyph-name="dieresis" unicode="&#xa8;" horiz-adv-x="333" 
d="M65 522q-22 0 -38 15.5t-16 37.5t16 37.5t38 15.5t37.5 -15.5t15.5 -37.5t-15.5 -37.5t-37.5 -15.5zM268 522q-22 0 -38 15.5t-16 37.5t16 37.5t38 15.5t37.5 -15.5t15.5 -37.5t-15.5 -37.5t-37.5 -15.5z" />
    <glyph glyph-name="copyright" unicode="&#xa9;" horiz-adv-x="760" 
d="M377 -15q-140 0 -240.5 103t-100.5 245q0 144 100 247t242 103q145 0 246 -101.5t101 -248.5q0 -145 -102 -246.5t-246 -101.5zM378 647q-126 0 -216 -92.5t-90 -220.5q0 -129 90.5 -221t214.5 -92q130 0 221 93t91 220q0 130 -91 221.5t-220 91.5zM523 431h-18
q-7 48 -41 77t-82 29q-32 0 -50.5 -8.5t-35.5 -31.5q-9 -13 -14.5 -28t-7.5 -35.5t-2.5 -32t0 -36.5t0.5 -30q0 -84 11 -120q20 -63 92 -66q101 -5 136 113h18v-123h-14l-27 29q-41 -34 -111 -34q-83 0 -142 64.5t-59 142.5q0 58 31.5 109.5t86.5 82.5q38 19 88 19
q60 0 101 -31l26 25h14v-115z" />
    <glyph glyph-name="ordfeminine" unicode="&#xaa;" horiz-adv-x="300" 
d="M81 512q0 -45 42 -45q32 0 47 34q5 11 5 31v33q-94 0 -94 -53zM152 577h23v73q0 10 -15.5 15t-27.5 5q-35 0 -45 -13q-4 -4 0 -8q9 -15 9 -29q0 -10 -10 -17.5t-22 -7.5q-33 0 -33 27q0 30 33 45.5t70 15.5q50 0 83 -16q24 -11 24 -36v-156q0 -11 16 -11q6 0 23 14l7 -9
q-28 -30 -61 -30q-45 0 -51 41q-37 -42 -95 -42q-30 0 -49 15t-19 43q0 47 59 68q35 13 81 13z" />
    <glyph glyph-name="guillemotleft" unicode="&#xab;" 
d="M157 201q27 -28 65 -79t38 -70q0 -3 -4.5 -5t-8.5 1q-67 67 -148 136q-16 13 -16 17t16 17q72 60 148 136q4 3 8.5 1t4.5 -5q0 -19 -38 -70t-65 -79zM314 201q27 -28 65 -79t38 -70q0 -3 -4.5 -5t-8.5 1q-67 67 -148 136q-16 13 -16 17t16 17q72 60 148 136q4 3 8.5 1
t4.5 -5q0 -19 -38 -70t-65 -79z" />
    <glyph glyph-name="logicalnot" unicode="&#xac;" 
d="M472 315v-269h-54v215h-389v54h443z" />
    <glyph glyph-name="uni00AD" unicode="&#xad;" horiz-adv-x="333" 
d="M299 174h-265v54h265v-54z" />
    <glyph glyph-name="registered" unicode="&#xae;" horiz-adv-x="760" 
d="M377 -15q-140 0 -241 103t-101 244q0 145 99.5 248t242.5 103q144 0 246 -101t102 -246q0 -146 -101.5 -248.5t-246.5 -102.5zM377 21q130 0 221 90t91 221t-90 223t-219 92t-219 -92t-90 -223q0 -127 90 -219t216 -92zM329 347v-180h64v-14h-212v14h65v348h-65v14h218
q33 0 55.5 -2.5t48 -10t39 -26t13.5 -46.5q0 -43 -41 -64.5t-97 -27.5v-2q73 -9 98.5 -44t25.5 -108q0 -13 3 -19.5t17 -13t44 0.5v-13q-29 -8 -55 -8q-100 0 -100 87q0 70 -22 92.5t-99 22.5zM329 515v-151h27t26 0.5t22.5 2t21 4.5t16 8t13.5 13t7 20t3 27q0 23 -5 37.5
t-10.5 22.5t-21.5 12t-25 4.5t-35.5 0t-38.5 -0.5z" />
    <glyph glyph-name="macron" unicode="&#xaf;" horiz-adv-x="333" 
d="M325 609h-317v59h317v-59z" />
    <glyph glyph-name="degree" unicode="&#xb0;" horiz-adv-x="400" 
d="M350 495q0 -62 -44 -106t-106 -44t-106 44t-44 106q-1 61 43.5 105.5t106.5 44.5t106 -44.5t44 -105.5zM310 495q0 45 -32.5 77.5t-78.5 32.5q-45 0 -77.5 -32.5t-31.5 -77.5q0 -46 32 -78t78 -32q45 0 77.5 32t32.5 78z" />
    <glyph glyph-name="plusminus" unicode="&#xb1;" 
d="M29 294h195v149h54v-149h194v-54h-194v-150h-54v150h-195v54zM472 0h-443v54h443v-54z" />
    <glyph glyph-name="twosuperior" unicode="&#xb2;" horiz-adv-x="300" 
d="M265 369h14l-3 -111h-257v39q6 6 33 28t45 38t41 38t37.5 41t19.5 33q10 30 10 60q0 36 -20 62.5t-57 26.5q-28 0 -51.5 -16.5t-23.5 -41.5q0 -11 17 -7q1 0 3 0.5t3.5 1l3 1t2.5 0.5q36 0 36 -30q0 -35 -40 -35q-21 0 -33 14.5t-12 34.5q0 45 37 72t87 27q52 0 88.5 -27
t36.5 -74q0 -27 -13.5 -51t-51.5 -55l-154 -125h162q25 0 32.5 9.5t7.5 46.5z" />
    <glyph glyph-name="threesuperior" unicode="&#xb3;" horiz-adv-x="300" 
d="M144 460v-1q138 -10 138 -100q0 -54 -46 -83.5t-107 -29.5q-49 0 -79.5 21t-30.5 51q0 16 12 27t29 11q15 0 25 -9t10 -22q0 -6 -1 -10t-4 -7.5t-5 -5.5t-7.5 -5.5t-8.5 -5.5q-14 -9 7 -21q19 -10 45 -10q84 0 84 96q0 76 -64 90q-20 5 -55 5q-20 -2 -20 7q0 6 5 7.5
t22 2.5q18 0 31 1q33 2 49.5 30.5t16.5 61.5q0 71 -62 71q-24 0 -41 -14q-10 -8 -2 -14q24 -14 24 -33q0 -13 -10 -20t-24 -7q-15 0 -25 10t-10 25q0 32 32 49t69 17q47 0 84.5 -22.5t37.5 -64.5q0 -41 -35 -65t-84 -33z" />
    <glyph glyph-name="acute" unicode="&#xb4;" horiz-adv-x="333" 
d="M251 592l-150 -100h-49l127 132l9 9l10 10t10 9t11.5 8.5t10.5 5t11 2.5q15 0 27.5 -12t12.5 -27q0 -17 -30 -37z" />
    <glyph glyph-name="mu" unicode="&#xb5;" horiz-adv-x="556" 
d="M358 -8v88h-3q-53 -102 -179 -96q-14 1 -14 -17t8 -47q22 -82 23 -91q3 -21 -13 -35t-42 -14q-23 0 -38 14t-13 35q1 11 19 83q12 43 0 70q-19 41 -19 100v289h-65v25q23 -1 171 4v-311v-8q0 -18 0.5 -26.5t5 -19t14.5 -14.5t27 -4q38 0 78 40.5t40 120.5v193h-76v25
q31 -1 182 4v-375h69v-25q-134 0 -175 -8z" />
    <glyph glyph-name="paragraph" unicode="&#xb6;" horiz-adv-x="620" 
d="M334 683h212v-42h-53v-782h-53v782h-100v-782h-53v394q-90 13 -151.5 71t-61.5 154q0 27 13.5 59t41.5 66.5t81.5 57t123.5 22.5z" />
    <glyph glyph-name="periodcentered" unicode="&#xb7;" horiz-adv-x="333" 
d="M167 286q24 0 43.5 -19t19.5 -45t-19.5 -45t-43.5 -19q-25 0 -45 19t-20 45t20 45t45 19z" />
    <glyph glyph-name="cedilla" unicode="&#xb8;" horiz-adv-x="333" 
d="M105 -97l43 97h37l-27 -64q17 5 31 5q37 0 60 -18.5t23 -55.5q0 -82 -134 -82q-31 0 -76 17l13 32q30 -11 59 -11q60 0 60 40q0 18 -13 28.5t-31 10.5q-14 0 -31 -5z" />
    <glyph glyph-name="onesuperior" unicode="&#xb9;" horiz-adv-x="300" 
d="M118 273v326q0 20 -11 23q-5 1 -34 1h-36v15h37q22 0 64 3.5t50 3.5v-372h76v-15h-223v15h77z" />
    <glyph glyph-name="ordmasculine" unicode="&#xba;" horiz-adv-x="300" 
d="M14 557q0 50 40.5 88t95.5 38t95.5 -38t40.5 -88t-40.5 -86.5t-95.5 -36.5t-95.5 36.5t-40.5 86.5zM209 557q0 70 -7 86q-12 27 -52 27q-17 0 -29 -5.5t-18 -11.5t-8.5 -22.5t-3 -26t-0.5 -33.5v-14q0 -28 0.5 -41.5t3.5 -30t9 -23t17.5 -11.5t28.5 -5t28.5 5t17.5 11.5
t9 23t3.5 30t0.5 41.5z" />
    <glyph glyph-name="guillemotright" unicode="&#xbb;" 
d="M343 201q-27 28 -65 79t-38 70q0 3 4.5 5t8.5 -1q76 -76 148 -136q16 -13 16 -17t-16 -17q-81 -69 -148 -136q-4 -3 -8.5 -1t-4.5 5q0 19 38 70t65 79zM186 201q-27 28 -65 79t-38 70q0 3 4.5 5t8.5 -1q76 -76 148 -136q16 -13 16 -17t-16 -17q-81 -69 -148 -136
q-4 -3 -8.5 -1t-4.5 5q0 19 38 70t65 79z" />
    <glyph glyph-name="onequarter" unicode="&#xbc;" horiz-adv-x="750" 
d="M723 102h-49v-87h52v-15h-177v15h57v87h-166v17l190 268h44v-268h49v44h17v-106h-17v45zM162 0l449 645h52l-449 -645h-52zM463 118h143v202zM91 273v326q0 9 -1 14t-6 7.5t-10.5 2.5h-19.5h-8h-36v15h37q22 0 64 3.5t50 3.5v-372h76v-15h-223v15h77z" />
    <glyph glyph-name="onehalf" unicode="&#xbd;" horiz-adv-x="750" 
d="M137 0l449 645h52l-449 -645h-52zM91 273v326q0 9 -1 14t-6 7.5t-10.5 2.5h-19.5h-8h-36v15h37q22 0 64 3.5t50 3.5v-372h76v-15h-223v15h77zM723 111h14l-3 -111h-257v39q6 6 33 28t45 38t41 38t37.5 41t19.5 33q10 30 10 60q0 36 -20 62.5t-57 26.5q-28 0 -51.5 -16.5
t-23.5 -41.5q0 -11 17 -7q1 0 3 0.5t3.5 1l3 1t2.5 0.5q36 0 36 -30q0 -35 -40 -35q-21 0 -33 14.5t-12 34.5q0 45 37 72t87 27q52 0 88.5 -27t36.5 -74q0 -27 -13.5 -51t-51.5 -55l-154 -125h162q25 0 32.5 9.5t7.5 46.5z" />
    <glyph glyph-name="threequarters" unicode="&#xbe;" horiz-adv-x="750" 
d="M723 102h-49v-87h52v-15h-177v15h57v87h-166v17l190 268h44v-268h49v44h17v-106h-17v45zM155 0l449 645h52l-449 -645h-52zM463 119h143v202zM135 460v-1q138 -10 138 -100q0 -54 -46 -83.5t-107 -29.5q-49 0 -79.5 21t-30.5 51q0 16 12 27t29 11q15 0 25 -9t10 -22
q0 -6 -1 -10t-4 -7.5t-5 -5.5t-7.5 -5.5t-8.5 -5.5q-14 -9 7 -21q19 -10 45 -10q84 0 84 96q0 76 -64 90q-20 5 -55 5q-20 -2 -20 7q0 6 5 7.5t22 2.5q18 0 31 1q33 2 49.5 30.5t16.5 61.5q0 71 -62 71q-24 0 -41 -14q-10 -8 -2 -14q24 -14 24 -33q0 -13 -10 -20t-24 -7
q-15 0 -25 10t-10 25q0 32 32 49t69 17q47 0 84.5 -22.5t37.5 -64.5q0 -41 -35 -65t-84 -33z" />
    <glyph glyph-name="questiondown" unicode="&#xbf;" horiz-adv-x="444" 
d="M254 238h25q12 -71 9.5 -108.5t-25.5 -74.5q-12 -18 -39.5 -46t-42.5 -36q-19 -10 -39.5 -39t-20.5 -55q0 -42 34.5 -66.5t78.5 -24.5q23 0 47.5 9.5t38.5 20.5t14 17q0 5 -2.5 8.5t-5 5t-9 4t-9.5 4.5q-25 12 -25 43q0 23 14 35t37 12q52 0 52 -61q0 -48 -46.5 -84
t-108.5 -36q-72 0 -122 46t-50 117q0 41 19 77t40 56t61 51l22 16.5t18 14t12.5 10.5t10 11.5t5.5 12t4.5 15.5t1.5 19t1 26zM266 461q24 0 43.5 -19t19.5 -45t-19.5 -45t-43.5 -19q-25 0 -45 19t-20 45t20 45t45 19z" />
    <glyph glyph-name="Agrave" unicode="&#xc0;" horiz-adv-x="667" 
d="M287 506l-101 -279h195zM215 0h-213v25h81l239 658h34l229 -658h80v-25h-317v25h104l-61 177h-216l-62 -177h102v-25zM399 764l-150 100q-30 20 -30 37q0 15 12.5 27t27.5 12q5 0 11 -2.5t10.5 -5t11.5 -8.5t10 -9l10 -10l9 -9l127 -132h-49z" />
    <glyph glyph-name="Aacute" unicode="&#xc1;" horiz-adv-x="667" 
d="M287 506l-101 -279h195zM215 0h-213v25h81l239 658h34l229 -658h80v-25h-317v25h104l-61 177h-216l-62 -177h102v-25zM448 864l-150 -100h-49l127 132l9 9l10 10t10 9t11.5 8.5t10.5 5t11 2.5q15 0 27.5 -12t12.5 -27q0 -17 -30 -37z" />
    <glyph glyph-name="Acircumflex" unicode="&#xc2;" horiz-adv-x="667" 
d="M287 506l-101 -279h195zM215 0h-213v25h81l239 658h34l229 -658h80v-25h-317v25h104l-61 177h-216l-62 -177h102v-25zM368 920l124 -169h-43l-115 103l-116 -103h-43l124 169h69z" />
    <glyph glyph-name="Atilde" unicode="&#xc3;" horiz-adv-x="667" 
d="M287 506l-101 -279h195zM215 0h-213v25h81l239 658h34l229 -658h80v-25h-317v25h104l-61 177h-216l-62 -177h102v-25zM470 860h34q-27 -112 -112 -112q-29 0 -79 24q-48 24 -64 24q-43 0 -54 -49h-33q8 47 37 78.5t74 31.5q29 0 77 -24q50 -24 69 -24t32.5 15.5
t18.5 35.5z" />
    <glyph glyph-name="Adieresis" unicode="&#xc4;" horiz-adv-x="667" 
d="M287 506l-101 -279h195zM215 0h-213v25h81l239 658h34l229 -658h80v-25h-317v25h104l-61 177h-216l-62 -177h102v-25zM232 754q-22 0 -38 15.5t-16 37.5t16 37.5t38 15.5t37.5 -15.5t15.5 -37.5t-15.5 -37.5t-37.5 -15.5zM435 754q-22 0 -38 15.5t-16 37.5t16 37.5
t38 15.5t37.5 -15.5t15.5 -37.5t-15.5 -37.5t-37.5 -15.5z" />
    <glyph glyph-name="Aring" unicode="&#xc5;" horiz-adv-x="667" 
d="M287 506l-101 -279h195zM215 0h-213v25h81l239 658h34l229 -658h80v-25h-317v25h104l-61 177h-216l-62 -177h102v-25zM334 717q-41 0 -71.5 30t-30.5 72q0 41 30.5 71t71.5 30q42 0 72 -29.5t30 -71.5t-30 -72t-72 -30zM334 880q-24 0 -42.5 -18.5t-18.5 -42.5t18.5 -43
t42.5 -19q25 0 43.5 18.5t18.5 43.5q0 24 -19 42.5t-43 18.5z" />
    <glyph glyph-name="AE" unicode="&#xc6;" horiz-adv-x="1000" 
d="M240 273h215v370h-26zM689 643h-106v-287q79 0 113.5 23.5t38.5 98.5h28v-279h-28q-7 82 -38 108t-114 24v-306h142q47 0 79.5 13t51.5 41t29 58t19 78h29l-9 -215h-565v25h96v220h-229l-113 -220h103v-25h-196v25h63l248 488q27 54 27 80q0 12 -3 21t-10.5 14.5
t-12.5 8.5t-17.5 4.5t-17.5 2t-20 0t-18 -0.5v25h649l6 -180h-28q-15 68 -42 102t-68 45q-29 8 -87 8z" />
    <glyph glyph-name="Ccedilla" unicode="&#xc7;" horiz-adv-x="667" 
d="M567 199h28v-205h-22l-41 48q-66 -57 -171 -57q-10 0 -15 1l-21 -50q17 5 31 5q37 0 60 -18.5t23 -55.5q0 -82 -134 -82q-31 0 -76 17l13 32q30 -11 59 -11q60 0 60 40q0 18 -13 28.5t-31 10.5q-14 0 -31 -5l-14 6l39 88q-110 22 -184.5 123t-74.5 216q0 98 48.5 184
t132.5 136q57 33 136 33q91 0 155 -52l40 42h22v-193h-29q-11 81 -63 129.5t-126 48.5q-49 0 -77.5 -14t-54.5 -54q-13 -21 -21.5 -45.5t-11.5 -59.5t-4 -53t-0.5 -61.5t0.5 -49.5q0 -142 17 -200q31 -105 142 -111q156 -8 209 189z" />
    <glyph glyph-name="Egrave" unicode="&#xc8;" horiz-adv-x="667" 
d="M368 643h-106v-287q79 0 113.5 23.5t38.5 98.5h28v-279h-28q-7 82 -38 108t-114 24v-306h142q47 0 79.5 13t51.5 41t29 58t19 78h29l-9 -215h-569v25h100v618h-100v25h553l6 -180h-28q-15 68 -42 102t-68 45q-29 8 -87 8zM399 764l-150 100q-30 20 -30 37q0 15 12.5 27
t27.5 12q5 0 11 -2.5t10.5 -5t11.5 -8.5t10 -9l10 -10l9 -9l127 -132h-49z" />
    <glyph glyph-name="Eacute" unicode="&#xc9;" horiz-adv-x="667" 
d="M368 643h-106v-287q79 0 113.5 23.5t38.5 98.5h28v-279h-28q-7 82 -38 108t-114 24v-306h142q47 0 79.5 13t51.5 41t29 58t19 78h29l-9 -215h-569v25h100v618h-100v25h553l6 -180h-28q-15 68 -42 102t-68 45q-29 8 -87 8zM448 864l-150 -100h-49l127 132l9 9l10 10t10 9
t11.5 8.5t10.5 5t11 2.5q15 0 27.5 -12t12.5 -27q0 -17 -30 -37z" />
    <glyph glyph-name="Ecircumflex" unicode="&#xca;" horiz-adv-x="667" 
d="M368 643h-106v-287q79 0 113.5 23.5t38.5 98.5h28v-279h-28q-7 82 -38 108t-114 24v-306h142q47 0 79.5 13t51.5 41t29 58t19 78h29l-9 -215h-569v25h100v618h-100v25h553l6 -180h-28q-15 68 -42 102t-68 45q-29 8 -87 8zM368 920l124 -169h-43l-115 103l-116 -103h-43
l124 169h69z" />
    <glyph glyph-name="Edieresis" unicode="&#xcb;" horiz-adv-x="667" 
d="M368 643h-106v-287q79 0 113.5 23.5t38.5 98.5h28v-279h-28q-7 82 -38 108t-114 24v-306h142q47 0 79.5 13t51.5 41t29 58t19 78h29l-9 -215h-569v25h100v618h-100v25h553l6 -180h-28q-15 68 -42 102t-68 45q-29 8 -87 8zM232 754q-22 0 -38 15.5t-16 37.5t16 37.5
t38 15.5t37.5 -15.5t15.5 -37.5t-15.5 -37.5t-37.5 -15.5zM435 754q-22 0 -38 15.5t-16 37.5t16 37.5t38 15.5t37.5 -15.5t15.5 -37.5t-15.5 -37.5t-37.5 -15.5z" />
    <glyph glyph-name="Igrave" unicode="&#xcc;" horiz-adv-x="389" 
d="M258 643v-618h99v-25h-326v25h99v618h-99v25h326v-25h-99zM260 764l-150 100q-30 20 -30 37q0 15 12.5 27t27.5 12q5 0 11 -2.5t10.5 -5t11.5 -8.5t10 -9l10 -10l9 -9l127 -132h-49z" />
    <glyph glyph-name="Iacute" unicode="&#xcd;" horiz-adv-x="389" 
d="M258 643v-618h99v-25h-326v25h99v618h-99v25h326v-25h-99zM309 864l-150 -100h-49l127 132l9 9l10 10t10 9t11.5 8.5t10.5 5t11 2.5q15 0 27.5 -12t12.5 -27q0 -17 -30 -37z" />
    <glyph glyph-name="Icircumflex" unicode="&#xce;" horiz-adv-x="389" 
d="M258 643v-618h99v-25h-326v25h99v618h-99v25h326v-25h-99zM229 920l124 -169h-43l-115 103l-116 -103h-43l124 169h69z" />
    <glyph glyph-name="Idieresis" unicode="&#xcf;" horiz-adv-x="389" 
d="M258 643v-618h99v-25h-326v25h99v618h-99v25h326v-25h-99zM93 754q-22 0 -38 15.5t-16 37.5t16 37.5t38 15.5t37.5 -15.5t15.5 -37.5t-15.5 -37.5t-37.5 -15.5zM296 754q-22 0 -38 15.5t-16 37.5t16 37.5t38 15.5t37.5 -15.5t15.5 -37.5t-15.5 -37.5t-37.5 -15.5z" />
    <glyph glyph-name="Eth" unicode="&#xd0;" horiz-adv-x="722" 
d="M125 25v336h-102v33h102v249h-98v25h275q81 0 128.5 -10t87.5 -35q154 -95 154 -289q0 -91 -41.5 -171.5t-117.5 -122.5q-35 -20 -82.5 -29t-74.5 -10t-88 -1h-241v25h98zM253 643v-249h143v-33h-143v-336q111 0 144 8q74 17 106 95q4 10 7 20q25 76 25 211
q0 91 -15.5 153t-39.5 85q-29 28 -80.5 37t-146.5 9z" />
    <glyph glyph-name="Ntilde" unicode="&#xd1;" horiz-adv-x="722" 
d="M603 643v-656h-30l-424 636v-598h98v-25h-228v25h98v618h-98v25h256l296 -437v412h-96v25h228v-25h-100zM498 860h34q-27 -112 -112 -112q-29 0 -79 24q-48 24 -64 24q-43 0 -54 -49h-33q8 47 37 78.5t74 31.5q29 0 77 -24q50 -24 69 -24t32.5 15.5t18.5 35.5z" />
    <glyph glyph-name="Ograve" unicode="&#xd2;" horiz-adv-x="722" 
d="M361 -15q-141 0 -226.5 110t-85.5 256q0 126 94.5 229t217.5 103t217 -103t94 -229q0 -146 -85 -256t-226 -110zM525 239v218q0 55 -15 100q-33 101 -149 101q-120 0 -150 -101q-15 -50 -15 -100v-218q0 -69 11 -112q31 -117 154 -117t154 117q10 39 10 112zM427 764
l-150 100q-30 20 -30 37q0 15 12.5 27t27.5 12q5 0 11 -2.5t10.5 -5t11.5 -8.5t10 -9l10 -10l9 -9l127 -132h-49z" />
    <glyph glyph-name="Oacute" unicode="&#xd3;" horiz-adv-x="722" 
d="M361 -15q-141 0 -226.5 110t-85.5 256q0 126 94.5 229t217.5 103t217 -103t94 -229q0 -146 -85 -256t-226 -110zM525 239v218q0 55 -15 100q-33 101 -149 101q-120 0 -150 -101q-15 -50 -15 -100v-218q0 -69 11 -112q31 -117 154 -117t154 117q10 39 10 112zM476 864
l-150 -100h-49l127 132l9 9l10 10t10 9t11.5 8.5t10.5 5t11 2.5q15 0 27.5 -12t12.5 -27q0 -17 -30 -37z" />
    <glyph glyph-name="Ocircumflex" unicode="&#xd4;" horiz-adv-x="722" 
d="M361 -15q-141 0 -226.5 110t-85.5 256q0 126 94.5 229t217.5 103t217 -103t94 -229q0 -146 -85 -256t-226 -110zM525 239v218q0 55 -15 100q-33 101 -149 101q-120 0 -150 -101q-15 -50 -15 -100v-218q0 -69 11 -112q31 -117 154 -117t154 117q10 39 10 112zM396 920
l124 -169h-43l-115 103l-116 -103h-43l124 169h69z" />
    <glyph glyph-name="Otilde" unicode="&#xd5;" horiz-adv-x="722" 
d="M361 -15q-141 0 -226.5 110t-85.5 256q0 126 94.5 229t217.5 103t217 -103t94 -229q0 -146 -85 -256t-226 -110zM525 239v218q0 55 -15 100q-33 101 -149 101q-120 0 -150 -101q-15 -50 -15 -100v-218q0 -69 11 -112q31 -117 154 -117t154 117q10 39 10 112zM498 860h34
q-27 -112 -112 -112q-29 0 -79 24q-48 24 -64 24q-43 0 -54 -49h-33q8 47 37 78.5t74 31.5q29 0 77 -24q50 -24 69 -24t32.5 15.5t18.5 35.5z" />
    <glyph glyph-name="Odieresis" unicode="&#xd6;" horiz-adv-x="722" 
d="M361 -15q-141 0 -226.5 110t-85.5 256q0 126 94.5 229t217.5 103t217 -103t94 -229q0 -146 -85 -256t-226 -110zM525 239v218q0 55 -15 100q-33 101 -149 101q-120 0 -150 -101q-15 -50 -15 -100v-218q0 -69 11 -112q31 -117 154 -117t154 117q10 39 10 112zM260 754
q-22 0 -38 15.5t-16 37.5t16 37.5t38 15.5t37.5 -15.5t15.5 -37.5t-15.5 -37.5t-37.5 -15.5zM463 754q-22 0 -38 15.5t-16 37.5t16 37.5t38 15.5t37.5 -15.5t15.5 -37.5t-15.5 -37.5t-37.5 -15.5z" />
    <glyph glyph-name="multiply" unicode="&#xd7;" 
d="M29 38l183 184l-182 183l38 38l182 -183l183 183l38 -38l-183 -183l184 -184l-38 -38l-184 184l-183 -184z" />
    <glyph glyph-name="Oslash" unicode="&#xd8;" horiz-adv-x="722" 
d="M204 148l297 431q-35 79 -140 79q-165 0 -165 -201v-205q0 -36 8 -104zM516 530l-297 -435q36 -85 142 -85q83 0 123.5 53.5t40.5 175.5v203q0 48 -9 88zM644 717l-81 -119q51 -49 80 -114.5t29 -132.5q0 -165 -91.5 -265.5t-219.5 -100.5q-100 0 -176 60l-70 -103h-52
l90 132q-50 51 -77 124.5t-27 152.5q0 125 94.5 228.5t217.5 103.5q92 0 171 -59l64 93h48z" />
    <glyph glyph-name="Ugrave" unicode="&#xd9;" horiz-adv-x="722" 
d="M478 668h229v-25h-100v-420q0 -73 -14 -115t-46 -71q-58 -52 -194 -52q-105 0 -177 53q-62 46 -62 209v396h-99v25h326v-25h-99v-366q0 -115 5 -144q14 -85 87 -107q32 -9 74 -9q85 0 126 49t41 135v442h-97v25zM427 764l-150 100q-30 20 -30 37q0 15 12.5 27t27.5 12
q5 0 11 -2.5t10.5 -5t11.5 -8.5t10 -9l10 -10l9 -9l127 -132h-49z" />
    <glyph glyph-name="Uacute" unicode="&#xda;" horiz-adv-x="722" 
d="M478 668h229v-25h-100v-420q0 -73 -14 -115t-46 -71q-58 -52 -194 -52q-105 0 -177 53q-62 46 -62 209v396h-99v25h326v-25h-99v-366q0 -115 5 -144q14 -85 87 -107q32 -9 74 -9q85 0 126 49t41 135v442h-97v25zM476 864l-150 -100h-49l127 132l9 9l10 10t10 9t11.5 8.5
t10.5 5t11 2.5q15 0 27.5 -12t12.5 -27q0 -17 -30 -37z" />
    <glyph glyph-name="Ucircumflex" unicode="&#xdb;" horiz-adv-x="722" 
d="M478 668h229v-25h-100v-420q0 -73 -14 -115t-46 -71q-58 -52 -194 -52q-105 0 -177 53q-62 46 -62 209v396h-99v25h326v-25h-99v-366q0 -115 5 -144q14 -85 87 -107q32 -9 74 -9q85 0 126 49t41 135v442h-97v25zM396 920l124 -169h-43l-115 103l-116 -103h-43l124 169h69
z" />
    <glyph glyph-name="Udieresis" unicode="&#xdc;" horiz-adv-x="722" 
d="M478 668h229v-25h-100v-420q0 -73 -14 -115t-46 -71q-58 -52 -194 -52q-105 0 -177 53q-62 46 -62 209v396h-99v25h326v-25h-99v-366q0 -115 5 -144q14 -85 87 -107q32 -9 74 -9q85 0 126 49t41 135v442h-97v25zM260 754q-22 0 -38 15.5t-16 37.5t16 37.5t38 15.5
t37.5 -15.5t15.5 -37.5t-15.5 -37.5t-37.5 -15.5zM463 754q-22 0 -38 15.5t-16 37.5t16 37.5t38 15.5t37.5 -15.5t15.5 -37.5t-15.5 -37.5t-37.5 -15.5z" />
    <glyph glyph-name="Yacute" unicode="&#xdd;" horiz-adv-x="667" 
d="M522 0h-344v25h106v278l-210 340h-73v25h325v-25h-103l171 -287l161 287h-104v25h215v-25h-80l-174 -318v-300h110v-25zM508 864l-150 -100h-49l127 132l9 9l10 10t10 9t11.5 8.5t10.5 5t11 2.5q15 0 27.5 -12t12.5 -27q0 -17 -30 -37z" />
    <glyph glyph-name="Thorn" unicode="&#xde;" horiz-adv-x="667" 
d="M141 25v618h-99v25h333v-25h-106v-85h96q279 0 279 -184q0 -50 -24 -87t-64 -56.5t-83 -28.5t-90 -9h-114v-168h106v-25h-333v25h99zM269 218h117q35 0 59 12.5t36 35.5t17 49t5 60q0 27 -1.5 44.5t-8 41.5t-18 38t-34.5 24t-55 10h-117v-315z" />
    <glyph glyph-name="germandbls" unicode="&#xdf;" horiz-adv-x="556" 
d="M200 565v-565h-175v25h71v367q0 18 -0.5 51.5t-0.5 49t1.5 36.5t5.5 37q9 37 39 65t69 40q36 12 79 12q76 0 133 -41.5t57 -115.5q0 -59 -37.5 -97t-98.5 -52v-2q79 -14 125 -62.5t46 -127.5q0 -93 -57 -146t-141 -45q-34 3 -57 25t-23 55q0 22 14.5 36.5t36.5 14.5
t36 -11t14 -33q0 -23 -14 -34.5t-14 -14.5q0 -17 25 -17q16 0 24 3t18 17t14.5 49.5t4.5 93.5q0 108 -23 144.5t-70 39.5q-45 3 -45 12q0 6 7.5 9t22.5 3.5t19 1.5q16 3 24.5 7t19 16t15 38t4.5 67v30.5t-1.5 28t-4.5 28.5t-9.5 23t-15.5 20.5t-23 11.5t-33 5
q-45 0 -63.5 -25t-18.5 -73z" />
    <glyph glyph-name="agrave" unicode="&#xe0;" 
d="M300 145v55q-28 0 -49.5 -3t-45.5 -11t-37 -27t-13 -48q0 -77 65 -77q25 0 44 16.5t29 42.5q7 17 7 52zM300 221v125q0 17 -23.5 26.5t-42.5 9.5q-44 0 -66 -19q-11 -10 -4 -19q14 -19 14 -48q0 -19 -15 -31.5t-33 -12.5q-22 0 -37 12t-15 35q0 51 51 77t108 26
q75 0 128 -27q21 -10 29 -24t8 -37v-266q0 -19 24 -19q12 0 35 23l12 -14q-43 -53 -95 -53q-33 0 -53 19t-25 52q-58 -71 -146 -71q-47 0 -75.5 25t-28.5 72q0 42 25.5 72t66 44t80.5 19.5t78 3.5zM316 492l-150 100q-30 20 -30 37q0 15 12.5 27t27.5 12q5 0 11 -2.5
t10.5 -5t11.5 -8.5t10 -9l10 -10l9 -9l127 -132h-49z" />
    <glyph glyph-name="aacute" unicode="&#xe1;" 
d="M300 145v55q-28 0 -49.5 -3t-45.5 -11t-37 -27t-13 -48q0 -77 65 -77q25 0 44 16.5t29 42.5q7 17 7 52zM300 221v125q0 17 -23.5 26.5t-42.5 9.5q-44 0 -66 -19q-11 -10 -4 -19q14 -19 14 -48q0 -19 -15 -31.5t-33 -12.5q-22 0 -37 12t-15 35q0 51 51 77t108 26
q75 0 128 -27q21 -10 29 -24t8 -37v-266q0 -19 24 -19q12 0 35 23l12 -14q-43 -53 -95 -53q-33 0 -53 19t-25 52q-58 -71 -146 -71q-47 0 -75.5 25t-28.5 72q0 42 25.5 72t66 44t80.5 19.5t78 3.5zM365 592l-150 -100h-49l127 132l9 9l10 10t10 9t11.5 8.5t10.5 5t11 2.5
q15 0 27.5 -12t12.5 -27q0 -17 -30 -37z" />
    <glyph glyph-name="acircumflex" unicode="&#xe2;" 
d="M300 145v55q-28 0 -49.5 -3t-45.5 -11t-37 -27t-13 -48q0 -77 65 -77q25 0 44 16.5t29 42.5q7 17 7 52zM300 221v125q0 17 -23.5 26.5t-42.5 9.5q-44 0 -66 -19q-11 -10 -4 -19q14 -19 14 -48q0 -19 -15 -31.5t-33 -12.5q-22 0 -37 12t-15 35q0 51 51 77t108 26
q75 0 128 -27q21 -10 29 -24t8 -37v-266q0 -19 24 -19q12 0 35 23l12 -14q-43 -53 -95 -53q-33 0 -53 19t-25 52q-58 -71 -146 -71q-47 0 -75.5 25t-28.5 72q0 42 25.5 72t66 44t80.5 19.5t78 3.5zM285 648l124 -169h-43l-115 103l-116 -103h-43l124 169h69z" />
    <glyph glyph-name="atilde" unicode="&#xe3;" 
d="M300 145v55q-28 0 -49.5 -3t-45.5 -11t-37 -27t-13 -48q0 -77 65 -77q25 0 44 16.5t29 42.5q7 17 7 52zM300 221v125q0 17 -23.5 26.5t-42.5 9.5q-44 0 -66 -19q-11 -10 -4 -19q14 -19 14 -48q0 -19 -15 -31.5t-33 -12.5q-22 0 -37 12t-15 35q0 51 51 77t108 26
q75 0 128 -27q21 -10 29 -24t8 -37v-266q0 -19 24 -19q12 0 35 23l12 -14q-43 -53 -95 -53q-33 0 -53 19t-25 52q-58 -71 -146 -71q-47 0 -75.5 25t-28.5 72q0 42 25.5 72t66 44t80.5 19.5t78 3.5zM387 608h34q-27 -112 -112 -112q-29 0 -79 24q-48 24 -64 24q-43 0 -54 -49
h-33q8 47 37 78.5t74 31.5q29 0 77 -24q50 -24 69 -24t32.5 15.5t18.5 35.5z" />
    <glyph glyph-name="adieresis" unicode="&#xe4;" 
d="M300 145v55q-28 0 -49.5 -3t-45.5 -11t-37 -27t-13 -48q0 -77 65 -77q25 0 44 16.5t29 42.5q7 17 7 52zM300 221v125q0 17 -23.5 26.5t-42.5 9.5q-44 0 -66 -19q-11 -10 -4 -19q14 -19 14 -48q0 -19 -15 -31.5t-33 -12.5q-22 0 -37 12t-15 35q0 51 51 77t108 26
q75 0 128 -27q21 -10 29 -24t8 -37v-266q0 -19 24 -19q12 0 35 23l12 -14q-43 -53 -95 -53q-33 0 -53 19t-25 52q-58 -71 -146 -71q-47 0 -75.5 25t-28.5 72q0 42 25.5 72t66 44t80.5 19.5t78 3.5zM149 482q-22 0 -38 15.5t-16 37.5t16 37.5t38 15.5t37.5 -15.5t15.5 -37.5
t-15.5 -37.5t-37.5 -15.5zM352 482q-22 0 -38 15.5t-16 37.5t16 37.5t38 15.5t37.5 -15.5t15.5 -37.5t-15.5 -37.5t-37.5 -15.5z" />
    <glyph glyph-name="aring" unicode="&#xe5;" 
d="M300 145v55q-28 0 -49.5 -3t-45.5 -11t-37 -27t-13 -48q0 -77 65 -77q25 0 44 16.5t29 42.5q7 17 7 52zM300 221v125q0 17 -23.5 26.5t-42.5 9.5q-44 0 -66 -19q-11 -10 -4 -19q14 -19 14 -48q0 -19 -15 -31.5t-33 -12.5q-22 0 -37 12t-15 35q0 51 51 77t108 26
q75 0 128 -27q21 -10 29 -24t8 -37v-266q0 -19 24 -19q12 0 35 23l12 -14q-43 -53 -95 -53q-33 0 -53 19t-25 52q-58 -71 -146 -71q-47 0 -75.5 25t-28.5 72q0 42 25.5 72t66 44t80.5 19.5t78 3.5zM251 445q-41 0 -71.5 30t-30.5 72q0 41 30.5 71t71.5 30q42 0 72 -29.5
t30 -71.5t-30 -72t-72 -30zM251 608q-24 0 -42.5 -18.5t-18.5 -42.5t18.5 -43t42.5 -19q25 0 43.5 18.5t18.5 43.5q0 24 -19 42.5t-43 18.5z" />
    <glyph glyph-name="ae" unicode="&#xe6;" horiz-adv-x="667" 
d="M376 246h154q2 60 -7.5 90.5t-24.5 38t-46 7.5q-76 0 -76 -87v-49zM273 225v118q0 20 -22 29.5t-46 9.5q-18 0 -45.5 -8t-27.5 -22q0 -4 9 -17q17 -21 6 -49t-49 -28q-22 0 -34 13t-12 36q0 27 23 48.5t53 32.5q38 14 92 14q77 0 119 -46q47 46 120 46t129 -48t56 -121
q0 -4 -1 -6.5t-2 -3.5t-3.5 -1.5t-4.5 -0.5h-6.5h-6.5h-244v-140q0 -36 29.5 -56t67.5 -20q99 0 147 120h24q-17 -65 -64.5 -102.5t-113.5 -37.5q-59 0 -95.5 17t-75.5 63q-46 -44 -78 -62t-74 -18q-54 0 -87 27t-33 80q0 58 56.5 91.5t119.5 37.5q9 0 34.5 2t39.5 2z
M273 138v64h-59q-36 0 -60.5 -27t-24.5 -65q0 -80 69 -80q75 0 75 108z" />
    <glyph glyph-name="ccedilla" unicode="&#xe7;" horiz-adv-x="444" 
d="M156 212v-80q0 -71 19.5 -99t68.5 -28q52 0 88 32.5t50 87.5h23q-10 -64 -56 -102t-111 -38h-3l-21 -49q17 5 31 5q37 0 60 -18.5t23 -55.5q0 -82 -134 -82q-31 0 -76 17l13 32q30 -11 59 -11q60 0 60 40q0 18 -13 28.5t-31 10.5q-14 0 -31 -5l-14 6l38 86
q-75 13 -119 72.5t-41 140.5q2 38 20.5 81.5t46.5 67.5q58 51 141 51q55 0 102 -25.5t47 -76.5q0 -21 -14.5 -39.5t-35.5 -18.5q-26 0 -44 12.5t-18 38.5q0 17 15.5 32t15.5 22q0 18 -25 26.5t-45 8.5q-26 0 -44 -10.5t-26.5 -23t-13 -38t-5 -39.5t-0.5 -44v-15z" />
    <glyph glyph-name="egrave" unicode="&#xe8;" horiz-adv-x="444" 
d="M151 246h146q0 9 1 32.5t0.5 33t-4 26.5t-11 24.5t-22 13.5t-36.5 6q-14 0 -24.5 -2t-18 -8t-13.5 -11t-9 -15.5t-5.5 -16.5t-3 -20t-0.5 -20v-22v-21zM385 221h-234v-80q0 -32 2 -51.5t10 -41.5t27.5 -32.5t49.5 -10.5q52 0 91.5 33.5t55.5 86.5h25q-38 -140 -192 -140
q-79 0 -133.5 63.5t-54.5 143.5q0 83 59 146.5t140 63.5q73 0 126 -45.5t53 -117.5q0 -4 -0.5 -7.5t-2 -5.5t-2 -3t-4 -1.5t-4.5 -0.5h-5.5h-6.5zM288 492l-150 100q-30 20 -30 37q0 15 12.5 27t27.5 12q5 0 11 -2.5t10.5 -5t11.5 -8.5t10 -9l10 -10l9 -9l127 -132h-49z" />
    <glyph glyph-name="eacute" unicode="&#xe9;" horiz-adv-x="444" 
d="M151 246h146q0 9 1 32.5t0.5 33t-4 26.5t-11 24.5t-22 13.5t-36.5 6q-14 0 -24.5 -2t-18 -8t-13.5 -11t-9 -15.5t-5.5 -16.5t-3 -20t-0.5 -20v-22v-21zM385 221h-234v-80q0 -32 2 -51.5t10 -41.5t27.5 -32.5t49.5 -10.5q52 0 91.5 33.5t55.5 86.5h25q-38 -140 -192 -140
q-79 0 -133.5 63.5t-54.5 143.5q0 83 59 146.5t140 63.5q73 0 126 -45.5t53 -117.5q0 -4 -0.5 -7.5t-2 -5.5t-2 -3t-4 -1.5t-4.5 -0.5h-5.5h-6.5zM337 592l-150 -100h-49l127 132l9 9l10 10t10 9t11.5 8.5t10.5 5t11 2.5q15 0 27.5 -12t12.5 -27q0 -17 -30 -37z" />
    <glyph glyph-name="ecircumflex" unicode="&#xea;" horiz-adv-x="444" 
d="M151 246h146q0 9 1 32.5t0.5 33t-4 26.5t-11 24.5t-22 13.5t-36.5 6q-14 0 -24.5 -2t-18 -8t-13.5 -11t-9 -15.5t-5.5 -16.5t-3 -20t-0.5 -20v-22v-21zM385 221h-234v-80q0 -32 2 -51.5t10 -41.5t27.5 -32.5t49.5 -10.5q52 0 91.5 33.5t55.5 86.5h25q-38 -140 -192 -140
q-79 0 -133.5 63.5t-54.5 143.5q0 83 59 146.5t140 63.5q73 0 126 -45.5t53 -117.5q0 -4 -0.5 -7.5t-2 -5.5t-2 -3t-4 -1.5t-4.5 -0.5h-5.5h-6.5zM257 648l124 -169h-43l-115 103l-116 -103h-43l124 169h69z" />
    <glyph glyph-name="edieresis" unicode="&#xeb;" horiz-adv-x="444" 
d="M151 246h146q0 9 1 32.5t0.5 33t-4 26.5t-11 24.5t-22 13.5t-36.5 6q-14 0 -24.5 -2t-18 -8t-13.5 -11t-9 -15.5t-5.5 -16.5t-3 -20t-0.5 -20v-22v-21zM385 221h-234v-80q0 -32 2 -51.5t10 -41.5t27.5 -32.5t49.5 -10.5q52 0 91.5 33.5t55.5 86.5h25q-38 -140 -192 -140
q-79 0 -133.5 63.5t-54.5 143.5q0 83 59 146.5t140 63.5q73 0 126 -45.5t53 -117.5q0 -4 -0.5 -7.5t-2 -5.5t-2 -3t-4 -1.5t-4.5 -0.5h-5.5h-6.5zM121 482q-22 0 -38 15.5t-16 37.5t16 37.5t38 15.5t37.5 -15.5t15.5 -37.5t-15.5 -37.5t-37.5 -15.5zM324 482q-22 0 -38 15.5
t-16 37.5t16 37.5t38 15.5t37.5 -15.5t15.5 -37.5t-15.5 -37.5t-37.5 -15.5z" />
    <glyph glyph-name="igrave" unicode="&#xec;" horiz-adv-x="278" 
d="M267 0h-255v25h73v346h-73v25q29 -1 181 4v-375h74v-25zM205 492l-150 100q-30 20 -30 37q0 15 12.5 27t27.5 12q5 0 11 -2.5t10.5 -5t11.5 -8.5t10 -9l10 -10l9 -9l127 -132h-49z" />
    <glyph glyph-name="iacute" unicode="&#xed;" horiz-adv-x="278" 
d="M267 0h-255v25h73v346h-73v25q29 -1 181 4v-375h74v-25zM224 592l-150 -100h-49l127 132l9 9l10 10t10 9t11.5 8.5t10.5 5t11 2.5q15 0 27.5 -12t12.5 -27q0 -17 -30 -37z" />
    <glyph glyph-name="icircumflex" unicode="&#xee;" horiz-adv-x="278" 
d="M267 0h-255v25h73v346h-73v25q29 -1 181 4v-375h74v-25zM174 648l124 -169h-43l-115 103l-116 -103h-43l124 169h69z" />
    <glyph glyph-name="idieresis" unicode="&#xef;" horiz-adv-x="278" 
d="M267 0h-255v25h73v346h-73v25q29 -1 181 4v-375h74v-25zM38 482q-22 0 -38 15.5t-16 37.5t16 37.5t38 15.5t37.5 -15.5t15.5 -37.5t-15.5 -37.5t-37.5 -15.5zM241 482q-22 0 -38 15.5t-16 37.5t16 37.5t38 15.5t37.5 -15.5t15.5 -37.5t-15.5 -37.5t-37.5 -15.5z" />
    <glyph glyph-name="eth" unicode="&#xf0;" 
d="M152 516l-18 26l100 58q-37 40 -110 64l10 19q24 -1 154 -51l95 56l20 -24l-92 -55q80 -62 114.5 -144.5t34.5 -197.5q0 -141 -58.5 -211.5t-151.5 -70.5q-85 0 -147.5 61t-62.5 145t63 147.5t147 63.5q49 0 87 -34q-11 146 -81 209zM159 194q0 -48 1 -71.5t5.5 -51
t14 -39t26.5 -19.5t44 -8q62 0 76.5 38.5t14.5 150.5q0 48 -1 71.5t-5.5 51t-14 38.5t-26.5 19t-44 8t-44 -8t-26.5 -19t-14 -38.5t-5.5 -51t-1 -71.5z" />
    <glyph glyph-name="ntilde" unicode="&#xf1;" horiz-adv-x="556" 
d="M197 400v-94h2q50 96 149 96q26 0 46 -4.5t32.5 -13.5t21.5 -21t13 -26.5t6.5 -31.5t2.5 -35.5v-38.5v-5v-5v-5.5v-5.5v-185h63v-25h-232v25h63v180q0 11 0.5 29.5t0.5 28.5t-0.5 25t-2 23t-4 18.5t-7 16t-10.5 11t-14.5 7.5t-19.5 2q-30 0 -57 -26t-40 -57
q-13 -33 -13 -126v-132h63v-25h-237v25h68v346h-68v25q23 -1 174 4zM415 608h34q-27 -112 -112 -112q-29 0 -79 24q-48 24 -64 24q-43 0 -54 -49h-33q8 47 37 78.5t74 31.5q29 0 77 -24q50 -24 69 -24t32.5 15.5t18.5 35.5z" />
    <glyph glyph-name="ograve" unicode="&#xf2;" 
d="M40 191q0 84 63 147.5t147 63.5t147 -63.5t63 -147.5t-62.5 -145t-147.5 -61t-147.5 61t-62.5 145zM341 191v21q0 39 -0.5 57.5t-5 45t-13.5 38t-27 20.5t-45 9q-19 0 -34 -5t-24.5 -10.5t-16 -20.5t-10 -23.5t-5 -33t-1.5 -35.5v-42v-21q0 -47 1 -70t5.5 -50.5t14 -38.5
t26.5 -19t44 -8q62 0 76.5 38t14.5 148zM316 492l-150 100q-30 20 -30 37q0 15 12.5 27t27.5 12q5 0 11 -2.5t10.5 -5t11.5 -8.5t10 -9l10 -10l9 -9l127 -132h-49z" />
    <glyph glyph-name="oacute" unicode="&#xf3;" 
d="M40 191q0 84 63 147.5t147 63.5t147 -63.5t63 -147.5t-62.5 -145t-147.5 -61t-147.5 61t-62.5 145zM341 191v21q0 39 -0.5 57.5t-5 45t-13.5 38t-27 20.5t-45 9q-19 0 -34 -5t-24.5 -10.5t-16 -20.5t-10 -23.5t-5 -33t-1.5 -35.5v-42v-21q0 -47 1 -70t5.5 -50.5t14 -38.5
t26.5 -19t44 -8q62 0 76.5 38t14.5 148zM365 592l-150 -100h-49l127 132l9 9l10 10t10 9t11.5 8.5t10.5 5t11 2.5q15 0 27.5 -12t12.5 -27q0 -17 -30 -37z" />
    <glyph glyph-name="ocircumflex" unicode="&#xf4;" 
d="M40 191q0 84 63 147.5t147 63.5t147 -63.5t63 -147.5t-62.5 -145t-147.5 -61t-147.5 61t-62.5 145zM341 191v21q0 39 -0.5 57.5t-5 45t-13.5 38t-27 20.5t-45 9q-19 0 -34 -5t-24.5 -10.5t-16 -20.5t-10 -23.5t-5 -33t-1.5 -35.5v-42v-21q0 -47 1 -70t5.5 -50.5t14 -38.5
t26.5 -19t44 -8q62 0 76.5 38t14.5 148zM285 648l124 -169h-43l-115 103l-116 -103h-43l124 169h69z" />
    <glyph glyph-name="otilde" unicode="&#xf5;" 
d="M40 191q0 84 63 147.5t147 63.5t147 -63.5t63 -147.5t-62.5 -145t-147.5 -61t-147.5 61t-62.5 145zM341 191v21q0 39 -0.5 57.5t-5 45t-13.5 38t-27 20.5t-45 9q-19 0 -34 -5t-24.5 -10.5t-16 -20.5t-10 -23.5t-5 -33t-1.5 -35.5v-42v-21q0 -47 1 -70t5.5 -50.5t14 -38.5
t26.5 -19t44 -8q62 0 76.5 38t14.5 148zM387 608h34q-27 -112 -112 -112q-29 0 -79 24q-48 24 -64 24q-43 0 -54 -49h-33q8 47 37 78.5t74 31.5q29 0 77 -24q50 -24 69 -24t32.5 15.5t18.5 35.5z" />
    <glyph glyph-name="odieresis" unicode="&#xf6;" 
d="M40 191q0 84 63 147.5t147 63.5t147 -63.5t63 -147.5t-62.5 -145t-147.5 -61t-147.5 61t-62.5 145zM341 191v21q0 39 -0.5 57.5t-5 45t-13.5 38t-27 20.5t-45 9q-19 0 -34 -5t-24.5 -10.5t-16 -20.5t-10 -23.5t-5 -33t-1.5 -35.5v-42v-21q0 -47 1 -70t5.5 -50.5t14 -38.5
t26.5 -19t44 -8q62 0 76.5 38t14.5 148zM149 482q-22 0 -38 15.5t-16 37.5t16 37.5t38 15.5t37.5 -15.5t15.5 -37.5t-15.5 -37.5t-37.5 -15.5zM352 482q-22 0 -38 15.5t-16 37.5t16 37.5t38 15.5t37.5 -15.5t15.5 -37.5t-15.5 -37.5t-37.5 -15.5z" />
    <glyph glyph-name="divide" unicode="&#xf7;" 
d="M472 195h-443v54h443v-54zM250 128q24 0 43.5 -19t19.5 -45t-19.5 -45t-43.5 -19q-25 0 -45 19t-20 45t20 45t45 19zM250 443q24 0 43.5 -19t19.5 -45t-19.5 -45t-43.5 -19q-25 0 -45 19t-20 45t20 45t45 19z" />
    <glyph glyph-name="oslash" unicode="&#xf8;" 
d="M336 307l-160 -269q17 -33 73 -33q62 0 76.5 38t14.5 148q0 91 -4 116zM162 88l158 264q-22 30 -71 30q-19 0 -34 -5t-24.5 -10.5t-16 -20.5t-10 -23.5t-5 -33t-1.5 -35.5v-42v-21q0 -77 4 -103zM158 7l-62 -103h-44l74 123q-40 28 -63.5 71.5t-23.5 92.5q0 84 63 147.5
t147 63.5q45 0 89 -21l58 95h42l-69 -114q41 -30 65.5 -75.5t24.5 -95.5q0 -84 -62.5 -145t-147.5 -61q-47 0 -91 22z" />
    <glyph glyph-name="ugrave" unicode="&#xf9;" horiz-adv-x="556" 
d="M358 -8v88h-3q-22 -43 -60.5 -69t-86.5 -26q-66 0 -93.5 28t-27.5 69v289h-65v25q23 -1 171 4v-311v-6q0 -19 1 -27.5t5 -19.5t14.5 -15t27.5 -4q38 0 77.5 40.5t39.5 120.5v193h-76v25q31 -1 182 4v-375h70v-25q-134 0 -176 -8zM344 492l-150 100q-30 20 -30 37
q0 15 12.5 27t27.5 12q5 0 11 -2.5t10.5 -5t11.5 -8.5t10 -9l10 -10l9 -9l127 -132h-49z" />
    <glyph glyph-name="uacute" unicode="&#xfa;" horiz-adv-x="556" 
d="M358 -8v88h-3q-22 -43 -60.5 -69t-86.5 -26q-66 0 -93.5 28t-27.5 69v289h-65v25q23 -1 171 4v-311v-6q0 -19 1 -27.5t5 -19.5t14.5 -15t27.5 -4q38 0 77.5 40.5t39.5 120.5v193h-76v25q31 -1 182 4v-375h70v-25q-134 0 -176 -8zM393 592l-150 -100h-49l127 132l9 9
l10 10t10 9t11.5 8.5t10.5 5t11 2.5q15 0 27.5 -12t12.5 -27q0 -17 -30 -37z" />
    <glyph glyph-name="ucircumflex" unicode="&#xfb;" horiz-adv-x="556" 
d="M358 -8v88h-3q-22 -43 -60.5 -69t-86.5 -26q-66 0 -93.5 28t-27.5 69v289h-65v25q23 -1 171 4v-311v-6q0 -19 1 -27.5t5 -19.5t14.5 -15t27.5 -4q38 0 77.5 40.5t39.5 120.5v193h-76v25q31 -1 182 4v-375h70v-25q-134 0 -176 -8zM313 648l124 -169h-43l-115 103
l-116 -103h-43l124 169h69z" />
    <glyph glyph-name="udieresis" unicode="&#xfc;" horiz-adv-x="556" 
d="M358 -8v88h-3q-22 -43 -60.5 -69t-86.5 -26q-66 0 -93.5 28t-27.5 69v289h-65v25q23 -1 171 4v-311v-6q0 -19 1 -27.5t5 -19.5t14.5 -15t27.5 -4q38 0 77.5 40.5t39.5 120.5v193h-76v25q31 -1 182 4v-375h70v-25q-134 0 -176 -8zM177 482q-22 0 -38 15.5t-16 37.5
t16 37.5t38 15.5t37.5 -15.5t15.5 -37.5t-15.5 -37.5t-37.5 -15.5zM380 482q-22 0 -38 15.5t-16 37.5t16 37.5t38 15.5t37.5 -15.5t15.5 -37.5t-15.5 -37.5t-37.5 -15.5z" />
    <glyph glyph-name="yacute" unicode="&#xfd;" 
d="M244 0l-176 371h-49v25h229v-25h-64l111 -243l95 243h-72v25h157v-25h-55l-176 -451q-12 -30 -20.5 -48.5t-25.5 -47t-37.5 -43.5t-44.5 -15q-21 0 -38 15t-17 36q0 22 13.5 36.5t34.5 14.5q18 0 27.5 -5t21.5 -19q1 -1 2 -3q7 -11 16 1t24 46q30 66 44 112zM395 592
l-150 -100h-49l127 132l9 9l10 10t10 9t11.5 8.5t10.5 5t11 2.5q15 0 27.5 -12t12.5 -27q0 -17 -30 -37z" />
    <glyph glyph-name="thorn" unicode="&#xfe;" horiz-adv-x="556" 
d="M390 81v214q0 44 -16.5 65.5t-59.5 21.5q-41 0 -79 -41.5t-38 -73.5v-130q0 -51 33 -91.5t82 -40.5q78 0 78 76zM197 683v-364h2q16 35 50.5 59t72.5 24q79 0 133 -62.5t54 -144.5q0 -79 -54.5 -144.5t-132.5 -65.5q-90 0 -123 71h-2v-265h70v-25h-250v25h72v852h-73v25
h54q48 0 127 15z" />
    <glyph glyph-name="ydieresis" unicode="&#xff;" 
d="M244 0l-176 371h-49v25h229v-25h-64l111 -243l95 243h-72v25h157v-25h-55l-176 -451q-12 -30 -20.5 -48.5t-25.5 -47t-37.5 -43.5t-44.5 -15q-21 0 -38 15t-17 36q0 22 13.5 36.5t34.5 14.5q18 0 27.5 -5t21.5 -19q1 -1 2 -3q7 -11 16 1t24 46q30 66 44 112zM179 482
q-22 0 -38 15.5t-16 37.5t16 37.5t38 15.5t37.5 -15.5t15.5 -37.5t-15.5 -37.5t-37.5 -15.5zM382 482q-22 0 -38 15.5t-16 37.5t16 37.5t38 15.5t37.5 -15.5t15.5 -37.5t-15.5 -37.5t-37.5 -15.5z" />
    <glyph glyph-name="dotlessi" unicode="&#x131;" horiz-adv-x="278" 
d="M267 0h-255v25h73v346h-73v25q29 -1 181 4v-375h74v-25z" />
    <glyph glyph-name="Lslash" unicode="&#x141;" horiz-adv-x="611" 
d="M578 0h-555v25h99v259l-99 -86v50l99 86v309h-99v25h331v-25h-104v-216l136 118v-50l-136 -118v-352h131q169 0 176 200h31z" />
    <glyph glyph-name="lslash" unicode="&#x142;" horiz-adv-x="278" 
d="M267 0h-256v25h75v269l-75 -64v40l75 64v309h-72v25q85 -3 180 15v-269l73 62v-40l-73 -62v-349h73v-25z" />
    <glyph glyph-name="OE" unicode="&#x152;" horiz-adv-x="1000" 
d="M494 247v181v21q0 42 -0.5 62t-7.5 50.5t-20.5 45t-40 25.5t-65.5 11q-35 0 -63 -6t-48 -20t-34.5 -29t-23.5 -39.5t-14.5 -44t-8 -51.5t-3 -53t-0.5 -56q0 -138 15 -193q35 -126 175 -126q29 0 51.5 5t37.5 14.5t25 23t15 30.5t7.5 36.5t2.5 41.5v46v25zM725 643h-103
v-287q79 0 113.5 23.5t38.5 98.5h28v-279h-28q-7 82 -38 108t-114 24v-306h143q47 0 79.5 13t51.5 41t29 58t19 78h29l-9 -215h-631q-127 0 -221 92t-94 246q0 134 91 232t224 98h611l6 -180h-28q-15 68 -42 102t-68 45q-29 8 -87 8z" />
    <glyph glyph-name="oe" unicode="&#x153;" horiz-adv-x="722" 
d="M145 191q0 -116 15.5 -151t74.5 -35q34 0 51 10t28.5 51.5t11.5 124.5q0 89 -9.5 129.5t-26.5 51t-56 10.5q-28 0 -42 -4.5t-26.5 -23t-16.5 -57t-4 -106.5zM428 246h155v20v20.5t-0.5 18.5t-2 18.5t-4 16t-6.5 14.5t-9.5 11t-13 9.5t-18 5t-22.5 2.5q-19 0 -33.5 -4.5
t-22.5 -14.5t-13 -19t-7 -27t-2.5 -28t-0.5 -32v-11zM686 221h-258v-134q0 -36 22.5 -59t66.5 -23q110 0 154 118h24q-12 -58 -61 -98t-109 -40q-95 0 -150 55q-65 -55 -140 -55q-92 0 -150.5 69.5t-58.5 146.5q0 80 64.5 140.5t143.5 60.5q75 0 141 -58q61 58 140 58
q71 0 126 -49t55 -119q0 -13 -10 -13z" />
    <glyph glyph-name="Scaron" unicode="&#x160;" horiz-adv-x="556" 
d="M133 36l-47 -42h-17v199h29q18 -79 64 -131t120 -52q61 0 105 40t44 100q0 17 -4.5 31.5t-9 25t-17.5 21t-19.5 16t-25.5 13.5t-25 10.5t-29 10t-28 9.5q-40 14 -60 20q-139 42 -139 193q0 79 52 131t130 52q82 0 146 -50l38 40h18v-189h-32q-9 75 -55 124.5t-118 49.5
q-50 0 -87 -32.5t-37 -81.5q0 -11 2 -21l3.5 -17.5t8 -14.5t9 -11.5t12 -9.5t12.5 -7t16 -6t16 -5t18 -5t18 -5q14 -4 35 -10.5t27 -8.5q48 -14 66 -23q114 -54 114 -196q0 -96 -58 -157.5t-153 -61.5q-37 0 -77 14t-65 37zM244 751l-124 169h44l115 -103l114 103h44
l-124 -169h-69z" />
    <glyph glyph-name="scaron" unicode="&#x161;" horiz-adv-x="389" 
d="M96 27l-29 -27h-16v143h27q8 -58 40.5 -98t86.5 -40q35 0 63 22t28 58q0 18 -7 29.5t-24 18t-28.5 8.5t-38.5 6q-76 10 -109 42t-33 91q0 56 35 89t91 33q55 0 98 -32l16 26h17v-118h-26q-5 42 -34.5 73t-70.5 31q-32 0 -56.5 -18.5t-24.5 -50.5q0 -24 15.5 -34.5
t79.5 -21.5q40 -7 62 -13.5t43 -20.5t29.5 -38t8.5 -62q0 -138 -143 -138q-24 0 -53 12t-47 30zM160 479l-124 169h44l115 -103l114 103h44l-124 -169h-69z" />
    <glyph glyph-name="Ydieresis" unicode="&#x178;" horiz-adv-x="667" 
d="M522 0h-344v25h106v278l-210 340h-73v25h325v-25h-103l171 -287l161 287h-104v25h215v-25h-80l-174 -318v-300h110v-25zM272 754q-22 0 -38 15.5t-16 37.5t16 37.5t38 15.5t37.5 -15.5t15.5 -37.5t-15.5 -37.5t-37.5 -15.5zM475 754q-22 0 -38 15.5t-16 37.5t16 37.5
t38 15.5t37.5 -15.5t15.5 -37.5t-15.5 -37.5t-37.5 -15.5z" />
    <glyph glyph-name="Zcaron" unicode="&#x17d;" horiz-adv-x="611" 
d="M103 488h-30l15 180h483v-28l-387 -615h167q52 0 85.5 11t54.5 37.5t32 57.5t21 84h28l-8 -215h-525v27l389 616h-108q-67 0 -96 -7q-99 -23 -121 -148zM271 751l-124 169h44l115 -103l114 103h44l-124 -169h-69z" />
    <glyph glyph-name="zcaron" unicode="&#x17e;" horiz-adv-x="444" 
d="M53 241v155h337v-30l-234 -341h81q38 0 61 8.5t35.5 31t17.5 43.5t10 62h28v-170h-359v27l236 344q-11 0 -32 0.5t-29.5 0.5t-24.5 -1.5t-24 -5.5t-19.5 -10.5t-20 -17.5t-16.5 -27q-11 -21 -21 -69h-26zM188 479l-124 169h44l115 -103l114 103h44l-124 -169h-69z" />
    <glyph glyph-name="florin" unicode="&#x192;" 
d="M234 364h-96l4 25h96q68 294 205 294q33 0 58.5 -19.5t25.5 -57.5q0 -24 -12 -39.5t-32 -15.5q-16 0 -27 12.5t-11 31.5q0 14 7.5 28.5t7.5 18.5q0 7 -9 11.5t-15 4.5q-14 0 -25 -6t-25 -24t-27 -60t-25 -107l-12 -72h104l-3 -25h-106l-27 -159q-19 -115 -39 -185
q-70 -254 -199 -254q-35 0 -57 26.5t-22 59.5q0 21 14.5 34t32.5 13q11 0 22.5 -11t13.5 -25q3 -13 0 -21t-9 -18.5t-7 -13.5q-2 -9 5.5 -14t15.5 -5q23 0 44 18q34 30 57 163z" />
    <glyph glyph-name="circumflex" unicode="&#x2c6;" horiz-adv-x="333" 
d="M201 668l124 -169h-43l-115 103l-116 -103h-43l124 169h69z" />
    <glyph glyph-name="caron" unicode="&#x2c7;" horiz-adv-x="333" 
d="M132 499l-124 169h44l115 -103l114 103h44l-124 -169h-69z" />
    <glyph glyph-name="uni02C9" unicode="&#x2c9;" horiz-adv-x="333" 
d="M325 609h-317v59h317v-59z" />
    <glyph glyph-name="breve" unicode="&#x2d8;" horiz-adv-x="333" 
d="M20 668h37q15 -92 109 -92q101 0 110 92h37q-4 -69 -39.5 -113t-102.5 -44q-143 0 -151 157z" />
    <glyph glyph-name="dotaccent" unicode="&#x2d9;" horiz-adv-x="333" 
d="M167 522q-22 0 -38 15.5t-16 37.5t16 37.5t38 15.5t37.5 -15.5t15.5 -37.5t-15.5 -37.5t-37.5 -15.5z" />
    <glyph glyph-name="ring" unicode="&#x2da;" horiz-adv-x="333" 
d="M167 465q-41 0 -71.5 30t-30.5 72q0 41 30.5 71t71.5 30q42 0 72 -29.5t30 -71.5t-30 -72t-72 -30zM167 628q-24 0 -42.5 -18.5t-18.5 -42.5t18.5 -43t42.5 -19q25 0 43.5 18.5t18.5 43.5q0 24 -19 42.5t-43 18.5z" />
    <glyph glyph-name="ogonek" unicode="&#x2db;" horiz-adv-x="333" 
d="M119 -11l56 11l2 -2q-38 -22 -38 -53q0 -18 13 -28.5t31 -10.5q23 0 57 15l14 -31q-39 -25 -86 -25q-34 0 -61 16t-27 48q0 34 39 60z" />
    <glyph glyph-name="tilde" unicode="&#x2dc;" horiz-adv-x="333" 
d="M303 628h34q-27 -112 -112 -112q-29 0 -79 24q-48 24 -64 24q-43 0 -54 -49h-33q8 47 37 78.5t74 31.5q29 0 77 -24q50 -24 69 -24t32.5 15.5t18.5 35.5z" />
    <glyph glyph-name="hungarumlaut" unicode="&#x2dd;" horiz-adv-x="333" 
d="M175 592l-150 -100h-49l127 132l9 9l10 10t10 9t11.5 8.5t10.5 5t11 2.5q15 0 27.5 -12t12.5 -27q0 -17 -30 -37zM328 592l-150 -100h-49l127 132l9 9l10 10t10 9t11.5 8.5t10.5 5t11 2.5q15 0 27.5 -12t12.5 -27q0 -17 -30 -37z" />
    <glyph glyph-name="uni03A9" unicode="&#x3a9;" horiz-adv-x="654" 
d="M624 148l-24 -148h-222l-8 19q4 9 24 54.5t29 69t23 64.5t20 77t6 70q-1 135 -41.5 196.5t-105.5 61.5q-143 0 -143 -261q0 -55 18 -121.5t34 -104.5t47 -106l-8 -19h-222l-22 148l29 1q14 -41 28 -53.5t42 -12.5h87q-31 26 -51.5 46t-48 55.5t-42 79t-14.5 94.5
q0 130 76.5 208.5t192.5 78.5q118 0 191.5 -76t73.5 -205q0 -46 -13.5 -87.5t-41.5 -78.5t-49 -59.5t-56 -55.5h95q28 0 40.5 12t26.5 54z" />
    <glyph glyph-name="uni03BC" unicode="&#x3bc;" horiz-adv-x="556" 
d="M358 -8v88h-3q-53 -102 -179 -96q-14 1 -14 -17t8 -47q22 -82 23 -91q3 -21 -13 -35t-42 -14q-23 0 -38 14t-13 35q1 11 19 83q12 43 0 70q-19 41 -19 100v289h-65v25q23 -1 171 4v-311v-8q0 -18 0.5 -26.5t5 -19t14.5 -14.5t27 -4q38 0 78 40.5t40 120.5v193h-76v25
q31 -1 182 4v-375h69v-25q-134 0 -175 -8z" />
    <glyph glyph-name="pi" unicode="&#x3c0;" horiz-adv-x="523" 
d="M474 438l25 -7q-9 -65 -33 -100q-18 -6 -58 -6q-5 -59 -5 -189q1 -81 37 -81q19 0 41 22l12 -23q-17 -29 -46 -47.5t-57 -18.5q-91 0 -91 124q0 56 9 216q-24 0 -64 0.5t-56 0.5v-11q0 -97 -13 -171t-24 -100.5t-22 -41.5q-31 -13 -63 -17l-6 19q45 62 65 152t20 172
q-39 1 -61 -7t-54 -29l-14 26l8 11q8 10 10 12t10 11.5t12 12.5t13.5 11t16.5 11t18 8.5t21.5 7.5t24 3.5t28.5 1.5q207 -3 242 -3q22 0 33 6t21 24z" />
    <glyph glyph-name="endash" unicode="&#x2013;" 
d="M500 174h-500v54h500v-54z" />
    <glyph glyph-name="emdash" unicode="&#x2014;" horiz-adv-x="1000" 
d="M0 174v54h1000v-54h-1000z" />
    <glyph glyph-name="quoteleft" unicode="&#x2018;" horiz-adv-x="333" 
d="M179 407q-46 0 -71.5 31t-25.5 78q0 50 29 93.5t75 73.5q7 2 13 -1t6 -11q0 -5 -19 -18q-28 -18 -51.5 -58t-23.5 -70q0 -11 4.5 -26t12.5 -15q12 0 16 16q4 17 18.5 27t34.5 10q24 0 39.5 -19t15.5 -44q0 -30 -21 -48.5t-52 -18.5z" />
    <glyph glyph-name="quoteright" unicode="&#x2019;" horiz-adv-x="333" 
d="M155 683q46 0 71.5 -31t25.5 -78q0 -50 -29 -93.5t-75 -73.5q-7 -2 -13 1t-6 11q0 5 19 18q28 18 51.5 58t23.5 70q0 11 -4.5 26t-12.5 15q-12 0 -16 -16q-4 -17 -18.5 -27t-34.5 -10q-24 0 -39.5 19t-15.5 44q0 30 21 48.5t52 18.5z" />
    <glyph glyph-name="quotesinglbase" unicode="&#x201a;" horiz-adv-x="333" 
d="M155 115q46 0 71.5 -31t25.5 -78q0 -50 -29 -93.5t-75 -73.5q-7 -2 -13 1t-6 11q0 5 19 18q28 18 51.5 58t23.5 70q0 11 -4.5 26t-12.5 15q-12 0 -16 -16q-4 -17 -18.5 -27t-34.5 -10q-24 0 -39.5 19t-15.5 44q0 30 21 48.5t52 18.5z" />
    <glyph glyph-name="quotedblleft" unicode="&#x201c;" 
d="M139 407q-46 0 -71.5 31t-25.5 78q0 50 29 93.5t75 73.5q7 2 13 -1t6 -11q0 -5 -19 -18q-28 -18 -51.5 -58t-23.5 -70q0 -11 4.5 -26t12.5 -15q12 0 16 16q4 17 18.5 27t34.5 10q24 0 39.5 -19t15.5 -44q0 -30 -21 -48.5t-52 -18.5zM385 407q-46 0 -71.5 31t-25.5 78
q0 50 29 93.5t75 73.5q7 2 13 -1t6 -11q0 -5 -19 -18q-28 -18 -51.5 -58t-23.5 -70q0 -11 4.5 -26t12.5 -15q12 0 16 16q4 17 18.5 27t34.5 10q24 0 39.5 -19t15.5 -44q0 -30 -21 -48.5t-52 -18.5z" />
    <glyph glyph-name="quotedblright" unicode="&#x201d;" 
d="M362 683q46 0 71.5 -31t25.5 -78q0 -50 -29 -93.5t-75 -73.5q-7 -2 -13 1t-6 11q0 5 19 18q28 18 51.5 58t23.5 70q0 11 -4.5 26t-12.5 15q-12 0 -16 -16q-4 -17 -18.5 -27t-34.5 -10q-24 0 -39.5 19t-15.5 44q0 30 21 48.5t52 18.5zM115 683q46 0 71.5 -31t25.5 -78
q0 -50 -29 -93.5t-75 -73.5q-7 -2 -13 1t-6 11q0 5 19 18q28 18 51.5 58t23.5 70q0 11 -4.5 26t-12.5 15q-12 0 -16 -16q-4 -17 -18.5 -27t-34.5 -10q-24 0 -39.5 19t-15.5 44q0 30 21 48.5t52 18.5z" />
    <glyph glyph-name="quotedblbase" unicode="&#x201e;" 
d="M362 115q46 0 71.5 -31t25.5 -78q0 -50 -29 -93.5t-75 -73.5q-7 -2 -13 1t-6 11q0 5 19 18q28 18 51.5 58t23.5 70q0 11 -4.5 26t-12.5 15q-12 0 -16 -16q-4 -17 -18.5 -27t-34.5 -10q-24 0 -39.5 19t-15.5 44q0 30 21 48.5t52 18.5zM115 115q46 0 71.5 -31t25.5 -78
q0 -50 -29 -93.5t-75 -73.5q-7 -2 -13 1t-6 11q0 5 19 18q28 18 51.5 58t23.5 70q0 11 -4.5 26t-12.5 15q-12 0 -16 -16q-4 -17 -18.5 -27t-34.5 -10q-24 0 -39.5 19t-15.5 44q0 30 21 48.5t52 18.5z" />
    <glyph glyph-name="dagger" unicode="&#x2020;" 
d="M250 683q20 0 33 -14t13 -34q0 -12 -9 -37q-17 -48 -22.5 -73t-4.5 -62q33 -1 95 23q31 12 46 12q19 0 31 -13t12 -32q0 -18 -10.5 -31t-27.5 -13t-68.5 20t-77.5 16q0 -5 0.5 -23t1 -25t1.5 -23.5t2.5 -25t4.5 -22.5t7.5 -23.5t10.5 -20.5t14 -20q-20 -60 -30 -139
t-11 -122.5t-2 -142.5h-19q-1 99 -2 142.5t-11 122.5t-30 139q9 11 15.5 22t11 26.5t7.5 24.5t4.5 29t2 25.5t1 29.5t0.5 26q-26 4 -77.5 -16t-68.5 -20t-27.5 13t-10.5 31q0 19 12 32t31 13q15 0 46 -12q62 -24 95 -23q1 37 -4.5 62t-22.5 73q-9 25 -9 37q0 20 13 34t34 14
z" />
    <glyph glyph-name="daggerdbl" unicode="&#x2021;" 
d="M251 683q20 0 32.5 -14.5t12.5 -33.5q0 -15 -13 -47q-17 -42 -20.5 -63t-2.5 -62q33 -1 95 23q31 12 46 12q19 0 31 -13t12 -32q0 -18 -10.5 -31t-27.5 -13q-18 0 -70 21q-48 19 -76 15q-4 -119 39 -177q-43 -58 -39 -177q28 -4 76 15q52 21 70 21q17 0 27.5 -13
t10.5 -31q0 -19 -12 -32t-31 -13q-15 0 -46 12q-62 24 -95 23q-1 -41 2.5 -62.5t20.5 -62.5q13 -32 13 -47q0 -19 -12.5 -33.5t-32.5 -14.5q-22 0 -35 14t-13 34q0 15 13 47q17 41 20.5 62.5t2.5 62.5q-33 1 -95 -23q-31 -12 -46 -12q-19 0 -31 13t-12 32q0 18 10.5 31
t27.5 13t70 -21q48 -19 76 -15q4 119 -39 177q43 58 39 177q-27 4 -76 -15q-53 -21 -70 -21t-27.5 13t-10.5 31q0 19 12 32t31 13q15 0 46 -12q62 -24 95 -23q1 41 -2.5 62.5t-20.5 62.5q-13 32 -13 47q0 20 13 34t35 14z" />
    <glyph glyph-name="bullet" unicode="&#x2022;" horiz-adv-x="620" 
d="M310 501q74 0 120.5 -48t46.5 -119t-46.5 -119t-120.5 -48t-120.5 48t-46.5 119t46.5 119t120.5 48z" />
    <glyph glyph-name="ellipsis" unicode="&#x2026;" horiz-adv-x="1000" 
d="M168 113q24 0 43.5 -19t19.5 -45t-19.5 -45t-43.5 -19q-25 0 -45 19t-20 45t20 45t45 19zM501 113q24 0 43.5 -19t19.5 -45t-19.5 -45t-43.5 -19q-25 0 -45 19t-20 45t20 45t45 19zM834 113q24 0 43.5 -19t19.5 -45t-19.5 -45t-43.5 -19q-25 0 -45 19t-20 45t20 45t45 19
z" />
    <glyph glyph-name="perthousand" unicode="&#x2030;" horiz-adv-x="1000" 
d="M567 706l-430 -724h-47l387 647l-2 2q-42 -48 -114 -48q-35 0 -74 14q4 -24 4 -37q0 -48 -18 -100t-57 -93t-89 -41q-55 0 -87.5 41t-32.5 98q0 77 56.5 144.5t132.5 67.5q36 0 60 -24q25 -25 47 -34.5t62 -9.5q29 0 58 14.5t44.5 28.5t43.5 42q12 12 25 12h31zM198 649
q-51 -12 -85 -86.5t-34 -134.5q0 -75 59 -75q39 0 70 38.5t44.5 84t13.5 83.5q0 46 -13 51q-29 11 -55 39zM540 330q37 0 64.5 -28t27.5 -94q0 -75 -46.5 -151t-116.5 -76q-55 0 -88.5 41.5t-33.5 96.5q0 79 58 145t135 66zM546 302q-46 0 -86.5 -76t-40.5 -141
q0 -77 61 -77q54 0 91.5 71t37.5 131q0 35 -15 63.5t-48 28.5zM902 330q37 0 64.5 -28t27.5 -94q0 -75 -46.5 -151t-116.5 -76q-55 0 -88.5 41.5t-33.5 96.5q0 79 58 145t135 66zM908 302q-46 0 -86.5 -76t-40.5 -141q0 -77 61 -77q54 0 91.5 71t37.5 131q0 35 -15 63.5
t-48 28.5z" />
    <glyph glyph-name="guilsinglleft" unicode="&#x2039;" horiz-adv-x="333" 
d="M152 201q27 -28 65 -79t38 -70q0 -3 -4.5 -5t-8.5 1q-67 67 -148 136q-16 13 -16 17t16 17q72 60 148 136q4 3 8.5 1t4.5 -5q0 -19 -38 -70t-65 -79z" />
    <glyph glyph-name="guilsinglright" unicode="&#x203a;" horiz-adv-x="333" 
d="M181 201q-27 28 -65 79t-38 70q0 3 4.5 5t8.5 -1q76 -76 148 -136q16 -13 16 -17t-16 -17q-81 -69 -148 -136q-4 -3 -8.5 -1t-4.5 5q0 19 38 70t65 79z" />
    <glyph glyph-name="fraction" unicode="&#x2044;" horiz-adv-x="167" 
d="M-168 0l449 645h52l-449 -645h-52z" />
    <glyph glyph-name="Euro" unicode="&#x20ac;" 
d="M407 293l-17 -48h-200q0 -43 5.5 -81t18 -75.5t37.5 -59.5t60 -22q62 0 98.5 40t47.5 109h30v-156h-22l-35 34q-43 -49 -118 -49q-51 0 -93.5 23t-71 61t-47 82.5t-26.5 93.5h-63l17 48h40v22q0 22 1 33h-58l17 48h48q20 102 80.5 175.5t155.5 73.5q78 0 119 -48l34 38
h22v-161h-30q-24 149 -146 149q-34 0 -58.5 -21t-37 -56t-18.5 -72t-7 -78h254l-17 -48h-237v-55h217z" />
    <glyph glyph-name="afii61289" unicode="&#x2113;" horiz-adv-x="395" 
d="M358 120l22 -19q-61 -115 -164 -115q-69 0 -101 37q-18 23 -25.5 50.5t-7.5 85.5v67l-51 -36l-12 27l63 48v126q0 101 10 148.5t38 83.5q41 54 96 54q45 0 68.5 -35.5t23.5 -90.5q0 -75 -33 -136t-99 -127v-78q0 -88 17 -123t57 -35q53 0 98 68zM186 441v-103
q73 89 73 211q0 96 -36 96q-22 0 -29.5 -41t-7.5 -163z" />
    <glyph glyph-name="trademark" unicode="&#x2122;" horiz-adv-x="860" 
d="M285 334h-184v13h58v308q-55 3 -78.5 -19.5t-32.5 -74.5h-17l7 107h310l5 -107h-17q-7 51 -30.5 74t-77.5 20v-308h57v-13zM829 668v-13h-54v-308h54v-13h-177v13h55v300h-2l-108 -313h-19l-108 313h-1v-300h53v-13h-123v13h53v308h-53v13h139l76 -229l78 229h137z" />
    <glyph glyph-name="Omega" unicode="&#x2126;" horiz-adv-x="654" 
d="M624 148l-24 -148h-222l-8 19q4 9 24 54.5t29 69t23 64.5t20 77t6 70q-1 135 -41.5 196.5t-105.5 61.5q-143 0 -143 -261q0 -55 18 -121.5t34 -104.5t47 -106l-8 -19h-222l-22 148l29 1q14 -41 28 -53.5t42 -12.5h87q-31 26 -51.5 46t-48 55.5t-42 79t-14.5 94.5
q0 130 76.5 208.5t192.5 78.5q118 0 191.5 -76t73.5 -205q0 -46 -13.5 -87.5t-41.5 -78.5t-49 -59.5t-56 -55.5h95q28 0 40.5 12t26.5 54z" />
    <glyph glyph-name="estimated" unicode="&#x212e;" horiz-adv-x="795" 
d="M763 305h-593q-5 0 -5 -4v-179q0 -11 8 -21q95 -97 224 -97q142 0 236 109h53q-50 -59 -126.5 -93t-163.5 -34q-151 0 -258 96t-107 232q0 137 107 233.5t258 96.5q152 0 259.5 -96.5t107.5 -233.5v-9zM628 329v180q0 13 -8 21q-96 94 -223 94t-223 -96q-9 -9 -9 -23
v-176q0 -6 5 -6h454q4 0 4 6z" />
    <glyph glyph-name="partialdiff" unicode="&#x2202;" horiz-adv-x="494" 
d="M243 394q72 0 111 -56q9 68 10 102q4 86 -22 141q-14 30 -41.5 49.5t-65.5 19.5q-62 0 -128 -58q-13 -1 -27 28t-7 46q62 37 131 37q129 0 197 -133q48 -90 48 -218q0 -135 -45 -225q-65 -141 -196 -141q-77 0 -123.5 49t-46.5 134q0 92 55 156q26 31 66 50t84 19z
M267 352h-1q-52 0 -84 -52q-41 -71 -41 -188q0 -44 18 -69t51 -25q49 0 91 98q30 71 44 180q-8 20 -29.5 38t-48.5 18z" />
    <glyph glyph-name="Delta" unicode="&#x2206;" horiz-adv-x="586" 
d="M554 0h-523v30l233 603l47 12l243 -615v-30zM422 53l-168 437l-164 -437h332z" />
    <glyph glyph-name="product" unicode="&#x220f;" horiz-adv-x="642" 
d="M617 640v-29q-58 -4 -71 -17.5t-13 -63.5v-491q0 -55 13 -69.5t70 -18.5v-30h-260v30q49 4 59.5 17t10.5 70v533q0 21 -6.5 27t-28.5 6h-144q-20 0 -25.5 -5t-5.5 -25v-536q0 -56 8.5 -69.5t54.5 -17.5v-30h-254v30q56 4 69 18.5t13 68.5v492q0 51 -13 64t-72 17v29h595z
" />
    <glyph glyph-name="summation" unicode="&#x2211;" horiz-adv-x="509" 
d="M489 107l-43 -192h-421v28l198 298l-195 371v28h419q4 -75 11 -158l-30 -6q-14 62 -32 94q-11 21 -29 28t-68 7h-140l156 -288l-202 -310h215q61 0 81.5 16t49.5 92z" />
    <glyph glyph-name="minus" unicode="&#x2212;" 
d="M472 195h-443v54h443v-54z" />
    <glyph glyph-name="uni2215" unicode="&#x2215;" horiz-adv-x="167" 
d="M-168 0l449 645h52l-449 -645h-52z" />
    <glyph glyph-name="uni2219" unicode="&#x2219;" horiz-adv-x="333" 
d="M167 286q24 0 43.5 -19t19.5 -45t-19.5 -45t-43.5 -19q-25 0 -45 19t-20 45t20 45t45 19z" />
    <glyph glyph-name="radical" unicode="&#x221a;" horiz-adv-x="509" 
d="M498 804l-159 -954l-24 -11l-193 500l-79 -36l-12 36l162 72l135 -370h2l124 772z" />
    <glyph glyph-name="infinity" unicode="&#x221e;" horiz-adv-x="689" 
d="M646 263v-1q0 -70 -42.5 -112t-100.5 -42q-82 0 -158 100q-38 -49 -76 -74.5t-87 -25.5q-57 0 -99 42t-42 108q0 67 42 110t106 43q84 0 159 -98q1 1 12.5 13.5t14 15.5t13.5 14t16.5 15t16.5 12.5t19 11.5t19.5 8t23.5 6.5t25 1.5q60 -1 99 -41.5t39 -106.5zM190 170h1
q23 0 46.5 14.5t37 29t36.5 41.5q-25 34 -37 48.5t-36 30t-51 15.5q-37 0 -59 -25.5t-22 -66.5q0 -36 24 -61.5t60 -25.5zM502 349h-1q-13 0 -26 -5t-22 -10t-22 -17.5t-18.5 -18t-18 -20.5t-14.5 -17q41 -52 67 -71.5t58 -19.5q34 0 55.5 27.5t21.5 59.5q0 41 -22 66.5
t-58 25.5z" />
    <glyph glyph-name="integral" unicode="&#x222b;" horiz-adv-x="363" 
d="M147 -4l-19 368q-5 96 2.5 170t23 117t38.5 70t45.5 36.5t47.5 9.5q24 0 44.5 -13t21.5 -37q0 -25 -15.5 -38t-36.5 -13q-11 0 -19 8.5t-11 18.5t-8 18.5t-12 8.5q-35 0 -28 -141l17 -340q12 -223 -35 -326t-126 -103q-27 0 -46 15.5t-19 36.5q-1 23 17.5 39t41.5 16
q16 0 27.5 -29.5t20.5 -29.5q36 0 28 138z" />
    <glyph glyph-name="approxequal" unicode="&#x2248;" horiz-adv-x="482" 
d="M405 409l43 -38q-49 -92 -121 -92q-42 0 -97 34q-44 30 -75 30q-26 0 -43.5 -16.5t-37.5 -47.5l-43 38q20 40 55 65.5t75 25.5q38 0 92 -32q5 -3 14.5 -9t13.5 -8t11.5 -6t12 -5t10.5 -2.5t12 -1.5q40 0 78 65zM405 243l43 -37q-49 -93 -121 -93q-42 0 -97 35
q-46 30 -74 30q-19 0 -35.5 -11t-24 -21t-22.5 -32l-43 37q20 41 55 66.5t75 25.5q12 0 23 -2t22 -6.5t17 -7t17 -9t13 -7.5q4 -2 12.5 -7.5t12.5 -8t11 -6.5t12.5 -5.5t12 -3t13.5 -1.5q23 0 39.5 15t38.5 49z" />
    <glyph glyph-name="notequal" unicode="&#x2260;" horiz-adv-x="482" 
d="M355 461l-34 -77h118v-67h-143l-51 -119h194v-66h-219l-43 -100l-52 21l34 79h-117v66h142l51 119h-193v67h218l43 98z" />
    <glyph glyph-name="lessequal" unicode="&#x2264;" horiz-adv-x="482" 
d="M437 93l-390 199v72l390 198v-78l-325 -155v-2l325 -156v-78zM440 -8h-397v68h397v-68z" />
    <glyph glyph-name="greaterequal" unicode="&#x2265;" horiz-adv-x="482" 
d="M48 562l390 -199v-71l-390 -199v78l324 156v2l-324 155v78zM439 -8h-395v68h395v-68z" />
    <glyph glyph-name="lozenge" unicode="&#x25ca;" horiz-adv-x="514" 
d="M471 307l-174 -371h-81l-173 371l175 374h80zM396 307l-137 304h-3l-138 -303l138 -305h3z" />
    </font>
</defs>
</svg>
