<?xml version="1.0" standalone="no"?>
<!DOCTYPE svg PUBLIC "-//W3C//DTD SVG 1.1//EN" "http://www.w3.org/Graphics/SVG/1.1/DTD/svg11.dtd" >
<svg xmlns="http://www.w3.org/2000/svg" xmlns:xlink="http://www.w3.org/1999/xlink" version="1.1">
<metadata>
Created by FontForge 20170731 at Mon Apr  1 19:58:00 2002
 By Aleksey,,,
Copyright (c) 1989, 1990, 1999, 2001 Adobe Systems Incorporated.  All Rights Reserved.
</metadata>
<defs>
<font id="BodoniStd-Book" horiz-adv-x="500" >
  <font-face 
    font-family="Bodoni Std Book"
    font-weight="400"
    font-stretch="normal"
    units-per-em="1000"
    panose-1="2 7 6 3 7 5 6 2 3 3"
    ascent="698"
    descent="-302"
    x-height="396"
    cap-height="668"
    bbox="-167 -250 1000 886"
    underline-thickness="50"
    underline-position="-200"
    unicode-range="U+0020-FB02"
  />
<missing-glyph 
d="M0 0v700h500v-700h-500zM250 395l170 255h-340zM280 350l170 -255v510zM80 50h340l-170 255zM50 605v-510l170 255z" />
    <glyph glyph-name="fi" unicode="fi" 
d="M222 0h-216v23h77v350h-77v23h77v49q0 118 53 182t137 64q45 0 84 -19t39 -60q0 -16 -13 -29t-28 -13q-20 0 -33 14t-13 34q0 8 4.5 15t9.5 12l5 5q0 9 -20.5 15.5t-36.5 6.5q-110 0 -110 -204v-72h147q72 0 112 10v-383h59v-23h-197v23h60v350h-181v-350h61v-23z" />
    <glyph glyph-name="fl" unicode="fl" 
d="M161 396h181v188q-10 2 -20 16.5t-10 25.5q0 14 7 25l7 11q0 13 -55 13q-37 0 -73.5 -40t-36.5 -134v-105zM420 690v-667h59v-23h-197v23h60v350h-181v-350h61v-23h-216v23h77v350h-77v23h77v52q0 118 53 182t137 64q27 0 54 -9l36 -9q9 0 18.5 2t21 6t17.5 6z" />
    <glyph glyph-name=".notdef" 
d="M0 0v700h500v-700h-500zM250 395l170 255h-340zM280 350l170 -255v510zM80 50h340l-170 255zM50 605v-510l170 255z" />
    <glyph glyph-name=".null" horiz-adv-x="0" 
 />
    <glyph glyph-name="nonmarkingreturn" horiz-adv-x="333" 
 />
    <glyph glyph-name="space" unicode=" " horiz-adv-x="250" 
 />
    <glyph glyph-name="exclam" unicode="!" horiz-adv-x="278" 
d="M150 200h-22q-3 92 -14.5 189t-21.5 157.5t-10 67.5q0 28 15 48t42 20t42 -20t15 -48q0 -7 -10 -67.5t-21.5 -157.5t-14.5 -189zM137 -11q-25 0 -41 16.5t-16 41.5q0 23 17.5 39.5t39.5 16.5q23 0 42 -16.5t19 -39.5q0 -25 -18 -41.5t-43 -16.5z" />
    <glyph glyph-name="quotedbl" unicode="&#x22;" horiz-adv-x="444" 
d="M329 387h-29q-6 41 -12.5 84t-10 63.5t-5.5 39.5t-2 32q0 61 44 61t44 -61q0 -16 -3 -38.5t-11 -76t-15 -104.5zM145 387h-29q-6 41 -12.5 84t-10 63.5t-5.5 39.5t-2 32q0 61 44 61t44 -61q0 -16 -3 -38.5t-11 -76t-15 -104.5z" />
    <glyph glyph-name="numbersign" unicode="#" 
d="M465 244v-52h-107l-29 -192h-56l29 192h-135l-29 -192h-56l29 192h-105v52h113l24 157h-108v52h116l29 192h56l-29 -192h135l29 192h56l-29 -192h96v-52h-104l-24 -157h99zM334 401h-135l-24 -157h135z" />
    <glyph glyph-name="dollar" unicode="$" 
d="M176 20v295q-119 41 -119 165q0 54 34 98.5t85 60.5v92h25v-87q36 6 40 6q25 0 42 -1v82h25v-85q58 -6 95.5 -44.5t37.5 -80.5q0 -27 -14 -44.5t-39 -17.5q-21 0 -33.5 12t-12.5 35q0 20 14 30t27.5 14.5t13.5 10.5q0 17 -28.5 37.5t-60.5 24.5v-254q68 -19 108.5 -63.5
t40.5 -112.5q0 -64 -44 -118t-105 -71v-91h-25v87q-17 -5 -42 -7q-14 1 -40 3v-83h-25v86q-57 2 -100 45t-43 89q0 62 61 62q16 0 27.5 -13t11.5 -30q0 -20 -8.5 -32t-19 -15t-19 -8t-8.5 -12q0 -19 36.5 -42t61.5 -23zM201 622v-223l82 -24v252q-28 2 -42 2q-17 0 -40 -7z
M176 408v208q-31 -11 -55.5 -42.5t-24.5 -64.5q0 -74 80 -101zM308 273v-247q46 14 75 52t29 86q0 78 -104 109zM283 280l-82 27v-291q5 0 19.5 -1.5t22.5 -1.5l40 7v260z" />
    <glyph glyph-name="percent" unicode="%" horiz-adv-x="833" 
d="M640 672l-392 -699h-51l349 617l-2 2q-58 -41 -135 -41q-1 0 -40 6v-15q0 -95 -58.5 -182t-144.5 -87q-52 0 -85.5 33.5t-33.5 87.5q0 83 70.5 169t148.5 86q77 0 98 -64q19 -13 47 -13q48 0 100.5 27t84.5 73h44zM279 618h-13q-26 0 -60.5 -45.5t-58 -106t-23.5 -102.5
q0 -63 63 -63q51 0 105 73.5t54 152.5q0 23 -5 39q-50 25 -62 52zM763 254q0 87 -63 87q-36 0 -75 -47t-62.5 -106t-23.5 -99q0 -65 68 -65q40 0 77.5 42t58 95t20.5 93zM684 372q35 0 68.5 -27t33.5 -84q0 -28 -11 -68.5t-33.5 -86.5t-65.5 -78t-97 -32q-51 0 -84 32.5
t-33 85.5q0 87 69.5 172.5t152.5 85.5z" />
    <glyph glyph-name="ampersand" unicode="&#x26;" horiz-adv-x="722" 
d="M319 434q53 23 73 52t20 86q0 38 -20.5 63t-57.5 25q-35 0 -60 -21.5t-25 -57.5q0 -9 2.5 -19t8 -23t9.5 -22t13 -24.5t12.5 -20.5t14 -21t10.5 -17zM332 415l163 -268q84 106 89 237h-89v23h197v-23h-84q-13 -166 -100 -259l62 -102h87v-23h-182l-34 57
q-36 -32 -90.5 -52t-103.5 -20q-56 0 -98.5 19t-66 50.5t-34.5 66.5t-11 72q0 55 45.5 112t151.5 99q-1 2 -7.5 13.5t-8.5 14.5t-7.5 13.5t-7.5 15t-7 14t-6.5 15t-5 14.5t-4.5 16t-2 15t-1 16q0 63 46.5 97.5t110.5 34.5q59 0 104.5 -33.5t45.5 -91.5q0 -86 -152 -143z
M428 78l-183 305q-55 -21 -86 -50t-31 -79q0 -43 20.5 -96t59 -94.5t81.5 -41.5q64 0 139 56z" />
    <glyph glyph-name="quotesingle" unicode="'" horiz-adv-x="222" 
d="M126 387h-29q-6 41 -12.5 84t-10 63.5t-5.5 39.5t-2 32q0 61 44 61t44 -61q0 -16 -3 -38.5t-11 -76t-15 -104.5z" />
    <glyph glyph-name="parenleft" unicode="(" horiz-adv-x="278" 
d="M268 -209l-13 -18q-100 89 -154 208.5t-54 253.5q0 133 54 252.5t154 209.5l13 -19q-65 -74 -84 -106q-50 -85 -57 -256q-2 -37 -2 -81q0 -135 18 -218.5t39 -117.5t75 -95q7 -9 11 -13z" />
    <glyph glyph-name="parenright" unicode=")" horiz-adv-x="278" 
d="M23 -227l-13 18q65 74 84 107q51 85 57 256q2 37 2 81q0 134 -18 217.5t-39 117.5t-75 95q-7 9 -11 13l13 19q100 -90 154 -209.5t54 -252.5q0 -134 -54 -253.5t-154 -208.5z" />
    <glyph glyph-name="asterisk" unicode="*" 
d="M233 462q-32 21 -76.5 31t-66.5 19t-22 33q0 16 10 26.5t25 10.5q17 0 34.5 -18.5t44 -45.5t58.5 -42q0 56 -13 98.5t-13 54.5q0 17 10.5 27.5t25.5 10.5t25.5 -10.5t10.5 -27.5q0 -12 -13 -54.5t-13 -98.5q32 15 58.5 42t44 45.5t34.5 18.5q15 0 25 -10.5t10 -26.5
q0 -24 -22 -33t-66.5 -19t-76.5 -31q32 -21 76.5 -31t66.5 -19t22 -33q0 -16 -10 -26.5t-25 -10.5q-17 0 -34.5 18.5t-44 45.5t-58.5 42q0 -56 13 -98.5t13 -54.5q0 -17 -10.5 -27.5t-25.5 -10.5t-25.5 10.5t-10.5 27.5q0 12 13 54.5t13 98.5q-32 -15 -58.5 -42t-44 -45.5
t-34.5 -18.5q-15 0 -25 10.5t-10 26.5q0 24 22 33t66.5 19t76.5 31z" />
    <glyph glyph-name="plus" unicode="+" horiz-adv-x="550" 
d="M246 272v214h58v-214h203v-58h-203v-214h-58v214h-203v58h203z" />
    <glyph glyph-name="comma" unicode="," horiz-adv-x="250" 
d="M86 -161l-8 17q50 41 71 71t21 59q0 28 -12 28q-2 0 -3.5 -2t-4.5 -5.5t-6 -6.5q-13 -15 -38 -15q-54 0 -54 56q0 25 20 42.5t46 17.5q38 0 61 -25t23 -72t-34 -90t-82 -75z" />
    <glyph glyph-name="hyphen" unicode="-" horiz-adv-x="333" 
d="M289 183h-245v67h245v-67z" />
    <glyph glyph-name="period" unicode="." horiz-adv-x="250" 
d="M123 -11q-25 0 -41 16t-16 41q0 22 17.5 38.5t39.5 16.5q23 0 42 -16.5t19 -38.5q0 -25 -18 -41t-43 -16z" />
    <glyph glyph-name="slash" unicode="/" horiz-adv-x="278" 
d="M220 683h62l-225 -698h-61z" />
    <glyph glyph-name="zero" unicode="0" 
d="M250 635q-30 0 -49.5 -9.5t-38 -40t-27.5 -95.5t-9 -167q0 -82 6.5 -141t17 -92t27.5 -51.5t33.5 -23.5t39.5 -5t39.5 5t33.5 23.5t27.5 51.5t17 92t6.5 141q0 102 -9 167t-27.5 95.5t-38 40t-49.5 9.5zM250 658q70 0 123.5 -51.5t78.5 -126.5t25 -157q0 -83 -25.5 -158
t-78.5 -126.5t-123 -51.5t-123 51.5t-78.5 126.5t-25.5 158q0 82 25 157t78.5 126.5t123.5 51.5z" />
    <glyph glyph-name="one" unicode="1" 
d="M418 0h-329v23h122v557q0 26 -17 34t-62 8h-49v23h48q61 0 171 13v-635h116v-23z" />
    <glyph glyph-name="two" unicode="2" 
d="M446 163l-14 -163h-408v49l85 84q133 131 184 201t51 132q0 65 -41 112t-103 47q-59 0 -93 -33t-34 -68q0 -3 0.5 -8.5t0.5 -7.5q26 12 40 12q23 0 36.5 -15.5t13.5 -35.5q0 -25 -15 -41t-35 -16q-30 0 -49.5 24t-19.5 57q0 80 57 122.5t138 42.5q80 0 143.5 -45
t63.5 -124q0 -54 -38 -108t-144 -149l-170 -151h266q35 0 44.5 14.5t12.5 67.5h28z" />
    <glyph glyph-name="three" unicode="3" 
d="M413 511q0 -57 -43.5 -98t-101.5 -59v-2q181 -37 181 -175q0 -66 -63.5 -128t-179.5 -62q-90 0 -135.5 39t-45.5 84q0 26 18.5 45t43.5 19q19 0 36 -13t17 -32q0 -23 -9.5 -34.5t-21.5 -12t-21.5 -4.5t-9.5 -14q0 -24 44.5 -40.5t73.5 -16.5q80 0 115 45.5t35 143.5
q0 65 -42 102.5t-116 37.5q-17 0 -34 -3t-20 -3q-30 0 -30 16t24 16q8 0 24 -2.5t25 -2.5q51 0 89 27t44 77q5 53 5 63q0 55 -31 83t-85 28q-23 0 -49.5 -9.5t-26.5 -28.5q0 -7 6.5 -11t14 -6.5t14 -11t6.5 -22.5q0 -23 -12.5 -37t-34.5 -14q-54 0 -54 59q0 13 7.5 28.5
t24 33.5t52 30t83.5 12q71 0 127 -41.5t56 -105.5z" />
    <glyph glyph-name="four" unicode="4" 
d="M271 573l-233 -369h235v369h-2zM19 177v52l277 429h63v-454h89v78h23v-178h-23v73h-89v-154h72v-23h-232v23h74v154h-254z" />
    <glyph glyph-name="five" unicode="5" 
d="M149 645h156q38 0 56.5 3.5t23 8t7.5 15.5h19q0 -46 -19 -70q-23 -31 -80 -31h-185l-11 -194q58 25 137 25q78 0 145 -59.5t67 -139.5q0 -35 -13.5 -71t-41.5 -69.5t-78 -54.5t-114 -21q-83 0 -129.5 40t-46.5 86q0 28 16 44t43 16q21 0 36 -13.5t15 -37.5
q0 -18 -9.5 -28t-20.5 -12t-20.5 -6t-9.5 -12q0 -18 43 -37.5t72 -19.5q75 0 117 47.5t42 132.5q0 94 -50 138.5t-118 44.5q-49 0 -110 -26q2 47 9 150.5t7 121.5q0 29 45 29z" />
    <glyph glyph-name="six" unicode="6" 
d="M127 321q-2 -22 -2 -91q0 -117 23.5 -167.5t98.5 -50.5q35 0 59.5 13t37.5 32t20.5 50.5t9 57.5t1.5 64q0 168 -114 168q-71 0 -134 -76zM419 658v-23q-126 -18 -198.5 -85t-90.5 -194q39 34 70.5 49.5t75.5 15.5q83 0 142.5 -64t59.5 -150q0 -99 -68 -159.5t-165 -60.5
q-61 0 -106.5 27t-69.5 70.5t-35.5 88.5t-11.5 90q0 148 110 265.5t287 129.5z" />
    <glyph glyph-name="seven" unicode="7" 
d="M93 645h370v-19q-29 -51 -46 -87l-95 -205q-46 -99 -46 -162q0 -34 13 -66t13 -53q0 -28 -15.5 -47t-41.5 -19q-31 0 -47.5 18.5t-16.5 53.5q2 55 41 134l183 378h-282q-18 0 -28 -15.5t-24 -62.5h-24z" />
    <glyph glyph-name="eight" unicode="8" 
d="M250 349q13 0 27.5 4.5t36 17.5t35 45.5t13.5 79.5q0 139 -112 139t-112 -139q0 -47 13.5 -79.5t35 -45.5t36 -17.5t27.5 -4.5zM250 -13q-110 0 -169 53.5t-59 122.5t59.5 118t135.5 58v2q-22 2 -48.5 11.5t-55 27.5t-47.5 49t-19 70q0 67 58 113t145 46t145 -46t58 -113
q0 -39 -19 -70t-47.5 -49t-55 -27.5t-48.5 -11.5v-2q76 -9 135.5 -58t59.5 -118t-59 -122.5t-169 -53.5zM252 326q-55 0 -92.5 -37t-37.5 -118q0 -52 7 -80q8 -35 39 -58t84 -23q50 0 80.5 23t38.5 58q7 28 7 80q0 81 -37 118t-89 37z" />
    <glyph glyph-name="nine" unicode="9" 
d="M373 324q2 22 2 91q0 117 -23.5 167.5t-98.5 50.5q-35 0 -59.5 -13t-37.5 -32t-20.5 -50.5t-9 -57.5t-1.5 -64q0 -168 114 -168q71 0 134 76zM81 -13v23q126 18 198.5 85t90.5 194q-39 -34 -70.5 -49.5t-75.5 -15.5q-83 0 -142.5 64t-59.5 150q0 99 68 159.5t165 60.5
q61 0 106.5 -27t69.5 -70.5t35.5 -88.5t11.5 -90q0 -148 -110 -265.5t-287 -129.5z" />
    <glyph glyph-name="colon" unicode=":" horiz-adv-x="250" 
d="M123 294q-25 0 -41 16t-16 41q0 22 17.5 38.5t39.5 16.5q23 0 42 -16.5t19 -38.5q0 -25 -18 -41t-43 -16zM123 -11q-25 0 -41 16t-16 41q0 22 17.5 38.5t39.5 16.5q23 0 42 -16.5t19 -38.5q0 -25 -18 -41t-43 -16z" />
    <glyph glyph-name="semicolon" unicode=";" horiz-adv-x="250" 
d="M86 -161l-8 17q50 41 71 71t21 59q0 28 -12 28q-2 0 -3.5 -2t-4.5 -5.5t-6 -6.5q-13 -15 -38 -15q-54 0 -54 56q0 25 20 42.5t46 17.5q38 0 61 -25t23 -72t-34 -90t-82 -75zM123 294q-25 0 -41 16t-16 41q0 22 17.5 38.5t39.5 16.5q23 0 42 -16.5t19 -38.5q0 -25 -18 -41
t-43 -16z" />
    <glyph glyph-name="less" unicode="&#x3c;" horiz-adv-x="550" 
d="M507 35v-64l-464 242v60l464 242v-65l-392 -207z" />
    <glyph glyph-name="equal" unicode="=" horiz-adv-x="550" 
d="M507 316h-464v58h464v-58zM507 112h-464v58h464v-58z" />
    <glyph glyph-name="greater" unicode="&#x3e;" horiz-adv-x="550" 
d="M43 -29v64l392 208l-392 207v65l464 -242v-60z" />
    <glyph glyph-name="question" unicode="?" horiz-adv-x="444" 
d="M184 192h-23q-5 21 -5 65q0 69 29.5 114.5t121.5 124.5q22 19 22 53q0 35 -32 73t-94 38q-38 0 -71.5 -22t-33.5 -41q0 -9 14.5 -9.5t30 -8.5t18.5 -33q2 -20 -11.5 -33.5t-33.5 -13.5q-26 0 -40 17.5t-14 44.5q0 52 46.5 85.5t99.5 33.5q69 0 118.5 -47.5t49.5 -117.5
q0 -17 -2 -32.5t-8 -30t-10 -24.5t-16 -24t-16 -20t-21 -20t-21 -17.5t-24.5 -19.5t-23.5 -18q-33 -26 -41.5 -48t-8.5 -69zM182 -11q-25 0 -41 16.5t-16 41.5q0 23 17.5 39.5t39.5 16.5q23 0 42 -16.5t19 -39.5q0 -25 -18 -41.5t-43 -16.5z" />
    <glyph glyph-name="at" unicode="@" horiz-adv-x="778" 
d="M509 405q0 71 -56 71q-45 0 -86 -61.5t-41 -144.5q0 -84 63 -84q36 0 73.5 59.5t46.5 159.5zM525 459l10 41h69l-67 -261q-1 -9 -3 -23t8 -27.5t32 -13.5q62 0 100.5 67t38.5 141q0 120 -80 198.5t-218 78.5q-126 0 -208.5 -94.5t-82.5 -257.5q0 -114 84 -201.5
t216 -87.5q42 0 81 8t60.5 15.5t59.5 24.5l13 -25q-124 -57 -213 -57q-94 0 -170 32.5t-120 83.5t-67 107.5t-23 109.5q0 160 108 262.5t262 102.5q147 0 240 -85t93 -214q0 -54 -21.5 -108t-66 -93t-101.5 -39q-30 0 -52.5 16t-30.5 31.5t-7 23.5h-2q-14 -20 -46 -43
t-71 -27q-14 -1 -28 3t-32.5 14.5t-30.5 38.5t-12 69q0 50 26 105.5t76 96t108 40.5q43 0 66 -53h2z" />
    <glyph glyph-name="A" unicode="A" horiz-adv-x="667" 
d="M212 271h172l-82 271h-2zM218 0h-195v23h79l217 654h39l206 -654h70v-23h-252v23h81l-69 220h-191l-71 -220h86v-23z" />
    <glyph glyph-name="B" unicode="B" horiz-adv-x="611" 
d="M299 0h-258v23h77v622h-77v23h259q70 0 119.5 -15.5t73 -41.5t33.5 -51t10 -52q0 -68 -50 -107t-120 -48v-2q92 -10 142 -61.5t50 -105.5q0 -25 -6 -48.5t-23.5 -49t-45 -44t-75 -30.5t-109.5 -12zM215 339v-316h84q86 0 115 34.5t29 130.5q0 90 -42 120.5t-139 30.5h-47
zM215 645v-283h86q73 0 100 32.5t27 113.5q0 71 -31 104t-104 33h-78z" />
    <glyph glyph-name="C" unicode="C" horiz-adv-x="611" 
d="M535 660v-170h-23q-38 170 -178 170q-44 0 -80 -24.5t-53 -56.5q-41 -77 -41 -270q0 -57 3.5 -97.5t14 -80.5t30 -64t52.5 -39t79 -15q68 0 115.5 48t68.5 121h24v-182h-27l-28 41q-66 -56 -157 -56q-134 0 -211.5 101.5t-77.5 251.5q0 143 91.5 244t201.5 101
q72 0 147 -53l34 30h15z" />
    <glyph glyph-name="D" unicode="D" horiz-adv-x="667" 
d="M118 23v622h-77v23h268q142 0 227 -89t85 -239q0 -156 -104 -267q-71 -73 -210 -73h-266v23h77zM215 645v-622h98q54 0 92 19t53 38t29 48q24 55 24 230q0 51 -3 85.5t-15.5 76t-35 66.5t-65 42t-102.5 17h-75z" />
    <glyph glyph-name="E" unicode="E" horiz-adv-x="611" 
d="M551 0h-521v23h88v622h-88v23h507v-163h-22q-12 83 -53 111.5t-117 28.5h-130v-288q31 0 45.5 0.5t34 3.5t27.5 9.5t17.5 18.5t14 30t8.5 45h22v-253h-22q-4 76 -35.5 98t-111.5 23v-309h121q54 0 84 4.5t56 22t39 49.5t23 88h26z" />
    <glyph glyph-name="F" unicode="F" horiz-adv-x="556" 
d="M301 0h-264v23h81v622h-81v23h488l8 -177h-18q-13 51 -22.5 76t-28.5 45.5t-46.5 26.5t-75.5 6h-127v-291q40 0 59 2.5t39 12.5t28.5 31t12.5 58h23v-246h-22q-5 73 -35 95t-105 22v-306h86v-23z" />
    <glyph glyph-name="G" unicode="G" horiz-adv-x="667" 
d="M509 623l35 38h16v-171h-23q-15 77 -68.5 123.5t-134.5 46.5q-44 0 -80 -24t-53 -56q-41 -77 -41 -271q0 -57 3.5 -98t14 -81.5t30 -65.5t52.5 -40.5t79 -15.5q40 0 67.5 11t42.5 27.5t22 46t8.5 55t0.5 65.5h-97v24h271v-24h-61q-14 -228 -258 -228q-134 0 -211.5 101.5
t-77.5 251.5q0 143 91 244t202 101q104 0 170 -60z" />
    <glyph glyph-name="H" unicode="H" horiz-adv-x="722" 
d="M217 359h288v286h-78v23h253v-23h-78v-622h78v-23h-253v23h78v307h-288v-307h78v-23h-253v23h78v622h-78v23h253v-23h-78v-286z" />
    <glyph glyph-name="I" unicode="I" horiz-adv-x="333" 
d="M301 23v-23h-269v23h86v622h-86v23h269v-23h-86v-622h86z" />
    <glyph glyph-name="J" unicode="J" horiz-adv-x="389" 
d="M89 668h270v-23h-84v-575q0 -71 -50.5 -117t-118.5 -46q-38 0 -70.5 23t-32.5 64q0 28 14 44t40 16q22 0 37 -14.5t15 -36.5q0 -17 -9.5 -32.5t-9.5 -18.5q0 -16 32 -16q26 0 41 18.5t15 46.5v644h-89v23z" />
    <glyph glyph-name="K" unicode="K" horiz-adv-x="667" 
d="M497 645h-90v23h199v-23h-74l-231 -248l304 -374h47v-23h-254v23h80l-253 326q-3 6 8 17zM292 23v-23h-251v23h77v622h-77v23h251v-23h-77v-622h77z" />
    <glyph glyph-name="L" unicode="L" horiz-adv-x="556" 
d="M535 0h-499v23h82v622h-82v23h271v-23h-92v-622h179q55 0 88 51t45 113h19z" />
    <glyph glyph-name="M" unicode="M" horiz-adv-x="778" 
d="M118 645h-75v23h200l141 -492h2l147 492h199v-23h-76v-622h76v-23h-250v23h77v610h-2l-194 -633h-26l-187 633h-2v-610h75v-23h-180v23h75v622z" />
    <glyph glyph-name="N" unicode="N" horiz-adv-x="667" 
d="M116 23v622h-78v23h195l284 -484h2v461h-78v23h185v-23h-77v-660h-26l-375 640h-2v-602h77v-23h-185v23h78z" />
    <glyph glyph-name="O" unicode="O" horiz-adv-x="667" 
d="M333 -15q-83 0 -150 51t-102 130.5t-35 168.5t35 168t102 129.5t150 50.5t150 -50.5t102 -129.5t35 -168t-35 -168.5t-102 -130.5t-150 -51zM333 8q98 0 135.5 80t37.5 246t-37.5 246t-135.5 80t-135.5 -80t-37.5 -246t37.5 -246t135.5 -80z" />
    <glyph glyph-name="P" unicode="P" horiz-adv-x="556" 
d="M32 645v23h266q128 0 185.5 -51t57.5 -127q0 -33 -15.5 -64.5t-47.5 -60.5t-89.5 -46.5t-132.5 -17.5h-48v-278h89v-23h-272v23h86v622h-79zM208 645v-321h34q60 0 98.5 10.5t59 33.5t28 52t7.5 74q0 52 -11 82.5t-39 45.5t-59.5 19t-89.5 4h-28z" />
    <glyph glyph-name="Q" unicode="Q" horiz-adv-x="667" 
d="M564 -200v-21h-29q-129 0 -194 43.5t-65 158.5v11q-102 23 -166 122.5t-64 220.5q0 89 35 168t102 129.5t150 50.5t150 -50.5t102 -129.5t35 -168q0 -120 -64 -219t-166 -124v-50q0 -75 37.5 -108.5t136.5 -33.5zM333 7q98 0 135.5 80.5t37.5 246.5t-37.5 246t-135.5 80
t-135.5 -80t-37.5 -246t37.5 -246.5t135.5 -80.5z" />
    <glyph glyph-name="R" unicode="R" horiz-adv-x="667" 
d="M294 0h-253v23h77v622h-77v23h295q55 0 96.5 -11t64.5 -27t37.5 -37.5t18.5 -38t4 -32.5q0 -47 -18.5 -79.5t-52 -49t-65 -24t-73.5 -11.5v-2q48 -12 79.5 -26t58.5 -39.5t38 -66t8 -97.5q-6 -89 25 -103q26 -18 89 5v-25q-50 -17 -89 -19q-51 -1 -82.5 22.5t-41.5 61.5
q-2 8 -5 33t-6.5 64.5t-6.5 61.5q-2 19 -4 31t-11 31t-22.5 30t-40 20t-62.5 9h-60v-326h79v-23zM215 645v-273h54q48 0 75.5 4t54 17.5t38 44t11.5 80.5q0 71 -32 99t-106 28h-95z" />
    <glyph glyph-name="S" unicode="S" 
d="M96 41l-43 -44h-14v172h19q21 -71 72 -116t121 -45q67 0 117.5 40.5t50.5 104.5q0 46 -17.5 70.5t-73.5 46.5q-12 5 -63.5 22.5t-94 33t-49.5 19.5q-81 50 -81 153q0 60 41 114q55 71 155 71q31 0 72 -15t59 -29l38 29h14v-156h-20q-17 66 -61.5 107t-108.5 41
q-54 0 -98 -34t-44 -88q0 -45 39 -71t94.5 -40t111.5 -33t95 -65.5t39 -121.5q0 -102 -59 -162t-158 -60q-97 0 -153 56z" />
    <glyph glyph-name="T" unicode="T" horiz-adv-x="556" 
d="M409 0h-263v23h83v622h-68q-33 0 -54.5 -10.5t-34.5 -36t-19 -47.5t-14 -65q-1 -7 -2 -11h-26l11 193h515l7 -193h-26q-9 80 -42.5 125t-105.5 45h-44v-622h83v-23z" />
    <glyph glyph-name="U" unicode="U" horiz-adv-x="667" 
d="M37 668h252v-23h-78v-496q0 -13 5.5 -31t18.5 -42.5t43 -41t72 -16.5q44 0 75 12.5t49 31.5t28.5 50.5t13.5 62t3 73.5v397h-77v23h181v-23h-77v-428q0 -118 -53.5 -175t-166.5 -57q-97 0 -154.5 49.5t-57.5 133.5v477h-77v23z" />
    <glyph glyph-name="V" unicode="V" horiz-adv-x="667" 
d="M25 645v23h253v-23h-78l168 -499h2l161 499h-91v23h190v-23h-71l-212 -660h-25l-224 660h-73z" />
    <glyph glyph-name="W" unicode="W" horiz-adv-x="889" 
d="M339 132l85 233l-95 280h-152l160 -513h2zM548 645h-129l59 -185h2zM82 645h-61v23h604v-23h-51l-77 -211l101 -304h2l166 515h-78v23h180v-23h-75l-213 -660h-30l-111 338h-2l-121 -338h-28z" />
    <glyph glyph-name="X" unicode="X" horiz-adv-x="667" 
d="M227 23v-23h-206v23h84l176 293l-190 329h-70v23h258v-23h-74l141 -235l142 235h-82v23h198v-23h-80l-159 -264l209 -358h67v-23h-259v23h80l-162 269l-160 -269h87z" />
    <glyph glyph-name="Y" unicode="Y" horiz-adv-x="667" 
d="M372 345l160 300h-99v23h206v-23h-80l-174 -335v-287h89v-23h-274v23h88v287l-193 335h-74v23h270v-23h-88z" />
    <glyph glyph-name="Z" unicode="Z" horiz-adv-x="556" 
d="M512 636l-387 -613h185q86 0 123.5 34.5t53.5 130.5h27l-11 -188h-487v41l386 604h-185q-70 0 -95.5 -26t-52.5 -113h-23l10 162h456v-32z" />
    <glyph glyph-name="bracketleft" unicode="[" horiz-adv-x="278" 
d="M258 -179v-23h-209v870h209v-23h-137v-824h137z" />
    <glyph glyph-name="backslash" unicode="\" horiz-adv-x="278" 
d="M-4 683h61l225 -698h-62z" />
    <glyph glyph-name="bracketright" unicode="]" horiz-adv-x="278" 
d="M20 -202v23h137v824h-137v23h209v-870h-209z" />
    <glyph glyph-name="asciicircum" unicode="^" horiz-adv-x="550" 
d="M128 265h-62l183 380h52l183 -380h-62l-147 307z" />
    <glyph glyph-name="underscore" unicode="_" 
d="M500 -125h-500v50h500v-50z" />
    <glyph glyph-name="grave" unicode="`" horiz-adv-x="278" 
d="M213 438h-35l-133 81q-19 12 -27 17.5t-16 15.5t-8 20q0 15 10 24.5t25 9.5q12 0 35 -23z" />
    <glyph glyph-name="a" unicode="a" horiz-adv-x="444" 
d="M419 69h17q-2 -35 -26.5 -58.5t-58.5 -23.5q-53 0 -65 61q-49 -61 -135 -61q-117 0 -117 98q2 69 68.5 107t182.5 38v95q0 32 -21 46.5t-51 14.5q-28 0 -60.5 -8.5t-32.5 -27.5q0 -1 15 -13.5t15 -32.5q0 -19 -11 -30.5t-30 -11.5q-20 0 -31 13t-11 35q0 34 40 65t120 31
q48 0 78 -8.5t41.5 -26.5t14 -30t2.5 -33v-238q0 -18 1 -26t5.5 -14t14.5 -6q22 0 35 45zM285 116v93q-176 -3 -176 -104q0 -36 21 -57.5t56 -21.5q44 0 77 29q22 22 22 61z" />
    <glyph glyph-name="b" unicode="b" 
d="M159 698v-362h2q15 28 47 49t66 21q95 0 144 -65t49 -144q0 -92 -55.5 -151t-136.5 -59q-36 0 -67.5 21t-50.5 53h-2v-69q-121 8 -131 8v24h57v642h-57v23h23q66 0 112 9zM161 288q-5 -45 -5 -137q0 -44 14 -75t35 -44.5t38 -18.5t32 -5q24 0 42 8t28.5 25t17.5 33
t9.5 42t3 42t0.5 43q0 37 -2.5 62t-11.5 57t-31 49t-56 17q-45 0 -78.5 -35t-35.5 -63z" />
    <glyph glyph-name="c" unicode="c" horiz-adv-x="444" 
d="M381 124h21q-20 -62 -57.5 -98t-109.5 -39q-55 0 -96.5 20.5t-63 53t-32 64t-10.5 60.5q0 51 15.5 91t38.5 64t51.5 39.5t52 21t42.5 5.5q58 0 107.5 -27t49.5 -80q0 -21 -12.5 -37t-32.5 -16q-21 0 -34 13t-13 34q0 17 8 28.5t16 17t8 9.5q0 18 -30.5 28t-54.5 10
q-69 0 -95 -48.5t-26 -152.5q0 -71 21 -120q24 -53 98 -57q44 -2 82 30t56 86z" />
    <glyph glyph-name="d" unicode="d" 
d="M338 281q-28 105 -118 105q-27 0 -46 -12t-28.5 -28t-14.5 -42.5t-6 -44.5t-1 -46q0 -118 20.5 -161.5t80.5 -43.5q37 0 69 27q31 27 41 55.5t10 102.5q0 65 -7 88zM419 23h55v-23q-82 0 -132 -8v67h-2q-42 -72 -131 -72q-75 0 -125.5 62t-50.5 149q0 88 50 148t136 60
q31 0 65.5 -17.5t54.5 -58.5h2v336h-67v23h33q66 0 112 9v-675z" />
    <glyph glyph-name="e" unicode="e" horiz-adv-x="444" 
d="M387 124h22q-15 -68 -61.5 -102.5t-114.5 -34.5q-79 0 -139.5 56t-60.5 137q0 92 55 159t142 67q78 0 128.5 -49t51.5 -129h-283v-41q0 -42 4 -70.5t16 -55.5t37.5 -40t64.5 -13q44 0 86 34t52 82zM128 257h191v34q0 95 -92 95q-21 0 -38.5 -8.5t-28 -20.5t-16 -21
t-6.5 -13q-8 -25 -10 -66z" />
    <glyph glyph-name="f" unicode="f" horiz-adv-x="278" 
d="M161 396h81v-23h-81v-350h81v-23h-236v23h77v350h-77v23h77v49q0 123 45.5 183t121.5 60q34 0 59 -16t25 -49q0 -14 -11.5 -23.5t-25.5 -9.5q-20 0 -30.5 12.5t-10.5 33.5q0 5 4 11.5t4 13.5q0 6 -24 6q-36 0 -57.5 -42t-21.5 -116v-113z" />
    <glyph glyph-name="g" unicode="g" horiz-adv-x="444" 
d="M96 63h107q102 0 136.5 -7.5t58.5 -34.5q28 -32 28 -81q0 -85 -60.5 -126t-142.5 -41q-98 0 -145 32.5t-47 71.5q0 80 117 110v3q-21 3 -31.5 5t-28 8t-26.5 14t-16 23t-7 36q0 61 100 77v2q-75 37 -75 113q0 53 37.5 95.5t106.5 42.5q86 0 125 -58q24 56 64 56
q39 0 39 -34q0 -16 -8.5 -27t-23.5 -11q-10 0 -21 15t-13 15q-7 0 -14.5 -8t-7.5 -16q0 -3 7 -26t7 -39q0 -33 -12.5 -58.5t-30.5 -39t-33 -20t-25 -7.5q-15 -2 -41 -5t-40.5 -5t-34.5 -5t-31.5 -7t-22.5 -9.5t-16 -14t-5 -18.5q0 -8 7.5 -14.5t18.5 -6.5zM95 -119
q0 -44 36 -64.5t83 -20.5q48 0 83.5 10.5t52.5 24t27 31t12 27.5t2 18q0 48 -27.5 68t-117.5 20q-41 0 -72.5 -12.5t-47.5 -32t-23.5 -37t-7.5 -32.5zM216 386q-39 0 -56.5 -25.5t-17.5 -93.5q0 -105 64 -105q26 0 42.5 8.5t24 26t9.5 34.5t2 45q0 110 -68 110z" />
    <glyph glyph-name="h" unicode="h" 
d="M79 23v643h-55v23h21q66 0 112 9v-398h2q47 106 140 106q18 0 34.5 -3t37.5 -12t34 -31t13 -54v-283h54v-23h-184v23h52v270q0 51 -15 67.5t-48 16.5q-49 0 -84.5 -54t-35.5 -114v-186h54v-23h-187v23h55z" />
    <glyph glyph-name="i" unicode="i" horiz-adv-x="278" 
d="M236 0h-204v23h67v350h-67v23h33q72 0 112 10v-383h59v-23zM89 612q0 19 14.5 33.5t33.5 14.5t35 -14.5t16 -33.5q0 -23 -14.5 -38t-36.5 -15q-21 0 -34.5 15.5t-13.5 37.5z" />
    <glyph glyph-name="j" unicode="j" horiz-adv-x="278" 
d="M190 406v-404q0 -57 -17 -107.5t-54.5 -86t-88.5 -35.5q-25 0 -45.5 14.5t-20.5 39.5q0 34 46 34q11 0 19 -8.5t10 -16.5l2 -9q2 -9 8.5 -16t15.5 -7q47 0 47 116v453h-67v23h33q72 0 112 10zM102 612q0 19 14.5 33.5t33.5 14.5t35 -14.5t16 -33.5q0 -23 -14.5 -38
t-36.5 -15q-21 0 -34.5 15.5t-13.5 37.5z" />
    <glyph glyph-name="k" unicode="k" 
d="M331 373h-59v23h164v-23h-61l-138 -120l190 -230h42v-23h-190v23h50l-167 203l169 144v3zM221 0h-190v23h52v643h-52v23h18q66 0 112 9v-675h60v-23z" />
    <glyph glyph-name="l" unicode="l" horiz-adv-x="278" 
d="M252 0h-232v23h77v643h-77v23h43q66 0 112 9v-675h77v-23z" />
    <glyph glyph-name="m" unicode="m" horiz-adv-x="722" 
d="M649 23h50v-23h-184v23h56v284q0 34 -15.5 52t-40.5 18q-44 0 -78 -49t-34 -95v-210h53v-23h-184v23h53v284q0 34 -15.5 52t-40.5 18q-45 0 -78.5 -52.5t-33.5 -112.5v-189h56v-23h-184v23h50v350h-50v23h16q72 0 112 10v-95h2q21 34 35 51t39.5 30.5t60.5 13.5
q44 0 73.5 -25t33.5 -69h2q55 94 138 94q17 0 33 -4t34.5 -15.5t29.5 -36.5t11 -61v-266z" />
    <glyph glyph-name="n" unicode="n" 
d="M84 23v350h-55v23h21q38 0 56 2q26 1 56 8v-106h2q47 106 140 106q18 0 34.5 -3t37.5 -12t34 -31t13 -54v-283h54v-23h-184v23h52v270q0 51 -15 67.5t-48 16.5q-49 0 -84.5 -54t-35.5 -114v-186h54v-23h-187v23h55z" />
    <glyph glyph-name="o" unicode="o" horiz-adv-x="444" 
d="M222 406q80 0 136.5 -60t56.5 -149q0 -90 -56.5 -150t-136.5 -60t-136.5 60t-56.5 150q0 89 56.5 149t136.5 60zM222 386q-29 0 -49.5 -12.5t-30.5 -29t-15 -46t-6 -49t-1 -52.5q0 -34 1 -53t6 -49t15 -46.5t30.5 -29t49.5 -12.5t49.5 12.5t30.5 29t15 46.5t6 49t1 53
q0 33 -1 52.5t-6 49t-15 46t-30.5 29t-49.5 12.5z" />
    <glyph glyph-name="p" unicode="p" 
d="M81 -203v576h-59v23h21q38 0 57 2q27 1 57 8v-78l2 1q19 36 51.5 56.5t70.5 20.5q31 0 62 -12.5t59.5 -37t46.5 -68.5t18 -100q0 -80 -51 -140.5t-139 -60.5q-77 0 -116 67h-2v-257h68v-23h-205v23h59zM163 270q-4 -26 -4 -92q0 -48 4 -69t16 -44q12 -24 40 -41t51 -17
q25 0 39 3.5t32 19.5t26.5 56t8.5 105q0 107 -23.5 149t-79.5 42q-10 0 -23.5 -4.5t-32.5 -15t-34 -34.5t-20 -58z" />
    <glyph glyph-name="q" unicode="q" 
d="M417 -203h58v-23h-202v23h66v256h-2q-37 -66 -126 -66q-74 0 -126 60t-52 143q0 57 18.5 101t47 67.5t58 35.5t56.5 12q42 0 77 -22t50 -60h2v82q17 -5 64 -9q23 -1 55 -1h14v-23h-58v-576zM341 205q0 57 -7 86t-34 57q-32 34 -80 34q-23 0 -40 -9t-27 -27.5t-16.5 -36
t-9 -44t-3 -42t-0.5 -39.5q0 -27 1.5 -47t7 -45.5t15.5 -42t29 -28t46 -11.5q13 0 28.5 4t37.5 16t36.5 42t14.5 74q0 10 0.5 29.5t0.5 29.5z" />
    <glyph glyph-name="r" unicode="r" horiz-adv-x="333" 
d="M164 406v-94h2q15 38 45 66t68 28q27 0 44 -14.5t17 -41.5q0 -17 -14.5 -27t-32.5 -10q-14 0 -26.5 12.5t-12.5 27.5q0 5 2 12t2 9q0 6 -9 6q-2 0 -10 -5t-22.5 -19.5t-24.5 -34.5q-25 -52 -25 -108v-190h77v-23h-223v23h68v350h-68v23h31q72 0 112 10z" />
    <glyph glyph-name="s" unicode="s" horiz-adv-x="389" 
d="M289 396h17v-112h-22q-25 98 -109 102q-28 1 -48.5 -8.5t-29.5 -23.5t-12.5 -24t-3.5 -17q0 -17 8 -26t43.5 -21.5t109.5 -27.5q57 -12 80.5 -39t23.5 -75q0 -63 -41.5 -100t-102.5 -37q-71 0 -115 49l-22 -36h-22v132h23q15 -56 51.5 -90.5t90.5 -34.5q36 0 66.5 24.5
t30.5 61.5q0 27 -33 43.5t-105 34.5q-69 17 -89 31q-35 25 -35 81q0 18 6 37.5t20 39.5t42.5 33t66.5 13q47 0 93 -37z" />
    <glyph glyph-name="t" unicode="t" horiz-adv-x="278" 
d="M18 373v23h59v123q51 0 76 4v-127h88v-23h-88v-306q0 -13 1 -20.5t10.5 -16t26.5 -8.5q12 0 23 6.5t16.5 12t16.5 18.5l16 -11q-14 -27 -45 -44t-63 -17q-49 0 -64.5 22t-15.5 65v299h-57z" />
    <glyph glyph-name="u" unicode="u" 
d="M470 23v-23h-21q-46 0 -109 -7v81h-2q-20 -41 -58 -64.5t-87 -23.5q-118 0 -118 97v290h-54v23h20q72 0 112 10v-314q0 -74 61 -74q52 0 86.5 38t34.5 93v224h-57v23h23q72 0 112 10v-383h57z" />
    <glyph glyph-name="v" unicode="v" horiz-adv-x="444" 
d="M67 373h-48v23h180v-23h-53l97 -287h2l101 287h-61v23h136v-23h-48l-138 -386h-34z" />
    <glyph glyph-name="w" unicode="w" horiz-adv-x="611" 
d="M64 373h-57v23h192v-23h-59l81 -266h2l90 289h33l94 -289h2l78 266h-69v23h149v-23h-55l-113 -386h-28l-100 296h-2l-91 -296h-32z" />
    <glyph glyph-name="x" unicode="x" horiz-adv-x="444" 
d="M157 23v-23h-145v23h60l114 164l-121 186h-53v23h187v-23h-54l82 -125l86 125h-56v23h143v-23h-57l-102 -145l136 -205h49v-23h-185v23h52l-93 143l-97 -143h54z" />
    <glyph glyph-name="y" unicode="y" horiz-adv-x="444" 
d="M424 373h-50l-160 -440q-31 -84 -57.5 -122t-70.5 -38q-17 0 -32.5 13.5t-15.5 30.5q0 20 12 31.5t29 11.5t27.5 -9t15.5 -18.5t9 -9.5q10 0 18 14.5t20 46.5q22 53 43 116l-153 373h-47v23h192v-23h-64l111 -269l95 269h-64v23h142v-23z" />
    <glyph glyph-name="z" unicode="z" horiz-adv-x="389" 
d="M73 266h-23v130h300v-25l-232 -348h126q35 0 53.5 30.5t31.5 91.5h19v-145h-323v22l234 351h-89q-44 0 -65.5 -19t-31.5 -88z" />
    <glyph glyph-name="braceleft" unicode="{" horiz-adv-x="333" 
d="M273 -197v-12q-71 0 -108 31.5t-37 123.5v161q0 58 -12.5 85t-56.5 42q44 14 56.5 41t12.5 85v161q0 92 37 123.5t108 31.5v-12q-44 -12 -58.5 -43t-14.5 -94v-151q0 -61 -19 -94t-69 -47v-2q50 -14 69 -47.5t19 -94.5v-151q0 -62 14.5 -93t58.5 -44z" />
    <glyph glyph-name="bar" unicode="|" horiz-adv-x="222" 
d="M82 750h58v-1000h-58v1000z" />
    <glyph glyph-name="braceright" unicode="}" horiz-adv-x="333" 
d="M60 664v12q71 0 108 -31.5t37 -123.5v-161q0 -58 12.5 -85t56.5 -41q-44 -15 -56.5 -42t-12.5 -85v-161q0 -92 -37 -123.5t-108 -31.5v12q44 13 58.5 44t14.5 93v151q0 61 19 94.5t69 47.5v2q-50 14 -69 47t-19 94v151q0 63 -14.5 94t-58.5 43z" />
    <glyph glyph-name="asciitilde" unicode="~" horiz-adv-x="550" 
d="M470 312l36 -44q-28 -42 -50 -61q-34 -29 -75 -29t-102 35q-64 36 -115 36q-52 0 -84 -75l-36 44q44 89 125 89q41 0 111 -33q81 -37 102 -37q19 0 36 12.5t27 25.5t25 37z" />
    <glyph glyph-name="uni00A0" unicode="&#xa0;" horiz-adv-x="250" 
 />
    <glyph glyph-name="exclamdown" unicode="&#xa1;" horiz-adv-x="278" 
d="M128 260h22q3 -92 14.5 -189.5t21.5 -158t10 -66.5q0 -28 -15 -48t-42 -20t-42 20t-15 48q0 6 10 66.5t21.5 158t14.5 189.5zM137 357q-25 0 -41 16.5t-16 41.5q0 23 17.5 39.5t39.5 16.5q23 0 42 -16.5t19 -39.5q0 -25 -18 -41.5t-43 -16.5z" />
    <glyph glyph-name="cent" unicode="&#xa2;" 
d="M185 47l117 333q-15 3 -28 3q-69 0 -95 -48t-26 -151q0 -42 7.5 -75.5t13.5 -45t11 -16.5zM410 122h21q-20 -61 -57.5 -97t-109.5 -38q-35 0 -64 9l-48 -136h-32l51 146q-56 27 -82.5 78.5t-26.5 99.5q0 50 15.5 90t38.5 63.5t51.5 39t52 21t42.5 5.5q26 0 47 -5l47 132
h32l-49 -140q80 -28 80 -93q0 -21 -12.5 -37t-32.5 -16q-21 0 -34 12.5t-13 33.5q0 17 8 28.5t16 17t8 9.5q0 17 -27 25l-122 -346q30 -16 62 -17q43 -2 81.5 30t56.5 85z" />
    <glyph glyph-name="sterling" unicode="&#xa3;" 
d="M444 195h21q0 -117 -35.5 -163.5t-102.5 -46.5q-50 0 -111 65q-30 -35 -52.5 -49.5t-60.5 -14.5q-34 0 -54.5 17t-25 33t-4.5 31q0 40 25 61t64 21q13 0 27 -3t23.5 -6.5t25.5 -10t24 -9.5q5 32 5 40q0 20 -4.5 42t-9.5 37t-14 40.5t-13 37.5h-111v27h101q-29 68 -29 129
q0 25 9 53.5t28 59t55.5 50.5t85.5 20q51 0 94 -32t43 -89q0 -23 -14.5 -40.5t-36.5 -17.5q-24 0 -39 12.5t-15 37.5q0 27 28 43q5 3 12.5 3.5t11 2t3.5 6.5q0 23 -29.5 36.5t-54.5 13.5q-46 0 -74.5 -31.5t-28.5 -79.5q0 -18 25.5 -93t27.5 -84h116v-27h-110q4 -28 4 -64
q0 -77 -29 -150q73 -23 109 -23q52 0 71 29t19 86zM194 74q-41 46 -86 46q-24 0 -36.5 -16.5t-12.5 -41.5q0 -24 14 -38t37 -14q26 0 49 18.5t35 45.5z" />
    <glyph glyph-name="currency" unicode="&#xa4;" 
d="M-18 94l98 98q-45 56 -45 129q0 71 44 130l-97 97l41 41l97 -97q57 44 130 44t130 -44l97 97l41 -41l-97 -97q44 -59 44 -130q0 -73 -44 -130l97 -97l-41 -41l-98 98q-56 -45 -129 -45q-75 0 -129 45l-98 -98zM93 321q0 -65 46 -111t111 -46t111 46t46 111t-46 111
t-111 46t-111 -46t-46 -111z" />
    <glyph glyph-name="yen" unicode="&#xa5;" 
d="M395 0h-275v24h98v178h-178v24h178v85l-10 19h-168v24h155l-147 267h-69v24h240v-24h-82l147 -278l141 278h-89v24h186v-24h-69l-136 -267h143v-24h-155l-9 -19v-85h164v-24h-164v-178h99v-24z" />
    <glyph glyph-name="brokenbar" unicode="&#xa6;" horiz-adv-x="222" 
d="M82 675h58v-350h-58v350zM82 175h58v-350h-58v350z" />
    <glyph glyph-name="section" unicode="&#xa7;" 
d="M250 -158q-54 0 -99.5 27t-45.5 78q0 21 15.5 36.5t36.5 17.5q20 2 35.5 -13t15.5 -36q0 -15 -17 -31.5t-17 -21.5q0 -16 27 -26.5t46 -10.5q36 0 60 20.5t24 60.5q0 27 -19 54t-48 48t-62.5 47.5t-62.5 52t-48 61.5t-19 75q0 62 37 94.5t93 32.5l2 2q-44 35 -68 68.5
t-24 80.5q0 59 41.5 91.5t100.5 32.5q48 0 86.5 -28t38.5 -76q0 -21 -14.5 -36t-35.5 -15t-34.5 12.5t-13.5 33.5q0 18 17 34.5t17 21.5q0 15 -23 24t-40 9q-34 0 -59.5 -21t-25.5 -55q0 -29 27 -60t65.5 -61t76.5 -62t65 -73.5t27 -84.5q0 -60 -34 -93.5t-94 -33.5v-2
q34 -33 47.5 -47.5t27 -43t13.5 -61.5q0 -52 -40 -87.5t-98 -35.5zM236 169q34 -28 71 -28q31 0 49.5 22.5t18.5 54.5q0 39 -77 107q-65 61 -111 61q-25 0 -45 -22t-20 -48q0 -12 3.5 -24.5t12.5 -25.5t15 -21.5t21.5 -23t20 -18.5t23.5 -19z" />
    <glyph glyph-name="dieresis" unicode="&#xa8;" horiz-adv-x="278" 
d="M41 456q-19 0 -32.5 13t-13.5 33t13 34t33 14q19 0 33 -14.5t14 -33.5t-14 -32.5t-33 -13.5zM236 456q-20 0 -33 13t-13 33t13 34t33 14q19 0 33 -14.5t14 -33.5t-14 -32.5t-33 -13.5z" />
    <glyph glyph-name="copyright" unicode="&#xa9;" horiz-adv-x="800" 
d="M400 -15q-148 0 -250 101.5t-102 245.5q0 146 102 248.5t250 102.5q149 0 250.5 -102.5t101.5 -248.5q0 -144 -101.5 -245.5t-250.5 -101.5zM400 24q125 0 210 91.5t85 216.5q0 126 -85 219t-210 93t-210 -93t-85 -219q0 -124 85.5 -216t209.5 -92zM554 247h15l-16 -70
q0 -11 -26 -19q-49 -17 -106 -17q-94 0 -156 49.5t-62 151.5q0 71 60 133.5t163 62.5q19 0 36.5 -2.5t25 -4t25.5 -7.5t19 -6q21 -7 21 -21v-71h-15q-4 38 -31 65t-84 27q-71 0 -105 -46.5t-35 -125.5q-1 -85 35 -135t113 -50q88 0 123 86z" />
    <glyph glyph-name="ordfeminine" unicode="&#xaa;" horiz-adv-x="280" 
d="M237 594v-138q0 -15 2 -20.5t12 -5.5q15 0 23 26h11q-2 -22 -19 -37t-46 -15q-33 0 -43 40q-15 -20 -42 -30t-51 -10q-35 0 -57.5 15.5t-22.5 45.5q1 40 48.5 64.5t119.5 24.5v49q0 35 -42 35q-17 0 -36.5 -5t-19.5 -15q0 -1 10 -8.5t10 -18.5q0 -10 -9.5 -17t-22.5 -7
q-16 0 -26.5 8t-10.5 19q0 20 28.5 41t80.5 23q36 -1 59 -7.5t31.5 -18t10.5 -19t2 -19.5zM172 483v54q-105 -3 -105 -60q0 -46 45 -46q29 0 50 17q10 7 10 35z" />
    <glyph glyph-name="guillemotleft" unicode="&#xab;" 
d="M157 216q29 -29 65.5 -82t36.5 -61q0 -9 -6 -9q-7 0 -29 21t-56 53.5t-57 51.5q-5 4 -10.5 8.5t-8 6t-5 4t-3.5 4t-1 3.5q0 3 2 5t10.5 8.5t15.5 12.5q23 19 57 51.5t56 53.5t29 21q6 0 6 -9q0 -8 -36.5 -61t-65.5 -82zM314 216q29 -29 65.5 -82t36.5 -61q0 -9 -6 -9
q-7 0 -29 21t-56 53.5t-57 51.5q-5 4 -10.5 8.5t-8 6t-5 4t-3.5 4t-1 3.5q0 3 2 5t10.5 8.5t15.5 12.5q23 19 57 51.5t56 53.5t29 21q6 0 6 -9q0 -8 -36.5 -61t-65.5 -82z" />
    <glyph glyph-name="logicalnot" unicode="&#xac;" horiz-adv-x="550" 
d="M449 91v225h-406v58h464v-283h-58z" />
    <glyph glyph-name="uni00AD" unicode="&#xad;" horiz-adv-x="333" 
d="M289 183h-245v67h245v-67z" />
    <glyph glyph-name="registered" unicode="&#xae;" horiz-adv-x="800" 
d="M238 511v15h174q50 0 85 -24t35 -70q0 -38 -23 -65t-60 -41l59 -80q50 -69 80 -86v-9h-60q-15 0 -29.5 16t-45 65.5t-52.5 81.5h-53v-97q0 -35 5.5 -40.5t44.5 -9.5v-16h-160v16q38 4 43.5 9.5t5.5 40.5v243q0 35 -5.5 41t-43.5 10zM348 506v-171h47q37 0 56 25t19 69
q0 77 -78 77h-44zM400 -15q-148 0 -250 101.5t-102 245.5q0 146 102 248.5t250 102.5q149 0 250.5 -102.5t101.5 -248.5q0 -144 -101.5 -245.5t-250.5 -101.5zM400 24q125 0 210 91.5t85 216.5q0 126 -85 219t-210 93t-210 -93t-85 -219q0 -124 85.5 -216t209.5 -92z" />
    <glyph glyph-name="macron" unicode="&#xaf;" horiz-adv-x="278" 
d="M6 478v50h266v-50h-266z" />
    <glyph glyph-name="degree" unicode="&#xb0;" horiz-adv-x="400" 
d="M200 404q44 0 75 33t31 78t-31 78t-75 33t-75 -33t-31 -78t31 -78t75 -33zM200 372q-60 0 -101.5 41.5t-41.5 101.5t41.5 101.5t101.5 41.5t101.5 -41.5t41.5 -101.5t-41.5 -101.5t-101.5 -41.5z" />
    <glyph glyph-name="plusminus" unicode="&#xb1;" horiz-adv-x="550" 
d="M507 0h-464v58h464v-58zM246 324v162h58v-162h203v-58h-203v-162h-58v162h-203v58h203z" />
    <glyph glyph-name="twosuperior" unicode="&#xb2;" horiz-adv-x="300" 
d="M285 371l-9 -108h-270v35l55 50q85 79 114 116.5t29 77.5q0 37 -21.5 65t-57.5 28q-35 0 -58.5 -21t-23.5 -42v-9q18 7 26 7q15 0 24 -9.5t9 -21.5q0 -15 -12 -24.5t-26 -9.5q-20 0 -35 16t-15 38q0 48 39.5 73.5t92.5 25.5q56 0 100.5 -26.5t44.5 -79.5q0 -32 -25.5 -63
t-94.5 -87l-96 -77v-2h150q23 0 29 8.5t8 39.5h23z" />
    <glyph glyph-name="threesuperior" unicode="&#xb3;" horiz-adv-x="300" 
d="M267 570q0 -34 -27 -59t-65 -34v-2q115 -20 115 -105q0 -39 -45.5 -77t-122.5 -38q-59 0 -90.5 25t-31.5 55q0 15 14 26.5t31 11.5q13 0 26.5 -8t13.5 -20q0 -14 -6.5 -20.5t-14 -6.5t-14 -2.5t-6.5 -8.5q0 -15 26.5 -24t45.5 -9q48 0 67.5 24t19.5 83q0 78 -92 78
q-11 0 -22.5 -4t-12.5 -4q-7 0 -11.5 1t-9 7t-4.5 17q0 14 21 14q5 0 15.5 -4t16.5 -4q79 0 79 89q0 37 -16.5 52.5t-48.5 15.5q-15 0 -30 -5.5t-15 -16.5q0 -5 13.5 -11t13.5 -20q0 -13 -10.5 -22t-24.5 -9q-41 0 -41 40q0 11 9 24.5t36.5 26t68.5 12.5q47 0 88 -25t41 -63
z" />
    <glyph glyph-name="acute" unicode="&#xb4;" horiz-adv-x="278" 
d="M65 438l149 145q23 23 35 23q15 0 25 -9.5t10 -24.5q0 -10 -8 -20t-16 -15.5t-27 -17.5l-133 -81h-35z" />
    <glyph glyph-name="mu" unicode="&#xb5;" 
d="M470 24v-24h-21q-46 0 -109 -7v81h-2q-20 -41 -58 -64.5t-87 -23.5q-42 0 -64 18q-7 -19 -5 -52q1 -16 18.5 -56.5t17.5 -62.5q0 -26 -13 -43t-39 -17q-48 0 -48 79q0 28 7.5 100t7.5 119v302h-54v23h20q72 0 112 10v-314q0 -74 61 -74q52 0 86.5 38t34.5 93v224h-57v23
h23q72 0 112 10v-382h57z" />
    <glyph glyph-name="paragraph" unicode="&#xb6;" horiz-adv-x="600" 
d="M506 668v-23h-82v-843h82v-23h-341v23h82v447q-100 0 -155 59t-55 158q0 202 221 202h248zM247 272v373q-66 0 -89.5 -41.5t-23.5 -139.5q0 -104 23.5 -148t89.5 -44zM305 645v-843h61v843h-61z" />
    <glyph glyph-name="periodcentered" unicode="&#xb7;" horiz-adv-x="250" 
d="M123 186q-25 0 -41 16t-16 41q0 22 17.5 38.5t39.5 16.5q23 0 42 -16.5t19 -38.5q0 -25 -18 -41t-43 -16z" />
    <glyph glyph-name="cedilla" unicode="&#xb8;" horiz-adv-x="278" 
d="M152 0l-30 -66q24 6 38 6q24 0 49 -17.5t25 -51.5q0 -45 -36 -64.5t-85 -19.5q-47 0 -82 15l14 30q43 -12 58 -12q24 0 42.5 10t18.5 32q0 19 -14 29t-29 10q-17 -2 -30 -5l-18 5l44 99h35z" />
    <glyph glyph-name="onesuperior" unicode="&#xb9;" horiz-adv-x="300" 
d="M259 263h-213v20h71v323q0 16 -7 20t-37 4h-31v20h31q27 0 119 8v-375h67v-20z" />
    <glyph glyph-name="ordmasculine" unicode="&#xba;" horiz-adv-x="280" 
d="M140 658q55 0 95 -37t40 -89q0 -54 -40 -91t-95 -37t-95 37t-40 91q0 52 40 89t95 37zM140 641q-22 0 -35 -9t-18.5 -28.5t-6.5 -33t-1 -38.5q0 -26 1 -40t6.5 -33.5t18.5 -28.5t35 -9t35 9t18.5 28.5t6.5 33.5t1 40q0 25 -1 38.5t-6.5 33t-18.5 28.5t-35 9z" />
    <glyph glyph-name="guillemotright" unicode="&#xbb;" 
d="M343 216q-29 29 -65.5 82t-36.5 61q0 9 6 9q7 0 29 -21t56 -53.5t57 -51.5q5 -4 10.5 -8.5t8 -6t5 -4t3.5 -4t1 -3.5q0 -3 -2 -5t-10.5 -8.5t-15.5 -12.5q-23 -19 -57 -51.5t-56 -53.5t-29 -21q-6 0 -6 9q0 8 36.5 61t65.5 82zM186 216q-29 29 -65.5 82t-36.5 61q0 9 6 9
q7 0 29 -21t56 -53.5t57 -51.5q5 -4 10.5 -8.5t8 -6t5 -4t3.5 -4t1 -3.5q0 -3 -2 -5t-10.5 -8.5t-15.5 -12.5q-23 -19 -57 -51.5t-56 -53.5t-29 -21q-6 0 -6 9q0 8 36.5 61t65.5 82z" />
    <glyph glyph-name="onequarter" unicode="&#xbc;" horiz-adv-x="750" 
d="M546 341l-150 -219h152v219h-2zM378 102v36l180 266h56v-282h58v47h20v-112h-20v45h-58v-82h47v-20h-161v20h48v82h-170zM118 -13l451 671h50l-451 -671h-50zM259 263h-213v20h71v323q0 16 -7 20t-37 4h-31v20h31q27 0 119 8v-375h67v-20z" />
    <glyph glyph-name="onehalf" unicode="&#xbd;" horiz-adv-x="750" 
d="M118 -13l451 671h50l-451 -671h-50zM259 263h-213v20h71v323q0 16 -7 20t-37 4h-31v20h31q27 0 119 8v-375h67v-20zM709 108l-9 -108h-270v35l55 50q85 79 114 116.5t29 77.5q0 37 -21.5 65t-57.5 28q-35 0 -58.5 -21t-23.5 -42v-9q17 7 26 7q15 0 24 -9.5t9 -21.5
q0 -15 -12 -24.5t-26 -9.5q-20 0 -35 16t-15 38q0 48 39.5 73.5t92.5 25.5q56 0 100.5 -26.5t44.5 -79.5q0 -32 -25.5 -63t-94.5 -87l-96 -77v-2h150q23 0 29 8.5t8 39.5h23z" />
    <glyph glyph-name="threequarters" unicode="&#xbe;" horiz-adv-x="750" 
d="M546 341l-150 -219h152v219h-2zM378 102v36l180 266h56v-282h58v47h20v-112h-20v45h-58v-82h47v-20h-161v20h48v82h-170zM118 -13l451 671h50l-451 -671h-50zM267 570q0 -34 -27 -59t-65 -34v-2q115 -20 115 -105q0 -39 -45.5 -77t-122.5 -38q-59 0 -90.5 25t-31.5 55
q0 15 14 26.5t31 11.5q13 0 26.5 -8t13.5 -20q0 -14 -6.5 -20.5t-14 -6.5t-14 -2.5t-6.5 -8.5q0 -15 26.5 -24t45.5 -9q48 0 67.5 24t19.5 83q0 78 -92 78q-11 0 -22.5 -4t-12.5 -4q-7 0 -11.5 1t-9 7t-4.5 17q0 14 21 14q5 0 15.5 -4t16.5 -4q79 0 79 89q0 37 -16.5 52.5
t-48.5 15.5q-15 0 -30 -5.5t-15 -16.5q0 -5 13.5 -11t13.5 -20q0 -13 -10.5 -22t-24.5 -9q-41 0 -41 40q0 11 9 24.5t36.5 26t68.5 12.5q47 0 88 -25t41 -63z" />
    <glyph glyph-name="questiondown" unicode="&#xbf;" horiz-adv-x="444" 
d="M260 268h23q5 -21 5 -65q0 -69 -29.5 -114.5t-121.5 -124.5q-22 -19 -22 -53q0 -35 32 -73t94 -38q38 0 71.5 22t33.5 41q0 9 -14.5 9.5t-30 8.5t-18.5 33q-2 20 11.5 33.5t33.5 13.5q26 0 40 -17.5t14 -44.5q0 -52 -46.5 -85.5t-99.5 -33.5q-69 0 -118.5 47.5
t-49.5 117.5q0 17 2 32.5t8 30t10 24.5t16 24t16 20t21 20t21 17.5t24.5 19.5t23.5 18q33 26 41.5 48t8.5 69zM262 471q25 0 41 -16.5t16 -41.5q0 -23 -17.5 -39.5t-39.5 -16.5q-23 0 -42 16.5t-19 39.5q0 25 18 41.5t43 16.5z" />
    <glyph glyph-name="Agrave" unicode="&#xc0;" horiz-adv-x="667" 
d="M212 271h172l-82 271h-2zM218 0h-195v23h79l217 654h39l206 -654h70v-23h-252v23h81l-69 220h-191l-71 -220h86v-23zM408 700h-35l-133 81q-19 12 -27 17.5t-16 15.5t-8 20q0 15 10 24.5t25 9.5q12 0 35 -23z" />
    <glyph glyph-name="Aacute" unicode="&#xc1;" horiz-adv-x="667" 
d="M212 271h172l-82 271h-2zM218 0h-195v23h79l217 654h39l206 -654h70v-23h-252v23h81l-69 220h-191l-71 -220h86v-23zM260 700l149 145q23 23 35 23q15 0 25 -9.5t10 -24.5q0 -10 -8 -20t-16 -15.5t-27 -17.5l-133 -81h-35z" />
    <glyph glyph-name="Acircumflex" unicode="&#xc2;" horiz-adv-x="667" 
d="M212 271h172l-82 271h-2zM218 0h-195v23h79l217 654h39l206 -654h70v-23h-252v23h81l-69 220h-191l-71 -220h86v-23zM307 866h56l121 -166h-32l-117 105l-117 -105h-34z" />
    <glyph glyph-name="Atilde" unicode="&#xc3;" horiz-adv-x="667" 
d="M212 271h172l-82 271h-2zM218 0h-195v23h79l217 654h39l206 -654h70v-23h-252v23h81l-69 220h-191l-71 -220h86v-23zM479 826h29q-10 -43 -37.5 -72.5t-68.5 -29.5q-32 0 -74 23q-46 23 -64 23q-20 0 -35 -13.5t-19 -32.5h-27q8 43 35.5 70.5t70.5 27.5q21 0 67 -23
q44 -23 65 -23q23 0 35 12.5t23 37.5z" />
    <glyph glyph-name="Adieresis" unicode="&#xc4;" horiz-adv-x="667" 
d="M212 271h172l-82 271h-2zM218 0h-195v23h79l217 654h39l206 -654h70v-23h-252v23h81l-69 220h-191l-71 -220h86v-23zM241 718q-19 0 -32.5 13t-13.5 33t13 34t33 14q19 0 33 -14.5t14 -33.5t-14 -32.5t-33 -13.5zM436 718q-20 0 -33 13t-13 33t13 34t33 14q19 0 33 -14.5
t14 -33.5t-14 -32.5t-33 -13.5z" />
    <glyph glyph-name="Aring" unicode="&#xc5;" horiz-adv-x="667" 
d="M212 271h172l-82 271h-2zM218 0h-195v23h79l217 654h39l206 -654h70v-23h-252v23h81l-69 220h-191l-71 -220h86v-23zM334 856q-28 0 -47.5 -19.5t-19.5 -47.5q0 -29 19.5 -48t47.5 -19t47.5 19.5t19.5 47.5t-19.5 47.5t-47.5 19.5zM334 692q-41 0 -69 28t-28 69t28.5 69
t68.5 28t68.5 -28.5t28.5 -68.5t-28.5 -68.5t-68.5 -28.5z" />
    <glyph glyph-name="AE" unicode="&#xc6;" horiz-adv-x="889" 
d="M155 23v-23h-171v23h67l234 473q21 42 21 71q0 19 -6.5 33t-15.5 21.5t-25.5 13t-28 7t-31.5 3.5v23h616v-163h-22q-13 83 -54 111.5t-117 28.5h-119v-288q31 0 45.5 0.5t33.5 3.5t26.5 9.5t16.5 18.5t13 30t6 45h22v-253h-22q-1 76 -31 98t-110 23v-309h110q55 0 85 4.5
t55.5 22t38.5 49.5t23 88h27l-14 -187h-513v23h91v214h-221l-105 -214h75zM200 265h206v378h-19z" />
    <glyph glyph-name="Ccedilla" unicode="&#xc7;" horiz-adv-x="611" 
d="M535 660v-170h-23q-38 170 -178 170q-44 0 -80 -24.5t-53 -56.5q-41 -77 -41 -270q0 -57 3.5 -97.5t14 -80.5t30 -64t52.5 -39t79 -15q68 0 115.5 48t68.5 121h24v-182h-27l-28 41q-66 -56 -157 -56q-16 0 -22 1l-24 -52q24 6 38 6q24 0 49 -17.5t25 -51.5
q0 -45 -36 -64.5t-85 -19.5q-48 0 -82 15l14 30q43 -12 58 -12q24 0 42.5 10t18.5 32q0 19 -14 29t-29 10q-17 -2 -30 -5l-18 5l40 90q-109 20 -171.5 117t-62.5 230q0 143 91.5 244t201.5 101q72 0 147 -53l34 30h15z" />
    <glyph glyph-name="Egrave" unicode="&#xc8;" horiz-adv-x="611" 
d="M551 0h-521v23h88v622h-88v23h507v-163h-22q-12 83 -53 111.5t-117 28.5h-130v-288q31 0 45.5 0.5t34 3.5t27.5 9.5t17.5 18.5t14 30t8.5 45h22v-253h-22q-4 76 -35.5 98t-111.5 23v-309h121q54 0 84 4.5t56 22t39 49.5t23 88h26zM380 700h-35l-133 81q-19 12 -27 17.5
t-16 15.5t-8 20q0 15 10 24.5t25 9.5q12 0 35 -23z" />
    <glyph glyph-name="Eacute" unicode="&#xc9;" horiz-adv-x="611" 
d="M551 0h-521v23h88v622h-88v23h507v-163h-22q-12 83 -53 111.5t-117 28.5h-130v-288q31 0 45.5 0.5t34 3.5t27.5 9.5t17.5 18.5t14 30t8.5 45h22v-253h-22q-4 76 -35.5 98t-111.5 23v-309h121q54 0 84 4.5t56 22t39 49.5t23 88h26zM232 700l149 145q23 23 35 23
q15 0 25 -9.5t10 -24.5q0 -10 -8 -20t-16 -15.5t-27 -17.5l-133 -81h-35z" />
    <glyph glyph-name="Ecircumflex" unicode="&#xca;" horiz-adv-x="611" 
d="M551 0h-521v23h88v622h-88v23h507v-163h-22q-12 83 -53 111.5t-117 28.5h-130v-288q31 0 45.5 0.5t34 3.5t27.5 9.5t17.5 18.5t14 30t8.5 45h22v-253h-22q-4 76 -35.5 98t-111.5 23v-309h121q54 0 84 4.5t56 22t39 49.5t23 88h26zM279 866h56l121 -166h-32l-117 105
l-117 -105h-34z" />
    <glyph glyph-name="Edieresis" unicode="&#xcb;" horiz-adv-x="611" 
d="M551 0h-521v23h88v622h-88v23h507v-163h-22q-12 83 -53 111.5t-117 28.5h-130v-288q31 0 45.5 0.5t34 3.5t27.5 9.5t17.5 18.5t14 30t8.5 45h22v-253h-22q-4 76 -35.5 98t-111.5 23v-309h121q54 0 84 4.5t56 22t39 49.5t23 88h26zM208 718q-20 0 -33 13t-13 33t13 34
t33 14q19 0 33 -14.5t14 -33.5t-14 -32.5t-33 -13.5zM403 718q-19 0 -32.5 13t-13.5 33t13 34t33 14q19 0 33 -14.5t14 -33.5t-14 -32.5t-33 -13.5z" />
    <glyph glyph-name="Igrave" unicode="&#xcc;" horiz-adv-x="333" 
d="M301 23v-23h-269v23h86v622h-86v23h269v-23h-86v-622h86zM241 700h-35l-133 81q-19 12 -27 17.5t-16 15.5t-8 20q0 15 10 24.5t25 9.5q12 0 35 -23z" />
    <glyph glyph-name="Iacute" unicode="&#xcd;" horiz-adv-x="333" 
d="M301 23v-23h-269v23h86v622h-86v23h269v-23h-86v-622h86zM93 700l149 145q23 23 35 23q15 0 25 -9.5t10 -24.5q0 -10 -8 -20t-16 -15.5t-27 -17.5l-133 -81h-35z" />
    <glyph glyph-name="Icircumflex" unicode="&#xce;" horiz-adv-x="333" 
d="M301 23v-23h-269v23h86v622h-86v23h269v-23h-86v-622h86zM140 866h56l121 -166h-32l-117 105l-117 -105h-34z" />
    <glyph glyph-name="Idieresis" unicode="&#xcf;" horiz-adv-x="333" 
d="M301 23v-23h-269v23h86v622h-86v23h269v-23h-86v-622h86zM69 718q-19 0 -32.5 13t-13.5 33t13 34t33 14q19 0 33 -14.5t14 -33.5t-14 -32.5t-33 -13.5zM264 718q-20 0 -33 13t-13 33t13 34t33 14q19 0 33 -14.5t14 -33.5t-14 -32.5t-33 -13.5z" />
    <glyph glyph-name="Eth" unicode="&#xd0;" horiz-adv-x="667" 
d="M118 23v307h-99v29h99v286h-77v23h268q141 0 226.5 -89t85.5 -239q0 -159 -104 -268q-70 -72 -210 -72h-266v23h77zM215 645v-286h140v-29h-140v-307h98q77 0 115 29.5t58 74.5q25 56 25 231q0 51 -3 85.5t-15.5 76t-35.5 66.5t-65 42t-102 17h-75z" />
    <glyph glyph-name="Ntilde" unicode="&#xd1;" horiz-adv-x="667" 
d="M116 23v622h-78v23h195l284 -484h2v461h-78v23h185v-23h-77v-660h-26l-375 640h-2v-602h77v-23h-185v23h78zM469 826h29q-10 -43 -37.5 -72.5t-68.5 -29.5q-32 0 -74 23q-46 23 -64 23q-20 0 -35 -13.5t-19 -32.5h-27q8 43 35.5 70.5t70.5 27.5q21 0 67 -23
q44 -23 65 -23q23 0 35 12.5t23 37.5z" />
    <glyph glyph-name="Ograve" unicode="&#xd2;" horiz-adv-x="667" 
d="M333 -15q-83 0 -150 51t-102 130.5t-35 168.5t35 168t102 129.5t150 50.5t150 -50.5t102 -129.5t35 -168t-35 -168.5t-102 -130.5t-150 -51zM333 8q98 0 135.5 80t37.5 246t-37.5 246t-135.5 80t-135.5 -80t-37.5 -246t37.5 -246t135.5 -80zM408 700h-35l-133 81
q-19 12 -27 17.5t-16 15.5t-8 20q0 15 10 24.5t25 9.5q12 0 35 -23z" />
    <glyph glyph-name="Oacute" unicode="&#xd3;" horiz-adv-x="667" 
d="M333 -15q-83 0 -150 51t-102 130.5t-35 168.5t35 168t102 129.5t150 50.5t150 -50.5t102 -129.5t35 -168t-35 -168.5t-102 -130.5t-150 -51zM333 8q98 0 135.5 80t37.5 246t-37.5 246t-135.5 80t-135.5 -80t-37.5 -246t37.5 -246t135.5 -80zM260 700l149 145q23 23 35 23
q15 0 25 -9.5t10 -24.5q0 -10 -8 -20t-16 -15.5t-27 -17.5l-133 -81h-35z" />
    <glyph glyph-name="Ocircumflex" unicode="&#xd4;" horiz-adv-x="667" 
d="M333 -15q-83 0 -150 51t-102 130.5t-35 168.5t35 168t102 129.5t150 50.5t150 -50.5t102 -129.5t35 -168t-35 -168.5t-102 -130.5t-150 -51zM333 8q98 0 135.5 80t37.5 246t-37.5 246t-135.5 80t-135.5 -80t-37.5 -246t37.5 -246t135.5 -80zM307 866h56l121 -166h-32
l-117 105l-117 -105h-34z" />
    <glyph glyph-name="Otilde" unicode="&#xd5;" horiz-adv-x="667" 
d="M333 -15q-83 0 -150 51t-102 130.5t-35 168.5t35 168t102 129.5t150 50.5t150 -50.5t102 -129.5t35 -168t-35 -168.5t-102 -130.5t-150 -51zM333 8q98 0 135.5 80t37.5 246t-37.5 246t-135.5 80t-135.5 -80t-37.5 -246t37.5 -246t135.5 -80zM469 826h29
q-10 -43 -37.5 -72.5t-68.5 -29.5q-32 0 -74 23q-46 23 -64 23q-20 0 -35 -13.5t-19 -32.5h-27q8 43 35.5 70.5t70.5 27.5q21 0 67 -23q44 -23 65 -23q23 0 35 12.5t23 37.5z" />
    <glyph glyph-name="Odieresis" unicode="&#xd6;" horiz-adv-x="667" 
d="M333 -15q-83 0 -150 51t-102 130.5t-35 168.5t35 168t102 129.5t150 50.5t150 -50.5t102 -129.5t35 -168t-35 -168.5t-102 -130.5t-150 -51zM333 8q98 0 135.5 80t37.5 246t-37.5 246t-135.5 80t-135.5 -80t-37.5 -246t37.5 -246t135.5 -80zM236 718q-20 0 -33 13t-13 33
t13 34t33 14q19 0 33 -14.5t14 -33.5t-14 -32.5t-33 -13.5zM431 718q-19 0 -32.5 13t-13.5 33t13 34t33 14q19 0 33 -14.5t14 -33.5t-14 -32.5t-33 -13.5z" />
    <glyph glyph-name="multiply" unicode="&#xd7;" horiz-adv-x="550" 
d="M235 243l-192 200l40 42l192 -201l192 201l40 -42l-192 -200l192 -200l-40 -42l-192 200l-192 -200l-40 42z" />
    <glyph glyph-name="Oslash" unicode="&#xd8;" horiz-adv-x="667" 
d="M482 545l-280 -464q40 -73 131 -73q98 0 135.5 80t37.5 246q0 140 -24 211zM184 124l280 464q-40 72 -131 72q-98 0 -135.5 -80t-37.5 -246q0 -139 24 -210zM550 733h44l-77 -129q49 -50 76 -121t27 -148q0 -89 -35 -168.5t-102 -130.5t-150 -51q-87 0 -155 56l-63 -105
h-44l78 130q-48 49 -75.5 120.5t-27.5 148.5q0 89 35 168t102 129.5t150 50.5q85 0 155 -54z" />
    <glyph glyph-name="Ugrave" unicode="&#xd9;" horiz-adv-x="667" 
d="M37 668h252v-23h-78v-496q0 -13 5.5 -31t18.5 -42.5t43 -41t72 -16.5q44 0 75 12.5t49 31.5t28.5 50.5t13.5 62t3 73.5v397h-77v23h181v-23h-77v-428q0 -118 -53.5 -175t-166.5 -57q-97 0 -154.5 49.5t-57.5 133.5v477h-77v23zM408 700h-35l-133 81q-19 12 -27 17.5
t-16 15.5t-8 20q0 15 10 24.5t25 9.5q12 0 35 -23z" />
    <glyph glyph-name="Uacute" unicode="&#xda;" horiz-adv-x="667" 
d="M37 668h252v-23h-78v-496q0 -13 5.5 -31t18.5 -42.5t43 -41t72 -16.5q44 0 75 12.5t49 31.5t28.5 50.5t13.5 62t3 73.5v397h-77v23h181v-23h-77v-428q0 -118 -53.5 -175t-166.5 -57q-97 0 -154.5 49.5t-57.5 133.5v477h-77v23zM280 700l149 145q23 23 35 23q15 0 25 -9.5
t10 -24.5q0 -10 -8 -20t-16 -15.5t-27 -17.5l-133 -81h-35z" />
    <glyph glyph-name="Ucircumflex" unicode="&#xdb;" horiz-adv-x="667" 
d="M37 668h252v-23h-78v-496q0 -13 5.5 -31t18.5 -42.5t43 -41t72 -16.5q44 0 75 12.5t49 31.5t28.5 50.5t13.5 62t3 73.5v397h-77v23h181v-23h-77v-428q0 -118 -53.5 -175t-166.5 -57q-97 0 -154.5 49.5t-57.5 133.5v477h-77v23zM307 866h56l121 -166h-32l-117 105
l-117 -105h-34z" />
    <glyph glyph-name="Udieresis" unicode="&#xdc;" horiz-adv-x="667" 
d="M37 668h252v-23h-78v-496q0 -13 5.5 -31t18.5 -42.5t43 -41t72 -16.5q44 0 75 12.5t49 31.5t28.5 50.5t13.5 62t3 73.5v397h-77v23h181v-23h-77v-428q0 -118 -53.5 -175t-166.5 -57q-97 0 -154.5 49.5t-57.5 133.5v477h-77v23zM236 718q-20 0 -33 13t-13 33t13 34t33 14
q19 0 33 -14.5t14 -33.5t-14 -32.5t-33 -13.5zM431 718q-19 0 -32.5 13t-13.5 33t13 34t33 14q19 0 33 -14.5t14 -33.5t-14 -32.5t-33 -13.5z" />
    <glyph glyph-name="Yacute" unicode="&#xdd;" horiz-adv-x="667" 
d="M372 345l160 300h-99v23h206v-23h-80l-174 -335v-287h89v-23h-274v23h88v287l-193 335h-74v23h270v-23h-88zM290 700l149 145q23 23 35 23q15 0 25 -9.5t10 -24.5q0 -10 -8 -20t-16 -15.5t-27 -17.5l-133 -81h-35z" />
    <glyph glyph-name="Thorn" unicode="&#xde;" horiz-adv-x="556" 
d="M32 645v23h253v-23h-77v-117h90q128 0 185.5 -51t57.5 -127q0 -33 -15.5 -64.5t-47.5 -60.5t-89.5 -46.5t-132.5 -17.5h-48v-138h89v-23h-272v23h86v622h-79zM208 505v-321h34q116 1 154.5 40.5t38.5 129.5q0 52 -11 83t-39.5 45.5t-59.5 18.5t-89 4h-28z" />
    <glyph glyph-name="germandbls" unicode="&#xdf;" 
d="M157 0h-132v23h58v500q0 75 46.5 123t117.5 48q77 0 131.5 -43.5t54.5 -121.5q0 -47 -32.5 -92.5t-100.5 -66.5v-2q82 -11 122 -67t40 -125q0 -80 -41.5 -134.5t-117.5 -54.5q-43 0 -72.5 25.5t-29.5 62.5q0 58 52 58q16 0 28 -12t12 -28q0 -17 -15 -32.5t-15 -28.5
q0 -12 12 -18.5t26 -6.5q70 0 70 150q0 39 -2 63t-10.5 58t-30 52.5t-55.5 20.5q-18 2 -29 2q-25 0 -25 14q0 10 23 10q70 0 91 58q13 36 13 111q0 70 -31 98.5t-62 28.5q-47 0 -71.5 -23.5t-24.5 -88.5v-561z" />
    <glyph glyph-name="agrave" unicode="&#xe0;" horiz-adv-x="444" 
d="M419 69h17q-2 -35 -26.5 -58.5t-58.5 -23.5q-53 0 -65 61q-49 -61 -135 -61q-117 0 -117 98q2 69 68.5 107t182.5 38v95q0 32 -21 46.5t-51 14.5q-28 0 -60.5 -8.5t-32.5 -27.5q0 -1 15 -13.5t15 -32.5q0 -19 -11 -30.5t-30 -11.5q-20 0 -31 13t-11 35q0 34 40 65t120 31
q48 0 78 -8.5t41.5 -26.5t14 -30t2.5 -33v-238q0 -18 1 -26t5.5 -14t14.5 -6q22 0 35 45zM285 116v93q-176 -3 -176 -104q0 -36 21 -57.5t56 -21.5q44 0 77 29q22 22 22 61zM296 438h-35l-133 81q-19 12 -27 17.5t-16 15.5t-8 20q0 15 10 24.5t25 9.5q12 0 35 -23z" />
    <glyph glyph-name="aacute" unicode="&#xe1;" horiz-adv-x="444" 
d="M419 69h17q-2 -35 -26.5 -58.5t-58.5 -23.5q-53 0 -65 61q-49 -61 -135 -61q-117 0 -117 98q2 69 68.5 107t182.5 38v95q0 32 -21 46.5t-51 14.5q-28 0 -60.5 -8.5t-32.5 -27.5q0 -1 15 -13.5t15 -32.5q0 -19 -11 -30.5t-30 -11.5q-20 0 -31 13t-11 35q0 34 40 65t120 31
q48 0 78 -8.5t41.5 -26.5t14 -30t2.5 -33v-238q0 -18 1 -26t5.5 -14t14.5 -6q22 0 35 45zM285 116v93q-176 -3 -176 -104q0 -36 21 -57.5t56 -21.5q44 0 77 29q22 22 22 61zM148 438l149 145q23 23 35 23q15 0 25 -9.5t10 -24.5q0 -10 -8 -20t-16 -15.5t-27 -17.5l-133 -81
h-35z" />
    <glyph glyph-name="acircumflex" unicode="&#xe2;" horiz-adv-x="444" 
d="M419 69h17q-2 -35 -26.5 -58.5t-58.5 -23.5q-53 0 -65 61q-49 -61 -135 -61q-117 0 -117 98q2 69 68.5 107t182.5 38v95q0 32 -21 46.5t-51 14.5q-28 0 -60.5 -8.5t-32.5 -27.5q0 -1 15 -13.5t15 -32.5q0 -19 -11 -30.5t-30 -11.5q-20 0 -31 13t-11 35q0 34 40 65t120 31
q48 0 78 -8.5t41.5 -26.5t14 -30t2.5 -33v-238q0 -18 1 -26t5.5 -14t14.5 -6q22 0 35 45zM285 116v93q-176 -3 -176 -104q0 -36 21 -57.5t56 -21.5q44 0 77 29q22 22 22 61zM195 604h56l121 -166h-32l-117 105l-117 -105h-34z" />
    <glyph glyph-name="atilde" unicode="&#xe3;" horiz-adv-x="444" 
d="M419 69h17q-2 -35 -26.5 -58.5t-58.5 -23.5q-53 0 -65 61q-49 -61 -135 -61q-117 0 -117 98q2 69 68.5 107t182.5 38v95q0 32 -21 46.5t-51 14.5q-28 0 -60.5 -8.5t-32.5 -27.5q0 -1 15 -13.5t15 -32.5q0 -19 -11 -30.5t-30 -11.5q-20 0 -31 13t-11 35q0 34 40 65t120 31
q48 0 78 -8.5t41.5 -26.5t14 -30t2.5 -33v-238q0 -18 1 -26t5.5 -14t14.5 -6q22 0 35 45zM285 116v93q-176 -3 -176 -104q0 -36 21 -57.5t56 -21.5q44 0 77 29q22 22 22 61zM357 564h29q-10 -43 -37.5 -72.5t-68.5 -29.5q-32 0 -74 23q-46 23 -64 23q-20 0 -35 -13.5
t-19 -32.5h-27q8 43 35.5 70.5t70.5 27.5q21 0 67 -23q44 -23 65 -23q23 0 35 12.5t23 37.5z" />
    <glyph glyph-name="adieresis" unicode="&#xe4;" horiz-adv-x="444" 
d="M419 69h17q-2 -35 -26.5 -58.5t-58.5 -23.5q-53 0 -65 61q-49 -61 -135 -61q-117 0 -117 98q2 69 68.5 107t182.5 38v95q0 32 -21 46.5t-51 14.5q-28 0 -60.5 -8.5t-32.5 -27.5q0 -1 15 -13.5t15 -32.5q0 -19 -11 -30.5t-30 -11.5q-20 0 -31 13t-11 35q0 34 40 65t120 31
q48 0 78 -8.5t41.5 -26.5t14 -30t2.5 -33v-238q0 -18 1 -26t5.5 -14t14.5 -6q22 0 35 45zM285 116v93q-176 -3 -176 -104q0 -36 21 -57.5t56 -21.5q44 0 77 29q22 22 22 61zM124 456q-20 0 -33 13t-13 33t13 34t33 14q19 0 33 -14.5t14 -33.5t-14 -32.5t-33 -13.5zM319 456
q-19 0 -32.5 13t-13.5 33t13 34t33 14q19 0 33 -14.5t14 -33.5t-14 -32.5t-33 -13.5z" />
    <glyph glyph-name="aring" unicode="&#xe5;" horiz-adv-x="444" 
d="M419 69h17q-2 -35 -26.5 -58.5t-58.5 -23.5q-53 0 -65 61q-49 -61 -135 -61q-117 0 -117 98q2 69 68.5 107t182.5 38v95q0 32 -21 46.5t-51 14.5q-28 0 -60.5 -8.5t-32.5 -27.5q0 -1 15 -13.5t15 -32.5q0 -19 -11 -30.5t-30 -11.5q-20 0 -31 13t-11 35q0 34 40 65t120 31
q48 0 78 -8.5t41.5 -26.5t14 -30t2.5 -33v-238q0 -18 1 -26t5.5 -14t14.5 -6q22 0 35 45zM285 116v93q-176 -3 -176 -104q0 -36 21 -57.5t56 -21.5q44 0 77 29q22 22 22 61zM219 604q-28 0 -47.5 -19.5t-19.5 -47.5q0 -29 19 -48t48 -19q28 0 47.5 19.5t19.5 47.5
t-19.5 47.5t-47.5 19.5zM219 440q-41 0 -69 28t-28 69t28 69t69 28q40 0 68.5 -28.5t28.5 -68.5t-28.5 -68.5t-68.5 -28.5z" />
    <glyph glyph-name="ae" unicode="&#xe6;" horiz-adv-x="667" 
d="M281 116v93q-176 -3 -176 -104q0 -36 21 -57.5t56 -21.5q44 0 77 29q22 22 22 61zM359 257h186v34q0 95 -92 95q-59 0 -84 -63q-8 -25 -10 -66zM613 124h22q-15 -68 -61.5 -102.5t-114.5 -34.5q-44 0 -89 25t-63 59q-29 -39 -74 -61.5t-86 -22.5q-117 0 -117 98
q2 69 68.5 107t182.5 38v95q0 32 -21 46.5t-51 14.5q-28 0 -60.5 -8.5t-32.5 -27.5q0 -1 15 -13.5t15 -32.5q0 -19 -11 -30.5t-30 -11.5q-20 0 -31 13t-11 35q0 34 40 65t120 31q84 2 116 -44q32 25 57.5 35t59.5 9q78 0 128.5 -49t51.5 -129h-279v-41q0 -34 1.5 -57
t8.5 -48.5t19.5 -40t34.5 -24.5t54 -10q44 0 86 34.5t52 82.5z" />
    <glyph glyph-name="ccedilla" unicode="&#xe7;" horiz-adv-x="444" 
d="M381 124h21q-20 -62 -57.5 -98t-109.5 -39q-4 0 -6 1l-24 -54q24 6 38 6q24 0 49 -17.5t25 -51.5q0 -45 -36 -64.5t-85 -19.5q-48 0 -82 15l14 30q43 -12 58 -12q24 0 42.5 10t18.5 32q0 19 -14 29t-29 10q-17 -2 -30 -5l-18 5l40 90q-44 6 -77.5 28.5t-51 52t-26 58.5
t-8.5 55q0 51 15.5 91t38.5 64t51.5 39.5t52 21t42.5 5.5q58 0 107.5 -27t49.5 -80q0 -21 -12.5 -37t-32.5 -16q-21 0 -34 13t-13 34q0 17 8 28.5t16 17t8 9.5q0 18 -30.5 28t-54.5 10q-69 0 -95 -48.5t-26 -152.5q0 -71 21 -120q24 -53 98 -57q44 -2 82 30t56 86z" />
    <glyph glyph-name="egrave" unicode="&#xe8;" horiz-adv-x="444" 
d="M387 124h22q-15 -68 -61.5 -102.5t-114.5 -34.5q-79 0 -139.5 56t-60.5 137q0 92 55 159t142 67q78 0 128.5 -49t51.5 -129h-283v-41q0 -42 4 -70.5t16 -55.5t37.5 -40t64.5 -13q44 0 86 34t52 82zM128 257h191v34q0 95 -92 95q-21 0 -38.5 -8.5t-28 -20.5t-16 -21
t-6.5 -13q-8 -25 -10 -66zM296 438h-35l-133 81q-19 12 -27 17.5t-16 15.5t-8 20q0 15 10 24.5t25 9.5q12 0 35 -23z" />
    <glyph glyph-name="eacute" unicode="&#xe9;" horiz-adv-x="444" 
d="M387 124h22q-15 -68 -61.5 -102.5t-114.5 -34.5q-79 0 -139.5 56t-60.5 137q0 92 55 159t142 67q78 0 128.5 -49t51.5 -129h-283v-41q0 -42 4 -70.5t16 -55.5t37.5 -40t64.5 -13q44 0 86 34t52 82zM128 257h191v34q0 95 -92 95q-21 0 -38.5 -8.5t-28 -20.5t-16 -21
t-6.5 -13q-8 -25 -10 -66zM148 438l149 145q23 23 35 23q15 0 25 -9.5t10 -24.5q0 -10 -8 -20t-16 -15.5t-27 -17.5l-133 -81h-35z" />
    <glyph glyph-name="ecircumflex" unicode="&#xea;" horiz-adv-x="444" 
d="M387 124h22q-15 -68 -61.5 -102.5t-114.5 -34.5q-79 0 -139.5 56t-60.5 137q0 92 55 159t142 67q78 0 128.5 -49t51.5 -129h-283v-41q0 -42 4 -70.5t16 -55.5t37.5 -40t64.5 -13q44 0 86 34t52 82zM128 257h191v34q0 95 -92 95q-21 0 -38.5 -8.5t-28 -20.5t-16 -21
t-6.5 -13q-8 -25 -10 -66zM210 604h56l121 -166h-32l-117 105l-117 -105h-34z" />
    <glyph glyph-name="edieresis" unicode="&#xeb;" horiz-adv-x="444" 
d="M387 124h22q-15 -68 -61.5 -102.5t-114.5 -34.5q-79 0 -139.5 56t-60.5 137q0 92 55 159t142 67q78 0 128.5 -49t51.5 -129h-283v-41q0 -42 4 -70.5t16 -55.5t37.5 -40t64.5 -13q44 0 86 34t52 82zM128 257h191v34q0 95 -92 95q-21 0 -38.5 -8.5t-28 -20.5t-16 -21
t-6.5 -13q-8 -25 -10 -66zM124 456q-20 0 -33 13t-13 33t13 34t33 14q19 0 33 -14.5t14 -33.5t-14 -32.5t-33 -13.5zM319 456q-19 0 -32.5 13t-13.5 33t13 34t33 14q19 0 33 -14.5t14 -33.5t-14 -32.5t-33 -13.5z" />
    <glyph glyph-name="igrave" unicode="&#xec;" horiz-adv-x="278" 
d="M236 0h-204v23h67v350h-67v23h33q72 0 112 10v-383h59v-23zM213 438h-35l-133 81q-19 12 -27 17.5t-16 15.5t-8 20q0 15 10 24.5t25 9.5q12 0 35 -23z" />
    <glyph glyph-name="iacute" unicode="&#xed;" horiz-adv-x="278" 
d="M236 0h-204v23h67v350h-67v23h33q72 0 112 10v-383h59v-23zM65 438l149 145q23 23 35 23q15 0 25 -9.5t10 -24.5q0 -10 -8 -20t-16 -15.5t-27 -17.5l-133 -81h-35z" />
    <glyph glyph-name="icircumflex" unicode="&#xee;" horiz-adv-x="278" 
d="M236 0h-204v23h67v350h-67v23h33q72 0 112 10v-383h59v-23zM112 604h56l121 -166h-32l-117 105l-117 -105h-34z" />
    <glyph glyph-name="idieresis" unicode="&#xef;" horiz-adv-x="278" 
d="M236 0h-204v23h67v350h-67v23h33q72 0 112 10v-383h59v-23zM41 456q-19 0 -32.5 13t-13.5 33t13 34t33 14q19 0 33 -14.5t14 -33.5t-14 -32.5t-33 -13.5zM236 456q-20 0 -33 13t-13 33t13 34t33 14q19 0 33 -14.5t14 -33.5t-14 -32.5t-33 -13.5z" />
    <glyph glyph-name="eth" unicode="&#xf0;" horiz-adv-x="444" 
d="M222 386q-29 0 -49.5 -12.5t-30.5 -29t-15 -46t-6 -49t-1 -52.5q0 -34 1 -53t6 -49t15 -46.5t30.5 -29t49.5 -12.5t49.5 12.5t30.5 29t15 46.5t6 49t1 53q0 33 -1 52.5t-6 49t-15 46t-30.5 29t-49.5 12.5zM142 469l-18 23l117 78q-43 67 -111 104l35 24q69 -42 120 -99
l124 84l18 -23l-123 -83q111 -133 111 -327q0 -122 -48 -192.5t-145 -70.5q-80 0 -136.5 60t-56.5 150q0 89 56.5 149t136.5 60q51 0 91 -29q-14 94 -56 169z" />
    <glyph glyph-name="ntilde" unicode="&#xf1;" 
d="M84 23v350h-55v23h21q38 0 56 2q26 1 56 8v-106h2q47 106 140 106q18 0 34.5 -3t37.5 -12t34 -31t13 -54v-283h54v-23h-184v23h52v270q0 51 -15 67.5t-48 16.5q-49 0 -84.5 -54t-35.5 -114v-186h54v-23h-187v23h55zM385 564h29q-10 -43 -37.5 -72.5t-68.5 -29.5
q-32 0 -74 23q-46 23 -64 23q-20 0 -35 -13.5t-19 -32.5h-27q8 43 35.5 70.5t70.5 27.5q21 0 67 -23q44 -23 65 -23q23 0 35 12.5t23 37.5z" />
    <glyph glyph-name="ograve" unicode="&#xf2;" horiz-adv-x="444" 
d="M222 406q80 0 136.5 -60t56.5 -149q0 -90 -56.5 -150t-136.5 -60t-136.5 60t-56.5 150q0 89 56.5 149t136.5 60zM222 386q-29 0 -49.5 -12.5t-30.5 -29t-15 -46t-6 -49t-1 -52.5q0 -34 1 -53t6 -49t15 -46.5t30.5 -29t49.5 -12.5t49.5 12.5t30.5 29t15 46.5t6 49t1 53
q0 33 -1 52.5t-6 49t-15 46t-30.5 29t-49.5 12.5zM296 438h-35l-133 81q-19 12 -27 17.5t-16 15.5t-8 20q0 15 10 24.5t25 9.5q12 0 35 -23z" />
    <glyph glyph-name="oacute" unicode="&#xf3;" horiz-adv-x="444" 
d="M222 406q80 0 136.5 -60t56.5 -149q0 -90 -56.5 -150t-136.5 -60t-136.5 60t-56.5 150q0 89 56.5 149t136.5 60zM222 386q-29 0 -49.5 -12.5t-30.5 -29t-15 -46t-6 -49t-1 -52.5q0 -34 1 -53t6 -49t15 -46.5t30.5 -29t49.5 -12.5t49.5 12.5t30.5 29t15 46.5t6 49t1 53
q0 33 -1 52.5t-6 49t-15 46t-30.5 29t-49.5 12.5zM148 438l149 145q23 23 35 23q15 0 25 -9.5t10 -24.5q0 -10 -8 -20t-16 -15.5t-27 -17.5l-133 -81h-35z" />
    <glyph glyph-name="ocircumflex" unicode="&#xf4;" horiz-adv-x="444" 
d="M222 406q80 0 136.5 -60t56.5 -149q0 -90 -56.5 -150t-136.5 -60t-136.5 60t-56.5 150q0 89 56.5 149t136.5 60zM222 386q-29 0 -49.5 -12.5t-30.5 -29t-15 -46t-6 -49t-1 -52.5q0 -34 1 -53t6 -49t15 -46.5t30.5 -29t49.5 -12.5t49.5 12.5t30.5 29t15 46.5t6 49t1 53
q0 33 -1 52.5t-6 49t-15 46t-30.5 29t-49.5 12.5zM195 604h56l121 -166h-32l-117 105l-117 -105h-34z" />
    <glyph glyph-name="otilde" unicode="&#xf5;" horiz-adv-x="444" 
d="M222 406q80 0 136.5 -60t56.5 -149q0 -90 -56.5 -150t-136.5 -60t-136.5 60t-56.5 150q0 89 56.5 149t136.5 60zM222 386q-29 0 -49.5 -12.5t-30.5 -29t-15 -46t-6 -49t-1 -52.5q0 -34 1 -53t6 -49t15 -46.5t30.5 -29t49.5 -12.5t49.5 12.5t30.5 29t15 46.5t6 49t1 53
q0 33 -1 52.5t-6 49t-15 46t-30.5 29t-49.5 12.5zM357 564h29q-10 -43 -37.5 -72.5t-68.5 -29.5q-32 0 -74 23q-46 23 -64 23q-20 0 -35 -13.5t-19 -32.5h-27q8 43 35.5 70.5t70.5 27.5q21 0 67 -23q44 -23 65 -23q23 0 35 12.5t23 37.5z" />
    <glyph glyph-name="odieresis" unicode="&#xf6;" horiz-adv-x="444" 
d="M222 406q80 0 136.5 -60t56.5 -149q0 -90 -56.5 -150t-136.5 -60t-136.5 60t-56.5 150q0 89 56.5 149t136.5 60zM222 386q-29 0 -49.5 -12.5t-30.5 -29t-15 -46t-6 -49t-1 -52.5q0 -34 1 -53t6 -49t15 -46.5t30.5 -29t49.5 -12.5t49.5 12.5t30.5 29t15 46.5t6 49t1 53
q0 33 -1 52.5t-6 49t-15 46t-30.5 29t-49.5 12.5zM124 456q-20 0 -33 13t-13 33t13 34t33 14q19 0 33 -14.5t14 -33.5t-14 -32.5t-33 -13.5zM319 456q-19 0 -32.5 13t-13.5 33t13 34t33 14q19 0 33 -14.5t14 -33.5t-14 -32.5t-33 -13.5z" />
    <glyph glyph-name="divide" unicode="&#xf7;" horiz-adv-x="550" 
d="M216 438q0 26 17 43.5t42 17.5t42.5 -18t17.5 -43q0 -26 -17.5 -43.5t-42.5 -17.5t-42 17.5t-17 43.5zM216 48q0 26 17 43.5t42 17.5t42.5 -18t17.5 -43t-17.5 -43t-42.5 -18t-42 17.5t-17 43.5zM507 214h-464v58h464v-58z" />
    <glyph glyph-name="oslash" unicode="&#xf8;" horiz-adv-x="444" 
d="M136 66l151 295q-23 25 -65 25q-29 0 -49.5 -12.5t-30.5 -29t-15 -46t-6 -49t-1 -52.5q0 -94 16 -131zM309 327l-152 -295q25 -25 65 -25q29 0 49.5 12.5t30.5 29t15 46.5t6 49t1 53q0 93 -15 130zM87 -102h-38l65 126q-39 27 -62 72.5t-23 100.5q0 89 56.5 149t136.5 60
q40 0 79 -17l56 107h38l-64 -125q84 -63 84 -174q0 -90 -56.5 -150t-136.5 -60q-41 0 -79 19z" />
    <glyph glyph-name="ugrave" unicode="&#xf9;" 
d="M470 23v-23h-21q-46 0 -109 -7v81h-2q-20 -41 -58 -64.5t-87 -23.5q-118 0 -118 97v290h-54v23h20q72 0 112 10v-314q0 -74 61 -74q52 0 86.5 38t34.5 93v224h-57v23h23q72 0 112 10v-383h57zM324 438h-35l-133 81q-19 12 -27 17.5t-16 15.5t-8 20q0 15 10 24.5t25 9.5
q12 0 35 -23z" />
    <glyph glyph-name="uacute" unicode="&#xfa;" 
d="M470 23v-23h-21q-46 0 -109 -7v81h-2q-20 -41 -58 -64.5t-87 -23.5q-118 0 -118 97v290h-54v23h20q72 0 112 10v-314q0 -74 61 -74q52 0 86.5 38t34.5 93v224h-57v23h23q72 0 112 10v-383h57zM176 438l149 145q23 23 35 23q15 0 25 -9.5t10 -24.5q0 -10 -8 -20t-16 -15.5
t-27 -17.5l-133 -81h-35z" />
    <glyph glyph-name="ucircumflex" unicode="&#xfb;" 
d="M470 23v-23h-21q-46 0 -109 -7v81h-2q-20 -41 -58 -64.5t-87 -23.5q-118 0 -118 97v290h-54v23h20q72 0 112 10v-314q0 -74 61 -74q52 0 86.5 38t34.5 93v224h-57v23h23q72 0 112 10v-383h57zM223 604h56l121 -166h-32l-117 105l-117 -105h-34z" />
    <glyph glyph-name="udieresis" unicode="&#xfc;" 
d="M470 23v-23h-21q-46 0 -109 -7v81h-2q-20 -41 -58 -64.5t-87 -23.5q-118 0 -118 97v290h-54v23h20q72 0 112 10v-314q0 -74 61 -74q52 0 86.5 38t34.5 93v224h-57v23h23q72 0 112 10v-383h57zM152 456q-20 0 -33 13t-13 33t13 34t33 14q19 0 33 -14.5t14 -33.5t-14 -32.5
t-33 -13.5zM347 456q-19 0 -32.5 13t-13.5 33t13 34t33 14q19 0 33 -14.5t14 -33.5t-14 -32.5t-33 -13.5z" />
    <glyph glyph-name="yacute" unicode="&#xfd;" horiz-adv-x="444" 
d="M424 373h-50l-160 -440q-31 -84 -57.5 -122t-70.5 -38q-17 0 -32.5 13.5t-15.5 30.5q0 20 12 31.5t29 11.5t27.5 -9t15.5 -18.5t9 -9.5q10 0 18 14.5t20 46.5q22 53 43 116l-153 373h-47v23h192v-23h-64l111 -269l95 269h-64v23h142v-23zM178 438l149 145q23 23 35 23
q15 0 25 -9.5t10 -24.5q0 -10 -8 -20t-16 -15.5t-27 -17.5l-133 -81h-35z" />
    <glyph glyph-name="thorn" unicode="&#xfe;" 
d="M81 -203v869h-57v23h23q66 0 112 9v-362h2q15 28 47 49t66 21q74 0 133.5 -55t59.5 -163q0 -80 -51 -140.5t-139 -60.5q-77 0 -116 67h-2v-257h68v-23h-205v23h59zM163 270q-4 -26 -4 -92q0 -48 4 -69t16 -44q12 -24 40 -41t51 -17q25 0 39 3.5t32 19.5t26.5 56t8.5 105
q0 107 -23.5 149.5t-79.5 42.5q-7 0 -17.5 -2.5t-25 -10t-27.5 -19t-24.5 -33t-15.5 -48.5z" />
    <glyph glyph-name="ydieresis" unicode="&#xff;" horiz-adv-x="444" 
d="M424 373h-50l-160 -440q-31 -84 -57.5 -122t-70.5 -38q-17 0 -32.5 13.5t-15.5 30.5q0 20 12 31.5t29 11.5t27.5 -9t15.5 -18.5t9 -9.5q10 0 18 14.5t20 46.5q22 53 43 116l-153 373h-47v23h192v-23h-64l111 -269l95 269h-64v23h142v-23zM144 456q-20 0 -33 13t-13 33
t13 34t33 14q19 0 33 -14.5t14 -33.5t-14 -32.5t-33 -13.5zM339 456q-19 0 -32.5 13t-13.5 33t13 34t33 14q19 0 33 -14.5t14 -33.5t-14 -32.5t-33 -13.5z" />
    <glyph glyph-name="dotlessi" unicode="&#x131;" horiz-adv-x="278" 
d="M236 0h-204v23h67v350h-67v23h33q72 0 112 10v-383h59v-23z" />
    <glyph glyph-name="Lslash" unicode="&#x141;" horiz-adv-x="556" 
d="M307 645h-92v-271l153 144v-51l-153 -144v-300h179q55 0 88 51t45 113h19l-11 -187h-499v23h82v210l-96 -90v51l96 90v361h-82v23h271v-23z" />
    <glyph glyph-name="lslash" unicode="&#x142;" horiz-adv-x="278" 
d="M252 0h-232v23h77v247l-92 -97v47l92 97v349h-77v23h43q66 0 112 9v-300l90 95v-47l-90 -95v-328h77v-23z" />
    <glyph glyph-name="OE" unicode="&#x152;" horiz-adv-x="944" 
d="M872 505h-24q-7 46 -22 75t-39.5 42.5t-48.5 18t-61 4.5h-129v-288q37 0 53.5 1t36.5 6t28.5 16.5t16 31.5t12.5 52h22v-253h-22q-5 76 -36 98t-111 23v-309h120q55 0 85 4.5t55.5 22t38.5 49.5t23 88h27l-14 -187h-577q-111 0 -185.5 93.5t-74.5 233.5q0 72 18 131.5
t47 97.5t65.5 64t71.5 37t68 11h556v-163zM453 228v210q0 52 -5 86t-19 63.5t-42.5 43.5t-72.5 14q-33 0 -66.5 -14.5t-50.5 -42.5q-37 -52 -37 -230q0 -75 3 -123t11.5 -92.5t25.5 -68t45 -37.5t69 -14q83 0 111 51t28 154z" />
    <glyph glyph-name="oe" unicode="&#x153;" horiz-adv-x="722" 
d="M662 124h22q-15 -68 -61.5 -102.5t-114.5 -34.5q-38 0 -77 17t-65 48q-52 -65 -142 -65q-80 0 -136.5 60t-56.5 150q0 89 56.5 149t136.5 60q80 -1 142 -67q72 66 139 67q78 0 128.5 -49t51.5 -129h-283v-41q0 -42 4 -70.5t16 -55.5t37.5 -40.5t64.5 -13.5q44 0 86 34.5
t52 82.5zM224 386q-29 0 -49.5 -12.5t-30.5 -29t-15 -46t-6 -49t-1 -52.5q0 -34 1 -53t6 -49t15 -46.5t30.5 -29t49.5 -12.5t49.5 12.5t30.5 29t15 46.5t6 49t1 53q0 33 -1 52.5t-6 49t-15 46t-30.5 29t-49.5 12.5zM403 257h191v34q0 95 -92 95q-21 0 -38.5 -8.5t-28 -20.5
t-16 -21t-6.5 -13q-8 -25 -10 -66z" />
    <glyph glyph-name="Scaron" unicode="&#x160;" 
d="M96 41l-43 -44h-14v172h19q21 -71 72 -116t121 -45q67 0 117.5 40.5t50.5 104.5q0 46 -17.5 70.5t-73.5 46.5q-12 5 -63.5 22.5t-94 33t-49.5 19.5q-81 50 -81 153q0 60 41 114q55 71 155 71q31 0 72 -15t59 -29l38 29h14v-156h-20q-17 66 -61.5 107t-108.5 41
q-54 0 -98 -34t-44 -88q0 -45 39 -71t94.5 -40t111.5 -33t95 -65.5t39 -121.5q0 -102 -59 -162t-158 -60q-97 0 -153 56zM277 700h-56l-121 166h32l117 -105l117 105h34z" />
    <glyph glyph-name="scaron" unicode="&#x161;" horiz-adv-x="389" 
d="M289 396h17v-112h-22q-25 98 -109 102q-28 1 -48.5 -8.5t-29.5 -23.5t-12.5 -24t-3.5 -17q0 -17 8 -26t43.5 -21.5t109.5 -27.5q57 -12 80.5 -39t23.5 -75q0 -63 -41.5 -100t-102.5 -37q-71 0 -115 49l-22 -36h-22v132h23q15 -56 51.5 -90.5t90.5 -34.5q36 0 66.5 24.5
t30.5 61.5q0 27 -33 43.5t-105 34.5q-69 17 -89 31q-35 25 -35 81q0 18 6 37.5t20 39.5t42.5 33t66.5 13q47 0 93 -37zM222 438h-56l-121 166h32l117 -105l117 105h34z" />
    <glyph glyph-name="Ydieresis" unicode="&#x178;" horiz-adv-x="667" 
d="M372 345l160 300h-99v23h206v-23h-80l-174 -335v-287h89v-23h-274v23h88v287l-193 335h-74v23h270v-23h-88zM251 718q-19 0 -32.5 13t-13.5 33t13 34t33 14q19 0 33 -14.5t14 -33.5t-14 -32.5t-33 -13.5zM446 718q-20 0 -33 13t-13 33t13 34t33 14q19 0 33 -14.5
t14 -33.5t-14 -32.5t-33 -13.5z" />
    <glyph glyph-name="Zcaron" unicode="&#x17d;" horiz-adv-x="556" 
d="M512 636l-387 -613h185q86 0 123.5 34.5t53.5 130.5h27l-11 -188h-487v41l386 604h-185q-70 0 -95.5 -26t-52.5 -113h-23l10 162h456v-32zM305 700h-56l-121 166h32l117 -105l117 105h34z" />
    <glyph glyph-name="zcaron" unicode="&#x17e;" horiz-adv-x="389" 
d="M73 266h-23v130h300v-25l-232 -348h126q35 0 53.5 30.5t31.5 91.5h19v-145h-323v22l234 351h-89q-44 0 -65.5 -19t-31.5 -88zM222 438h-56l-121 166h32l117 -105l117 105h34z" />
    <glyph glyph-name="florin" unicode="&#x192;" 
d="M400 376h-115q0 -251 -12 -355q-13 -116 -51 -175.5t-121 -59.5q-28 0 -49.5 17t-21.5 47q0 16 11 29.5t27 13.5q18 0 28 -11.5t10 -30.5q0 -5 -2 -17t-2 -14q0 -13 22 -13q73 0 77 166q1 41 2.5 139.5t3 172t1.5 91.5h-108v24h109q3 82 19.5 143t41.5 92t49.5 45.5
t48.5 14.5q93 0 93 -69q0 -9 -11 -23t-27 -14q-15 0 -24 10t-10 25l3 45q-12 5 -23 5q-29 0 -48 -21t-25.5 -55.5t-8.5 -54t-2 -40.5v-103h115v-24z" />
    <glyph glyph-name="circumflex" unicode="&#x2c6;" horiz-adv-x="278" 
d="M112 604h56l121 -166h-32l-117 105l-117 -105h-34z" />
    <glyph glyph-name="caron" unicode="&#x2c7;" horiz-adv-x="278" 
d="M166 438h-56l-121 166h32l117 -105l117 105h34z" />
    <glyph glyph-name="uni02C9" unicode="&#x2c9;" horiz-adv-x="278" 
d="M6 478v50h266v-50h-266z" />
    <glyph glyph-name="breve" unicode="&#x2d8;" horiz-adv-x="278" 
d="M0 593h27q5 -47 36 -73.5t76 -26.5t76 26.5t36 73.5h27q-1 -73 -38.5 -114.5t-100.5 -41.5t-100.5 41.5t-38.5 114.5z" />
    <glyph glyph-name="dotaccent" unicode="&#x2d9;" horiz-adv-x="278" 
d="M139 456q-19 0 -32.5 13t-13.5 33t13 34t33 14q19 0 33 -14.5t14 -33.5t-14 -32.5t-33 -13.5z" />
    <glyph glyph-name="ring" unicode="&#x2da;" horiz-adv-x="278" 
d="M136 604q-28 0 -47.5 -19.5t-19.5 -47.5q0 -29 19.5 -48t47.5 -19t47.5 19.5t19.5 47.5t-19.5 47.5t-47.5 19.5zM136 440q-41 0 -69 28t-28 69t28.5 69t68.5 28t68.5 -28.5t28.5 -68.5t-28.5 -68.5t-68.5 -28.5z" />
    <glyph glyph-name="ogonek" unicode="&#x2db;" horiz-adv-x="278" 
d="M118 0h41q-30 -32 -30 -68q0 -44 40 -44q27 0 38 49h31q-9 -49 -33 -74.5t-57 -25.5t-57.5 20t-24.5 53q0 45 52 90z" />
    <glyph glyph-name="tilde" unicode="&#x2dc;" horiz-adv-x="278" 
d="M274 564h29q-10 -43 -37.5 -72.5t-68.5 -29.5q-32 0 -74 23q-46 23 -64 23q-20 0 -35 -13.5t-19 -32.5h-27q8 43 35.5 70.5t70.5 27.5q21 0 67 -23q44 -23 65 -23q23 0 35 12.5t23 37.5z" />
    <glyph glyph-name="hungarumlaut" unicode="&#x2dd;" horiz-adv-x="278" 
d="M45 438l149 145q23 23 35 23q15 0 25 -9.5t10 -24.5q0 -10 -8 -20t-16 -15.5t-27 -17.5l-133 -81h-35zM215 438l149 145q23 23 35 23q15 0 25 -9.5t10 -24.5q0 -10 -8 -20t-16 -15.5t-27 -17.5l-133 -81h-35z" />
    <glyph glyph-name="uni03A9" unicode="&#x3a9;" horiz-adv-x="654" 
d="M624 139l-23 -139h-217l-6 18q5 10 25.5 53t30.5 68t25 66t22 79t7 75q-1 138 -47 202.5t-115 64.5q-160 0 -160 -271q0 -55 18 -119.5t33 -97.5t48 -101q6 -13 9 -19l-8 -18h-215l-21 139l25 1q14 -43 28 -56t42 -13h91q-29 26 -50 48t-48 59.5t-41.5 84t-14.5 99.5
q0 132 76 213t190 81q116 0 189.5 -77.5t73.5 -210.5q0 -48 -14 -92t-41 -83t-48.5 -64t-54.5 -58h97q28 0 40.5 12t26.5 57z" />
    <glyph glyph-name="uni03BC" unicode="&#x3bc;" 
d="M470 24v-24h-21q-46 0 -109 -7v81h-2q-20 -41 -58 -64.5t-87 -23.5q-42 0 -64 18q-7 -19 -5 -52q1 -16 18.5 -56.5t17.5 -62.5q0 -26 -13 -43t-39 -17q-48 0 -48 79q0 28 7.5 100t7.5 119v302h-54v23h20q72 0 112 10v-314q0 -74 61 -74q52 0 86.5 38t34.5 93v224h-57v23
h23q72 0 112 10v-382h57z" />
    <glyph glyph-name="pi" unicode="&#x3c0;" horiz-adv-x="517" 
d="M468 443l24 -8q-9 -54 -32 -90q-19 -5 -61 -5q-4 -46 -4 -208q0 -84 38 -84q21 0 44 25l12 -20q-17 -30 -43.5 -47.5t-54.5 -17.5q-85 0 -85 123q0 84 10 232q-26 0 -71 0.5t-62 0.5v-15q0 -98 -13 -175t-25 -106.5t-22 -42.5q-28 -13 -58 -17l-6 18q46 60 66 155.5
t20 184.5q-40 0 -63 -9t-54 -31l-13 23q34 43 55 58q42 29 103 28q204 -3 241 -3q22 0 33 6t21 25z" />
    <glyph glyph-name="endash" unicode="&#x2013;" 
d="M500 191h-500v51h500v-51z" />
    <glyph glyph-name="emdash" unicode="&#x2014;" horiz-adv-x="1000" 
d="M1000 191h-1000v51h1000v-51z" />
    <glyph glyph-name="quoteleft" unicode="&#x2018;" horiz-adv-x="222" 
d="M158 667l8 -17q-50 -41 -71 -71t-21 -59q0 -28 12 -28q2 0 6 4.5t8 10t14 10t24 4.5q54 0 54 -56q0 -25 -20 -42.5t-46 -17.5q-38 0 -61 25t-23 72t34 90t82 75z" />
    <glyph glyph-name="quoteright" unicode="&#x2019;" horiz-adv-x="222" 
d="M64 405l-8 17q50 41 71 71t21 59q0 28 -12 28q-2 0 -7 -7t-16 -14.5t-29 -7.5q-54 0 -54 56q0 25 20 42.5t46 17.5q38 0 61 -25t23 -72t-34 -90t-82 -75z" />
    <glyph glyph-name="quotesinglbase" unicode="&#x201a;" horiz-adv-x="222" 
d="M64 -161l-8 17q50 41 71 71t21 59q0 28 -12 28q-2 0 -3.5 -2t-4.5 -5.5t-6 -6.5q-13 -15 -38 -15q-54 0 -54 56q0 25 20 42.5t46 17.5q38 0 61 -25t23 -72t-34 -90t-82 -75z" />
    <glyph glyph-name="quotedblleft" unicode="&#x201c;" horiz-adv-x="444" 
d="M380 667l8 -17q-50 -41 -71 -71t-21 -59q0 -28 12 -28q2 0 6 4.5t8 10t14 10t24 4.5q54 0 54 -56q0 -25 -20 -42.5t-46 -17.5q-38 0 -61 25t-23 72t34 90t82 75zM158 667l8 -17q-50 -41 -71 -71t-21 -59q0 -28 12 -28q2 0 6 4.5t8 10t14 10t24 4.5q54 0 54 -56
q0 -25 -20 -42.5t-46 -17.5q-38 0 -61 25t-23 72t34 90t82 75z" />
    <glyph glyph-name="quotedblright" unicode="&#x201d;" horiz-adv-x="444" 
d="M64 405l-8 17q50 41 71 71t21 59q0 28 -12 28q-2 0 -7 -7t-16 -14.5t-29 -7.5q-54 0 -54 56q0 25 20 42.5t46 17.5q38 0 61 -25t23 -72t-34 -90t-82 -75zM286 405l-8 17q50 41 71 71t21 59q0 28 -12 28q-2 0 -7 -7t-16 -14.5t-29 -7.5q-54 0 -54 56q0 25 20 42.5t46 17.5
q38 0 61 -25t23 -72t-34 -90t-82 -75z" />
    <glyph glyph-name="quotedblbase" unicode="&#x201e;" horiz-adv-x="444" 
d="M64 -161l-8 17q50 41 71 71t21 59q0 28 -12 28q-2 0 -3.5 -2t-4.5 -5.5t-6 -6.5q-13 -15 -38 -15q-54 0 -54 56q0 25 20 42.5t46 17.5q38 0 61 -25t23 -72t-34 -90t-82 -75zM286 -161l-8 17q50 41 71 71t21 59q0 28 -12 28q-2 0 -3.5 -2t-4.5 -5.5t-6 -6.5
q-13 -15 -38 -15q-54 0 -54 56q0 25 20 42.5t46 17.5q38 0 61 -25t23 -72t-34 -90t-82 -75z" />
    <glyph glyph-name="dagger" unicode="&#x2020;" 
d="M260 -159h-20q0 97 -1.5 148.5t-11.5 126.5t-30 128q42 54 42 183q-44 0 -83 -17t-58 -17q-6 0 -14 2.5t-17.5 13.5t-9.5 28t9.5 28t17.5 13.5t14 2.5q19 0 58 -17t83 -17q0 51 -9 85t-18 52t-9 29q0 28 14 41.5t33 13.5t33 -13.5t14 -41.5q0 -11 -9 -29t-18 -52t-9 -85
q44 0 83 17t58 17q6 0 14 -2.5t17.5 -13.5t9.5 -28t-9.5 -28t-17.5 -13.5t-14 -2.5q-19 0 -58 17t-83 17q0 -129 42 -183q-20 -53 -30 -128t-11.5 -126.5t-1.5 -148.5z" />
    <glyph glyph-name="daggerdbl" unicode="&#x2021;" 
d="M197 251q42 46 42 176q-44 0 -83 -17t-58 -17q-6 0 -14 2.5t-17.5 13.5t-9.5 28t9.5 28t17.5 13.5t14 2.5q19 0 58 -17t83 -17q0 51 -9 85t-18 52t-9 29q0 28 14 41.5t33 13.5t33 -13.5t14 -41.5q0 -11 -9 -29t-18 -52t-9 -85q44 0 83 17t58 17q6 0 14 -2.5t17.5 -13.5
t9.5 -28t-9.5 -28t-17.5 -13.5t-14 -2.5q-19 0 -58 17t-83 17q0 -130 42 -176q-42 -46 -42 -176q44 0 83 17t58 17q6 0 14 -2.5t17.5 -13.5t9.5 -28t-9.5 -28t-17.5 -13.5t-14 -2.5q-19 0 -58 17t-83 17q0 -51 9 -85t18 -52t9 -29q0 -28 -14 -41t-33 -13t-33 13t-14 41
q0 11 9 29t18 52t9 85q-44 0 -83 -17t-58 -17q-6 0 -14 2.5t-17.5 13.5t-9.5 28t9.5 28t17.5 13.5t14 2.5q19 0 58 -17t83 -17q0 130 -42 176z" />
    <glyph glyph-name="bullet" unicode="&#x2022;" 
d="M87 327q0 67 47.5 115t115.5 48t115.5 -48t47.5 -115t-47.5 -115t-115.5 -48t-115.5 48t-47.5 115z" />
    <glyph glyph-name="ellipsis" unicode="&#x2026;" horiz-adv-x="1000" 
d="M165 -11q-25 0 -41 16t-16 41q0 22 17.5 38.5t39.5 16.5q23 0 42 -16.5t19 -38.5q0 -25 -18 -41t-43 -16zM498 -11q-25 0 -41 16t-16 41q0 22 17.5 38.5t39.5 16.5q23 0 42 -16.5t19 -38.5q0 -25 -18 -41t-43 -16zM831 -11q-25 0 -41 16t-16 41q0 22 17.5 38.5t39.5 16.5
q23 0 42 -16.5t19 -38.5q0 -25 -18 -41t-43 -16z" />
    <glyph glyph-name="perthousand" unicode="&#x2030;" horiz-adv-x="1000" 
d="M505 672h44l-392 -699h-51l347 613l-2 2q-56 -25 -92 -25q-24 0 -44 4q2 -14 1 -27q-6 -88 -62.5 -165t-130.5 -77q-64 0 -90.5 37t-26.5 80q0 77 69.5 160t142.5 83q30 0 56 -16t35 -43q13 -10 41 -10q98 0 155 83zM229 623q-13 0 -27 -9t-21 -17.5t-21 -26.5
q-31 -41 -53 -97.5t-22 -91.5q0 -54 56 -54q51 0 100.5 75.5t49.5 146.5q0 18 -2 29q-43 17 -60 45zM544 349q47 0 71.5 -31t24.5 -81q0 -48 -24.5 -105t-71.5 -101t-100 -44q-54 0 -84.5 31t-30.5 87q0 80 69.5 162t145.5 82zM556 315q-35 0 -71.5 -53t-56.5 -107t-20 -74
q0 -65 54 -65q51 0 102 75t51 150q0 74 -59 74zM898 349q47 0 71.5 -31t24.5 -81q0 -48 -24.5 -105t-71.5 -101t-100 -44q-54 0 -84.5 31t-30.5 87q0 80 69.5 162t145.5 82zM910 315q-35 0 -71.5 -53t-56.5 -107t-20 -74q0 -65 54 -65q51 0 102 75t51 150q0 74 -59 74z" />
    <glyph glyph-name="guilsinglleft" unicode="&#x2039;" horiz-adv-x="333" 
d="M153 216q29 -29 65.5 -82t36.5 -61q0 -9 -6 -9q-7 0 -29 21t-56 53.5t-57 51.5q-5 4 -10.5 8.5t-8 6t-5 4t-3.5 4t-1 3.5q0 3 2 5t10.5 8.5t15.5 12.5q23 19 57 51.5t56 53.5t29 21q6 0 6 -9q0 -8 -36.5 -61t-65.5 -82z" />
    <glyph glyph-name="guilsinglright" unicode="&#x203a;" horiz-adv-x="333" 
d="M181 216q-29 29 -65.5 82t-36.5 61q0 9 6 9q7 0 29 -21t56 -53.5t57 -51.5q5 -4 10.5 -8.5t8 -6t5 -4t3.5 -4t1 -3.5q0 -3 -2 -5t-10.5 -8.5t-15.5 -12.5q-23 -19 -57 -51.5t-56 -53.5t-29 -21q-6 0 -6 9q0 8 36.5 61t65.5 82z" />
    <glyph glyph-name="fraction" unicode="&#x2044;" horiz-adv-x="167" 
d="M-167 -13l451 671h50l-451 -671h-50z" />
    <glyph glyph-name="Euro" unicode="&#x20ac;" 
d="M429 399l-8 -24h-243q-1 -19 -1 -52q0 -39 1 -58h210l-8 -24h-202q2 -54 9 -93t21.5 -72t41 -49.5t63.5 -16.5q53 0 92 49t55 120h18v-179h-21l-21 43q-52 -56 -123 -56q-91 0 -153 69.5t-80 184.5h-65l8 24h54q-3 29 -3 57t3 53h-58l8 24h53q18 120 85 189.5t148 69.5
q60 0 118 -53l26 30h12v-170h-18q-29 170 -138 170q-121 0 -134 -236h250z" />
    <glyph glyph-name="afii61289" unicode="&#x2113;" horiz-adv-x="383" 
d="M347 113l20 -16q-56 -108 -156 -108q-66 0 -96 36q-17 22 -24 51t-7 86v74l-53 -39l-12 25l64 51v124q0 109 9.5 158.5t38.5 84.5q37 49 86 49q42 0 64.5 -35.5t22.5 -89.5q0 -77 -34 -141.5t-99 -131.5v-85q0 -90 18.5 -125t59.5 -35q53 0 98 67zM171 450v-113
q36 44 58.5 104t22.5 121q0 97 -40 97q-24 0 -32.5 -44t-8.5 -165z" />
    <glyph glyph-name="trademark" unicode="&#x2122;" horiz-adv-x="990" 
d="M240 636v-307q0 -39 5.5 -45.5t41.5 -10.5v-19h-163v19q37 4 42 10.5t5 45.5v307h-48q-51 0 -68 -69h-19v88h339v-88h-19q-17 69 -68 69h-48zM668 251l-152 308h-2v-222q0 -33 10.5 -46.5t41.5 -17.5v-19h-130v19q32 4 42.5 17.5t10.5 46.5v249q-9 22 -28.5 36t-40.5 14
v19h123l154 -303l159 303h98v-19q-31 -1 -42.5 -15t-11.5 -42v-250q0 -40 4.5 -46t42.5 -10v-19h-163v19q38 4 42.5 10t4.5 46v228h-2l-152 -306h-9z" />
    <glyph glyph-name="Omega" unicode="&#x2126;" horiz-adv-x="654" 
d="M624 139l-23 -139h-217l-6 18q5 10 25.5 53t30.5 68t25 66t22 79t7 75q-1 138 -47 202.5t-115 64.5q-160 0 -160 -271q0 -55 18 -119.5t33 -97.5t48 -101q6 -13 9 -19l-8 -18h-215l-21 139l25 1q14 -43 28 -56t42 -13h91q-29 26 -50 48t-48 59.5t-41.5 84t-14.5 99.5
q0 132 76 213t190 81q116 0 189.5 -77.5t73.5 -210.5q0 -48 -14 -92t-41 -83t-48.5 -64t-54.5 -58h97q28 0 40.5 12t26.5 57z" />
    <glyph glyph-name="estimated" unicode="&#x212e;" horiz-adv-x="808" 
d="M776 313h-603q-5 0 -5 -4v-183q0 -11 8 -21q96 -99 228 -99q142 0 240 111h53q-50 -60 -127.5 -94.5t-166.5 -34.5q-154 0 -263 97.5t-109 236.5t109 237t263 98t263.5 -98t109.5 -237v-9zM639 336v184q0 13 -9 22q-98 95 -226 95q-131 0 -227 -98q-9 -9 -9 -23v-180
q0 -6 5 -6h462q4 0 4 6z" />
    <glyph glyph-name="partialdiff" unicode="&#x2202;" horiz-adv-x="486" 
d="M240 401h1q76 0 117 -61q8 61 9 102q4 82 -23 146q-15 34 -45.5 57.5t-69.5 23.5q-62 0 -126 -54q-12 -1 -23.5 23.5t-5.5 41.5q57 37 128 37q123 0 192 -133q46 -93 46 -220q0 -135 -44 -232q-64 -143 -190 -143q-76 0 -121.5 49.5t-45.5 136.5q0 91 54 156
q25 31 64.5 50.5t82.5 19.5zM262 362h-1q-57 0 -93 -54q-41 -70 -41 -182q0 -47 21 -77.5t58 -30.5q56 0 99 100q30 67 45 181q-9 22 -33.5 42.5t-54.5 20.5z" />
    <glyph glyph-name="Delta" unicode="&#x2206;" horiz-adv-x="579" 
d="M547 0h-516v26l234 619l40 11l242 -630v-26zM435 48l-178 471l-173 -471h351z" />
    <glyph glyph-name="product" unicode="&#x220f;" horiz-adv-x="629" 
d="M604 649v-26q-58 -5 -70.5 -16.5t-12.5 -56.5v-524q0 -50 13 -63t69 -17v-27h-245v27q51 4 62 16t11 64v558q0 21 -6.5 26.5t-27.5 5.5h-168q-20 0 -25.5 -5t-5.5 -23v-562q0 -51 9.5 -63.5t57.5 -16.5v-27h-239v27q55 4 68 17t13 63v524q0 46 -13 57.5t-71 15.5v26h581z
" />
    <glyph glyph-name="summation" unicode="&#x2211;" horiz-adv-x="504" 
d="M483 96l-40 -181h-418v24l203 315l-198 370v25h413q0 -6 4.5 -62.5t6.5 -90.5l-27 -5q-12 61 -30 93q-10 19 -28 25.5t-68 6.5h-160l165 -299l-204 -323h225q61 0 81.5 16.5t47.5 92.5z" />
    <glyph glyph-name="minus" unicode="&#x2212;" horiz-adv-x="550" 
d="M507 214h-464v58h464v-58z" />
    <glyph glyph-name="uni2215" unicode="&#x2215;" horiz-adv-x="167" 
d="M-167 -13l451 671h50l-451 -671h-50z" />
    <glyph glyph-name="uni2219" unicode="&#x2219;" horiz-adv-x="250" 
d="M123 186q-25 0 -41 16t-16 41q0 22 17.5 38.5t39.5 16.5q23 0 42 -16.5t19 -38.5q0 -25 -18 -41t-43 -16z" />
    <glyph glyph-name="radical" unicode="&#x221a;" horiz-adv-x="505" 
d="M491 824l-155 -969l-21 -10l-195 511l-80 -37l-11 32l151 69l145 -396h2l125 808z" />
    <glyph glyph-name="infinity" unicode="&#x221e;" horiz-adv-x="692" 
d="M648 268v-1q0 -67 -42 -108.5t-99 -41.5q-79 0 -160 103q-42 -50 -79.5 -76.5t-86.5 -26.5q-57 0 -97.5 41.5t-40.5 104.5q0 65 41 107t104 42q80 0 162 -101q49 55 74 72q41 29 88 29q59 0 97.5 -40t38.5 -104zM188 172h1q24 0 49.5 16t39 30t38.5 43q-22 28 -30 37.5
t-26.5 28t-36.5 25t-39 6.5q-39 0 -61.5 -27t-22.5 -69q0 -38 25 -64t63 -26zM507 358h-1q-16 0 -31 -5.5t-31 -19t-23.5 -20.5t-24.5 -26.5t-18 -20.5q44 -53 71 -73.5t60 -20.5q37 0 59.5 28.5t22.5 62.5q0 42 -23.5 68.5t-60.5 26.5z" />
    <glyph glyph-name="integral" unicode="&#x222b;" horiz-adv-x="352" 
d="M147 5l-18 381q-19 398 148 398q22 0 40.5 -12.5t18.5 -33.5q0 -22 -13 -33.5t-32 -11.5q-17 0 -28.5 23.5t-20.5 23.5q-41 0 -34 -150l17 -352q6 -120 -4 -206t-32.5 -132t-50.5 -66.5t-63 -20.5q-25 0 -42.5 14t-17.5 34q-1 20 15.5 34t36.5 14q15 0 26.5 -25.5
t20.5 -25.5q41 0 33 147z" />
    <glyph glyph-name="approxequal" unicode="&#x2248;" horiz-adv-x="486" 
d="M412 406l38 -32q-46 -91 -118 -91q-40 0 -99 36q-46 30 -78 30q-26 0 -45 -17t-38 -48l-38 32q20 41 53.5 65.5t73.5 24.5q9 0 17 -1t16.5 -3.5t14 -4.5t14 -6.5t11.5 -6t11.5 -6.5t9.5 -6q52 -31 77 -31q24 0 42 16t38 49zM412 246l38 -33q-47 -90 -119 -90
q-39 0 -98 36q-48 30 -77 30q-28 0 -46 -16.5t-38 -48.5l-38 32q20 40 54 64.5t73 24.5q38 0 94 -33q18 -12 38.5 -22t38.5 -10q25 0 42.5 16t37.5 50z" />
    <glyph glyph-name="notequal" unicode="&#x2260;" horiz-adv-x="486" 
d="M353 463l-36 -81h125v-58h-147l-54 -124h201v-57h-223l-45 -102l-45 19l36 83h-122v57h145l53 124h-198v58h220l45 100z" />
    <glyph glyph-name="lessequal" unicode="&#x2264;" horiz-adv-x="486" 
d="M440 95l-392 201v62l392 200v-68l-334 -162v-2l334 -163v-68zM443 0h-399v60h399v-60z" />
    <glyph glyph-name="greaterequal" unicode="&#x2265;" horiz-adv-x="486" 
d="M49 558l392 -201v-62l-392 -200v68l333 163v2l-333 162v68zM442 0h-397v60h397v-60z" />
    <glyph glyph-name="lozenge" unicode="&#x25ca;" horiz-adv-x="510" 
d="M466 313l-176 -377h-70l-176 377l177 379h69zM401 313l-144 316h-3l-145 -315l145 -317h3z" />
    </font>
</defs>
</svg>
